# This file uses centimeters as units for non-parametric coordinates.

v -0.500000 0.000000 0.000000
v 0.500000 0.000000 0.000000
v -0.036823 0.065857 -0.046823
v -0.036823 0.065857 0.005546
v -0.036823 0.013487 0.005546
v -0.036823 0.013487 -0.046823
v -0.309667 -0.017708 0.012500
v -0.309667 -0.017708 0.042642
v -0.309667 -0.047851 0.042642
v -0.309667 -0.047851 0.012500
v 0.254733 -0.041025 0.041729
v 0.254733 -0.010558 0.041729
v 0.254733 -0.010558 0.011262
v 0.254733 -0.041025 0.011262
vt 0.490724 0.011137
vt 0.490723 0.011137
vt 0.490724 0.011137
vt 0.490724 0.011137
vt 0.490724 0.011137
vt 0.490724 0.011137
vt 0.490724 0.011137
vt 0.490724 0.011137
vt 0.490724 0.011137
vt 0.490724 0.011137
vt 0.490724 0.011137
vt 0.490724 0.011137
vt 0.490724 0.011137
vt 0.490724 0.011137
vt 0.490724 0.011137
vt 0.490724 0.011137
vt 0.490724 0.011137
vn -0.000649 0.000000 1.000000
vn 0.002672 0.000000 0.999996
vn -0.053734 0.000000 0.998555
vn -0.060806 0.000000 0.998150
vn -0.010604 0.999944 0.000000
vn -0.012931 0.999916 0.000000
vn 0.188424 0.982088 0.000000
vn 0.191016 0.981587 0.000000
vn -0.003836 0.000000 -0.999993
vn 0.001352 0.000000 -0.999999
vn 0.144959 0.000000 -0.989438
vn 0.139424 0.000000 -0.990233
vn 0.012325 -0.999924 0.000000
vn 0.010516 -0.999945 0.000000
vn -0.108104 -0.994140 0.000000
vn -0.104681 -0.994506 0.000000
vn -0.224468 0.974482 0.000000
vn -0.223478 0.974709 0.000000
vn -0.012931 0.999916 0.000000
vn -0.010604 0.999944 0.000000
vn 0.069204 0.000000 0.997603
vn 0.063646 0.000000 0.997973
vn 0.002672 0.000000 0.999996
vn -0.000649 0.000000 1.000000
vn 0.131396 -0.991330 0.000000
vn 0.133301 -0.991076 0.000000
vn 0.010516 -0.999945 0.000000
vn 0.012325 -0.999924 0.000000
vn -0.158892 0.000000 -0.987296
vn -0.162721 0.000000 -0.986672
vn 0.001352 0.000000 -0.999999
vn -0.003836 0.000000 -0.999993
vn 0.092637 0.995700 0.000000
vn -0.223478 0.974709 0.000000
vn -0.224468 0.974482 0.000000
vn -0.218621 0.000000 0.975810
vn 0.063646 0.000000 0.997973
vn 0.069204 0.000000 0.997603
vn -0.243818 -0.969821 0.000000
vn 0.133301 -0.991076 0.000000
vn 0.131396 -0.991330 0.000000
vn 0.065532 0.000000 -0.997850
vn -0.162721 0.000000 -0.986672
vn -0.158892 0.000000 -0.987296
vn -0.060806 0.000000 0.998150
vn -0.053734 0.000000 0.998555
vn 0.167728 0.000000 0.985833
vn 0.191016 0.981587 0.000000
vn 0.188424 0.982088 0.000000
vn -0.043006 0.999075 0.000000
vn 0.139424 0.000000 -0.990233
vn 0.144959 0.000000 -0.989438
vn -0.045871 0.000000 -0.998947
vn -0.104681 -0.994506 0.000000
vn -0.108104 -0.994140 0.000000
vn 0.164973 -0.986298 0.000000
s off
f 4/4/1 5/5/2 11/13/3 12/15/4
f 3/3/5 4/4/6 12/15/7 13/16/8
f 6/7/9 3/3/10 13/16/11 14/17/12
f 5/6/13 6/7/14 14/17/15 11/14/16
f 7/8/17 8/9/18 4/4/19 3/3/20
f 8/9/21 9/10/22 5/5/23 4/4/24
f 9/11/25 10/12/26 6/7/27 5/6/28
f 10/12/29 7/8/30 3/3/31 6/7/32
f 1/1/33 8/9/34 7/8/35
f 1/1/36 9/10/37 8/9/38
f 1/1/39 10/12/40 9/11/41
f 1/1/42 7/8/43 10/12/44
f 12/15/45 11/13/46 2/2/47
f 13/16/48 12/15/49 2/2/50
f 14/17/51 13/16/52 2/2/53
f 11/14/54 14/17/55 2/2/56
