# This file uses centimeters as units for non-parametric coordinates.

v -0.007058 0.896435 0.313317
v 0.123482 0.881855 0.313464
v 0.199532 0.840263 0.283204
v 0.166893 0.418196 0.313945
v -0.124021 -0.178238 0.314401
v -0.123954 0.825714 0.314401
v 0.182020 -0.367388 0.311921
v 0.218472 0.461962 0.250398
v 0.300646 -0.003637 0.108066
v -0.136289 -0.860550 0.311521
v 0.021472 -0.931194 0.311448
v 0.342569 0.883896 0.035416
v -0.239609 -0.930748 0.195979
v -0.079415 -0.930565 0.310224
v -0.050854 0.931202 0.211066
v 0.182020 -0.862087 0.311923
v 0.166315 0.930492 0.181642
v 0.342621 -0.352839 0.035363
v 0.240257 -0.931198 0.138618
v -0.282206 0.929504 -0.006310
v 0.342127 -0.817986 0.035385
v -0.279993 -0.929806 0.135545
v 0.321632 0.929348 0.009634
v -0.207893 0.809727 0.266431
v 0.342604 0.141862 0.035393
v -0.208707 0.010912 0.267310
v -0.332418 0.272830 0.047652
v -0.335831 0.875763 0.033806
v 0.342594 0.767513 -0.035408
v -0.359411 0.010912 -0.006280
v -0.359230 0.432863 0.006597
v 0.342514 0.141836 -0.035395
v 0.344318 -0.812374 -0.019984
v 0.178980 -0.883064 -0.306733
v 0.283909 -0.032737 -0.137055
v 0.264437 0.927322 -0.149860
v -0.335440 0.258263 -0.047799
v -0.208626 0.928307 -0.251608
v -0.282900 -0.931198 -0.135671
v 0.182020 -0.105488 -0.311920
v -0.359224 -0.774776 0.006607
v 0.166826 -0.930496 -0.239869
v 0.234873 -0.926338 -0.152811
v 0.109308 0.929073 -0.279221
v -0.359415 0.767513 -0.006276
v -0.181953 0.810852 -0.311294
v 0.179197 0.851097 -0.308531
v -0.182019 0.447412 -0.311921
v -0.021984 -0.250988 -0.314401
v -0.225443 -0.250988 -0.238322
v -0.182011 -0.352839 -0.311937
v -0.182020 -0.832985 -0.311920
vt 0.211594 0.278572
vt 0.211594 0.300503
vt 0.211594 0.300503
vt 0.211594 0.278572
vt 0.211594 0.278572
vt 0.211594 0.300503
vt 0.211594 0.300503
vt 0.211594 0.300503
vt 0.211594 0.300503
vt 0.211594 0.278572
vt 0.211594 0.300503
vt 0.211594 0.278572
vt 0.211594 0.300503
vt 0.211594 0.278572
vt 0.211594 0.300503
vt 0.211594 0.278572
vt 0.211594 0.300503
vt 0.211594 0.278572
vt 0.211594 0.278572
vt 0.211594 0.278572
vt 0.211594 0.300503
vt 0.211594 0.278572
vt 0.211594 0.278572
vt 0.211594 0.278572
vt 0.211594 0.278572
vt 0.211594 0.300503
vt 0.211594 0.300503
vt 0.211594 0.300503
vt 0.211594 0.278572
vt 0.211594 0.300503
vt 0.211594 0.278572
vt 0.211594 0.278572
vt 0.211594 0.300503
vt 0.211594 0.278572
vt 0.211594 0.300503
vt 0.211594 0.278572
vt 0.211594 0.300503
vt 0.211594 0.278572
vt 0.211594 0.300503
vt 0.211594 0.300503
vt 0.211594 0.300503
vt 0.211594 0.278572
vt 0.211594 0.278572
vt 0.211594 0.278572
vt 0.211594 0.300503
vt 0.211594 0.278572
vt 0.211594 0.300503
vt 0.211594 0.300503
vt 0.211594 0.278572
vt 0.211594 0.300503
vt 0.211594 0.300503
vt 0.211594 0.300503
vt 0.211594 0.278572
vt 0.211594 0.300503
vt 0.211594 0.278572
vt 0.211594 0.278572
vt 0.211594 0.300503
vt 0.211594 0.278572
vt 0.211594 0.300503
vt 0.211594 0.278572
vt 0.211594 0.278572
vt 0.211594 0.278572
vt 0.211594 0.278572
vt 0.211594 0.278572
vt 0.211594 0.300503
vt 0.211594 0.278572
vt 0.211594 0.278572
vt 0.211594 0.278572
vt 0.211594 0.278572
vt 0.211594 0.278572
vt 0.211594 0.278572
vt 0.211594 0.278572
vt 0.211594 0.278572
vt 0.211594 0.278572
vt 0.211594 0.300503
vt 0.211594 0.278572
vt 0.211594 0.300503
vt 0.211594 0.278572
vt 0.211594 0.278572
vt 0.211594 0.278572
vt 0.211594 0.278572
vt 0.211594 0.278572
vt 0.211594 0.278572
vt 0.211594 0.278572
vt 0.211594 0.278572
vt 0.211594 0.278572
vt 0.211594 0.300503
vt 0.211594 0.278572
vt 0.211594 0.278572
vt 0.211594 0.300503
vt 0.211594 0.278572
vt 0.211594 0.278572
vt 0.211594 0.300503
vt 0.211594 0.278572
vt 0.211594 0.278572
vt 0.211594 0.278572
vt 0.211594 0.278572
vt 0.211594 0.278572
vt 0.211594 0.278572
vt 0.211594 0.278572
vt 0.211594 0.278572
vt 0.211594 0.278572
vt 0.211594 0.278572
vt 0.211594 0.300503
vt 0.211594 0.278572
vt 0.211594 0.300503
vt 0.211594 0.278572
vt 0.211594 0.278572
vt 0.211594 0.278572
vt 0.211594 0.278572
vt 0.211594 0.300503
vt 0.211594 0.278572
vt 0.211594 0.278572
vt 0.211594 0.278572
vt 0.211594 0.300503
vt 0.211594 0.278572
vt 0.211594 0.300503
vt 0.211594 0.278572
vt 0.211594 0.278572
vt 0.211594 0.278572
vt 0.211594 0.278572
vt 0.211594 0.278572
vt 0.211594 0.300503
vt 0.211594 0.278572
vt 0.211594 0.300503
vt 0.211594 0.278572
vt 0.211594 0.300503
vt 0.211594 0.278572
vt 0.211594 0.278572
vt 0.211594 0.278572
vt 0.211594 0.300503
vt 0.211594 0.278572
vt 0.211594 0.278572
vt 0.211594 0.278572
vt 0.211594 0.278572
vt 0.211594 0.278572
vt 0.211594 0.278572
vt 0.211594 0.278572
vt 0.211594 0.300503
vt 0.211594 0.300503
vt 0.211594 0.278572
vt 0.211594 0.278572
vt 0.211594 0.278572
vt 0.211594 0.278572
vt 0.211594 0.278572
vt 0.211594 0.278572
vt 0.211594 0.300503
vt 0.211594 0.278572
vt 0.211594 0.278572
vt 0.211594 0.300503
vt 0.211594 0.278572
vt 0.211594 0.278572
vt 0.211594 0.300503
vt 0.211594 0.278572
vt 0.211594 0.300503
vt 0.211594 0.278572
vt 0.211594 0.300503
vt 0.211594 0.278572
vt 0.211594 0.278572
vt 0.211594 0.278572
vt 0.211594 0.278572
vt 0.211594 0.278572
vt 0.211594 0.300503
vt 0.211594 0.278572
vt 0.211594 0.278572
vt 0.211594 0.278572
vt 0.211594 0.278572
vn 0.009268 -0.000001 0.999957
vn 0.009268 -0.000001 0.999957
vn 0.009268 -0.000001 0.999957
vn -0.001000 0.001117 0.999999
vn -0.001000 0.001117 0.999999
vn -0.001000 0.001117 0.999999
vn 0.386943 0.037183 0.921354
vn 0.386943 0.037183 0.921354
vn 0.386943 0.037183 0.921354
vn -0.000469 0.000993 0.999999
vn -0.000469 0.000993 0.999999
vn -0.000469 0.000993 0.999999
vn 0.006588 -0.002449 0.999975
vn 0.006588 -0.002449 0.999975
vn 0.006588 -0.002449 0.999975
vn -0.485924 0.000032 0.874001
vn -0.485924 0.000032 0.874001
vn -0.485924 0.000032 0.874001
vn -0.477627 0.004879 0.878549
vn -0.477627 0.004879 0.878549
vn -0.477627 0.004879 0.878549
vn 0.008104 0.000004 0.999967
vn 0.008104 0.000004 0.999967
vn 0.008104 0.000004 0.999967
vn -0.001173 -0.004148 0.999991
vn -0.001173 -0.004148 0.999991
vn -0.001173 -0.004148 0.999991
vn -0.001419 -0.004196 0.999990
vn -0.001419 -0.004196 0.999990
vn -0.001419 -0.004196 0.999990
vn -0.012310 -0.028515 0.999518
vn -0.012310 -0.028515 0.999518
vn -0.012310 -0.028515 0.999518
vn -0.422424 0.766549 0.483695
vn -0.422424 0.766549 0.483695
vn -0.422424 0.766549 0.483695
vn -0.457680 0.763495 0.455637
vn -0.457680 0.763495 0.455637
vn -0.457680 0.763495 0.455637
vn 0.771889 0.013226 0.635619
vn 0.771889 0.013226 0.635619
vn 0.771889 0.013226 0.635619
vn 0.864919 -0.000782 0.501911
vn 0.864919 -0.000782 0.501911
vn 0.864919 -0.000782 0.501911
vn 0.352667 -0.822376 0.446456
vn 0.352667 -0.822376 0.446456
vn 0.352667 -0.822376 0.446456
vn 0.781371 -0.014984 0.623887
vn 0.781371 -0.014984 0.623887
vn 0.781371 -0.014984 0.623887
vn -0.521803 -0.437432 0.732376
vn -0.521803 -0.437433 0.732376
vn -0.521803 -0.437432 0.732376
vn -0.496384 0.001461 0.868102
vn -0.496384 0.001461 0.868102
vn -0.496384 0.001461 0.868102
vn 0.865418 0.000002 0.501050
vn 0.865418 0.000002 0.501050
vn 0.865418 0.000002 0.501050
vn -0.736960 -0.026977 0.675398
vn -0.736960 -0.026977 0.675398
vn -0.736960 -0.026977 0.675398
vn 0.559334 0.702045 0.440770
vn 0.559334 0.702045 0.440770
vn 0.559334 0.702045 0.440770
vn -0.849845 -0.012024 0.526896
vn -0.849845 -0.012024 0.526896
vn -0.849845 -0.012024 0.526896
vn 0.866060 0.000005 0.499941
vn 0.866060 0.000005 0.499941
vn 0.866060 0.000005 0.499941
vn -0.006366 -0.999924 0.010529
vn -0.006366 -0.999924 0.010529
vn -0.006366 -0.999924 0.010529
vn 0.044368 0.951474 0.304515
vn 0.044368 0.951474 0.304515
vn 0.044368 0.951474 0.304515
vn 0.102551 0.921950 0.373485
vn 0.102551 0.921950 0.373485
vn 0.102551 0.921950 0.373485
vn -0.001285 -0.999998 -0.001605
vn -0.001285 -0.999998 -0.001605
vn -0.001285 -0.999998 -0.001605
vn -0.009378 -0.999913 -0.009322
vn -0.009378 -0.999913 -0.009322
vn -0.009378 -0.999913 -0.009322
vn -0.001029 -0.999998 -0.001538
vn -0.001029 -0.999998 -0.001538
vn -0.001029 -0.999998 -0.001538
vn 0.002695 0.999987 -0.004220
vn 0.002695 0.999987 -0.004220
vn 0.002695 0.999988 -0.004220
vn 0.864777 -0.000598 0.502155
vn 0.864777 -0.000598 0.502156
vn 0.864777 -0.000598 0.502156
vn -0.830589 0.037613 0.555614
vn -0.830589 0.037613 0.555614
vn -0.830589 0.037613 0.555614
vn -0.436777 0.773766 0.458816
vn -0.436777 0.773766 0.458816
vn -0.436777 0.773766 0.458816
vn 0.520760 0.715645 0.465468
vn 0.520760 0.715645 0.465468
vn 0.520760 0.715645 0.465468
vn 0.866026 -0.000002 0.499999
vn 0.866026 -0.000002 0.499999
vn 0.866026 -0.000002 0.499999
vn 0.000479 0.999965 -0.008318
vn 0.000479 0.999965 -0.008318
vn 0.000479 0.999965 -0.008318
vn -0.876055 0.001423 0.482210
vn -0.876055 0.001423 0.482210
vn -0.876055 0.001423 0.482210
vn 0.830734 -0.361501 0.423317
vn 0.830734 -0.361501 0.423317
vn 0.830734 -0.361501 0.423317
vn 0.084124 -0.996290 -0.018168
vn 0.084124 -0.996290 -0.018168
vn 0.084124 -0.996290 -0.018168
vn -0.868816 0.005967 0.495099
vn -0.868816 0.005967 0.495099
vn -0.868816 0.005967 0.495099
vn 0.659162 0.577112 0.482128
vn 0.659162 0.577112 0.482128
vn 0.659162 0.577112 0.482128
vn 0.866043 0.000025 0.499969
vn 0.866043 0.000025 0.499969
vn 0.866043 0.000025 0.499969
vn -0.885524 -0.029409 0.463661
vn -0.885524 -0.029409 0.463662
vn -0.885524 -0.029409 0.463662
vn 0.864784 -0.000895 0.502144
vn 0.864784 -0.000895 0.502144
vn 0.864784 -0.000895 0.502144
vn 0.731750 -0.681119 -0.024878
vn 0.731750 -0.681119 -0.024878
vn 0.731750 -0.681119 -0.024878
vn -0.894355 -0.447199 0.011881
vn -0.894355 -0.447199 0.011881
vn -0.894355 -0.447199 0.011881
vn -0.433911 0.775412 0.458757
vn -0.433911 0.775412 0.458757
vn -0.433911 0.775412 0.458757
vn 0.956202 -0.291090 -0.030733
vn 0.956202 -0.291090 -0.030733
vn 0.956202 -0.291090 -0.030733
vn 0.999221 -0.001059 0.039442
vn 0.999221 -0.001059 0.039442
vn 0.999221 -0.001059 0.039442
vn -0.851744 0.019669 0.523589
vn -0.851744 0.019669 0.523589
vn -0.851744 0.019669 0.523589
vn -0.875869 -0.009080 0.482464
vn -0.875869 -0.009080 0.482464
vn -0.875869 -0.009080 0.482464
vn 0.987171 0.136057 -0.083557
vn 0.987171 0.136057 -0.083557
vn 0.987171 0.136057 -0.083557
vn -0.875879 0.007705 0.482469
vn -0.875879 0.007705 0.482469
vn -0.875879 0.007705 0.482469
vn 0.002743 -0.999983 0.005104
vn 0.002743 -0.999983 0.005104
vn 0.002743 -0.999983 0.005104
vn -0.769944 0.593718 -0.233851
vn -0.769944 0.593718 -0.233851
vn -0.769944 0.593718 -0.233851
vn 1.000000 0.000046 0.000274
vn 1.000000 0.000046 0.000274
vn 1.000000 0.000046 0.000274
vn 0.999999 -0.000128 -0.001266
vn 0.999999 -0.000128 -0.001266
vn 0.999999 -0.000128 -0.001266
vn -0.986975 -0.151413 0.054348
vn -0.986975 -0.151413 0.054348
vn -0.986975 -0.151413 0.054348
vn -0.994936 0.099168 0.016357
vn -0.994936 0.099168 0.016357
vn -0.994936 0.099168 0.016357
vn 0.948196 -0.317685 -0.001081
vn 0.948196 -0.317685 -0.001081
vn 0.948196 -0.317685 -0.001081
vn -0.870022 -0.008292 -0.492943
vn -0.870022 -0.008292 -0.492943
vn -0.870022 -0.008292 -0.492943
vn -0.002912 0.999979 -0.005756
vn -0.002912 0.999979 -0.005756
vn -0.002912 0.999979 -0.005756
vn 0.000290 0.999999 -0.001164
vn 0.000290 0.999999 -0.001164
vn 0.000290 0.999999 -0.001164
vn 0.914336 0.233509 -0.330854
vn 0.914336 0.233509 -0.330854
vn 0.914336 0.233509 -0.330854
vn 0.917970 0.206341 -0.338753
vn 0.917970 0.206341 -0.338753
vn 0.917970 0.206342 -0.338753
vn 0.964175 0.035228 -0.262919
vn 0.964175 0.035228 -0.262919
vn 0.964175 0.035228 -0.262919
vn 0.742689 -0.668537 -0.038356
vn 0.742689 -0.668537 -0.038356
vn 0.742689 -0.668537 -0.038356
vn -0.886428 0.317750 -0.336572
vn -0.886428 0.317750 -0.336572
vn -0.886428 0.317750 -0.336572
vn 0.864930 -0.000121 -0.501892
vn 0.864930 -0.000121 -0.501892
vn 0.864930 -0.000121 -0.501892
vn 0.867093 -0.007607 -0.498088
vn 0.867093 -0.007607 -0.498088
vn 0.867093 -0.007607 -0.498088
vn -0.873324 -0.019207 -0.486761
vn -0.873324 -0.019207 -0.486761
vn -0.873324 -0.019207 -0.486761
vn -0.874032 0.031950 -0.484818
vn -0.874032 0.031950 -0.484818
vn -0.874032 0.031950 -0.484818
vn -0.864525 -0.000579 -0.502590
vn -0.864525 -0.000579 -0.502590
vn -0.864525 -0.000579 -0.502590
vn 0.865137 0.067155 -0.497020
vn 0.865137 0.067155 -0.497020
vn 0.865137 0.067155 -0.497020
vn 0.858731 0.004350 -0.512408
vn 0.858731 0.004350 -0.512408
vn 0.858731 0.004350 -0.512408
vn 0.863277 0.004106 -0.504714
vn 0.863277 0.004106 -0.504714
vn 0.863277 0.004106 -0.504714
vn -0.872243 0.018915 -0.488706
vn -0.872243 0.018915 -0.488706
vn -0.872243 0.018915 -0.488706
vn 0.865224 -0.006727 -0.501341
vn 0.865224 -0.006727 -0.501341
vn 0.865224 -0.006727 -0.501341
vn -0.874162 -0.003811 -0.485620
vn -0.874162 -0.003811 -0.485620
vn -0.874162 -0.003811 -0.485620
vn 0.847863 -0.343012 -0.404315
vn 0.847863 -0.343012 -0.404315
vn 0.847863 -0.343012 -0.404315
vn 0.031187 0.999228 -0.023874
vn 0.031187 0.999228 -0.023874
vn 0.031187 0.999228 -0.023874
vn -0.122838 -0.835359 -0.535805
vn -0.122838 -0.835359 -0.535805
vn -0.122838 -0.835359 -0.535805
vn -0.861273 -0.000001 -0.508142
vn -0.861273 -0.000001 -0.508142
vn -0.861273 -0.000001 -0.508142
vn -0.866426 0.055406 -0.496222
vn -0.866426 0.055406 -0.496222
vn -0.866426 0.055406 -0.496222
vn 0.564455 -0.718216 -0.406887
vn 0.564455 -0.718216 -0.406887
vn 0.564455 -0.718216 -0.406887
vn 0.488466 0.654660 -0.576906
vn 0.488466 0.654660 -0.576906
vn 0.488466 0.654660 -0.576906
vn -0.864415 0.001025 -0.502778
vn -0.864415 0.001025 -0.502778
vn -0.864415 0.001025 -0.502778
vn -0.865522 0.001032 -0.500869
vn -0.865522 0.001032 -0.500869
vn -0.865522 0.001032 -0.500869
vn -0.078859 0.437323 -0.895841
vn -0.078859 0.437323 -0.895841
vn -0.078859 0.437322 -0.895841
vn -0.029386 0.328514 -0.944042
vn -0.029386 0.328514 -0.944042
vn -0.029386 0.328514 -0.944042
vn 0.007252 0.003564 -0.999967
vn 0.007252 0.003564 -0.999967
vn 0.007252 0.003564 -0.999967
vn 0.002624 0.001726 -0.999995
vn 0.002624 0.001726 -0.999995
vn 0.002624 0.001726 -0.999995
vn 0.008274 0.005446 -0.999951
vn 0.008274 0.005446 -0.999951
vn 0.008274 0.005446 -0.999951
vn -0.349208 -0.076704 -0.933900
vn -0.349208 -0.076704 -0.933900
vn -0.349208 -0.076704 -0.933900
vn 0.016961 -0.006736 -0.999834
vn 0.016961 -0.006736 -0.999833
vn 0.016961 -0.006736 -0.999833
vn -0.309765 0.466665 -0.828414
vn -0.309765 0.466664 -0.828414
vn -0.309765 0.466664 -0.828414
vn -0.006380 -0.014158 -0.999879
vn -0.006380 -0.014158 -0.999879
vn -0.006380 -0.014158 -0.999879
vn 0.014362 -0.000036 -0.999897
vn 0.014362 -0.000036 -0.999897
vn 0.014362 -0.000036 -0.999897
vn -0.102862 -0.802377 -0.587887
vn -0.102862 -0.802377 -0.587887
vn -0.102862 -0.802377 -0.587887
s off
f 1/157/1 6/2/2 5/3/3
f 1/157/4 5/3/5 2/155/6
f 3/140/7 2/155/8 4/6/9
f 2/155/10 5/3/11 4/6/12
f 4/6/13 5/3/14 7/7/15
f 6/2/16 26/8/17 5/3/18
f 5/3/19 26/8/20 10/9/21
f 7/7/22 5/3/23 16/163/24
f 5/3/25 11/153/26 16/163/27
f 5/3/28 10/9/29 11/153/30
f 11/152/31 10/164/32 14/161/33
f 15/145/34 24/130/35 6/166/36
f 1/158/37 15/144/38 6/167/39
f 4/6/40 7/7/41 8/15/42
f 7/7/43 9/127/44 8/15/45
f 11/154/46 19/133/47 16/162/48
f 3/140/49 4/6/50 8/15/51
f 10/165/52 13/148/53 14/160/54
f 6/2/55 24/131/56 26/8/57
f 7/7/58 16/163/59 21/125/60
f 10/9/61 26/8/62 13/147/63
f 17/136/64 2/4/65 3/141/66
f 26/8/67 41/21/68 13/147/69
f 12/111/70 3/140/71 8/15/72
f 13/149/73 11/151/74 14/12/75
f 17/138/76 15/143/77 1/159/78
f 2/156/79 17/137/80 1/1/81
f 42/57/82 19/17/83 11/11/84
f 13/150/85 22/123/86 42/57/87
f 42/57/88 11/11/89 13/150/90
f 23/104/91 15/13/92 17/139/93
f 18/26/94 9/127/95 7/7/96
f 13/18/97 41/94/98 22/122/99
f 20/119/100 24/14/101 15/146/102
f 3/142/103 23/103/104 17/20/105
f 8/15/106 9/127/107 25/28/108
f 23/104/109 20/27/110 15/13/111
f 24/131/112 28/115/113 26/8/114
f 16/10/115 19/134/116 21/124/117
f 42/57/118 43/30/119 19/17/120
f 28/115/121 45/90/122 26/8/123
f 23/102/124 3/5/125 12/112/126
f 12/111/127 8/15/128 25/28/129
f 27/117/130 26/8/131 31/33/132
f 21/125/133 18/26/134 7/7/135
f 19/135/136 43/81/137 21/19/138
f 41/95/139 39/92/140 22/24/141
f 24/132/142 20/120/143 28/114/144
f 9/128/145 35/101/146 25/129/147
f 21/125/148 33/106/149 18/26/150
f 26/8/151 45/90/152 31/33/153
f 26/8/154 27/117/155 30/37/156
f 35/100/157 9/16/158 18/99/159
f 26/8/160 30/37/161 41/21/162
f 39/93/163 42/57/164 22/123/165
f 20/121/166 38/78/167 28/29/168
f 29/39/169 12/111/170 25/28/171
f 29/39/172 25/28/173 32/40/174
f 31/110/175 37/107/176 27/32/177
f 27/118/178 37/108/179 30/109/180
f 32/40/181 25/28/182 35/35/183
f 30/37/184 50/65/185 41/21/186
f 44/75/187 38/77/188 20/27/189
f 44/75/190 20/27/191 23/104/192
f 36/86/193 23/25/194 12/113/195
f 36/85/196 12/22/197 29/97/198
f 33/106/199 35/35/200 18/26/201
f 33/105/202 21/126/203 43/82/204
f 28/116/205 38/79/206 45/89/207
f 40/45/208 29/39/209 32/40/210
f 35/35/211 33/106/212 34/54/213
f 45/90/214 48/47/215 31/33/216
f 37/41/217 31/33/218 48/47/219
f 30/37/220 37/41/221 48/47/222
f 47/68/223 36/44/224 29/98/225
f 47/48/226 29/39/227 40/45/228
f 40/45/229 32/40/230 35/35/231
f 39/91/232 41/96/233 52/60/234
f 34/54/235 40/45/236 35/35/237
f 41/21/238 50/65/239 52/59/240
f 34/53/241 33/36/242 43/83/243
f 44/75/244 23/104/245 36/87/246
f 52/61/247 42/56/248 39/34/249
f 52/59/250 50/65/251 51/50/252
f 45/31/253 38/80/254 46/73/255
f 34/46/256 43/84/257 42/58/258
f 47/69/259 44/74/260 36/88/261
f 45/90/262 46/51/263 48/47/264
f 30/37/265 48/47/266 50/65/267
f 38/38/268 44/76/269 46/72/270
f 44/43/271 47/70/272 46/71/273
f 46/51/274 47/48/275 40/45/276
f 46/51/277 40/45/278 48/47/279
f 48/47/280 40/45/281 49/52/282
f 48/67/283 49/62/284 50/42/285
f 49/52/286 40/45/287 34/54/288
f 51/64/289 50/66/290 49/63/291
f 51/50/292 49/52/293 34/54/294
f 51/50/295 34/54/296 52/59/297
f 52/49/298 34/55/299 42/23/300
