# This file uses centimeters as units for non-parametric coordinates.

v -0.053578 0.789762 0.413791
v -0.374640 0.695904 0.409595
v 0.409910 0.712724 0.410789
v 0.273499 0.789435 0.412306
v -0.411214 -0.049394 0.411195
v 0.401335 0.037020 0.413782
v 0.376046 -0.555221 0.412510
v 0.264177 -0.788830 0.410130
v 0.413843 -0.518281 0.365385
v 0.413031 0.370253 -0.352152
v 0.358518 -0.787778 0.356510
v -0.351791 0.086380 0.413841
v 0.413843 -0.604662 -0.028335
v -0.243209 -0.752735 0.413841
v -0.401721 -0.629733 0.414216
v 0.412810 0.788121 0.152814
v -0.349069 0.789573 0.219802
v -0.245972 -0.789762 0.375331
v -0.411132 0.110681 0.361956
v -0.412289 0.735283 0.298228
v -0.413784 -0.789762 0.205078
v 0.360550 -0.788772 0.142237
v -0.309843 0.789106 -0.090650
v 0.410840 0.787446 -0.319642
v 0.284266 -0.789762 -0.039188
v 0.410574 -0.713651 -0.055031
v -0.349180 -0.789762 -0.064665
v -0.374142 0.788700 -0.297455
v -0.413780 -0.789762 -0.299302
v 0.407263 -0.723503 -0.290735
v -0.413843 0.703382 -0.093137
v 0.368225 -0.785096 -0.288047
v 0.412226 0.283820 -0.412228
v -0.409614 0.086413 -0.252661
v -0.413843 -0.728062 -0.067277
v 0.230971 0.789762 -0.413781
v 0.411687 -0.320841 -0.411689
v -0.413742 0.394881 -0.401428
v -0.286048 0.789762 -0.413463
v -0.413787 0.703382 -0.401321
v -0.412226 0.209781 -0.412228
v -0.299201 0.049321 -0.412917
v -0.411687 -0.320841 -0.411688
v 0.377262 -0.505580 -0.413073
v -0.411469 -0.715454 -0.411497
v 0.179008 -0.789618 -0.413476
v -0.299302 -0.789762 -0.413782
vt 0.211594 0.300503
vt 0.211594 0.300503
vt 0.211594 0.300503
vt 0.211594 0.300503
vt 0.211594 0.300503
vt 0.211594 0.300503
vt 0.211594 0.300503
vt 0.211594 0.300503
vt 0.211594 0.300503
vt 0.211594 0.300503
vt 0.211805 0.281937
vt 0.211594 0.300503
vt 0.211594 0.300503
vt 0.211594 0.300503
vt 0.211594 0.300503
vt 0.211594 0.300503
vt 0.211594 0.300503
vt 0.211594 0.300503
vt 0.211594 0.300503
vt 0.211594 0.300503
vt 0.211594 0.300503
vt 0.211594 0.300503
vt 0.211594 0.300503
vt 0.211594 0.300503
vt 0.211594 0.300503
vt 0.211594 0.300503
vt 0.211594 0.300503
vt 0.211594 0.300503
vt 0.211594 0.300503
vt 0.211594 0.300503
vt 0.211594 0.300503
vt 0.211594 0.300503
vt 0.211594 0.300503
vt 0.211594 0.300503
vt 0.211594 0.300503
vt 0.211594 0.300503
vt 0.211594 0.300503
vt 0.211594 0.300503
vt 0.211594 0.300503
vt 0.211594 0.300503
vt 0.211594 0.300503
vt 0.211594 0.300503
vt 0.211594 0.300503
vt 0.211594 0.300503
vt 0.211594 0.300503
vt 0.211594 0.300503
vt 0.211594 0.300503
vt 0.211805 0.281937
vt 0.211805 0.281937
vt 0.211805 0.281937
vt 0.211805 0.281937
vt 0.211805 0.281937
vt 0.211805 0.281937
vt 0.211805 0.281937
vt 0.211805 0.281937
vt 0.211805 0.281937
vt 0.211805 0.281937
vt 0.211805 0.281937
vt 0.211805 0.281937
vt 0.211805 0.281937
vt 0.211805 0.281937
vt 0.211805 0.281937
vt 0.211805 0.281937
vt 0.211805 0.281937
vt 0.211805 0.281937
vt 0.211805 0.281937
vt 0.211805 0.281937
vt 0.211805 0.281937
vt 0.211805 0.281937
vt 0.211805 0.281937
vt 0.211805 0.281937
vt 0.211805 0.281937
vt 0.211805 0.281937
vt 0.211805 0.281937
vt 0.211805 0.281937
vt 0.211805 0.281937
vt 0.211805 0.281937
vt 0.211805 0.281937
vt 0.211805 0.281937
vt 0.211805 0.281937
vt 0.211805 0.281937
vt 0.211805 0.281937
vt 0.211805 0.281937
vt 0.211805 0.281937
vt 0.211805 0.281937
vt 0.211805 0.281937
vt 0.211805 0.281937
vn 0.004538 -0.001852 0.999988
vn 0.004538 -0.001852 0.999988
vn 0.004538 -0.001852 0.999988
vn -0.014941 0.006406 0.999868
vn -0.014941 0.006406 0.999868
vn -0.014941 0.006406 0.999868
vn -0.662652 -0.019624 0.748670
vn -0.662652 -0.019624 0.748670
vn -0.662652 -0.019624 0.748670
vn 0.008228 -0.005134 0.999953
vn 0.008228 -0.005134 0.999953
vn 0.008228 -0.005134 0.999953
vn 0.000369 0.004424 0.999990
vn 0.000369 0.004424 0.999990
vn 0.000369 0.004424 0.999990
vn -0.581676 0.239423 0.777386
vn -0.581677 0.239423 0.777386
vn -0.581676 0.239423 0.777386
vn -0.034352 -0.004445 0.999400
vn -0.034352 -0.004445 0.999400
vn -0.034352 -0.004445 0.999400
vn 0.792874 -0.035162 0.608370
vn 0.792874 -0.035162 0.608370
vn 0.792874 -0.035162 0.608370
vn 0.007383 0.000955 0.999972
vn 0.007383 0.000955 0.999972
vn 0.007383 0.000955 0.999972
vn -0.000209 -0.004388 0.999990
vn -0.000209 -0.004388 0.999990
vn -0.000209 -0.004388 0.999990
vn -0.018433 -0.001361 0.999829
vn -0.018433 -0.001361 0.999829
vn -0.018433 -0.001361 0.999829
vn 0.006486 0.005312 0.999965
vn 0.006486 0.005312 0.999965
vn 0.006486 0.005312 0.999965
vn 0.481785 -0.239304 0.842981
vn 0.481785 -0.239304 0.842981
vn 0.481785 -0.239304 0.842981
vn -0.943368 0.031943 0.330208
vn -0.943368 0.031943 0.330208
vn -0.943368 0.031943 0.330208
vn -0.046031 -0.718436 0.694068
vn -0.046031 -0.718436 0.694068
vn -0.046031 -0.718436 0.694068
vn 0.999872 -0.012646 0.009766
vn 0.999872 -0.012646 0.009766
vn 0.999872 -0.012646 0.009766
vn 0.999500 0.020410 0.024142
vn 0.999500 0.020410 0.024142
vn 0.999500 0.020410 0.024142
vn 0.832857 -0.188120 0.520538
vn 0.832857 -0.188121 0.520538
vn 0.832857 -0.188121 0.520538
vn -0.999463 -0.016200 0.028471
vn -0.999463 -0.016200 0.028471
vn -0.999463 -0.016200 0.028471
vn -0.260251 0.879291 0.398894
vn -0.260251 0.879291 0.398894
vn -0.260251 0.879291 0.398894
vn 0.002826 -0.999889 -0.014635
vn 0.002826 -0.999889 -0.014635
vn 0.002826 -0.999889 -0.014635
vn 0.963043 -0.269146 0.010383
vn 0.963043 -0.269146 0.010383
vn 0.963043 -0.269146 0.010383
vn 0.978317 -0.202302 0.044384
vn 0.978317 -0.202302 0.044384
vn 0.978317 -0.202302 0.044384
vn -0.515470 -0.665926 0.539289
vn -0.515470 -0.665926 0.539289
vn -0.515470 -0.665926 0.539289
vn -0.262148 0.878925 0.398458
vn -0.262148 0.878925 0.398458
vn -0.262148 0.878925 0.398458
vn 0.476525 0.842402 0.251561
vn 0.476525 0.842402 0.251561
vn 0.476525 0.842402 0.251561
vn -0.998237 0.057840 0.013320
vn -0.998237 0.057840 0.013320
vn -0.998237 0.057840 0.013320
vn 0.000989 0.999996 -0.002480
vn 0.000989 0.999996 -0.002480
vn 0.000989 0.999996 -0.002480
vn -0.589763 -0.560589 0.581309
vn -0.589763 -0.560589 0.581309
vn -0.589763 -0.560589 0.581309
vn 0.003427 -0.999983 0.004673
vn 0.003427 -0.999983 0.004673
vn 0.003427 -0.999983 0.004673
vn 0.999918 -0.009649 0.008421
vn 0.999918 -0.009649 0.008421
vn 0.999918 -0.009649 0.008421
vn -0.999991 -0.001435 0.004089
vn -0.999991 -0.001435 0.004089
vn -0.999991 -0.001435 0.004089
vn -0.999993 0.001534 0.003320
vn -0.999993 0.001534 0.003320
vn -0.999993 0.001534 0.003320
vn -0.689621 0.721993 -0.056113
vn -0.689621 0.721993 -0.056113
vn -0.689621 0.721993 -0.056113
vn -0.999992 -0.003870 0.000918
vn -0.999992 -0.003870 0.000918
vn -0.999992 -0.003870 0.000918
vn 0.000662 0.999999 -0.001420
vn 0.000662 0.999999 -0.001420
vn 0.000662 0.999999 -0.001420
vn 0.003210 -0.999986 0.004105
vn 0.003210 -0.999986 0.004105
vn 0.003210 -0.999986 0.004105
vn -0.632799 0.770056 -0.081112
vn -0.632799 0.770056 -0.081112
vn -0.632799 0.770056 -0.081112
vn 0.783225 -0.529147 -0.326438
vn 0.783225 -0.529147 -0.326438
vn 0.783225 -0.529147 -0.326438
vn 0.000000 -1.000000 -0.000000
vn 0.000000 -1.000000 -0.000000
vn 0.000000 -1.000000 -0.000000
vn -0.677743 -0.717159 -0.162320
vn -0.677742 -0.717159 -0.162320
vn -0.677742 -0.717159 -0.162320
vn 0.000000 -1.000000 0.000000
vn 0.000000 -1.000000 0.000000
vn 0.000000 -1.000000 0.000000
vn 0.260251 -0.237070 0.935985
vn 0.260251 -0.237070 0.935985
vn 0.260251 -0.237070 0.935985
vn 0.000000 -1.000000 0.000000
vn 0.000000 -1.000000 0.000000
vn 0.000000 -1.000000 0.000000
vn 0.999976 0.005576 -0.004178
vn 0.999976 0.005576 -0.004178
vn 0.999976 0.005576 -0.004178
vn 0.524125 -0.836256 0.161148
vn 0.524125 -0.836256 0.161148
vn 0.524125 -0.836256 0.161148
vn 0.006721 0.999976 -0.001456
vn 0.006721 0.999976 -0.001456
vn 0.006721 0.999976 -0.001456
vn -0.682018 -0.706819 0.187772
vn -0.682018 -0.706819 0.187772
vn -0.682018 -0.706819 0.187772
vn 0.000000 -1.000000 0.000000
vn 0.000000 -1.000000 0.000000
vn 0.000000 -1.000000 0.000000
vn -0.626793 0.754804 0.193395
vn -0.626793 0.754804 0.193395
vn -0.626793 0.754804 0.193395
vn -0.999991 0.004010 -0.001519
vn -0.999991 0.004010 -0.001519
vn -0.999991 0.004010 -0.001519
vn 0.000302 -1.000000 -0.000471
vn 0.000302 -1.000000 -0.000471
vn 0.000302 -1.000000 -0.000471
vn -0.002175 0.999996 0.001871
vn -0.002175 0.999996 0.001871
vn -0.002175 0.999996 0.001871
vn -0.999730 -0.023178 -0.001554
vn -0.999730 -0.023178 -0.001554
vn -0.999730 -0.023178 -0.001554
vn 0.029675 -0.999521 -0.008730
vn 0.029675 -0.999522 -0.008730
vn 0.029675 -0.999522 -0.008730
vn 0.844800 -0.534980 0.010494
vn 0.844800 -0.534980 0.010494
vn 0.844800 -0.534980 0.010494
vn -0.999927 -0.008679 0.008357
vn -0.999927 -0.008679 0.008357
vn -0.999927 -0.008679 0.008357
vn -0.010389 0.999945 0.001265
vn -0.010389 0.999945 0.001265
vn -0.010389 0.999945 0.001265
vn 0.013018 0.999915 -0.000274
vn 0.013018 0.999915 -0.000274
vn 0.013018 0.999915 -0.000274
vn -0.906798 0.421566 -0.000166
vn -0.906798 0.421566 -0.000166
vn -0.906798 0.421566 -0.000166
vn 0.999966 -0.004581 -0.006806
vn 0.999966 -0.004581 -0.006806
vn 0.999966 -0.004581 -0.006806
vn -0.751617 -0.527725 -0.395701
vn -0.751616 -0.527725 -0.395701
vn -0.751617 -0.527725 -0.395701
vn 0.999557 -0.026818 -0.012921
vn 0.999557 -0.026818 -0.012921
vn 0.999557 -0.026818 -0.012921
vn -0.774639 0.233447 -0.587739
vn -0.774639 0.233447 -0.587739
vn -0.774639 0.233447 -0.587739
vn -0.999977 0.006150 -0.002713
vn -0.999977 0.006150 -0.002713
vn -0.999977 0.006150 -0.002713
vn 0.999711 -0.016298 -0.017689
vn 0.999711 -0.016298 -0.017689
vn 0.999711 -0.016298 -0.017689
vn -0.999742 0.021891 -0.006092
vn -0.999742 0.021891 -0.006092
vn -0.999742 0.021891 -0.006092
vn 0.519259 -0.362882 -0.773749
vn 0.519259 -0.362882 -0.773748
vn 0.519259 -0.362882 -0.773748
vn 0.520938 -0.362509 -0.772794
vn 0.520938 -0.362509 -0.772794
vn 0.520938 -0.362509 -0.772794
vn 0.858264 -0.156270 -0.488839
vn 0.858264 -0.156270 -0.488839
vn 0.858264 -0.156270 -0.488839
vn -1.000000 -0.000145 -0.000183
vn -1.000000 -0.000145 -0.000183
vn -1.000000 -0.000145 -0.000183
vn 0.999982 0.005860 -0.001286
vn 0.999982 0.005860 -0.001286
vn 0.999982 0.005860 -0.001286
vn -0.999976 -0.000554 -0.006916
vn -0.999976 -0.000554 -0.006916
vn -0.999976 -0.000554 -0.006916
vn -0.538763 0.740168 -0.402349
vn -0.538763 0.740168 -0.402349
vn -0.538763 0.740168 -0.402349
vn 0.000000 1.000000 0.000396
vn 0.000000 1.000000 0.000396
vn 0.000000 1.000000 0.000396
vn 0.999995 -0.000894 -0.003002
vn 0.999995 -0.000894 -0.003002
vn 0.999995 -0.000894 -0.003002
vn 0.999697 0.007087 -0.023591
vn 0.999697 0.007087 -0.023591
vn 0.999697 0.007087 -0.023591
vn -0.000616 -0.030263 -0.999542
vn -0.000616 -0.030263 -0.999542
vn -0.000616 -0.030263 -0.999542
vn -0.094842 0.000331 -0.995492
vn -0.094842 0.000331 -0.995492
vn -0.094842 0.000331 -0.995492
vn 0.459228 0.161837 -0.873452
vn 0.459228 0.161837 -0.873452
vn 0.459228 0.161837 -0.873452
vn -0.014168 -0.008146 -0.999866
vn -0.014168 -0.008146 -0.999866
vn -0.014168 -0.008146 -0.999866
vn 0.077265 0.058701 -0.995281
vn 0.077265 0.058701 -0.995281
vn 0.077265 0.058701 -0.995281
vn 0.037078 0.045480 -0.998277
vn 0.037078 0.045480 -0.998277
vn 0.037078 0.045480 -0.998277
vn -0.013192 -0.000879 -0.999913
vn -0.013192 -0.000879 -0.999913
vn -0.013192 -0.000879 -0.999913
vn -0.002365 -0.002602 -0.999994
vn -0.002365 -0.002602 -0.999994
vn -0.002365 -0.002602 -0.999994
vn -0.005110 0.008442 -0.999951
vn -0.005110 0.008442 -0.999951
vn -0.005110 0.008442 -0.999951
vn -0.001869 -0.000484 -0.999998
vn -0.001869 -0.000484 -0.999998
vn -0.001869 -0.000484 -0.999998
vn -0.007261 0.019783 -0.999778
vn -0.007261 0.019783 -0.999778
vn -0.007261 0.019783 -0.999778
vn 0.000640 0.000974 -0.999999
vn 0.000640 0.000974 -0.999999
vn 0.000640 0.000974 -0.999999
vn -0.488727 -0.722703 -0.488719
vn -0.488727 -0.722703 -0.488719
vn -0.488727 -0.722703 -0.488719
s off
f 4/1/1 1/2/2 12/3/3
f 12/3/4 1/2/5 2/4/6
f 2/11/7 19/48/8 12/49/9
f 3/6/10 4/1/11 12/3/12
f 3/6/13 12/3/14 6/7/15
f 19/48/16 5/50/17 12/49/18
f 12/3/19 5/8/20 14/9/21
f 9/51/22 6/52/23 7/53/24
f 12/3/25 14/9/26 8/12/27
f 6/7/28 12/3/29 8/12/30
f 6/52/31 8/54/32 7/53/33
f 14/9/34 5/8/35 15/13/36
f 11/55/37 7/53/38 8/54/39
f 2/11/40 20/56/41 19/48/42
f 18/57/43 8/54/44 14/58/45
f 10/17/46 3/6/47 6/7/48
f 10/17/49 6/7/50 9/10/51
f 11/55/52 9/51/53 7/53/54
f 5/8/55 35/18/56 15/13/57
f 17/59/58 20/56/59 2/11/60
f 18/16/61 11/14/62 8/12/63
f 13/20/64 11/14/65 22/21/66
f 9/10/67 11/14/68 13/20/69
f 15/60/70 21/61/71 14/58/72
f 17/59/73 2/11/74 1/62/75
f 4/63/76 3/64/77 16/65/78
f 35/18/79 21/22/80 15/13/81
f 4/1/82 17/19/83 1/2/84
f 21/61/85 18/57/86 14/58/87
f 22/21/88 11/14/89 18/16/90
f 10/17/91 16/23/92 3/6/93
f 20/15/94 31/24/95 19/5/96
f 5/8/97 19/5/98 35/18/99
f 20/56/100 17/59/101 31/66/102
f 31/24/103 41/25/104 19/5/105
f 4/1/106 23/26/107 17/19/108
f 18/16/109 25/27/110 22/21/111
f 17/59/112 23/67/113 31/66/114
f 25/27/115 13/20/116 22/21/117
f 47/28/118 25/27/119 18/16/120
f 27/68/121 21/61/122 35/69/123
f 27/29/124 47/28/125 18/16/126
f 26/70/127 13/71/128 25/72/129
f 27/29/130 18/16/131 21/22/132
f 24/31/133 16/23/134 10/17/135
f 32/73/136 26/70/137 25/72/138
f 24/31/139 4/1/140 16/23/141
f 29/74/142 27/68/143 35/69/144
f 29/33/145 47/28/146 27/29/147
f 23/67/148 28/75/149 31/66/150
f 35/18/151 19/5/152 43/35/153
f 46/36/154 25/27/155 47/28/156
f 4/1/157 39/37/158 23/26/159
f 41/25/160 34/38/161 19/5/162
f 25/72/163 46/76/164 32/73/165
f 32/32/166 30/39/167 26/30/168
f 38/40/169 41/25/170 31/24/171
f 39/37/172 28/34/173 23/26/174
f 24/31/175 36/41/176 4/1/177
f 31/24/178 28/34/179 40/42/180
f 33/43/181 10/17/182 9/10/183
f 34/77/184 41/78/185 42/79/186
f 13/20/187 26/30/188 30/39/189
f 34/77/190 42/79/191 43/80/192
f 19/5/193 34/38/194 43/35/195
f 37/45/196 13/20/197 30/39/198
f 29/33/199 35/18/200 45/46/201
f 44/47/202 30/39/203 32/32/204
f 46/76/205 44/81/206 32/73/207
f 37/45/208 30/39/209 44/47/210
f 40/42/211 38/40/212 31/24/213
f 37/45/214 9/10/215 13/20/216
f 35/18/217 43/35/218 45/46/219
f 28/34/220 39/37/221 40/42/222
f 36/41/223 39/37/224 4/1/225
f 33/43/226 9/10/227 37/45/228
f 24/82/229 10/83/230 33/84/231
f 39/37/232 36/41/233 38/40/234
f 40/42/235 39/37/236 38/40/237
f 36/85/238 24/82/239 33/84/240
f 38/40/241 36/41/242 33/43/243
f 38/40/244 42/44/245 41/25/246
f 42/44/247 38/40/248 44/47/249
f 33/43/250 37/45/251 38/40/252
f 42/44/253 44/47/254 43/35/255
f 38/40/256 37/45/257 44/47/258
f 43/35/259 44/47/260 45/46/261
f 45/46/262 44/47/263 47/28/264
f 44/47/265 46/36/266 47/28/267
f 45/86/268 47/87/269 29/74/270
