# This file uses centimeters as units for non-parametric coordinates.

v -0.504677 0.143011 0.265444
v -0.377880 0.137288 0.257994
v 0.086750 0.121143 0.264132
v 0.379475 0.142936 0.265305
v -0.132179 0.123479 0.258139
v 0.504692 0.081497 0.265402
v -0.504692 0.006859 0.265438
v -0.219818 0.070683 0.264668
v -0.282337 0.037412 0.244154
v -0.219307 0.006201 0.193172
v -0.197075 0.000388 0.263113
v -0.363708 0.000419 0.265093
v 0.504326 0.000271 0.265041
v -0.102432 0.144694 0.215237
v -0.205956 0.137909 0.212721
v -0.504528 0.000005 0.119135
v 0.158669 0.143133 0.265379
v 0.480572 0.120289 0.242832
v -0.165604 0.145548 0.161915
v -0.291775 0.002877 0.078665
v -0.504581 0.143685 -0.025454
v 0.493191 0.131650 0.105518
v -0.504692 0.060511 0.067364
v 0.433723 0.145548 0.150814
v 0.370632 0.000000 -0.016586
v 0.504433 0.000074 0.046753
v 0.481808 0.031248 0.001528
v -0.455257 0.001672 -0.006584
v 0.495651 0.125773 -0.008442
v -0.491123 0.012460 -0.071512
v 0.476871 0.010013 -0.037477
v 0.464180 0.118797 -0.067763
v 0.504284 0.000175 -0.261952
v 0.501877 0.002028 -0.059355
v 0.504692 0.143685 -0.165905
v -0.503399 0.080998 -0.173665
v -0.502087 0.002771 -0.207154
v 0.014717 0.001651 -0.196754
v -0.501614 0.089025 -0.229881
v 0.298702 0.145548 -0.207373
v 0.347935 0.017604 -0.265430
v -0.433140 0.142862 -0.216164
v -0.464813 0.000430 -0.261290
v -0.048874 0.006089 -0.240344
v 0.235844 0.138153 -0.233529
v 0.504692 0.143531 -0.263078
v -0.331905 0.110961 -0.263594
v 0.172531 0.143536 -0.263125
v 0.150032 0.021363 -0.262989
v -0.463867 0.090416 -0.262473
v -0.188301 0.006896 -0.265436
v -0.093670 0.070677 -0.265446
vt 0.199549 0.277902
vt 0.199549 0.302024
vt 0.199549 0.302024
vt 0.199549 0.277902
vt 0.199549 0.277902
vt 0.199549 0.302024
vt 0.199549 0.302024
vt 0.199549 0.302024
vt 0.199549 0.302024
vt 0.199549 0.302024
vt 0.199549 0.277902
vt 0.199549 0.277902
vt 0.199549 0.277902
vt 0.199549 0.277902
vt 0.199549 0.277902
vt 0.199549 0.277902
vt 0.199549 0.302024
vt 0.199549 0.302024
vt 0.199549 0.302024
vt 0.199549 0.277902
vt 0.199549 0.277902
vt 0.199549 0.277902
vt 0.199549 0.302024
vt 0.199549 0.277902
vt 0.199549 0.302024
vt 0.199549 0.302024
vt 0.199549 0.277902
vt 0.199549 0.277902
vt 0.199549 0.277902
vt 0.199549 0.277902
vt 0.199549 0.302024
vt 0.199549 0.277902
vt 0.199549 0.277902
vt 0.199549 0.302024
vt 0.199549 0.302024
vt 0.199549 0.277902
vt 0.199549 0.277902
vt 0.199549 0.302024
vt 0.199549 0.277902
vt 0.199549 0.277902
vt 0.199549 0.277902
vt 0.199549 0.302024
vt 0.199549 0.277902
vt 0.199549 0.302024
vt 0.199549 0.277902
vt 0.199549 0.302024
vt 0.199549 0.302024
vt 0.199549 0.302024
vt 0.199549 0.277902
vt 0.199549 0.302024
vt 0.199549 0.302024
vt 0.199549 0.277902
vt 0.199549 0.302024
vt 0.199549 0.277902
vt 0.199549 0.302024
vt 0.199549 0.302024
vt 0.199549 0.302024
vt 0.199549 0.302024
vt 0.199549 0.302024
vt 0.199549 0.277902
vt 0.199549 0.302024
vt 0.199549 0.302024
vt 0.199549 0.302024
vt 0.199549 0.277902
vt 0.199549 0.302024
vt 0.199549 0.302024
vt 0.199549 0.302024
vt 0.199549 0.302024
vt 0.199549 0.302024
vt 0.199549 0.302024
vt 0.199549 0.302024
vt 0.199549 0.302024
vt 0.199549 0.302024
vt 0.199549 0.302024
vt 0.199549 0.277902
vt 0.199549 0.302024
vt 0.199549 0.302024
vt 0.199549 0.302024
vt 0.199549 0.302024
vt 0.199549 0.302024
vt 0.199549 0.302024
vt 0.199549 0.302024
vt 0.199549 0.302024
vt 0.199549 0.302024
vt 0.199549 0.277902
vt 0.199549 0.302024
vt 0.199549 0.302024
vt 0.199549 0.302024
vt 0.199549 0.302024
vt 0.199549 0.302024
vt 0.199549 0.302024
vt 0.199549 0.302024
vt 0.199549 0.277902
vt 0.199549 0.302024
vt 0.199549 0.302024
vt 0.199549 0.302024
vt 0.199549 0.302024
vt 0.199549 0.302024
vt 0.199549 0.302024
vt 0.199549 0.302024
vt 0.199549 0.277902
vt 0.199549 0.302024
vt 0.199549 0.302024
vt 0.199549 0.302024
vt 0.199549 0.302024
vt 0.199549 0.302024
vt 0.199549 0.277902
vt 0.199549 0.302024
vt 0.199549 0.302024
vt 0.199549 0.302024
vt 0.199549 0.302024
vt 0.199549 0.302024
vt 0.199549 0.302024
vt 0.199549 0.302024
vt 0.199549 0.302024
vt 0.199549 0.277902
vt 0.199549 0.302024
vt 0.199549 0.302024
vt 0.199549 0.302024
vt 0.199549 0.302024
vt 0.199549 0.302024
vt 0.199549 0.302024
vt 0.199549 0.302024
vt 0.199549 0.277902
vt 0.199549 0.302024
vt 0.199549 0.277902
vt 0.199549 0.302024
vt 0.199549 0.277902
vt 0.199549 0.302024
vt 0.199549 0.302024
vt 0.199549 0.302024
vt 0.199549 0.302024
vt 0.199549 0.302024
vt 0.199549 0.277902
vt 0.199549 0.302024
vt 0.199549 0.302024
vt 0.199549 0.302024
vt 0.199549 0.277902
vt 0.199549 0.302024
vt 0.199549 0.302024
vt 0.199549 0.302024
vt 0.199549 0.302024
vt 0.199549 0.302024
vt 0.199549 0.302024
vt 0.199549 0.302024
vt 0.199549 0.302024
vt 0.199549 0.302024
vt 0.199549 0.302024
vt 0.199549 0.302024
vt 0.199549 0.302024
vt 0.199549 0.302024
vt 0.199549 0.277902
vt 0.199549 0.302024
vt 0.199549 0.302024
vt 0.199549 0.302024
vt 0.199549 0.302024
vt 0.199549 0.302024
vt 0.199549 0.302024
vt 0.199549 0.302024
vt 0.199549 0.302024
vt 0.199549 0.302024
vt 0.199549 0.302024
vt 0.199549 0.302024
vt 0.199549 0.302024
vt 0.199549 0.302024
vt 0.199549 0.302024
vt 0.199549 0.302024
vt 0.199549 0.277902
vt 0.199549 0.302024
vt 0.199549 0.302024
vt 0.199549 0.277902
vt 0.199549 0.302024
vt 0.199549 0.302024
vt 0.199549 0.277902
vt 0.199549 0.302024
vt 0.199549 0.277902
vt 0.199549 0.302024
vt 0.199549 0.302024
vt 0.199549 0.302024
vt 0.199549 0.277902
vt 0.199549 0.302024
vt 0.199549 0.302024
vt 0.199549 0.302024
vt 0.199549 0.302024
vt 0.199549 0.302024
vt 0.199549 0.302024
vn -0.002523 0.897088 0.441845
vn -0.002523 0.897088 0.441845
vn -0.002523 0.897088 0.441845
vn 0.054598 0.973813 0.220698
vn 0.054598 0.973813 0.220698
vn 0.054598 0.973813 0.220698
vn 0.299782 0.612129 0.731730
vn 0.299782 0.612129 0.731731
vn 0.299782 0.612129 0.731731
vn 0.058653 -0.000049 0.998278
vn 0.058653 -0.000049 0.998278
vn 0.058653 -0.000049 0.998278
vn -0.009551 -0.025470 0.999630
vn -0.009551 -0.025470 0.999630
vn -0.009551 -0.025470 0.999630
vn 0.005780 0.113268 0.993548
vn 0.005780 0.113268 0.993548
vn 0.005780 0.113268 0.993548
vn -0.025247 0.163856 0.986161
vn -0.025247 0.163856 0.986161
vn -0.025247 0.163856 0.986161
vn 0.004834 0.052297 0.998620
vn 0.004834 0.052297 0.998620
vn 0.004834 0.052297 0.998620
vn -0.021264 0.049591 0.998543
vn -0.021264 0.049591 0.998543
vn -0.021264 0.049591 0.998543
vn -0.002948 -0.004425 0.999986
vn -0.002948 -0.004425 0.999986
vn -0.002948 -0.004425 0.999986
vn 0.172259 -0.730877 0.660413
vn 0.172259 -0.730877 0.660413
vn 0.172259 -0.730877 0.660413
vn 0.435997 -0.892153 0.118192
vn 0.435997 -0.892154 0.118192
vn 0.435997 -0.892154 0.118192
vn -0.915456 -0.302066 0.265890
vn -0.915456 -0.302066 0.265890
vn -0.915456 -0.302066 0.265890
vn 0.000325 0.008648 0.999963
vn 0.000325 0.008648 0.999963
vn 0.000325 0.008648 0.999963
vn 0.000335 -0.001551 0.999999
vn 0.000335 -0.001551 0.999999
vn 0.000335 -0.001551 0.999999
vn -0.002752 -0.022998 0.999732
vn -0.002752 -0.022998 0.999732
vn -0.002752 -0.022998 0.999732
vn -0.045465 -0.997874 0.046696
vn -0.045465 -0.997874 0.046696
vn -0.045465 -0.997874 0.046696
vn -0.069601 0.912557 0.402984
vn -0.069601 0.912557 0.402984
vn -0.069601 0.912557 0.402984
vn -0.162420 0.482383 0.860771
vn -0.162420 0.482382 0.860771
vn -0.162420 0.482383 0.860771
vn 0.044683 0.982068 0.183158
vn 0.044683 0.982068 0.183158
vn 0.044683 0.982068 0.183158
vn 0.045226 0.998974 0.002330
vn 0.045226 0.998974 0.002330
vn 0.045226 0.998974 0.002330
vn -0.023850 0.999164 0.033212
vn -0.023850 0.999164 0.033212
vn -0.023850 0.999164 0.033212
vn 0.000130 -1.000000 0.000900
vn 0.000130 -1.000000 0.000900
vn 0.000130 -1.000000 0.000900
vn -0.067415 0.993116 0.095788
vn -0.067415 0.993116 0.095788
vn -0.067415 0.993116 0.095788
vn 0.245673 0.959437 0.138295
vn 0.245673 0.959437 0.138295
vn 0.245673 0.959437 0.138295
vn 0.999990 -0.004510 0.000493
vn 0.999990 -0.004510 0.000493
vn 0.999990 -0.004510 0.000493
vn 0.442202 -0.882712 0.158987
vn 0.442202 -0.882712 0.158987
vn 0.442202 -0.882712 0.158987
vn 0.001320 0.999705 0.024247
vn 0.001320 0.999705 0.024247
vn 0.001320 0.999705 0.024247
vn 0.000897 0.999730 0.023233
vn 0.000897 0.999730 0.023233
vn 0.000897 0.999730 0.023233
vn -0.291109 -0.933061 0.211313
vn -0.291109 -0.933061 0.211313
vn -0.291109 -0.933061 0.211313
vn 0.000290 0.999877 0.015684
vn 0.000290 0.999877 0.015684
vn 0.000290 0.999877 0.015684
vn 0.872925 0.338221 -0.351580
vn 0.872925 0.338221 -0.351580
vn 0.872925 0.338221 -0.351580
vn 0.396065 0.883881 0.248769
vn 0.396065 0.883881 0.248769
vn 0.396065 0.883881 0.248769
vn -0.999999 0.000967 -0.000326
vn -0.999999 0.000967 -0.000326
vn -0.999999 0.000967 -0.000326
vn 0.993955 0.102498 -0.039348
vn 0.993955 0.102498 -0.039348
vn 0.993955 0.102498 -0.039348
vn -1.000000 0.000112 0.000030
vn -1.000000 0.000112 0.000030
vn -1.000000 0.000112 0.000030
vn -0.999993 -0.003530 -0.000956
vn -0.999993 -0.003530 -0.000956
vn -0.999993 -0.003530 -0.000956
vn -0.011812 -0.999265 0.036477
vn -0.011812 -0.999265 0.036477
vn -0.011812 -0.999265 0.036477
vn 0.000062 -0.996562 -0.082851
vn 0.000062 -0.996562 -0.082851
vn 0.000062 -0.996562 -0.082851
vn 0.011864 -0.999893 -0.008609
vn 0.011864 -0.999893 -0.008609
vn 0.011864 -0.999893 -0.008609
vn 0.011859 -0.999893 -0.008607
vn 0.011859 -0.999893 -0.008607
vn 0.011859 -0.999893 -0.008607
vn 0.193728 0.979960 -0.046354
vn 0.193728 0.979960 -0.046354
vn 0.193728 0.979960 -0.046354
vn 0.996851 0.077340 0.017534
vn 0.996851 0.077340 0.017534
vn 0.996851 0.077340 0.017534
vn -0.885934 -0.302924 -0.351224
vn -0.885934 -0.302924 -0.351224
vn -0.885934 -0.302924 -0.351224
vn 0.825762 -0.177405 -0.535393
vn 0.825762 -0.177405 -0.535393
vn 0.825762 -0.177405 -0.535393
vn 0.065962 -0.988208 -0.138181
vn 0.065962 -0.988208 -0.138181
vn 0.065962 -0.988208 -0.138181
vn 0.921858 0.279251 -0.268695
vn 0.921858 0.279251 -0.268695
vn 0.921858 0.279251 -0.268695
vn 0.159767 0.985316 -0.060225
vn 0.159767 0.985316 -0.060225
vn 0.159767 0.985316 -0.060225
vn -0.605461 -0.768549 0.206760
vn -0.605461 -0.768549 0.206760
vn -0.605461 -0.768549 0.206760
vn 0.987827 -0.149284 -0.043737
vn 0.987827 -0.149284 -0.043737
vn 0.987827 -0.149284 -0.043737
vn -0.002578 0.999983 -0.005281
vn -0.002578 0.999983 -0.005281
vn -0.002578 0.999983 -0.005281
vn 0.884361 -0.026573 -0.466047
vn 0.884361 -0.026573 -0.466047
vn 0.884361 -0.026573 -0.466047
vn 0.104647 -0.992915 0.056293
vn 0.104647 -0.992915 0.056293
vn 0.104647 -0.992915 0.056293
vn -0.300079 -0.953900 0.005158
vn -0.300079 -0.953900 0.005158
vn -0.300079 -0.953900 0.005158
vn 0.405164 0.857956 -0.315840
vn 0.405164 0.857955 -0.315840
vn 0.405164 0.857956 -0.315840
vn 0.681416 0.268998 0.680670
vn 0.681416 0.268998 0.680670
vn 0.681416 0.268998 0.680670
vn -0.999970 -0.005145 -0.005802
vn -0.999970 -0.005145 -0.005802
vn -0.999970 -0.005145 -0.005802
vn -0.037705 0.972226 0.230986
vn -0.037705 0.972226 0.230986
vn -0.037705 0.972226 0.230986
vn 0.850382 0.305386 0.428474
vn 0.850382 0.305386 0.428474
vn 0.850382 0.305386 0.428474
vn -0.833626 -0.542044 0.106096
vn -0.833626 -0.542044 0.106096
vn -0.833626 -0.542044 0.106096
vn -0.006747 -0.999969 0.004164
vn -0.006747 -0.999969 0.004164
vn -0.006747 -0.999969 0.004164
vn -0.999881 -0.013968 -0.006552
vn -0.999881 -0.013968 -0.006552
vn -0.999881 -0.013968 -0.006552
vn -0.447688 -0.888619 0.099658
vn -0.447688 -0.888619 0.099658
vn -0.447688 -0.888619 0.099658
vn 0.004924 -0.999977 0.004693
vn 0.004924 -0.999977 0.004693
vn 0.004924 -0.999977 0.004693
vn 0.999869 -0.010861 0.011979
vn 0.999869 -0.010861 0.011979
vn 0.999869 -0.010861 0.011979
vn -0.003425 -0.999994 0.000642
vn -0.003425 -0.999994 0.000642
vn -0.003425 -0.999994 0.000642
vn -0.723551 0.633654 -0.273783
vn -0.723551 0.633654 -0.273783
vn -0.723551 0.633654 -0.273783
vn -0.138011 0.989063 0.052024
vn -0.138011 0.989063 0.052024
vn -0.138011 0.989063 0.052024
vn -0.626693 0.773980 0.090614
vn -0.626693 0.773980 0.090614
vn -0.626693 0.773980 0.090614
vn -0.109265 -0.992187 -0.060225
vn -0.109265 -0.992187 -0.060225
vn -0.109265 -0.992187 -0.060225
vn -0.052774 -0.998583 0.006850
vn -0.052774 -0.998583 0.006850
vn -0.052774 -0.998583 0.006850
vn 0.032576 -0.996764 -0.073487
vn 0.032576 -0.996764 -0.073487
vn 0.032576 -0.996764 -0.073487
vn -0.999478 -0.002995 -0.032168
vn -0.999478 -0.002995 -0.032168
vn -0.999478 -0.002995 -0.032168
vn -0.041253 -0.998288 -0.041462
vn -0.041253 -0.998288 -0.041462
vn -0.041253 -0.998288 -0.041462
vn -0.021973 -0.945064 -0.326147
vn -0.021973 -0.945064 -0.326147
vn -0.021973 -0.945064 -0.326147
vn -0.001578 0.999981 -0.005989
vn -0.001578 0.999981 -0.005989
vn -0.001578 0.999981 -0.005989
vn -0.000089 0.999989 -0.004805
vn -0.000089 0.999989 -0.004805
vn -0.000089 0.999989 -0.004805
vn -0.039696 0.982429 -0.182369
vn -0.039696 0.982429 -0.182369
vn -0.039696 0.982429 -0.182369
vn 0.999996 -0.002847 0.000005
vn 0.999996 -0.002847 0.000005
vn 0.999996 -0.002847 0.000005
vn 0.023308 -0.999717 -0.004667
vn 0.023308 -0.999717 -0.004667
vn 0.023308 -0.999717 -0.004667
vn -0.003496 -0.999913 -0.012730
vn -0.003496 -0.999913 -0.012730
vn -0.003496 -0.999913 -0.012730
vn 0.122468 0.989072 -0.082085
vn 0.122468 0.989072 -0.082085
vn 0.122468 0.989072 -0.082085
vn -0.049565 0.776555 -0.628097
vn -0.049565 0.776555 -0.628097
vn -0.049565 0.776555 -0.628097
vn 0.009365 0.999955 -0.001585
vn 0.009365 0.999955 -0.001585
vn 0.009365 0.999955 -0.001585
vn 0.054910 -0.982114 -0.180104
vn 0.054910 -0.982114 -0.180104
vn 0.054910 -0.982114 -0.180104
vn -0.466491 0.723109 -0.509410
vn -0.466491 0.723109 -0.509410
vn -0.466491 0.723109 -0.509410
vn -0.114131 0.694298 -0.710580
vn -0.114131 0.694298 -0.710580
vn -0.114131 0.694298 -0.710580
vn -0.001476 0.037216 -0.999306
vn -0.001476 0.037216 -0.999306
vn -0.001476 0.037216 -0.999306
vn -0.000010 0.983854 0.178973
vn -0.000010 0.983854 0.178973
vn -0.000010 0.983854 0.178973
vn 0.009500 -0.002866 -0.999951
vn 0.009500 -0.002866 -0.999951
vn 0.009500 -0.002866 -0.999951
vn -0.009259 0.004928 -0.999945
vn -0.009259 0.004928 -0.999945
vn -0.009259 0.004928 -0.999945
vn 0.000144 0.018501 -0.999829
vn 0.000144 0.018501 -0.999829
vn 0.000144 0.018501 -0.999829
vn -0.014689 -0.012995 -0.999808
vn -0.014689 -0.012995 -0.999808
vn -0.014689 -0.012995 -0.999808
vn 0.021358 -0.007909 -0.999741
vn 0.021358 -0.007909 -0.999741
vn 0.021358 -0.007909 -0.999741
vn -0.653467 -0.003085 -0.756948
vn -0.653467 -0.003085 -0.756948
vn -0.653467 -0.003085 -0.756948
vn -0.006234 0.009101 -0.999939
vn -0.006234 0.009101 -0.999939
vn -0.006234 0.009101 -0.999939
vn -0.818129 -0.142317 -0.557146
vn -0.818129 -0.142317 -0.557146
vn -0.818129 -0.142317 -0.557146
vn 0.169974 -0.252331 -0.952595
vn 0.169974 -0.252331 -0.952595
vn 0.169974 -0.252331 -0.952595
vn -0.072703 -0.404695 -0.911557
vn -0.072703 -0.404695 -0.911557
vn -0.072703 -0.404695 -0.911557
vn -0.012313 0.001151 -0.999924
vn -0.012313 0.001151 -0.999924
vn -0.012313 0.001151 -0.999924
s off
f 14/1/1 5/171/2 3/152/3
f 5/171/4 15/4/5 2/5/6
f 18/6/7 4/140/8 6/137/9
f 1/130/10 7/132/11 2/147/12
f 17/156/13 3/3/14 13/159/15
f 5/2/16 2/144/17 8/164/18
f 3/151/19 5/172/20 8/165/21
f 2/146/22 7/133/23 12/169/24
f 2/145/25 12/170/26 8/163/27
f 6/136/28 4/141/29 13/161/30
f 8/13/31 9/15/32 10/16/33
f 8/13/34 12/14/35 9/15/36
f 8/13/37 10/16/38 11/168/39
f 3/150/40 8/166/41 13/158/42
f 4/142/43 17/155/44 13/160/45
f 8/167/46 11/17/47 13/157/48
f 16/126/49 12/14/50 7/134/51
f 14/1/52 15/4/53 5/171/54
f 17/11/55 14/1/56 3/152/57
f 15/4/58 19/85/59 2/5/60
f 21/111/61 1/129/62 2/148/63
f 19/86/64 21/110/65 2/149/66
f 25/21/67 26/22/68 13/12/69
f 19/85/70 15/4/71 14/1/72
f 24/94/73 4/7/74 18/173/75
f 6/8/76 13/162/77 26/120/78
f 12/14/79 20/24/80 9/15/81
f 24/96/82 14/186/83 17/153/84
f 24/95/85 17/154/86 4/143/87
f 20/24/88 10/16/89 9/15/90
f 24/97/91 19/19/92 14/185/93
f 24/93/94 18/174/95 6/138/96
f 24/93/97 6/138/98 22/128/99
f 1/9/100 21/112/101 23/104/102
f 22/127/103 6/139/104 26/121/105
f 1/131/106 23/105/107 7/10/108
f 7/135/109 23/106/110 16/18/111
f 20/24/112 13/12/113 10/16/114
f 13/12/115 11/168/116 10/16/117
f 16/126/118 28/27/119 12/14/120
f 28/27/121 20/24/122 12/14/123
f 29/124/124 24/93/125 22/128/126
f 22/25/127 26/122/128 29/123/129
f 23/107/130 28/27/131 16/126/132
f 27/29/133 29/28/134 26/22/135
f 25/21/136 31/30/137 26/22/138
f 31/30/139 27/29/140 26/22/141
f 40/102/142 24/92/143 29/125/144
f 23/107/145 30/32/146 28/27/147
f 31/30/148 29/28/149 27/29/150
f 42/184/151 21/109/152 19/87/153
f 32/116/154 29/28/155 31/30/156
f 33/75/157 31/30/158 25/21/159
f 33/75/160 34/36/161 31/30/162
f 32/116/163 40/101/164 29/28/165
f 34/36/166 32/116/167 31/30/168
f 21/113/169 36/114/170 23/103/171
f 35/80/172 40/100/173 32/117/174
f 35/79/175 32/34/176 34/118/177
f 23/107/178 37/39/179 30/32/180
f 38/40/181 25/21/182 13/12/183
f 36/115/184 37/108/185 23/26/186
f 37/39/187 28/27/188 30/32/189
f 28/27/190 43/41/191 20/24/192
f 35/78/193 34/119/194 33/76/195
f 20/24/196 38/40/197 13/12/198
f 42/33/199 36/37/200 21/20/201
f 40/31/202 45/83/203 24/91/204
f 36/37/205 42/33/206 39/43/207
f 41/64/208 33/75/209 25/21/210
f 37/39/211 43/41/212 28/27/213
f 41/64/214 25/21/215 38/40/216
f 36/37/217 39/43/218 37/39/219
f 20/24/220 44/45/221 38/40/222
f 49/176/223 41/64/224 38/40/225
f 48/59/226 42/183/227 19/88/228
f 24/23/229 48/58/230 19/89/231
f 46/71/232 45/82/233 40/98/234
f 46/48/235 35/38/236 33/77/237
f 43/41/238 51/49/239 20/24/240
f 51/49/241 44/45/242 20/24/243
f 48/57/244 24/90/245 45/84/246
f 47/180/247 42/33/248 48/60/249
f 46/70/250 40/99/251 35/81/252
f 44/45/253 49/176/254 38/40/255
f 39/43/256 42/33/257 50/54/258
f 42/33/259 47/180/260 50/54/261
f 47/50/262 48/61/263 52/178/264
f 45/42/265 46/72/266 48/56/267
f 48/62/268 49/175/269 52/177/270
f 50/53/271 47/181/272 51/68/273
f 48/47/274 46/73/275 41/66/276
f 50/51/277 51/69/278 43/55/279
f 41/65/280 46/74/281 33/35/282
f 39/43/283 50/54/284 43/41/285
f 47/182/286 52/179/287 51/67/288
f 39/43/289 43/41/290 37/39/291
f 51/49/292 52/52/293 44/45/294
f 52/52/295 49/176/296 44/45/297
f 48/63/298 41/44/299 49/46/300
