# This file uses centimeters as units for non-parametric coordinates.

v 0.000000 2.500000 0.000001
v -2.500002 5.000000 -0.000001
v -0.000004 5.000000 2.499999
v -0.180334 4.819668 2.139338
v -2.139339 4.819668 0.180331
v -0.368950 4.631050 2.108760
v -0.180332 3.130932 0.450601
v -2.108761 4.631050 0.368948
v -0.559784 3.082077 0.368951
v -0.368950 3.137545 0.615252
v -0.419592 3.099924 0.180333
v -0.368950 4.248703 1.726412
v -0.368950 3.624622 1.102332
v -0.180332 4.121740 1.441411
v -0.519258 3.983995 1.311398
vt 0.199312 0.279972
vt 0.199312 0.279972
vt 0.199312 0.279972
vt 0.199312 0.279972
vt 0.199312 0.279972
vt 0.199312 0.279972
vt 0.199312 0.279972
vt 0.199312 0.279972
vt 0.199312 0.279972
vt 0.199312 0.279972
vt 0.199312 0.279972
vt 0.199312 0.279972
vt 0.199312 0.279972
vt 0.199312 0.279972
vt 0.199312 0.279972
vt 0.222939 0.292892
vt 0.222939 0.292892
vt 0.222939 0.292892
vt 0.222939 0.292892
vt 0.222939 0.292892
vt 0.222939 0.292892
vt 0.222939 0.292892
vn -0.528162 -0.601983 0.598883
vn -0.562765 -0.582480 0.586526
vn 0.310079 -0.699611 0.643735
vn -0.577350 -0.577351 0.577349
vn -0.577351 -0.577349 0.577351
vn -0.577351 -0.577349 0.577351
vn -0.577349 -0.577351 0.577351
vn -0.550751 -0.617224 0.561880
vn -0.577351 -0.577349 0.577351
vn -0.577352 -0.577349 0.577350
vn -0.577352 -0.577349 0.577350
vn -0.577351 -0.577349 0.577351
vn -0.632784 -0.682877 0.365054
vn -0.577350 -0.577351 0.577349
vn -0.550751 -0.617224 0.561880
vn -0.608352 0.509723 0.608351
vn -0.608352 0.509723 0.608351
vn -0.608352 0.509723 0.608351
vn -0.608352 0.509723 0.608351
vn -0.625589 -0.656615 0.421303
vn -0.632784 -0.682877 0.365054
vn -0.550751 -0.617224 0.561880
vn -0.568267 -0.591382 0.572136
vn -0.608350 -0.608352 -0.509724
vn -0.632784 -0.682877 0.365054
vn -0.625589 -0.656615 0.421303
vn -0.608350 -0.608352 -0.509724
vn -0.577352 -0.577349 0.577350
vn -0.577350 -0.577351 0.577349
vn -0.632784 -0.682877 0.365054
vn -0.577352 -0.577349 0.577350
vn 0.509726 -0.608351 0.608349
vn 0.509726 -0.608351 0.608349
vn 0.310079 -0.699611 0.643735
vn -0.505305 -0.608992 0.611388
vn -0.528162 -0.601983 0.598883
vn 0.310079 -0.699611 0.643735
vn 0.509726 -0.608350 0.608350
vn 0.509726 -0.608350 0.608350
vn -0.625589 -0.656615 0.421303
vn -0.568267 -0.591382 0.572136
vn -0.505305 -0.608992 0.611388
vn -0.562765 -0.582480 0.586526
vn -0.528162 -0.601983 0.598883
vn -0.577350 -0.577350 0.577350
vn -0.577350 -0.577350 0.577350
vn 0.310079 -0.699611 0.643735
vn -0.562765 -0.582480 0.586526
vn -0.505305 -0.608992 0.611388
s off
f 12/12/1 15/15/2 14/14/3
f 1/1/4 3/3/5 4/4/6 14/14/7 7/6/8
f 3/3/9 2/2/10 5/5/11 4/4/12
f 11/11/13 1/1/14 7/6/15
f 4/4/16 5/5/17 8/8/18 6/7/19
f 9/9/20 11/11/21 7/6/22 10/10/23
f 5/5/24 11/11/25 9/9/26 8/8/27
f 2/2/28 1/1/29 11/11/30 5/5/31
f 10/10/32 7/6/33 14/14/34 13/13/35
f 12/12/36 14/14/37 4/4/38 6/7/39
f 9/16/40 10/17/41 13/18/42 15/19/43 12/20/44 6/21/45 8/22/46
f 14/14/47 15/15/48 13/13/49
