# This file uses centimeters as units for non-parametric coordinates.

v 1.436005 0.231955 0.176804
v 1.063995 0.231955 0.176804
v 1.063995 0.231955 -0.145042
v 1.479355 0.139032 0.214302
v 1.479355 0.139032 -0.182549
v 1.020638 0.139032 0.214302
v 1.020638 0.139032 -0.182549
v 1.446842 0.208724 -0.154419
v 1.436005 0.231955 -0.064583
v 1.343002 0.231955 -0.145042
v 2.686005 0.231955 0.176804
v 2.686005 0.231955 -0.145042
v 2.313995 0.231955 -0.145042
v 2.729362 0.139032 0.214302
v 2.729362 0.139032 -0.182549
v 2.270645 0.139032 0.214302
v 2.270645 0.139032 -0.182549
v 2.303158 0.208724 0.186180
v 2.406998 0.231955 0.176804
v 2.313995 0.231955 0.096344
v 3.563992 0.231955 0.176804
v 3.563992 0.231955 -0.145042
v 3.936008 0.231955 -0.145042
v 3.520641 0.139032 0.214302
v 3.979359 0.139032 0.214302
v 3.520641 0.139032 -0.182549
v 3.979359 0.139032 -0.182549
v 3.946846 0.208724 0.186180
v 3.843002 0.231955 0.176804
v 3.936008 0.231955 0.096344
v 1.436005 1.079322 0.176804
v 1.436005 1.079322 -0.145042
v 1.063995 1.079322 0.176804
v 1.479355 1.183396 -0.182549
v 1.479355 1.183396 0.214302
v 1.020638 1.183396 0.214302
v 1.020638 1.183396 -0.182549
v 1.053154 1.105340 -0.154419
v 1.063995 1.079322 -0.064583
v 1.156998 1.079322 -0.145042
v 0.000000 1.167323 0.245621
v 5.000000 1.167323 0.245621
v 0.000000 1.310162 0.245621
v 5.000000 1.310162 0.245621
v 0.000000 1.310162 -0.213867
v 5.000000 1.310162 -0.213867
v 0.000000 1.167323 -0.213867
v 5.000000 1.167323 -0.213867
v 0.332565 1.310162 -0.050869
v 0.332565 1.310162 0.082630
v 4.667435 1.310162 -0.050869
v 4.667435 1.310162 0.082630
v 0.360420 1.263739 -0.025398
v 0.360420 1.263739 0.057163
v 4.639580 1.263739 -0.025398
v 4.639580 1.263739 0.057163
v 0.813564 1.310162 -0.213867
v 1.128510 1.310162 -0.213867
v 0.930172 1.310162 -0.154434
v 0.971523 1.215032 -0.213867
v 1.809109 1.301897 0.219032
v 1.865818 1.175588 -0.187279
v 1.802727 1.175588 0.219032
v 1.849819 1.301897 -0.043144
v 1.831486 1.301897 0.074905
v 1.844250 1.260847 -0.020622
v 1.832912 1.260847 0.052383
v 1.872204 1.301897 -0.187279
v 4.204998 1.301947 0.219193
v 4.205284 1.301947 0.074951
v 4.193237 1.175539 0.219193
v 4.194035 1.175539 -0.187439
v 4.205521 1.301947 -0.043190
v 4.201649 1.260864 -0.020653
v 4.201504 1.260864 0.052414
v 4.205803 1.301947 -0.187439
v 0.000000 0.142840 0.231972
v 5.000000 0.142840 0.231972
v 0.000000 0.000000 0.231972
v 5.000000 0.000000 0.231972
v 0.000000 0.000000 -0.200226
v 5.000000 0.000000 -0.200226
v 0.000000 0.142840 -0.200226
v 5.000000 0.142840 -0.200226
v 3.202621 0.000000 0.231972
v 3.202621 0.142840 0.231972
v 3.362495 0.000000 -0.260906
v 1.909840 0.142840 -0.200226
v 1.829403 0.000000 0.260902
v 1.909840 0.000000 -0.200226
v 1.372051 0.142840 0.253670
v 3.771873 0.142840 -0.245735
v 3.322525 0.142840 -0.137688
v 3.362495 0.107130 -0.260906
v 2.999332 0.142840 -0.245735
v 2.172707 0.142840 0.253670
v 1.849510 0.142840 0.145622
v 1.829403 0.107130 0.260902
v 1.095963 0.212298 0.018955
v 1.246792 0.212375 0.165920
v 1.095963 1.110852 0.018955
v 1.246792 1.110774 0.165920
v 1.254654 1.110105 -0.135548
v 1.405483 1.110027 0.011410
v 1.254654 0.213045 -0.135548
v 1.405483 0.213122 0.011410
v 1.120399 0.661575 0.018955
v 1.246792 0.661575 0.161121
v 1.366108 0.661575 0.011410
v 1.254654 0.661575 -0.116215
v 2.348141 0.215545 0.021961
v 2.497265 0.216909 0.170437
v 2.504845 0.215012 -0.134060
v 2.653969 0.216376 0.014408
v 2.370831 0.412280 0.027988
v 2.498402 0.412280 0.124741
v 2.614998 0.412280 0.018471
v 2.507965 0.325754 -0.126945
v 3.597626 0.215095 0.020809
v 3.746674 0.215775 0.169476
v 3.754345 0.214824 -0.135502
v 3.903393 0.215505 0.013157
v 3.635071 0.598175 0.021786
v 3.746689 0.661575 0.120445
v 3.857864 0.661575 0.013577
v 3.754921 0.661575 -0.105591
vt 0.200555 0.302679
vt 0.200555 0.302679
vt 0.200555 0.302679
vt 0.200555 0.302679
vt 0.200555 0.302679
vt 0.200555 0.302679
vt 0.200555 0.302679
vt 0.200555 0.302679
vt 0.200555 0.302679
vt 0.200555 0.302679
vt 0.200555 0.302679
vt 0.200555 0.302679
vt 0.200555 0.302679
vt 0.200555 0.302679
vt 0.200555 0.302679
vt 0.200555 0.302679
vt 0.200555 0.302679
vt 0.200555 0.302679
vt 0.200555 0.302679
vt 0.200555 0.302679
vt 0.200555 0.302679
vt 0.200555 0.302679
vt 0.200555 0.302679
vt 0.200555 0.302679
vt 0.200555 0.302679
vt 0.200555 0.302679
vt 0.200555 0.302679
vt 0.200555 0.302679
vt 0.200555 0.302679
vt 0.200555 0.302679
vt 0.200555 0.302679
vt 0.200555 0.302679
vt 0.200555 0.302679
vt 0.200555 0.302679
vt 0.200555 0.302679
vt 0.200555 0.302679
vt 0.200555 0.302679
vt 0.200555 0.302679
vt 0.200555 0.302679
vt 0.200555 0.302679
vt 0.200555 0.302679
vt 0.200555 0.302679
vt 0.200555 0.302679
vt 0.200555 0.302679
vt 0.200555 0.302679
vt 0.200555 0.302679
vt 0.200555 0.302679
vt 0.200555 0.302679
vt 0.200555 0.302679
vt 0.200555 0.302679
vt 0.200555 0.302679
vt 0.200555 0.302679
vt 0.200555 0.302679
vt 0.200555 0.302679
vt 0.200555 0.302679
vt 0.200555 0.302679
vt 0.200555 0.302679
vt 0.200555 0.302679
vt 0.200555 0.302679
vt 0.200555 0.302679
vt 0.200555 0.302679
vt 0.200555 0.302679
vt 0.200555 0.302679
vt 0.200555 0.302679
vt 0.200555 0.302679
vt 0.200555 0.302679
vt 0.200555 0.302679
vt 0.200555 0.302679
vt 0.200555 0.302679
vt 0.200555 0.302679
vt 0.200555 0.302679
vt 0.200555 0.302679
vt 0.200555 0.302679
vt 0.200555 0.302679
vt 0.200555 0.302679
vt 0.200555 0.302679
vt 0.200555 0.302679
vt 0.200555 0.302679
vt 0.200555 0.302679
vt 0.200555 0.302679
vt 0.200555 0.302679
vt 0.200555 0.302679
vt 0.200555 0.302679
vt 0.200555 0.302679
vt 0.200555 0.302679
vt 0.200555 0.302679
vt 0.200555 0.302679
vt 0.200555 0.302679
vt 0.200555 0.302679
vt 0.200555 0.302679
vt 0.200555 0.302679
vt 0.200555 0.302679
vt 0.200555 0.302679
vt 0.200555 0.302679
vt 0.200555 0.302679
vt 0.200555 0.302679
vt 0.200555 0.302679
vt 0.200555 0.302679
vt 0.200555 0.302679
vt 0.200555 0.302679
vt 0.200555 0.302679
vt 0.200555 0.302679
vt 0.200555 0.302679
vt 0.200555 0.302679
vt 0.200555 0.302679
vt 0.200555 0.302679
vt 0.200555 0.302679
vt 0.200555 0.302679
vt 0.200555 0.302679
vt 0.200555 0.302679
vt 0.200555 0.302679
vt 0.200555 0.302679
vt 0.200555 0.302679
vt 0.200555 0.302679
vt 0.200555 0.302679
vt 0.200555 0.302679
vt 0.200555 0.302679
vt 0.200555 0.302679
vt 0.200555 0.302679
vt 0.200555 0.302679
vt 0.200555 0.302679
vt 0.200555 0.302679
vt 0.200555 0.302679
vt 0.200555 0.302679
vt 0.200555 0.302679
vt 0.200555 0.302679
vt 0.200555 0.302679
vt 0.200555 0.302679
vt 0.200555 0.302679
vt 0.200555 0.302679
vt 0.200555 0.302679
vt 0.200555 0.302679
vt 0.200555 0.302679
vt 0.200555 0.302679
vt 0.200555 0.302679
vt 0.200555 0.302679
vt 0.200555 0.302679
vt 0.200555 0.302679
vt 0.200555 0.302679
vt 0.200555 0.302679
vt 0.200555 0.302679
vt 0.200555 0.302679
vt 0.200555 0.302679
vt 0.200555 0.302679
vt 0.200555 0.302679
vt 0.200555 0.302679
vt 0.200555 0.302679
vt 0.200555 0.302679
vt 0.200555 0.302679
vt 0.200555 0.302679
vt 0.200555 0.302679
vt 0.200555 0.302679
vt 0.200555 0.302679
vt 0.200555 0.302679
vt 0.200555 0.302679
vt 0.200555 0.302679
vn 0.193510 0.955261 -0.223675
vn 0.193510 0.955261 -0.223675
vn 0.193510 0.955261 -0.223675
vn 0.000000 0.374224 0.927338
vn 0.000000 0.374224 0.927338
vn 0.000000 0.374224 0.927338
vn 0.000000 0.374224 0.927338
vn -0.906205 0.422838 0.000000
vn -0.906205 0.422838 0.000000
vn -0.906205 0.422838 0.000000
vn -0.906205 0.422838 0.000000
vn 0.000000 1.000000 0.000000
vn 0.000000 1.000000 0.000000
vn 0.000000 1.000000 0.000000
vn 0.000000 1.000000 0.000000
vn 0.000000 1.000000 0.000000
vn 0.906234 0.422777 0.000000
vn 0.906234 0.422777 0.000000
vn 0.906234 0.422777 0.000000
vn 0.906234 0.422777 0.000000
vn 0.906234 0.422777 0.000000
vn -0.000000 0.374290 -0.927312
vn -0.000000 0.374290 -0.927312
vn -0.000000 0.374290 -0.927312
vn -0.000000 0.374289 -0.927312
vn -0.000000 0.374289 -0.927312
vn 0.906206 0.422837 0.000000
vn 0.906206 0.422837 0.000000
vn 0.906206 0.422837 0.000000
vn 0.906206 0.422837 0.000000
vn -0.193509 0.955261 0.223675
vn -0.193509 0.955261 0.223675
vn -0.193509 0.955261 0.223675
vn 0.000000 0.374290 -0.927312
vn 0.000000 0.374290 -0.927312
vn 0.000000 0.374290 -0.927312
vn 0.000000 0.374290 -0.927312
vn -0.906233 0.422778 0.000000
vn -0.906233 0.422778 0.000000
vn -0.906233 0.422778 0.000000
vn -0.906233 0.422778 0.000000
vn -0.906233 0.422778 0.000000
vn 0.000002 0.374221 0.927339
vn 0.000002 0.374221 0.927339
vn 0.000002 0.374221 0.927339
vn 0.000002 0.374221 0.927339
vn 0.000002 0.374221 0.927339
vn 0.000000 1.000000 -0.000000
vn 0.000000 1.000000 -0.000000
vn 0.000000 1.000000 -0.000000
vn 0.000000 1.000000 -0.000000
vn 0.000000 1.000000 -0.000000
vn 0.193503 0.955262 0.223677
vn 0.193503 0.955262 0.223677
vn 0.193503 0.955262 0.223677
vn -0.906233 0.422779 0.000000
vn -0.906233 0.422779 0.000000
vn -0.906233 0.422779 0.000000
vn -0.906233 0.422779 0.000000
vn 0.000000 0.374290 -0.927312
vn 0.000000 0.374290 -0.927312
vn 0.000000 0.374290 -0.927312
vn 0.000000 0.374290 -0.927312
vn -0.000002 0.374222 0.927339
vn -0.000002 0.374222 0.927339
vn -0.000002 0.374222 0.927339
vn -0.000002 0.374222 0.927339
vn -0.000002 0.374222 0.927339
vn 0.906234 0.422776 -0.000000
vn 0.906234 0.422776 -0.000000
vn 0.906234 0.422776 -0.000000
vn 0.906234 0.422776 -0.000000
vn 0.906234 0.422776 -0.000000
vn 0.000000 1.000000 0.000000
vn 0.000000 1.000000 0.000000
vn 0.000000 1.000000 0.000000
vn 0.000000 1.000000 0.000000
vn 0.000000 1.000000 0.000000
vn 0.923122 -0.384508 0.000000
vn 0.923122 -0.384508 0.000000
vn 0.923122 -0.384508 0.000000
vn 0.923122 -0.384508 0.000000
vn 0.000000 -0.338972 0.940796
vn 0.000000 -0.338972 0.940796
vn 0.000000 -0.338972 0.940796
vn 0.000000 -0.338972 0.940796
vn -0.214355 -0.944808 -0.247771
vn -0.214355 -0.944808 -0.247771
vn -0.214355 -0.944808 -0.247771
vn 0.000000 -0.339033 -0.940774
vn 0.000000 -0.339033 -0.940774
vn 0.000000 -0.339033 -0.940774
vn 0.000000 -0.339033 -0.940774
vn 0.000000 -0.339033 -0.940774
vn 0.000000 -1.000000 0.000000
vn 0.000000 -1.000000 0.000000
vn 0.000000 -1.000000 0.000000
vn 0.000000 -1.000000 0.000000
vn 0.000000 -1.000000 0.000000
vn -0.923099 -0.384564 0.000003
vn -0.923099 -0.384564 0.000003
vn -0.923099 -0.384564 0.000003
vn -0.923099 -0.384563 0.000003
vn -0.923099 -0.384564 0.000003
vn 1.000000 0.000000 0.000000
vn 1.000000 0.000000 0.000000
vn 1.000000 0.000000 0.000000
vn 1.000000 0.000000 0.000000
vn -1.000000 0.000000 0.000000
vn -1.000000 0.000000 0.000000
vn -1.000000 0.000000 0.000000
vn -1.000000 0.000000 0.000000
vn 0.004506 -0.999990 0.000328
vn 0.004506 -0.999990 0.000328
vn 0.004506 -0.999990 0.000328
vn 0.004506 -0.999990 0.000328
vn -0.033014 0.001443 -0.999454
vn -0.033014 0.001443 -0.999454
vn -0.033014 0.001443 -0.999454
vn -0.033014 0.001443 -0.999454
vn -0.006565 0.999978 -0.000007
vn -0.006565 0.999978 -0.000007
vn -0.006565 0.999978 -0.000007
vn -0.006565 0.999979 -0.000007
vn 0.000000 1.000000 0.000000
vn 0.000000 1.000000 0.000000
vn 0.000000 1.000000 0.000000
vn 0.000000 1.000000 0.000000
vn 0.000000 1.000000 0.000000
vn 0.000000 1.000000 0.000000
vn 0.000000 1.000000 0.000000
vn 0.000000 1.000000 0.000000
vn 0.857484 0.514512 0.000000
vn 0.857484 0.514512 0.000000
vn 0.857483 0.514512 0.000000
vn 0.857484 0.514512 0.000000
vn 0.006213 0.479229 -0.877668
vn 0.006213 0.479229 -0.877668
vn 0.006213 0.479229 -0.877668
vn 0.006213 0.479229 -0.877668
vn 0.006211 0.479254 0.877655
vn 0.006211 0.479254 0.877655
vn 0.006211 0.479254 0.877655
vn 0.006211 0.479254 0.877655
vn -0.857482 0.514513 0.000000
vn -0.857482 0.514513 0.000000
vn -0.857482 0.514513 0.000000
vn -0.857482 0.514513 0.000000
vn 0.014721 -0.000349 0.999892
vn 0.014721 -0.000349 0.999892
vn 0.014721 -0.000349 0.999892
vn 0.014721 -0.000349 0.999892
vn 0.005057 0.999970 0.005845
vn 0.005057 0.999970 0.005845
vn 0.005057 0.999970 0.005845
vn 0.005057 0.999970 0.005845
vn -0.013463 0.999803 0.014560
vn -0.013463 0.999803 0.014560
vn -0.013463 0.999803 0.014560
vn -0.013463 0.999803 0.014560
vn -0.259413 0.428090 -0.865704
vn -0.259413 0.428090 -0.865704
vn -0.259413 0.428090 -0.865704
vn 0.362583 0.602050 -0.711385
vn 0.362583 0.602050 -0.711385
vn 0.362583 0.602050 -0.711385
vn -0.000000 0.000000 -1.000000
vn -0.000000 0.000000 -1.000000
vn -0.000000 0.000000 -1.000000
vn -0.000000 0.000000 -1.000000
vn 0.014921 -0.303841 -0.952606
vn 0.014921 -0.303841 -0.952606
vn 0.014921 -0.303841 -0.952606
vn -0.013475 0.999803 -0.014598
vn -0.013475 0.999803 -0.014598
vn -0.013475 0.999803 -0.014598
vn -0.013475 0.999803 -0.014598
vn 0.000000 1.000000 0.000001
vn 0.000000 1.000000 0.000001
vn 0.000000 1.000000 0.000001
vn 0.000000 1.000000 0.000001
vn 0.031757 -0.023429 -0.999221
vn 0.031757 -0.023429 -0.999221
vn 0.031757 -0.023429 -0.999221
vn 0.031757 -0.023429 -0.999221
vn 0.001957 0.999998 0.000142
vn 0.001957 0.999998 0.000142
vn 0.001957 0.999998 0.000142
vn 0.001957 0.999998 0.000142
vn 0.005289 0.999520 0.030515
vn 0.005289 0.999520 0.030515
vn 0.005289 0.999520 0.030515
vn -0.001886 0.480497 -0.876995
vn -0.001886 0.480497 -0.876995
vn -0.001886 0.480497 -0.876995
vn -0.001886 0.480497 -0.876995
vn -0.001866 0.480646 0.876913
vn -0.001866 0.480646 0.876913
vn -0.001866 0.480646 0.876913
vn -0.001866 0.480646 0.876913
vn 0.009117 0.999910 0.009888
vn 0.009117 0.999910 0.009888
vn 0.009117 0.999910 0.009888
vn 0.009117 0.999910 0.009888
vn -0.032981 0.001441 0.999455
vn -0.032981 0.001441 0.999455
vn -0.032981 0.001441 0.999455
vn -0.032981 0.001441 0.999455
vn -0.010188 -0.999948 -0.000009
vn -0.010188 -0.999948 -0.000009
vn -0.010188 -0.999948 -0.000009
vn -0.010188 -0.999948 -0.000009
vn 1.000000 0.000000 0.000000
vn 1.000000 0.000000 0.000000
vn 1.000000 0.000000 0.000000
vn 1.000000 0.000000 0.000000
vn -1.000000 0.000000 0.000000
vn -1.000000 0.000000 0.000000
vn -1.000000 0.000000 0.000000
vn -1.000000 0.000000 0.000000
vn 0.000000 -1.000000 0.000000
vn 0.000000 -1.000000 0.000000
vn 0.000000 -1.000000 0.000000
vn 0.000000 -1.000000 0.000000
vn 0.084265 0.964038 -0.252053
vn 0.084265 0.964038 -0.252053
vn 0.084265 0.964038 -0.252053
vn 0.000000 0.000000 1.000000
vn 0.000000 0.000000 1.000000
vn 0.000000 0.000000 1.000000
vn 0.000000 0.000000 1.000000
vn 0.000000 -1.000000 0.000000
vn 0.000000 -1.000000 0.000000
vn 0.000000 -1.000000 0.000000
vn 0.000000 -1.000000 0.000000
vn 0.069290 0.949445 0.306192
vn 0.069290 0.949445 0.306192
vn 0.069290 0.949445 0.306192
vn 0.000000 -1.000000 0.000000
vn 0.000000 -1.000000 0.000000
vn 0.000000 -1.000000 0.000000
vn 0.000000 -1.000000 0.000000
vn 0.000000 0.000000 -1.000000
vn 0.000000 0.000000 -1.000000
vn 0.000000 0.000000 -1.000000
vn 0.000000 0.000000 -1.000000
vn 0.000000 1.000000 0.000000
vn 0.000000 1.000000 0.000000
vn 0.000000 1.000000 0.000000
vn 0.000000 1.000000 0.000000
vn 0.000000 1.000000 0.000000
vn 0.037031 0.000003 -0.999314
vn 0.037031 0.000003 -0.999314
vn 0.037031 0.000003 -0.999314
vn 0.037031 0.000003 -0.999314
vn 0.037031 0.000003 -0.999314
vn -0.041736 0.000004 -0.999129
vn -0.041736 0.000004 -0.999129
vn -0.041736 0.000004 -0.999129
vn -0.041736 0.000004 -0.999129
vn -0.041736 0.000004 -0.999129
vn 0.000000 1.000000 0.000000
vn 0.000000 1.000000 0.000000
vn 0.000000 1.000000 0.000000
vn 0.000000 1.000000 0.000000
vn 0.000000 1.000000 0.000000
vn -0.015812 -0.000000 0.999875
vn -0.015812 -0.000000 0.999875
vn -0.015812 -0.000000 0.999875
vn -0.015812 -0.000000 0.999875
vn -0.015812 -0.000000 0.999875
vn 0.021063 0.000000 0.999778
vn 0.021063 0.000000 0.999778
vn 0.021063 0.000000 0.999778
vn 0.021063 0.000000 0.999778
vn 0.021063 0.000000 0.999778
vn 0.000000 1.000000 0.000000
vn 0.000000 1.000000 0.000000
vn 0.000000 1.000000 0.000000
vn 0.000000 1.000000 0.000000
vn 0.000000 1.000000 0.000000
vn 0.000000 1.000000 0.000000
vn -0.093500 0.955529 0.279683
vn -0.093500 0.955529 0.279683
vn -0.093500 0.955529 0.279683
vn -0.071916 0.951512 -0.299086
vn -0.071916 0.951512 -0.299086
vn -0.071916 0.951512 -0.299086
vn -0.721623 -0.023322 0.691893
vn -0.721623 -0.023322 0.691893
vn -0.721623 -0.023322 0.691893
vn -0.721623 -0.023322 0.691893
vn 0.722324 -0.046580 -0.689984
vn 0.722324 -0.046580 -0.689984
vn 0.722324 -0.046580 -0.689984
vn 0.722324 -0.046580 -0.689984
vn 0.737675 -0.035962 0.674198
vn 0.737675 -0.035962 0.674198
vn 0.737675 -0.035962 0.674198
vn 0.737675 -0.035962 0.674198
vn -0.702751 -0.034430 -0.710602
vn -0.702751 -0.034430 -0.710602
vn -0.702751 -0.034430 -0.710602
vn -0.702751 -0.034430 -0.710602
vn -0.721623 0.023322 0.691893
vn -0.721623 0.023322 0.691893
vn -0.721623 0.023322 0.691893
vn -0.721623 0.023322 0.691893
vn 0.737675 0.035962 0.674198
vn 0.737675 0.035962 0.674198
vn 0.737675 0.035962 0.674198
vn 0.737675 0.035962 0.674198
vn 0.722324 0.046580 -0.689984
vn 0.722324 0.046580 -0.689984
vn 0.722324 0.046580 -0.689984
vn 0.722324 0.046580 -0.689984
vn -0.702751 0.034430 -0.710602
vn -0.702751 0.034430 -0.710603
vn -0.702751 0.034430 -0.710602
vn -0.702751 0.034430 -0.710602
vn -0.659170 0.115235 0.743113
vn -0.659170 0.115235 0.743113
vn -0.659170 0.115235 0.743113
vn -0.659170 0.115235 0.743113
vn 0.685538 0.142261 0.714002
vn 0.685538 0.142261 0.714002
vn 0.685538 0.142261 0.714002
vn 0.685538 0.142261 0.714002
vn 0.732701 0.110140 -0.671579
vn 0.732701 0.110140 -0.671579
vn 0.732701 0.110140 -0.671579
vn 0.732701 0.110140 -0.671579
vn -0.711280 0.089504 -0.697187
vn -0.711280 0.089504 -0.697187
vn -0.711280 0.089504 -0.697187
vn -0.711280 0.089504 -0.697187
vn -0.695840 0.072870 0.714491
vn -0.695840 0.072870 0.714491
vn -0.695840 0.072870 0.714491
vn -0.695840 0.072870 0.714491
vn 0.698906 0.074436 0.711330
vn 0.698906 0.074436 0.711330
vn 0.698906 0.074436 0.711330
vn 0.698906 0.074436 0.711330
vn 0.726928 0.059840 -0.684102
vn 0.726928 0.059840 -0.684102
vn 0.726928 0.059840 -0.684102
vn 0.726928 0.059840 -0.684102
vn -0.721299 0.058736 -0.690129
vn -0.721299 0.058736 -0.690129
vn -0.721299 0.058736 -0.690129
vn -0.721299 0.058736 -0.690129
vn 0.986930 -0.049845 0.153249
vn 0.986930 -0.049845 0.153249
vn 0.986930 -0.049845 0.153249
vn 0.986930 -0.049845 0.153249
vn -0.995691 0.092713 -0.001963
vn -0.995691 0.092713 -0.001963
vn -0.995691 0.092713 -0.001963
vn -0.995691 0.092713 -0.001963
vn 0.000000 1.000000 -0.000000
vn 0.000000 1.000000 -0.000000
vn 0.000000 1.000000 -0.000000
vn -0.482040 0.875974 -0.017556
vn -0.482040 0.875974 -0.017556
vn -0.482040 0.875974 -0.017556
vn 0.986927 -0.049877 0.153257
vn 0.986927 -0.049877 0.153257
vn 0.986927 -0.049877 0.153257
vn 0.986927 -0.049877 0.153257
vn 0.986928 -0.049884 0.153251
vn 0.986928 -0.049884 0.153251
vn 0.986928 -0.049884 0.153251
vn 0.986928 -0.049884 0.153251
vn -0.995697 0.092651 -0.001962
vn -0.995697 0.092651 -0.001962
vn -0.995697 0.092651 -0.001962
vn -0.995697 0.092651 -0.001962
vn -0.995696 0.092661 -0.001956
vn -0.995696 0.092661 -0.001956
vn -0.995696 0.092661 -0.001956
vn -0.995696 0.092661 -0.001956
vn 0.000000 1.000000 0.000000
vn 0.000000 1.000000 0.000000
vn 0.000000 1.000000 0.000000
vn -0.019513 0.865456 -0.500606
vn -0.019513 0.865456 -0.500606
vn -0.019513 0.865456 -0.500606
s off
f 10/1/1 9/2/2 8/3/3
f 4/4/4 1/5/5 2/6/6 6/7/7
f 6/7/8 2/6/9 3/8/10 7/9/11
f 9/2/12 10/1/13 3/8/14 2/6/15 1/5/16
f 5/10/17 8/3/18 9/2/19 1/5/20 4/4/21
f 7/9/22 3/8/23 10/1/24 8/3/25 5/10/26
f 15/11/27 12/12/28 11/13/29 14/14/30
f 20/15/31 18/16/32 19/17/33
f 17/18/34 13/19/35 12/12/36 15/11/37
f 16/20/38 18/16/39 20/15/40 13/19/41 17/18/42
f 14/14/43 11/13/44 19/17/45 18/16/46 16/20/47
f 12/12/48 13/19/49 20/15/50 19/17/51 11/13/52
f 29/21/53 28/22/54 30/23/55
f 24/24/56 21/25/57 22/26/58 26/27/59
f 26/27/60 22/26/61 23/28/62 27/29/63
f 25/30/64 28/22/65 29/21/66 21/25/67 24/24/68
f 27/29/69 23/28/70 30/23/71 28/22/72 25/30/73
f 29/21/74 30/23/75 23/28/76 22/26/77 21/25/78
f 34/31/79 35/32/80 31/33/81 32/34/82
f 35/32/83 36/35/84 33/36/85 31/33/86
f 40/37/87 39/38/88 38/39/89
f 37/40/90 34/31/91 32/34/92 40/37/93 38/39/94
f 32/34/95 31/33/96 33/36/97 39/38/98 40/37/99
f 36/35/100 37/40/101 38/39/102 39/38/103 33/36/104
f 42/41/105 48/42/106 46/43/107 44/44/108
f 47/45/109 41/46/110 43/47/111 45/48/112
f 41/49/113 47/50/114 62/51/115 63/52/116
f 48/53/117 72/54/118 76/55/119 46/56/120
f 56/57/121 55/58/122 74/59/123 75/60/124
f 45/61/125 43/47/126 50/62/127 49/63/128
f 44/44/129 46/56/130 51/64/131 52/66/132
f 49/63/133 50/62/134 54/67/135 53/68/136
f 56/57/137 75/60/138 70/69/139 52/66/140
f 55/58/141 51/64/142 73/65/143 74/59/144
f 52/66/145 51/64/146 55/58/147 56/57/148
f 43/47/149 41/46/150 63/52/151 61/71/152
f 50/62/153 43/47/154 61/71/155 65/70/156
f 52/66/157 70/69/158 69/72/159 44/44/160
f 58/74/161 60/75/162 59/76/163
f 59/76/164 60/75/165 57/77/166
f 47/50/167 45/61/168 57/77/169 60/75/170
f 47/50/171 60/75/172 62/51/173
f 51/64/174 46/56/175 76/55/176 73/65/177
f 49/63/178 59/76/179 57/77/180 45/61/181
f 68/79/182 62/51/183 60/75/184 58/74/185
f 67/80/186 66/81/187 53/68/188 54/67/189
f 64/82/190 59/76/191 49/63/192
f 65/70/193 67/80/194 54/67/195 50/62/196
f 66/81/197 64/82/198 49/63/199 53/68/200
f 64/82/201 68/79/202 58/74/203 59/76/204
f 69/72/205 71/73/206 42/41/207 44/44/208
f 71/78/209 72/54/210 48/53/211 42/83/212
f 78/84/213 80/85/214 82/86/215 84/87/216
f 83/88/217 81/89/218 79/90/219 77/91/220
f 87/92/221 85/93/222 89/94/223 90/95/224
f 95/96/225 93/97/226 94/98/227
f 80/85/228 78/84/229 86/99/230 85/93/231
f 82/100/232 80/85/233 85/93/234 87/92/235
f 97/101/236 91/102/237 98/103/238
f 90/95/239 89/94/240 79/90/241 81/104/242
f 88/105/243 90/95/244 81/104/245 83/106/246
f 78/107/247 84/108/248 92/109/249 93/97/250 86/110/251
f 84/108/252 82/100/253 87/92/254 94/98/255 92/109/256
f 95/96/257 94/98/258 87/92/259 90/95/260 88/105/261
f 91/111/262 97/101/263 88/105/264 83/106/265 77/112/266
f 89/94/267 98/103/268 91/102/269 77/91/270 79/90/271
f 85/93/272 86/99/273 96/113/274 98/103/275 89/94/276
f 86/110/277 93/97/278 95/96/279 88/105/280 97/101/281 96/114/282
f 97/101/283 98/103/284 96/114/285
f 94/98/286 93/97/287 92/109/288
f 107/115/289 108/116/290 102/117/291 101/118/292
f 103/119/293 104/120/294 109/121/295 110/122/296
f 108/116/297 109/123/298 104/124/299 102/117/300
f 110/125/301 107/115/302 101/118/303 103/126/304
f 99/127/305 100/128/306 108/116/307 107/115/308
f 100/128/309 106/129/310 109/123/311 108/116/312
f 110/122/313 109/121/314 106/130/315 105/131/316
f 105/132/317 99/127/318 107/115/319 110/125/320
f 111/139/321 112/140/322 116/134/323 115/133/324
f 112/140/325 114/141/326 117/137/327 116/134/328
f 118/136/329 117/135/330 114/142/331 113/143/332
f 113/144/333 111/139/334 115/133/335 118/138/336
f 119/151/337 120/152/338 124/146/339 123/145/340
f 120/152/341 122/153/342 125/149/343 124/146/344
f 126/148/345 125/147/346 122/154/347 121/155/348
f 121/156/349 119/151/350 123/145/351 126/150/352
f 63/52/353 67/80/354 65/70/355 61/71/356
f 76/55/357 72/54/358 74/59/359 73/65/360
f 116/134/361 117/135/362 115/133/363
f 124/146/364 126/150/365 123/145/366
f 66/81/367 62/51/368 68/79/369 64/82/370
f 63/52/371 62/51/372 66/81/373 67/80/374
f 75/60/375 71/73/376 69/72/377 70/69/378
f 74/59/379 72/54/380 71/73/381 75/60/382
f 124/146/383 125/147/384 126/150/385
f 115/133/386 117/135/387 118/138/388
