# This file uses centimeters as units for non-parametric coordinates.

v -0.439289 0.177424 0.439290
v 0.439289 0.177424 0.439290
v -0.439289 0.495911 0.439290
v 0.439289 0.495911 0.439290
v -0.439289 0.495911 -0.439290
v 0.439289 0.495911 -0.439290
v -0.439289 0.177424 -0.439290
v 0.439289 0.177424 -0.439290
v -0.533829 0.177424 -0.533836
v 0.533836 0.177424 -0.533836
v 0.533836 0.177424 0.533836
v -0.533829 0.177424 0.533836
v -0.533829 0.000000 -0.533836
v 0.533836 0.000000 -0.533836
v 0.533836 0.000000 0.533836
v -0.533829 0.000000 0.533836
v -0.502184 0.582229 0.502181
v 0.502178 0.582229 0.502181
v 0.502178 0.582229 -0.502178
v -0.502184 0.582229 -0.502178
v -0.430515 0.669219 0.430516
v 0.430515 0.669219 0.430516
v 0.430515 0.669219 -0.430512
v -0.430515 0.669219 -0.430512
v -0.334406 1.107122 0.334410
v 0.334408 1.107122 0.334410
v 0.334408 1.107122 -0.334405
v -0.334406 1.107122 -0.334405
v -0.405003 1.107122 0.405009
v 0.405010 1.107122 0.405009
v 0.405010 1.107122 -0.405005
v -0.405003 1.107122 -0.405005
v -0.405003 1.218414 0.405009
v 0.405010 1.218414 0.405009
v 0.405010 1.218414 -0.405005
v -0.405003 1.218414 -0.405005
v -0.344179 1.218414 0.344184
v 0.344181 1.218414 0.344184
v 0.344181 1.218414 -0.344177
v -0.344179 1.218414 -0.344177
v -0.344179 2.637758 0.344184
v 0.344181 2.637758 0.344184
v 0.344181 2.637758 -0.344177
v -0.344179 2.637758 -0.344177
v -0.399921 2.731678 0.399928
v 0.399923 2.731678 0.399928
v 0.399923 2.731678 -0.399920
v -0.399921 2.731678 -0.399920
v -0.348623 2.844022 0.348632
v 0.348631 2.844022 0.348632
v 0.348631 2.844022 -0.348621
v -0.348623 2.844022 -0.348621
v -0.271988 1.301023 0.344184
v 0.271996 1.301023 0.344184
v 0.271996 2.555149 0.344184
v -0.271988 2.555149 0.344184
v 0.344181 1.301023 0.271993
v 0.344181 1.301023 -0.271986
v 0.344181 2.555149 -0.271986
v 0.344181 2.555149 0.271993
v -0.271988 1.301023 -0.344177
v 0.271996 1.301023 -0.344177
v -0.271988 2.555149 -0.344177
v 0.271996 2.555149 -0.344177
v -0.344179 1.301023 0.271993
v -0.344179 1.301023 -0.271986
v -0.344179 2.555149 0.271993
v -0.344179 2.555149 -0.271986
v -0.245129 1.326477 0.315670
v 0.245131 1.326477 0.315670
v 0.245131 2.529695 0.315670
v -0.245129 2.529695 0.315670
v 0.315666 1.326477 0.245132
v 0.315666 1.326477 -0.245127
v 0.315666 2.529695 -0.245127
v 0.315666 2.529695 0.245132
v -0.245129 1.326477 -0.315663
v 0.245131 1.326477 -0.315663
v -0.245129 2.529695 -0.315663
v 0.245131 2.529695 -0.315663
v -0.315664 1.326477 0.245132
v -0.315664 1.326477 -0.245127
v -0.315664 2.529695 0.245132
v -0.315664 2.529695 -0.245127
v -0.192692 1.366584 0.358299
v 0.192699 1.366584 0.358299
v 0.192699 2.489588 0.358299
v -0.192692 2.489588 0.358299
v 0.358297 1.366584 0.192701
v 0.358297 1.366584 -0.192696
v 0.358297 2.489588 -0.192696
v 0.358297 2.489588 0.192701
v -0.192692 1.366584 -0.358294
v 0.192699 1.366584 -0.358294
v -0.192692 2.489588 -0.358294
v 0.192699 2.489588 -0.358294
v -0.358290 1.366584 0.192701
v -0.358290 1.366584 -0.192696
v -0.358290 2.489588 0.192701
v -0.358290 2.489588 -0.192696
vt 0.198962 0.303024
vt 0.198962 0.303024
vt 0.198962 0.303024
vt 0.198962 0.303024
vt 0.198962 0.303024
vt 0.198962 0.303024
vt 0.198962 0.303024
vt 0.198962 0.303024
vt 0.198962 0.303024
vt 0.198962 0.303024
vt 0.198962 0.303024
vt 0.198962 0.303024
vt 0.198962 0.303024
vt 0.198962 0.303024
vt 0.198962 0.303024
vt 0.198962 0.303024
vt 0.198962 0.303024
vt 0.198962 0.303024
vt 0.198962 0.303024
vt 0.198962 0.303024
vt 0.198962 0.303024
vt 0.198962 0.303024
vt 0.198962 0.303024
vt 0.198962 0.303024
vt 0.198962 0.303024
vt 0.198962 0.303024
vt 0.198962 0.303024
vt 0.198962 0.303024
vt 0.198962 0.303024
vt 0.198962 0.303024
vt 0.198962 0.303024
vt 0.198962 0.303024
vt 0.198962 0.303024
vt 0.198962 0.303024
vt 0.198962 0.303024
vt 0.198962 0.303024
vt 0.198962 0.303024
vt 0.198962 0.303024
vt 0.198962 0.303024
vt 0.198962 0.303024
vt 0.198962 0.303024
vt 0.198962 0.303024
vt 0.198962 0.303024
vt 0.198962 0.303024
vt 0.198962 0.303024
vt 0.198962 0.303024
vt 0.198962 0.303024
vt 0.198962 0.303024
vt 0.198962 0.303024
vt 0.198962 0.303024
vt 0.198962 0.303024
vt 0.198962 0.303024
vt 0.198962 0.303024
vt 0.198962 0.303024
vt 0.198962 0.303024
vt 0.198962 0.303024
vt 0.198962 0.303024
vt 0.198962 0.303024
vt 0.198962 0.303024
vt 0.198962 0.303024
vt 0.198962 0.303024
vt 0.198962 0.303024
vt 0.198962 0.303024
vt 0.198962 0.303024
vt 0.198962 0.303024
vt 0.198962 0.303024
vt 0.198962 0.303024
vt 0.198962 0.303024
vt 0.198962 0.303024
vt 0.198962 0.303024
vt 0.198962 0.303024
vt 0.198962 0.303024
vt 0.198962 0.303024
vt 0.198962 0.303024
vt 0.198962 0.303024
vt 0.198962 0.303024
vt 0.198962 0.303024
vt 0.198962 0.303024
vt 0.198962 0.303024
vt 0.198962 0.303024
vt 0.198962 0.303024
vt 0.198962 0.303024
vt 0.198962 0.303024
vt 0.198962 0.303024
vt 0.198962 0.303024
vt 0.198962 0.303024
vt 0.198962 0.303024
vt 0.198962 0.303024
vt 0.198962 0.303024
vt 0.198962 0.303024
vt 0.198962 0.303024
vt 0.198962 0.303024
vt 0.198962 0.303024
vt 0.198962 0.303024
vt 0.198962 0.303024
vt 0.198962 0.303024
vt 0.198962 0.303024
vt 0.198962 0.303024
vt 0.198962 0.303024
vt 0.198962 0.303024
vn 0.000000 0.000000 1.000000
vn 0.000000 0.000000 1.000000
vn 0.000000 0.000000 1.000000
vn 0.000000 0.000000 1.000000
vn 0.000000 1.000000 0.000000
vn 0.000000 1.000000 0.000000
vn 0.000000 1.000000 0.000000
vn 0.000000 1.000000 0.000000
vn 0.000000 0.000000 -1.000000
vn 0.000000 0.000000 -1.000000
vn 0.000000 0.000000 -1.000000
vn 0.000000 0.000000 -1.000000
vn 0.000000 -1.000000 0.000000
vn 0.000000 -1.000000 0.000000
vn 0.000000 -1.000000 0.000000
vn 0.000000 -1.000000 0.000000
vn 1.000000 0.000000 0.000000
vn 1.000000 0.000000 0.000000
vn 1.000000 0.000000 0.000000
vn 1.000000 0.000000 0.000000
vn -1.000000 0.000000 0.000000
vn -1.000000 0.000000 0.000000
vn -1.000000 0.000000 0.000000
vn -1.000000 0.000000 0.000000
vn 0.000000 1.000000 0.000000
vn 0.000000 1.000000 0.000000
vn 0.000000 1.000000 0.000000
vn 0.000000 1.000000 0.000000
vn 0.000000 1.000000 0.000000
vn 0.000000 1.000000 0.000000
vn 0.000000 1.000000 0.000000
vn 0.000000 1.000000 0.000000
vn 0.000000 1.000000 -0.000000
vn 0.000000 1.000000 -0.000000
vn 0.000000 1.000000 -0.000000
vn 0.000000 1.000000 -0.000000
vn 0.000000 1.000000 0.000000
vn 0.000000 1.000000 0.000000
vn 0.000000 1.000000 0.000000
vn 0.000000 1.000000 0.000000
vn 0.000000 0.000000 -1.000000
vn 0.000000 0.000000 -1.000000
vn 0.000000 0.000000 -1.000000
vn 0.000000 0.000000 -1.000000
vn 1.000000 0.000000 0.000000
vn 1.000000 0.000000 0.000000
vn 1.000000 0.000000 0.000000
vn 1.000000 0.000000 0.000000
vn 0.000000 0.000000 1.000000
vn 0.000000 0.000000 1.000000
vn 0.000000 0.000000 1.000000
vn 0.000000 0.000000 1.000000
vn -1.000000 0.000000 0.000000
vn -1.000000 0.000000 0.000000
vn -1.000000 0.000000 0.000000
vn -1.000000 0.000000 0.000000
vn -0.000000 -0.588872 0.808227
vn -0.000000 -0.588872 0.808227
vn -0.000000 -0.588872 0.808227
vn -0.000000 -0.588872 0.808227
vn 0.808235 -0.588860 0.000000
vn 0.808235 -0.588860 0.000000
vn 0.808235 -0.588860 0.000000
vn 0.808235 -0.588860 0.000000
vn -0.000000 -0.588854 -0.808239
vn -0.000000 -0.588854 -0.808239
vn -0.000000 -0.588854 -0.808239
vn -0.000000 -0.588854 -0.808239
vn -0.808210 -0.588895 0.000000
vn -0.808210 -0.588895 0.000000
vn -0.808210 -0.588895 0.000000
vn -0.808210 -0.588895 0.000000
vn 0.000000 0.635844 0.771818
vn 0.000000 0.635844 0.771818
vn 0.000000 0.635844 0.771818
vn 0.000000 0.635844 0.771818
vn 0.771826 0.635834 0.000000
vn 0.771826 0.635834 0.000000
vn 0.771826 0.635834 0.000000
vn 0.771826 0.635834 0.000000
vn 0.000000 0.635849 -0.771814
vn 0.000000 0.635849 -0.771814
vn 0.000000 0.635849 -0.771814
vn 0.000000 0.635849 -0.771814
vn -0.771801 0.635864 0.000000
vn -0.771801 0.635864 0.000000
vn -0.771801 0.635864 0.000000
vn -0.771801 0.635864 0.000000
vn 0.000000 0.214368 0.976753
vn 0.000000 0.214368 0.976753
vn 0.000000 0.214368 0.976753
vn 0.000000 0.214368 0.976753
vn 0.976753 0.214370 0.000000
vn 0.976753 0.214370 0.000000
vn 0.976753 0.214370 0.000000
vn 0.976753 0.214370 0.000000
vn 0.000000 0.214370 -0.976753
vn 0.000000 0.214370 -0.976753
vn 0.000000 0.214370 -0.976753
vn 0.000000 0.214370 -0.976753
vn -0.976752 0.214374 0.000000
vn -0.976752 0.214374 0.000000
vn -0.976752 0.214374 0.000000
vn -0.976752 0.214374 0.000000
vn 0.000000 -1.000000 -0.000000
vn 0.000000 -1.000000 -0.000000
vn 0.000000 -1.000000 -0.000000
vn 0.000000 -1.000000 -0.000000
vn 0.000000 -1.000000 0.000000
vn 0.000000 -1.000000 0.000000
vn 0.000000 -1.000000 0.000000
vn 0.000000 -1.000000 0.000000
vn 0.000000 -1.000000 -0.000001
vn 0.000000 -1.000000 -0.000001
vn 0.000000 -1.000000 -0.000001
vn 0.000000 -1.000000 -0.000001
vn 0.000000 -1.000000 0.000000
vn 0.000000 -1.000000 0.000000
vn 0.000000 -1.000000 0.000000
vn 0.000000 -1.000000 0.000000
vn 0.000000 0.000000 1.000000
vn 0.000000 0.000000 1.000000
vn 0.000000 0.000000 1.000000
vn 0.000000 0.000000 1.000000
vn 1.000000 0.000000 0.000000
vn 1.000000 0.000000 0.000000
vn 1.000000 0.000000 0.000000
vn 1.000000 0.000000 0.000000
vn 0.000000 0.000000 -1.000000
vn 0.000000 0.000000 -1.000000
vn 0.000000 0.000000 -1.000000
vn 0.000000 0.000000 -1.000000
vn -1.000000 0.000000 0.000000
vn -1.000000 0.000000 0.000000
vn -1.000000 0.000000 0.000000
vn -1.000000 0.000000 0.000000
vn 0.000000 1.000000 0.000000
vn 0.000000 1.000000 0.000000
vn 0.000000 1.000000 0.000000
vn 0.000000 1.000000 0.000000
vn 0.000000 1.000000 0.000000
vn 0.000000 1.000000 0.000000
vn 0.000000 1.000000 0.000000
vn 0.000000 1.000000 0.000000
vn 0.000000 1.000000 0.000000
vn 0.000000 1.000000 0.000000
vn 0.000000 1.000000 0.000000
vn 0.000000 1.000000 0.000000
vn 0.000000 1.000000 0.000000
vn 0.000000 1.000000 0.000000
vn 0.000000 1.000000 0.000000
vn 0.000000 1.000000 0.000000
vn 0.000000 0.000000 1.000000
vn 0.000000 0.000000 1.000000
vn 0.000000 0.000000 1.000000
vn 0.000000 0.000000 1.000000
vn 1.000000 0.000000 0.000000
vn 1.000000 0.000000 0.000000
vn 1.000000 0.000000 0.000000
vn 1.000000 0.000000 0.000000
vn 0.000000 0.000000 -1.000000
vn 0.000000 0.000000 -1.000000
vn 0.000000 0.000000 -1.000000
vn 0.000000 0.000000 -1.000000
vn -1.000000 0.000000 0.000000
vn -1.000000 0.000000 0.000000
vn -1.000000 0.000000 0.000000
vn -1.000000 0.000000 0.000000
vn 0.000000 -0.510398 0.859938
vn 0.000000 -0.510398 0.859938
vn 0.000000 -0.510398 0.859938
vn 0.000000 -0.510398 0.859938
vn 0.859946 -0.510386 0.000000
vn 0.859946 -0.510386 0.000000
vn 0.859946 -0.510386 0.000000
vn 0.859946 -0.510386 0.000000
vn 0.000000 -0.510385 -0.859946
vn 0.000000 -0.510385 -0.859946
vn 0.000000 -0.510385 -0.859946
vn 0.000000 -0.510385 -0.859946
vn -0.859945 -0.510386 0.000000
vn -0.859946 -0.510386 0.000000
vn -0.859946 -0.510386 0.000000
vn -0.859946 -0.510386 0.000000
vn 0.000000 0.415350 0.909662
vn 0.000000 0.415350 0.909662
vn 0.000000 0.415350 0.909662
vn 0.000000 0.415350 0.909662
vn 0.909673 0.415325 0.000000
vn 0.909673 0.415325 0.000000
vn 0.909673 0.415325 0.000000
vn 0.909673 0.415325 0.000000
vn 0.000000 0.415363 -0.909656
vn 0.000000 0.415363 -0.909656
vn 0.000000 0.415363 -0.909656
vn 0.000000 0.415363 -0.909656
vn -0.909656 0.415363 0.000000
vn -0.909656 0.415363 0.000000
vn -0.909656 0.415363 0.000000
vn -0.909656 0.415363 0.000000
vn -0.000000 0.000000 1.000000
vn 0.000000 0.000000 1.000000
vn 0.000000 0.000000 1.000000
vn -0.000000 0.000000 1.000000
vn 0.000000 0.000000 1.000000
vn 0.000000 0.000000 1.000000
vn 0.000000 0.000000 1.000000
vn 0.000000 0.000000 1.000000
vn 0.000000 0.000000 1.000000
vn -0.000000 0.000000 1.000000
vn -0.000000 0.000000 1.000000
vn 0.000000 0.000000 1.000000
vn -0.000000 0.000000 1.000000
vn -0.000000 0.000000 1.000000
vn -0.000000 0.000000 1.000000
vn -0.000000 0.000000 1.000000
vn 1.000000 0.000000 0.000000
vn 1.000000 0.000000 0.000000
vn 1.000000 0.000000 0.000000
vn 1.000000 0.000000 0.000000
vn 1.000000 0.000000 0.000000
vn 1.000000 -0.000000 0.000000
vn 1.000000 -0.000000 0.000000
vn 1.000000 0.000000 0.000000
vn 1.000000 -0.000000 0.000000
vn 1.000000 -0.000000 0.000000
vn 1.000000 -0.000000 0.000000
vn 1.000000 -0.000000 0.000000
vn 1.000000 -0.000000 0.000000
vn 1.000000 0.000000 0.000000
vn 1.000000 0.000000 0.000000
vn 1.000000 -0.000000 0.000000
vn 0.000000 0.000000 -1.000000
vn -0.000000 0.000000 -1.000000
vn -0.000000 0.000000 -1.000000
vn 0.000000 0.000000 -1.000000
vn -0.000000 0.000000 -1.000000
vn -0.000000 0.000000 -1.000000
vn -0.000000 0.000000 -1.000000
vn -0.000000 0.000000 -1.000000
vn -0.000000 0.000000 -1.000000
vn 0.000000 0.000000 -1.000000
vn 0.000000 0.000000 -1.000000
vn -0.000000 0.000000 -1.000000
vn 0.000000 0.000000 -1.000000
vn 0.000000 0.000000 -1.000000
vn 0.000000 0.000000 -1.000000
vn 0.000000 0.000000 -1.000000
vn -1.000000 -0.000000 0.000000
vn -1.000000 -0.000000 0.000000
vn -1.000000 -0.000000 0.000000
vn -1.000000 -0.000000 0.000000
vn -1.000000 -0.000000 0.000000
vn -1.000000 0.000000 0.000000
vn -1.000000 0.000000 0.000000
vn -1.000000 -0.000000 0.000000
vn -1.000000 0.000000 0.000000
vn -1.000000 0.000000 0.000000
vn -1.000000 0.000000 0.000000
vn -1.000000 0.000000 0.000000
vn -1.000000 0.000000 0.000000
vn -1.000000 -0.000000 0.000000
vn -1.000000 -0.000000 0.000000
vn -1.000000 0.000000 0.000000
vn 0.000000 0.746003 0.665942
vn 0.000000 0.746003 0.665942
vn 0.000000 0.746003 0.665942
vn 0.000000 0.746003 0.665942
vn -0.727839 0.000000 0.685749
vn -0.727839 0.000000 0.685749
vn -0.727839 0.000000 0.685749
vn -0.727839 0.000000 0.685749
vn 0.000000 -0.746000 0.665946
vn 0.000000 -0.746000 0.665946
vn 0.000000 -0.746000 0.665946
vn 0.000000 -0.746000 0.665946
vn 0.727912 0.000000 0.685671
vn 0.727912 0.000000 0.685671
vn 0.727912 0.000000 0.685671
vn 0.727912 0.000000 0.685671
vn 0.665928 0.746016 0.000000
vn 0.665928 0.746016 0.000000
vn 0.665928 0.746016 0.000000
vn 0.665928 0.746016 0.000000
vn 0.685659 0.000000 0.727923
vn 0.685659 0.000000 0.727923
vn 0.685659 0.000000 0.727923
vn 0.685659 0.000000 0.727923
vn 0.665930 -0.746014 0.000000
vn 0.665930 -0.746014 0.000000
vn 0.665930 -0.746014 0.000000
vn 0.665930 -0.746014 0.000000
vn 0.685672 0.000000 -0.727910
vn 0.685672 0.000000 -0.727910
vn 0.685672 0.000000 -0.727910
vn 0.685672 0.000000 -0.727910
vn 0.000000 0.746005 -0.665941
vn 0.000000 0.746005 -0.665941
vn 0.000000 0.746005 -0.665941
vn 0.000000 0.746005 -0.665941
vn 0.727911 0.000000 -0.685672
vn 0.727911 0.000000 -0.685672
vn 0.727911 0.000000 -0.685672
vn 0.727911 0.000000 -0.685672
vn 0.000000 -0.746000 -0.665946
vn 0.000000 -0.746000 -0.665946
vn 0.000000 -0.746000 -0.665946
vn 0.000000 -0.746000 -0.665946
vn -0.727838 0.000000 -0.685749
vn -0.727838 0.000000 -0.685749
vn -0.727838 0.000000 -0.685749
vn -0.727838 0.000000 -0.685749
vn -0.665928 0.746016 0.000000
vn -0.665928 0.746016 0.000000
vn -0.665928 0.746016 0.000000
vn -0.665928 0.746016 0.000000
vn -0.685672 0.000000 -0.727910
vn -0.685672 0.000000 -0.727910
vn -0.685672 0.000000 -0.727910
vn -0.685672 0.000000 -0.727910
vn -0.665930 -0.746014 0.000000
vn -0.665930 -0.746014 0.000000
vn -0.665930 -0.746014 0.000000
vn -0.665930 -0.746014 0.000000
vn -0.685659 0.000000 0.727923
vn -0.685659 0.000000 0.727923
vn -0.685659 0.000000 0.727923
vn -0.685659 0.000000 0.727923
vn 0.000000 -0.728324 0.685233
vn 0.000000 -0.728324 0.685233
vn 0.000000 -0.728324 0.685233
vn 0.000000 -0.728324 0.685233
vn 0.630851 0.000000 0.775904
vn 0.630851 0.000000 0.775904
vn 0.630851 0.000000 0.775904
vn 0.630851 0.000000 0.775904
vn 0.000000 0.728324 0.685233
vn 0.000000 0.728324 0.685233
vn 0.000000 0.728324 0.685233
vn 0.000000 0.728324 0.685233
vn -0.630809 0.000000 0.775938
vn -0.630809 0.000000 0.775938
vn -0.630809 0.000000 0.775938
vn -0.630809 0.000000 0.775938
vn 0.685217 -0.728339 0.000000
vn 0.685217 -0.728339 0.000000
vn 0.685217 -0.728339 0.000000
vn 0.685217 -0.728339 0.000000
vn 0.775890 0.000000 -0.630868
vn 0.775890 0.000000 -0.630868
vn 0.775891 0.000000 -0.630868
vn 0.775891 0.000000 -0.630868
vn 0.685218 0.728338 0.000000
vn 0.685218 0.728338 0.000000
vn 0.685218 0.728338 0.000000
vn 0.685218 0.728338 0.000000
vn 0.775890 0.000000 0.630868
vn 0.775890 0.000000 0.630868
vn 0.775890 0.000000 0.630868
vn 0.775890 0.000000 0.630868
vn 0.000000 -0.728339 -0.685216
vn 0.000000 -0.728339 -0.685216
vn 0.000000 -0.728340 -0.685216
vn 0.000000 -0.728339 -0.685216
vn -0.630826 0.000000 -0.775924
vn -0.630826 0.000000 -0.775924
vn -0.630826 0.000000 -0.775924
vn -0.630826 0.000000 -0.775924
vn 0.000000 0.728338 -0.685218
vn 0.000000 0.728338 -0.685218
vn 0.000000 0.728338 -0.685218
vn 0.000000 0.728338 -0.685218
vn 0.630868 0.000000 -0.775890
vn 0.630868 0.000000 -0.775890
vn 0.630868 0.000000 -0.775890
vn 0.630868 0.000000 -0.775890
vn -0.685266 -0.728293 0.000000
vn -0.685266 -0.728293 0.000000
vn -0.685266 -0.728293 0.000000
vn -0.685266 -0.728293 0.000000
vn -0.775932 0.000000 0.630817
vn -0.775932 0.000000 0.630817
vn -0.775932 0.000000 0.630817
vn -0.775932 0.000000 0.630817
vn -0.685267 0.728292 0.000000
vn -0.685267 0.728292 0.000000
vn -0.685267 0.728292 0.000000
vn -0.685267 0.728292 0.000000
vn -0.775932 0.000000 -0.630817
vn -0.775932 0.000000 -0.630817
vn -0.775932 0.000000 -0.630817
vn -0.775932 0.000000 -0.630817
s off
f 1/1/1 2/2/2 4/3/3 3/4/4
f 49/5/5 50/6/6 51/7/7 52/8/8
f 5/9/9 6/10/10 8/11/11 7/12/12
f 13/13/13 14/14/14 15/15/15 16/16/16
f 2/2/17 8/11/18 6/10/19 4/3/20
f 7/12/21 1/1/22 3/4/23 5/9/24
f 7/12/25 8/11/26 10/17/27 9/18/28
f 8/11/29 2/2/30 11/19/31 10/17/32
f 2/2/33 1/1/34 12/20/35 11/19/36
f 1/1/37 7/12/38 9/18/39 12/20/40
f 9/18/41 10/17/42 14/14/43 13/13/44
f 10/17/45 11/19/46 15/15/47 14/14/48
f 11/19/49 12/20/50 16/16/51 15/15/52
f 12/20/53 9/18/54 13/13/55 16/16/56
f 3/4/57 4/3/58 18/21/59 17/22/60
f 4/3/61 6/10/62 19/23/63 18/21/64
f 6/10/65 5/9/66 20/24/67 19/23/68
f 5/9/69 3/4/70 17/22/71 20/24/72
f 17/22/73 18/21/74 22/25/75 21/26/76
f 18/21/77 19/23/78 23/27/79 22/25/80
f 19/23/81 20/24/82 24/28/83 23/27/84
f 20/24/85 17/22/86 21/26/87 24/28/88
f 21/26/89 22/25/90 26/29/91 25/30/92
f 22/25/93 23/27/94 27/31/95 26/29/96
f 23/27/97 24/28/98 28/32/99 27/31/100
f 24/28/101 21/26/102 25/30/103 28/32/104
f 25/30/105 26/29/106 30/33/107 29/34/108
f 26/29/109 27/31/110 31/35/111 30/33/112
f 27/31/113 28/32/114 32/36/115 31/35/116
f 28/32/117 25/30/118 29/34/119 32/36/120
f 29/34/121 30/33/122 34/37/123 33/38/124
f 30/33/125 31/35/126 35/39/127 34/37/128
f 31/35/129 32/36/130 36/40/131 35/39/132
f 32/36/133 29/34/134 33/38/135 36/40/136
f 33/38/137 34/37/138 38/41/139 37/42/140
f 34/37/141 35/39/142 39/43/143 38/41/144
f 35/39/145 36/40/146 40/44/147 39/43/148
f 36/40/149 33/38/150 37/42/151 40/44/152
f 85/45/153 86/46/154 87/47/155 88/48/156
f 89/49/157 90/50/158 91/51/159 92/52/160
f 94/53/161 93/54/162 95/55/163 96/56/164
f 98/57/165 97/58/166 99/59/167 100/60/168
f 41/61/169 42/62/170 46/63/171 45/64/172
f 42/62/173 43/65/174 47/66/175 46/63/176
f 43/65/177 44/67/178 48/68/179 47/66/180
f 44/67/181 41/61/182 45/64/183 48/68/184
f 45/64/185 46/63/186 50/6/187 49/5/188
f 46/63/189 47/66/190 51/7/191 50/6/192
f 47/66/193 48/68/194 52/8/195 51/7/196
f 48/68/197 45/64/198 49/5/199 52/8/200
f 37/42/201 38/41/202 54/69/203 53/70/204
f 38/41/205 42/62/206 55/71/207 54/69/208
f 42/62/209 41/61/210 56/72/211 55/71/212
f 41/61/213 37/42/214 53/70/215 56/72/216
f 38/41/217 39/43/218 58/73/219 57/74/220
f 39/43/221 43/65/222 59/75/223 58/73/224
f 43/65/225 42/62/226 60/76/227 59/75/228
f 42/62/229 38/41/230 57/74/231 60/76/232
f 39/43/233 40/44/234 61/77/235 62/78/236
f 40/44/237 44/67/238 63/79/239 61/77/240
f 44/67/241 43/65/242 64/80/243 63/79/244
f 43/65/245 39/43/246 62/78/247 64/80/248
f 40/44/249 37/42/250 65/81/251 66/82/252
f 37/42/253 41/61/254 67/83/255 65/81/256
f 41/61/257 44/67/258 68/84/259 67/83/260
f 44/67/261 40/44/262 66/82/263 68/84/264
f 53/70/265 54/69/266 70/85/267 69/86/268
f 54/69/269 55/71/270 71/87/271 70/85/272
f 55/71/273 56/72/274 72/88/275 71/87/276
f 56/72/277 53/70/278 69/86/279 72/88/280
f 57/74/281 58/73/282 74/89/283 73/90/284
f 58/73/285 59/75/286 75/91/287 74/89/288
f 59/75/289 60/76/290 76/92/291 75/91/292
f 60/76/293 57/74/294 73/90/295 76/92/296
f 62/78/297 61/77/298 77/93/299 78/94/300
f 61/77/301 63/79/302 79/95/303 77/93/304
f 63/79/305 64/80/306 80/96/307 79/95/308
f 64/80/309 62/78/310 78/94/311 80/96/312
f 66/82/313 65/81/314 81/97/315 82/98/316
f 65/81/317 67/83/318 83/99/319 81/97/320
f 67/83/321 68/84/322 84/100/323 83/99/324
f 68/84/325 66/82/326 82/98/327 84/100/328
f 69/86/329 70/85/330 86/46/331 85/45/332
f 70/85/333 71/87/334 87/47/335 86/46/336
f 71/87/337 72/88/338 88/48/339 87/47/340
f 72/88/341 69/86/342 85/45/343 88/48/344
f 73/90/345 74/89/346 90/50/347 89/49/348
f 74/89/349 75/91/350 91/51/351 90/50/352
f 75/91/353 76/92/354 92/52/355 91/51/356
f 76/92/357 73/90/358 89/49/359 92/52/360
f 78/94/361 77/93/362 93/54/363 94/53/364
f 77/93/365 79/95/366 95/55/367 93/54/368
f 79/95/369 80/96/370 96/56/371 95/55/372
f 80/96/373 78/94/374 94/53/375 96/56/376
f 82/98/377 81/97/378 97/58/379 98/57/380
f 81/97/381 83/99/382 99/59/383 97/58/384
f 83/99/385 84/100/386 100/60/387 99/59/388
f 84/100/389 82/98/390 98/57/391 100/60/392
