# This file uses centimeters as units for non-parametric coordinates.

v 0.277882 -1.148712 -0.334908
v -0.000275 -1.701889 -0.437599
v -0.274384 -2.128615 -0.336578
v -0.438421 -1.701829 0.000542
v -0.337030 -1.244890 0.282394
v -0.000275 -1.701807 0.438698
v 0.365454 -2.324214 0.293770
v 0.437872 -1.701866 0.000542
v 0.381140 3.774499 -0.380875
v -0.000275 2.945085 -0.538864
v -0.381693 2.446019 -0.380875
v -0.539682 2.645425 0.000542
v -0.381693 2.254454 0.381973
v -0.000275 2.645425 0.539963
v 0.381140 3.283154 0.381973
v 0.539127 4.146669 0.000542
v 0.249714 3.774499 -0.249443
v -0.000275 2.945085 -0.352989
v -0.250267 2.446019 -0.249443
v -0.353815 2.645425 0.000542
v -0.250267 2.254454 0.250542
v -0.000275 2.645425 0.354088
v 0.249714 3.283154 0.250542
v 0.353262 4.146669 0.000542
v 0.151009 2.156413 -0.150734
v -0.000275 2.156413 -0.213409
v -0.000275 1.515769 0.000542
v -0.151564 2.156413 -0.150734
v -0.214228 2.156413 0.000542
v -0.151564 2.156413 0.151833
v -0.000275 2.156413 0.214508
v 0.151009 2.156413 0.151833
v 0.213678 2.156413 0.000542
v 0.381632 -3.845530 0.380867
v 0.000282 -4.145350 0.538704
v -0.381243 -3.646290 0.380959
v -0.539188 -3.845545 -0.000549
v -0.381285 -3.454354 -0.381783
v 0.000217 -3.845164 -0.539955
v 0.381775 -3.472489 -0.382294
v 0.539682 -3.499203 -0.000710
v 0.250206 -3.845495 0.249435
v 0.000282 -4.145259 0.352852
v -0.249817 -3.646198 0.249527
v -0.353319 -3.845504 -0.000549
v -0.249859 -3.454389 -0.250351
v 0.000217 -3.845255 -0.354103
v 0.250345 -3.472582 -0.250862
v 0.353819 -3.499243 -0.000710
v 0.151398 -3.356456 0.150978
v 0.000107 -3.356519 0.213638
v 0.000107 -2.738420 -0.000328
v -0.151176 -3.356522 0.150978
v -0.213840 -3.356462 -0.000328
v -0.151176 -3.356374 -0.151604
v 0.000107 -3.356311 -0.214264
v 0.151398 -3.356308 -0.151604
v 0.214062 -3.356368 -0.000328
v -0.000275 2.781974 0.447021
v -0.315979 2.391004 0.316254
v -0.446749 2.781974 0.000542
v -0.315979 2.582569 -0.315155
v -0.000275 3.081634 -0.445923
v 0.315426 3.911048 -0.315155
v 0.446196 4.283219 0.000542
v 0.315426 3.419703 0.316254
v 0.000282 -4.283219 0.445778
v 0.315918 -3.983427 0.315147
v 0.446751 -3.637138 -0.000710
v 0.316063 -3.610450 -0.316574
v 0.000217 -3.983124 -0.447029
v -0.315571 -3.592286 -0.316078
v -0.446251 -3.983439 -0.000549
v -0.315529 -3.784159 0.315247
v 0.296640 0.484583 -0.323776
v -0.001396 0.513552 -0.446815
v -0.314808 0.902698 -0.331673
v -0.469959 0.450283 -0.007011
v -0.331266 0.595695 0.310997
v -0.001396 0.985480 0.453064
v 0.338516 0.515225 0.313202
v 0.445393 -0.003911 0.000786
vt 0.005432 0.326708
vt 0.005432 0.326708
vt 0.005432 0.326708
vt 0.005432 0.326708
vt 0.005432 0.326708
vt 0.005432 0.326708
vt 0.005432 0.326708
vt 0.005432 0.326708
vt 0.005432 0.326708
vt 0.005432 0.326708
vt 0.005432 0.326708
vt 0.005432 0.326708
vt 0.005432 0.326708
vt 0.005432 0.326708
vt 0.005432 0.326708
vt 0.005432 0.326708
vt 0.005432 0.326708
vt 0.005432 0.326708
vt 0.005432 0.326708
vt 0.005432 0.326708
vt 0.005432 0.326708
vt 0.005432 0.326708
vt 0.005432 0.326708
vt 0.005432 0.326708
vt 0.005432 0.326708
vt 0.005432 0.326708
vt 0.006727 0.279449
vt 0.006727 0.279449
vt 0.006727 0.279449
vt 0.006727 0.279449
vt 0.006727 0.279449
vt 0.006727 0.279449
vt 0.006727 0.279449
vt 0.006727 0.279449
vt 0.006727 0.279449
vt 0.006727 0.279449
vt 0.006727 0.279449
vt 0.006727 0.279449
vt 0.006727 0.279449
vt 0.006727 0.279449
vt 0.006727 0.279449
vt 0.006727 0.279449
vt 0.006727 0.279449
vt 0.006727 0.279449
vt 0.006727 0.279449
vt 0.006727 0.279449
vt 0.006727 0.279449
vt 0.006727 0.279449
vt 0.006727 0.279449
vt 0.006727 0.279449
vt 0.006727 0.279449
vt 0.006727 0.279449
vt 0.006727 0.279449
vt 0.006727 0.279449
vt 0.006727 0.279449
vt 0.006727 0.279449
vt 0.006727 0.279449
vt 0.006727 0.279449
vt 0.006727 0.279449
vt 0.005432 0.326708
vt 0.006727 0.279449
vt 0.006727 0.279449
vt 0.006727 0.279449
vt 0.006727 0.279449
vt 0.005432 0.326708
vt 0.006727 0.279449
vt 0.006727 0.279449
vt 0.006727 0.279449
vt 0.006727 0.279449
vt 0.005432 0.326708
vt 0.006727 0.279449
vt 0.006727 0.279449
vt 0.006727 0.279449
vt 0.006727 0.279449
vt 0.005432 0.326708
vt 0.006727 0.279449
vt 0.006727 0.279449
vt 0.006727 0.279449
vt 0.006727 0.279449
vt 0.005432 0.326708
vt 0.006727 0.279449
vt 0.006727 0.279449
vt 0.006727 0.279449
vt 0.006727 0.279449
vt 0.005432 0.326708
vt 0.006727 0.279449
vt 0.005432 0.326708
vt 0.006727 0.279449
vt 0.005432 0.326708
vt 0.006727 0.279449
vt 0.005432 0.326708
vt 0.005432 0.326708
vt 0.005432 0.326708
vt 0.005432 0.326708
vt 0.005432 0.326708
vt 0.005432 0.326708
vt 0.005432 0.326708
vt 0.005432 0.326708
vt 0.005432 0.326708
vt 0.005432 0.326708
vt 0.005432 0.326708
vt 0.005432 0.326708
vt 0.005432 0.326708
vt 0.005432 0.326708
vt 0.005432 0.326708
vt 0.005432 0.326708
vt 0.005432 0.326708
vt 0.005432 0.326708
vt 0.006727 0.279449
vt 0.006727 0.279449
vt 0.006727 0.279449
vt 0.006727 0.279449
vt 0.006727 0.279449
vt 0.006727 0.279449
vt 0.006727 0.279449
vt 0.006727 0.279449
vt 0.006727 0.279449
vt 0.006727 0.279449
vt 0.006727 0.279449
vt 0.006727 0.279449
vt 0.006727 0.279449
vt 0.006727 0.279449
vt 0.006727 0.279449
vt 0.006727 0.279449
vt 0.006727 0.279449
vt 0.006727 0.279449
vt 0.006727 0.279449
vt 0.006727 0.279449
vt 0.006727 0.279449
vt 0.006727 0.279449
vt 0.006727 0.279449
vt 0.006727 0.279449
vt 0.005432 0.326708
vt 0.005432 0.326708
vt 0.005432 0.326708
vt 0.005432 0.326708
vt 0.005432 0.326708
vt 0.005432 0.326708
vt 0.005432 0.326708
vt 0.005432 0.326708
vt 0.005432 0.326708
vt 0.005432 0.326708
vt 0.005432 0.326708
vt 0.005432 0.326708
vt 0.005432 0.326708
vt 0.005432 0.326708
vt 0.005432 0.326708
vt 0.005432 0.326708
vt 0.006727 0.279449
vt 0.006727 0.279449
vt 0.006727 0.279449
vt 0.006727 0.279449
vt 0.006727 0.279449
vt 0.006727 0.279449
vt 0.006727 0.279449
vt 0.006727 0.279449
vt 0.006727 0.279449
vt 0.006727 0.279449
vt 0.006727 0.279449
vt 0.006727 0.279449
vt 0.006727 0.279449
vt 0.006727 0.279449
vt 0.006727 0.279449
vt 0.006727 0.279449
vt 0.006727 0.279449
vt 0.006727 0.279449
vt 0.006727 0.279449
vt 0.006727 0.279449
vt 0.006727 0.279449
vt 0.006727 0.279449
vt 0.006727 0.279449
vt 0.006727 0.279449
vt 0.006727 0.279449
vt 0.006727 0.279449
vt 0.006727 0.279449
vt 0.006727 0.279449
vt 0.006727 0.279449
vt 0.006727 0.279449
vt 0.006727 0.279449
vt 0.006727 0.279449
vt 0.005432 0.326708
vt 0.005432 0.326708
vt 0.005432 0.326708
vt 0.005432 0.326708
vt 0.005432 0.326708
vt 0.005432 0.326708
vt 0.005432 0.326708
vt 0.005432 0.326708
vt 0.005432 0.326708
vt 0.005432 0.326708
vt 0.005432 0.326708
vt 0.005432 0.326708
vt 0.005432 0.326708
vt 0.005432 0.326708
vt 0.005432 0.326708
vt 0.005432 0.326708
vt 0.005432 0.326708
vt 0.005432 0.326708
vt 0.005432 0.326708
vt 0.005432 0.326708
vt 0.005432 0.326708
vt 0.005432 0.326708
vt 0.005432 0.326708
vt 0.005432 0.326708
vt 0.005432 0.326708
vn 0.365726 -0.001213 -0.930722
vn 0.365726 -0.001213 -0.930722
vn 0.365726 -0.001213 -0.930722
vn 0.365726 -0.001213 -0.930722
vn -0.345096 -0.003504 -0.938561
vn -0.345096 -0.003504 -0.938561
vn -0.345096 -0.003504 -0.938561
vn -0.345096 -0.003504 -0.938561
vn -0.900441 -0.012723 -0.434792
vn -0.900441 -0.012723 -0.434792
vn -0.900441 -0.012723 -0.434792
vn -0.900441 -0.012723 -0.434792
vn -0.925586 -0.007970 0.378453
vn -0.925586 -0.007970 0.378453
vn -0.925586 -0.007970 0.378453
vn -0.925586 -0.007970 0.378453
vn -0.409206 -0.008239 0.912405
vn -0.409206 -0.008239 0.912405
vn -0.409206 -0.008239 0.912405
vn -0.409206 -0.008239 0.912405
vn 0.369179 -0.003809 0.929350
vn 0.369179 -0.003809 0.929350
vn 0.369179 -0.003809 0.929350
vn 0.369179 -0.003809 0.929350
vn 0.958728 0.002870 0.284310
vn 0.958728 0.002870 0.284310
vn 0.958728 0.002870 0.284310
vn 0.958728 0.002870 0.284310
vn 0.902331 -0.005646 -0.431007
vn 0.902331 -0.005646 -0.431007
vn 0.902331 -0.005646 -0.431007
vn 0.902331 -0.005646 -0.431007
vn -0.365734 0.294819 0.882791
vn -0.365734 0.294819 0.882791
vn -0.365734 0.294819 0.882791
vn 0.365722 0.294821 0.882796
vn 0.365722 0.294821 0.882796
vn 0.365722 0.294821 0.882796
vn 0.882806 0.294827 0.365692
vn 0.882806 0.294827 0.365692
vn 0.882806 0.294827 0.365692
vn 0.882818 0.294831 -0.365659
vn 0.882818 0.294831 -0.365659
vn 0.882818 0.294831 -0.365659
vn 0.365719 0.294840 -0.882790
vn 0.365719 0.294840 -0.882790
vn 0.365719 0.294840 -0.882791
vn -0.365731 0.294838 -0.882786
vn -0.365731 0.294838 -0.882786
vn -0.365731 0.294838 -0.882786
vn -0.882807 0.294827 -0.365689
vn -0.882807 0.294827 -0.365689
vn -0.882807 0.294827 -0.365689
vn -0.882796 0.294823 0.365720
vn -0.882795 0.294823 0.365720
vn -0.882795 0.294823 0.365720
vn -0.491940 0.345820 -0.799002
vn -0.491940 0.345820 -0.799002
vn -0.491940 0.345820 -0.799002
vn -0.491940 0.345820 -0.799002
vn -0.796791 0.435240 -0.419154
vn -0.796791 0.435240 -0.419154
vn -0.796791 0.435240 -0.419154
vn -0.796791 0.435240 -0.419154
vn -0.649236 0.512412 -0.562073
vn -0.649236 0.512412 -0.562073
vn -0.649236 0.512412 -0.562073
vn -0.649236 0.512412 -0.562073
vn -0.499997 0.466102 0.729898
vn -0.499997 0.466102 0.729898
vn -0.499997 0.466102 0.729898
vn -0.499997 0.466102 0.729898
vn -0.729911 0.466103 0.499978
vn -0.729911 0.466103 0.499978
vn -0.729911 0.466103 0.499978
vn -0.729911 0.466103 0.499978
vn -0.377167 0.395717 0.837349
vn -0.377167 0.395717 0.837349
vn -0.377167 0.395717 0.837349
vn -0.377167 0.395717 0.837349
vn 0.200405 0.337729 0.919662
vn 0.200405 0.337729 0.919662
vn 0.200405 0.337729 0.919662
vn 0.200405 0.337729 0.919662
vn 0.514536 0.471283 -0.716342
vn 0.514536 0.471283 -0.716342
vn 0.514536 0.471283 -0.716342
vn 0.514536 0.471283 -0.716342
vn -0.557097 0.104416 0.823857
vn -0.557097 0.104416 0.823857
vn -0.557097 0.104416 0.823857
vn -0.557097 0.104416 0.823857
vn 0.120995 0.224746 0.966876
vn 0.120995 0.224746 0.966876
vn 0.120995 0.224746 0.966876
vn 0.120995 0.224746 0.966876
vn 0.922693 0.311230 0.227538
vn 0.922693 0.311230 0.227538
vn 0.922693 0.311230 0.227538
vn 0.922693 0.311230 0.227538
vn 0.925599 0.378213 -0.014890
vn 0.925599 0.378213 -0.014890
vn 0.925599 0.378213 -0.014890
vn 0.925599 0.378213 -0.014890
vn 0.014912 0.378214 -0.925598
vn 0.014912 0.378214 -0.925598
vn 0.014912 0.378214 -0.925598
vn 0.014912 0.378214 -0.925598
vn -0.576508 0.153574 -0.802529
vn -0.576508 0.153574 -0.802529
vn -0.576508 0.153574 -0.802529
vn -0.576508 0.153574 -0.802529
vn -0.970517 0.081379 -0.226880
vn -0.970517 0.081379 -0.226880
vn -0.970517 0.081379 -0.226880
vn -0.970517 0.081379 -0.226880
vn -0.943143 0.071165 0.324681
vn -0.943143 0.071165 0.324681
vn -0.943143 0.071165 0.324680
vn -0.943143 0.071165 0.324680
vn 0.391849 0.045018 0.918928
vn 0.391849 0.045018 0.918928
vn 0.391849 0.045018 0.918928
vn 0.391849 0.045018 0.918928
vn -0.353393 0.041487 0.934555
vn -0.353393 0.041487 0.934555
vn -0.353393 0.041487 0.934555
vn -0.353393 0.041487 0.934555
vn -0.942639 0.037182 0.331738
vn -0.942639 0.037182 0.331738
vn -0.942639 0.037182 0.331738
vn -0.942639 0.037182 0.331738
vn -0.909794 0.059937 -0.410709
vn -0.909794 0.059937 -0.410709
vn -0.909794 0.059937 -0.410709
vn -0.909794 0.059937 -0.410709
vn -0.369588 0.050803 -0.927806
vn -0.369588 0.050803 -0.927806
vn -0.369588 0.050803 -0.927806
vn -0.369588 0.050803 -0.927806
vn 0.318737 0.039194 -0.947033
vn 0.318737 0.039194 -0.947033
vn 0.318737 0.039194 -0.947033
vn 0.318737 0.039194 -0.947033
vn 0.927548 0.050668 -0.370254
vn 0.927548 0.050668 -0.370254
vn 0.927548 0.050668 -0.370254
vn 0.927548 0.050668 -0.370254
vn 0.925152 0.042649 0.377193
vn 0.925152 0.042649 0.377193
vn 0.925152 0.042649 0.377193
vn 0.925152 0.042649 0.377193
vn -0.364352 -0.304637 -0.880025
vn -0.364352 -0.304637 -0.880025
vn -0.364352 -0.304637 -0.880025
vn 0.364483 -0.304620 -0.879977
vn 0.364483 -0.304620 -0.879977
vn 0.364483 -0.304620 -0.879977
vn 0.879950 -0.304612 -0.364555
vn 0.879950 -0.304612 -0.364555
vn 0.879950 -0.304612 -0.364555
vn 0.880021 -0.304637 0.364361
vn 0.880021 -0.304637 0.364361
vn 0.880021 -0.304637 0.364361
vn 0.364583 -0.304660 0.879921
vn 0.364583 -0.304660 0.879921
vn 0.364583 -0.304660 0.879921
vn -0.364453 -0.304677 0.879969
vn -0.364453 -0.304677 0.879969
vn -0.364453 -0.304677 0.879969
vn -0.879988 -0.304682 0.364404
vn -0.879988 -0.304682 0.364404
vn -0.879988 -0.304682 0.364404
vn -0.879917 -0.304657 -0.364596
vn -0.879917 -0.304657 -0.364596
vn -0.879917 -0.304657 -0.364596
vn 0.657222 -0.487361 0.574925
vn 0.657222 -0.487361 0.574925
vn 0.657222 -0.487361 0.574925
vn 0.657222 -0.487361 0.574925
vn -0.795413 -0.433337 0.423718
vn -0.795413 -0.433337 0.423718
vn -0.795413 -0.433337 0.423718
vn -0.795413 -0.433337 0.423718
vn -0.652579 -0.509160 0.561156
vn -0.652579 -0.509160 0.561156
vn -0.652579 -0.509160 0.561156
vn -0.652579 -0.509160 0.561156
vn -0.503783 -0.463423 -0.729000
vn -0.503783 -0.463423 -0.729000
vn -0.503783 -0.463423 -0.729000
vn -0.503783 -0.463423 -0.729000
vn -0.728637 -0.463483 -0.504253
vn -0.728637 -0.463483 -0.504253
vn -0.728637 -0.463483 -0.504253
vn -0.728637 -0.463483 -0.504253
vn 0.715087 -0.468565 -0.518746
vn 0.715087 -0.468565 -0.518746
vn 0.715087 -0.468565 -0.518746
vn 0.715087 -0.468565 -0.518746
vn 0.769646 -0.528048 -0.358900
vn 0.769646 -0.528048 -0.358900
vn 0.769646 -0.528048 -0.358900
vn 0.769646 -0.528048 -0.358900
vn 0.872692 -0.475538 -0.110777
vn 0.872692 -0.475538 -0.110777
vn 0.872692 -0.475538 -0.110777
vn 0.872692 -0.475538 -0.110777
vn -0.246672 -0.195652 -0.949143
vn -0.246672 -0.195652 -0.949143
vn -0.246672 -0.195652 -0.949143
vn -0.246672 -0.195652 -0.949143
vn 0.121061 -0.224248 -0.966983
vn 0.121061 -0.224248 -0.966983
vn 0.121061 -0.224248 -0.966983
vn 0.121061 -0.224248 -0.966983
vn 0.922766 -0.310914 -0.227674
vn 0.922766 -0.310914 -0.227674
vn 0.922766 -0.310914 -0.227674
vn 0.922766 -0.310914 -0.227674
vn 0.925682 -0.378016 0.014705
vn 0.925682 -0.378016 0.014705
vn 0.925682 -0.378016 0.014705
vn 0.925683 -0.378016 0.014705
vn 0.014980 -0.378674 0.925409
vn 0.014980 -0.378674 0.925409
vn 0.014980 -0.378674 0.925409
vn 0.014980 -0.378674 0.925409
vn -0.037443 -0.372464 0.927291
vn -0.037443 -0.372464 0.927291
vn -0.037443 -0.372464 0.927291
vn -0.037443 -0.372464 0.927291
vn -0.670015 -0.705715 0.230319
vn -0.670015 -0.705715 0.230319
vn -0.670015 -0.705715 0.230319
vn -0.670015 -0.705715 0.230319
vn -0.708881 -0.361611 -0.605579
vn -0.708881 -0.361611 -0.605579
vn -0.708881 -0.361611 -0.605579
vn -0.708881 -0.361611 -0.605579
vn -0.251464 0.440215 -0.861961
vn -0.251464 0.440214 -0.861961
vn -0.251464 0.440214 -0.861961
vn -0.251464 0.440214 -0.861961
vn 0.861962 0.440218 0.251456
vn 0.861962 0.440218 0.251456
vn 0.861962 0.440218 0.251456
vn 0.861962 0.440218 0.251456
vn 0.864323 0.502925 0.003454
vn 0.864323 0.502925 0.003454
vn 0.864323 0.502925 0.003454
vn 0.864323 0.502925 0.003454
vn -0.360804 0.402041 0.841536
vn -0.360804 0.402041 0.841536
vn -0.360804 0.402041 0.841536
vn -0.360804 0.402041 0.841536
vn -0.943811 0.303321 0.131216
vn -0.943811 0.303321 0.131216
vn -0.943811 0.303321 0.131216
vn -0.943811 0.303321 0.131216
vn -0.864535 0.446893 -0.229925
vn -0.864535 0.446893 -0.229925
vn -0.864535 0.446893 -0.229925
vn -0.864535 0.446893 -0.229925
vn -0.752072 0.295083 0.589334
vn -0.752072 0.295083 0.589334
vn -0.752072 0.295083 0.589334
vn -0.752072 0.295083 0.589334
vn -0.903044 0.356494 -0.239634
vn -0.903044 0.356494 -0.239634
vn -0.903044 0.356494 -0.239634
vn -0.903044 0.356494 -0.239634
vn 0.136347 -0.469209 -0.872498
vn 0.136347 -0.469209 -0.872498
vn 0.136347 -0.469209 -0.872498
vn 0.136347 -0.469209 -0.872498
vn -0.477038 -0.453698 -0.752724
vn -0.477038 -0.453698 -0.752724
vn -0.477038 -0.453698 -0.752724
vn -0.477038 -0.453698 -0.752724
vn -0.801153 -0.528031 0.281669
vn -0.801153 -0.528031 0.281669
vn -0.801153 -0.528031 0.281669
vn -0.801153 -0.528031 0.281669
vn 0.227369 -0.444341 0.866524
vn 0.227369 -0.444341 0.866524
vn 0.227369 -0.444341 0.866524
vn 0.227369 -0.444341 0.866524
vn -0.247063 -0.438317 0.864198
vn -0.247063 -0.438317 0.864198
vn -0.247063 -0.438317 0.864198
vn -0.247063 -0.438317 0.864198
vn 0.864131 -0.437897 -0.248041
vn 0.864131 -0.437897 -0.248041
vn 0.864131 -0.437897 -0.248041
vn 0.864131 -0.437897 -0.248041
vn 0.866203 -0.499649 -0.006595
vn 0.866203 -0.499649 -0.006595
vn 0.866203 -0.499649 -0.006595
vn 0.866203 -0.499649 -0.006595
vn -0.357109 -0.400213 -0.843980
vn -0.357109 -0.400213 -0.843980
vn -0.357109 -0.400213 -0.843980
vn -0.357109 -0.400213 -0.843980
vn 0.411919 -0.029905 -0.910730
vn 0.411919 -0.029905 -0.910730
vn 0.411919 -0.029905 -0.910730
vn 0.411919 -0.029905 -0.910730
vn -0.360201 -0.039081 -0.932056
vn -0.360201 -0.039081 -0.932056
vn -0.360201 -0.039081 -0.932056
vn -0.360201 -0.039081 -0.932056
vn -0.908385 -0.037833 -0.416420
vn -0.908385 -0.037833 -0.416420
vn -0.908385 -0.037833 -0.416420
vn -0.908385 -0.037833 -0.416420
vn -0.924539 -0.036553 0.379330
vn -0.924539 -0.036553 0.379330
vn -0.924539 -0.036553 0.379330
vn -0.924539 -0.036553 0.379330
vn -0.341374 -0.049723 0.938612
vn -0.341374 -0.049723 0.938612
vn -0.341374 -0.049723 0.938612
vn -0.341374 -0.049723 0.938612
vn 0.388584 -0.036208 0.920702
vn 0.388584 -0.036208 0.920702
vn 0.388584 -0.036208 0.920702
vn 0.388584 -0.036208 0.920702
vn 0.937597 -0.021917 0.347033
vn 0.937597 -0.021917 0.347033
vn 0.937597 -0.021917 0.347033
vn 0.937597 -0.021917 0.347033
vn 0.915368 -0.025024 -0.401840
vn 0.915368 -0.025024 -0.401840
vn 0.915368 -0.025024 -0.401840
vn 0.915368 -0.025024 -0.401840
s off
f 1/1/1 2/2/2 76/199/3 75/198/4
f 2/2/5 3/3/6 77/200/7 76/199/8
f 3/3/9 4/4/10 78/201/11 77/200/12
f 4/4/13 5/5/14 79/202/15 78/201/16
f 5/5/17 6/6/18 80/203/19 79/202/20
f 6/6/21 7/7/22 81/204/23 80/203/24
f 7/7/25 8/8/26 82/205/27 81/204/28
f 8/8/29 1/9/30 75/197/31 82/205/32
f 25/47/33 26/83/34 27/55/35
f 26/84/36 28/78/37 27/54/38
f 28/79/39 29/73/40 27/53/41
f 29/74/42 30/68/43 27/52/44
f 30/69/45 31/63/46 27/51/47
f 31/64/48 32/58/49 27/50/50
f 32/59/51 33/45/52 27/27/53
f 33/46/54 25/36/55 27/56/56
f 9/25/57 10/24/58 63/185/59 64/186/60
f 10/24/61 11/23/62 62/184/63 63/185/64
f 11/23/65 12/22/66 61/183/67 62/184/68
f 12/22/69 13/21/70 60/182/71 61/183/72
f 13/21/73 14/20/74 59/181/75 60/182/76
f 14/20/77 15/19/78 66/188/79 59/181/80
f 15/19/81 16/26/82 65/187/83 66/188/84
f 16/26/85 9/25/86 64/186/87 65/187/88
f 17/28/89 18/88/90 26/82/91 25/48/92
f 18/29/93 19/86/94 28/77/95 26/37/96
f 19/30/97 20/81/98 29/72/99 28/38/100
f 20/31/101 21/76/102 30/67/103 29/39/104
f 21/32/105 22/71/106 31/62/107 30/40/108
f 22/33/109 23/66/110 32/57/111 31/41/112
f 23/34/113 24/61/114 33/44/115 32/42/116
f 24/35/117 17/90/118 25/49/119 33/43/120
f 7/91/121 6/92/122 35/93/123 34/94/124
f 6/92/125 5/95/126 36/96/127 35/93/128
f 5/95/129 4/97/130 37/98/131 36/96/132
f 4/97/133 3/99/134 38/100/135 37/98/136
f 3/99/137 2/101/138 39/102/139 38/100/140
f 2/101/141 1/103/142 40/104/143 39/102/144
f 1/103/145 8/105/146 41/106/147 40/104/148
f 8/105/149 7/107/150 34/108/151 41/106/152
f 50/109/153 51/110/154 52/111/155
f 51/112/156 53/113/157 52/114/158
f 53/115/159 54/116/160 52/117/161
f 54/118/162 55/119/163 52/120/164
f 55/121/165 56/122/166 52/123/167
f 56/124/168 57/125/169 52/126/170
f 57/127/171 58/128/172 52/129/173
f 58/130/174 50/131/175 52/132/176
f 34/133/177 35/134/178 67/189/179 68/190/180
f 35/134/181 36/137/182 74/196/183 67/189/184
f 36/137/185 37/139/186 73/195/187 74/196/188
f 37/139/189 38/141/190 72/194/191 73/195/192
f 38/141/193 39/143/194 71/193/195 72/194/196
f 39/143/197 40/145/198 70/192/199 71/193/200
f 40/145/201 41/147/202 69/191/203 70/192/204
f 41/147/205 34/133/206 68/190/207 69/191/208
f 42/149/209 43/150/210 51/151/211 50/152/212
f 43/153/213 44/154/214 53/155/215 51/156/216
f 44/157/217 45/158/218 54/159/219 53/160/220
f 45/161/221 46/162/222 55/163/223 54/164/224
f 46/165/225 47/166/226 56/167/227 55/168/228
f 47/169/229 48/170/230 57/171/231 56/172/232
f 48/173/233 49/174/234 58/175/235 57/176/236
f 49/177/237 42/178/238 50/179/239 58/180/240
f 60/182/241 59/181/242 22/70/243 21/75/244
f 61/183/245 60/182/246 21/75/247 20/80/248
f 62/184/249 61/183/250 20/80/251 19/85/252
f 63/185/253 62/184/254 19/85/255 18/87/256
f 64/186/257 63/185/258 18/87/259 17/89/260
f 65/187/261 64/186/262 17/89/263 24/60/264
f 66/188/265 65/187/266 24/60/267 23/65/268
f 59/181/269 66/188/270 23/65/271 22/70/272
f 68/190/273 67/189/274 43/135/275 42/136/276
f 69/191/277 68/190/278 42/136/279 49/148/280
f 70/192/281 69/191/282 49/148/283 48/146/284
f 71/193/285 70/192/286 48/146/287 47/144/288
f 72/194/289 71/193/290 47/144/291 46/142/292
f 73/195/293 72/194/294 46/142/295 45/140/296
f 74/196/297 73/195/298 45/140/299 44/138/300
f 67/189/301 74/196/302 44/138/303 43/135/304
f 75/198/305 76/199/306 10/11/307 9/10/308
f 76/199/309 77/200/310 11/12/311 10/11/312
f 77/200/313 78/201/314 12/13/315 11/12/316
f 78/201/317 79/202/318 13/14/319 12/13/320
f 79/202/321 80/203/322 14/15/323 13/14/324
f 80/203/325 81/204/326 15/16/327 14/15/328
f 81/204/329 82/205/330 16/17/331 15/16/332
f 82/205/333 75/197/334 9/18/335 16/17/336
