# This file uses centimeters as units for non-parametric coordinates.

v 0.185364 0.000000 0.000000
v 0.203056 0.999778 -0.000004
v -0.203056 0.999778 -0.000004
v -0.185364 0.000000 -0.000000
v 0.185364 0.167585 -0.000004
v -0.185364 0.167585 -0.000004
v 0.137985 0.201958 -0.000004
v -0.137985 0.201958 -0.000004
v 0.203056 0.906456 0.000000
v -0.203056 0.906456 -0.000000
v 0.162689 0.870776 0.000000
v -0.162682 0.870776 -0.000000
v 0.162689 0.776330 0.000000
v -0.162682 0.776330 -0.000000
v 0.137985 0.753788 0.000000
v -0.137985 0.753787 -0.000000
v 0.137985 0.519523 -0.368439
v 0.137985 0.820392 -0.368439
v -0.137985 0.854174 -0.368439
v -0.137985 0.485741 -0.368439
v 0.109665 0.600724 -0.448002
v 0.109665 0.802477 -0.448002
v -0.109665 0.829909 -0.448006
v -0.109665 0.588806 -0.448002
v -0.109665 0.935193 -0.691735
v -0.109665 0.796801 -0.844395
v -0.137985 0.756891 -0.844288
v -0.137985 0.676465 -0.910632
v -0.185364 0.626696 -0.935187
v -0.185364 0.495314 -1.000014
v 0.185364 0.495314 -1.000014
v 0.185364 0.595203 -0.950728
v 0.137985 0.676465 -0.910632
v 0.109665 0.796801 -0.844395
v 0.109665 0.923289 -0.691711
v 0.112839 1.010115 -0.625149
v 0.162689 1.187869 -0.645724
v 0.203056 1.247372 -0.616362
v -0.203064 1.303581 -0.588629
v -0.203064 1.229813 -0.594535
v -0.162682 1.187868 -0.645724
v -0.162682 1.103153 -0.687526
v -0.137985 1.082933 -0.697501
v 0.203056 1.060602 -0.131598
v 0.083450 1.303581 -0.588629
v -0.137985 0.991503 -0.617031
v -0.137985 0.921393 -0.555229
v 0.137985 0.678023 -0.684448
v 0.137985 0.695088 -0.788811
v 0.137985 0.938279 -0.619050
v 0.137985 1.002899 -0.598712
v 0.162689 1.058567 -0.570803
vt 0.212582 0.301431
vt 0.212582 0.301431
vt 0.212582 0.301431
vt 0.212582 0.301431
vt 0.212582 0.301431
vt 0.212582 0.301431
vt 0.212582 0.301431
vt 0.212582 0.301431
vt 0.212582 0.301431
vt 0.212582 0.301431
vt 0.212582 0.301431
vt 0.212582 0.301431
vt 0.212582 0.301431
vt 0.212582 0.301431
vt 0.212582 0.301431
vt 0.212582 0.301431
vt 0.212582 0.301431
vt 0.212582 0.301431
vt 0.212582 0.301431
vt 0.212582 0.301431
vt 0.212582 0.301431
vt 0.212582 0.301431
vt 0.212582 0.301431
vt 0.212582 0.301431
vt 0.212582 0.301431
vt 0.212582 0.301431
vt 0.212582 0.301431
vt 0.212582 0.301431
vt 0.212582 0.301431
vt 0.212582 0.301431
vt 0.212582 0.301431
vt 0.212582 0.301431
vt 0.212582 0.301431
vt 0.212582 0.301431
vt 0.212582 0.301431
vt 0.212582 0.301431
vt 0.212582 0.301431
vt 0.212582 0.301431
vt 0.212582 0.301431
vt 0.212582 0.301431
vt 0.212582 0.301431
vt 0.212582 0.301431
vt 0.212582 0.301431
vt 0.212582 0.301431
vt 0.212582 0.301431
vt 0.212582 0.301431
vt 0.212582 0.301431
vt 0.212582 0.301431
vt 0.212582 0.301431
vt 0.212582 0.301431
vt 0.212582 0.301431
vt 0.212582 0.301431
vt 0.212582 0.301431
vt 0.212582 0.301431
vt 0.212582 0.301431
vt 0.212582 0.301431
vt 0.212582 0.301431
vt 0.212582 0.301431
vt 0.212582 0.301431
vt 0.212582 0.301431
vt 0.212582 0.301431
vt 0.212582 0.301431
vn 0.788655 0.553279 0.268153
vn 0.788655 0.553279 0.268153
vn 0.788655 0.553279 0.268153
vn 0.788655 0.553279 0.268153
vn 0.008772 0.889315 0.457212
vn 0.008772 0.889315 0.457212
vn 0.008772 0.889315 0.457212
vn 0.008772 0.889315 0.457212
vn 0.008772 0.889315 0.457212
vn -0.672777 0.660198 0.333931
vn -0.672777 0.660198 0.333931
vn -0.672777 0.660198 0.333931
vn -0.672777 0.660198 0.333931
vn 0.000000 -0.896103 -0.443846
vn 0.000000 -0.896103 -0.443846
vn 0.000000 -0.896103 -0.443846
vn 0.000000 -0.896103 -0.443846
vn 0.000000 0.000000 1.000000
vn 0.000000 0.000000 1.000000
vn 0.000000 0.000000 1.000000
vn 0.000000 0.000000 1.000000
vn 1.000000 0.000000 0.000000
vn 1.000000 0.000000 0.000000
vn 1.000000 0.000000 0.000000
vn 1.000000 0.000000 0.000000
vn -1.000000 0.000000 0.000000
vn -1.000000 0.000000 0.000000
vn -1.000000 0.000000 0.000000
vn -1.000000 0.000000 0.000000
vn 0.000000 0.000023 1.000000
vn 0.000000 0.000023 1.000000
vn 0.000000 0.000023 1.000000
vn 0.000000 0.000023 1.000000
vn 0.771742 -0.563897 -0.293997
vn 0.771742 -0.563897 -0.293997
vn 0.771742 -0.563897 -0.293997
vn 0.771742 -0.563897 -0.293997
vn -0.000000 0.000000 1.000000
vn -0.000000 0.000000 1.000000
vn -0.000000 0.000000 1.000000
vn -0.000000 0.000000 1.000000
vn -0.753158 -0.584511 -0.301828
vn -0.753158 -0.584511 -0.301828
vn -0.753158 -0.584511 -0.301828
vn -0.753158 -0.584511 -0.301828
vn 1.000000 0.000000 0.000000
vn 1.000000 0.000000 0.000000
vn 1.000000 0.000000 0.000000
vn 1.000000 0.000000 0.000000
vn 0.000000 0.000041 1.000000
vn 0.000000 0.000041 1.000000
vn 0.000000 0.000041 1.000000
vn 0.000000 0.000041 1.000000
vn -1.000000 -0.000000 0.000013
vn -1.000000 -0.000000 0.000013
vn -1.000000 -0.000000 0.000013
vn -1.000000 -0.000000 0.000013
vn 1.000000 0.000000 0.000000
vn 1.000000 0.000000 0.000000
vn 1.000000 0.000000 0.000000
vn 1.000000 0.000000 0.000000
vn -1.000000 0.000000 0.000000
vn -1.000000 0.000000 0.000000
vn -1.000000 0.000000 0.000000
vn -1.000000 0.000000 0.000000
vn -0.000000 0.000000 1.000000
vn -0.000000 0.000000 1.000000
vn -0.000000 0.000000 1.000000
vn -0.000000 0.000000 1.000000
vn 0.858600 -0.466734 -0.212052
vn 0.858600 -0.466733 -0.212052
vn 0.858600 -0.466733 -0.212052
vn 0.858600 -0.466733 -0.212052
vn -0.655892 -0.682209 -0.323104
vn -0.655892 -0.682210 -0.323104
vn -0.655892 -0.682209 -0.323104
vn -0.655892 -0.682209 -0.323104
vn -0.000000 0.000000 1.000000
vn -0.000000 0.000000 1.000000
vn -0.000000 0.000000 1.000000
vn -0.000000 0.000000 1.000000
vn 1.000000 0.000000 0.000000
vn 1.000000 0.000000 0.000000
vn 1.000000 0.000000 0.000000
vn 1.000000 0.000000 0.000000
vn -1.000000 0.000000 0.000000
vn -1.000000 0.000000 0.000000
vn -1.000000 0.000000 0.000000
vn -1.000000 0.000000 0.000000
vn 0.000000 -0.000007 1.000000
vn 0.000000 -0.000007 1.000000
vn 0.000000 -0.000007 1.000000
vn 0.000000 -0.000007 1.000000
vn 0.955207 0.292059 0.047758
vn 0.955207 0.292059 0.047758
vn 0.955207 0.292059 0.047758
vn 1.000000 -0.000000 0.000000
vn 1.000000 -0.000000 0.000000
vn 1.000000 -0.000000 0.000000
vn 1.000000 -0.000000 0.000000
vn 1.000000 0.000000 0.000000
vn 1.000000 0.000000 0.000000
vn 1.000000 0.000000 0.000000
vn 1.000000 0.000000 0.000000
vn -1.000000 0.000000 0.000000
vn -1.000000 0.000000 0.000000
vn -1.000000 0.000000 0.000000
vn -1.000000 0.000000 0.000000
vn -1.000000 0.000000 0.000000
vn -1.000000 -0.000000 0.000000
vn -1.000000 -0.000000 0.000000
vn -1.000000 -0.000000 0.000000
vn -1.000000 -0.000000 0.000000
vn -1.000000 0.000000 0.000000
vn -1.000000 0.000000 0.000000
vn -1.000000 0.000000 0.000000
vn -1.000000 0.000000 0.000000
vn 0.860860 -0.458217 -0.221265
vn 0.860860 -0.458217 -0.221265
vn 0.860860 -0.458217 -0.221265
vn 0.860860 -0.458217 -0.221265
vn 0.942098 0.000000 -0.335337
vn 0.942098 0.000000 -0.335337
vn 0.942098 0.000000 -0.335337
vn 0.942098 0.000000 -0.335337
vn -0.846556 -0.494111 -0.197983
vn -0.846556 -0.494111 -0.197983
vn -0.846556 -0.494111 -0.197983
vn -0.846556 -0.494111 -0.197983
vn -0.837915 0.478376 0.262784
vn -0.837915 0.478376 0.262784
vn -0.837915 0.478376 0.262784
vn -0.837915 0.478376 0.262784
vn -0.942100 -0.000002 -0.335331
vn -0.942100 -0.000002 -0.335331
vn -0.942100 -0.000002 -0.335331
vn -0.942100 -0.000002 -0.335331
vn 0.462667 0.827256 0.318727
vn 0.462667 0.827256 0.318727
vn 0.462667 0.827256 0.318727
vn -0.956868 -0.192112 -0.217938
vn -0.956868 -0.192112 -0.217938
vn -0.956868 -0.192112 -0.217938
vn 0.787236 0.552053 0.274767
vn 0.787236 0.552053 0.274767
vn 0.787236 0.552053 0.274767
vn 0.787236 0.552053 0.274767
vn 1.000000 -0.000000 0.000000
vn 1.000000 -0.000000 0.000000
vn 1.000000 -0.000000 0.000000
vn 1.000000 -0.000000 0.000000
vn 1.000000 -0.000000 0.000000
vn 0.842574 0.254653 -0.474575
vn 0.842574 0.254653 -0.474575
vn 0.842574 0.254653 -0.474575
vn 0.842574 0.254654 -0.474575
vn 0.813022 -0.243054 -0.529074
vn 0.813022 -0.243054 -0.529075
vn 0.813022 -0.243054 -0.529074
vn 0.813022 -0.243054 -0.529074
vn 0.020530 0.755225 -0.655144
vn 0.020530 0.755225 -0.655144
vn 0.020530 0.755225 -0.655144
vn 0.020530 0.755225 -0.655144
vn -0.022274 0.700284 -0.713517
vn -0.022274 0.700284 -0.713517
vn -0.022274 0.700284 -0.713517
vn -0.022274 0.700284 -0.713517
vn 0.058474 -0.365327 -0.929041
vn 0.058474 -0.365327 -0.929041
vn 0.058474 -0.365327 -0.929041
vn 0.058474 -0.365327 -0.929041
vn -0.000002 0.442484 -0.896776
vn -0.000002 0.442484 -0.896776
vn -0.000002 0.442484 -0.896776
vn -0.000002 0.442484 -0.896776
vn -0.000004 0.442476 -0.896780
vn -0.000004 0.442476 -0.896780
vn -0.000004 0.442476 -0.896780
vn -0.000004 0.442476 -0.896780
vn 0.144374 0.875620 -0.460918
vn 0.144374 0.875620 -0.460918
vn 0.144374 0.875620 -0.460918
vn 0.144374 0.875620 -0.460918
vn 0.195292 -0.077161 -0.977705
vn 0.195292 -0.077161 -0.977705
vn 0.195292 -0.077161 -0.977705
vn 0.195292 -0.077161 -0.977705
vn 0.024721 -0.660481 -0.750436
vn 0.024721 -0.660481 -0.750436
vn 0.024721 -0.660481 -0.750436
vn -0.067737 0.478065 -0.875709
vn -0.067737 0.478065 -0.875709
vn -0.067737 0.478065 -0.875709
vn -0.000000 0.591806 -0.806080
vn -0.000000 0.591806 -0.806080
vn -0.000000 0.591806 -0.806080
vn -0.000000 0.591806 -0.806080
vn -0.036279 0.218963 -0.975058
vn -0.036279 0.218963 -0.975059
vn -0.036279 0.218963 -0.975058
vn -0.036279 0.218963 -0.975058
s off
f 5/1/1 32/2/2 33/3/3 7/4/4
f 2/5/5 44/6/6 45/7/7 39/8/8 3/9/9
f 8/10/10 28/11/11 29/12/12 6/13/13
f 4/14/14 30/15/15 31/16/16 1/17/17
f 6/18/18 5/1/19 7/4/20 8/19/21
f 1/20/22 31/21/23 32/2/24 5/1/25
f 6/13/26 29/12/27 30/15/28 4/14/29
f 4/22/30 1/20/31 5/1/32 6/18/33
f 11/23/34 37/24/35 38/25/36 9/26/37
f 12/27/38 11/23/39 9/26/40 10/28/41
f 10/29/42 40/30/43 41/31/44 12/32/45
f 9/26/46 38/25/47 44/6/48 2/5/49
f 10/28/50 9/26/51 2/5/52 3/33/53
f 3/9/54 39/8/55 40/30/56 10/29/57
f 13/34/58 52/35/59 37/24/60 11/23/61
f 12/32/62 41/31/63 42/36/64 14/37/65
f 14/38/66 13/34/67 11/23/68 12/27/69
f 15/39/70 51/40/71 52/35/72 13/34/73
f 14/37/74 42/36/75 43/41/76 16/42/77
f 16/43/78 15/39/79 13/34/80 14/38/81
f 21/44/82 34/45/83 35/46/84 22/47/85
f 23/48/86 25/49/87 26/50/88 24/51/89
f 8/19/90 7/4/91 15/39/92 16/43/93
f 48/52/94 49/53/95 34/45/96
f 50/54/97 51/40/98 15/39/99 18/55/100
f 15/39/101 7/4/102 17/56/103 18/55/104
f 16/42/105 43/41/106 46/57/107 47/58/108 19/59/109
f 27/60/110 28/11/111 8/10/112 20/61/113
f 8/10/114 16/42/115 19/59/116 20/61/117
f 35/46/118 50/54/119 18/55/120 22/47/121
f 18/55/122 17/56/123 21/44/124 22/47/125
f 19/59/126 47/58/127 25/49/128 23/48/129
f 26/50/130 27/60/131 20/61/132 24/51/133
f 20/61/134 19/59/135 23/48/136 24/51/137
f 45/7/138 44/6/139 38/25/140
f 47/58/141 46/57/142 25/49/143
f 17/56/144 48/52/145 34/45/146 21/44/147
f 7/4/148 33/3/149 49/53/150 48/52/151 17/56/152
f 35/46/153 36/62/154 51/40/155 50/54/156
f 52/35/157 51/40/158 36/62/159 37/24/160
f 34/45/161 26/50/162 25/49/163 35/46/164
f 35/46/165 25/49/166 46/57/167 36/62/168
f 49/53/169 27/60/170 26/50/171 34/45/172
f 29/12/173 32/2/174 31/16/175 30/15/176
f 33/3/177 32/2/178 29/12/179 28/11/180
f 33/3/181 28/11/182 27/60/183 49/53/184
f 36/62/185 43/41/186 42/36/187 37/24/188
f 36/62/189 46/57/190 43/41/191
f 37/24/192 40/30/193 38/25/194
f 37/24/195 42/36/196 41/31/197 40/30/198
f 38/25/199 40/30/200 39/8/201 45/7/202
