# This file uses centimeters as units for non-parametric coordinates.

v -0.981655 0.000000 0.981658
v 0.981651 0.000000 0.981658
v -0.962543 7.107202 0.946723
v 0.971352 7.107202 0.949218
v -0.981655 7.107202 -0.981658
v 0.981651 7.107202 -0.981658
v -0.981655 0.000000 -0.981658
v 0.981651 0.000000 -0.981658
v 0.935600 2.393018 0.945598
v -0.981655 2.393018 0.981658
v -0.955204 2.393018 -0.964252
v 0.981651 2.393018 -0.981658
v 0.981651 3.208146 0.981658
v -0.981655 3.208146 0.981658
v -0.981655 3.208146 -0.981658
v 0.981651 3.208146 -0.981658
v 0.981651 1.714109 0.981658
v -0.981655 1.714109 0.981658
v -0.981655 1.714109 -0.981658
v 0.981651 1.714109 -0.981658
v 0.971352 4.476079 0.949218
v -0.962543 4.476079 0.946723
v -0.981655 4.476079 -0.981658
v 0.981651 4.476079 -0.981658
vt 0.826674 0.359008
vt 0.907874 0.359017
vt 0.907874 0.428254
vt 0.826675 0.428249
vt 0.836734 0.664541
vt 0.917932 0.664533
vt 0.917956 0.745724
vt 0.836757 0.745749
vt 0.737550 0.428252
vt 0.656353 0.428250
vt 0.656353 0.359011
vt 0.737550 0.359013
vt 0.728451 0.664499
vt 0.809649 0.664524
vt 0.809625 0.745715
vt 0.728425 0.745706
vt 0.913157 0.359017
vt 0.994357 0.359013
vt 0.994356 0.428252
vt 0.913157 0.428254
vt 0.741072 0.359013
vt 0.822271 0.359008
vt 0.822272 0.428249
vt 0.741073 0.428252
vt 0.826675 0.455673
vt 0.907874 0.455677
vt 0.907874 0.488602
vt 0.826675 0.488600
vt 0.741073 0.455675
vt 0.822272 0.455673
vt 0.822272 0.488600
vt 0.741073 0.488601
vt 0.737551 0.488601
vt 0.656352 0.488600
vt 0.656352 0.455674
vt 0.737550 0.455675
vt 0.913157 0.455677
vt 0.994356 0.455675
vt 0.994356 0.488601
vt 0.913157 0.488602
vt 0.907874 0.539816
vt 0.826675 0.539818
vt 0.822272 0.539818
vt 0.741073 0.539818
vt 0.737551 0.539818
vt 0.656351 0.539816
vt 0.994356 0.539817
vt 0.913157 0.539816
vt 0.907874 0.646094
vt 0.826676 0.646101
vt 0.822273 0.646101
vt 0.741074 0.646098
vt 0.737552 0.646098
vt 0.656350 0.646097
vt 0.994356 0.646098
vt 0.913157 0.646094
vn 0.000000 0.000000 1.000000
vn 0.000000 0.000000 1.000000
vn 0.002532 0.007323 0.999970
vn 0.002614 0.007559 0.999968
vn 0.000000 1.000000 -0.000000
vn 0.000000 1.000000 -0.000000
vn 0.000000 1.000000 -0.000000
vn 0.000000 1.000000 -0.000000
vn -0.001237 0.003579 -0.999993
vn -0.001260 0.003644 -0.999993
vn 0.000000 0.000000 -1.000000
vn 0.000000 0.000000 -1.000000
vn 0.000000 -1.000000 0.000000
vn 0.000000 -1.000000 0.000000
vn 0.000000 -1.000000 0.000000
vn 0.000000 -1.000000 0.000000
vn 1.000000 0.000000 0.000000
vn 1.000000 0.000000 0.000000
vn 0.999948 0.009647 0.003336
vn 0.999950 0.009411 0.003254
vn -1.000000 0.000000 0.000000
vn -1.000000 0.000000 0.000000
vn -0.999983 0.005534 -0.001914
vn -0.999983 0.005469 -0.001891
vn 0.009292 -0.000000 0.999957
vn 0.009292 0.000083 0.999957
vn 0.003163 0.007829 0.999964
vn 0.003259 0.007352 0.999968
vn -0.999977 0.000023 -0.006766
vn -0.999977 0.000000 -0.006766
vn -0.999998 -0.001875 0.000280
vn -0.999999 -0.001697 0.000367
vn -0.001717 -0.004136 -0.999990
vn -0.001739 -0.004189 -0.999990
vn -0.004463 0.000000 -0.999990
vn -0.004463 0.000024 -0.999990
vn 0.999930 0.000082 0.011836
vn 0.999930 0.000000 0.011836
vn 0.999943 -0.008656 0.006239
vn 0.999944 -0.008562 0.006213
vn 0.003259 0.007352 0.999968
vn 0.003163 0.007829 0.999964
vn -0.001077 0.008715 0.999961
vn -0.001076 0.008740 0.999961
vn -0.999999 -0.001697 0.000367
vn -0.999998 -0.001875 0.000280
vn -0.999963 0.002517 0.008256
vn -0.999963 0.002488 0.008275
vn 0.000000 0.000000 -1.000000
vn 0.000000 0.000000 -1.000000
vn -0.001739 -0.004189 -0.999990
vn -0.001717 -0.004136 -0.999990
vn 0.999944 -0.008562 0.006213
vn 0.999943 -0.008656 0.006239
vn 0.999989 0.001339 0.004455
vn 0.999989 0.001354 0.004445
vn 0.002614 0.007559 0.999968
vn 0.002532 0.007323 0.999970
vn 0.009292 0.000083 0.999957
vn 0.009292 -0.000000 0.999957
vn -0.999983 0.005469 -0.001891
vn -0.999983 0.005534 -0.001914
vn -0.999977 0.000000 -0.006766
vn -0.999977 0.000023 -0.006766
vn -0.004463 0.000024 -0.999990
vn -0.004463 0.000000 -0.999990
vn -0.001260 0.003644 -0.999993
vn -0.001237 0.003579 -0.999993
vn 0.999950 0.009411 0.003254
vn 0.999948 0.009647 0.003336
vn 0.999930 0.000000 0.011836
vn 0.999930 0.000082 0.011836
vn -0.001076 0.008740 0.999961
vn -0.001077 0.008715 0.999961
vn -0.001290 0.000000 0.999999
vn -0.001290 0.000000 0.999999
vn -0.999963 0.002488 0.008275
vn -0.999963 0.002517 0.008256
vn -0.999951 0.000000 0.009910
vn -0.999951 0.000000 0.009910
vn 0.000000 0.000000 -1.000000
vn 0.000000 0.000000 -1.000000
vn 0.000000 0.000000 -1.000000
vn 0.000000 0.000000 -1.000000
vn 0.999989 0.001354 0.004445
vn 0.999989 0.001339 0.004455
vn 0.999986 0.000000 0.005334
vn 0.999986 0.000000 0.005334
s off
f 1/1/1 2/2/2 17/3/3 18/4/4
f 3/5/5 4/6/6 6/7/7 5/8/8
f 19/9/9 20/10/10 8/11/11 7/12/12
f 7/13/13 8/14/14 2/15/15 1/16/16
f 2/17/17 8/18/18 20/19/19 17/20/20
f 7/21/21 1/22/22 18/23/23 19/24/24
f 10/25/25 9/26/26 13/27/27 14/28/28
f 11/29/29 10/30/30 14/31/31 15/32/32
f 15/33/33 16/34/34 12/35/35 11/36/36
f 9/37/37 12/38/38 16/39/39 13/40/40
f 14/28/41 13/27/42 21/41/43 22/42/44
f 15/32/45 14/31/46 22/43/47 23/44/48
f 23/45/49 24/46/50 16/34/51 15/33/52
f 13/40/53 16/39/54 24/47/55 21/48/56
f 18/4/57 17/3/58 9/26/59 10/25/60
f 19/24/61 18/23/62 10/30/63 11/29/64
f 11/36/65 12/35/66 20/10/67 19/9/68
f 17/20/69 20/19/70 12/38/71 9/37/72
f 22/42/73 21/41/74 4/49/75 3/50/76
f 23/44/77 22/43/78 3/51/79 5/52/80
f 5/53/81 6/54/82 24/46/83 23/45/84
f 21/48/85 24/47/86 6/55/87 4/56/88
