# This file uses centimeters as units for non-parametric coordinates.

v -2.327171 0.000000 1.209682
v 2.327171 0.000000 1.209682
v -2.327171 4.896980 1.209682
v 2.327171 4.896980 1.209682
v 2.075535 4.896980 0.121964
v 2.075535 0.000000 0.121964
v 1.140499 4.896980 -0.861252
v 1.140499 0.000000 -0.861252
v -0.000002 4.896980 -1.209682
v -0.000002 0.000000 -1.209682
v -1.140503 4.896980 -0.861252
v -1.140503 0.000000 -0.861252
v -2.075539 4.896980 0.121964
v -2.075539 0.000000 0.121964
vt 0.943337 0.778369
vt 0.986367 0.778369
vt 0.986367 0.984132
vt 0.943337 0.984132
vt 0.891042 0.778369
vt 0.891042 0.984132
vt 0.845080 0.778369
vt 0.845080 0.984132
vt 0.799119 0.778369
vt 0.799119 0.984132
vt 0.746824 0.778369
vt 0.746824 0.984132
vt 0.703794 0.778369
vt 0.703794 0.984132
vn -0.867650 0.000000 0.497175
vn -0.974269 0.000000 0.225391
vn -0.974269 0.000000 0.225391
vn -0.867650 0.000000 0.497175
vn -0.540003 0.000000 0.841663
vn -0.540003 0.000000 0.841663
vn 0.000000 0.000000 1.000000
vn 0.000000 0.000000 1.000000
vn 0.540003 0.000000 0.841663
vn 0.540003 0.000000 0.841663
vn 0.867651 0.000000 0.497174
vn 0.867651 0.000000 0.497174
vn 0.974269 0.000000 0.225387
vn 0.974269 0.000000 0.225387
s 1
f 6/1/1 2/2/2 4/3/3 5/4/4
f 8/5/5 6/1/1 5/4/4 7/6/6
f 10/7/7 8/5/5 7/6/6 9/8/8
f 12/9/9 10/7/7 9/8/8 11/10/10
f 14/11/11 12/9/9 11/10/10 13/12/12
f 1/13/13 14/11/11 13/12/12 3/14/14
