# This file uses centimeters as units for non-parametric coordinates.

v 0.299620 0.455656 0.408963
v 0.372763 0.122856 0.407328
v 0.106198 -0.246850 0.413843
v -0.300266 0.302462 0.413586
v 0.410394 -0.351959 0.400444
v 0.350866 -0.725446 0.407911
v 0.127701 0.724491 0.398512
v 0.266634 0.625683 0.364127
v -0.402391 0.285403 0.389591
v -0.255212 0.738221 0.404911
v -0.265038 0.110937 0.409578
v 0.350570 -0.067997 0.303806
v 0.116255 0.780156 0.297753
v 0.409228 0.221493 0.264981
v -0.015158 -0.771139 0.400169
v 0.395949 -0.757760 0.323793
v 0.409738 0.652774 -0.106236
v -0.289581 0.787166 0.352078
v -0.376875 -0.210723 0.401743
v -0.364041 -0.674670 0.396697
v 0.400369 -0.758959 0.054520
v 0.411674 0.049538 0.203632
v -0.411295 0.640840 0.364201
v 0.362025 0.740772 -0.034546
v -0.405080 0.110702 0.264782
v -0.362945 0.789355 0.025758
v 0.217281 0.784671 0.128231
v 0.400401 -0.603799 -0.140708
v -0.408834 -0.750999 0.177481
v 0.304260 -0.772306 -0.051454
v 0.232612 0.789678 -0.232538
v -0.051277 -0.772504 -0.192485
v -0.351947 -0.789762 0.013662
v -0.413260 0.579609 -0.117774
v -0.050882 0.779433 -0.347300
v 0.386499 0.666680 -0.247877
v -0.413843 0.160411 -0.230162
v 0.383517 0.393871 -0.390471
v 0.412203 -0.190567 -0.351455
v 0.287080 -0.676900 -0.411989
v -0.380465 0.313547 -0.339904
v 0.410006 -0.749539 -0.255887
v 0.079684 -0.776601 -0.365598
v 0.028568 0.715615 -0.413353
v 0.286499 0.505809 -0.412287
v -0.130856 -0.769544 -0.395500
v 0.363986 -0.234869 -0.413272
v -0.300055 0.295677 -0.412346
v -0.388182 -0.074946 -0.396728
v 0.030216 -0.614309 -0.413140
v -0.407313 -0.492717 -0.385507
v -0.351159 -0.781532 -0.339409
vt 0.211594 0.281073
vt 0.211594 0.281073
vt 0.211594 0.300503
vt 0.211594 0.281073
vt 0.211594 0.300503
vt 0.211594 0.281073
vt 0.211594 0.300503
vt 0.211594 0.281073
vt 0.211594 0.300503
vt 0.211594 0.300503
vt 0.211594 0.281073
vt 0.211594 0.281073
vt 0.211594 0.281073
vt 0.211594 0.300503
vt 0.211594 0.281073
vt 0.211594 0.300503
vt 0.211594 0.281073
vt 0.211594 0.300503
vt 0.211594 0.300503
vt 0.211594 0.300503
vt 0.211594 0.300503
vt 0.211594 0.281073
vt 0.211594 0.281073
vt 0.211594 0.300503
vt 0.211594 0.300503
vt 0.211594 0.281073
vt 0.211594 0.300503
vt 0.211594 0.281073
vt 0.211594 0.300503
vt 0.211594 0.300503
vt 0.211594 0.300503
vt 0.211594 0.281073
vt 0.211594 0.281073
vt 0.211594 0.300503
vt 0.211594 0.300503
vt 0.211594 0.300503
vt 0.211594 0.281073
vt 0.211594 0.300503
vt 0.211594 0.300503
vt 0.211594 0.281073
vt 0.211594 0.281073
vt 0.211594 0.281073
vt 0.211594 0.300503
vt 0.211594 0.281073
vt 0.211594 0.300503
vt 0.211594 0.281073
vt 0.211594 0.300503
vt 0.211594 0.300503
vt 0.211594 0.300503
vt 0.211594 0.300503
vt 0.211594 0.300503
vt 0.211594 0.300503
vt 0.211594 0.281073
vt 0.211594 0.281073
vt 0.211594 0.281073
vt 0.211594 0.300503
vt 0.211594 0.281073
vt 0.211594 0.281073
vt 0.211594 0.281073
vt 0.211594 0.281073
vt 0.211594 0.281073
vt 0.211594 0.281073
vt 0.211594 0.300503
vt 0.211594 0.281073
vt 0.211594 0.300503
vt 0.211594 0.281073
vt 0.211594 0.281073
vt 0.211594 0.281073
vt 0.211594 0.281073
vt 0.211594 0.281073
vt 0.211594 0.281073
vt 0.211594 0.281073
vt 0.211594 0.281073
vt 0.211594 0.281073
vt 0.211594 0.281073
vt 0.211594 0.300503
vt 0.211594 0.281073
vt 0.211594 0.281073
vt 0.211594 0.281073
vt 0.211594 0.281073
vt 0.211594 0.281073
vt 0.211594 0.281073
vt 0.211594 0.281073
vt 0.211594 0.281073
vt 0.211594 0.300503
vt 0.211594 0.281073
vt 0.211594 0.281073
vt 0.211594 0.300503
vt 0.211594 0.281073
vt 0.211594 0.281073
vt 0.211594 0.281073
vt 0.211594 0.281073
vt 0.211594 0.281073
vt 0.211594 0.281073
vt 0.211594 0.281073
vt 0.211594 0.281073
vt 0.211594 0.281073
vt 0.211594 0.281073
vt 0.211594 0.281073
vt 0.211594 0.281073
vt 0.211594 0.281073
vt 0.211594 0.281073
vt 0.211594 0.281073
vt 0.211594 0.300503
vt 0.211594 0.281073
vt 0.211594 0.281073
vt 0.211594 0.281073
vt 0.211594 0.281073
vt 0.211594 0.281073
vt 0.211594 0.281073
vt 0.211594 0.281073
vt 0.211594 0.281073
vt 0.211594 0.300503
vt 0.211594 0.281073
vt 0.211594 0.281073
vt 0.211594 0.281073
vt 0.211594 0.300503
vt 0.211594 0.281073
vt 0.211594 0.281073
vt 0.211594 0.300503
vt 0.211594 0.281073
vt 0.211594 0.300503
vt 0.211594 0.281073
vt 0.211594 0.281073
vt 0.211594 0.281073
vt 0.211594 0.281073
vt 0.211594 0.281073
vt 0.211594 0.281073
vt 0.211594 0.281073
vt 0.211594 0.300503
vt 0.211594 0.281073
vt 0.211594 0.281073
vt 0.211594 0.281073
vt 0.211594 0.300503
vt 0.211594 0.281073
vt 0.211594 0.281073
vt 0.211594 0.281073
vt 0.211594 0.281073
vt 0.211594 0.281073
vt 0.211594 0.281073
vt 0.211594 0.281073
vt 0.211594 0.281073
vt 0.211594 0.281073
vt 0.211594 0.300503
vt 0.211594 0.281073
vt 0.211594 0.281073
vt 0.211594 0.281073
vt 0.211594 0.281073
vt 0.211594 0.281073
vt 0.211594 0.281073
vt 0.211594 0.281073
vt 0.211594 0.300503
vt 0.211594 0.300503
vt 0.211594 0.281073
vt 0.211594 0.300503
vt 0.211594 0.300503
vt 0.211594 0.281073
vt 0.211594 0.281073
vt 0.211594 0.281073
vn 0.018504 0.050653 0.998545
vn 0.018504 0.050653 0.998545
vn 0.018504 0.050653 0.998545
vn 0.140687 0.005163 0.990041
vn 0.140687 0.005163 0.990041
vn 0.140687 0.005163 0.990041
vn -0.003486 0.007495 0.999966
vn -0.003486 0.007495 0.999966
vn -0.003486 0.007495 0.999966
vn 0.023949 0.000351 0.999713
vn 0.023949 0.000351 0.999713
vn 0.023949 0.000351 0.999713
vn -0.003788 0.007989 0.999961
vn -0.003788 0.007989 0.999961
vn -0.003788 0.007989 0.999961
vn 0.613281 -0.430515 0.662226
vn 0.613281 -0.430515 0.662226
vn 0.613281 -0.430515 0.662226
vn -0.026177 -0.015247 0.999541
vn -0.026177 -0.015247 0.999541
vn -0.026177 -0.015247 0.999541
vn -0.025905 -0.011588 0.999597
vn -0.025905 -0.011588 0.999597
vn -0.025905 -0.011588 0.999597
vn -0.017184 -0.021175 0.999628
vn -0.017184 -0.021175 0.999628
vn -0.017184 -0.021175 0.999628
vn -0.017659 -0.027888 0.999455
vn -0.017659 -0.027888 0.999455
vn -0.017659 -0.027888 0.999455
vn -0.280048 0.048041 0.958783
vn -0.280048 0.048041 0.958783
vn -0.280048 0.048041 0.958783
vn 0.428753 0.307214 0.849583
vn 0.428753 0.307214 0.849583
vn 0.428753 0.307214 0.849583
vn 0.037847 0.745209 0.665756
vn 0.037847 0.745209 0.665756
vn 0.037847 0.745209 0.665756
vn 0.078749 0.876347 0.475200
vn 0.078749 0.876347 0.475200
vn 0.078749 0.876347 0.475200
vn 0.975574 -0.180979 0.124511
vn 0.975574 -0.180979 0.124511
vn 0.975574 -0.180979 0.124511
vn 0.048236 0.012281 0.998761
vn 0.048236 0.012281 0.998760
vn 0.048236 0.012281 0.998761
vn -0.238268 0.063262 0.969137
vn -0.238268 0.063262 0.969137
vn -0.238268 0.063262 0.969137
vn -0.218697 -0.060604 0.973909
vn -0.218697 -0.060604 0.973909
vn -0.218697 -0.060604 0.973909
vn 0.160991 0.348200 0.923493
vn 0.160991 0.348200 0.923493
vn 0.160991 0.348200 0.923493
vn -0.646171 -0.437042 0.625665
vn -0.646171 -0.437042 0.625665
vn -0.646171 -0.437042 0.625665
vn -0.700232 0.226975 0.676873
vn -0.700232 0.226975 0.676873
vn -0.700232 0.226975 0.676873
vn 0.907912 0.197725 0.369596
vn 0.907912 0.197725 0.369596
vn 0.907912 0.197725 0.369596
vn -0.977284 -0.029316 0.209895
vn -0.977284 -0.029316 0.209895
vn -0.977284 -0.029316 0.209895
vn -0.482826 0.463181 0.743197
vn -0.482826 0.463181 0.743197
vn -0.482826 0.463181 0.743197
vn -0.998451 -0.021340 0.051378
vn -0.998451 -0.021340 0.051378
vn -0.998451 -0.021340 0.051378
vn 0.853433 -0.125910 0.505766
vn 0.853433 -0.125910 0.505766
vn 0.853433 -0.125910 0.505766
vn 0.104814 -0.908255 0.405077
vn 0.104814 -0.908255 0.405077
vn 0.104814 -0.908255 0.405077
vn 0.599801 0.727267 0.333649
vn 0.599801 0.727267 0.333649
vn 0.599801 0.727267 0.333649
vn 0.035686 -0.999218 0.017050
vn 0.035686 -0.999218 0.017050
vn 0.035686 -0.999218 0.017050
vn 0.922368 0.251388 0.293328
vn 0.922368 0.251388 0.293328
vn 0.922368 0.251388 0.293328
vn 0.532922 0.371073 0.760460
vn 0.532922 0.371073 0.760460
vn 0.532922 0.371073 0.760460
vn 0.999114 -0.038693 0.016570
vn 0.999114 -0.038693 0.016570
vn 0.999114 -0.038693 0.016570
vn -0.750130 0.638281 0.172925
vn -0.750130 0.638281 0.172925
vn -0.750130 0.638281 0.172925
vn -0.999902 -0.012792 0.005703
vn -0.999902 -0.012792 0.005703
vn -0.999902 -0.012792 0.005703
vn 0.906955 -0.130040 0.400653
vn 0.906955 -0.130040 0.400653
vn 0.906955 -0.130040 0.400653
vn -0.985007 -0.013137 0.172017
vn -0.985007 -0.013137 0.172017
vn -0.985006 -0.013137 0.172017
vn -0.259076 -0.927226 0.270428
vn -0.259076 -0.927226 0.270427
vn -0.259076 -0.927226 0.270428
vn 0.920735 0.256225 0.294273
vn 0.920735 0.256225 0.294273
vn 0.920735 0.256225 0.294273
vn 0.919856 0.258116 0.295365
vn 0.919856 0.258116 0.295365
vn 0.919856 0.258116 0.295365
vn 0.189845 -0.938617 0.288024
vn 0.189845 -0.938617 0.288024
vn 0.189845 -0.938617 0.288024
vn 0.582936 0.725056 0.366714
vn 0.582936 0.725057 0.366714
vn 0.582936 0.725056 0.366714
vn 0.999996 -0.002247 0.001924
vn 0.999996 -0.002247 0.001924
vn 0.999996 -0.002247 0.001924
vn 0.017639 0.999841 0.002740
vn 0.017639 0.999841 0.002740
vn 0.017639 0.999841 0.002740
vn 0.999873 0.009710 0.012653
vn 0.999873 0.009710 0.012653
vn 0.999873 0.009710 0.012653
vn 0.999824 -0.014782 -0.011583
vn 0.999824 -0.014782 -0.011583
vn 0.999824 -0.014782 -0.011583
vn 0.029700 -0.999063 0.031470
vn 0.029700 -0.999063 0.031470
vn 0.029700 -0.999063 0.031470
vn 0.130452 -0.991433 0.006556
vn 0.130452 -0.991433 0.006556
vn 0.130452 -0.991433 0.006556
vn 0.610180 0.710250 0.351035
vn 0.610180 0.710250 0.351035
vn 0.610180 0.710250 0.351035
vn -0.967521 0.251240 -0.027972
vn -0.967521 0.251240 -0.027972
vn -0.967520 0.251240 -0.027972
vn -0.999836 0.002536 0.017957
vn -0.999836 0.002536 0.017957
vn -0.999836 0.002536 0.017957
vn -0.999943 -0.008435 -0.006570
vn -0.999943 -0.008435 -0.006570
vn -0.999943 -0.008435 -0.006570
vn -0.999844 -0.003268 0.017375
vn -0.999844 -0.003268 0.017375
vn -0.999844 -0.003268 0.017375
vn 0.317451 0.947900 0.026643
vn 0.317451 0.947900 0.026643
vn 0.317451 0.947900 0.026643
vn 0.622158 -0.612948 -0.487046
vn 0.622158 -0.612948 -0.487046
vn 0.622158 -0.612948 -0.487046
vn 0.003045 0.999591 0.028442
vn 0.003045 0.999591 0.028442
vn 0.003045 0.999591 0.028442
vn 0.021356 -0.998396 -0.052432
vn 0.021356 -0.998396 -0.052432
vn 0.021356 -0.998396 -0.052432
vn -0.006789 -0.999805 0.018523
vn -0.006789 -0.999805 0.018523
vn -0.006789 -0.999805 0.018523
vn -0.601606 -0.798543 -0.019956
vn -0.601606 -0.798543 -0.019956
vn -0.601606 -0.798543 -0.019956
vn 0.037317 -0.998877 -0.029194
vn 0.037317 -0.998877 -0.029194
vn 0.037317 -0.998877 -0.029194
vn 0.999521 -0.030678 -0.004180
vn 0.999521 -0.030678 -0.004180
vn 0.999521 -0.030678 -0.004180
vn 0.048441 -0.998557 -0.023167
vn 0.048441 -0.998557 -0.023167
vn 0.048441 -0.998557 -0.023167
vn 0.005579 0.999885 0.014113
vn 0.005579 0.999885 0.014113
vn 0.005579 0.999885 0.014113
vn 0.866523 -0.273088 0.417806
vn 0.866523 -0.273088 0.417806
vn 0.866522 -0.273088 0.417806
vn -0.018932 0.998921 -0.042403
vn -0.018932 0.998921 -0.042403
vn -0.018932 0.998921 -0.042403
vn -0.642615 0.531683 -0.551687
vn -0.642615 0.531683 -0.551687
vn -0.642615 0.531683 -0.551687
vn 0.844502 0.528494 -0.086667
vn 0.844502 0.528494 -0.086667
vn 0.844502 0.528494 -0.086667
vn -0.974966 0.058844 -0.214428
vn -0.974966 0.058844 -0.214428
vn -0.974966 0.058844 -0.214428
vn 0.997336 0.008467 0.072452
vn 0.997336 0.008467 0.072452
vn 0.997336 0.008467 0.072452
vn 0.997455 -0.030018 -0.064672
vn 0.997455 -0.030018 -0.064672
vn 0.997455 -0.030018 -0.064672
vn 0.100787 -0.993188 -0.058471
vn 0.100787 -0.993188 -0.058471
vn 0.100787 -0.993188 -0.058471
vn 0.998668 0.047703 -0.019684
vn 0.998668 0.047703 -0.019684
vn 0.998668 0.047703 -0.019684
vn 0.985454 0.070136 -0.154792
vn 0.985454 0.070136 -0.154792
vn 0.985454 0.070136 -0.154792
vn -0.974028 -0.204795 -0.096584
vn -0.974028 -0.204796 -0.096584
vn -0.974028 -0.204795 -0.096584
vn 0.599420 0.774948 -0.200380
vn 0.599420 0.774948 -0.200380
vn 0.599420 0.774948 -0.200380
vn -0.973325 0.052019 -0.223454
vn -0.973325 0.052019 -0.223454
vn -0.973325 0.052019 -0.223454
vn -0.739816 -0.386776 -0.550525
vn -0.739816 -0.386776 -0.550525
vn -0.739816 -0.386776 -0.550525
vn 0.193765 0.811626 -0.551106
vn 0.193765 0.811626 -0.551106
vn 0.193765 0.811626 -0.551106
vn -0.641215 0.443676 -0.626095
vn -0.641215 0.443676 -0.626095
vn -0.641215 0.443676 -0.626095
vn -0.977748 0.039241 -0.206080
vn -0.977748 0.039241 -0.206080
vn -0.977748 0.039241 -0.206080
vn 0.754206 -0.113539 -0.646748
vn 0.754206 -0.113539 -0.646748
vn 0.754206 -0.113539 -0.646748
vn 0.403505 0.591859 -0.697773
vn 0.403505 0.591859 -0.697773
vn 0.403505 0.591859 -0.697773
vn 0.251803 -0.786315 -0.564185
vn 0.251803 -0.786315 -0.564185
vn 0.251803 -0.786315 -0.564185
vn 0.588164 0.369571 -0.719361
vn 0.588164 0.369571 -0.719361
vn 0.588164 0.369571 -0.719361
vn 0.653551 -0.708408 -0.266511
vn 0.653551 -0.708409 -0.266511
vn 0.653551 -0.708409 -0.266511
vn 0.417507 0.509450 -0.752429
vn 0.417507 0.509450 -0.752429
vn 0.417507 0.509450 -0.752429
vn -0.649089 0.122704 -0.750751
vn -0.649089 0.122704 -0.750751
vn -0.649089 0.122704 -0.750751
vn 0.789286 -0.002251 -0.614022
vn 0.789286 -0.002251 -0.614022
vn 0.789286 -0.002251 -0.614022
vn 0.828010 -0.145631 -0.541472
vn 0.828010 -0.145631 -0.541472
vn 0.828010 -0.145631 -0.541472
vn -0.567119 0.389678 -0.725622
vn -0.567119 0.389678 -0.725622
vn -0.567119 0.389678 -0.725622
vn -0.251637 0.152493 -0.955733
vn -0.251637 0.152493 -0.955732
vn -0.251637 0.152493 -0.955732
vn 0.001334 -0.003442 -0.999993
vn 0.001334 -0.003442 -0.999993
vn 0.001334 -0.003442 -0.999993
vn -0.429352 0.333978 -0.839116
vn -0.429352 0.333978 -0.839116
vn -0.429352 0.333978 -0.839116
vn 0.249255 0.027364 -0.968051
vn 0.249255 0.027364 -0.968051
vn 0.249255 0.027364 -0.968051
vn -0.001704 0.001152 -0.999998
vn -0.001704 0.001152 -0.999998
vn -0.001704 0.001152 -0.999998
vn -0.000188 0.000805 -1.000000
vn -0.000188 0.000805 -1.000000
vn -0.000188 0.000805 -1.000000
vn -0.079327 -0.023135 -0.996580
vn -0.079327 -0.023135 -0.996580
vn -0.079327 -0.023135 -0.996580
vn -0.069782 -0.024456 -0.997262
vn -0.069782 -0.024456 -0.997262
vn -0.069782 -0.024456 -0.997262
vn -0.111132 -0.177673 -0.977794
vn -0.111132 -0.177673 -0.977794
vn -0.111132 -0.177673 -0.977794
vn 0.003620 -0.003532 -0.999987
vn 0.003620 -0.003532 -0.999987
vn 0.003620 -0.003532 -0.999987
vn -0.068768 -0.299712 -0.951548
vn -0.068768 -0.299712 -0.951548
vn -0.068768 -0.299712 -0.951548
s off
f 7/144/1 10/155/2 1/3/3
f 11/156/4 10/155/5 4/5/6
f 1/3/7 10/155/8 11/156/9
f 2/152/10 1/3/11 3/7/12
f 3/7/13 1/3/14 11/156/15
f 2/151/16 3/158/17 12/140/18
f 3/7/19 11/156/20 19/9/21
f 3/7/22 19/9/23 20/10/24
f 3/7/25 20/10/26 6/153/27
f 6/153/28 20/10/29 15/122/30
f 10/155/31 23/117/32 4/5/33
f 8/14/34 7/144/35 1/3/36
f 10/154/37 7/145/38 18/127/39
f 7/146/40 13/126/41 18/15/42
f 14/133/43 2/6/44 12/141/45
f 5/18/46 3/7/47 6/153/48
f 9/19/49 4/5/50 23/117/51
f 9/19/52 11/156/53 4/5/54
f 5/137/55 12/139/56 3/159/57
f 11/4/58 9/147/59 25/148/60
f 11/157/61 25/149/62 19/150/63
f 14/134/64 1/3/65 2/152/66
f 29/21/67 20/10/68 19/9/69
f 10/2/70 18/128/71 23/116/72
f 23/117/73 25/20/74 9/19/75
f 5/18/76 6/153/77 16/120/78
f 6/11/79 15/123/80 16/119/81
f 7/1/82 8/143/83 13/125/84
f 33/108/85 16/118/86 15/124/87
f 17/24/88 1/3/89 14/134/90
f 22/135/91 12/8/92 5/138/93
f 5/18/94 16/120/95 21/113/96
f 26/100/97 23/115/98 18/129/99
f 23/117/100 34/88/101 25/20/102
f 14/17/103 12/142/104 22/136/105
f 19/9/106 25/20/107 29/21/108
f 15/12/109 20/131/110 33/107/111
f 8/14/112 1/3/113 24/29/114
f 1/3/115 17/24/116 24/29/117
f 33/106/118 20/132/119 29/91/120
f 8/14/121 27/30/122 13/16/123
f 39/31/124 22/25/125 5/18/126
f 26/27/127 18/130/128 13/16/129
f 22/25/130 17/24/131 14/134/132
f 5/18/133 21/113/134 28/104/135
f 33/109/136 30/95/137 16/22/138
f 30/96/139 21/26/140 16/121/141
f 8/14/142 24/29/143 27/30/144
f 26/101/145 34/87/146 23/13/147
f 25/20/148 37/34/149 29/21/150
f 29/21/151 37/34/152 51/35/153
f 34/88/154 37/34/155 25/20/156
f 24/29/157 31/36/158 27/30/159
f 30/97/160 28/103/161 21/114/162
f 27/30/163 26/27/164 13/16/165
f 32/72/166 30/94/167 33/110/168
f 43/79/169 30/33/170 32/73/171
f 29/92/172 52/59/173 33/23/174
f 46/61/175 32/71/176 33/111/177
f 39/31/178 5/18/179 28/104/180
f 52/60/181 46/40/182 33/112/183
f 31/36/184 26/27/185 27/30/186
f 28/32/187 30/98/188 42/83/189
f 35/65/190 26/27/191 31/36/192
f 26/102/193 35/66/194 34/28/195
f 24/29/196 17/24/197 36/43/198
f 34/88/199 41/76/200 37/34/201
f 42/84/202 39/93/203 28/105/204
f 38/45/205 17/24/206 22/25/207
f 43/80/208 42/41/209 30/99/210
f 38/45/211 22/25/212 39/31/213
f 36/43/214 17/24/215 38/45/216
f 51/35/217 52/39/218 29/21/219
f 31/36/220 24/29/221 36/43/222
f 37/34/223 41/76/224 49/56/225
f 50/70/226 43/78/227 32/74/228
f 44/57/229 35/64/230 31/90/231
f 34/89/232 35/67/233 41/75/234
f 49/56/235 51/35/236 37/34/237
f 40/49/238 39/31/239 42/85/240
f 31/36/241 36/43/242 44/48/243
f 43/81/244 40/82/245 42/86/246
f 45/50/247 36/43/248 38/45/249
f 50/69/250 32/37/251 46/62/252
f 44/48/253 36/43/254 45/50/255
f 49/46/256 41/77/257 48/55/258
f 47/52/259 38/45/260 39/31/261
f 39/31/262 40/49/263 47/52/264
f 41/44/265 35/68/266 48/54/267
f 52/39/268 50/47/269 46/63/270
f 44/48/271 45/50/272 48/51/273
f 35/42/274 44/58/275 48/53/276
f 45/50/277 38/45/278 47/52/279
f 50/47/280 45/50/281 47/52/282
f 45/50/283 50/47/284 48/51/285
f 49/56/286 48/51/287 51/35/288
f 51/35/289 48/51/290 50/47/291
f 51/35/292 50/47/293 52/39/294
f 50/47/295 47/52/296 40/49/297
f 50/47/298 40/49/299 43/38/300
