# This file uses centimeters as units for non-parametric coordinates.

v 0.012451 0.086432 0.112131
v -0.043579 -0.032088 0.173393
v 0.148209 -0.029723 0.098082
v 0.134338 0.034274 0.104168
v 0.169159 -0.012639 0.015666
v -0.016479 0.107428 0.014125
v -0.140625 0.015862 0.113117
v -0.127258 0.072582 0.050392
v 0.088089 0.069798 -0.060574
v 0.022888 -0.106050 0.026055
v 0.105194 -0.076621 -0.042109
v 0.027832 -0.102753 -0.052779
v -0.153076 0.034655 -0.071244
v -0.114014 -0.067221 -0.019958
v -0.058167 0.024948 -0.142546
v -0.049744 -0.044714 -0.128571
v -0.007385 -0.014352 -0.151287
vt 0.211594 0.300503
vt 0.211594 0.300503
vt 0.211594 0.300503
vt 0.211594 0.300503
vt 0.211594 0.300503
vt 0.211594 0.300503
vt 0.211594 0.300503
vt 0.211594 0.300503
vt 0.211594 0.300503
vt 0.211594 0.300503
vt 0.211594 0.300503
vt 0.211594 0.300503
vt 0.211594 0.300503
vt 0.211594 0.300503
vt 0.211594 0.300503
vt 0.211594 0.300503
vt 0.211594 0.300503
vn 0.345893 0.296599 0.890161
vn 0.345893 0.296599 0.890161
vn 0.345893 0.296599 0.890161
vn 0.027036 -0.088834 0.995679
vn 0.027036 -0.088834 0.995679
vn 0.027036 -0.088834 0.995679
vn -0.240495 0.533007 0.811212
vn -0.240495 0.533007 0.811212
vn -0.240495 0.533007 0.811212
vn 0.211737 -0.831813 0.513084
vn 0.211737 -0.831813 0.513084
vn 0.211737 -0.831813 0.513084
vn 0.396538 0.914622 0.078887
vn 0.396538 0.914622 0.078887
vn 0.396538 0.914622 0.078887
vn 0.944190 0.178297 0.276975
vn 0.944190 0.178297 0.276975
vn 0.944190 0.178297 0.276975
vn -0.334285 0.733388 0.591943
vn -0.334285 0.733388 0.591943
vn -0.334285 0.733388 0.591943
vn 0.392007 0.915798 0.087431
vn 0.392007 0.915798 0.087431
vn 0.392007 0.915798 0.087431
vn -0.939478 0.328606 0.096945
vn -0.939478 0.328606 0.096945
vn -0.939478 0.328606 0.096945
vn -0.209840 0.941519 0.263647
vn -0.209840 0.941519 0.263647
vn -0.209840 0.941519 0.263647
vn -0.523894 -0.832235 0.181437
vn -0.523894 -0.832235 0.181437
vn -0.523894 -0.832235 0.181437
vn 0.694422 -0.719043 0.027475
vn 0.694422 -0.719043 0.027475
vn 0.694423 -0.719043 0.027475
vn 0.740290 0.669281 -0.063505
vn 0.740290 0.669281 -0.063505
vn 0.740290 0.669281 -0.063505
vn 0.445844 -0.881065 0.157947
vn 0.445844 -0.881065 0.157947
vn 0.445844 -0.881065 0.157947
vn -0.377962 -0.817400 0.434743
vn -0.377962 -0.817400 0.434743
vn -0.377962 -0.817400 0.434743
vn -0.937997 -0.345499 0.028131
vn -0.937997 -0.345499 0.028131
vn -0.937998 -0.345499 0.028131
vn 0.322357 -0.946420 -0.019375
vn 0.322357 -0.946420 -0.019375
vn 0.322357 -0.946420 -0.019375
vn -0.354990 0.911256 -0.208792
vn -0.354990 0.911256 -0.208792
vn -0.354990 0.911256 -0.208792
vn -0.254856 -0.965335 -0.056364
vn -0.254856 -0.965335 -0.056364
vn -0.254856 -0.965335 -0.056364
vn 0.677660 -0.013554 -0.735251
vn 0.677660 -0.013554 -0.735251
vn 0.677660 -0.013554 -0.735251
vn -0.541957 -0.534349 -0.648655
vn -0.541957 -0.534349 -0.648655
vn -0.541957 -0.534349 -0.648655
vn -0.012078 0.886124 -0.463291
vn -0.012078 0.886124 -0.463291
vn -0.012078 0.886124 -0.463291
vn -0.216624 0.886436 -0.409029
vn -0.216624 0.886436 -0.409029
vn -0.216624 0.886436 -0.409029
vn -0.822924 -0.205744 -0.529591
vn -0.822924 -0.205744 -0.529591
vn -0.822923 -0.205744 -0.529591
vn -0.304548 -0.880730 -0.362719
vn -0.304548 -0.880730 -0.362719
vn -0.304548 -0.880730 -0.362719
vn 0.693326 -0.009871 -0.720556
vn 0.693326 -0.009871 -0.720556
vn 0.693326 -0.009871 -0.720556
vn 0.280131 0.538701 -0.794561
vn 0.280131 0.538701 -0.794561
vn 0.280131 0.538701 -0.794561
vn 0.301027 -0.583059 -0.754602
vn 0.301027 -0.583059 -0.754602
vn 0.301027 -0.583059 -0.754603
vn 0.198266 -0.749331 -0.631817
vn 0.198266 -0.749331 -0.631817
vn 0.198266 -0.749331 -0.631817
vn -0.331086 -0.223925 -0.916646
vn -0.331086 -0.223925 -0.916646
vn -0.331086 -0.223925 -0.916646
s off
f 3/1/1 1/2/2 2/3/3
f 4/4/4 1/2/5 3/1/6
f 1/2/7 7/5/8 2/3/9
f 3/1/10 2/3/11 10/6/12
f 1/2/13 4/4/14 6/7/15
f 4/4/16 3/1/17 5/8/18
f 7/5/19 1/2/20 8/9/21
f 4/4/22 9/10/23 6/7/24
f 13/11/25 7/5/26 8/9/27
f 1/2/28 6/7/29 8/9/30
f 7/5/31 10/6/32 2/3/33
f 3/1/34 11/12/35 5/8/36
f 4/4/37 5/8/38 9/10/39
f 10/6/40 11/12/41 3/1/42
f 7/5/43 14/13/44 10/6/45
f 7/5/46 13/11/47 14/13/48
f 12/14/49 11/12/50 10/6/51
f 13/11/52 8/9/53 6/7/54
f 10/6/55 14/13/56 12/14/57
f 11/12/58 9/10/59 5/8/60
f 13/11/61 15/15/62 14/13/63
f 9/10/64 15/15/65 6/7/66
f 6/7/67 15/15/68 13/11/69
f 14/13/70 15/15/71 16/16/72
f 12/14/73 14/13/74 16/16/75
f 11/12/76 17/17/77 9/10/78
f 17/17/79 15/15/80 9/10/81
f 12/14/82 16/16/83 11/12/84
f 17/17/85 11/12/86 16/16/87
f 15/15/88 17/17/89 16/16/90
