# This file uses centimeters as units for non-parametric coordinates.

v -0.181598 0.796181 0.311365
v 0.181057 0.780716 0.310753
v -0.167135 0.258263 0.314363
v 0.182072 0.272614 0.311852
v 0.006064 0.126276 0.310125
v 0.166939 0.025455 0.314127
v -0.167135 0.025463 0.314363
v 0.167177 -0.222390 0.314350
v -0.080242 0.930851 0.269659
v 0.225237 0.141822 0.238674
v 0.007323 -0.309103 0.306890
v -0.191281 -0.032737 0.297443
v -0.181623 -0.196042 0.309780
v -0.359251 0.447155 0.006542
v 0.206964 -0.307768 0.264914
v 0.034894 -0.355682 0.270283
v 0.021874 0.928345 0.312407
v -0.209253 0.852432 0.264513
v -0.137689 0.920658 0.262953
v 0.359234 0.636562 0.006587
v 0.109755 0.930702 0.226044
v 0.269756 0.930893 0.065762
v -0.217306 -0.218801 0.251495
v -0.035192 -0.366590 0.211309
v 0.350473 0.838875 0.019965
v 0.359196 -0.105948 0.006606
v -0.311105 0.281524 0.078840
v 0.240244 0.930943 -0.036973
v 0.333834 0.861225 -0.000875
v 0.359428 0.767399 -0.006253
v -0.358921 0.022226 0.006534
v -0.266238 0.921822 -0.020664
v -0.357801 -0.093138 0.006577
v 0.276381 -0.251793 -0.149370
v 0.235409 0.475813 -0.220680
v -0.308495 0.287303 -0.094473
v 0.123989 0.930550 -0.124728
v 0.269140 -0.282666 0.151823
v 0.006225 0.720860 -0.308763
v -0.249370 -0.179749 -0.195444
v -0.197095 0.928181 -0.196707
v 0.007270 0.918987 -0.232969
v -0.359386 0.767281 -0.006153
v 0.191294 -0.277666 -0.278250
v -0.167147 0.723911 -0.314362
v 0.181793 0.345442 -0.311758
v -0.050250 -0.339474 -0.239842
v -0.195093 -0.220366 -0.262434
v 0.181919 -0.120162 -0.312077
v -0.035709 0.765797 -0.312826
v -0.182021 0.622013 -0.311921
v -0.167198 -0.036013 -0.314038
vt 0.211594 0.300503
vt 0.211594 0.300503
vt 0.211594 0.300503
vt 0.211594 0.280533
vt 0.211594 0.300503
vt 0.211594 0.280533
vt 0.211594 0.300503
vt 0.211594 0.280533
vt 0.211594 0.300503
vt 0.211594 0.300503
vt 0.211594 0.280533
vt 0.211594 0.280534
vt 0.211594 0.280533
vt 0.211594 0.300503
vt 0.211594 0.280533
vt 0.211594 0.300503
vt 0.211594 0.300503
vt 0.211594 0.280533
vt 0.211594 0.280533
vt 0.211594 0.300503
vt 0.211594 0.280533
vt 0.211594 0.300503
vt 0.211594 0.280533
vt 0.211594 0.300503
vt 0.211594 0.280533
vt 0.211594 0.300503
vt 0.211594 0.300503
vt 0.211594 0.300503
vt 0.211594 0.300503
vt 0.211594 0.280533
vt 0.211594 0.300503
vt 0.211594 0.300503
vt 0.211594 0.300503
vt 0.211594 0.300503
vt 0.211594 0.300503
vt 0.211594 0.300503
vt 0.211594 0.300503
vt 0.211594 0.280533
vt 0.211594 0.300503
vt 0.211594 0.300503
vt 0.211594 0.300503
vt 0.211594 0.300503
vt 0.211594 0.300503
vt 0.211594 0.300503
vt 0.211594 0.300503
vt 0.211594 0.300503
vt 0.211594 0.300503
vt 0.211594 0.300503
vt 0.211594 0.300503
vt 0.211594 0.300503
vt 0.211594 0.300503
vt 0.211594 0.300503
vt 0.211594 0.280533
vt 0.211594 0.280533
vt 0.211594 0.280533
vt 0.211594 0.280533
vt 0.211594 0.280533
vt 0.211594 0.280533
vt 0.211594 0.280533
vt 0.211594 0.300503
vt 0.211594 0.280534
vt 0.211594 0.280534
vt 0.211594 0.280533
vt 0.211594 0.280533
vt 0.211594 0.280533
vt 0.211594 0.300503
vt 0.211594 0.280533
vt 0.211594 0.280533
vt 0.211594 0.280533
vt 0.211594 0.280533
vt 0.211594 0.280533
vt 0.211594 0.280533
vt 0.211594 0.300503
vt 0.211594 0.280533
vt 0.211594 0.280533
vt 0.211594 0.280533
vt 0.211594 0.280533
vt 0.211594 0.280533
vt 0.211594 0.280533
vt 0.211594 0.280533
vt 0.211594 0.280533
vt 0.211594 0.280533
vt 0.211594 0.280533
vt 0.211594 0.280533
vt 0.211594 0.280533
vt 0.211594 0.280533
vt 0.211594 0.280533
vt 0.211594 0.280533
vt 0.211594 0.280533
vt 0.211594 0.280533
vt 0.211594 0.280533
vt 0.211594 0.300503
vt 0.211594 0.280533
vt 0.211594 0.280533
vt 0.211594 0.280533
vt 0.211594 0.280533
vt 0.211594 0.300503
vt 0.211594 0.280533
vt 0.211594 0.280533
vt 0.211594 0.280533
vt 0.211594 0.280533
vt 0.211594 0.280533
vt 0.211594 0.280533
vt 0.211594 0.280533
vt 0.211594 0.300503
vt 0.211594 0.280533
vt 0.211594 0.280533
vt 0.211594 0.280533
vt 0.211594 0.300503
vt 0.211594 0.280533
vt 0.211594 0.280533
vt 0.211594 0.280533
vt 0.211594 0.280533
vt 0.211594 0.280533
vt 0.211594 0.280533
vt 0.211594 0.280533
vt 0.211594 0.280533
vt 0.211594 0.280533
vt 0.211594 0.280533
vt 0.211594 0.300503
vt 0.211594 0.280533
vt 0.211594 0.280533
vt 0.211594 0.300503
vt 0.211594 0.280533
vt 0.211594 0.300503
vt 0.211594 0.280534
vt 0.211594 0.280533
vt 0.211594 0.300503
vt 0.211594 0.280533
vt 0.211594 0.280533
vt 0.211594 0.300503
vt 0.211594 0.280533
vt 0.211594 0.280533
vt 0.211594 0.300503
vt 0.211594 0.280533
vt 0.211594 0.300503
vt 0.211594 0.280533
vt 0.211594 0.280533
vt 0.211594 0.280533
vn 0.001269 -0.009833 0.999951
vn 0.001269 -0.009833 0.999951
vn 0.001269 -0.009833 0.999951
vn 0.001781 0.002166 0.999996
vn 0.001781 0.002166 0.999996
vn 0.001781 0.002166 0.999996
vn 0.006956 0.005761 0.999959
vn 0.006956 0.005761 0.999959
vn 0.006956 0.005761 0.999959
vn 0.008075 -0.021505 0.999736
vn 0.008075 -0.021505 0.999736
vn 0.008075 -0.021505 0.999736
vn 0.024462 0.000000 0.999701
vn 0.024462 0.000000 0.999701
vn 0.024462 0.000000 0.999701
vn 0.251064 0.434932 0.864755
vn 0.251064 0.434932 0.864755
vn 0.251064 0.434932 0.864755
vn 0.000708 0.040787 0.999168
vn 0.000708 0.040787 0.999168
vn 0.000708 0.040787 0.999168
vn -0.573869 0.000000 0.818947
vn -0.573869 0.000000 0.818947
vn -0.573869 0.000000 0.818947
vn 0.000708 0.000901 0.999999
vn 0.000708 0.000901 0.999999
vn 0.000708 0.000901 0.999999
vn -0.611255 0.023612 0.791081
vn -0.611255 0.023612 0.791081
vn -0.611255 0.023612 0.791081
vn -0.014589 -0.019731 0.999699
vn -0.014589 -0.019731 0.999699
vn -0.014589 -0.019731 0.999699
vn -0.017177 -0.054223 0.998381
vn -0.017177 -0.054223 0.998381
vn -0.017177 -0.054223 0.998381
vn -0.285789 0.433250 0.854763
vn -0.285789 0.433250 0.854763
vn -0.285789 0.433250 0.854763
vn -0.414852 0.453197 0.788993
vn -0.414852 0.453197 0.788993
vn -0.414852 0.453197 0.788993
vn -0.853645 -0.020050 0.520469
vn -0.853645 -0.020050 0.520469
vn -0.853645 -0.020050 0.520469
vn -0.853961 -0.021295 0.519902
vn -0.853961 -0.021295 0.519902
vn -0.853961 -0.021295 0.519902
vn 0.863508 0.002815 0.504327
vn 0.863508 0.002815 0.504327
vn 0.863508 0.002815 0.504327
vn -0.850764 0.040125 0.524014
vn -0.850764 0.040125 0.524014
vn -0.850764 0.040125 0.524014
vn 0.310698 -0.383948 0.869512
vn 0.310698 -0.383948 0.869512
vn 0.310698 -0.383948 0.869512
vn 0.780142 0.001314 0.625601
vn 0.780142 0.001314 0.625601
vn 0.780142 0.001314 0.625601
vn -0.405266 -0.692531 0.596792
vn -0.405266 -0.692531 0.596792
vn -0.405266 -0.692531 0.596792
vn 0.189011 -0.424610 0.885427
vn 0.189011 -0.424610 0.885427
vn 0.189011 -0.424610 0.885427
vn -0.207752 0.812996 0.543946
vn -0.207752 0.812996 0.543946
vn -0.207752 0.812996 0.543946
vn 0.176446 -0.541546 0.821946
vn 0.176446 -0.541546 0.821946
vn 0.176446 -0.541546 0.821946
vn 0.009191 0.999287 0.036630
vn 0.009191 0.999287 0.036630
vn 0.009191 0.999287 0.036630
vn -0.850957 -0.010655 0.525128
vn -0.850957 -0.010655 0.525128
vn -0.850957 -0.010655 0.525128
vn 0.556153 0.593158 0.582114
vn 0.556153 0.593158 0.582114
vn 0.556153 0.593158 0.582114
vn -0.864673 0.019478 0.501957
vn -0.864673 0.019478 0.501957
vn -0.864673 0.019478 0.501957
vn -0.449682 -0.703698 0.550086
vn -0.449682 -0.703698 0.550086
vn -0.449682 -0.703698 0.550086
vn -0.392401 -0.700627 0.595939
vn -0.392401 -0.700627 0.595939
vn -0.392401 -0.700627 0.595939
vn -0.862602 -0.002746 0.505875
vn -0.862602 -0.002746 0.505875
vn -0.862602 -0.002746 0.505875
vn 0.788425 0.003857 0.615119
vn 0.788425 0.003857 0.615119
vn 0.788425 0.003857 0.615119
vn 0.569772 0.592497 0.569480
vn 0.569772 0.592497 0.569480
vn 0.569772 0.592497 0.569480
vn 0.872320 -0.006920 0.488887
vn 0.872320 -0.006920 0.488887
vn 0.872320 -0.006920 0.488887
vn -0.654879 0.693780 0.299671
vn -0.654879 0.693780 0.299671
vn -0.654879 0.693780 0.299671
vn -0.183916 0.979051 0.087377
vn -0.183916 0.979051 0.087377
vn -0.183916 0.979051 0.087377
vn 0.863795 0.002890 0.503835
vn 0.863795 0.002890 0.503835
vn 0.863795 0.002890 0.503835
vn 0.880364 -0.062254 0.470195
vn 0.880364 -0.062254 0.470195
vn 0.880364 -0.062254 0.470195
vn -0.633299 -0.773492 -0.025354
vn -0.633299 -0.773492 -0.025354
vn -0.633299 -0.773492 -0.025354
vn 0.753663 0.402506 0.519597
vn 0.753663 0.402506 0.519597
vn 0.753663 0.402506 0.519597
vn -0.867076 -0.008225 0.498107
vn -0.867076 -0.008225 0.498107
vn -0.867076 -0.008225 0.498107
vn -0.867719 -0.001378 0.497053
vn -0.867719 -0.001378 0.497053
vn -0.867719 -0.001378 0.497053
vn -0.876811 0.018683 0.480472
vn -0.876811 0.018683 0.480472
vn -0.876811 0.018683 0.480472
vn -0.000550 1.000000 0.000641
vn -0.000550 1.000000 0.000641
vn -0.000550 1.000000 0.000641
vn 0.207105 -0.976118 -0.065582
vn 0.207105 -0.976118 -0.065582
vn 0.207105 -0.976118 -0.065582
vn 0.767149 0.637508 0.071176
vn 0.767149 0.637508 0.071176
vn 0.767149 0.637508 0.071176
vn -0.808381 0.514159 0.286638
vn -0.808381 0.514159 0.286638
vn -0.808381 0.514159 0.286638
vn -0.982947 0.183683 -0.008679
vn -0.982947 0.183683 -0.008679
vn -0.982947 0.183683 -0.008679
vn 0.265691 -0.961700 -0.067386
vn 0.265691 -0.961700 -0.067386
vn 0.265691 -0.961700 -0.067386
vn -0.002961 0.999995 -0.000555
vn -0.002961 0.999996 -0.000555
vn -0.002961 0.999995 -0.000555
vn 0.631475 0.753966 -0.181038
vn 0.631475 0.753966 -0.181038
vn 0.631475 0.753966 -0.181038
vn 0.862420 0.003872 0.506179
vn 0.862420 0.003872 0.506179
vn 0.862420 0.003872 0.506179
vn 0.861528 -0.000031 0.507710
vn 0.861528 -0.000031 0.507710
vn 0.861528 -0.000031 0.507710
vn 0.881453 -0.471491 -0.027141
vn 0.881453 -0.471491 -0.027141
vn 0.881453 -0.471491 -0.027141
vn -0.000502 0.999984 -0.005599
vn -0.000502 0.999984 -0.005599
vn -0.000502 0.999984 -0.005599
vn 0.871315 0.261486 -0.415253
vn 0.871315 0.261486 -0.415253
vn 0.871315 0.261486 -0.415253
vn 0.964494 0.024374 0.262978
vn 0.964494 0.024374 0.262978
vn 0.964494 0.024374 0.262978
vn -0.957114 -0.288711 -0.024042
vn -0.957114 -0.288711 -0.024042
vn -0.957114 -0.288711 -0.024042
vn -0.064909 0.997835 0.010550
vn -0.064909 0.997835 0.010550
vn -0.064909 0.997835 0.010550
vn -0.007215 0.999974 -0.000728
vn -0.007215 0.999974 -0.000728
vn -0.007215 0.999974 -0.000728
vn -0.868925 -0.019980 -0.494541
vn -0.868925 -0.019980 -0.494541
vn -0.868925 -0.019980 -0.494541
vn 0.879916 -0.006116 -0.475090
vn 0.879916 -0.006116 -0.475090
vn 0.879916 -0.006116 -0.475090
vn 0.873890 -0.000057 -0.486124
vn 0.873890 -0.000057 -0.486124
vn 0.873890 -0.000057 -0.486124
vn -0.885279 -0.008769 -0.464978
vn -0.885279 -0.008769 -0.464978
vn -0.885279 -0.008769 -0.464978
vn -0.878733 0.022283 -0.476794
vn -0.878733 0.022283 -0.476794
vn -0.878733 0.022283 -0.476794
vn 0.262299 -0.962118 -0.074350
vn 0.262299 -0.962118 -0.074350
vn 0.262299 -0.962118 -0.074350
vn 0.559737 0.366615 -0.743161
vn 0.559737 0.366615 -0.743161
vn 0.559737 0.366615 -0.743161
vn 0.873148 0.024839 -0.486822
vn 0.873148 0.024839 -0.486822
vn 0.873148 0.024839 -0.486822
vn 0.556420 0.299845 -0.774913
vn 0.556420 0.299845 -0.774913
vn 0.556420 0.299845 -0.774913
vn 0.678828 0.225235 -0.698901
vn 0.678828 0.225235 -0.698901
vn 0.678828 0.225235 -0.698901
vn 0.890444 -0.045760 -0.452786
vn 0.890444 -0.045760 -0.452786
vn 0.890444 -0.045760 -0.452786
vn -0.646711 -0.762467 -0.020228
vn -0.646711 -0.762467 -0.020228
vn -0.646711 -0.762467 -0.020228
vn -0.632624 -0.774056 -0.024986
vn -0.632624 -0.774056 -0.024986
vn -0.632624 -0.774056 -0.024986
vn -0.882888 -0.010272 -0.469472
vn -0.882888 -0.010272 -0.469472
vn -0.882888 -0.010272 -0.469472
vn -0.827335 0.469750 -0.307979
vn -0.827335 0.469750 -0.307979
vn -0.827335 0.469750 -0.307979
vn 0.403769 -0.911026 -0.083677
vn 0.403770 -0.911026 -0.083677
vn 0.403769 -0.911026 -0.083677
vn 0.606963 0.303685 -0.734419
vn 0.606963 0.303685 -0.734419
vn 0.606963 0.303685 -0.734419
vn -0.618047 -0.785765 -0.024320
vn -0.618047 -0.785765 -0.024320
vn -0.618047 -0.785765 -0.024320
vn 0.021662 0.991374 -0.129258
vn 0.021662 0.991374 -0.129258
vn 0.021662 0.991374 -0.129258
vn 0.639800 0.271650 -0.718931
vn 0.639800 0.271650 -0.718931
vn 0.639800 0.271650 -0.718931
vn -0.132277 0.480089 -0.867189
vn -0.132277 0.480089 -0.867189
vn -0.132277 0.480089 -0.867189
vn -0.820812 0.189936 -0.538694
vn -0.820812 0.189936 -0.538694
vn -0.820812 0.189936 -0.538694
vn -0.836429 0.109234 -0.537079
vn -0.836429 0.109234 -0.537079
vn -0.836429 0.109234 -0.537079
vn -0.830443 0.015267 -0.556894
vn -0.830443 0.015267 -0.556894
vn -0.830443 0.015267 -0.556894
vn 0.239372 -0.969392 -0.054598
vn 0.239372 -0.969392 -0.054598
vn 0.239372 -0.969392 -0.054598
vn 0.861404 0.000580 -0.507921
vn 0.861404 0.000580 -0.507921
vn 0.861404 0.000580 -0.507921
vn 0.592566 0.283138 -0.754121
vn 0.592566 0.283138 -0.754121
vn 0.592566 0.283138 -0.754121
vn -0.790879 -0.051037 -0.609840
vn -0.790879 -0.051037 -0.609840
vn -0.790879 -0.051037 -0.609840
vn 0.838759 -0.066153 -0.540470
vn 0.838759 -0.066153 -0.540470
vn 0.838759 -0.066153 -0.540470
vn -0.099581 -0.214599 -0.971613
vn -0.099581 -0.214599 -0.971613
vn -0.099581 -0.214599 -0.971613
vn -0.145842 0.489178 -0.859904
vn -0.145842 0.489178 -0.859904
vn -0.145842 0.489178 -0.859904
vn -0.063589 -0.260079 -0.963491
vn -0.063589 -0.260079 -0.963491
vn -0.063589 -0.260079 -0.963491
vn -0.056691 -0.257683 -0.964565
vn -0.056691 -0.257683 -0.964565
vn -0.056691 -0.257683 -0.964565
vn 0.426211 0.321256 -0.845659
vn 0.426211 0.321256 -0.845659
vn 0.426211 0.321256 -0.845659
vn -0.852334 -0.017518 -0.522704
vn -0.852334 -0.017518 -0.522704
vn -0.852334 -0.017518 -0.522704
vn 0.031143 -0.061154 -0.997642
vn 0.031143 -0.061154 -0.997642
vn 0.031143 -0.061154 -0.997642
vn 0.031763 -0.028565 -0.999087
vn 0.031763 -0.028565 -0.999087
vn 0.031763 -0.028565 -0.999087
vn 0.010106 0.012704 -0.999868
vn 0.010106 0.012704 -0.999868
vn 0.010106 0.012704 -0.999868
vn 0.002944 0.003284 -0.999990
vn 0.002944 0.003284 -0.999990
vn 0.002944 0.003284 -0.999990
vn 0.005784 0.000686 -0.999983
vn 0.005784 0.000686 -0.999983
vn 0.005784 0.000686 -0.999983
s off
f 17/1/1 1/2/2 2/109/3
f 2/109/4 1/2/5 4/120/6
f 1/2/7 3/5/8 4/120/9
f 3/5/10 5/136/11 4/120/12
f 5/136/13 3/5/14 7/7/15
f 6/129/16 10/117/17 5/6/18
f 5/136/19 7/7/20 6/128/21
f 7/7/22 3/5/23 12/10/24
f 6/128/25 7/7/26 8/134/27
f 7/7/28 12/10/29 13/125/30
f 7/7/31 13/125/32 8/134/33
f 8/134/34 13/125/35 11/131/36
f 19/113/37 1/139/38 17/122/39
f 19/114/40 18/104/41 1/138/42
f 3/5/43 1/2/44 14/16/45
f 3/5/46 14/16/47 27/17/48
f 2/108/49 4/121/50 10/119/51
f 3/5/52 27/17/53 12/10/54
f 4/4/55 5/137/56 10/118/57
f 6/127/58 8/135/59 15/95/60
f 13/126/61 24/100/62 11/130/63
f 8/11/64 11/132/65 15/94/66
f 19/14/67 17/123/68 9/20/69
f 15/18/70 11/133/71 16/86/72
f 21/22/73 9/20/74 17/123/75
f 13/125/76 12/10/77 23/73/78
f 2/110/79 21/107/80 17/124/81
f 12/10/82 27/17/83 31/24/84
f 13/12/85 23/74/86 24/99/87
f 24/101/88 16/85/89 11/13/90
f 18/105/91 14/16/92 1/2/93
f 10/116/94 6/8/95 15/96/96
f 2/111/97 22/91/98 21/106/99
f 20/26/100 10/9/101 15/97/102
f 19/115/103 32/78/104 18/103/105
f 9/20/106 32/27/107 19/14/108
f 2/3/109 10/9/110 25/28/111
f 26/29/112 15/97/113 38/66/114
f 23/75/115 47/56/116 24/19/117
f 25/88/118 22/90/119 2/112/120
f 12/10/121 31/24/122 33/32/123
f 12/10/124 33/32/125 23/73/126
f 14/16/127 18/105/128 43/33/129
f 28/34/130 21/22/131 22/92/132
f 24/102/133 47/57/134 16/84/135
f 22/25/136 25/89/137 29/81/138
f 18/15/139 32/79/140 43/71/141
f 27/17/142 36/36/143 31/24/144
f 16/87/145 38/65/146 15/98/147
f 28/34/148 37/37/149 21/22/150
f 29/82/151 28/83/152 22/93/153
f 20/26/154 25/28/155 10/9/156
f 20/26/157 15/97/158 26/29/159
f 38/66/160 34/60/161 26/29/162
f 41/39/163 9/20/164 21/22/165
f 29/35/166 25/28/167 30/40/168
f 30/40/169 25/28/170 20/26/171
f 14/16/172 36/36/173 27/17/174
f 9/20/175 41/39/176 32/27/177
f 37/37/178 41/39/179 21/22/180
f 43/33/181 51/41/182 14/16/183
f 35/42/184 20/26/185 49/43/186
f 49/43/187 20/26/188 26/29/189
f 31/24/190 36/36/191 33/32/192
f 14/16/193 51/41/194 36/36/195
f 47/58/196 38/30/197 16/21/198
f 28/34/199 29/35/200 37/37/201
f 34/60/202 49/43/203 26/29/204
f 35/42/205 37/37/206 29/35/207
f 35/42/208 29/35/209 30/40/210
f 35/42/211 30/40/212 20/26/213
f 33/77/214 40/63/215 23/72/216
f 23/76/217 48/62/218 47/55/219
f 33/32/220 36/36/221 40/44/222
f 32/80/223 41/69/224 43/70/225
f 44/54/226 34/38/227 38/67/228
f 35/42/229 39/47/230 37/37/231
f 40/64/232 48/61/233 23/23/234
f 42/48/235 41/39/236 37/37/237
f 39/47/238 42/48/239 37/37/240
f 41/39/241 42/48/242 45/49/243
f 41/39/244 45/49/245 43/33/246
f 51/41/247 43/33/248 45/49/249
f 40/44/250 36/36/251 52/50/252
f 44/53/253 38/68/254 47/59/255
f 46/51/256 35/42/257 49/43/258
f 46/51/259 39/47/260 35/42/261
f 48/45/262 40/44/263 52/50/264
f 44/46/265 49/43/266 34/60/267
f 49/43/268 44/46/269 47/31/270
f 45/49/271 42/48/272 50/52/273
f 52/50/274 47/31/275 48/45/276
f 49/43/277 47/31/278 52/50/279
f 42/48/280 39/47/281 50/52/282
f 52/50/283 36/36/284 51/41/285
f 45/49/286 50/52/287 39/47/288
f 45/49/289 39/47/290 51/41/291
f 51/41/292 39/47/293 46/51/294
f 51/41/295 46/51/296 52/50/297
f 46/51/298 49/43/299 52/50/300
