# This file uses centimeters as units for non-parametric coordinates.

v -1.175232 0.000000 1.175226
v 1.175220 0.000000 1.175226
v -1.175232 0.237978 1.175226
v 1.175220 0.237978 1.175226
v -1.175232 0.237978 -1.175226
v 1.175220 0.237978 -1.175226
v -1.175232 0.000000 -1.175226
v 1.175220 0.000000 -1.175226
v -0.845671 0.237978 0.845667
v 0.845661 0.237978 0.845667
v 0.845661 0.237978 -0.845667
v -0.845671 0.237978 -0.845667
v -0.845671 0.550669 0.845667
v 0.845661 0.550669 0.845667
v 0.845661 0.550669 -0.845667
v -0.845671 0.550669 -0.845667
v -0.765903 0.625491 0.765898
v 0.765894 0.625491 0.765898
v 0.765894 0.625491 -0.765899
v -0.765903 0.625491 -0.765899
v -0.765903 1.131654 0.765898
v 0.765894 1.131654 0.765898
v 0.765894 1.131654 -0.765899
v -0.765903 1.131654 -0.765899
v -0.584524 1.336521 0.584519
v 0.584515 1.336521 0.584519
v 0.584515 1.336521 -0.584520
v -0.584524 1.336521 -0.584520
v -0.584524 2.014698 0.584519
v 0.584515 2.014698 0.584519
v 0.584515 2.014698 -0.584520
v -0.584524 2.014698 -0.584520
v -0.668198 2.149848 0.668193
v 0.668188 2.149848 0.668193
v 0.668188 2.149848 -0.668193
v -0.668198 2.149848 -0.668193
v -0.668198 2.440355 0.668193
v 0.668188 2.440355 0.668193
v 0.668188 2.440355 -0.668193
v -0.668198 2.440355 -0.668193
v -0.757362 2.440355 0.757356
v 0.757353 2.440355 0.757356
v 0.757353 2.440355 -0.757356
v -0.757362 2.440355 -0.757356
v -0.757362 2.557267 0.757356
v 0.757353 2.557267 0.757356
v 0.757353 2.557267 -0.757356
v -0.757362 2.557267 -0.757356
v -0.885033 2.557267 0.885026
v 0.885023 2.557267 0.885026
v 0.885023 2.557267 -0.885027
v -0.885033 2.557267 -0.885027
v -0.885033 2.753773 0.885026
v 0.885023 2.753773 0.885026
v 0.885023 2.753773 -0.885027
v -0.885033 2.753773 -0.885027
v -0.712934 2.753773 0.712930
v 0.712925 2.753773 0.712930
v 0.712925 2.753773 -0.712931
v -0.712934 2.753773 -0.712931
v -0.712934 3.187966 0.712930
v 0.712925 3.187966 0.712930
v 0.712925 3.187966 -0.712931
v -0.712934 3.187966 -0.712931
v -0.587999 3.307468 0.587994
v 0.587990 3.307468 0.587994
v 0.587990 3.307468 -0.587995
v -0.587999 3.307468 -0.587995
v -0.587999 3.510945 0.587994
v 0.587990 3.510945 0.587994
v 0.587990 3.510945 -0.587995
v -0.587999 3.510945 -0.587995
v -0.514759 3.573067 0.514755
v 0.514748 3.573067 0.514755
v 0.514748 3.573067 -0.514755
v -0.514759 3.573067 -0.514755
vt 0.197909 0.303024
vt 0.197909 0.303024
vt 0.197909 0.303024
vt 0.197909 0.303024
vt 0.197909 0.303024
vt 0.197909 0.303024
vt 0.197909 0.303024
vt 0.197909 0.303024
vt 0.197909 0.303024
vt 0.197909 0.303024
vt 0.197909 0.303024
vt 0.197909 0.303024
vt 0.197909 0.303024
vt 0.197909 0.303024
vt 0.197909 0.303024
vt 0.197909 0.303024
vt 0.197909 0.303024
vt 0.197909 0.303024
vt 0.197909 0.303024
vt 0.197909 0.303024
vt 0.197909 0.303024
vt 0.197909 0.303024
vt 0.197909 0.303024
vt 0.197909 0.303024
vt 0.197909 0.303024
vt 0.197909 0.303024
vt 0.197909 0.303024
vt 0.197909 0.303024
vt 0.197909 0.303024
vt 0.197909 0.303024
vt 0.197909 0.303024
vt 0.197909 0.303024
vt 0.197909 0.303024
vt 0.197909 0.303024
vt 0.197909 0.303024
vt 0.197909 0.303024
vt 0.197909 0.303024
vt 0.197909 0.303024
vt 0.197909 0.303024
vt 0.197909 0.303024
vt 0.197909 0.303024
vt 0.197909 0.303024
vt 0.197909 0.303024
vt 0.197909 0.303024
vt 0.197909 0.303024
vt 0.197909 0.303024
vt 0.197909 0.303024
vt 0.197909 0.303024
vt 0.197909 0.303024
vt 0.197909 0.303024
vt 0.197909 0.303024
vt 0.197909 0.303024
vt 0.197909 0.303024
vt 0.197909 0.303024
vt 0.197909 0.303024
vt 0.197909 0.303024
vt 0.197909 0.303024
vt 0.197909 0.303024
vt 0.197909 0.303024
vt 0.197909 0.303024
vt 0.197909 0.303024
vt 0.197909 0.303024
vt 0.197909 0.303024
vt 0.197909 0.303024
vt 0.197909 0.303024
vt 0.197909 0.303024
vt 0.197909 0.303024
vt 0.197909 0.303024
vt 0.197909 0.303024
vt 0.197909 0.303024
vt 0.197909 0.303024
vt 0.197909 0.303024
vt 0.197909 0.303024
vt 0.197909 0.303024
vt 0.197909 0.303024
vt 0.197909 0.303024
vn 0.000000 0.000000 1.000000
vn 0.000000 0.000000 1.000000
vn 0.000000 0.000000 1.000000
vn 0.000000 0.000000 1.000000
vn 0.000000 1.000000 0.000000
vn 0.000000 1.000000 0.000000
vn 0.000000 1.000000 0.000000
vn 0.000000 1.000000 0.000000
vn 0.000000 0.000000 -1.000000
vn 0.000000 0.000000 -1.000000
vn 0.000000 0.000000 -1.000000
vn 0.000000 0.000000 -1.000000
vn 0.000000 -1.000000 0.000000
vn 0.000000 -1.000000 0.000000
vn 0.000000 -1.000000 0.000000
vn 0.000000 -1.000000 0.000000
vn 1.000000 0.000000 0.000000
vn 1.000000 0.000000 0.000000
vn 1.000000 0.000000 0.000000
vn 1.000000 0.000000 0.000000
vn -1.000000 0.000000 0.000000
vn -1.000000 0.000000 0.000000
vn -1.000000 0.000000 0.000000
vn -1.000000 0.000000 0.000000
vn 0.000000 1.000000 -0.000000
vn 0.000000 1.000000 -0.000000
vn 0.000000 1.000000 -0.000000
vn 0.000000 1.000000 -0.000000
vn 0.000000 1.000000 0.000000
vn 0.000000 1.000000 0.000000
vn 0.000000 1.000000 0.000000
vn 0.000000 1.000000 0.000000
vn 0.000000 1.000000 0.000000
vn 0.000000 1.000000 0.000000
vn 0.000000 1.000000 0.000000
vn 0.000000 1.000000 0.000000
vn 0.000000 1.000000 0.000000
vn 0.000000 1.000000 0.000000
vn 0.000000 1.000000 0.000000
vn 0.000000 1.000000 0.000000
vn 0.000000 0.000000 1.000000
vn 0.000000 0.000000 1.000000
vn 0.000000 0.000000 1.000000
vn 0.000000 0.000000 1.000000
vn 1.000000 0.000000 0.000000
vn 1.000000 0.000000 0.000000
vn 1.000000 0.000000 0.000000
vn 1.000000 0.000000 0.000000
vn 0.000000 0.000000 -1.000000
vn 0.000000 0.000000 -1.000000
vn 0.000000 0.000000 -1.000000
vn 0.000000 0.000000 -1.000000
vn -1.000000 0.000000 0.000000
vn -1.000000 0.000000 0.000000
vn -1.000000 0.000000 0.000000
vn -1.000000 0.000000 0.000000
vn 0.000000 0.729359 0.684131
vn 0.000000 0.729359 0.684131
vn 0.000000 0.729359 0.684131
vn 0.000000 0.729359 0.684131
vn 0.684139 0.729351 0.000000
vn 0.684140 0.729351 0.000000
vn 0.684140 0.729351 0.000000
vn 0.684140 0.729351 0.000000
vn 0.000000 0.729355 -0.684135
vn 0.000000 0.729355 -0.684135
vn 0.000000 0.729355 -0.684135
vn 0.000000 0.729355 -0.684135
vn -0.684139 0.729351 0.000000
vn -0.684139 0.729351 0.000000
vn -0.684140 0.729351 0.000000
vn -0.684139 0.729351 0.000000
vn 0.000000 0.000000 1.000000
vn 0.000000 0.000000 1.000000
vn 0.000000 0.000000 1.000000
vn 0.000000 0.000000 1.000000
vn 1.000000 0.000000 0.000000
vn 1.000000 0.000000 0.000000
vn 1.000000 0.000000 0.000000
vn 1.000000 0.000000 0.000000
vn 0.000000 0.000000 -1.000000
vn 0.000000 0.000000 -1.000000
vn 0.000000 0.000000 -1.000000
vn 0.000000 0.000000 -1.000000
vn -1.000000 0.000000 0.000000
vn -1.000000 0.000000 0.000000
vn -1.000000 0.000000 0.000000
vn -1.000000 0.000000 0.000000
vn 0.000000 0.662882 0.748724
vn 0.000000 0.662882 0.748724
vn 0.000000 0.662882 0.748724
vn 0.000000 0.662882 0.748724
vn 0.748722 0.662884 0.000000
vn 0.748722 0.662884 0.000000
vn 0.748722 0.662884 0.000000
vn 0.748722 0.662884 0.000000
vn 0.000000 0.662882 -0.748724
vn 0.000000 0.662882 -0.748724
vn 0.000000 0.662882 -0.748724
vn 0.000000 0.662882 -0.748724
vn -0.748722 0.662884 0.000000
vn -0.748722 0.662884 0.000000
vn -0.748722 0.662884 0.000000
vn -0.748722 0.662884 0.000000
vn 0.000000 0.000000 1.000000
vn 0.000000 0.000000 1.000000
vn 0.000000 0.000000 1.000000
vn 0.000000 0.000000 1.000000
vn 1.000000 0.000000 0.000000
vn 1.000000 0.000000 0.000000
vn 1.000000 0.000000 0.000000
vn 1.000000 0.000000 0.000000
vn 0.000000 0.000000 -1.000000
vn 0.000000 0.000000 -1.000000
vn 0.000000 0.000000 -1.000000
vn 0.000000 0.000000 -1.000000
vn -1.000000 0.000000 0.000000
vn -1.000000 0.000000 0.000000
vn -1.000000 0.000000 0.000000
vn -1.000000 0.000000 0.000000
vn 0.000000 -0.526394 0.850241
vn 0.000000 -0.526394 0.850241
vn 0.000000 -0.526394 0.850241
vn 0.000000 -0.526394 0.850241
vn 0.850241 -0.526394 0.000000
vn 0.850241 -0.526394 0.000000
vn 0.850241 -0.526394 0.000000
vn 0.850241 -0.526394 0.000000
vn 0.000000 -0.526390 -0.850243
vn 0.000000 -0.526390 -0.850243
vn 0.000000 -0.526390 -0.850244
vn 0.000000 -0.526390 -0.850244
vn -0.850241 -0.526394 0.000000
vn -0.850241 -0.526394 0.000000
vn -0.850241 -0.526394 0.000000
vn -0.850241 -0.526394 0.000000
vn 0.000000 0.000000 1.000000
vn 0.000000 0.000000 1.000000
vn 0.000000 0.000000 1.000000
vn 0.000000 0.000000 1.000000
vn 1.000000 0.000000 0.000000
vn 1.000000 0.000000 0.000000
vn 1.000000 0.000000 0.000000
vn 1.000000 0.000000 0.000000
vn 0.000000 0.000000 -1.000000
vn 0.000000 0.000000 -1.000000
vn 0.000000 0.000000 -1.000000
vn 0.000000 0.000000 -1.000000
vn -1.000000 0.000000 0.000000
vn -1.000000 0.000000 0.000000
vn -1.000000 0.000000 0.000000
vn -1.000000 0.000000 0.000000
vn 0.000000 -1.000000 0.000001
vn 0.000000 -1.000000 0.000001
vn 0.000000 -1.000000 0.000001
vn 0.000000 -1.000000 0.000001
vn 0.000000 -1.000000 0.000000
vn 0.000000 -1.000000 0.000000
vn 0.000000 -1.000000 0.000000
vn 0.000000 -1.000000 0.000000
vn 0.000000 -1.000000 -0.000001
vn 0.000000 -1.000000 -0.000001
vn 0.000000 -1.000000 -0.000001
vn 0.000000 -1.000000 -0.000001
vn 0.000000 -1.000000 0.000000
vn 0.000000 -1.000000 0.000000
vn 0.000000 -1.000000 0.000000
vn 0.000000 -1.000000 0.000000
vn 0.000000 0.000000 1.000000
vn 0.000000 0.000000 1.000000
vn 0.000000 0.000000 1.000000
vn 0.000000 0.000000 1.000000
vn 1.000000 0.000000 0.000000
vn 1.000000 0.000000 0.000000
vn 1.000000 0.000000 0.000000
vn 1.000000 0.000000 0.000000
vn 0.000000 0.000000 -1.000000
vn 0.000000 0.000000 -1.000000
vn 0.000000 0.000000 -1.000000
vn 0.000000 0.000000 -1.000000
vn -1.000000 0.000000 0.000000
vn -1.000000 0.000000 0.000000
vn -1.000000 0.000000 0.000000
vn -1.000000 0.000000 0.000000
vn 0.000000 -1.000000 -0.000002
vn 0.000000 -1.000000 -0.000002
vn 0.000000 -1.000000 -0.000002
vn 0.000000 -1.000000 -0.000002
vn 0.000000 -1.000000 0.000000
vn 0.000000 -1.000000 0.000000
vn 0.000000 -1.000000 0.000000
vn 0.000000 -1.000000 0.000000
vn 0.000000 -1.000000 0.000002
vn 0.000000 -1.000000 0.000002
vn 0.000000 -1.000000 0.000002
vn 0.000000 -1.000000 0.000002
vn 0.000000 -1.000000 0.000000
vn 0.000000 -1.000000 0.000000
vn 0.000000 -1.000000 0.000000
vn 0.000000 -1.000000 0.000000
vn 0.000000 0.000000 1.000000
vn 0.000000 0.000000 1.000000
vn 0.000000 0.000000 1.000000
vn 0.000000 0.000000 1.000000
vn 1.000000 0.000000 0.000000
vn 1.000000 0.000000 0.000000
vn 1.000000 0.000000 0.000000
vn 1.000000 0.000000 0.000000
vn 0.000000 0.000000 -1.000000
vn 0.000000 0.000000 -1.000000
vn 0.000000 0.000000 -1.000000
vn 0.000000 0.000000 -1.000000
vn -1.000000 0.000000 0.000000
vn -1.000000 0.000000 0.000000
vn -1.000000 0.000000 0.000000
vn -1.000000 0.000000 0.000000
vn 0.000000 1.000000 0.000000
vn 0.000000 1.000000 0.000000
vn 0.000000 1.000000 0.000000
vn 0.000000 1.000000 0.000000
vn 0.000000 1.000000 0.000000
vn 0.000000 1.000000 0.000000
vn 0.000000 1.000000 0.000000
vn 0.000000 1.000000 0.000000
vn 0.000000 1.000000 -0.000000
vn 0.000000 1.000000 -0.000000
vn 0.000000 1.000000 -0.000000
vn 0.000000 1.000000 -0.000000
vn 0.000000 1.000000 0.000000
vn 0.000000 1.000000 0.000000
vn 0.000000 1.000000 0.000000
vn 0.000000 1.000000 0.000000
vn 0.000000 0.000000 1.000000
vn 0.000000 0.000000 1.000000
vn 0.000000 0.000000 1.000000
vn 0.000000 0.000000 1.000000
vn 1.000000 0.000000 0.000000
vn 1.000000 0.000000 0.000000
vn 1.000000 0.000000 0.000000
vn 1.000000 0.000000 0.000000
vn 0.000000 0.000000 -1.000000
vn 0.000000 0.000000 -1.000000
vn 0.000000 0.000000 -1.000000
vn 0.000000 0.000000 -1.000000
vn -1.000000 0.000000 0.000000
vn -1.000000 0.000000 0.000000
vn -1.000000 0.000000 0.000000
vn -1.000000 0.000000 0.000000
vn 0.000000 0.722647 0.691217
vn 0.000000 0.722647 0.691217
vn 0.000000 0.722647 0.691217
vn 0.000000 0.722647 0.691217
vn 0.691220 0.722644 0.000000
vn 0.691220 0.722644 0.000000
vn 0.691220 0.722644 0.000000
vn 0.691220 0.722644 0.000000
vn 0.000000 0.722647 -0.691217
vn 0.000000 0.722647 -0.691217
vn 0.000000 0.722647 -0.691217
vn 0.000000 0.722647 -0.691217
vn -0.691220 0.722644 0.000000
vn -0.691220 0.722644 0.000000
vn -0.691220 0.722644 0.000000
vn -0.691220 0.722644 0.000000
vn 0.000000 0.000000 1.000000
vn 0.000000 0.000000 1.000000
vn 0.000000 0.000000 1.000000
vn 0.000000 0.000000 1.000000
vn 1.000000 0.000000 0.000000
vn 1.000000 0.000000 0.000000
vn 1.000000 0.000000 0.000000
vn 1.000000 0.000000 0.000000
vn 0.000000 0.000000 -1.000000
vn 0.000000 0.000000 -1.000000
vn 0.000000 0.000000 -1.000000
vn 0.000000 0.000000 -1.000000
vn -1.000000 0.000000 0.000000
vn -1.000000 0.000000 0.000000
vn -1.000000 0.000000 0.000000
vn -1.000000 0.000000 0.000000
vn 0.000000 0.762608 0.646860
vn 0.000000 0.762608 0.646860
vn 0.000000 0.762608 0.646860
vn 0.000000 0.762608 0.646860
vn 0.646841 0.762625 0.000000
vn 0.646841 0.762625 0.000000
vn 0.646841 0.762625 0.000000
vn 0.646841 0.762625 0.000000
vn 0.000000 0.762612 -0.646856
vn 0.000000 0.762612 -0.646856
vn 0.000000 0.762612 -0.646856
vn 0.000000 0.762612 -0.646856
vn -0.646851 0.762616 0.000000
vn -0.646851 0.762617 0.000000
vn -0.646851 0.762617 0.000000
vn -0.646851 0.762617 0.000000
s off
f 1/1/1 2/2/2 4/3/3 3/4/4
f 73/5/5 74/6/6 75/7/7 76/8/8
f 5/9/9 6/10/10 8/11/11 7/12/12
f 7/12/13 8/11/14 2/2/15 1/1/16
f 2/2/17 8/11/18 6/10/19 4/3/20
f 7/12/21 1/1/22 3/4/23 5/9/24
f 3/4/25 4/3/26 10/13/27 9/14/28
f 4/3/29 6/10/30 11/15/31 10/13/32
f 6/10/33 5/9/34 12/16/35 11/15/36
f 5/9/37 3/4/38 9/14/39 12/16/40
f 9/14/41 10/13/42 14/17/43 13/18/44
f 10/13/45 11/15/46 15/19/47 14/17/48
f 11/15/49 12/16/50 16/20/51 15/19/52
f 12/16/53 9/14/54 13/18/55 16/20/56
f 13/18/57 14/17/58 18/21/59 17/22/60
f 14/17/61 15/19/62 19/23/63 18/21/64
f 15/19/65 16/20/66 20/24/67 19/23/68
f 16/20/69 13/18/70 17/22/71 20/24/72
f 17/22/73 18/21/74 22/25/75 21/26/76
f 18/21/77 19/23/78 23/27/79 22/25/80
f 19/23/81 20/24/82 24/28/83 23/27/84
f 20/24/85 17/22/86 21/26/87 24/28/88
f 21/26/89 22/25/90 26/29/91 25/30/92
f 22/25/93 23/27/94 27/31/95 26/29/96
f 23/27/97 24/28/98 28/32/99 27/31/100
f 24/28/101 21/26/102 25/30/103 28/32/104
f 25/30/105 26/29/106 30/33/107 29/34/108
f 26/29/109 27/31/110 31/35/111 30/33/112
f 27/31/113 28/32/114 32/36/115 31/35/116
f 28/32/117 25/30/118 29/34/119 32/36/120
f 29/34/121 30/33/122 34/37/123 33/38/124
f 30/33/125 31/35/126 35/39/127 34/37/128
f 31/35/129 32/36/130 36/40/131 35/39/132
f 32/36/133 29/34/134 33/38/135 36/40/136
f 33/38/137 34/37/138 38/41/139 37/42/140
f 34/37/141 35/39/142 39/43/143 38/41/144
f 35/39/145 36/40/146 40/44/147 39/43/148
f 36/40/149 33/38/150 37/42/151 40/44/152
f 37/42/153 38/41/154 42/45/155 41/46/156
f 38/41/157 39/43/158 43/47/159 42/45/160
f 39/43/161 40/44/162 44/48/163 43/47/164
f 40/44/165 37/42/166 41/46/167 44/48/168
f 41/46/169 42/45/170 46/49/171 45/50/172
f 42/45/173 43/47/174 47/51/175 46/49/176
f 43/47/177 44/48/178 48/52/179 47/51/180
f 44/48/181 41/46/182 45/50/183 48/52/184
f 45/50/185 46/49/186 50/53/187 49/54/188
f 46/49/189 47/51/190 51/55/191 50/53/192
f 47/51/193 48/52/194 52/56/195 51/55/196
f 48/52/197 45/50/198 49/54/199 52/56/200
f 49/54/201 50/53/202 54/57/203 53/58/204
f 50/53/205 51/55/206 55/59/207 54/57/208
f 51/55/209 52/56/210 56/60/211 55/59/212
f 52/56/213 49/54/214 53/58/215 56/60/216
f 53/58/217 54/57/218 58/61/219 57/62/220
f 54/57/221 55/59/222 59/63/223 58/61/224
f 55/59/225 56/60/226 60/64/227 59/63/228
f 56/60/229 53/58/230 57/62/231 60/64/232
f 57/62/233 58/61/234 62/65/235 61/66/236
f 58/61/237 59/63/238 63/67/239 62/65/240
f 59/63/241 60/64/242 64/68/243 63/67/244
f 60/64/245 57/62/246 61/66/247 64/68/248
f 61/66/249 62/65/250 66/69/251 65/70/252
f 62/65/253 63/67/254 67/71/255 66/69/256
f 63/67/257 64/68/258 68/72/259 67/71/260
f 64/68/261 61/66/262 65/70/263 68/72/264
f 65/70/265 66/69/266 70/73/267 69/74/268
f 66/69/269 67/71/270 71/75/271 70/73/272
f 67/71/273 68/72/274 72/76/275 71/75/276
f 68/72/277 65/70/278 69/74/279 72/76/280
f 69/74/281 70/73/282 74/6/283 73/5/284
f 70/73/285 71/75/286 75/7/287 74/6/288
f 71/75/289 72/76/290 76/8/291 75/7/292
f 72/76/293 69/74/294 73/5/295 76/8/296
