# This file uses centimeters as units for non-parametric coordinates.

v -0.011157 -0.858353 -0.036545
v 0.029824 -0.858353 -0.036509
v 0.050272 -0.858353 -0.001006
v 0.029824 -0.858353 0.034497
v -0.011160 -0.858353 0.034535
v -0.031685 -0.858353 -0.000998
v -0.167184 -0.001488 -0.289570
v 0.167184 -0.001488 -0.289570
v 0.334369 -0.001488 0.000001
v 0.167184 -0.001488 0.289573
v -0.167184 -0.001488 0.289573
v -0.334369 -0.001488 0.000001
v 0.005467 -1.001666 0.006242
v -0.000000 0.198506 0.000001
v 0.098304 -0.243575 0.143895
v 0.193541 -0.252725 -0.020714
v 0.098128 -0.243575 -0.184945
v -0.091800 -0.253509 -0.185388
v -0.187380 -0.260064 -0.020759
v -0.091745 -0.243575 0.143895
v 0.073058 -0.376932 0.109332
v 0.136191 -0.377879 0.000001
v 0.072712 -0.365873 -0.108815
v -0.052972 -0.365873 -0.108889
v -0.115878 -0.365873 0.000001
v -0.052972 -0.365873 0.108890
v 0.054539 -0.502532 0.084533
v 0.106230 -0.502532 -0.005075
v 0.054846 -0.514539 -0.095220
v -0.048912 -0.502532 -0.094646
v -0.101235 -0.513592 -0.005106
v -0.048942 -0.502532 0.084550
v 0.044028 -0.648932 0.055796
v 0.082633 -0.637872 -0.011898
v 0.043729 -0.637872 -0.079207
v -0.034209 -0.649879 -0.079705
v -0.072937 -0.637872 -0.011906
v -0.034049 -0.637872 0.055504
v 0.033013 -0.775851 0.057180
v 0.066024 -0.775851 0.000001
v 0.033013 -0.775851 -0.057179
v -0.033013 -0.775851 -0.057179
v -0.066024 -0.775851 0.000001
v -0.033154 -0.786910 0.057424
v 0.159801 -0.088835 0.266159
v -0.157159 -0.088835 0.266159
v -0.315638 -0.088835 -0.008335
v -0.157159 -0.088835 -0.282829
v 0.159801 -0.088835 -0.282829
v 0.318280 -0.088835 -0.008335
v -0.060463 -0.335297 0.128238
v -0.132153 -0.335297 0.004215
v -0.060494 -0.335297 -0.119873
v 0.082727 -0.335297 -0.119781
v 0.154934 -0.347304 0.004231
v 0.083059 -0.346356 0.128719
v -0.056909 -0.472713 0.094140
v -0.118645 -0.483772 -0.011828
v -0.056813 -0.472713 -0.117482
v 0.065653 -0.484719 -0.118157
v 0.126361 -0.472713 -0.011756
v 0.065365 -0.472713 0.094108
v -0.052309 -0.606277 0.062674
v -0.099554 -0.606277 -0.019373
v -0.052502 -0.618283 -0.101844
v 0.042372 -0.606277 -0.101260
v 0.089783 -0.606277 -0.019388
v 0.042719 -0.617336 0.063053
v -0.033194 -0.745485 0.080388
v -0.076423 -0.734426 0.004956
v -0.033059 -0.734426 -0.070150
v 0.053625 -0.734426 -0.070096
v 0.096891 -0.734426 0.004948
v 0.053590 -0.734426 0.079949
v -0.108725 -0.208243 0.174278
v -0.220970 -0.224732 -0.019393
v -0.108747 -0.218176 -0.213023
v 0.114704 -0.208243 -0.212694
v 0.226778 -0.217393 -0.019364
v 0.114859 -0.208243 0.174278
vt 0.212991 0.277585
vt 0.212991 0.277585
vt 0.212991 0.277585
vt 0.212991 0.277585
vt 0.212991 0.277585
vt 0.212991 0.277585
vt 0.212991 0.277585
vt 0.212991 0.277585
vt 0.212991 0.277585
vt 0.212991 0.277585
vt 0.212991 0.277585
vt 0.212991 0.277585
vt 0.212991 0.277585
vt 0.212991 0.277585
vt 0.212991 0.277585
vt 0.212991 0.277585
vt 0.212991 0.277585
vt 0.212991 0.277585
vt 0.212991 0.277585
vt 0.212991 0.277585
vt 0.212991 0.277585
vt 0.212991 0.277585
vt 0.212991 0.277585
vt 0.212991 0.277585
vt 0.212991 0.277585
vt 0.212991 0.277585
vt 0.212991 0.277585
vt 0.212991 0.277585
vt 0.212991 0.277585
vt 0.212991 0.277585
vt 0.212991 0.277585
vt 0.209547 0.251998
vt 0.212991 0.277585
vt 0.212991 0.277585
vt 0.212991 0.277585
vt 0.212991 0.277585
vt 0.212991 0.277585
vt 0.212991 0.277585
vt 0.209547 0.251998
vt 0.212991 0.277585
vt 0.212991 0.277585
vt 0.212991 0.277585
vt 0.212991 0.277585
vt 0.212991 0.277585
vt 0.212991 0.277585
vt 0.209547 0.251998
vt 0.212991 0.277585
vt 0.212991 0.277585
vt 0.212991 0.277585
vt 0.212991 0.277585
vt 0.212991 0.277585
vt 0.212991 0.277585
vt 0.209547 0.251998
vt 0.212991 0.277585
vt 0.212991 0.277585
vt 0.212991 0.277585
vt 0.209547 0.251998
vt 0.212991 0.277585
vt 0.212991 0.277585
vt 0.212991 0.277585
vt 0.212991 0.277585
vt 0.212991 0.277585
vt 0.212991 0.277585
vt 0.212991 0.277585
vt 0.212991 0.277585
vt 0.212991 0.277585
vt 0.212991 0.277585
vt 0.212991 0.277585
vt 0.212991 0.277585
vt 0.212991 0.277585
vt 0.209547 0.251998
vt 0.212991 0.277585
vt 0.212991 0.277585
vt 0.212991 0.277585
vt 0.212991 0.277585
vt 0.212991 0.277585
vt 0.212991 0.277585
vt 0.209547 0.251998
vt 0.212991 0.277585
vt 0.212991 0.277585
vt 0.212991 0.277585
vt 0.212991 0.277585
vt 0.212991 0.277585
vt 0.212991 0.277585
vt 0.209547 0.251998
vt 0.212991 0.277585
vt 0.212991 0.277585
vt 0.212991 0.277585
vt 0.212991 0.277585
vt 0.212991 0.277585
vt 0.212991 0.277585
vt 0.209547 0.251998
vt 0.212991 0.277585
vt 0.212991 0.277585
vt 0.212991 0.277585
vt 0.212991 0.277585
vt 0.212991 0.277585
vt 0.212991 0.277585
vt 0.209547 0.251998
vt 0.212991 0.277585
vt 0.212991 0.277585
vt 0.212991 0.277585
vt 0.212991 0.277585
vt 0.212991 0.277585
vt 0.212991 0.277585
vt 0.209547 0.251998
vt 0.209547 0.251998
vt 0.209547 0.251998
vt 0.212991 0.277585
vt 0.209547 0.251998
vt 0.209547 0.251998
vt 0.209547 0.251998
vt 0.209547 0.251998
vt 0.209547 0.251998
vt 0.209547 0.251998
vt 0.209547 0.251998
vt 0.209547 0.251998
vt 0.209547 0.251998
vt 0.209547 0.251998
vt 0.209547 0.251998
vt 0.212991 0.277585
vt 0.209547 0.251998
vt 0.209547 0.251998
vt 0.209547 0.251998
vt 0.209547 0.251998
vt 0.209547 0.251998
vt 0.209547 0.251998
vt 0.209547 0.251998
vt 0.209547 0.251998
vt 0.209547 0.251998
vt 0.209547 0.251998
vt 0.209547 0.251998
vt 0.212991 0.277585
vt 0.209547 0.251998
vt 0.209547 0.251998
vt 0.209547 0.251998
vt 0.209547 0.251998
vt 0.209547 0.251998
vt 0.209547 0.251998
vt 0.209547 0.251998
vt 0.209547 0.251998
vt 0.209547 0.251998
vt 0.209547 0.251998
vt 0.209547 0.251998
vt 0.212991 0.277585
vt 0.209547 0.251998
vt 0.209547 0.251998
vt 0.209547 0.251998
vt 0.209547 0.251998
vt 0.209547 0.251998
vt 0.209547 0.251998
vt 0.209547 0.251998
vt 0.209547 0.251998
vt 0.209547 0.251998
vt 0.209547 0.251998
vt 0.209547 0.251998
vt 0.212991 0.277585
vt 0.209547 0.251998
vt 0.209547 0.251998
vt 0.209547 0.251998
vt 0.209547 0.251998
vt 0.209547 0.251998
vt 0.209547 0.251998
vt 0.209547 0.251998
vt 0.209547 0.251998
vt 0.209547 0.251998
vt 0.209547 0.251998
vt 0.209547 0.251998
vt 0.212991 0.277585
vt 0.209547 0.251998
vt 0.209547 0.251998
vt 0.209547 0.251998
vt 0.209547 0.251998
vt 0.209547 0.251998
vt 0.209547 0.251998
vt 0.209547 0.251998
vt 0.209547 0.251998
vt 0.209547 0.251998
vt 0.209547 0.251998
vt 0.209547 0.251998
vt 0.209547 0.251998
vt 0.209547 0.251998
vt 0.209547 0.251998
vt 0.209547 0.251998
vt 0.212991 0.277585
vt 0.209547 0.251998
vt 0.209547 0.251998
vt 0.209547 0.251998
vt 0.209547 0.251998
vt 0.209547 0.251998
vt 0.209547 0.251998
vt 0.209547 0.251998
vt 0.209547 0.251998
vt 0.209547 0.251998
vt 0.209547 0.251998
vt 0.209547 0.251998
vt 0.212991 0.277585
vt 0.209547 0.251998
vt 0.209547 0.251998
vt 0.209547 0.251998
vt 0.209547 0.251998
vt 0.209547 0.251998
vt 0.209547 0.251998
vt 0.209547 0.251998
vt 0.209547 0.251998
vt 0.209547 0.251998
vt 0.209547 0.251998
vt 0.209547 0.251998
vt 0.212991 0.277585
vt 0.209547 0.251998
vt 0.209547 0.251998
vt 0.209547 0.251998
vt 0.209547 0.251998
vt 0.209547 0.251998
vt 0.209547 0.251998
vt 0.209547 0.251998
vt 0.209547 0.251998
vt 0.209547 0.251998
vt 0.209547 0.251998
vt 0.209547 0.251998
vt 0.212991 0.277585
vt 0.209547 0.251998
vt 0.209547 0.251998
vt 0.209547 0.251998
vt 0.209547 0.251998
vn 0.000328 -0.242803 -0.970076
vn 0.000328 -0.242803 -0.970076
vn 0.000328 -0.242803 -0.970076
vn 0.000328 -0.242803 -0.970076
vn 0.855491 -0.157010 -0.493440
vn 0.855491 -0.157010 -0.493440
vn 0.855491 -0.157010 -0.493440
vn 0.855491 -0.157010 -0.493440
vn 0.853812 -0.168720 0.492482
vn 0.853812 -0.168720 0.492482
vn 0.853812 -0.168720 0.492482
vn 0.853812 -0.168720 0.492482
vn 0.031445 -0.280180 0.959432
vn 0.031445 -0.280180 0.959432
vn 0.031445 -0.280180 0.959432
vn 0.031445 -0.280180 0.959432
vn -0.824407 -0.368363 0.429723
vn -0.824407 -0.368363 0.429723
vn -0.824407 -0.368363 0.429723
vn -0.824407 -0.368363 0.429723
vn -0.816257 -0.334077 -0.471293
vn -0.816257 -0.334077 -0.471293
vn -0.816257 -0.334077 -0.471293
vn -0.816257 -0.334077 -0.471293
vn 0.000847 -0.285986 -0.958233
vn 0.000847 -0.285986 -0.958233
vn 0.000847 -0.285986 -0.958233
vn 0.830881 -0.283961 -0.478543
vn 0.830881 -0.283961 -0.478543
vn 0.830881 -0.283961 -0.478543
vn 0.841529 -0.238576 0.484676
vn 0.841529 -0.238576 0.484676
vn 0.841529 -0.238576 0.484676
vn 0.000913 -0.193580 0.981084
vn 0.000913 -0.193580 0.981084
vn 0.000913 -0.193580 0.981084
vn -0.849235 -0.195371 0.490542
vn -0.849235 -0.195371 0.490541
vn -0.849234 -0.195371 0.490541
vn -0.840165 -0.242314 -0.485188
vn -0.840165 -0.242314 -0.485188
vn -0.840165 -0.242314 -0.485188
vn 0.000000 0.822827 -0.568292
vn 0.000000 0.822827 -0.568292
vn 0.000000 0.822827 -0.568292
vn 0.492154 0.822828 -0.284146
vn 0.492154 0.822828 -0.284146
vn 0.492154 0.822828 -0.284146
vn 0.492154 0.822828 0.284146
vn 0.492154 0.822828 0.284146
vn 0.492154 0.822828 0.284146
vn 0.000000 0.822827 0.568292
vn 0.000000 0.822827 0.568292
vn 0.000000 0.822827 0.568292
vn -0.492154 0.822828 0.284147
vn -0.492154 0.822827 0.284147
vn -0.492154 0.822827 0.284147
vn -0.492154 0.822827 -0.284147
vn -0.492154 0.822827 -0.284147
vn -0.492154 0.822828 -0.284147
vn 0.649675 -0.641182 0.408422
vn 0.701295 -0.576492 0.419336
vn 0.702636 -0.574669 0.419593
vn 0.649675 -0.641181 0.408422
vn 0.662579 -0.622612 -0.416346
vn 0.729921 -0.527043 -0.435247
vn 0.729877 -0.527113 -0.435236
vn 0.662579 -0.622612 -0.416346
vn 0.031094 -0.616470 -0.786764
vn 0.012559 -0.508500 -0.860971
vn 0.012337 -0.507160 -0.861764
vn 0.031094 -0.616470 -0.786764
vn -0.663997 -0.626566 -0.408072
vn -0.737145 -0.516718 -0.435453
vn -0.736808 -0.517299 -0.435334
vn -0.663997 -0.626566 -0.408072
vn -0.633563 -0.645229 0.426940
vn -0.696394 -0.576485 0.427435
vn -0.694409 -0.578843 0.427478
vn -0.633563 -0.645229 0.426940
vn 0.000000 -0.651993 0.758225
vn 0.000000 -0.615640 0.788028
vn 0.000000 -0.615551 0.788097
vn 0.000000 -0.651992 0.758226
vn 0.740584 -0.514875 0.431786
vn 0.740584 -0.514875 0.431786
vn 0.740584 -0.514875 0.431786
vn 0.740584 -0.514875 0.431786
vn 0.766966 -0.414642 -0.489729
vn 0.766966 -0.414642 -0.489729
vn 0.766966 -0.414642 -0.489729
vn 0.766966 -0.414642 -0.489729
vn 0.000581 -0.337860 -0.941196
vn 0.000581 -0.337860 -0.941196
vn 0.000581 -0.337860 -0.941196
vn 0.000581 -0.337860 -0.941196
vn -0.806113 -0.365237 -0.465601
vn -0.806113 -0.365237 -0.465601
vn -0.806113 -0.365237 -0.465601
vn -0.806113 -0.365237 -0.465601
vn -0.765242 -0.467808 0.442222
vn -0.765242 -0.467808 0.442222
vn -0.765242 -0.467808 0.442222
vn -0.765242 -0.467808 0.442222
vn -0.046643 -0.533169 0.844722
vn -0.046643 -0.533169 0.844722
vn -0.046643 -0.533169 0.844722
vn -0.046643 -0.533169 0.844722
vn 0.782875 -0.428274 0.451317
vn 0.782875 -0.428274 0.451317
vn 0.782875 -0.428274 0.451317
vn 0.782875 -0.428274 0.451317
vn 0.745332 -0.563549 -0.356221
vn 0.745332 -0.563549 -0.356221
vn 0.745332 -0.563549 -0.356221
vn 0.745332 -0.563549 -0.356221
vn -0.068630 -0.605313 -0.793024
vn -0.068630 -0.605313 -0.793024
vn -0.068630 -0.605313 -0.793024
vn -0.068630 -0.605313 -0.793024
vn -0.703184 -0.532145 -0.471545
vn -0.703184 -0.532145 -0.471545
vn -0.703184 -0.532145 -0.471545
vn -0.703184 -0.532145 -0.471545
vn -0.787991 -0.359339 0.499945
vn -0.787991 -0.359339 0.499945
vn -0.787991 -0.359339 0.499945
vn -0.787991 -0.359339 0.499945
vn 0.000209 -0.305952 0.952047
vn 0.000209 -0.305952 0.952047
vn 0.000209 -0.305952 0.952047
vn 0.000209 -0.305952 0.952047
vn 0.870801 -0.078728 0.485292
vn 0.870800 -0.078728 0.485292
vn 0.870800 -0.078728 0.485292
vn 0.870801 -0.078728 0.485292
vn 0.825927 -0.299136 -0.477873
vn 0.825927 -0.299136 -0.477873
vn 0.825927 -0.299136 -0.477873
vn 0.825927 -0.299136 -0.477873
vn 0.082147 -0.553879 -0.828535
vn 0.082147 -0.553879 -0.828535
vn 0.082147 -0.553879 -0.828535
vn 0.082147 -0.553879 -0.828535
vn -0.705500 -0.642018 -0.300139
vn -0.705500 -0.642018 -0.300139
vn -0.705500 -0.642018 -0.300139
vn -0.705500 -0.642018 -0.300139
vn -0.738682 -0.522606 0.425713
vn -0.738682 -0.522606 0.425713
vn -0.738682 -0.522606 0.425713
vn -0.738682 -0.522606 0.425713
vn -0.033451 -0.232288 0.972072
vn -0.033451 -0.232288 0.972072
vn -0.033451 -0.232288 0.972072
vn -0.033451 -0.232288 0.972072
vn 0.707813 -0.576202 0.408647
vn 0.707813 -0.576202 0.408647
vn 0.707813 -0.576202 0.408647
vn 0.707813 -0.576202 0.408647
vn 0.747250 -0.505766 -0.431067
vn 0.747250 -0.505766 -0.431067
vn 0.747250 -0.505766 -0.431067
vn 0.747250 -0.505766 -0.431067
vn 0.000333 -0.298308 -0.954469
vn 0.000333 -0.298308 -0.954469
vn 0.000333 -0.298308 -0.954470
vn 0.000333 -0.298308 -0.954470
vn -0.855476 -0.155621 -0.493906
vn -0.855476 -0.155621 -0.493906
vn -0.855476 -0.155621 -0.493906
vn -0.855476 -0.155621 -0.493906
vn -0.856155 -0.258609 0.447347
vn -0.856155 -0.258609 0.447347
vn -0.856155 -0.258609 0.447347
vn -0.856155 -0.258609 0.447347
vn 0.075613 -0.496173 0.864925
vn 0.075613 -0.496173 0.864925
vn 0.075613 -0.496173 0.864925
vn 0.075613 -0.496173 0.864925
vn 0.000000 -0.258914 0.965900
vn 0.000000 -0.258914 0.965900
vn 0.000000 -0.258914 0.965900
vn 0.000000 -0.258914 0.965900
vn -0.843353 -0.227320 0.486911
vn -0.843353 -0.227321 0.486911
vn -0.843352 -0.227321 0.486911
vn -0.843352 -0.227321 0.486911
vn -0.857895 -0.136698 -0.495307
vn -0.857896 -0.136699 -0.495307
vn -0.857895 -0.136699 -0.495307
vn -0.857895 -0.136698 -0.495307
vn 0.000000 -0.076950 -0.997035
vn 0.000000 -0.076950 -0.997035
vn 0.000000 -0.076950 -0.997035
vn 0.000000 -0.076950 -0.997035
vn 0.860663 -0.111105 -0.496905
vn 0.860663 -0.111105 -0.496905
vn 0.860663 -0.111105 -0.496905
vn 0.860663 -0.111105 -0.496905
vn 0.848007 -0.202924 0.489598
vn 0.848007 -0.202924 0.489598
vn 0.848007 -0.202924 0.489598
vn 0.848007 -0.202924 0.489598
vn -0.789755 -0.382445 0.479607
vn -0.789755 -0.382445 0.479607
vn -0.789755 -0.382445 0.479607
vn -0.789755 -0.382445 0.479607
vn -0.679865 -0.609592 -0.407654
vn -0.679865 -0.609591 -0.407654
vn -0.679865 -0.609591 -0.407654
vn -0.679865 -0.609592 -0.407654
vn 0.019183 -0.600376 -0.799488
vn 0.019183 -0.600376 -0.799488
vn 0.019183 -0.600376 -0.799488
vn 0.019183 -0.600376 -0.799488
vn 0.757817 -0.448768 -0.473625
vn 0.757817 -0.448768 -0.473625
vn 0.757817 -0.448768 -0.473625
vn 0.757817 -0.448768 -0.473625
vn 0.844097 -0.205815 0.495116
vn 0.844097 -0.205815 0.495116
vn 0.844097 -0.205815 0.495116
vn 0.844097 -0.205815 0.495116
vn -0.006631 -0.157099 0.987561
vn -0.006631 -0.157099 0.987561
vn -0.006631 -0.157099 0.987561
vn -0.006631 -0.157099 0.987561
vn -0.863742 -0.033699 0.502807
vn -0.863742 -0.033699 0.502807
vn -0.863742 -0.033699 0.502807
vn -0.863742 -0.033699 0.502807
vn -0.863916 0.070711 -0.498647
vn -0.863916 0.070711 -0.498647
vn -0.863916 0.070711 -0.498647
vn -0.863916 0.070711 -0.498647
vn 0.001416 0.079149 -0.996862
vn 0.001416 0.079149 -0.996862
vn 0.001416 0.079149 -0.996862
vn 0.001416 0.079149 -0.996862
vn 0.865988 -0.019106 -0.499700
vn 0.865988 -0.019106 -0.499700
vn 0.865988 -0.019106 -0.499700
vn 0.865988 -0.019106 -0.499700
vn 0.856306 -0.148724 0.494593
vn 0.856306 -0.148724 0.494592
vn 0.856306 -0.148724 0.494592
vn 0.856306 -0.148724 0.494592
vn -0.008131 -0.145874 0.989270
vn -0.008131 -0.145874 0.989270
vn -0.008131 -0.145874 0.989270
vn -0.008131 -0.145874 0.989270
vn -0.859590 -0.085324 0.503810
vn -0.859590 -0.085324 0.503810
vn -0.859590 -0.085324 0.503810
vn -0.859590 -0.085324 0.503810
vn -0.864215 0.059365 -0.499608
vn -0.864215 0.059365 -0.499608
vn -0.864215 0.059365 -0.499608
vn -0.864215 0.059365 -0.499608
vn 0.000048 0.063672 -0.997971
vn 0.000048 0.063672 -0.997971
vn 0.000048 0.063672 -0.997971
vn 0.000048 0.063672 -0.997971
vn 0.866894 -0.076974 -0.492513
vn 0.866894 -0.076974 -0.492513
vn 0.866894 -0.076974 -0.492513
vn 0.866894 -0.076974 -0.492513
vn 0.856798 -0.189366 0.479623
vn 0.856798 -0.189366 0.479623
vn 0.856798 -0.189366 0.479623
vn 0.856798 -0.189366 0.479623
vn -0.012584 -0.193735 0.980973
vn -0.012584 -0.193735 0.980973
vn -0.012584 -0.193735 0.980973
vn -0.012584 -0.193735 0.980973
vn -0.857507 0.113648 0.501762
vn -0.857507 0.113648 0.501762
vn -0.857507 0.113648 0.501762
vn -0.857507 0.113648 0.501762
vn -0.867705 -0.060774 -0.493350
vn -0.867705 -0.060774 -0.493350
vn -0.867705 -0.060774 -0.493350
vn -0.867705 -0.060774 -0.493350
vn 0.010761 -0.101876 -0.994739
vn 0.010761 -0.101876 -0.994739
vn 0.010761 -0.101876 -0.994739
vn 0.010761 -0.101876 -0.994739
vn 0.865343 0.041094 -0.499492
vn 0.865343 0.041094 -0.499492
vn 0.865343 0.041094 -0.499492
vn 0.865343 0.041094 -0.499492
vn 0.838140 0.221888 0.498284
vn 0.838140 0.221888 0.498284
vn 0.838140 0.221888 0.498284
vn 0.838140 0.221888 0.498284
vn 0.000863 0.246168 0.969227
vn 0.000863 0.246168 0.969227
vn 0.000863 0.246168 0.969227
vn 0.000863 0.246168 0.969227
vn -0.696394 -0.576485 0.427435
vn -0.704263 -0.567004 0.427223
vn -0.704263 -0.567004 0.427222
vn -0.694409 -0.578843 0.427478
vn -0.736808 -0.517299 -0.435334
vn -0.737145 -0.516718 -0.435453
vn -0.746666 -0.499966 -0.438776
vn -0.746666 -0.499966 -0.438776
vn 0.012337 -0.507160 -0.861764
vn 0.012559 -0.508500 -0.860971
vn 0.009539 -0.490194 -0.871561
vn 0.009539 -0.490194 -0.871561
vn 0.729877 -0.527113 -0.435236
vn 0.729921 -0.527043 -0.435247
vn 0.739405 -0.511632 -0.437621
vn 0.739405 -0.511632 -0.437621
vn 0.702636 -0.574669 0.419593
vn 0.701295 -0.576492 0.419336
vn 0.709567 -0.565120 0.420897
vn 0.709567 -0.565120 0.420897
vn 0.000000 -0.615551 0.788097
vn 0.000000 -0.615640 0.788028
vn 0.000000 -0.609832 0.792531
vn 0.000000 -0.609832 0.792531
s off
f 1/7/1 42/61/2 41/59/3 2/8/4
f 2/8/5 41/59/6 40/58/7 3/9/8
f 3/9/9 40/58/10 39/169/11 4/10/12
f 4/10/13 39/169/14 44/63/15 5/11/16
f 5/11/17 44/63/18 43/62/19 6/12/20
f 6/12/21 43/62/22 42/60/23 1/13/24
f 2/2/25 13/27/26 1/1/27
f 3/3/28 13/27/29 2/2/30
f 4/4/31 13/27/32 3/3/33
f 5/5/34 13/27/35 4/4/36
f 6/6/37 13/27/38 5/5/39
f 1/1/40 13/27/41 6/6/42
f 7/25/43 14/28/44 8/24/45
f 8/24/46 14/28/47 9/23/48
f 9/23/49 14/28/50 10/22/51
f 10/22/52 14/28/53 11/21/54
f 11/21/55 14/28/56 12/26/57
f 12/26/58 14/28/59 7/25/60
f 16/224/61 79/111/62 80/106/63 15/217/64
f 17/222/65 78/113/66 79/110/67 16/225/68
f 18/220/69 77/115/70 78/112/71 17/223/72
f 19/218/73 76/117/74 77/114/75 18/32/76
f 20/214/77 75/108/78 76/116/79 19/219/80
f 15/216/81 80/107/82 75/99/83 20/215/84
f 22/212/85 55/159/86 56/154/87 21/205/88
f 23/210/89 54/161/90 55/158/91 22/213/92
f 24/208/93 53/163/94 54/160/95 23/211/96
f 25/206/97 52/165/98 53/162/99 24/39/100
f 26/202/101 51/156/102 52/164/103 25/207/104
f 21/204/105 56/155/106 51/71/107 26/203/108
f 28/200/109 61/147/110 62/142/111 27/193/112
f 29/198/113 60/149/114 61/146/115 28/201/116
f 30/196/117 59/151/118 60/148/119 29/199/120
f 31/194/121 58/153/122 59/150/123 30/46/124
f 32/190/125 57/144/126 58/152/127 31/195/128
f 27/192/129 62/143/130 57/78/131 32/191/132
f 34/188/133 67/135/134 68/130/135 33/181/136
f 35/186/137 66/137/138 67/134/139 34/189/140
f 36/184/141 65/139/142 66/136/143 35/187/144
f 37/182/145 64/141/146 65/138/147 36/53/148
f 38/178/149 63/132/150 64/140/151 37/183/152
f 33/180/153 68/131/154 63/85/155 38/179/156
f 40/176/157 73/123/158 74/118/159 39/168/160
f 41/174/161 72/125/162 73/122/163 40/177/164
f 42/172/165 71/127/166 72/124/167 41/175/168
f 43/170/169 70/129/170 71/126/171 42/173/172
f 44/166/173 69/120/174 70/128/175 43/171/176
f 39/57/177 74/119/178 69/92/179 44/167/180
f 45/64/181 10/17/182 11/18/183 46/65/184
f 47/66/185 46/65/186 11/18/187 12/19/188
f 48/68/189 47/66/190 12/19/191 7/20/192
f 49/69/193 48/67/194 7/14/195 8/15/196
f 50/70/197 49/69/198 8/15/199 9/16/200
f 45/64/201 50/70/202 9/16/203 10/17/204
f 51/157/205 20/35/206 19/34/207 52/72/208
f 53/74/209 52/72/210 19/34/211 18/221/212
f 54/75/213 53/73/214 18/33/215 17/31/216
f 55/76/217 54/75/218 17/31/219 16/30/220
f 56/77/221 55/76/222 16/30/223 15/29/224
f 51/157/225 56/77/226 15/29/227 20/35/228
f 57/145/229 26/42/230 25/41/231 58/79/232
f 59/81/233 58/79/234 25/41/235 24/209/236
f 60/82/237 59/80/238 24/40/239 23/38/240
f 61/83/241 60/82/242 23/38/243 22/37/244
f 62/84/245 61/83/246 22/37/247 21/36/248
f 57/145/249 62/84/250 21/36/251 26/42/252
f 63/133/253 32/49/254 31/48/255 64/86/256
f 65/88/257 64/86/258 31/48/259 30/197/260
f 66/89/261 65/87/262 30/47/263 29/45/264
f 67/90/265 66/89/266 29/45/267 28/44/268
f 68/91/269 67/90/270 28/44/271 27/43/272
f 63/133/273 68/91/274 27/43/275 32/49/276
f 69/121/277 38/56/278 37/55/279 70/93/280
f 71/95/281 70/93/282 37/55/283 36/185/284
f 72/96/285 71/94/286 36/54/287 35/52/288
f 73/97/289 72/96/290 35/52/291 34/51/292
f 74/98/293 73/97/294 34/51/295 33/50/296
f 69/121/297 74/98/298 33/50/299 38/56/300
f 75/109/301 46/65/302 47/66/303 76/100/304
f 77/102/305 76/100/306 47/66/307 48/68/308
f 78/103/309 77/101/310 48/67/311 49/69/312
f 79/104/313 78/103/314 49/69/315 50/70/316
f 80/105/317 79/104/318 50/70/319 45/64/320
f 75/109/321 80/105/322 45/64/323 46/65/324
