# This file uses centimeters as units for non-parametric coordinates.

v -0.330147 0.000000 0.330144
v 0.330147 0.000000 0.330144
v -0.284678 0.140047 0.284677
v 0.284678 0.140047 0.284677
v -0.284678 0.140047 -0.284680
v 0.284678 0.140047 -0.284680
v -0.330147 0.000000 -0.330150
v 0.330147 0.000000 -0.330150
v -0.225374 0.140047 0.225371
v 0.225374 0.140047 0.225371
v 0.225374 0.140047 -0.225377
v -0.225374 0.140047 -0.225377
v -0.225374 0.621132 0.225371
v 0.225374 0.621132 0.225371
v 0.225374 0.621132 -0.225377
v -0.225374 0.621132 -0.225377
v -0.308949 0.658384 0.308951
v 0.308949 0.658384 0.308951
v 0.308949 0.658384 -0.308954
v -0.308949 0.658384 -0.308954
v -0.326298 0.824673 0.326293
v 0.326303 0.824673 0.326293
v 0.326303 0.824673 -0.326298
v -0.326298 0.824673 -0.326298
vt 0.198962 0.303024
vt 0.198962 0.303024
vt 0.198962 0.303024
vt 0.198962 0.303024
vt 0.198962 0.303024
vt 0.198962 0.303024
vt 0.198962 0.303024
vt 0.198962 0.303024
vt 0.198962 0.303024
vt 0.198962 0.303024
vt 0.198962 0.303024
vt 0.198962 0.303024
vt 0.198962 0.303024
vt 0.198962 0.303024
vt 0.198962 0.303024
vt 0.198962 0.303024
vt 0.198962 0.303024
vt 0.198962 0.303024
vt 0.198962 0.303024
vt 0.198962 0.303024
vt 0.198962 0.303024
vt 0.198962 0.303024
vt 0.198962 0.303024
vt 0.198962 0.303024
vn 0.000000 0.308792 0.951130
vn 0.000000 0.308792 0.951130
vn 0.000000 0.308792 0.951130
vn 0.000000 0.308792 0.951130
vn 0.000000 1.000000 0.000000
vn 0.000000 1.000000 0.000000
vn 0.000000 1.000000 0.000000
vn 0.000000 1.000000 0.000000
vn 0.000000 0.308806 -0.951125
vn 0.000000 0.308806 -0.951125
vn 0.000000 0.308806 -0.951125
vn 0.000000 0.308806 -0.951125
vn 0.000000 -1.000000 0.000000
vn 0.000000 -1.000000 0.000000
vn 0.000000 -1.000000 0.000000
vn 0.000000 -1.000000 0.000000
vn 0.951126 0.308803 0.000000
vn 0.951126 0.308803 0.000000
vn 0.951126 0.308803 0.000000
vn 0.951126 0.308803 0.000000
vn -0.951126 0.308803 0.000000
vn -0.951126 0.308803 0.000000
vn -0.951126 0.308803 0.000000
vn -0.951126 0.308803 0.000000
vn 0.000000 1.000000 0.000000
vn 0.000000 1.000000 0.000000
vn 0.000000 1.000000 0.000000
vn 0.000000 1.000000 0.000000
vn 0.000000 1.000000 0.000000
vn 0.000000 1.000000 0.000000
vn 0.000000 1.000000 0.000000
vn 0.000000 1.000000 0.000000
vn 0.000000 1.000000 -0.000000
vn 0.000000 1.000000 -0.000000
vn 0.000000 1.000000 -0.000000
vn 0.000000 1.000000 -0.000000
vn 0.000000 1.000000 0.000000
vn 0.000000 1.000000 0.000000
vn 0.000000 1.000000 0.000000
vn 0.000000 1.000000 0.000000
vn 0.000000 0.000000 1.000000
vn 0.000000 0.000000 1.000000
vn 0.000000 0.000000 1.000000
vn 0.000000 0.000000 1.000000
vn 1.000000 0.000000 0.000000
vn 1.000000 0.000000 0.000000
vn 1.000000 0.000000 0.000000
vn 1.000000 0.000000 0.000000
vn 0.000000 0.000000 -1.000000
vn 0.000000 0.000000 -1.000000
vn 0.000000 0.000000 -1.000000
vn 0.000000 0.000000 -1.000000
vn -1.000000 0.000000 0.000000
vn -1.000000 0.000000 0.000000
vn -1.000000 0.000000 0.000000
vn -1.000000 0.000000 0.000000
vn 0.000000 -0.913383 0.407101
vn 0.000000 -0.913383 0.407101
vn 0.000000 -0.913383 0.407101
vn 0.000000 -0.913383 0.407101
vn 0.407122 -0.913374 0.000000
vn 0.407122 -0.913374 0.000000
vn 0.407122 -0.913374 0.000000
vn 0.407122 -0.913374 0.000000
vn 0.000000 -0.913379 -0.407111
vn 0.000000 -0.913379 -0.407111
vn 0.000000 -0.913379 -0.407111
vn 0.000000 -0.913379 -0.407111
vn -0.407122 -0.913374 0.000000
vn -0.407122 -0.913374 0.000000
vn -0.407122 -0.913374 0.000000
vn -0.407122 -0.913374 0.000000
vn 0.000000 -0.103726 0.994606
vn 0.000000 -0.103726 0.994606
vn 0.000000 -0.103726 0.994606
vn 0.000000 -0.103726 0.994606
vn 0.994598 -0.103802 0.000000
vn 0.994598 -0.103802 0.000000
vn 0.994598 -0.103802 0.000000
vn 0.994598 -0.103802 0.000000
vn 0.000000 -0.103740 -0.994604
vn 0.000000 -0.103740 -0.994604
vn 0.000000 -0.103740 -0.994604
vn 0.000000 -0.103740 -0.994604
vn -0.994602 -0.103769 0.000000
vn -0.994601 -0.103769 0.000000
vn -0.994601 -0.103769 0.000000
vn -0.994601 -0.103769 0.000000
s off
f 1/1/1 2/2/2 4/3/3 3/4/4
f 21/5/5 22/6/6 23/7/7 24/8/8
f 5/9/9 6/10/10 8/11/11 7/12/12
f 7/12/13 8/11/14 2/2/15 1/1/16
f 2/2/17 8/11/18 6/10/19 4/3/20
f 7/12/21 1/1/22 3/4/23 5/9/24
f 3/4/25 4/3/26 10/13/27 9/14/28
f 4/3/29 6/10/30 11/15/31 10/13/32
f 6/10/33 5/9/34 12/16/35 11/15/36
f 5/9/37 3/4/38 9/14/39 12/16/40
f 9/14/41 10/13/42 14/17/43 13/18/44
f 10/13/45 11/15/46 15/19/47 14/17/48
f 11/15/49 12/16/50 16/20/51 15/19/52
f 12/16/53 9/14/54 13/18/55 16/20/56
f 13/18/57 14/17/58 18/21/59 17/22/60
f 14/17/61 15/19/62 19/23/63 18/21/64
f 15/19/65 16/20/66 20/24/67 19/23/68
f 16/20/69 13/18/70 17/22/71 20/24/72
f 17/22/73 18/21/74 22/6/75 21/5/76
f 18/21/77 19/23/78 23/7/79 22/6/80
f 19/23/81 20/24/82 24/8/83 23/7/84
f 20/24/85 17/22/86 21/5/87 24/8/88
