# This file uses centimeters as units for non-parametric coordinates.

v 0.264656 0.410324 0.524483
v 0.191895 0.086958 0.503438
v 0.111748 0.002857 0.463032
v -0.297756 0.320953 0.458585
v -0.308076 0.003679 0.472936
v -0.448434 0.003236 0.370960
v 0.242565 1.175210 0.478206
v 0.437332 0.002962 0.370780
v 0.396259 1.215420 0.384111
v -0.119928 1.451908 0.357955
v -0.059037 0.889314 0.417182
v -0.222763 1.113772 0.342937
v -0.443502 0.299139 0.337953
v -0.224783 0.951051 0.350256
v 0.165146 2.061797 0.356780
v -0.235235 1.930128 0.327998
v -0.232077 1.602612 0.336009
v -0.345846 0.887905 0.218222
v -0.344776 0.887839 -0.282022
v -0.265256 0.002740 -0.524485
v 0.351706 1.623487 0.318224
v -0.170236 2.060205 0.275744
v -0.345350 1.900068 0.218940
v 0.450155 0.460202 0.394392
v 0.131514 2.162493 0.303116
v 0.240348 2.209396 0.175546
v 0.291427 2.112784 0.226037
v 0.293961 2.093122 -0.282493
v -0.250616 2.038300 -0.267580
v -0.450156 0.003275 -0.314742
v -0.026707 2.209409 -0.268805
v 0.437241 0.003145 -0.304475
v 0.294194 1.595724 -0.281017
v 0.241393 2.414519 -0.327621
v 0.376269 0.870004 -0.313451
v -0.443674 0.298865 -0.323718
v 0.293410 2.317267 -0.378803
v -0.344606 1.899833 -0.281619
v 0.415949 0.542946 -0.323588
v -0.142591 0.888153 -0.375438
v -0.193003 1.195524 -0.351862
v -0.131136 1.899102 -0.379442
v -0.152231 1.631889 -0.371068
v -0.101805 1.206248 -0.381205
v -0.030348 1.501943 -0.382391
v -0.020041 1.175771 -0.389829
v 0.151825 1.492040 -0.413116
v 0.192283 0.000000 -0.491345
v -0.243116 0.300156 -0.506479
v 0.010058 0.646094 -0.474215
v 0.191265 0.555744 -0.491595
v -0.001449 0.066500 -0.492509
vt 0.211005 0.301100
vt 0.211005 0.301100
vt 0.211005 0.301100
vt 0.212483 0.277942
vt 0.211005 0.301100
vt 0.212483 0.277942
vt 0.211005 0.301100
vt 0.211005 0.301100
vt 0.211005 0.301100
vt 0.211005 0.301100
vt 0.211005 0.301100
vt 0.212483 0.277942
vt 0.211005 0.301100
vt 0.211005 0.301100
vt 0.212483 0.277942
vt 0.211005 0.301100
vt 0.211005 0.301100
vt 0.211005 0.301100
vt 0.211005 0.301100
vt 0.211005 0.301100
vt 0.212483 0.277942
vt 0.211005 0.301100
vt 0.211005 0.301100
vt 0.211005 0.301100
vt 0.211005 0.301100
vt 0.212483 0.277942
vt 0.212483 0.277942
vt 0.211005 0.301100
vt 0.211005 0.301100
vt 0.211005 0.301100
vt 0.211005 0.301100
vt 0.212483 0.277942
vt 0.211005 0.301100
vt 0.211005 0.301100
vt 0.211005 0.301100
vt 0.211005 0.301100
vt 0.211005 0.301100
vt 0.211005 0.301100
vt 0.211005 0.301100
vt 0.211005 0.301100
vt 0.211005 0.301100
vt 0.211005 0.301100
vt 0.211005 0.301100
vt 0.211005 0.301100
vt 0.211005 0.301100
vt 0.211005 0.301100
vt 0.211005 0.301100
vt 0.212483 0.277942
vt 0.211005 0.301100
vt 0.211005 0.301100
vt 0.211005 0.301100
vt 0.211005 0.301100
vt 0.212483 0.277942
vt 0.212483 0.277942
vt 0.212483 0.277942
vt 0.212483 0.277942
vt 0.212483 0.277942
vt 0.212483 0.277942
vt 0.212483 0.277942
vt 0.212483 0.277942
vt 0.212483 0.277942
vt 0.212483 0.277942
vt 0.212483 0.277942
vt 0.212483 0.277942
vt 0.212483 0.277942
vt 0.212483 0.277942
vt 0.212483 0.277942
vt 0.212483 0.277942
vt 0.211005 0.301100
vt 0.212483 0.277942
vt 0.212483 0.277942
vt 0.211005 0.301100
vt 0.212483 0.277942
vt 0.212483 0.277942
vt 0.212483 0.277942
vt 0.212483 0.277942
vt 0.212483 0.277942
vt 0.211005 0.301100
vt 0.212483 0.277942
vt 0.212483 0.277942
vt 0.212483 0.277942
vt 0.212483 0.277942
vt 0.212483 0.277942
vt 0.212483 0.277942
vt 0.211005 0.301100
vt 0.212483 0.277942
vt 0.212483 0.277942
vt 0.212483 0.277942
vt 0.211005 0.301100
vt 0.212483 0.277942
vt 0.212483 0.277942
vt 0.212483 0.277942
vt 0.212483 0.277942
vt 0.212483 0.277942
vt 0.212483 0.277942
vt 0.212483 0.277942
vt 0.211005 0.301100
vt 0.212483 0.277942
vt 0.212483 0.277942
vt 0.212483 0.277942
vt 0.212483 0.277942
vt 0.212483 0.277942
vt 0.212483 0.277942
vt 0.212483 0.277942
vt 0.211005 0.301100
vt 0.212483 0.277942
vt 0.212483 0.277942
vt 0.212483 0.277942
vt 0.211005 0.301100
vt 0.212483 0.277942
vt 0.212483 0.277942
vt 0.211005 0.301100
vn 0.508236 0.066627 0.858637
vn 0.508236 0.066627 0.858637
vn 0.508236 0.066627 0.858637
vn -0.125014 0.056321 0.990555
vn -0.125014 0.056321 0.990555
vn -0.125014 0.056321 0.990555
vn -0.123894 0.048862 0.991092
vn -0.123894 0.048862 0.991092
vn -0.123894 0.048862 0.991092
vn -0.051979 -0.053204 0.997230
vn -0.051979 -0.053204 0.997230
vn -0.051979 -0.053204 0.997230
vn -0.399765 0.232485 0.886645
vn -0.399765 0.232485 0.886645
vn -0.399765 0.232485 0.886645
vn 0.020201 -0.448551 0.893529
vn 0.020201 -0.448551 0.893529
vn 0.020201 -0.448551 0.893529
vn 0.428394 -0.154335 0.890314
vn 0.428394 -0.154335 0.890314
vn 0.428394 -0.154335 0.890314
vn -0.586985 0.055631 0.807684
vn -0.586985 0.055631 0.807684
vn -0.586985 0.055631 0.807684
vn 0.002401 -0.999997 0.001045
vn 0.002401 -0.999997 0.001045
vn 0.002401 -0.999997 0.001045
vn -0.303731 0.195491 0.932486
vn -0.303731 0.195491 0.932486
vn -0.303731 0.195491 0.932486
vn 0.564102 0.051474 0.824099
vn 0.564102 0.051474 0.824099
vn 0.564102 0.051474 0.824099
vn -0.643142 0.095474 0.759771
vn -0.643142 0.095474 0.759771
vn -0.643143 0.095474 0.759771
vn -0.001938 -0.999998 0.000859
vn -0.001938 -0.999998 0.000859
vn -0.001938 -0.999998 0.000859
vn 0.221177 -0.585493 0.779922
vn 0.221177 -0.585493 0.779922
vn 0.221177 -0.585493 0.779922
vn -0.235032 0.111718 0.965546
vn -0.235032 0.111718 0.965546
vn -0.235032 0.111718 0.965546
vn -0.283671 0.044666 0.957881
vn -0.283671 0.044666 0.957881
vn -0.283671 0.044666 0.957881
vn -0.324448 0.142691 0.935079
vn -0.324448 0.142691 0.935079
vn -0.324448 0.142691 0.935079
vn 0.583647 -0.058200 0.809919
vn 0.583647 -0.058200 0.809919
vn 0.583647 -0.058200 0.809919
vn 0.546488 0.160298 0.821983
vn 0.546488 0.160298 0.821983
vn 0.546488 0.160298 0.821983
vn 0.475823 0.190590 0.858643
vn 0.475823 0.190590 0.858643
vn 0.475822 0.190590 0.858644
vn -0.642259 0.201516 0.739523
vn -0.642259 0.201516 0.739523
vn -0.642259 0.201516 0.739523
vn -0.117578 0.056868 0.991434
vn -0.117578 0.056868 0.991434
vn -0.117578 0.056868 0.991434
vn -0.292698 0.046597 0.955069
vn -0.292698 0.046597 0.955069
vn -0.292698 0.046597 0.955069
vn 0.000320 -1.000000 -0.000003
vn 0.000320 -1.000000 -0.000003
vn 0.000320 -1.000000 -0.000003
vn -0.178357 0.010544 0.983909
vn -0.178357 0.010544 0.983909
vn -0.178357 0.010544 0.983909
vn -0.770195 0.247309 0.587909
vn -0.770195 0.247309 0.587909
vn -0.770195 0.247309 0.587909
vn -0.079402 0.023611 0.996563
vn -0.079402 0.023611 0.996563
vn -0.079402 0.023611 0.996563
vn -0.216878 0.401703 0.889718
vn -0.216878 0.401703 0.889718
vn -0.216878 0.401703 0.889718
vn -0.705101 0.010544 0.709028
vn -0.705101 0.010544 0.709028
vn -0.705101 0.010544 0.709028
vn -0.745771 0.039165 0.665050
vn -0.745771 0.039165 0.665050
vn -0.745771 0.039165 0.665050
vn -0.211356 0.453435 0.865867
vn -0.211356 0.453435 0.865867
vn -0.211356 0.453435 0.865867
vn 0.658517 0.216894 0.720633
vn 0.658517 0.216894 0.720633
vn 0.658517 0.216894 0.720633
vn 0.539538 0.529198 0.654865
vn 0.539538 0.529198 0.654865
vn 0.539538 0.529198 0.654865
vn 0.453985 0.589289 0.668308
vn 0.453985 0.589289 0.668308
vn 0.453985 0.589289 0.668308
vn -0.718842 -0.000140 0.695174
vn -0.718842 -0.000140 0.695173
vn -0.718842 -0.000140 0.695174
vn -0.708566 -0.003500 0.705636
vn -0.708566 -0.003500 0.705636
vn -0.708566 -0.003500 0.705636
vn -0.662179 0.539714 0.519834
vn -0.662179 0.539714 0.519834
vn -0.662179 0.539714 0.519834
vn -0.986590 0.163206 -0.002129
vn -0.986590 0.163206 -0.002129
vn -0.986590 0.163206 -0.002129
vn -0.685741 0.724251 0.072252
vn -0.685741 0.724251 0.072252
vn -0.685741 0.724251 0.072252
vn 0.995525 0.070185 -0.063280
vn 0.995525 0.070185 -0.063280
vn 0.995525 0.070185 -0.063280
vn 0.999607 -0.028023 -0.000144
vn 0.999607 -0.028023 -0.000144
vn 0.999607 -0.028023 -0.000144
vn -0.999853 0.016944 0.002512
vn -0.999853 0.016944 0.002512
vn -0.999853 0.016944 0.002512
vn 0.043483 0.925100 0.377226
vn 0.043483 0.925100 0.377226
vn 0.043483 0.925100 0.377226
vn 0.992048 0.121380 -0.033277
vn 0.992048 0.121380 -0.033277
vn 0.992048 0.121380 -0.033277
vn -0.330095 0.928963 0.167525
vn -0.330095 0.928963 0.167525
vn -0.330095 0.928963 0.167525
vn 0.808529 0.544329 0.223576
vn 0.808529 0.544329 0.223576
vn 0.808529 0.544329 0.223576
vn -0.002950 -0.999996 -0.000050
vn -0.002950 -0.999996 -0.000050
vn -0.002950 -0.999996 -0.000050
vn 0.992492 0.122306 0.000211
vn 0.992492 0.122306 0.000211
vn 0.992492 0.122306 0.000211
vn 0.989577 0.115746 -0.085672
vn 0.989577 0.115746 -0.085672
vn 0.989577 0.115746 -0.085672
vn -0.605987 0.793382 0.057664
vn -0.605987 0.793382 0.057664
vn -0.605986 0.793382 0.057664
vn -0.999759 0.021940 0.000248
vn -0.999759 0.021940 0.000248
vn -0.999759 0.021940 0.000248
vn 0.990778 0.092131 -0.099356
vn 0.990778 0.092131 -0.099356
vn 0.990778 0.092131 -0.099356
vn -0.986196 0.165581 0.000186
vn -0.986196 0.165581 0.000186
vn -0.986196 0.165581 0.000186
vn 0.999978 0.004518 0.004802
vn 0.999978 0.004518 0.004802
vn 0.999978 0.004518 0.004802
vn -0.999999 0.000491 -0.001487
vn -0.999999 0.000491 -0.001487
vn -0.999999 0.000491 -0.001487
vn 0.000661 -1.000000 -0.000270
vn 0.000661 -1.000000 -0.000270
vn 0.000661 -1.000000 -0.000270
vn 0.998349 0.037849 -0.043204
vn 0.998349 0.037849 -0.043204
vn 0.998349 0.037849 -0.043204
vn -0.561617 0.797397 0.220782
vn -0.561617 0.797397 0.220782
vn -0.561617 0.797397 0.220782
vn 0.995425 0.000190 -0.095541
vn 0.995426 0.000190 -0.095541
vn 0.995426 0.000190 -0.095541
vn 0.901941 0.408204 0.140971
vn 0.901941 0.408204 0.140971
vn 0.901941 0.408204 0.140971
vn -0.827319 0.561731 -0.001493
vn -0.827319 0.561731 -0.001493
vn -0.827319 0.561731 -0.001493
vn -0.999998 0.000170 -0.002137
vn -0.999998 0.000170 -0.002137
vn -0.999998 0.000170 -0.002137
vn -0.319338 0.411785 -0.853497
vn -0.319338 0.411785 -0.853497
vn -0.319338 0.411785 -0.853497
vn -0.389174 0.350532 -0.851863
vn -0.389174 0.350532 -0.851863
vn -0.389174 0.350532 -0.851863
vn 0.633799 0.105929 -0.766210
vn 0.633798 0.105929 -0.766211
vn 0.633798 0.105929 -0.766211
vn -0.418749 0.000433 -0.908102
vn -0.418749 0.000433 -0.908102
vn -0.418749 0.000433 -0.908102
vn -0.419421 0.000836 -0.907791
vn -0.419421 0.000836 -0.907791
vn -0.419421 0.000836 -0.907791
vn 0.680903 -0.001850 -0.732371
vn 0.680903 -0.001850 -0.732371
vn 0.680903 -0.001850 -0.732371
vn 0.605403 0.091767 -0.790611
vn 0.605403 0.091767 -0.790611
vn 0.605403 0.091767 -0.790611
vn 0.599548 0.097357 -0.794396
vn 0.599548 0.097357 -0.794396
vn 0.599548 0.097357 -0.794396
vn -0.007960 -0.999597 0.027252
vn -0.007960 -0.999597 0.027252
vn -0.007960 -0.999597 0.027252
vn -0.390286 0.256598 -0.884214
vn -0.390286 0.256598 -0.884214
vn -0.390286 0.256598 -0.884214
vn -0.416580 0.004390 -0.909088
vn -0.416580 0.004390 -0.909088
vn -0.416580 0.004390 -0.909088
vn -0.415837 0.133512 -0.899585
vn -0.415837 0.133512 -0.899585
vn -0.415837 0.133512 -0.899585
vn -0.673504 -0.007667 -0.739144
vn -0.673504 -0.007667 -0.739144
vn -0.673504 -0.007667 -0.739144
vn -0.422146 -0.000454 -0.906528
vn -0.422146 -0.000454 -0.906528
vn -0.422146 -0.000454 -0.906528
vn 0.928176 -0.144996 -0.342733
vn 0.928176 -0.144996 -0.342733
vn 0.928176 -0.144996 -0.342733
vn 0.598661 -0.004747 -0.800988
vn 0.598661 -0.004747 -0.800988
vn 0.598661 -0.004747 -0.800988
vn -0.419158 0.426775 -0.801355
vn -0.419158 0.426775 -0.801355
vn -0.419158 0.426775 -0.801355
vn -0.308580 0.022324 -0.950936
vn -0.308580 0.022324 -0.950936
vn -0.308580 0.022324 -0.950936
vn -0.004643 0.006244 -0.999970
vn -0.004643 0.006244 -0.999970
vn -0.004643 0.006244 -0.999970
vn -0.115723 -0.021993 -0.993038
vn -0.115723 -0.021993 -0.993038
vn -0.115723 -0.021993 -0.993038
vn -0.126089 -0.031856 -0.991507
vn -0.126089 -0.031856 -0.991507
vn -0.126089 -0.031856 -0.991507
vn -0.313151 0.071868 -0.946980
vn -0.313151 0.071868 -0.946980
vn -0.313151 0.071868 -0.946980
vn -0.097635 0.019601 -0.995029
vn -0.097635 0.019601 -0.995029
vn -0.097635 0.019601 -0.995029
vn -0.106494 -0.004371 -0.994304
vn -0.106494 -0.004371 -0.994304
vn -0.106494 -0.004371 -0.994304
vn -0.746590 0.095438 -0.658403
vn -0.746590 0.095438 -0.658403
vn -0.746590 0.095438 -0.658403
vn -0.162284 0.068772 -0.984345
vn -0.162284 0.068772 -0.984345
vn -0.162284 0.068772 -0.984345
vn -0.165377 0.017258 -0.986079
vn -0.165377 0.017258 -0.986079
vn -0.165377 0.017258 -0.986079
vn 0.606528 0.000754 -0.795062
vn 0.606528 0.000754 -0.795062
vn 0.606528 0.000754 -0.795062
vn -0.649580 0.269494 -0.710928
vn -0.649580 0.269494 -0.710928
vn -0.649580 0.269494 -0.710928
vn -0.259042 0.069833 -0.963338
vn -0.259042 0.069833 -0.963338
vn -0.259042 0.069833 -0.963338
vn 0.072033 0.192763 -0.978598
vn 0.072033 0.192763 -0.978598
vn 0.072033 0.192763 -0.978598
vn -0.394754 0.122638 -0.910565
vn -0.394754 0.122638 -0.910565
vn -0.394754 0.122638 -0.910565
vn -0.016739 0.156386 -0.987554
vn -0.016739 0.156386 -0.987554
vn -0.016739 0.156386 -0.987554
vn -0.218108 0.247664 -0.943976
vn -0.218108 0.247664 -0.943976
vn -0.218108 0.247664 -0.943976
vn -0.035916 0.118828 -0.992265
vn -0.035916 0.118828 -0.992265
vn -0.035916 0.118828 -0.992265
vn 0.005841 -0.000436 -0.999983
vn 0.005841 -0.000436 -0.999983
vn 0.005841 -0.000436 -0.999983
vn 0.043134 -0.015126 -0.998955
vn 0.043134 -0.015126 -0.998955
vn 0.043134 -0.015126 -0.998955
vn 0.107762 0.052081 -0.992812
vn 0.107762 0.052081 -0.992812
vn 0.107762 0.052081 -0.992812
s off
f 9/1/1 7/2/2 1/3/3
f 7/2/4 4/105/5 1/3/6
f 1/3/7 4/105/8 5/109/9
f 1/3/10 5/109/11 2/112/12
f 7/2/13 11/7/14 4/105/15
f 2/111/16 5/110/17 3/100/18
f 1/3/19 2/112/20 8/9/21
f 5/108/22 4/106/23 6/104/24
f 20/11/25 5/5/26 6/10/27
f 11/7/28 14/97/29 4/105/30
f 1/3/31 24/13/32 9/1/33
f 6/103/34 4/107/35 13/96/36
f 5/5/37 20/11/38 3/8/39
f 3/101/40 8/102/41 2/6/42
f 7/2/43 15/85/44 10/16/45
f 10/16/46 14/97/47 7/2/48
f 7/2/49 14/97/50 11/7/51
f 1/3/52 8/9/53 24/13/54
f 21/17/55 15/85/56 7/2/57
f 7/2/58 9/1/59 21/17/60
f 4/4/61 14/98/62 13/95/63
f 15/85/64 17/18/65 10/16/66
f 10/16/67 12/19/68 14/97/69
f 20/11/70 8/9/71 3/8/72
f 10/16/73 17/18/74 12/19/75
f 13/94/76 14/99/77 18/93/78
f 15/85/79 16/89/80 17/18/81
f 15/87/82 25/84/83 22/79/84
f 17/18/85 16/89/86 23/24/87
f 14/12/88 12/91/89 18/92/90
f 22/80/91 16/21/92 15/86/93
f 15/85/94 21/17/95 27/25/96
f 15/88/97 26/77/98 25/83/99
f 15/15/100 27/73/101 26/76/102
f 17/18/103 23/24/104 18/20/105
f 12/19/106 17/18/107 18/20/108
f 22/81/109 23/82/110 16/90/111
f 18/20/112 19/69/113 13/14/114
f 29/28/115 23/24/116 22/23/117
f 9/1/118 24/13/119 35/29/120
f 24/13/121 8/9/122 32/30/123
f 13/14/124 30/31/125 6/10/126
f 25/22/127 26/78/128 34/72/129
f 39/33/130 35/29/131 24/13/132
f 31/34/133 22/23/134 25/22/135
f 26/26/136 27/74/137 34/71/138
f 30/31/139 20/11/140 6/10/141
f 28/35/142 27/25/143 21/17/144
f 9/1/145 35/29/146 33/36/147
f 31/34/148 29/28/149 22/23/150
f 13/14/151 36/37/152 30/31/153
f 21/17/154 9/1/155 33/36/156
f 36/37/157 13/14/158 19/69/159
f 37/38/160 27/25/161 28/35/162
f 23/24/163 38/39/164 18/20/165
f 20/11/166 32/30/167 8/9/168
f 39/33/169 24/13/170 32/30/171
f 31/34/172 25/22/173 34/72/174
f 28/35/175 21/17/176 33/36/177
f 34/32/178 27/75/179 37/70/180
f 38/39/181 23/24/182 29/28/183
f 38/39/184 19/69/185 18/20/186
f 42/40/187 29/28/188 31/34/189
f 42/40/190 38/39/191 29/28/192
f 33/36/193 35/29/194 47/41/195
f 19/69/196 38/39/197 41/42/198
f 19/27/199 41/66/200 40/62/201
f 47/41/202 28/35/203 33/36/204
f 35/29/205 51/44/206 47/41/207
f 39/33/208 51/44/209 35/29/210
f 48/45/211 32/30/212 20/11/213
f 37/38/214 31/34/215 34/72/216
f 42/40/217 43/46/218 38/39/219
f 19/69/220 40/43/221 36/37/222
f 30/31/223 36/37/224 49/47/225
f 38/39/226 43/46/227 41/42/228
f 47/41/229 37/38/230 28/35/231
f 39/33/232 32/30/233 51/44/234
f 42/40/235 31/34/236 37/38/237
f 41/67/238 44/64/239 40/61/240
f 37/38/241 45/49/242 42/40/243
f 43/46/244 42/40/245 45/49/246
f 43/46/247 45/49/248 41/42/249
f 41/68/250 45/57/251 44/63/252
f 44/48/253 45/58/254 46/55/255
f 44/65/256 46/56/257 40/60/258
f 30/31/259 49/47/260 20/11/261
f 45/49/262 37/38/263 47/41/264
f 45/59/265 47/53/266 46/54/267
f 48/45/268 51/44/269 32/30/270
f 49/47/271 36/37/272 40/43/273
f 46/50/274 47/41/275 51/44/276
f 52/51/277 48/45/278 20/11/279
f 40/43/280 46/50/281 50/52/282
f 46/50/283 51/44/284 50/52/285
f 40/43/286 50/52/287 49/47/288
f 50/52/289 51/44/290 49/47/291
f 52/51/292 51/44/293 48/45/294
f 49/47/295 51/44/296 52/51/297
f 49/47/298 52/51/299 20/11/300
