# This file uses centimeters as units for non-parametric coordinates.

v 0.271336 -0.000000 -0.197136
v 0.103642 -0.000000 -0.318975
v -0.103642 -0.000000 -0.318975
v -0.271339 -0.000000 -0.197136
v -0.335392 -0.000000 0.000000
v -0.271339 -0.000000 0.197137
v -0.103642 -0.000000 0.318976
v 0.103642 -0.000000 0.318976
v 0.271336 -0.000000 0.197137
v 0.335392 -0.000000 0.000000
v 0.217072 3.039350 -0.157709
v 0.082912 3.039350 -0.255179
v -0.082909 3.039350 -0.255179
v -0.217064 3.039350 -0.157709
v -0.268311 3.039350 0.000000
v -0.217064 3.039350 0.157710
v -0.082909 3.039350 0.255180
v 0.082912 3.039350 0.255180
v 0.217072 3.039350 0.157710
v 0.268318 3.039350 0.000000
v 0.000000 -0.000000 0.000000
v 0.000000 3.039350 0.000000
v -0.239151 3.352352 0.361155
v -0.119549 3.352352 0.241559
v -0.287727 3.197715 0.418591
v -0.087036 3.093148 0.209044
v -0.407330 3.197715 0.298995
v -0.206638 3.093148 0.089448
v -0.358738 3.352352 0.241559
v -0.239151 3.352352 0.121960
v -0.335419 3.086259 0.221965
v -0.298943 3.352352 0.181757
v -0.179348 3.352352 0.301356
v -0.215816 3.086259 0.341564
v -0.361153 3.352352 -0.239148
v -0.241550 3.352352 -0.119551
v -0.418591 3.197715 -0.287731
v -0.209038 3.093148 -0.087040
v -0.298988 3.197715 -0.407330
v -0.089443 3.093148 -0.206636
v -0.241550 3.352352 -0.358747
v -0.121964 3.352352 -0.239148
v -0.224861 3.086259 -0.328174
v -0.181755 3.352352 -0.298949
v -0.301357 3.352352 -0.179348
v -0.344463 3.086259 -0.208575
v 0.361160 3.352352 0.239149
v 0.241558 3.352352 0.119553
v 0.418587 3.197715 0.287733
v 0.209049 3.093148 0.087041
v 0.299000 3.197715 0.407331
v 0.089447 3.093148 0.206636
v 0.241558 3.352352 0.358747
v 0.121960 3.352352 0.239149
v 0.230125 3.078732 0.339835
v 0.181767 3.352352 0.298948
v 0.301353 3.352352 0.179350
v 0.349728 3.078732 0.220237
v -0.377998 3.348246 0.378003
v 0.378002 3.348246 0.378003
v -0.377998 3.443153 0.378003
v 0.378002 3.443153 0.378003
v -0.377998 3.443153 -0.378002
v 0.378002 3.443153 -0.378002
v -0.377998 3.348246 -0.378002
v 0.378002 3.348246 -0.378002
v 0.000000 3.443153 0.337214
v 0.000000 3.443153 -0.337215
v 0.000000 3.348246 -0.337215
v 0.000000 3.348246 0.337214
v 0.337223 3.443153 0.000000
v 0.000000 3.443153 0.000000
v -0.337215 3.443153 0.000000
v -0.337215 3.348246 0.000000
v 0.337223 3.348246 0.000000
v -0.341717 3.219081 0.000000
v 0.000000 3.219081 0.341716
v -0.257591 3.219081 0.257599
v 0.341713 3.219081 0.000000
v 0.257599 3.219081 0.257599
v -0.257591 3.219081 -0.257598
v 0.000000 3.219081 -0.341715
v 0.257599 3.219081 -0.257598
v -0.246681 3.039682 0.000000
v 0.000000 3.039682 0.000000
v 0.000000 3.039682 0.246678
v -0.185947 3.039682 0.185956
v 0.246681 3.039682 0.000000
v 0.185959 3.039682 0.185956
v -0.185947 3.039682 -0.185955
v 0.000000 3.039682 -0.246677
v 0.185959 3.039682 -0.185955
v 0.239147 3.352352 -0.361154
v 0.119556 3.352352 -0.241557
v 0.287735 3.197715 -0.418590
v 0.087048 3.093148 -0.209044
v 0.407330 3.197715 -0.298993
v 0.206635 3.093148 -0.089447
v 0.358746 3.352352 -0.241557
v 0.239147 3.352352 -0.121959
v 0.338379 3.089204 -0.230436
v 0.298954 3.352352 -0.181756
v 0.179352 3.352352 -0.301356
v 0.218784 3.089204 -0.350036
vt 0.198962 0.303024
vt 0.198962 0.303024
vt 0.198962 0.303024
vt 0.198962 0.303024
vt 0.198962 0.303024
vt 0.198962 0.303024
vt 0.198962 0.303024
vt 0.198962 0.303024
vt 0.198962 0.303024
vt 0.198962 0.303024
vt 0.198962 0.303024
vt 0.198962 0.303024
vt 0.198962 0.303024
vt 0.198962 0.303024
vt 0.198962 0.303024
vt 0.198962 0.303024
vt 0.198962 0.303024
vt 0.198962 0.303024
vt 0.198962 0.303024
vt 0.198962 0.303024
vt 0.198962 0.303024
vt 0.198962 0.303024
vt 0.198962 0.303024
vt 0.198962 0.303024
vt 0.198962 0.303024
vt 0.198962 0.303024
vt 0.198962 0.303024
vt 0.198962 0.303024
vt 0.198962 0.303024
vt 0.198962 0.303024
vt 0.198962 0.303024
vt 0.198962 0.303024
vt 0.198962 0.303024
vt 0.198962 0.303024
vt 0.198962 0.303024
vt 0.198962 0.303024
vt 0.198962 0.303024
vt 0.198962 0.303024
vt 0.198962 0.303024
vt 0.198962 0.303024
vt 0.198962 0.303024
vt 0.198962 0.303024
vt 0.198962 0.303024
vt 0.198962 0.303024
vt 0.198962 0.303024
vt 0.198962 0.303024
vt 0.198962 0.303024
vt 0.198962 0.303024
vt 0.198962 0.303024
vt 0.198962 0.303024
vt 0.198962 0.303024
vt 0.198962 0.303024
vt 0.198962 0.303024
vt 0.198962 0.303024
vt 0.198962 0.303024
vt 0.198962 0.303024
vt 0.198962 0.303024
vt 0.198962 0.303024
vt 0.198962 0.303024
vt 0.198962 0.303024
vt 0.198962 0.303024
vt 0.198962 0.303024
vt 0.198962 0.303024
vt 0.198962 0.303024
vt 0.198962 0.303024
vt 0.198962 0.303024
vt 0.198962 0.303024
vt 0.198962 0.303024
vt 0.198962 0.303024
vt 0.198962 0.303024
vt 0.198962 0.303024
vt 0.198962 0.303024
vt 0.198962 0.303024
vt 0.198962 0.303024
vt 0.198962 0.303024
vt 0.198962 0.303024
vt 0.198962 0.303024
vt 0.198962 0.303024
vt 0.198962 0.303024
vt 0.198962 0.303024
vt 0.198962 0.303024
vt 0.198962 0.303024
vt 0.198962 0.303024
vt 0.198962 0.303024
vt 0.198962 0.303024
vt 0.198962 0.303024
vt 0.198962 0.303024
vt 0.198962 0.303024
vt 0.198962 0.303024
vt 0.198962 0.303024
vt 0.198962 0.303024
vt 0.198962 0.303024
vt 0.198962 0.303024
vt 0.198962 0.303024
vt 0.198962 0.303024
vt 0.198962 0.303024
vt 0.198962 0.303024
vt 0.198962 0.303024
vt 0.198962 0.303024
vt 0.198962 0.303024
vt 0.198962 0.303024
vt 0.198962 0.303024
vt 0.198962 0.303024
vt 0.198962 0.303024
vn 0.000000 -1.000000 0.000000
vn 0.000000 -1.000000 0.000000
vn 0.000000 -1.000000 0.000000
vn 0.000000 -1.000000 0.000000
vn 0.000000 -1.000000 0.000000
vn 0.000000 -1.000000 0.000000
vn 0.000000 -1.000000 0.000000
vn 0.000000 -1.000000 0.000000
vn 0.000000 -1.000000 0.000000
vn 0.000000 -1.000000 0.000000
vn 0.000000 -1.000000 0.000000
vn 0.000000 -1.000000 0.000000
vn 0.000000 -1.000000 0.000000
vn 0.000000 -1.000000 0.000000
vn 0.000000 -1.000000 0.000000
vn 0.000000 -1.000000 0.000000
vn 0.000000 -1.000000 0.000000
vn 0.000000 -1.000000 0.000000
vn 0.000000 -1.000000 0.000000
vn 0.000000 -1.000000 0.000000
vn 0.000000 -1.000000 0.000000
vn 0.000000 -1.000000 0.000000
vn 0.000000 -1.000000 0.000000
vn 0.000000 -1.000000 0.000000
vn 0.000000 -1.000000 0.000000
vn 0.000000 -1.000000 0.000000
vn 0.000000 -1.000000 0.000000
vn 0.000000 -1.000000 0.000000
vn 0.000000 -1.000000 0.000000
vn 0.000000 -1.000000 0.000000
vn 0.000000 1.000000 0.000000
vn 0.000000 1.000000 0.000000
vn 0.000000 1.000000 0.000000
vn 0.000000 1.000000 -0.000001
vn 0.000000 1.000000 -0.000001
vn 0.000000 1.000000 -0.000001
vn 0.000000 1.000000 0.000000
vn 0.000000 1.000000 0.000000
vn 0.000000 1.000000 0.000000
vn 0.000000 1.000000 0.000000
vn 0.000000 1.000000 0.000000
vn 0.000000 1.000000 0.000000
vn 0.000000 1.000000 0.000000
vn 0.000000 1.000000 0.000000
vn 0.000000 1.000000 0.000000
vn 0.000000 1.000000 0.000000
vn 0.000000 1.000000 0.000000
vn 0.000000 1.000000 0.000000
vn 0.000000 1.000000 0.000001
vn 0.000000 1.000000 0.000001
vn 0.000000 1.000000 0.000001
vn 0.000000 1.000000 0.000000
vn 0.000000 1.000000 0.000000
vn 0.000000 1.000000 0.000000
vn 0.000000 1.000000 0.000000
vn 0.000000 1.000000 0.000000
vn 0.000000 1.000000 0.000000
vn 0.000000 1.000000 0.000000
vn 0.000000 1.000000 0.000000
vn 0.000000 1.000000 0.000000
vn 0.950842 0.020984 0.308964
vn 0.950842 0.020984 0.308964
vn 0.950842 0.020984 0.308964
vn 0.950842 0.020984 0.308964
vn 0.587655 0.020985 0.808839
vn 0.587655 0.020985 0.808839
vn 0.587655 0.020985 0.808839
vn 0.587655 0.020985 0.808839
vn 0.000000 0.020985 0.999780
vn 0.000000 0.020985 0.999780
vn 0.000000 0.020985 0.999780
vn 0.000000 0.020985 0.999780
vn -0.587655 0.020986 0.808839
vn -0.587655 0.020986 0.808839
vn -0.587655 0.020986 0.808839
vn -0.587655 0.020986 0.808839
vn -0.950845 0.020987 0.308955
vn -0.950845 0.020987 0.308955
vn -0.950845 0.020987 0.308954
vn -0.950845 0.020987 0.308955
vn -0.950845 0.020987 -0.308957
vn -0.950845 0.020987 -0.308957
vn -0.950845 0.020987 -0.308957
vn -0.950844 0.020987 -0.308957
vn -0.587656 0.020986 -0.808839
vn -0.587656 0.020986 -0.808839
vn -0.587656 0.020986 -0.808839
vn -0.587656 0.020986 -0.808839
vn 0.000000 0.020985 -0.999780
vn 0.000000 0.020985 -0.999780
vn 0.000000 0.020985 -0.999780
vn 0.000000 0.020985 -0.999780
vn 0.587656 0.020985 -0.808839
vn 0.587656 0.020985 -0.808839
vn 0.587656 0.020985 -0.808839
vn 0.587656 0.020985 -0.808839
vn 0.950842 0.020984 -0.308966
vn 0.950842 0.020984 -0.308966
vn 0.950842 0.020984 -0.308966
vn 0.950842 0.020984 -0.308966
vn 0.725641 0.012983 0.687951
vn 0.725641 0.012983 0.687951
vn 0.717745 0.007507 0.696266
vn 0.717933 0.007636 0.696071
vn -0.513946 -0.686803 0.513966
vn -0.513946 -0.686803 0.513966
vn -0.236182 -0.942567 0.236190
vn -0.243371 -0.938902 0.243381
vn -0.725653 -0.012938 -0.687940
vn -0.725653 -0.012938 -0.687940
vn -0.717943 -0.007617 -0.696060
vn -0.717756 -0.007488 -0.696255
vn 0.000000 1.000000 -0.000001
vn 0.000000 1.000000 -0.000001
vn 0.000000 1.000000 -0.000001
vn 0.000000 1.000000 -0.000001
vn 0.696223 0.174662 -0.696252
vn 0.696223 0.174662 -0.696252
vn 0.696223 0.174662 -0.696252
vn 0.696223 0.174662 -0.696252
vn -0.636283 0.436235 0.636273
vn -0.636283 0.436235 0.636273
vn -0.636283 0.436235 0.636273
vn -0.636283 0.436235 0.636273
vn -0.717756 -0.007488 -0.696255
vn -0.717943 -0.007617 -0.696060
vn -0.713925 -0.004873 -0.700205
vn -0.713925 -0.004873 -0.700205
vn 0.000000 1.000000 -0.000001
vn 0.000000 1.000000 0.000000
vn 0.000000 1.000000 0.000000
vn 0.000000 1.000000 -0.000001
vn 0.717745 0.007507 0.696266
vn 0.713915 0.004879 0.700215
vn 0.713915 0.004879 0.700215
vn 0.717933 0.007636 0.696071
vn -0.236182 -0.942567 0.236190
vn 0.026345 -0.999306 -0.026347
vn 0.026345 -0.999306 -0.026347
vn -0.243371 -0.938902 0.243381
vn -0.704428 0.037255 0.708798
vn -0.704428 0.037255 0.708798
vn -0.688642 0.024524 0.724687
vn -0.689125 0.024909 0.724214
vn -0.506921 -0.697170 -0.506938
vn -0.506921 -0.697170 -0.506938
vn -0.236950 -0.942181 -0.236958
vn -0.242771 -0.939213 -0.242780
vn 0.704423 -0.037257 -0.708802
vn 0.704423 -0.037257 -0.708802
vn 0.689159 -0.024905 -0.724182
vn 0.688676 -0.024520 -0.724654
vn 0.000000 1.000000 0.000000
vn 0.000000 1.000000 0.000000
vn 0.000000 1.000000 0.000000
vn 0.000000 1.000000 0.000000
vn 0.696253 0.174668 0.696220
vn 0.696253 0.174668 0.696220
vn 0.696253 0.174668 0.696220
vn 0.696253 0.174668 0.696220
vn -0.636267 0.436239 -0.636286
vn -0.636267 0.436239 -0.636286
vn -0.636267 0.436239 -0.636286
vn -0.636267 0.436239 -0.636286
vn 0.688676 -0.024520 -0.724654
vn 0.689159 -0.024905 -0.724182
vn 0.680829 -0.018301 -0.732214
vn 0.680829 -0.018301 -0.732214
vn 0.000000 1.000000 0.000000
vn 0.000000 1.000000 0.000000
vn 0.000000 1.000000 0.000000
vn 0.000000 1.000000 0.000000
vn -0.688642 0.024524 0.724687
vn -0.680775 0.018307 0.732264
vn -0.680775 0.018307 0.732264
vn -0.689125 0.024909 0.724214
vn -0.236950 -0.942181 -0.236958
vn 0.026790 -0.999282 0.026790
vn 0.026790 -0.999282 0.026790
vn -0.242771 -0.939213 -0.242780
vn 0.693364 0.020815 -0.720286
vn 0.693364 0.020815 -0.720286
vn 0.693712 0.012925 -0.720136
vn 0.693708 0.013035 -0.720139
vn 0.549371 -0.629606 0.549353
vn 0.549371 -0.629606 0.549353
vn 0.236159 -0.942583 0.236149
vn 0.243469 -0.938856 0.243459
vn -0.693365 -0.020815 0.720286
vn -0.693365 -0.020815 0.720286
vn -0.693699 -0.013019 0.720147
vn -0.693704 -0.012908 0.720145
vn 0.000000 1.000000 0.000001
vn 0.000000 1.000000 0.000001
vn 0.000000 1.000000 0.000001
vn 0.000000 1.000000 0.000001
vn -0.696226 0.174656 -0.696251
vn -0.696226 0.174656 -0.696251
vn -0.696226 0.174656 -0.696251
vn -0.696226 0.174656 -0.696251
vn 0.636290 0.436228 0.636271
vn 0.636290 0.436228 0.636271
vn 0.636290 0.436228 0.636271
vn 0.636290 0.436228 0.636271
vn -0.693704 -0.012908 0.720145
vn -0.693699 -0.013019 0.720147
vn -0.693843 -0.009318 0.720066
vn -0.693843 -0.009318 0.720066
vn 0.000000 1.000000 0.000001
vn 0.000000 1.000000 0.000000
vn 0.000000 1.000000 0.000000
vn 0.000000 1.000000 0.000001
vn 0.693712 0.012925 -0.720136
vn 0.693856 0.009342 -0.720053
vn 0.693856 0.009342 -0.720053
vn 0.693708 0.013035 -0.720139
vn 0.236159 -0.942583 0.236149
vn -0.052491 -0.997241 -0.052493
vn -0.052491 -0.997241 -0.052493
vn 0.243469 -0.938856 0.243459
vn 0.107283 0.000000 0.994229
vn 0.000000 0.000000 1.000000
vn 0.107283 0.000000 0.994229
vn 0.107283 0.000000 0.994229
vn 0.000000 0.000000 1.000000
vn 0.000000 0.000000 1.000000
vn 0.000000 1.000000 -0.000000
vn 0.000000 1.000000 -0.000000
vn 0.000000 1.000000 -0.000000
vn 0.000000 1.000000 -0.000000
vn 0.000000 1.000000 -0.000000
vn 0.000000 1.000000 0.000000
vn 0.107279 0.000000 -0.994229
vn 0.000000 0.000000 -1.000000
vn 0.107279 0.000000 -0.994229
vn 0.107279 0.000000 -0.994229
vn 0.000000 0.000000 -1.000000
vn 0.000000 0.000000 -1.000000
vn 0.000000 -1.000000 0.000000
vn 0.000000 -1.000000 0.000000
vn 0.000000 -1.000000 0.000000
vn 0.000000 -1.000000 0.000000
vn 0.000000 -1.000000 0.000000
vn 0.000000 -1.000000 0.000000
vn 0.994231 0.000000 -0.107258
vn 1.000000 0.000000 -0.000000
vn 0.994231 0.000000 -0.107258
vn 0.994231 0.000000 -0.107258
vn 1.000000 0.000000 -0.000000
vn 1.000000 0.000000 0.000000
vn -1.000000 0.000000 -0.000000
vn -0.994230 0.000000 -0.107268
vn -1.000000 0.000000 -0.000000
vn -1.000000 0.000000 -0.000000
vn -0.994230 0.000000 -0.107268
vn -0.994230 0.000000 -0.107268
vn 0.000000 1.000000 0.000000
vn 0.000000 1.000000 0.000000
vn 0.000000 1.000000 -0.000000
vn 0.000000 1.000000 -0.000000
vn 0.000000 1.000000 0.000000
vn 0.000000 1.000000 0.000000
vn 0.000000 0.000000 -1.000000
vn 0.000000 0.000000 -1.000000
vn -0.107278 0.000000 -0.994229
vn -0.107278 0.000000 -0.994229
vn 0.000000 0.000000 -1.000000
vn -0.107278 0.000000 -0.994229
vn 0.000000 -1.000000 0.000000
vn 0.000000 -1.000000 0.000000
vn 0.000000 -1.000000 0.000001
vn 0.000000 -1.000000 0.000001
vn 0.000000 -1.000000 0.000000
vn 0.000000 -1.000000 0.000000
vn 0.000000 0.000000 1.000000
vn 0.000000 0.000000 1.000000
vn -0.107282 0.000000 0.994229
vn -0.107282 0.000000 0.994229
vn 0.000000 0.000000 1.000000
vn -0.107281 0.000000 0.994229
vn 0.000000 1.000000 0.000000
vn 0.000000 1.000000 0.000000
vn 0.000000 1.000000 0.000000
vn 0.000000 1.000000 0.000000
vn 0.000000 1.000000 0.000000
vn 0.000000 1.000000 0.000000
vn 0.000000 1.000000 0.000000
vn 0.000000 1.000000 0.000000
vn 0.000000 1.000000 -0.000000
vn 0.000000 1.000000 -0.000000
vn 0.000000 1.000000 0.000000
vn 0.000000 1.000000 0.000000
vn -0.994230 0.000000 0.107269
vn -1.000000 0.000000 -0.000000
vn -0.994230 0.000000 0.107268
vn -0.994230 0.000000 0.107268
vn -1.000000 0.000000 -0.000000
vn -1.000000 0.000000 -0.000000
vn 0.000000 -1.000000 0.000000
vn 0.000000 -1.000000 0.000000
vn 0.000000 -1.000000 -0.000000
vn 0.000000 -1.000000 -0.000000
vn 0.000000 -1.000000 0.000000
vn 0.000000 -1.000000 0.000000
vn 0.000000 -1.000000 0.000000
vn 0.000000 -1.000000 0.000000
vn 0.000000 -1.000000 -0.000001
vn 0.000000 -1.000000 -0.000001
vn 0.000000 -1.000000 0.000000
vn 0.000000 -1.000000 0.000000
vn 1.000000 0.000000 0.000000
vn 1.000000 0.000000 -0.000000
vn 0.994231 0.000000 0.107258
vn 0.994231 0.000000 0.107258
vn 1.000000 0.000000 -0.000000
vn 0.994231 0.000000 0.107258
vn 0.082683 -0.637200 0.766250
vn 0.032832 -0.571066 0.820247
vn -0.129101 -0.320878 0.938281
vn -0.129101 -0.320878 0.938281
vn 0.032832 -0.571066 0.820247
vn -0.310250 0.033114 0.950078
vn -0.766234 -0.637222 -0.082669
vn -0.938274 -0.320888 0.129124
vn -0.820233 -0.571088 -0.032817
vn -0.820233 -0.571088 -0.032817
vn -0.938274 -0.320888 0.129124
vn -0.950072 0.033110 0.310271
vn 0.766242 -0.637213 -0.082662
vn 0.820234 -0.571087 -0.032816
vn 0.938264 -0.320926 0.129101
vn 0.938264 -0.320926 0.129101
vn 0.820234 -0.571087 -0.032816
vn 0.950087 0.033026 0.310233
vn -0.082682 -0.637203 0.766248
vn 0.129102 -0.320870 0.938283
vn -0.032832 -0.571068 0.820246
vn -0.032832 -0.571068 0.820246
vn 0.129102 -0.320870 0.938283
vn 0.310241 0.033114 0.950081
vn 0.082680 -0.637203 -0.766248
vn -0.129102 -0.320888 -0.938277
vn 0.032829 -0.571070 -0.820245
vn 0.032829 -0.571070 -0.820245
vn -0.129102 -0.320888 -0.938277
vn -0.310250 0.033099 -0.950079
vn -0.766234 -0.637222 0.082669
vn -0.820233 -0.571088 0.032817
vn -0.938274 -0.320889 -0.129123
vn -0.938274 -0.320889 -0.129123
vn -0.820233 -0.571088 0.032817
vn -0.950071 0.033110 -0.310272
vn -0.082679 -0.637206 -0.766246
vn -0.032829 -0.571073 -0.820243
vn 0.129103 -0.320880 -0.938279
vn 0.129103 -0.320880 -0.938279
vn -0.032829 -0.571073 -0.820243
vn 0.310241 0.033100 -0.950082
vn 0.766242 -0.637213 0.082663
vn 0.938264 -0.320928 -0.129101
vn 0.820234 -0.571086 0.032816
vn 0.820234 -0.571086 0.032816
vn 0.938264 -0.320928 -0.129101
vn 0.950086 0.033026 -0.310235
vn -0.277249 -0.449778 0.849019
vn -0.277250 -0.449777 0.849019
vn -0.277250 -0.449776 0.849019
vn -0.277250 -0.449776 0.849019
vn -0.277250 -0.449777 0.849019
vn -0.277253 -0.449774 0.849020
vn -0.849011 -0.449783 0.277265
vn -0.849012 -0.449774 0.277276
vn -0.849012 -0.449775 0.277274
vn -0.849012 -0.449775 0.277274
vn -0.849012 -0.449774 0.277276
vn -0.849015 -0.449760 0.277291
vn 0.849033 -0.449761 0.277234
vn 0.849033 -0.449758 0.277238
vn 0.849033 -0.449758 0.277238
vn 0.849033 -0.449758 0.277238
vn 0.849033 -0.449758 0.277238
vn 0.849034 -0.449752 0.277245
vn 0.277243 -0.449772 0.849024
vn 0.277240 -0.449774 0.849024
vn 0.277241 -0.449773 0.849024
vn 0.277241 -0.449773 0.849024
vn 0.277240 -0.449774 0.849024
vn 0.277237 -0.449776 0.849024
vn -0.277249 -0.449778 -0.849019
vn -0.277250 -0.449776 -0.849019
vn -0.277250 -0.449777 -0.849019
vn -0.277250 -0.449777 -0.849019
vn -0.277250 -0.449776 -0.849019
vn -0.277253 -0.449774 -0.849020
vn -0.849010 -0.449783 -0.277267
vn -0.849011 -0.449776 -0.277275
vn -0.849012 -0.449774 -0.277277
vn -0.849012 -0.449774 -0.277277
vn -0.849011 -0.449776 -0.277275
vn -0.849014 -0.449760 -0.277292
vn 0.277243 -0.449772 -0.849024
vn 0.277241 -0.449774 -0.849024
vn 0.277240 -0.449774 -0.849024
vn 0.277240 -0.449774 -0.849024
vn 0.277241 -0.449774 -0.849024
vn 0.277237 -0.449776 -0.849024
vn 0.849032 -0.449762 -0.277236
vn 0.849032 -0.449758 -0.277240
vn 0.849032 -0.449759 -0.277239
vn 0.849032 -0.449759 -0.277239
vn 0.849032 -0.449758 -0.277240
vn 0.849033 -0.449752 -0.277247
vn -0.716694 0.026015 -0.696902
vn -0.716694 0.026015 -0.696902
vn -0.721333 0.016254 -0.692398
vn -0.721311 0.016300 -0.692419
vn 0.526630 -0.667338 -0.526612
vn 0.526630 -0.667338 -0.526612
vn 0.236796 -0.942262 -0.236789
vn 0.242875 -0.939163 -0.242867
vn 0.716724 -0.026022 0.696872
vn 0.716724 -0.026022 0.696872
vn 0.721291 -0.016316 0.692440
vn 0.721312 -0.016270 0.692419
vn 0.000000 1.000000 0.000000
vn 0.000000 1.000000 0.000000
vn 0.000000 1.000000 0.000000
vn 0.000000 1.000000 0.000000
vn -0.696263 0.174656 0.696214
vn -0.696263 0.174656 0.696214
vn -0.696263 0.174656 0.696214
vn -0.696263 0.174656 0.696214
vn 0.636277 0.436241 -0.636275
vn 0.636277 0.436241 -0.636275
vn 0.636277 0.436241 -0.636275
vn 0.636277 0.436241 -0.636275
vn 0.721312 -0.016270 0.692419
vn 0.721291 -0.016316 0.692440
vn 0.723384 -0.011797 0.690345
vn 0.723384 -0.011797 0.690345
vn 0.000000 1.000000 0.000000
vn 0.000000 1.000000 0.000000
vn 0.000000 1.000000 0.000000
vn 0.000000 1.000000 0.000000
vn -0.721333 0.016254 -0.692398
vn -0.723428 0.011776 -0.690300
vn -0.723428 0.011776 -0.690300
vn -0.721311 0.016300 -0.692419
vn 0.236796 -0.942262 -0.236789
vn -0.014459 -0.999791 0.014458
vn -0.014459 -0.999791 0.014458
vn 0.242875 -0.939163 -0.242867
s off
f 2/1/1 1/2/2 21/3/3
f 3/4/4 2/1/5 21/3/6
f 4/5/7 3/4/8 21/3/9
f 5/6/10 4/5/11 21/3/12
f 6/7/13 5/6/14 21/3/15
f 7/8/16 6/7/17 21/3/18
f 8/9/19 7/8/20 21/3/21
f 9/10/22 8/9/23 21/3/24
f 10/11/25 9/10/26 21/3/27
f 1/2/28 10/11/29 21/3/30
f 11/12/31 12/13/32 22/14/33
f 12/13/34 13/15/35 22/14/36
f 13/15/37 14/16/38 22/14/39
f 14/16/40 15/17/41 22/14/42
f 15/17/43 16/18/44 22/14/45
f 16/18/46 17/19/47 22/14/48
f 17/19/49 18/20/50 22/14/51
f 18/20/52 19/21/53 22/14/54
f 19/21/55 20/22/56 22/14/57
f 20/22/58 11/12/59 22/14/60
f 10/11/61 20/22/62 19/21/63 9/10/64
f 8/9/65 9/10/66 19/21/67 18/20/68
f 7/8/69 8/9/70 18/20/71 17/19/72
f 6/7/73 7/8/74 17/19/75 16/18/76
f 5/6/77 6/7/78 16/18/79 15/17/80
f 4/5/81 5/6/82 15/17/83 14/16/84
f 3/4/85 4/5/86 14/16/87 13/15/88
f 2/1/89 3/4/90 13/15/91 12/13/92
f 1/2/93 2/1/94 12/13/95 11/12/96
f 10/11/97 1/2/98 11/12/99 20/22/100
f 23/23/101 25/24/102 34/25/103 33/26/104
f 25/24/105 27/27/106 31/28/107 34/25/108
f 27/27/109 29/29/110 32/30/111 31/28/112
f 29/29/113 23/23/114 33/26/115 32/30/116
f 24/31/117 26/32/118 28/33/119 30/34/120
f 29/29/121 27/27/122 25/24/123 23/23/124
f 31/28/125 32/30/126 30/34/127 28/33/128
f 33/26/129 24/31/130 30/34/131 32/30/132
f 34/25/133 26/32/134 24/31/135 33/26/136
f 31/28/137 28/33/138 26/32/139 34/25/140
f 35/35/141 37/36/142 46/37/143 45/38/144
f 37/36/145 39/39/146 43/40/147 46/37/148
f 39/39/149 41/41/150 44/42/151 43/40/152
f 41/41/153 35/35/154 45/38/155 44/42/156
f 36/43/157 38/44/158 40/45/159 42/46/160
f 41/41/161 39/39/162 37/36/163 35/35/164
f 43/40/165 44/42/166 42/46/167 40/45/168
f 45/38/169 36/43/170 42/46/171 44/42/172
f 46/37/173 38/44/174 36/43/175 45/38/176
f 43/40/177 40/45/178 38/44/179 46/37/180
f 47/47/181 49/48/182 58/49/183 57/50/184
f 49/48/185 51/51/186 55/52/187 58/49/188
f 51/51/189 53/53/190 56/54/191 55/52/192
f 53/53/193 47/47/194 57/50/195 56/54/196
f 48/55/197 50/56/198 52/57/199 54/58/200
f 53/53/201 51/51/202 49/48/203 47/47/204
f 55/52/205 56/54/206 54/58/207 52/57/208
f 57/50/209 48/55/210 54/58/211 56/54/212
f 58/49/213 50/56/214 48/55/215 57/50/216
f 55/52/217 52/57/218 50/56/219 58/49/220
f 59/59/221 70/60/222 61/61/223
f 61/61/224 70/60/225 67/62/226
f 61/61/227 67/62/228 73/63/229
f 73/63/230 67/62/231 72/64/232
f 63/65/233 68/66/234 65/67/235
f 65/67/236 68/66/237 69/68/238
f 84/69/239 85/70/240 87/71/241
f 87/71/242 85/70/243 86/72/244
f 60/73/245 75/74/246 62/75/247
f 62/75/248 75/74/249 71/76/250
f 74/77/251 59/59/252 73/63/253
f 73/63/254 59/59/255 61/61/256
f 62/75/257 71/76/258 67/62/259
f 67/62/260 71/76/261 72/64/262
f 69/68/263 68/66/264 66/78/265
f 66/78/266 68/66/267 64/79/268
f 86/72/269 85/70/270 89/80/271
f 89/80/272 85/70/273 88/81/274
f 67/62/275 70/60/276 62/75/277
f 62/75/278 70/60/279 60/73/280
f 72/64/281 71/76/282 68/66/283
f 68/66/284 71/76/285 64/79/286
f 72/64/287 68/66/288 73/63/289
f 73/63/290 68/66/291 63/65/292
f 65/67/293 74/77/294 63/65/295
f 63/65/296 74/77/297 73/63/298
f 91/82/299 85/70/300 90/83/301
f 90/83/302 85/70/303 84/69/304
f 88/81/305 85/70/306 92/84/307
f 92/84/308 85/70/309 91/82/310
f 71/76/311 75/74/312 64/79/313
f 64/79/314 75/74/315 66/78/316
f 59/59/317 78/85/318 70/60/319
f 70/60/320 78/85/321 77/86/322
f 59/59/323 74/77/324 78/85/325
f 78/85/326 74/77/327 76/87/328
f 60/73/329 80/88/330 75/74/331
f 75/74/332 80/88/333 79/89/334
f 60/73/335 70/60/336 80/88/337
f 80/88/338 70/60/339 77/86/340
f 65/67/341 69/68/342 81/90/343
f 81/90/344 69/68/345 82/91/346
f 65/67/347 81/90/348 74/77/349
f 74/77/350 81/90/351 76/87/352
f 66/78/353 83/92/354 69/68/355
f 69/68/356 83/92/357 82/91/358
f 66/78/359 75/74/360 83/92/361
f 83/92/362 75/74/363 79/89/364
f 78/85/365 87/71/366 77/86/367
f 77/86/368 87/71/369 86/72/370
f 78/85/371 76/87/372 87/71/373
f 87/71/374 76/87/375 84/69/376
f 80/88/377 89/80/378 79/89/379
f 79/89/380 89/80/381 88/81/382
f 80/88/383 77/86/384 89/80/385
f 89/80/386 77/86/387 86/72/388
f 81/90/389 82/91/390 90/83/391
f 90/83/392 82/91/393 91/82/394
f 81/90/395 90/83/396 76/87/397
f 76/87/398 90/83/399 84/69/400
f 83/92/401 92/84/402 82/91/403
f 82/91/404 92/84/405 91/82/406
f 83/92/407 79/89/408 92/84/409
f 92/84/410 79/89/411 88/81/412
f 93/93/413 95/94/414 104/95/415 103/96/416
f 95/94/417 97/97/418 101/98/419 104/95/420
f 97/97/421 99/99/422 102/100/423 101/98/424
f 99/99/425 93/93/426 103/96/427 102/100/428
f 94/101/429 96/102/430 98/103/431 100/104/432
f 99/99/433 97/97/434 95/94/435 93/93/436
f 101/98/437 102/100/438 100/104/439 98/103/440
f 103/96/441 94/101/442 100/104/443 102/100/444
f 104/95/445 96/102/446 94/101/447 103/96/448
f 101/98/449 98/103/450 96/102/451 104/95/452
