# This file uses centimeters as units for non-parametric coordinates.

v -0.174492 -0.000000 -0.652218
v 1.459785 4.479899 0.490339
v 5.619652 4.479899 0.533604
v -0.537781 6.436584 -0.673603
v 3.190941 4.479899 1.039974
v 2.897728 10.330655 0.084183
v 2.893730 -0.000000 0.923309
v -0.000008 10.000001 0.084183
v 4.719398 2.460805 0.613998
v 1.457649 2.464017 0.716518
v 2.049210 2.463903 0.615765
v 1.747452 8.324174 0.833458
v 0.532822 -0.000000 0.620409
v 5.117165 9.964794 -0.787704
v 2.043358 10.414153 0.122942
v 3.107475 9.262647 0.372295
v -0.197403 8.047263 -0.082533
v 3.942436 -0.000000 -0.558937
v 4.361885 2.463482 0.534622
v 5.364372 3.361703 -1.027102
v 5.258553 9.395324 0.635792
v 4.999992 -0.000000 0.000000
v 5.245370 0.070734 -0.934000
v 1.752296 9.150081 0.559011
v 4.999992 10.000001 0.084183
v 4.345802 10.079360 0.110699
v 3.540031 6.767055 0.773043
v 0.373688 10.058167 -1.145916
v 2.898567 6.780427 0.877665
v 0.217125 6.824388 0.562029
v 4.146721 6.785529 0.857485
v 5.564766 5.550797 0.254602
v 1.042030 6.147018 0.687216
v 2.600647 -0.000000 0.673172
v 4.349297 -0.000000 0.808666
v 5.357811 1.437871 -0.764034
v -0.350227 2.523216 0.038759
v 3.456169 2.777736 1.259483
v 0.827431 1.841125 0.637892
v -0.129433 -0.000000 0.261503
v 5.734093 1.446104 0.315649
v 1.702385 1.766514 0.948088
v 0.528450 8.196568 0.310373
v 2.481621 4.087320 0.536636
v 3.711510 -0.000000 0.729916
v 2.049210 6.495896 1.006710
v 4.053307 -0.000000 0.438068
v 2.658470 10.284197 0.492985
v 2.991600 10.479950 -0.976389
v 5.491310 1.647690 0.642731
v 5.812584 2.756312 0.119188
v 3.214165 8.167691 0.576586
v 2.867714 8.990684 0.393291
v 4.095757 6.098007 0.804419
v 3.821388 6.773375 0.877785
v 0.196571 4.849059 0.529621
v 0.763824 5.718632 1.059097
v 0.373688 -0.000000 -1.060223
v 1.484955 6.806153 1.038174
v 2.044556 -0.000000 0.771748
v 3.975822 4.479899 0.800655
v 1.333275 -0.000000 -0.698042
v 1.208214 -0.000000 0.438448
v 2.591919 2.463779 0.551582
v 3.058510 2.836377 1.254412
v 5.633919 5.337193 -0.818691
v 4.732079 4.479899 1.181860
v 2.240715 10.484111 -0.778345
v 1.456062 10.374253 -0.860876
v 3.443390 5.500402 -1.216064
v 2.975265 2.493552 -1.258787
v 2.603721 7.945719 -1.518406
vt 0.213047 0.304551
vt 0.213047 0.280806
vt 0.213047 0.304551
vt 0.213047 0.280806
vt 0.213047 0.280806
vt 0.213047 0.280806
vt 0.213047 0.280806
vt 0.213047 0.280806
vt 0.213047 0.304551
vt 0.213047 0.280806
vt 0.213047 0.280806
vt 0.213047 0.304551
vt 0.213047 0.304551
vt 0.213047 0.280806
vt 0.213047 0.304551
vt 0.213047 0.280806
vt 0.213047 0.304551
vt 0.213047 0.304551
vt 0.213047 0.304551
vt 0.213047 0.304551
vt 0.213047 0.280806
vt 0.213047 0.304551
vt 0.213047 0.304551
vt 0.213047 0.280806
vt 0.213047 0.304551
vt 0.213047 0.304551
vt 0.213047 0.280806
vt 0.213047 0.304551
vt 0.213047 0.280806
vt 0.213047 0.304551
vt 0.213047 0.304551
vt 0.213047 0.280806
vt 0.213047 0.280806
vt 0.213047 0.280806
vt 0.213047 0.280806
vt 0.213047 0.280806
vt 0.213047 0.280806
vt 0.213047 0.304551
vt 0.213047 0.304551
vt 0.213047 0.304551
vt 0.213047 0.304551
vt 0.213047 0.280806
vt 0.213047 0.280806
vt 0.213047 0.304551
vt 0.213047 0.280806
vt 0.213047 0.304551
vt 0.213047 0.280806
vt 0.213047 0.304551
vt 0.213047 0.304551
vt 0.213047 0.280806
vt 0.213047 0.280806
vt 0.213047 0.280806
vt 0.213047 0.280806
vt 0.213047 0.280806
vt 0.213047 0.304551
vt 0.213047 0.280806
vt 0.213047 0.280806
vt 0.213047 0.280806
vt 0.213047 0.280806
vt 0.213047 0.280806
vt 0.213047 0.304551
vt 0.213047 0.280806
vt 0.213047 0.304551
vt 0.213047 0.280806
vt 0.213047 0.280806
vt 0.213047 0.280806
vt 0.213047 0.280806
vt 0.213047 0.280806
vt 0.213047 0.280806
vt 0.213047 0.280806
vt 0.213047 0.280806
vt 0.213047 0.280806
vt 0.213047 0.280806
vt 0.213047 0.280806
vt 0.213047 0.280806
vt 0.213047 0.304551
vt 0.213047 0.304551
vt 0.213047 0.280806
vt 0.213047 0.304551
vt 0.213047 0.280806
vt 0.213047 0.280806
vt 0.213047 0.280806
vt 0.213047 0.280806
vt 0.213047 0.280806
vt 0.213047 0.280806
vt 0.213047 0.280806
vt 0.213047 0.280806
vt 0.213047 0.280806
vt 0.213047 0.280806
vt 0.213047 0.280806
vt 0.213047 0.280806
vt 0.213047 0.280806
vt 0.213047 0.280806
vt 0.213047 0.280806
vt 0.213047 0.280806
vt 0.213047 0.280806
vt 0.213047 0.280806
vt 0.213047 0.280806
vt 0.213047 0.304551
vt 0.213047 0.280806
vt 0.213047 0.280806
vt 0.213047 0.304551
vt 0.213047 0.280806
vt 0.213047 0.280806
vt 0.213047 0.280806
vt 0.213047 0.304551
vt 0.213047 0.280806
vt 0.213047 0.304551
vt 0.213047 0.280806
vt 0.213047 0.280806
vt 0.213047 0.280806
vt 0.213047 0.280806
vt 0.213047 0.280806
vt 0.213047 0.280806
vt 0.213047 0.280806
vt 0.213047 0.280806
vt 0.213047 0.280806
vt 0.213047 0.304551
vt 0.213047 0.304551
vt 0.213047 0.280806
vt 0.213047 0.280806
vt 0.213047 0.304551
vt 0.213047 0.280806
vt 0.213047 0.280806
vt 0.213047 0.280806
vt 0.213047 0.304551
vt 0.213047 0.304551
vt 0.213047 0.280806
vt 0.213047 0.280806
vt 0.213047 0.280806
vt 0.213047 0.280806
vt 0.213047 0.280806
vt 0.213047 0.280806
vt 0.213047 0.280806
vt 0.213047 0.280806
vt 0.213047 0.304551
vt 0.213047 0.280806
vt 0.213047 0.280806
vt 0.213047 0.280806
vt 0.213047 0.280806
vt 0.213047 0.280806
vt 0.213047 0.280806
vt 0.213047 0.304551
vt 0.213047 0.280806
vt 0.213047 0.280806
vt 0.213047 0.304551
vt 0.213047 0.280806
vt 0.213047 0.304551
vt 0.213047 0.280806
vt 0.213047 0.280806
vt 0.213047 0.280806
vt 0.213047 0.280806
vt 0.213047 0.304551
vt 0.213047 0.280806
vt 0.213047 0.280806
vt 0.213047 0.280806
vt 0.213047 0.304551
vt 0.213047 0.280806
vt 0.213047 0.280806
vt 0.213047 0.280806
vt 0.213047 0.280806
vt 0.213047 0.280806
vt 0.213047 0.304551
vt 0.213047 0.280806
vt 0.213047 0.280806
vt 0.213047 0.280806
vt 0.213047 0.280806
vt 0.213047 0.280806
vt 0.213047 0.280806
vt 0.213047 0.280806
vt 0.213047 0.280806
vt 0.213047 0.280806
vt 0.213047 0.280806
vt 0.213047 0.280806
vt 0.213047 0.280806
vt 0.213047 0.304551
vt 0.213047 0.280806
vt 0.213047 0.280806
vt 0.213047 0.280806
vt 0.213047 0.280806
vt 0.213047 0.280806
vt 0.213047 0.280806
vt 0.213047 0.280806
vt 0.213047 0.304551
vt 0.213047 0.280806
vt 0.213047 0.280806
vt 0.213047 0.280806
vt 0.213047 0.304551
vt 0.213047 0.280806
vt 0.213047 0.280806
vt 0.213047 0.280806
vt 0.213047 0.280806
vt 0.213047 0.280806
vt 0.213047 0.280806
vt 0.213047 0.280806
vt 0.213047 0.280806
vt 0.213047 0.304551
vt 0.213047 0.280806
vt 0.213047 0.280806
vt 0.213047 0.280806
vt 0.213047 0.304551
vt 0.213047 0.280806
vt 0.213047 0.280806
vt 0.213047 0.280806
vt 0.213047 0.304551
vt 0.213047 0.280806
vt 0.213047 0.280806
vt 0.213047 0.280806
vt 0.213047 0.280806
vt 0.213047 0.280806
vt 0.213047 0.280806
vt 0.213047 0.280806
vt 0.213047 0.280806
vt 0.213047 0.280806
vt 0.213047 0.280806
vt 0.213047 0.280806
vt 0.213047 0.280806
vt 0.213047 0.280806
vt 0.213047 0.280806
vt 0.213047 0.280806
vt 0.213047 0.280806
vt 0.213047 0.280806
vt 0.213047 0.304551
vt 0.213047 0.280806
vt 0.213047 0.280806
vt 0.213047 0.280806
vt 0.213047 0.280806
vt 0.213047 0.280806
vt 0.213047 0.280806
vt 0.213047 0.280806
vt 0.213047 0.280806
vt 0.213047 0.280806
vt 0.213047 0.280806
vt 0.213047 0.280806
vt 0.213047 0.280806
vt 0.213047 0.280806
vt 0.213047 0.280806
vt 0.213047 0.280806
vt 0.213047 0.280806
vt 0.213047 0.280806
vt 0.213047 0.280806
vt 0.213047 0.280806
vt 0.213047 0.280806
vt 0.213047 0.280806
vt 0.213047 0.280806
vt 0.213047 0.280806
vt 0.213047 0.280806
vt 0.213047 0.280806
vt 0.213047 0.280806
vn 0.569341 -0.440527 0.694109
vn 0.569341 -0.440527 0.694109
vn 0.569341 -0.440527 0.694109
vn -0.969136 0.233655 -0.078623
vn -0.969136 0.233655 -0.078623
vn -0.969136 0.233655 -0.078623
vn 0.166298 0.974310 0.151872
vn 0.166298 0.974310 0.151872
vn 0.166298 0.974310 0.151872
vn 0.119432 0.992552 -0.024028
vn 0.119432 0.992552 -0.024028
vn 0.119432 0.992552 -0.024028
vn 0.580000 0.285610 0.762907
vn 0.580000 0.285610 0.762907
vn 0.580000 0.285610 0.762907
vn -0.313124 0.937971 0.148877
vn -0.313124 0.937971 0.148877
vn -0.313124 0.937971 0.148877
vn -0.341909 -0.158688 0.926238
vn -0.341909 -0.158688 0.926238
vn -0.341909 -0.158688 0.926238
vn -0.099609 0.006491 0.995005
vn -0.099609 0.006491 0.995005
vn -0.099609 0.006491 0.995005
vn -0.613263 -0.008449 0.789834
vn -0.613263 -0.008449 0.789834
vn -0.613263 -0.008449 0.789834
vn -0.416295 0.380696 0.825693
vn -0.416295 0.380696 0.825693
vn -0.416295 0.380696 0.825693
vn 0.103542 0.979653 0.171930
vn 0.103542 0.979653 0.171930
vn 0.103542 0.979653 0.171930
vn 0.113138 0.695588 0.709476
vn 0.113138 0.695588 0.709476
vn 0.113138 0.695588 0.709476
vn -0.349434 0.049936 0.935630
vn -0.349434 0.049936 0.935629
vn -0.349434 0.049936 0.935630
vn 0.228822 0.970752 0.072671
vn 0.228822 0.970752 0.072671
vn 0.228822 0.970752 0.072671
vn -0.210970 -0.263420 0.941330
vn -0.210970 -0.263420 0.941330
vn -0.210970 -0.263420 0.941330
vn -0.441035 -0.199876 0.874950
vn -0.441034 -0.199876 0.874950
vn -0.441035 -0.199876 0.874950
vn 0.000000 -1.000000 0.000000
vn 0.000000 -1.000000 0.000000
vn 0.000000 -1.000000 0.000000
vn 0.109481 0.155220 0.981795
vn 0.109481 0.155220 0.981795
vn 0.109481 0.155220 0.981795
vn -0.335769 0.243080 0.910039
vn -0.335769 0.243080 0.910039
vn -0.335769 0.243080 0.910039
vn 0.044244 0.045202 0.997998
vn 0.044244 0.045202 0.997998
vn 0.044244 0.045202 0.997998
vn -0.951434 0.120368 -0.283347
vn -0.951434 0.120368 -0.283347
vn -0.951434 0.120368 -0.283347
vn 0.102831 0.983691 0.147576
vn 0.102831 0.983691 0.147576
vn 0.102831 0.983691 0.147576
vn -0.171337 0.225098 0.959153
vn -0.171337 0.225098 0.959153
vn -0.171337 0.225098 0.959153
vn 0.162146 0.089937 0.982660
vn 0.162146 0.089937 0.982660
vn 0.162146 0.089937 0.982660
vn -0.573098 -0.015027 0.819349
vn -0.573098 -0.015027 0.819349
vn -0.573098 -0.015027 0.819349
vn -0.648776 0.035216 0.760164
vn -0.648776 0.035216 0.760164
vn -0.648776 0.035216 0.760164
vn -0.819538 -0.050422 0.570802
vn -0.819538 -0.050422 0.570802
vn -0.819538 -0.050422 0.570802
vn 0.290205 0.137640 0.947014
vn 0.290205 0.137640 0.947014
vn 0.290205 0.137640 0.947014
vn 0.992978 0.110603 0.041966
vn 0.992978 0.110603 0.041966
vn 0.992978 0.110603 0.041966
vn -0.680156 0.005195 0.733049
vn -0.680156 0.005195 0.733049
vn -0.680156 0.005195 0.733049
vn -0.851544 -0.012389 0.524137
vn -0.851544 -0.012389 0.524137
vn -0.851544 -0.012389 0.524137
vn -0.853390 0.000328 0.521273
vn -0.853390 0.000328 0.521273
vn -0.853390 0.000328 0.521273
vn -0.041599 0.112330 0.992800
vn -0.041599 0.112330 0.992800
vn -0.041599 0.112330 0.992800
vn -0.811682 0.032259 0.583208
vn -0.811682 0.032259 0.583208
vn -0.811682 0.032259 0.583208
vn -0.476407 -0.016577 0.879068
vn -0.476407 -0.016577 0.879068
vn -0.476407 -0.016577 0.879069
vn 0.000000 -1.000000 0.000000
vn 0.000000 -1.000000 0.000000
vn 0.000000 -1.000000 0.000000
vn -0.352121 0.227141 0.907974
vn -0.352121 0.227141 0.907974
vn -0.352121 0.227141 0.907974
vn -0.334471 -0.235020 0.912631
vn -0.334471 -0.235020 0.912631
vn -0.334471 -0.235020 0.912631
vn -0.054324 0.001704 0.998522
vn -0.054324 0.001704 0.998522
vn -0.054324 0.001704 0.998522
vn 0.287586 0.166443 0.943181
vn 0.287586 0.166443 0.943181
vn 0.287586 0.166443 0.943181
vn 0.000000 -1.000000 0.000000
vn 0.000000 -1.000000 0.000000
vn 0.000000 -1.000000 0.000000
vn 0.227091 -0.162198 0.960272
vn 0.227091 -0.162198 0.960272
vn 0.227091 -0.162198 0.960272
vn -0.029506 -0.114205 0.993019
vn -0.029506 -0.114205 0.993019
vn -0.029506 -0.114205 0.993019
vn 0.000000 -1.000000 0.000000
vn 0.000000 -1.000000 0.000000
vn 0.000000 -1.000000 0.000000
vn -0.121796 0.110352 0.986402
vn -0.121796 0.110352 0.986402
vn -0.121796 0.110352 0.986402
vn 0.028437 0.265552 0.963677
vn 0.028437 0.265552 0.963677
vn 0.028437 0.265552 0.963677
vn 0.000000 -1.000000 0.000000
vn 0.000000 -1.000000 0.000000
vn 0.000000 -1.000000 0.000000
vn 0.000000 -1.000000 0.000000
vn 0.000000 -1.000000 0.000000
vn 0.000000 -1.000000 0.000000
vn 0.035047 -0.997183 -0.066312
vn 0.035047 -0.997183 -0.066312
vn 0.035047 -0.997183 -0.066312
vn 0.574695 -0.224909 0.786855
vn 0.574695 -0.224909 0.786855
vn 0.574695 -0.224909 0.786855
vn 0.703234 -0.430425 0.565859
vn 0.703234 -0.430425 0.565859
vn 0.703234 -0.430425 0.565859
vn 0.878971 0.466424 0.099290
vn 0.878971 0.466425 0.099290
vn 0.878971 0.466424 0.099290
vn 0.912670 -0.082296 -0.400327
vn 0.912670 -0.082296 -0.400327
vn 0.912670 -0.082296 -0.400327
vn 0.943745 -0.036763 -0.328625
vn 0.943745 -0.036763 -0.328625
vn 0.943745 -0.036763 -0.328625
vn -0.402843 0.290751 0.867860
vn -0.402843 0.290751 0.867860
vn -0.402843 0.290751 0.867860
vn 0.166907 0.109760 0.979844
vn 0.166907 0.109760 0.979844
vn 0.166907 0.109760 0.979844
vn 0.000000 -1.000000 0.000000
vn 0.000000 -1.000000 0.000000
vn 0.000000 -1.000000 0.000000
vn 0.994240 0.085587 -0.064513
vn 0.994240 0.085587 -0.064513
vn 0.994240 0.085587 -0.064513
vn 0.291000 0.066969 0.954376
vn 0.291000 0.066969 0.954376
vn 0.291000 0.066969 0.954376
vn 0.993066 0.094272 0.070241
vn 0.993066 0.094272 0.070241
vn 0.993066 0.094272 0.070241
vn 0.000000 -1.000000 0.000000
vn 0.000000 -1.000000 0.000000
vn 0.000000 -1.000000 0.000000
vn 0.000000 -1.000000 0.000000
vn 0.000000 -1.000000 0.000000
vn 0.000000 -1.000000 0.000000
vn 0.198436 -0.153306 0.968050
vn 0.198436 -0.153306 0.968050
vn 0.198436 -0.153306 0.968050
vn -0.311430 0.301306 0.901236
vn -0.311430 0.301306 0.901236
vn -0.311430 0.301306 0.901236
vn -0.678232 -0.004999 0.734831
vn -0.678232 -0.004999 0.734831
vn -0.678232 -0.004999 0.734831
vn 0.162049 0.173943 0.971331
vn 0.162049 0.173943 0.971331
vn 0.162049 0.173943 0.971331
vn -0.081133 0.118629 0.989618
vn -0.081133 0.118629 0.989618
vn -0.081133 0.118629 0.989618
vn -0.553143 -0.023273 0.832761
vn -0.553143 -0.023273 0.832761
vn -0.553143 -0.023273 0.832761
vn 0.747620 -0.006299 0.664097
vn 0.747620 -0.006299 0.664097
vn 0.747620 -0.006299 0.664097
vn 0.076103 0.214461 0.973763
vn 0.076103 0.214460 0.973763
vn 0.076103 0.214461 0.973763
vn 0.813526 0.038273 0.580267
vn 0.813526 0.038272 0.580267
vn 0.813526 0.038273 0.580267
vn -0.312378 0.198795 0.928925
vn -0.312378 0.198795 0.928925
vn -0.312378 0.198795 0.928924
vn -0.214673 0.109066 0.970577
vn -0.214674 0.109066 0.970577
vn -0.214674 0.109066 0.970577
vn -0.122105 0.010115 0.992466
vn -0.122105 0.010115 0.992466
vn -0.122105 0.010115 0.992466
vn 0.375710 0.047007 0.925544
vn 0.375710 0.047007 0.925544
vn 0.375710 0.047007 0.925544
vn 0.108569 0.383120 0.917296
vn 0.108569 0.383120 0.917296
vn 0.108569 0.383120 0.917296
vn -0.828789 -0.017141 0.559299
vn -0.828789 -0.017141 0.559299
vn -0.828789 -0.017141 0.559299
vn -0.995359 -0.082766 0.049085
vn -0.995359 -0.082766 0.049085
vn -0.995359 -0.082766 0.049085
vn -0.587815 0.175336 -0.789766
vn -0.587815 0.175336 -0.789766
vn -0.587815 0.175336 -0.789766
vn 0.420367 -0.039116 0.906510
vn 0.420367 -0.039116 0.906511
vn 0.420367 -0.039116 0.906510
vn 0.003209 0.038357 0.999259
vn 0.003209 0.038357 0.999259
vn 0.003209 0.038357 0.999259
vn 0.039665 0.072869 0.996553
vn 0.039665 0.072869 0.996553
vn 0.039665 0.072869 0.996552
vn 0.919401 -0.056364 -0.389263
vn 0.919401 -0.056364 -0.389263
vn 0.919401 -0.056364 -0.389263
vn 0.939301 -0.105237 -0.326555
vn 0.939301 -0.105237 -0.326555
vn 0.939301 -0.105237 -0.326555
vn -0.228237 0.108795 0.967508
vn -0.228237 0.108795 0.967508
vn -0.228237 0.108795 0.967508
vn 0.156693 0.360281 0.919590
vn 0.156693 0.360281 0.919590
vn 0.156693 0.360281 0.919590
vn 0.858255 -0.477016 0.189353
vn 0.858255 -0.477016 0.189353
vn 0.858255 -0.477016 0.189353
vn -0.143193 0.988654 0.045382
vn -0.143193 0.988654 0.045382
vn -0.143193 0.988654 0.045382
vn -0.403888 0.190504 0.894753
vn -0.403888 0.190504 0.894753
vn -0.403888 0.190504 0.894753
vn -0.460651 0.382387 0.800987
vn -0.460651 0.382387 0.800987
vn -0.460651 0.382387 0.800987
vn 0.117431 0.017119 0.992934
vn 0.117431 0.017119 0.992934
vn 0.117431 0.017119 0.992934
vn -0.626106 0.150279 0.765119
vn -0.626106 0.150279 0.765119
vn -0.626107 0.150279 0.765119
vn -0.198369 0.980028 -0.013922
vn -0.198369 0.980028 -0.013922
vn -0.198369 0.980029 -0.013922
vn -0.476431 -0.084851 0.875108
vn -0.476431 -0.084851 0.875108
vn -0.476431 -0.084851 0.875108
vn 0.478181 -0.084759 0.874162
vn 0.478181 -0.084759 0.874162
vn 0.478181 -0.084759 0.874162
vn -0.400933 -0.205887 0.892672
vn -0.400933 -0.205887 0.892672
vn -0.400933 -0.205887 0.892672
vn -0.071174 -0.227919 0.971075
vn -0.071174 -0.227919 0.971075
vn -0.071174 -0.227919 0.971075
vn 0.000000 -1.000000 0.000000
vn 0.000000 -1.000000 0.000000
vn 0.000000 -1.000000 0.000000
vn 0.006357 0.128871 0.991641
vn 0.006357 0.128871 0.991641
vn 0.006357 0.128871 0.991641
vn 0.026266 0.221991 0.974695
vn 0.026266 0.221991 0.974695
vn 0.026266 0.221991 0.974695
vn 0.081079 0.190434 0.978346
vn 0.081079 0.190434 0.978346
vn 0.081079 0.190434 0.978346
vn -0.008566 0.213946 0.976808
vn -0.008566 0.213946 0.976808
vn -0.008566 0.213946 0.976808
vn 0.853901 0.098748 0.510982
vn 0.853901 0.098748 0.510982
vn 0.853901 0.098748 0.510982
vn 0.027501 0.996142 0.083342
vn 0.027501 0.996142 0.083342
vn 0.027501 0.996142 0.083342
vn 0.065105 -0.081589 0.994537
vn 0.065105 -0.081589 0.994537
vn 0.065105 -0.081589 0.994537
vn 0.052675 0.217775 0.974577
vn 0.052675 0.217775 0.974577
vn 0.052675 0.217775 0.974577
vn 0.870949 -0.020551 0.490944
vn 0.870949 -0.020551 0.490944
vn 0.870949 -0.020551 0.490944
vn -0.809688 0.067318 0.582987
vn -0.809688 0.067318 0.582987
vn -0.809688 0.067318 0.582987
vn -0.109370 0.172001 0.979007
vn -0.109370 0.172001 0.979007
vn -0.109370 0.172001 0.979007
vn 0.371564 -0.011443 0.928337
vn 0.371564 -0.011443 0.928337
vn 0.371564 -0.011443 0.928337
vn -0.108401 -0.464462 0.878934
vn -0.108401 -0.464462 0.878934
vn -0.108401 -0.464462 0.878934
vn 0.117055 0.112822 0.986696
vn 0.117055 0.112822 0.986696
vn 0.117055 0.112822 0.986696
vn -0.926982 -0.109722 -0.358699
vn -0.926982 -0.109722 -0.358699
vn -0.926982 -0.109722 -0.358699
vn 0.734568 0.104904 0.670376
vn 0.734568 0.104904 0.670376
vn 0.734568 0.104904 0.670376
vn 0.000000 -1.000000 0.000000
vn 0.000000 -1.000000 0.000000
vn 0.000000 -1.000000 0.000000
vn 0.000000 -1.000000 0.000000
vn 0.000000 -1.000000 0.000000
vn 0.000000 -1.000000 0.000000
vn 0.174182 -0.064349 0.982609
vn 0.174182 -0.064349 0.982609
vn 0.174182 -0.064349 0.982609
vn 0.996596 0.064464 0.051382
vn 0.996596 0.064464 0.051382
vn 0.996596 0.064464 0.051382
vn 0.000000 -1.000000 0.000000
vn 0.000000 -1.000000 0.000000
vn 0.000000 -1.000000 0.000000
vn 0.755872 -0.054898 0.652414
vn 0.755872 -0.054898 0.652414
vn 0.755872 -0.054898 0.652414
vn 0.000000 -1.000000 0.000000
vn 0.000000 -1.000000 0.000000
vn 0.000000 -1.000000 0.000000
vn 0.573439 0.233942 0.785136
vn 0.573439 0.233942 0.785136
vn 0.573439 0.233942 0.785136
vn -0.449897 0.031271 0.892533
vn -0.449897 0.031271 0.892533
vn -0.449897 0.031271 0.892533
vn 0.322867 -0.404973 -0.855426
vn 0.322867 -0.404973 -0.855426
vn 0.322867 -0.404973 -0.855426
vn 0.051530 -0.251286 -0.966540
vn 0.051530 -0.251286 -0.966540
vn 0.051530 -0.251286 -0.966540
vn 0.143967 -0.134551 -0.980392
vn 0.143967 -0.134551 -0.980393
vn 0.143967 -0.134551 -0.980393
vn 0.151211 0.324285 -0.933796
vn 0.151211 0.324285 -0.933796
vn 0.151211 0.324285 -0.933796
vn 0.060319 0.287325 -0.955932
vn 0.060319 0.287325 -0.955932
vn 0.060319 0.287325 -0.955932
vn -0.246423 0.238618 -0.939328
vn -0.246423 0.238618 -0.939328
vn -0.246423 0.238618 -0.939328
vn 0.253156 0.034743 -0.966801
vn 0.253156 0.034743 -0.966801
vn 0.253156 0.034743 -0.966801
vn 0.131952 0.187966 -0.973272
vn 0.131952 0.187966 -0.973272
vn 0.131952 0.187966 -0.973272
vn -0.127107 0.033874 -0.991310
vn -0.127107 0.033874 -0.991310
vn -0.127107 0.033874 -0.991310
vn -0.116976 0.043033 -0.992202
vn -0.116976 0.043033 -0.992202
vn -0.116976 0.043033 -0.992202
vn 0.096861 -0.000938 -0.995298
vn 0.096861 -0.000938 -0.995297
vn 0.096861 -0.000938 -0.995298
vn 0.183590 0.078325 -0.979878
vn 0.183590 0.078325 -0.979877
vn 0.183590 0.078325 -0.979877
vn 0.097306 -0.233775 -0.967409
vn 0.097306 -0.233775 -0.967409
vn 0.097306 -0.233775 -0.967409
vn -0.280926 0.141124 -0.949297
vn -0.280926 0.141124 -0.949297
vn -0.280926 0.141124 -0.949297
vn 0.173684 -0.061882 -0.982855
vn 0.173684 -0.061882 -0.982855
vn 0.173684 -0.061882 -0.982855
vn -0.227881 -0.069310 -0.971219
vn -0.227881 -0.069310 -0.971219
vn -0.227881 -0.069310 -0.971219
vn -0.174138 -0.179507 -0.968222
vn -0.174138 -0.179507 -0.968222
vn -0.174138 -0.179507 -0.968222
s off
f 22/1/1 41/127/2 50/3/3
f 17/194/4 28/90/5 4/6/6
f 49/92/7 6/183/8 26/230/9
f 14/170/10 26/232/11 25/244/12
f 43/12/13 57/13/14 33/102/15
f 28/5/16 15/212/17 69/87/18
f 42/17/19 39/18/20 60/19/21
f 60/19/22 39/18/23 13/20/24
f 43/239/25 33/103/26 59/21/27
f 24/22/28 48/23/29 15/15/30
f 15/216/31 48/209/32 6/181/33
f 25/243/34 26/233/35 21/166/36
f 27/25/37 55/26/38 52/118/39
f 49/7/40 26/231/41 14/171/42
f 9/28/43 67/143/44 19/30/45
f 67/144/46 61/222/47 19/208/48
f 13/245/49 1/138/50 63/218/51
f 8/197/52 30/153/53 43/12/54
f 43/12/55 30/153/56 57/13/57
f 2/106/58 56/38/59 39/18/60
f 17/195/61 8/199/62 28/89/63
f 15/215/64 6/182/65 49/93/66
f 6/8/67 53/116/68 16/179/69
f 27/25/70 29/41/71 5/119/72
f 5/42/73 29/207/74 44/123/75
f 7/192/76 64/125/77 34/97/78
f 44/121/79 64/45/80 65/47/81
f 46/48/82 53/39/83 12/49/84
f 14/10/85 32/203/86 66/156/87
f 56/38/88 37/136/89 40/55/90
f 17/4/91 4/56/92 30/151/93
f 4/160/94 56/112/95 30/36/96
f 15/15/97 8/197/98 43/12/99
f 8/198/100 17/196/101 30/152/102
f 13/20/103 56/38/104 40/55/105
f 13/246/106 40/57/107 1/33/108
f 26/234/109 31/149/110 21/165/111
f 55/26/112 27/25/113 54/146/114
f 61/31/115 54/146/116 27/25/117
f 38/61/118 61/31/119 5/119/120
f 18/62/121 45/187/122 7/190/123
f 45/188/124 38/61/125 7/44/126
f 38/61/127 65/205/128 7/44/129
f 47/64/130 35/65/131 45/185/132
f 35/176/133 19/30/134 45/63/135
f 16/40/136 26/9/137 6/184/138
f 47/67/139 18/173/140 35/68/141
f 35/177/142 18/174/143 22/69/144
f 22/241/145 18/175/146 23/70/147
f 9/28/148 3/157/149 67/143/150
f 22/1/151 50/3/152 35/176/153
f 25/11/154 21/167/155 14/169/156
f 51/131/157 20/237/158 66/66/159
f 23/129/160 36/74/161 41/128/162
f 12/49/163 24/22/164 43/12/165
f 10/76/166 11/77/167 2/106/168
f 13/32/169 63/219/170 60/96/171
f 14/168/172 21/24/173 32/202/174
f 27/25/175 5/119/176 61/31/177
f 51/130/178 66/53/179 3/71/180
f 7/80/181 62/229/182 18/51/183
f 34/81/184 62/228/185 7/191/186
f 46/48/187 44/122/188 29/41/189
f 12/49/190 48/23/191 24/22/192
f 30/154/193 56/113/194 57/236/195
f 27/25/196 52/118/197 29/41/198
f 21/164/199 31/150/200 67/142/201
f 31/59/202 54/147/203 67/29/204
f 32/201/205 21/163/206 67/143/207
f 46/48/208 29/41/209 53/39/210
f 41/127/211 51/79/212 50/3/213
f 39/18/214 42/17/215 10/76/216
f 19/30/217 35/176/218 9/28/219
f 39/18/220 56/38/221 13/20/222
f 42/17/223 34/46/224 64/126/225
f 11/77/226 42/17/227 64/126/228
f 65/206/229 64/124/230 7/193/231
f 40/200/232 37/137/233 1/82/234
f 1/141/235 37/83/236 58/58/237
f 45/63/238 19/30/239 61/223/240
f 3/157/241 9/28/242 50/3/243
f 35/176/244 50/3/245 9/28/246
f 20/73/247 51/132/248 36/134/249
f 41/75/250 36/133/251 51/72/252
f 39/18/253 10/76/254 2/106/255
f 42/17/256 11/77/257 10/76/258
f 23/84/259 41/2/260 22/240/261
f 68/91/262 69/16/263 15/213/264
f 12/49/265 43/12/266 59/99/267
f 43/12/268 24/22/269 15/15/270
f 64/126/271 44/122/272 11/77/273
f 65/204/274 5/120/275 44/43/276
f 28/88/277 8/35/278 15/211/279
f 46/109/280 2/105/281 11/242/282
f 44/122/283 46/48/284 11/77/285
f 59/101/286 33/14/287 2/37/288
f 46/110/289 59/100/290 2/104/291
f 47/238/292 45/186/293 18/172/294
f 65/205/295 38/61/296 5/119/297
f 55/26/298 26/9/299 52/118/300
f 52/118/301 26/9/302 16/40/303
f 52/118/304 53/39/305 29/41/306
f 48/210/307 53/115/308 6/180/309
f 15/214/310 49/94/311 68/85/312
f 55/26/313 54/146/314 31/148/315
f 31/148/316 26/9/317 55/26/318
f 50/3/319 51/79/320 3/157/321
f 37/135/322 56/111/323 4/161/324
f 16/178/325 53/117/326 52/27/327
f 48/23/328 12/49/329 53/39/330
f 57/235/331 56/114/332 2/107/333
f 12/49/334 59/99/335 46/48/336
f 58/86/337 37/54/338 4/162/339
f 57/13/340 2/108/341 33/102/342
f 34/98/343 60/78/344 62/227/345
f 63/217/346 1/139/347 62/225/348
f 60/19/349 34/46/350 42/17/351
f 66/155/352 32/52/353 3/158/354
f 62/50/355 1/140/356 58/159/357
f 61/224/358 38/220/359 45/189/360
f 60/95/361 63/34/362 62/226/363
f 32/201/364 67/143/365 3/157/366
f 67/145/367 54/60/368 61/221/369
f 58/86/370 71/248/371 62/50/372
f 62/50/373 71/248/374 18/51/375
f 36/74/376 71/248/377 20/73/378
f 28/5/379 69/16/380 72/249/381
f 69/16/382 68/85/383 72/249/384
f 72/249/385 68/85/386 49/7/387
f 66/66/388 72/249/389 14/10/390
f 14/10/391 72/249/392 49/7/393
f 70/247/394 71/248/395 4/6/396
f 4/6/397 71/248/398 58/86/399
f 71/248/400 70/247/401 20/73/402
f 20/73/403 70/247/404 66/66/405
f 71/248/406 36/74/407 18/51/408
f 18/51/409 36/74/410 23/70/411
f 66/66/412 70/247/413 72/249/414
f 28/5/415 72/249/416 4/6/417
f 4/6/418 72/249/419 70/247/420
