# This file uses centimeters as units for non-parametric coordinates.

v -0.167133 0.491062 0.314363
v -0.181967 0.767399 0.312004
v 0.020902 0.810291 0.314400
v 0.093234 0.083332 0.313034
v 0.182561 0.040718 0.310900
v 0.181869 -0.454647 0.312160
v -0.064302 -0.370113 0.309395
v 0.153270 -0.471970 0.310474
v 0.240539 0.816502 0.192116
v -0.180811 -0.134184 0.310507
v 0.219138 0.069271 0.249243
v 0.019385 0.877037 0.237511
v 0.250209 0.636477 0.195427
v 0.223792 -0.569613 0.120150
v -0.208846 0.795624 0.267069
v 0.359222 0.243712 0.006609
v -0.210903 0.930733 0.065786
v 0.064422 0.929195 0.151005
v -0.291561 -0.323024 0.122063
v 0.153701 0.931202 0.080273
v 0.358494 0.708080 -0.006578
v -0.270829 0.868900 0.135822
v -0.359228 0.810307 0.006598
v -0.182020 0.127312 0.311920
v 0.340355 -0.517225 0.035100
v 0.359417 -0.440145 -0.006275
v -0.359234 0.112762 0.006587
v -0.349947 -0.337502 -0.007400
v 0.220004 -0.513315 -0.247688
v 0.182021 0.127312 -0.311921
v 0.282769 0.811169 -0.137174
v 0.280887 -0.601442 0.008876
v -0.265964 0.927933 -0.166838
v 0.197837 -0.598230 -0.190918
v -0.323475 -0.369154 -0.065274
v -0.239962 0.928852 -0.210052
v 0.183930 0.927425 -0.167854
v 0.233121 0.875973 -0.218521
v -0.134993 -0.507915 -0.220586
v -0.182352 0.922230 -0.237800
v -0.359411 0.476513 -0.006280
v 0.149632 -0.625427 -0.179472
v -0.199285 0.141768 -0.281331
v -0.257613 -0.426241 -0.181412
v 0.009919 -0.590261 -0.268278
v -0.021964 0.810760 -0.314401
v -0.065872 0.185544 -0.314401
v 0.182090 0.781811 -0.311893
v -0.182042 0.069117 -0.311884
v -0.166784 -0.324978 -0.313454
v 0.166951 -0.455164 -0.314267
v 0.021866 -0.528687 -0.314001
vt 0.211594 0.279454
vt 0.211594 0.300503
vt 0.211594 0.279454
vt 0.211594 0.279454
vt 0.211594 0.300503
vt 0.211594 0.300503
vt 0.211594 0.300503
vt 0.211594 0.300503
vt 0.211594 0.279454
vt 0.211594 0.279454
vt 0.211594 0.300503
vt 0.211594 0.300503
vt 0.211594 0.300503
vt 0.211594 0.300503
vt 0.211594 0.279454
vt 0.211594 0.300503
vt 0.211594 0.300503
vt 0.211594 0.279454
vt 0.211594 0.300503
vt 0.211594 0.300503
vt 0.211594 0.300503
vt 0.211594 0.279454
vt 0.211594 0.279454
vt 0.211594 0.300503
vt 0.211594 0.300503
vt 0.211594 0.300503
vt 0.211594 0.300503
vt 0.211594 0.300503
vt 0.211594 0.300503
vt 0.211594 0.300503
vt 0.211594 0.300503
vt 0.211594 0.279454
vt 0.211594 0.300503
vt 0.211594 0.300503
vt 0.211594 0.279454
vt 0.211594 0.300503
vt 0.211594 0.300503
vt 0.211594 0.279454
vt 0.211594 0.300503
vt 0.211594 0.300503
vt 0.211594 0.300503
vt 0.211594 0.279454
vt 0.211594 0.300503
vt 0.211594 0.279454
vt 0.211594 0.279454
vt 0.211594 0.300503
vt 0.211594 0.300503
vt 0.211594 0.300503
vt 0.211594 0.300503
vt 0.211594 0.279454
vt 0.211594 0.300503
vt 0.211594 0.300503
vt 0.211594 0.279454
vt 0.211594 0.300503
vt 0.211594 0.279454
vt 0.211594 0.279454
vt 0.211594 0.279454
vt 0.211594 0.279454
vt 0.211594 0.279454
vt 0.211594 0.279454
vt 0.211594 0.279454
vt 0.211594 0.279454
vt 0.211594 0.279454
vt 0.211594 0.300503
vt 0.211594 0.279454
vt 0.211594 0.300503
vt 0.211594 0.279454
vt 0.211594 0.279454
vt 0.211594 0.279454
vt 0.211594 0.279454
vt 0.211594 0.279454
vt 0.211594 0.279454
vt 0.211594 0.279454
vt 0.211594 0.279454
vt 0.211594 0.279454
vt 0.211594 0.300503
vt 0.211594 0.279454
vt 0.211594 0.279454
vt 0.211594 0.300503
vt 0.211594 0.279454
vt 0.211594 0.279454
vt 0.211594 0.300503
vt 0.211594 0.279454
vt 0.211594 0.279454
vt 0.211594 0.279454
vt 0.211594 0.279454
vt 0.211594 0.279454
vt 0.211594 0.279454
vt 0.211594 0.279454
vt 0.211594 0.279454
vt 0.211594 0.279454
vt 0.211594 0.279454
vt 0.211594 0.279454
vt 0.211594 0.279454
vt 0.211594 0.279454
vt 0.211594 0.279454
vt 0.211594 0.279454
vt 0.211594 0.279454
vt 0.211594 0.300503
vt 0.211594 0.300503
vt 0.211594 0.279454
vt 0.211594 0.279454
vt 0.211594 0.279454
vt 0.211594 0.300503
vt 0.211594 0.279454
vt 0.211594 0.279454
vt 0.211594 0.279454
vt 0.211594 0.279454
vt 0.211594 0.279454
vt 0.211594 0.300503
vt 0.211594 0.279454
vt 0.211594 0.279454
vt 0.211594 0.279454
vt 0.211594 0.279454
vt 0.211594 0.300503
vt 0.211594 0.279454
vt 0.211594 0.279454
vt 0.211594 0.279454
vt 0.211594 0.279454
vt 0.211594 0.279454
vt 0.211594 0.279454
vt 0.211594 0.279454
vt 0.211594 0.279454
vt 0.211594 0.279454
vt 0.211594 0.279454
vt 0.211594 0.279454
vt 0.211594 0.279454
vt 0.211594 0.300503
vt 0.211594 0.279454
vt 0.211594 0.279454
vt 0.211594 0.279454
vt 0.211594 0.300503
vt 0.211594 0.279454
vt 0.211594 0.279454
vt 0.211594 0.279454
vt 0.211594 0.279454
vt 0.211594 0.300503
vt 0.211594 0.279454
vt 0.211594 0.279454
vt 0.211594 0.300503
vt 0.211594 0.279454
vn -0.013459 0.007815 0.999879
vn -0.013459 0.007815 0.999879
vn -0.013459 0.007815 0.999879
vn 0.002563 -0.001624 0.999995
vn 0.002563 -0.001624 0.999995
vn 0.002563 -0.001624 0.999995
vn -0.005087 -0.006509 0.999966
vn -0.005087 -0.006509 0.999966
vn -0.005087 -0.006509 0.999966
vn 0.011457 -0.026048 0.999595
vn 0.011457 -0.026048 0.999595
vn 0.011457 -0.026048 0.999595
vn -0.002308 0.002548 0.999994
vn -0.002308 0.002548 0.999994
vn -0.002308 0.002548 0.999994
vn -0.004914 -0.005427 0.999973
vn -0.004914 -0.005427 0.999973
vn -0.004914 -0.005427 0.999973
vn -0.015475 -0.012354 0.999804
vn -0.015475 -0.012354 0.999804
vn -0.015475 -0.012354 0.999804
vn -0.028453 -0.050198 0.998334
vn -0.028453 -0.050198 0.998334
vn -0.028453 -0.050198 0.998334
vn -0.164797 0.743225 0.648428
vn -0.164797 0.743225 0.648428
vn -0.164797 0.743225 0.648428
vn -0.868926 -0.042433 0.493120
vn -0.868926 -0.042433 0.493120
vn -0.868926 -0.042433 0.493120
vn -0.673161 0.022585 0.739151
vn -0.673161 0.022585 0.739151
vn -0.673161 0.022585 0.739151
vn 0.487813 0.046900 0.871688
vn 0.487813 0.046900 0.871688
vn 0.487813 0.046900 0.871688
vn 0.367230 0.741661 0.561320
vn 0.367230 0.741661 0.561320
vn 0.367230 0.741661 0.561320
vn 0.860029 0.000097 0.510246
vn 0.860029 0.000097 0.510246
vn 0.860029 0.000097 0.510246
vn 0.415392 -0.737609 0.532336
vn 0.415392 -0.737609 0.532336
vn 0.415392 -0.737609 0.532336
vn -0.864725 -0.006713 0.502201
vn -0.864725 -0.006713 0.502201
vn -0.864725 -0.006713 0.502201
vn 0.867816 -0.002062 0.496881
vn 0.867816 -0.002062 0.496881
vn 0.867816 -0.002062 0.496881
vn -0.406536 -0.865283 0.293282
vn -0.406536 -0.865283 0.293282
vn -0.406536 -0.865283 0.293282
vn 0.348922 0.711096 0.610407
vn 0.348922 0.711096 0.610407
vn 0.348922 0.711096 0.610407
vn -0.060752 0.828473 0.556725
vn -0.060752 0.828473 0.556725
vn -0.060752 0.828473 0.556725
vn 0.456426 0.059230 0.887788
vn 0.456426 0.059230 0.887788
vn 0.456426 0.059230 0.887788
vn -0.228893 0.798585 0.556659
vn -0.228893 0.798585 0.556659
vn -0.228893 0.798585 0.556659
vn 0.320115 0.723424 0.611706
vn 0.320115 0.723424 0.611706
vn 0.320115 0.723424 0.611706
vn 0.485102 0.042123 0.873442
vn 0.485102 0.042123 0.873442
vn 0.485102 0.042123 0.873442
vn 0.866026 -0.000000 0.499999
vn 0.866026 -0.000000 0.499999
vn 0.866026 -0.000000 0.499999
vn -0.641227 -0.319944 0.697470
vn -0.641227 -0.319944 0.697470
vn -0.641227 -0.319944 0.697470
vn -0.136928 0.878222 0.458232
vn -0.136928 0.878222 0.458232
vn -0.136928 0.878222 0.458232
vn -0.198658 0.812804 0.547617
vn -0.198658 0.812804 0.547617
vn -0.198658 0.812804 0.547617
vn -0.894515 0.040717 0.445180
vn -0.894515 0.040717 0.445180
vn -0.894515 0.040717 0.445180
vn 0.871618 0.055777 0.487002
vn 0.871618 0.055777 0.487002
vn 0.871618 0.055777 0.487002
vn -0.862265 0.000302 0.506457
vn -0.862265 0.000302 0.506458
vn -0.862265 0.000302 0.506457
vn -0.874638 -0.002574 0.484770
vn -0.874638 -0.002574 0.484770
vn -0.874638 -0.002574 0.484770
vn -0.413008 -0.865486 0.283477
vn -0.413008 -0.865486 0.283477
vn -0.413008 -0.865486 0.283477
vn 0.380073 0.777024 0.501775
vn 0.380073 0.777024 0.501775
vn 0.380073 0.777024 0.501775
vn -0.820581 -0.021583 0.571122
vn -0.820581 -0.021583 0.571122
vn -0.820581 -0.021583 0.571122
vn -0.413065 -0.865446 0.283516
vn -0.413065 -0.865446 0.283516
vn -0.413065 -0.865446 0.283516
vn 0.750747 0.654640 0.088465
vn 0.750747 0.654640 0.088465
vn 0.750747 0.654640 0.088465
vn 0.630199 -0.597765 0.495506
vn 0.630199 -0.597765 0.495506
vn 0.630199 -0.597765 0.495506
vn -0.365958 -0.927398 0.077509
vn -0.365958 -0.927398 0.077509
vn -0.365958 -0.927398 0.077509
vn -0.909799 -0.031620 0.413844
vn -0.909799 -0.031620 0.413844
vn -0.909799 -0.031620 0.413844
vn 0.629962 -0.598825 0.494527
vn 0.629962 -0.598825 0.494527
vn 0.629962 -0.598825 0.494527
vn 0.879049 0.014911 0.476499
vn 0.879048 0.014911 0.476499
vn 0.879048 0.014911 0.476499
vn -0.865111 0.017310 0.501281
vn -0.865111 0.017310 0.501281
vn -0.865111 0.017310 0.501281
vn 0.868803 -0.009080 0.495074
vn 0.868803 -0.009080 0.495074
vn 0.868803 -0.009080 0.495074
vn 0.893037 0.020443 0.449518
vn 0.893037 0.020443 0.449518
vn 0.893037 0.020443 0.449518
vn 0.006543 0.999974 -0.003098
vn 0.006543 0.999974 -0.003098
vn 0.006543 0.999974 -0.003098
vn 0.750064 0.656134 0.083016
vn 0.750064 0.656134 0.083016
vn 0.750064 0.656134 0.083016
vn 0.812681 -0.464162 -0.352284
vn 0.812681 -0.464162 -0.352284
vn 0.812681 -0.464162 -0.352284
vn -0.372582 -0.851863 0.368121
vn -0.372581 -0.851863 0.368121
vn -0.372582 -0.851863 0.368121
vn -0.627554 0.766007 0.139317
vn -0.627554 0.766007 0.139317
vn -0.627554 0.766007 0.139317
vn 0.875719 -0.012333 -0.482664
vn 0.875719 -0.012333 -0.482664
vn 0.875719 -0.012333 -0.482664
vn 0.872366 0.009457 -0.488761
vn 0.872366 0.009457 -0.488761
vn 0.872366 0.009457 -0.488761
vn -0.873272 -0.017650 -0.486913
vn -0.873272 -0.017650 -0.486914
vn -0.873272 -0.017650 -0.486913
vn -0.874458 0.007442 -0.485044
vn -0.874458 0.007442 -0.485044
vn -0.874458 0.007442 -0.485044
vn -0.910595 -0.005944 -0.413258
vn -0.910595 -0.005944 -0.413258
vn -0.910594 -0.005944 -0.413258
vn -0.414242 -0.864876 0.283537
vn -0.414242 -0.864876 0.283537
vn -0.414242 -0.864876 0.283537
vn 0.840204 -0.402717 -0.363148
vn 0.840204 -0.402717 -0.363148
vn 0.840204 -0.402717 -0.363148
vn -0.673654 0.727338 0.131034
vn -0.673654 0.727338 0.131034
vn -0.673654 0.727338 0.131034
vn -0.038187 0.999073 -0.019858
vn -0.038187 0.999073 -0.019858
vn -0.038187 0.999073 -0.019858
vn 0.865299 0.000608 -0.501255
vn 0.865299 0.000608 -0.501255
vn 0.865299 0.000608 -0.501255
vn 0.445256 -0.872983 -0.199117
vn 0.445256 -0.872983 -0.199117
vn 0.445256 -0.872983 -0.199117
vn -0.880180 0.018780 -0.474268
vn -0.880180 0.018780 -0.474268
vn -0.880180 0.018780 -0.474268
vn -0.853106 -0.083052 -0.515084
vn -0.853106 -0.083052 -0.515084
vn -0.853106 -0.083052 -0.515084
vn 0.865820 0.001166 -0.500353
vn 0.865820 0.001166 -0.500353
vn 0.865820 0.001166 -0.500353
vn -0.039700 0.999208 -0.002630
vn -0.039700 0.999208 -0.002630
vn -0.039700 0.999208 -0.002630
vn 0.822840 -0.448291 -0.349243
vn 0.822840 -0.448291 -0.349243
vn 0.822840 -0.448291 -0.349243
vn -0.869363 0.002344 -0.494169
vn -0.869363 0.002344 -0.494169
vn -0.869363 0.002344 -0.494169
vn -0.524325 -0.843410 0.117230
vn -0.524325 -0.843410 0.117230
vn -0.524325 -0.843410 0.117230
vn 0.759781 0.644892 0.082750
vn 0.759781 0.644892 0.082750
vn 0.759781 0.644892 0.082750
vn 0.743909 0.664060 0.074987
vn 0.743909 0.664060 0.074987
vn 0.743909 0.664060 0.074987
vn 0.004087 0.999965 -0.007249
vn 0.004087 0.999965 -0.007249
vn 0.004087 0.999965 -0.007249
vn -0.401603 -0.869515 0.287503
vn -0.401603 -0.869515 0.287503
vn -0.401603 -0.869515 0.287503
vn 0.022069 0.981825 -0.188501
vn 0.022069 0.981825 -0.188501
vn 0.022069 0.981825 -0.188501
vn -0.396836 -0.869198 0.294986
vn -0.396836 -0.869198 0.294986
vn -0.396836 -0.869198 0.294986
vn 0.242623 -0.708797 -0.662376
vn 0.242623 -0.708797 -0.662376
vn 0.242623 -0.708797 -0.662376
vn 0.128155 0.680303 -0.721640
vn 0.128155 0.680303 -0.721640
vn 0.128155 0.680303 -0.721640
vn 0.107789 0.698462 -0.707484
vn 0.107789 0.698462 -0.707483
vn 0.107789 0.698462 -0.707483
vn 0.003264 0.703223 -0.710962
vn 0.003264 0.703223 -0.710962
vn 0.003264 0.703223 -0.710962
vn -0.863680 0.001011 -0.504040
vn -0.863680 0.001011 -0.504040
vn -0.863680 0.001011 -0.504040
vn 0.288006 -0.583061 -0.759666
vn 0.288006 -0.583061 -0.759666
vn 0.288006 -0.583061 -0.759666
vn -0.262614 0.073557 -0.962093
vn -0.262614 0.073557 -0.962093
vn -0.262614 0.073557 -0.962093
vn -0.531384 -0.455070 -0.714522
vn -0.531384 -0.455070 -0.714522
vn -0.531384 -0.455070 -0.714522
vn -0.434525 -0.006303 -0.900638
vn -0.434525 -0.006303 -0.900638
vn -0.434525 -0.006303 -0.900638
vn -0.418570 0.029396 -0.907709
vn -0.418570 0.029396 -0.907709
vn -0.418570 0.029396 -0.907709
vn -0.498547 -0.459719 -0.734921
vn -0.498547 -0.459719 -0.734921
vn -0.498547 -0.459719 -0.734921
vn -0.499891 -0.451727 -0.738953
vn -0.499891 -0.451727 -0.738953
vn -0.499891 -0.451727 -0.738953
vn -0.321382 0.301265 -0.897749
vn -0.321382 0.301265 -0.897749
vn -0.321382 0.301265 -0.897749
vn 0.855731 0.006139 -0.517385
vn 0.855731 0.006139 -0.517385
vn 0.855731 0.006139 -0.517385
vn -0.868749 0.002091 -0.495249
vn -0.868749 0.002091 -0.495249
vn -0.868749 0.002091 -0.495249
vn 0.290954 -0.593610 -0.750315
vn 0.290954 -0.593610 -0.750315
vn 0.290954 -0.593611 -0.750315
vn 0.305327 -0.605177 -0.735212
vn 0.305327 -0.605177 -0.735212
vn 0.305327 -0.605177 -0.735212
vn 0.877526 -0.000071 -0.479530
vn 0.877525 -0.000071 -0.479530
vn 0.877526 -0.000071 -0.479530
vn 0.774451 -0.017490 -0.632392
vn 0.774451 -0.017490 -0.632392
vn 0.774451 -0.017490 -0.632392
vn -0.812964 -0.029158 -0.581583
vn -0.812964 -0.029158 -0.581583
vn -0.812964 -0.029158 -0.581583
vn 0.012170 -0.000855 -0.999926
vn 0.012170 -0.000855 -0.999926
vn 0.012170 -0.000855 -0.999926
vn 0.010012 0.000043 -0.999950
vn 0.010012 0.000043 -0.999950
vn 0.010012 0.000043 -0.999950
vn 0.010882 0.003746 -0.999934
vn 0.010882 0.003746 -0.999934
vn 0.010882 0.003746 -0.999934
vn -0.024690 0.003026 -0.999691
vn -0.024690 0.003026 -0.999691
vn -0.024690 0.003026 -0.999691
vn -0.002935 -0.001275 -0.999995
vn -0.002935 -0.001275 -0.999995
vn -0.002935 -0.001275 -0.999995
vn -0.002175 0.000673 -0.999997
vn -0.002175 0.000673 -0.999997
vn -0.002175 0.000673 -0.999997
s off
f 3/132/1 2/2/2 1/140/3
f 3/132/4 1/140/5 4/128/6
f 4/128/7 1/140/8 24/5/9
f 5/6/10 4/128/11 10/7/12
f 6/8/13 5/6/14 10/7/15
f 4/128/16 24/5/17 10/7/18
f 6/8/19 10/7/20 7/115/21
f 7/115/22 8/137/23 6/8/24
f 2/2/25 3/132/26 12/11/27
f 1/3/28 2/134/29 15/120/30
f 1/141/31 15/121/32 24/139/33
f 3/131/34 4/129/35 13/123/36
f 5/138/37 11/125/38 4/127/39
f 5/6/40 6/8/41 11/14/42
f 14/110/43 6/8/44 8/137/45
f 10/7/46 24/5/47 27/16/48
f 11/14/49 6/8/50 25/17/51
f 7/116/52 14/109/53 8/10/54
f 3/133/55 18/98/56 12/136/57
f 15/119/58 2/135/59 17/106/60
f 13/122/61 4/4/62 11/126/63
f 17/19/64 2/2/65 12/11/66
f 3/1/67 9/113/68 18/97/69
f 9/112/70 3/130/71 13/124/72
f 13/13/73 11/14/74 16/21/75
f 7/115/76 10/7/77 19/100/78
f 17/19/79 12/11/80 18/99/81
f 15/118/82 17/107/83 22/103/84
f 15/12/85 22/104/86 41/24/87
f 9/20/88 13/13/89 21/25/90
f 19/100/91 10/7/92 27/16/93
f 15/12/94 41/24/95 24/5/96
f 7/9/97 19/101/98 35/84/99
f 9/114/100 20/96/101 18/18/102
f 22/104/103 23/28/104 41/24/105
f 14/15/106 7/117/107 35/85/108
f 9/20/109 21/25/110 20/27/111
f 6/8/112 14/110/113 25/17/114
f 14/111/115 35/86/116 32/95/117
f 19/100/118 27/16/119 28/30/120
f 32/29/121 25/17/122 14/110/123
f 21/25/124 13/13/125 16/21/126
f 24/5/127 41/24/128 27/16/129
f 26/31/130 16/21/131 11/14/132
f 26/31/133 11/14/134 25/17/135
f 18/99/136 37/79/137 17/19/138
f 21/25/139 31/33/140 20/27/141
f 25/17/142 32/29/143 29/34/144
f 35/87/145 42/81/146 32/94/147
f 33/91/148 22/23/149 17/108/150
f 30/37/151 21/25/152 16/21/153
f 30/37/154 16/21/155 26/31/156
f 41/24/157 43/66/158 27/16/159
f 27/16/160 43/66/161 35/26/162
f 27/16/163 35/26/164 28/30/165
f 19/22/166 28/102/167 35/83/168
f 25/17/169 29/34/170 26/31/171
f 23/93/172 22/105/173 33/92/174
f 37/79/175 18/99/176 20/27/177
f 31/33/178 21/25/179 30/37/180
f 42/82/181 34/39/182 32/29/183
f 41/24/184 23/28/185 36/40/186
f 33/36/187 36/40/188 23/28/189
f 26/31/190 29/34/191 30/37/192
f 36/40/193 33/36/194 17/19/195
f 32/29/196 34/39/197 29/34/198
f 35/26/199 43/66/200 44/41/201
f 35/90/202 44/60/203 39/73/204
f 20/27/205 38/43/206 37/79/207
f 31/33/208 38/43/209 20/27/210
f 37/79/211 36/40/212 17/19/213
f 42/35/214 35/88/215 45/63/216
f 40/76/217 36/40/218 37/79/219
f 35/89/220 39/74/221 45/62/222
f 45/64/223 34/39/224 42/82/225
f 46/70/226 40/45/227 37/80/228
f 48/68/229 46/69/230 37/32/231
f 48/67/232 37/78/233 38/71/234
f 41/24/235 36/40/236 43/66/237
f 45/64/238 29/34/239 34/39/240
f 43/65/241 36/77/242 47/57/243
f 50/55/244 39/72/245 44/61/246
f 40/76/247 46/46/248 36/40/249
f 47/48/250 36/40/251 46/46/252
f 39/42/253 50/56/254 52/50/255
f 39/75/256 52/53/257 45/44/258
f 43/38/259 47/58/260 49/59/261
f 38/43/262 31/33/263 30/37/264
f 44/41/265 43/66/266 49/51/267
f 51/52/268 29/34/269 45/64/270
f 45/64/271 52/54/272 51/52/273
f 48/47/274 38/43/275 30/37/276
f 51/52/277 30/37/278 29/34/279
f 44/41/280 49/51/281 50/49/282
f 46/46/283 48/47/284 47/48/285
f 48/47/286 30/37/287 47/48/288
f 47/48/289 30/37/290 51/52/291
f 49/51/292 47/48/293 50/49/294
f 47/48/295 51/52/296 50/49/297
f 50/49/298 51/52/299 52/54/300
