# This file uses centimeters as units for non-parametric coordinates.

v 5.000000 0.000003 5.000000
v 0.000000 0.000003 5.000000
v 5.000000 0.000003 0.000000
v 0.000000 0.000003 0.000000
v 4.753536 0.000003 4.753536
v 0.246464 0.000003 4.753536
v 0.246464 0.000003 0.246464
v 4.753536 0.000003 0.246464
v 4.295916 0.000003 4.585614
v 0.351572 -0.149817 4.404738
v 0.782236 -0.149817 0.420362
v 4.644312 -0.149817 0.631678
v 3.954660 0.000003 3.954660
v 0.957142 -0.149817 4.042857
v 1.045340 0.000003 1.045340
v 4.042858 -0.149817 0.957143
v 1.045340 0.000003 3.954660
v 3.954660 0.000003 1.045340
v 5.000000 0.000003 3.381516
v 4.688955 0.000003 3.264272
v 4.591751 -0.149817 3.229997
v 4.070835 -0.149817 3.130073
v 3.766340 0.000003 3.210280
v 1.093721 0.000003 3.014772
v 0.389166 -0.149817 3.207986
v 0.246464 0.000003 3.294610
v 0.000000 0.000003 3.381516
v 0.000000 0.000003 1.452817
v 0.271105 0.000003 1.662958
v 0.373721 -0.149817 1.418944
v 0.824913 -0.149817 1.711012
v 0.993303 0.000003 1.904703
v 3.954660 0.000003 1.890683
v 4.096090 -0.149817 1.831442
v 4.603100 -0.149817 1.619069
v 4.753536 0.000003 1.556054
v 5.000000 0.000003 1.452817
v 2.386375 0.000003 0.000000
v 2.397577 0.000003 0.246464
v 2.673512 -0.149817 0.536407
v 2.428555 -0.149817 0.928027
v 2.433886 0.000003 1.045340
v 2.433886 0.000003 3.954660
v 2.394144 -0.149817 4.088553
v 2.571154 -0.149817 4.547915
v 2.533064 0.000003 4.707378
v 2.386375 0.000003 5.000000
v 0.286325 -0.061436 4.713674
v 0.550150 -0.149817 4.646280
v 0.957142 -0.149817 3.519064
v 0.783583 -0.149817 3.094125
v 0.880709 -0.149817 2.457984
v 4.341312 -0.149817 0.347741
v 4.724276 -0.045095 0.275724
v 0.872267 -0.149817 1.285787
v 1.226295 -0.149817 0.954243
v 0.828955 -0.149817 1.027073
v 2.267010 -0.149817 1.972014
v 2.543446 -0.149817 2.860023
v 1.178616 -0.149817 2.983111
v 1.229750 0.000003 1.937739
v 2.436352 -0.149817 3.865190
v 1.260456 -0.149817 3.737944
v 2.436352 -0.149817 1.134810
v 1.260456 -0.149817 1.262056
v 3.863590 -0.149817 1.928159
v 3.736345 -0.149817 1.262056
v 3.400023 -0.149817 3.335216
v 3.588123 -0.149817 3.764028
v 3.775398 -0.149817 4.065376
v 3.962429 -0.149817 4.503248
v 4.264484 0.000003 4.743370
v 4.736124 0.000003 4.352023
v 4.644215 -0.149817 4.147435
v 4.030876 -0.149817 3.825795
v 4.623234 0.000003 4.331329
v 0.404728 -0.149817 0.816865
v 3.959724 -0.149817 3.414488
v 3.983114 -0.149817 2.580488
v 1.179789 -0.149817 2.116893
v 1.930834 -0.149817 2.185601
v 1.164240 -0.149817 1.787023
v 3.663267 -0.149817 2.806274
v 2.843061 -0.149817 2.587362
v 2.204870 0.000003 2.123998
v 3.611879 0.000003 3.059612
v 2.596539 0.000003 2.723581
v 0.816280 -0.149817 2.068045
v 0.439495 -0.149817 2.047449
v 0.807462 0.000003 1.865366
v 1.693746 -0.149817 0.401391
v 3.608485 -0.149817 0.358203
vt 0.199329 0.278745
vt 0.199329 0.278745
vt 0.199329 0.278745
vt 0.199329 0.278745
vt 0.199329 0.278745
vt 0.199329 0.278745
vt 0.199329 0.278745
vt 0.199329 0.278745
vt 0.199329 0.278745
vt 0.199329 0.278745
vt 0.199329 0.278745
vt 0.199329 0.278745
vt 0.199329 0.278745
vt 0.199329 0.278745
vt 0.199329 0.278745
vt 0.199329 0.278745
vt 0.199329 0.278745
vt 0.199329 0.278745
vt 0.199329 0.278745
vt 0.199329 0.278745
vt 0.199329 0.278745
vt 0.199329 0.278745
vt 0.199329 0.278745
vt 0.199329 0.278745
vt 0.199329 0.278745
vt 0.199329 0.278745
vt 0.199329 0.278745
vt 0.199329 0.278745
vt 0.199328 0.278745
vt 0.199329 0.278745
vt 0.199329 0.278745
vt 0.199329 0.278745
vt 0.199329 0.278745
vt 0.199329 0.278745
vt 0.199329 0.278745
vt 0.199329 0.278745
vt 0.199329 0.278745
vt 0.199329 0.278745
vt 0.199329 0.278745
vt 0.199329 0.278745
vt 0.199329 0.278745
vt 0.199329 0.278745
vt 0.224414 0.294000
vt 0.224414 0.294000
vt 0.199329 0.278745
vt 0.199329 0.278745
vt 0.199329 0.278745
vt 0.199329 0.278745
vt 0.199329 0.278745
vt 0.199329 0.278745
vt 0.199329 0.278745
vt 0.199329 0.278745
vt 0.199329 0.278745
vt 0.199329 0.278745
vt 0.199329 0.278745
vt 0.199329 0.278745
vt 0.199329 0.278745
vt 0.199329 0.278745
vt 0.199329 0.278745
vt 0.200754 0.303684
vt 0.200754 0.303684
vt 0.200754 0.303684
vt 0.200754 0.303684
vt 0.200754 0.303684
vt 0.200754 0.303684
vt 0.200754 0.303684
vt 0.200754 0.303684
vt 0.200754 0.303684
vt 0.199511 0.278620
vt 0.199511 0.278620
vt 0.200754 0.303684
vt 0.200754 0.303684
vt 0.200754 0.303684
vt 0.200754 0.303684
vt 0.200754 0.303684
vt 0.200754 0.303684
vt 0.200754 0.303684
vt 0.200754 0.303684
vt 0.200754 0.303684
vt 0.200754 0.303684
vt 0.200754 0.303684
vt 0.200754 0.303684
vt 0.200754 0.303684
vt 0.200754 0.303684
vt 0.200754 0.303684
vt 0.199329 0.278745
vt 0.199329 0.278745
vt 0.199329 0.278745
vt 0.199329 0.278745
vt 0.199329 0.278745
vt 0.199329 0.278745
vt 0.199329 0.278745
vt 0.199329 0.278745
vt 0.199329 0.278745
vt 0.199329 0.278745
vt 0.224414 0.294000
vt 0.200121 0.280448
vt 0.224414 0.294000
vt 0.224414 0.294000
vt 0.224414 0.294000
vt 0.224414 0.294000
vt 0.224414 0.294000
vt 0.224414 0.294000
vt 0.224414 0.294000
vt 0.224414 0.294000
vt 0.199329 0.278745
vt 0.200754 0.303684
vt 0.200754 0.303684
vt 0.199329 0.278745
vt 0.199329 0.278745
vt 0.199329 0.278745
vt 0.199329 0.278745
vt 0.200754 0.303684
vt 0.200754 0.303684
vt 0.199329 0.278745
vt 0.199329 0.278745
vt 0.199511 0.278620
vt 0.199511 0.278620
vt 0.199511 0.278620
vt 0.199511 0.278620
vt 0.199511 0.278620
vt 0.200754 0.303684
vt 0.199329 0.278745
vt 0.200754 0.303684
vt 0.199329 0.278745
vt 0.200754 0.303684
vt 0.199329 0.278745
vt 0.224414 0.294000
vt 0.199329 0.278745
vt 0.224414 0.294000
vt 0.224414 0.294000
vt 0.199329 0.278745
vt 0.199329 0.278745
vt 0.224414 0.294000
vt 0.224414 0.294000
vt 0.200121 0.280448
vt 0.199329 0.278745
vt 0.200121 0.280448
vt 0.200121 0.280448
vt 0.200121 0.280448
vt 0.200121 0.280448
vt 0.200121 0.280448
vt 0.200121 0.280448
vt 0.200121 0.280448
vt 0.200121 0.280448
vt 0.200121 0.280448
vt 0.200121 0.280448
vt 0.199329 0.278745
vt 0.200754 0.303684
vt 0.200754 0.303684
vt 0.199329 0.278745
vt 0.199511 0.281668
vt 0.199329 0.278745
vt 0.199511 0.281668
vt 0.199511 0.281668
vt 0.199511 0.281668
vt 0.199511 0.281668
vt 0.199511 0.281668
vt 0.199329 0.278745
vt 0.200754 0.303684
vt 0.199329 0.278745
vt 0.200754 0.303684
vn 0.000000 -1.000000 0.000000
vn 0.000000 -1.000000 0.000000
vn 0.000000 -1.000000 0.000000
vn 0.000000 -1.000000 0.000000
vn 0.000000 -1.000000 0.000000
vn 0.000000 -1.000000 0.000000
vn 0.000000 -1.000000 0.000000
vn 0.000000 -1.000000 0.000000
vn 0.000000 -1.000000 0.000000
vn 0.000000 -1.000000 0.000000
vn 0.000000 -1.000000 0.000000
vn 0.000000 -1.000000 0.000000
vn 0.000000 -1.000000 0.000000
vn 0.000000 -1.000000 0.000000
vn 0.000000 -1.000000 0.000000
vn -0.260623 -0.941364 0.214264
vn -0.260623 -0.941364 0.214265
vn -0.260623 -0.941364 0.214265
vn -0.004179 -0.738078 -0.674702
vn 0.051055 -0.829980 -0.555452
vn 0.000047 -0.745789 -0.666182
vn -0.004179 -0.738078 -0.674702
vn 0.771530 -0.635948 0.017650
vn 0.771531 -0.635948 0.017650
vn 0.771531 -0.635948 0.017650
vn 0.771531 -0.635948 0.017650
vn 0.448097 -0.891363 0.068416
vn 0.448097 -0.891363 0.068416
vn 0.448097 -0.891363 0.068416
vn 0.000000 -1.000000 -0.000000
vn 0.000000 -1.000000 -0.000000
vn 0.000000 -1.000000 -0.000000
vn 0.000000 -1.000000 -0.000000
vn 0.000000 -1.000000 -0.000000
vn 0.000000 -1.000000 -0.000000
vn 0.000000 -1.000000 -0.000000
vn 0.000000 -1.000000 -0.000000
vn 0.000000 -1.000000 -0.000000
vn 0.000000 -1.000000 -0.000000
vn 0.000000 -1.000000 -0.000000
vn 0.012949 -0.598974 -0.800664
vn 0.012949 -0.598974 -0.800664
vn 0.012949 -0.598974 -0.800664
vn 0.012949 -0.598974 -0.800664
vn 0.008330 -0.567685 0.823204
vn 0.008330 -0.567685 0.823204
vn 0.008330 -0.567685 0.823204
vn 0.008330 -0.567685 0.823204
vn -0.753410 -0.648330 -0.109734
vn -0.753410 -0.648330 -0.109734
vn -0.753410 -0.648330 -0.109734
vn -0.753410 -0.648330 -0.109734
vn 0.000000 -1.000000 0.000000
vn 0.000000 -1.000000 0.000000
vn 0.000000 -1.000000 0.000000
vn 0.000000 -1.000000 0.000000
vn 0.859906 -0.508662 -0.042726
vn 0.859906 -0.508662 -0.042726
vn 0.859906 -0.508662 -0.042726
vn 0.859906 -0.508662 -0.042726
vn 0.000000 -1.000000 -0.000000
vn 0.000000 -1.000000 -0.000000
vn 0.000000 -1.000000 -0.000000
vn 0.000000 -1.000000 -0.000000
vn 0.000000 -1.000000 -0.000000
vn -0.753446 -0.635377 0.169162
vn -0.753446 -0.635377 0.169162
vn -0.753446 -0.635377 0.169162
vn -0.753446 -0.635377 0.169162
vn 0.000000 -1.000000 0.000000
vn 0.000000 -1.000000 0.000000
vn 0.000000 -1.000000 0.000000
vn 0.000000 -1.000000 0.000000
vn 0.000000 -1.000000 0.000000
vn 0.000000 -1.000000 0.000000
vn 0.000000 -1.000000 0.000000
vn 0.000000 -1.000000 0.000000
vn 0.000000 -1.000000 -0.000000
vn 0.000000 -1.000000 -0.000000
vn 0.000000 -1.000000 -0.000000
vn 0.000000 -1.000000 -0.000000
vn -0.752917 -0.658112 -0.002374
vn -0.752917 -0.658112 -0.002374
vn -0.752917 -0.658112 -0.002374
vn -0.752917 -0.658112 -0.002374
vn 0.000000 -1.000000 0.000000
vn 0.000000 -1.000000 0.000000
vn 0.000000 -1.000000 0.000000
vn 0.662664 -0.747160 0.051271
vn 0.662664 -0.747160 0.051271
vn 0.662664 -0.747160 0.051271
vn 0.662664 -0.747160 0.051271
vn -0.787664 -0.615622 0.024382
vn -0.787664 -0.615622 0.024382
vn -0.787664 -0.615622 0.024382
vn -0.787664 -0.615622 0.024382
vn 0.000000 -1.000000 0.000000
vn 0.000000 -1.000000 0.000000
vn 0.000000 -1.000000 0.000000
vn 0.000000 -1.000000 0.000000
vn 0.000000 -1.000000 0.000000
vn 0.000000 -1.000000 0.000000
vn 0.000000 -1.000000 0.000000
vn 0.000000 -1.000000 0.000000
vn 0.216076 -0.948758 -0.230583
vn 0.216076 -0.948758 -0.230583
vn 0.216076 -0.948758 -0.230583
vn -0.007649 -0.567030 0.823661
vn -0.007649 -0.567030 0.823661
vn -0.007649 -0.567030 0.823661
vn -0.007649 -0.567030 0.823661
vn 0.000000 -1.000000 0.000000
vn 0.000000 -1.000000 0.000000
vn 0.000000 -1.000000 0.000000
vn 0.000000 -1.000000 0.000000
vn 0.655423 -0.622184 -0.428145
vn 0.655423 -0.622184 -0.428145
vn 0.655423 -0.622184 -0.428145
vn 0.000000 -1.000000 -0.000000
vn 0.000000 -1.000000 -0.000000
vn 0.000000 -1.000000 -0.000000
vn 0.000000 -1.000000 -0.000000
vn -0.006204 -0.629648 -0.776856
vn -0.006204 -0.629648 -0.776856
vn -0.006204 -0.629648 -0.776856
vn -0.006204 -0.629648 -0.776856
vn 0.000000 -1.000000 0.000000
vn 0.000000 -1.000000 0.000000
vn 0.000000 -1.000000 0.000000
vn 0.000000 -1.000000 0.000000
vn 0.001665 -0.800574 0.599231
vn 0.001665 -0.800574 0.599231
vn 0.001665 -0.800574 0.599231
vn 0.001665 -0.800574 0.599231
vn 0.000000 -1.000000 0.000000
vn 0.000000 -1.000000 0.000000
vn 0.000000 -1.000000 0.000000
vn 0.000000 -1.000000 0.000000
vn -0.780892 -0.624559 -0.011558
vn -0.780892 -0.624559 -0.011558
vn -0.780892 -0.624559 -0.011558
vn -0.780892 -0.624559 -0.011558
vn -0.780892 -0.624559 -0.011558
vn 0.395455 -0.904173 -0.161517
vn 0.395455 -0.904173 -0.161517
vn 0.395455 -0.904173 -0.161517
vn 0.000000 -1.000000 0.000000
vn 0.000000 -1.000000 0.000000
vn 0.000000 -1.000000 0.000000
vn 0.000000 -1.000000 0.000000
vn 0.025811 -0.646255 0.762685
vn 0.025811 -0.646255 0.762685
vn 0.025811 -0.646255 0.762685
vn 0.025811 -0.646255 0.762685
vn 0.025811 -0.646255 0.762685
vn 0.000000 -1.000000 -0.000000
vn 0.000000 -1.000000 -0.000000
vn 0.000000 -1.000000 -0.000000
vn 0.000000 -1.000000 -0.000000
vn 0.000000 -1.000000 -0.000000
vn 0.117033 -0.869859 -0.479217
vn 0.117033 -0.869859 -0.479217
vn 0.117033 -0.869859 -0.479217
vn 0.117033 -0.869859 -0.479217
vn 0.125575 -0.795167 -0.593245
vn 0.125575 -0.795167 -0.593245
vn 0.125575 -0.795167 -0.593245
vn 0.824774 -0.564805 0.027263
vn 0.824774 -0.564805 0.027263
vn 0.824774 -0.564805 0.027263
vn 0.824774 -0.564805 0.027263
vn 0.000000 -1.000000 0.000000
vn 0.000000 -1.000000 0.000000
vn 0.000000 -1.000000 0.000000
vn 0.000000 -1.000000 0.000000
vn 0.000000 -1.000000 0.000000
vn 0.000000 -1.000000 0.000000
vn 0.000000 -1.000000 0.000000
vn -0.007259 -0.606781 -0.794836
vn -0.058834 -0.851540 -0.520978
vn -0.002983 -0.583001 -0.812466
vn -0.002983 -0.583001 -0.812466
vn -0.002983 -0.583001 -0.812466
vn 0.768716 -0.639427 0.014457
vn 0.768716 -0.639427 0.014457
vn 0.768716 -0.639427 0.014457
vn 0.768716 -0.639427 0.014457
vn 0.768716 -0.639427 0.014457
vn 0.168514 -0.355481 0.919367
vn 0.168514 -0.355481 0.919367
vn 0.168514 -0.355481 0.919367
vn 0.572083 -0.814585 -0.095774
vn 0.572083 -0.814585 -0.095774
vn 0.572083 -0.814585 -0.095774
vn 0.000000 -1.000000 0.000000
vn 0.000000 -1.000000 0.000000
vn 0.000000 -1.000000 0.000000
vn 0.000000 -1.000000 0.000000
vn 0.000000 -1.000000 0.000000
vn 0.000000 -1.000000 0.000000
vn 0.000000 -1.000000 0.000000
vn 0.000000 -1.000000 0.000000
vn -0.751878 -0.658220 0.037758
vn -0.751878 -0.658220 0.037758
vn -0.751878 -0.658220 0.037758
vn -0.751878 -0.658220 0.037758
vn -0.034066 -0.726287 0.686547
vn -0.034066 -0.726287 0.686547
vn -0.034066 -0.726287 0.686547
vn -0.034066 -0.726287 0.686547
vn -0.700843 -0.713182 0.013837
vn -0.700843 -0.713182 0.013837
vn -0.700843 -0.713182 0.013837
vn -0.700843 -0.713182 0.013837
vn -0.101033 -0.683281 0.723132
vn -0.101033 -0.683281 0.723132
vn -0.101033 -0.683281 0.723132
vn -0.034066 -0.726287 -0.686547
vn -0.034066 -0.726287 -0.686547
vn -0.034066 -0.726287 -0.686547
vn -0.034066 -0.726287 -0.686547
vn 0.031028 -0.725211 -0.687828
vn 0.031028 -0.725211 -0.687828
vn 0.031028 -0.725211 -0.687828
vn 0.031028 -0.725211 -0.687828
vn 0.670283 -0.739957 -0.056429
vn 0.670283 -0.739957 -0.056429
vn 0.670283 -0.739957 -0.056429
vn 0.670283 -0.739957 -0.056429
vn 0.277984 -0.917339 -0.284982
vn 0.277984 -0.917339 -0.284982
vn 0.277984 -0.917339 -0.284982
vn 0.027014 -0.699963 0.713668
vn 0.027014 -0.699963 0.713668
vn 0.027014 -0.699963 0.713668
vn 0.027014 -0.699963 0.713668
vn 0.385023 -0.914602 -0.123535
vn 0.385023 -0.914602 -0.123535
vn 0.385023 -0.914602 -0.123535
vn 0.385023 -0.914602 -0.123535
vn 0.480302 -0.844365 -0.237398
vn 0.480302 -0.844365 -0.237398
vn 0.480302 -0.844365 -0.237398
vn 0.480302 -0.844365 -0.237398
vn 0.392412 -0.916461 0.078184
vn 0.392412 -0.916461 0.078184
vn 0.392412 -0.916461 0.078184
vn 0.000000 -1.000000 0.000000
vn 0.000000 -1.000000 0.000000
vn 0.000000 -1.000000 0.000000
vn 0.000000 -1.000000 0.000000
vn 0.000000 -1.000000 0.000000
vn 0.000000 -1.000000 0.000000
vn 0.000000 -1.000000 0.000000
vn 0.000000 -1.000000 0.000000
vn 0.000000 -1.000000 0.000000
vn 0.000000 -1.000000 0.000000
vn 0.000000 -1.000000 0.000000
vn 0.000000 -1.000000 0.000000
vn -0.326341 -0.731169 0.599077
vn -0.326341 -0.731169 0.599077
vn -0.326341 -0.731169 0.599077
vn -0.326341 -0.731169 0.599077
vn -0.113601 -0.776566 0.619709
vn -0.113601 -0.776566 0.619709
vn -0.113601 -0.776566 0.619709
vn 0.000000 -1.000000 0.000000
vn 0.000000 -1.000000 0.000000
vn 0.000000 -1.000000 0.000000
vn 0.000000 -1.000000 0.000000
vn 0.000000 -1.000000 0.000000
vn 0.000000 -1.000000 0.000000
vn -0.204892 -0.959148 -0.195077
vn -0.204892 -0.959148 -0.195077
vn -0.204892 -0.959148 -0.195077
vn 0.000000 -1.000000 -0.000000
vn 0.000000 -1.000000 -0.000000
vn 0.000000 -1.000000 -0.000000
vn 0.000000 -1.000000 -0.000000
vn 0.000000 -1.000000 -0.000000
vn -0.472618 -0.861709 -0.184635
vn -0.472618 -0.861709 -0.184635
vn -0.472618 -0.861709 -0.184635
vn -0.425982 -0.902173 0.067992
vn -0.425982 -0.902173 0.067992
vn -0.425982 -0.902173 0.067992
vn 0.087270 -0.776032 -0.624626
vn 0.087270 -0.776032 -0.624626
vn 0.087270 -0.776032 -0.624626
vn 0.387011 -0.852432 -0.351542
vn 0.387011 -0.852432 -0.351542
vn 0.387011 -0.852432 -0.351542
vn -0.601505 -0.796267 -0.064417
vn -0.601505 -0.796267 -0.064417
vn -0.601505 -0.796267 -0.064417
vn -0.601505 -0.796267 -0.064417
vn 0.000000 -1.000000 -0.000000
vn 0.000000 -1.000000 -0.000000
vn 0.000000 -1.000000 -0.000000
vn 0.000000 -1.000000 -0.000000
vn 0.000000 -1.000000 0.000000
vn 0.000000 -1.000000 0.000000
vn 0.000000 -1.000000 0.000000
vn 0.749914 -0.648107 0.132615
vn 0.749914 -0.648107 0.132615
vn 0.749914 -0.648107 0.132615
vn 0.749914 -0.648107 0.132615
vn -0.124835 -0.704437 0.698703
vn -0.124835 -0.704437 0.698703
vn -0.124835 -0.704437 0.698703
vn -0.124835 -0.704437 0.698703
vn -0.453566 -0.814713 0.361276
vn -0.453566 -0.814713 0.361276
vn -0.453566 -0.814713 0.361276
vn -0.453566 -0.814713 0.361276
vn -0.396435 -0.823205 0.406415
vn -0.396435 -0.823205 0.406415
vn -0.396435 -0.823205 0.406415
vn 0.000000 -1.000000 -0.000000
vn 0.000000 -1.000000 -0.000000
vn 0.000000 -1.000000 -0.000000
vn 0.105787 -0.689840 -0.716191
vn 0.105787 -0.689840 -0.716191
vn 0.105787 -0.689840 -0.716191
vn 0.105787 -0.689840 -0.716191
vn 0.000000 -1.000000 0.000000
vn 0.000000 -1.000000 0.000000
vn 0.000000 -1.000000 0.000000
vn -0.158170 -0.837423 0.523168
vn -0.158170 -0.837423 0.523168
vn -0.158170 -0.837423 0.523168
vn -0.158170 -0.837423 0.523168
vn 0.209486 -0.849968 -0.483394
vn 0.209486 -0.849968 -0.483394
vn 0.209486 -0.849968 -0.483394
vn 0.209486 -0.849968 -0.483394
vn 0.652103 -0.754735 -0.071665
vn 0.652103 -0.754735 -0.071665
vn 0.652103 -0.754735 -0.071665
vn 0.652103 -0.754735 -0.071665
vn 0.000000 -1.000000 -0.000000
vn 0.000000 -1.000000 -0.000000
vn 0.000000 -1.000000 -0.000000
vn 0.000000 -1.000000 -0.000000
vn 0.000000 -1.000000 -0.000000
vn -0.684424 -0.728853 -0.018377
vn -0.684424 -0.728853 -0.018377
vn -0.684424 -0.728853 -0.018377
vn -0.684424 -0.728853 -0.018377
vn 0.000000 -1.000000 0.000000
vn 0.000000 -1.000000 0.000000
vn 0.000000 -1.000000 0.000000
vn 0.000000 -1.000000 0.000000
vn -0.264191 -0.807346 0.527632
vn -0.264191 -0.807346 0.527632
vn -0.264191 -0.807346 0.527632
vn -0.264191 -0.807346 0.527632
vn -0.144105 -0.718172 0.680781
vn -0.144105 -0.718172 0.680781
vn -0.144105 -0.718172 0.680781
vn 0.000047 -0.745789 -0.666182
vn 0.051055 -0.829980 -0.555452
vn 0.070265 -0.857366 -0.509888
vn -0.076156 -0.913536 -0.399565
vn -0.058834 -0.851540 -0.520978
vn -0.007259 -0.606781 -0.794836
s off
f 60/43/1 81/44/2 59/96/3
f 46/48/4 47/49/5 2/2/6 6/6/7
f 4/4/8 38/38/9 39/39/10 7/7/11
f 36/36/12 37/37/13 19/19/14 20/20/15
f 49/51/16 48/50/17 10/10/18
f 7/7/19 39/39/20 91/159/21 11/11/22
f 35/35/23 36/36/24 20/20/25 21/21/26
f 24/24/27 51/53/28 52/54/29
f 11/60/30 91/160/31 40/61/32 41/62/33 56/63/34 57/64/35
f 34/65/36 35/66/37 21/67/38 22/68/39 79/126/40
f 43/45/41 44/46/42 14/14/43 17/17/44
f 15/15/45 56/58/46 41/41/47 42/42/48
f 33/33/49 34/34/50 79/127/51 23/23/52
f 20/20/53 19/19/54 1/1/55 73/111/56
f 21/21/57 20/20/58 73/111/59 74/112/60
f 78/124/61 22/68/62 21/67/63 74/113/64 75/114/65
f 23/23/66 78/125/67 75/115/68 13/13/69
f 59/96/70 62/98/71 63/99/72 60/43/73
f 2/2/74 27/27/75 26/26/76 6/6/77
f 29/29/78 28/28/79 4/4/80 7/7/81
f 30/30/82 29/29/83 7/7/84 77/123/85
f 57/64/86 77/122/87 11/60/88
f 32/32/89 31/31/90 55/57/91 15/15/92
f 16/16/93 34/34/94 33/33/95 18/18/96
f 3/3/97 37/37/98 36/36/99 8/8/100
f 39/39/101 38/38/102 3/3/103 8/8/104
f 53/55/105 54/56/106 12/12/107
f 42/42/108 41/41/109 16/16/110 18/18/111
f 66/100/112 58/101/113 64/102/114 67/103/115
f 87/97/116 59/136/117 85/138/118
f 69/104/119 62/98/120 59/96/121 68/105/122
f 13/13/123 70/106/124 44/46/125 43/45/126
f 70/107/127 71/108/128 45/74/129 44/75/130
f 71/109/131 72/110/132 46/48/133 45/47/134
f 1/1/135 47/49/136 46/48/137 72/110/138
f 6/6/139 26/26/140 25/25/141 10/10/142 48/50/143
f 50/52/144 51/53/145 24/24/146
f 44/75/147 45/74/148 49/76/149 14/77/150
f 45/47/151 46/48/152 6/6/153 48/50/154 49/51/155
f 14/77/156 10/78/157 25/79/158 51/80/159 50/81/160
f 88/152/161 89/154/162 29/155/163 90/156/164
f 32/32/165 88/148/166 90/153/167
f 14/14/168 50/52/169 24/24/170 17/17/171
f 12/83/172 35/66/173 34/65/174 16/84/175
f 16/84/176 53/85/177 12/83/178
f 92/161/179 39/39/180 8/8/181 54/56/182 53/55/183
f 8/8/184 36/36/185 35/35/186 12/12/187 54/56/188
f 57/59/189 56/58/190 15/15/191
f 55/57/192 57/59/193 15/15/194
f 41/62/195 40/61/196 92/162/197 53/85/198 16/84/199
f 49/76/200 10/78/201 14/77/202
f 24/24/203 32/32/204 80/129/205 60/86/206
f 43/45/207 17/17/208 63/89/209 62/88/210
f 17/17/211 24/24/212 60/86/213 63/89/214
f 32/32/215 82/132/216 61/87/217
f 15/15/218 42/42/219 64/91/220 65/90/221
f 42/42/222 18/18/223 67/92/224 64/91/225
f 18/18/226 33/33/227 66/93/228 67/92/229
f 86/137/230 23/23/231 68/94/232
f 13/13/233 43/45/234 62/88/235 69/95/236
f 23/23/237 13/13/238 69/95/239 68/94/240
f 9/69/241 71/70/242 70/117/243 13/118/244
f 9/9/245 72/110/246 71/109/247
f 1/1/248 72/110/249 5/5/250
f 73/111/251 1/1/252 5/5/253
f 76/116/254 5/5/255 9/9/256
f 13/118/257 76/119/258 9/69/259
f 75/120/260 74/121/261 76/119/262 13/118/263
f 74/112/264 73/111/265 76/116/266
f 76/116/267 73/111/268 5/5/269
f 5/5/270 72/110/271 9/9/272
f 77/123/273 7/7/274 11/11/275
f 31/71/276 30/72/277 77/122/278 57/64/279 55/73/280
f 23/23/281 22/22/282 78/125/283
f 23/23/284 79/127/285 22/22/286
f 80/129/287 32/32/288 61/87/289
f 81/139/290 85/138/291 59/136/292
f 32/32/293 15/15/294 65/90/295 82/132/296
f 64/102/297 58/101/298 82/128/299 65/130/300
f 66/100/301 84/131/302 58/101/303
f 33/33/304 23/23/305 83/133/306 66/93/307
f 58/140/308 85/138/309 61/141/310 82/142/311
f 84/143/312 87/97/313 85/138/314 58/140/315
f 83/133/316 23/23/317 86/137/318
f 80/134/319 81/44/320 60/43/321
f 61/141/322 85/138/323 81/139/324 80/144/325
f 83/135/326 84/131/327 66/100/328
f 86/145/329 87/97/330 84/143/331 83/146/332
f 68/147/333 59/136/334 87/97/335 86/145/336
f 24/24/337 52/54/338 88/148/339 32/32/340
f 52/82/341 51/80/342 25/79/343 89/150/344 88/149/345
f 25/25/346 26/26/347 29/29/348 89/151/349
f 26/26/350 27/27/351 28/28/352 29/29/353
f 90/156/354 29/155/355 30/157/356 31/158/357
f 32/32/358 90/153/359 31/31/360
f 91/159/361 39/39/362 40/40/363
f 40/40/364 39/39/365 92/161/366
