# This file uses centimeters as units for non-parametric coordinates.

v 0.000000 0.000000 0.000000
v 5.000000 0.000000 0.000000
v 0.000000 2.500000 5.000000
v 5.000000 2.500000 5.000000
v 0.246464 0.111892 0.219601
v 4.753536 0.111892 0.219601
v 4.753536 2.418388 4.746353
v 0.246464 2.418388 4.746353
v 0.343669 0.022533 0.374229
v 4.648428 0.136753 0.598399
v 4.656331 2.240767 4.727758
v 0.355689 2.110014 4.471142
v 0.957142 0.301044 0.920837
v 4.042858 0.301044 0.920837
v 3.978657 2.039254 4.069864
v 0.957142 1.962256 4.181150
v 1.045339 0.474574 0.931405
v 3.954661 0.474574 0.931405
v 3.954661 2.055706 4.034550
v 1.045339 2.055706 4.034550
v 0.000000 0.995104 1.953001
v 0.311044 0.877190 1.721582
v 0.408249 0.759261 1.820138
v 1.094980 0.819065 1.937511
v 1.183176 0.966674 1.897205
v 3.906280 0.990460 1.943888
v 3.951477 0.950138 1.953570
v 4.610834 0.769253 1.839750
v 4.753536 0.863417 1.694551
v 5.000000 0.823962 1.617117
v 5.000000 1.870715 3.671484
v 4.753536 1.823846 3.579499
v 4.656331 1.671871 3.611237
v 4.185622 1.511780 3.297040
v 4.006698 1.665563 3.268851
v 1.045339 1.671928 3.281344
v 0.903910 1.565333 3.402144
v 0.396900 1.661748 3.591370
v 0.246464 1.823846 3.579499
v 0.000000 1.870715 3.671484
v 2.613625 2.500000 5.000000
v 2.602423 2.418388 4.746353
v 2.596682 2.227549 4.701816
v 2.571446 1.975475 4.207092
v 2.566114 2.055706 4.034550
v 2.566114 0.474574 0.931405
v 2.605857 0.280298 0.880121
v 2.428846 0.071752 0.470827
v 2.466936 0.132847 0.260728
v 2.613625 0.000000 0.000000
v 4.713674 0.075247 0.283011
v 4.449850 0.027095 0.383183
v 4.042858 0.628027 1.562577
v 4.216418 0.820945 1.941201
v 4.119291 1.109747 2.508007
v 0.658688 2.238919 4.724132
v 0.275724 2.364921 4.740757
v 4.072552 1.868559 3.997258
v 3.896301 1.963573 4.183734
v 4.163671 2.017105 4.288795
v 2.563648 1.521424 3.315969
v 2.563648 0.872133 2.041662
v 3.821385 0.871344 2.040115
v 3.915626 1.515450 3.304244
v 2.563648 0.381703 1.079140
v 3.739544 0.699799 1.703438
v 2.563648 1.881597 4.022847
v 3.739544 1.823829 3.909471
v 1.136410 1.521424 3.315969
v 1.263656 1.823829 3.909471
v 1.265769 0.849021 1.996303
v 1.263656 0.439471 1.192517
vt 0.199329 0.278745
vt 0.199329 0.278745
vt 0.199329 0.278745
vt 0.199329 0.278745
vt 0.199329 0.278745
vt 0.199329 0.278745
vt 0.199329 0.278745
vt 0.199329 0.278745
vt 0.199329 0.278745
vt 0.199329 0.278745
vt 0.199329 0.278745
vt 0.199329 0.278745
vt 0.199329 0.278745
vt 0.199329 0.278745
vt 0.199329 0.278745
vt 0.199329 0.278745
vt 0.199329 0.278745
vt 0.199329 0.278745
vt 0.199329 0.278745
vt 0.199329 0.278745
vt 0.199329 0.278745
vt 0.199329 0.278745
vt 0.199329 0.278745
vt 0.199329 0.278745
vt 0.199329 0.278745
vt 0.199329 0.278745
vt 0.199329 0.278745
vt 0.199329 0.278745
vt 0.199329 0.278745
vt 0.199329 0.278745
vt 0.199329 0.278745
vt 0.199329 0.278745
vt 0.199329 0.278745
vt 0.199329 0.278745
vt 0.199329 0.278745
vt 0.199329 0.278745
vt 0.199329 0.278745
vt 0.199329 0.278745
vt 0.199329 0.278745
vt 0.199329 0.278745
vt 0.199329 0.278745
vt 0.199329 0.278745
vt 0.199329 0.278745
vt 0.199329 0.278745
vt 0.199329 0.278745
vt 0.222199 0.295108
vt 0.222199 0.295108
vt 0.199329 0.278745
vt 0.199329 0.278745
vt 0.199329 0.278745
vt 0.199329 0.278745
vt 0.199329 0.278745
vt 0.199329 0.278745
vt 0.199329 0.278745
vt 0.199329 0.278745
vt 0.199329 0.278745
vt 0.199329 0.278745
vt 0.199329 0.278745
vt 0.199329 0.278745
vt 0.199329 0.278745
vt 0.199329 0.278745
vt 0.199329 0.278745
vt 0.200754 0.303684
vt 0.200754 0.303684
vt 0.200754 0.303684
vt 0.200754 0.303684
vt 0.200754 0.303684
vt 0.200754 0.303684
vt 0.200754 0.303684
vt 0.200754 0.303684
vt 0.200754 0.303684
vt 0.200754 0.303684
vt 0.200754 0.303684
vt 0.200754 0.303684
vt 0.200754 0.303684
vt 0.200754 0.303684
vt 0.200754 0.303684
vt 0.200754 0.303684
vt 0.200754 0.303684
vt 0.200754 0.303684
vt 0.200754 0.303684
vt 0.200754 0.303684
vt 0.200754 0.303684
vt 0.200754 0.303684
vt 0.200754 0.303684
vt 0.200754 0.303684
vt 0.200754 0.303684
vt 0.200754 0.303684
vt 0.199329 0.278745
vt 0.199329 0.278745
vt 0.199329 0.278745
vt 0.199329 0.278745
vt 0.199329 0.278745
vt 0.199329 0.278745
vt 0.199329 0.278745
vt 0.199329 0.278745
vt 0.199329 0.278745
vt 0.199329 0.278745
vt 0.222199 0.295108
vt 0.222199 0.295108
vt 0.222199 0.295108
vt 0.222199 0.295108
vt 0.222199 0.295108
vt 0.222199 0.295108
vt 0.222199 0.295108
vt 0.222199 0.295108
vt 0.222199 0.295108
vt 0.222199 0.295108
vn 0.000000 -0.891007 0.453990
vn 0.000000 -0.891007 0.453990
vn 0.000000 -0.891007 0.453991
vn 0.000000 -0.891007 0.453990
vn 0.000000 -0.891007 0.453990
vn 0.000000 -0.891007 0.453990
vn 0.000000 -0.891007 0.453990
vn 0.000000 -0.891007 0.453990
vn 0.000000 -0.891007 0.453990
vn 0.000000 -0.891007 0.453990
vn 0.000000 -0.891007 0.453990
vn 0.000000 -0.891007 0.453990
vn 0.000000 -0.891007 0.453990
vn 0.000000 -0.891007 0.453990
vn 0.000000 -0.891007 0.453990
vn 0.000000 -0.891007 0.453990
vn 0.000000 -0.891007 0.453990
vn 0.000000 -0.891007 0.453990
vn 0.000000 -0.891007 0.453990
vn 0.000000 -0.891007 0.453990
vn -0.015031 -0.930647 -0.365608
vn -0.014708 -0.930896 -0.364989
vn 0.260622 -0.936036 0.236459
vn 0.780188 -0.558873 0.281012
vn 0.780472 -0.556027 0.285828
vn 0.809588 -0.525468 0.261629
vn 0.801167 -0.536327 0.265489
vn -0.005549 -0.167371 0.985878
vn -0.000361 -0.169166 0.985587
vn -0.000167 -0.169233 0.985576
vn -0.005549 -0.167371 0.985878
vn -0.770613 -0.575189 0.274434
vn -0.770079 -0.575502 0.275274
vn -0.810952 -0.516628 0.274685
vn -0.801727 -0.530981 0.274397
vn -0.379159 -0.818824 0.431006
vn -0.030408 -0.889228 0.456453
vn -0.008817 -0.891582 0.452773
vn 0.000000 -0.891007 0.453990
vn 0.000000 -0.891007 0.453990
vn 0.000000 -0.891007 0.453990
vn 0.003186 -0.894259 0.447539
vn 0.001378 -0.892420 0.451204
vn 0.000000 -0.891007 0.453990
vn 0.000000 -0.891007 0.453990
vn 0.000000 -0.891007 0.453990
vn 0.000000 -0.891007 0.453990
vn 0.001509 -0.168503 0.985700
vn -0.001538 -0.168863 0.985638
vn -0.012949 -0.170197 0.985325
vn -0.012949 -0.170197 0.985325
vn -0.006241 -0.880789 -0.473468
vn -0.006241 -0.880789 -0.473468
vn 0.001029 -0.879960 -0.475046
vn 0.001275 -0.879931 -0.475099
vn -0.006241 -0.880789 -0.473468
vn 0.793487 -0.509775 0.332427
vn 0.792455 -0.524705 0.310966
vn 0.840179 -0.484180 0.244275
vn 0.830270 -0.485071 0.274516
vn 0.000000 -0.891007 0.453990
vn 0.000000 -0.891007 0.453990
vn 0.000000 -0.891007 0.453990
vn 0.000000 -0.891007 0.453990
vn -0.801727 -0.530981 0.274397
vn -0.810952 -0.516628 0.274685
vn -0.845735 -0.457261 0.275035
vn -0.845735 -0.457261 0.275035
vn 0.000000 -0.891007 0.453990
vn 0.000000 -0.891007 0.453990
vn 0.000000 -0.891007 0.453990
vn 0.000000 -0.891007 0.453990
vn 0.830270 -0.485071 0.274516
vn 0.840179 -0.484180 0.244275
vn 0.876299 -0.472729 0.092881
vn 0.876299 -0.472729 0.092881
vn 0.000000 -0.891007 0.453990
vn 0.000000 -0.891007 0.453990
vn 0.000000 -0.891007 0.453990
vn 0.000000 -0.891007 0.453991
vn 0.000000 -0.891007 0.453990
vn 0.000000 -0.891007 0.453990
vn 0.000000 -0.891007 0.453990
vn 0.000000 -0.891007 0.453990
vn 0.000000 -0.891007 0.453990
vn 0.000000 -0.891007 0.453990
vn 0.000000 -0.891007 0.453990
vn 0.000000 -0.891007 0.453990
vn 0.801167 -0.536327 0.265489
vn 0.809588 -0.525468 0.261629
vn 0.838897 -0.484967 0.247103
vn 0.838897 -0.484967 0.247103
vn 0.000000 -0.891007 0.453990
vn 0.000000 -0.891007 0.453990
vn 0.000000 -0.891007 0.453990
vn -0.007667 -0.890009 0.455879
vn -0.011256 -0.889523 0.456752
vn -0.698793 -0.639535 0.320443
vn -0.690360 -0.639216 0.338831
vn -0.729791 -0.638174 0.245235
vn -0.729791 -0.638174 0.245235
vn -0.729791 -0.638174 0.245235
vn 0.000000 -0.891007 0.453991
vn 0.000000 -0.891007 0.453990
vn 0.000000 -0.891007 0.453990
vn 0.000000 -0.891007 0.453990
vn 0.787666 -0.559591 0.257761
vn 0.792455 -0.524705 0.310966
vn 0.793487 -0.509775 0.332427
vn 0.787666 -0.559591 0.257761
vn 0.000000 -0.891007 0.453990
vn 0.000000 -0.891007 0.453990
vn 0.000000 -0.891007 0.453990
vn 0.000000 -0.891007 0.453990
vn 0.000000 -0.891007 0.453990
vn 0.000000 -0.891007 0.453990
vn 0.000000 -0.891007 0.453990
vn 0.000000 -0.891007 0.453991
vn -0.007225 -0.204301 0.978882
vn -0.011430 -0.215917 0.976345
vn -0.216076 -0.740668 0.636178
vn 0.001275 -0.879931 -0.475099
vn 0.001029 -0.879960 -0.475046
vn 0.007649 -0.879162 -0.476461
vn 0.007649 -0.879162 -0.476461
vn 0.000000 -0.891007 0.453990
vn 0.000000 -0.891007 0.453990
vn 0.000000 -0.891007 0.453991
vn 0.000000 -0.891007 0.453990
vn 0.000000 -0.891007 0.453990
vn 0.000000 -0.891007 0.453990
vn 0.000000 -0.891007 0.453990
vn 0.000000 -0.891007 0.453990
vn 0.000000 -0.891007 0.453991
vn 0.000000 -0.891007 0.453990
vn 0.000000 -0.891007 0.453990
vn 0.000000 -0.891007 0.453990
vn 0.011569 -0.167303 0.985838
vn -0.001538 -0.168863 0.985638
vn 0.001509 -0.168503 0.985700
vn 0.011569 -0.167303 0.985838
vn 0.000000 -0.891007 0.453990
vn 0.000000 -0.891007 0.453990
vn 0.000000 -0.891007 0.453990
vn 0.000000 -0.891007 0.453990
vn 0.027350 -0.922518 -0.384983
vn -0.002363 -0.922589 -0.385777
vn 0.003487 -0.922640 -0.385647
vn 0.027350 -0.922518 -0.384983
vn 0.000000 -0.891007 0.453990
vn 0.000000 -0.891007 0.453990
vn 0.000000 -0.891007 0.453990
vn 0.000000 -0.891007 0.453991
vn 0.780891 -0.551240 0.293842
vn 0.780472 -0.556027 0.285828
vn 0.780188 -0.558873 0.281012
vn 0.780891 -0.551240 0.293842
vn 0.780891 -0.551240 0.293842
vn -0.008358 -0.889421 0.457014
vn -0.030408 -0.889228 0.456453
vn -0.379159 -0.818824 0.431006
vn 0.000000 -0.891007 0.453990
vn 0.000000 -0.891007 0.453990
vn 0.000000 -0.891007 0.453991
vn 0.000000 -0.891007 0.453990
vn 0.003487 -0.922640 -0.385647
vn -0.002363 -0.922589 -0.385777
vn -0.025811 -0.922070 -0.386163
vn -0.014708 -0.930896 -0.364989
vn -0.015031 -0.930647 -0.365608
vn 0.000000 -0.891007 0.453990
vn 0.000000 -0.891007 0.453990
vn 0.000000 -0.891007 0.453990
vn -0.030408 -0.889228 0.456453
vn -0.008358 -0.889421 0.457014
vn -0.008817 -0.891582 0.452773
vn -0.030408 -0.889228 0.456453
vn 0.000000 -0.891007 0.453990
vn 0.000000 -0.891007 0.453990
vn 0.000000 -0.891007 0.453990
vn -0.721868 -0.600403 0.344128
vn -0.734201 -0.592141 0.332141
vn -0.660396 -0.636288 0.398766
vn -0.690360 -0.639216 0.338831
vn -0.698793 -0.639535 0.320443
vn -0.811117 -0.530071 0.247212
vn -0.811117 -0.530071 0.247212
vn -0.734201 -0.592141 0.332141
vn -0.721868 -0.600403 0.344128
vn -0.811117 -0.530071 0.247212
vn 0.000000 -0.891007 0.453990
vn 0.000000 -0.891007 0.453990
vn 0.000000 -0.891007 0.453990
vn 0.000000 -0.891007 0.453990
vn 0.000000 -0.891007 0.453990
vn 0.000000 -0.891007 0.453990
vn 0.000000 -0.891007 0.453990
vn -0.000167 -0.169233 0.985576
vn -0.000361 -0.169166 0.985587
vn 0.004790 -0.170944 0.985269
vn -0.011430 -0.215917 0.976345
vn -0.007225 -0.204301 0.978882
vn -0.768714 -0.576299 0.277413
vn -0.770079 -0.575502 0.275274
vn -0.770613 -0.575189 0.274434
vn -0.768714 -0.576299 0.277413
vn -0.768714 -0.576299 0.277413
vn 0.001378 -0.892420 0.451204
vn 0.003186 -0.894259 0.447539
vn 0.315964 -0.879454 -0.355988
vn -0.011256 -0.889523 0.456752
vn -0.007667 -0.890009 0.455879
vn -0.654669 -0.570876 0.495489
vn 0.000000 -0.891007 0.453990
vn 0.000000 -0.891007 0.453990
vn 0.000000 -0.891007 0.453990
vn 0.000000 -0.891007 0.453990
vn 0.000000 -0.891007 0.453990
vn 0.000000 -0.891007 0.453990
vn 0.000000 -0.891007 0.453990
vn 0.860247 -0.484311 0.159431
vn 0.860247 -0.484311 0.159431
vn 0.860247 -0.484311 0.159431
vn 0.860247 -0.484311 0.159431
vn 0.034066 -0.958813 -0.281989
vn 0.034066 -0.958813 -0.281989
vn 0.034066 -0.958813 -0.281989
vn 0.034066 -0.958813 -0.281989
vn 0.700841 -0.641733 0.311450
vn 0.700841 -0.641733 0.311450
vn 0.700841 -0.641733 0.311450
vn 0.700841 -0.641733 0.311450
vn 0.653992 -0.624469 0.427005
vn 0.653992 -0.624469 0.427005
vn 0.653992 -0.624469 0.427005
vn 0.653992 -0.624469 0.427005
vn 0.034066 -0.335441 0.941445
vn 0.034066 -0.335441 0.941445
vn 0.034066 -0.335441 0.941445
vn 0.034066 -0.335441 0.941445
vn -0.031028 -0.333901 0.942097
vn -0.031028 -0.333901 0.942097
vn -0.031028 -0.333901 0.942097
vn -0.031028 -0.333901 0.942097
vn -0.670280 -0.633691 0.386214
vn -0.670280 -0.633691 0.386214
vn -0.670280 -0.633691 0.386214
vn -0.670280 -0.633691 0.386214
vn -0.861153 -0.489734 0.136297
vn -0.861153 -0.489734 0.136297
vn -0.861153 -0.489734 0.136297
vn -0.861153 -0.489734 0.136297
vn -0.031028 -0.958435 -0.283619
vn -0.031028 -0.958435 -0.283619
vn -0.031028 -0.958435 -0.283619
vn -0.031028 -0.958435 -0.283619
vn -0.730587 -0.576567 0.365805
vn -0.730587 -0.576567 0.365805
vn -0.730587 -0.576567 0.365805
vn -0.730587 -0.576567 0.365805
s off
f 61/46/1 62/47/2 63/99/3 64/100/4
f 49/51/5 50/52/6 2/2/7 6/6/8
f 29/29/9 30/30/10 31/31/11 32/32/12
f 4/4/13 41/41/14 42/42/15 7/7/16
f 39/39/17 40/40/18 21/21/19 22/22/20
f 52/54/21 51/53/22 10/10/23
f 28/28/24 29/29/25 32/32/26 33/33/27
f 7/7/28 42/42/29 43/43/30 11/11/31
f 38/38/32 39/39/33 22/22/34 23/23/35
f 27/27/36 54/56/37 55/57/38
f 11/63/39 43/64/40 44/65/41 59/66/42 60/67/43
f 37/68/44 38/69/45 23/70/46 24/71/47
f 46/48/48 47/49/49 14/14/50 18/18/51
f 15/15/52 59/61/53 44/44/54 45/45/55 19/19/56
f 36/36/57 37/37/58 24/24/59 25/25/60
f 22/22/61 21/21/62 1/1/63 5/5/64
f 23/23/65 22/22/66 5/5/67 9/9/68
f 24/71/69 23/70/70 9/72/71 13/73/72
f 25/25/73 24/24/74 13/13/75 17/17/76
f 62/47/77 65/101/78 66/102/79 63/99/80
f 2/2/81 30/30/82 29/29/83 6/6/84
f 32/32/85 31/31/86 4/4/87 7/7/88
f 33/33/89 32/32/90 7/7/91 11/11/92
f 34/74/93 33/75/94 11/63/95 60/67/96 58/76/97
f 35/35/98 34/34/99 58/60/100 15/15/101 19/19/102
f 67/103/103 61/46/104 64/100/105 68/104/106
f 16/16/107 37/37/108 36/36/109 20/20/110
f 3/3/111 40/40/112 39/39/113 8/8/114
f 42/42/115 41/41/116 3/3/117 8/8/118
f 56/58/119 57/59/120 12/12/121
f 45/45/122 44/44/123 16/16/124 20/20/125
f 69/105/126 61/46/127 67/103/128 70/106/129
f 71/107/130 62/47/131 61/46/132 69/105/133
f 72/108/134 65/101/135 62/47/136 71/107/137
f 13/13/138 47/49/139 46/48/140 17/17/141
f 9/72/142 48/77/143 47/78/144 13/73/145
f 5/5/146 49/51/147 48/50/148 9/9/149
f 1/1/150 50/52/151 49/51/152 5/5/153
f 6/6/154 29/29/155 28/28/156 10/10/157 51/53/158
f 53/55/159 54/56/160 27/27/161
f 47/78/162 48/77/163 52/79/164 14/80/165
f 48/50/166 49/51/167 6/6/168 51/53/169 52/54/170
f 14/80/171 10/81/172 28/82/173 54/83/174 53/84/175
f 55/85/176 54/83/177 28/82/178 33/75/179 34/74/180
f 26/26/181 27/27/182 55/57/183 34/34/184 35/35/185
f 14/14/186 53/55/187 27/27/188 26/26/189 18/18/190
f 12/86/191 38/69/192 37/68/193 16/87/194
f 16/87/195 56/88/196 12/86/197
f 43/43/198 42/42/199 8/8/200 57/59/201 56/58/202
f 8/8/203 39/39/204 38/38/205 12/12/206 57/59/207
f 60/62/208 59/61/209 15/15/210
f 58/60/211 60/62/212 15/15/213
f 44/65/214 43/64/215 56/88/216 16/87/217
f 52/79/218 10/81/219 14/80/220
f 26/26/221 35/35/222 64/90/223 63/89/224
f 46/48/225 18/18/226 66/92/227 65/91/228
f 18/18/229 26/26/230 63/89/231 66/92/232
f 35/35/233 19/19/234 68/93/235 64/90/236
f 19/19/237 45/45/238 67/94/239 68/93/240
f 45/45/241 20/20/242 70/95/243 67/94/244
f 20/20/245 36/36/246 69/96/247 70/95/248
f 36/36/249 25/25/250 71/97/251 69/96/252
f 17/17/253 46/48/254 65/91/255 72/98/256
f 25/25/257 17/17/258 72/98/259 71/97/260
