# This file uses centimeters as units for non-parametric coordinates.

v 0.148699 0.787677 -0.191260
v 0.270761 0.560854 -0.123267
v 0.137616 0.222052 -0.385432
v 0.090324 0.765026 -0.238760
v -0.073355 0.737408 -0.265066
v 0.386986 0.276308 -0.045529
v 0.012616 0.793368 -0.066150
v 0.290253 -0.000838 -0.307338
v -0.196905 0.625869 -0.246637
v 0.362821 0.341734 0.110385
v -0.261803 0.428094 -0.266689
v 0.189747 0.590824 0.207405
v 0.091637 0.681653 0.214468
v 0.154994 -0.050367 -0.398137
v 0.404491 0.070744 0.076010
v -0.159388 0.012632 -0.409963
v -0.236538 0.578529 0.006548
v 0.349266 -0.052249 0.114872
v -0.102717 0.693611 0.144432
v 0.376040 0.108861 0.175489
v 0.150062 0.086490 0.375188
v 0.009997 0.159908 0.426837
v -0.007750 0.403729 0.358281
v 0.326348 -0.025301 0.206411
v -0.162735 -0.131347 -0.329495
v -0.192958 -0.117274 -0.251687
v 0.079040 0.018047 0.394809
v -0.367215 0.200912 0.004552
v -0.304746 0.371829 0.126608
v -0.351304 0.010667 -0.242114
v -0.352969 0.196256 0.146347
v -0.373569 -0.108924 -0.145492
v -0.294621 -0.115011 -0.275379
v -0.384012 -0.104563 -0.088274
v -0.374930 0.059910 0.036647
v -0.383862 -0.110233 -0.086514
v -0.384132 -0.110217 -0.084976
v -0.383183 -0.110480 -0.075178
v -0.383817 -0.110341 -0.085450
v -0.383554 -0.110492 -0.081146
v -0.382929 -0.110581 -0.075517
v -0.383134 -0.110583 -0.076834
v -0.094897 0.128867 0.411767
v -0.383497 -0.110520 -0.081164
v -0.175064 0.089271 0.365838
v -0.382890 -0.110685 -0.086779
v -0.383112 -0.110569 -0.076304
v -0.303266 -0.119509 -0.163898
v -0.381794 -0.110669 -0.071210
v -0.259135 -0.094605 0.255970
v 0.050758 -0.116450 0.327917
v -0.204651 -0.151438 0.263951
vt 0.211594 0.300503
vt 0.211594 0.300503
vt 0.211594 0.300503
vt 0.211594 0.300503
vt 0.211594 0.300503
vt 0.211594 0.300503
vt 0.211594 0.300503
vt 0.211594 0.300503
vt 0.211594 0.300503
vt 0.211594 0.300503
vt 0.211594 0.300503
vt 0.211594 0.300503
vt 0.211594 0.300503
vt 0.211594 0.300503
vt 0.211594 0.300503
vt 0.211594 0.300503
vt 0.211594 0.300503
vt 0.211594 0.300503
vt 0.211594 0.300503
vt 0.211594 0.300503
vt 0.211594 0.300503
vt 0.211594 0.300503
vt 0.211594 0.300503
vt 0.211594 0.300503
vt 0.211594 0.300503
vt 0.211594 0.300503
vt 0.211594 0.300503
vt 0.211594 0.300503
vt 0.211594 0.300503
vt 0.211594 0.300503
vt 0.211594 0.300503
vt 0.211594 0.300503
vt 0.211594 0.300503
vt 0.211594 0.300503
vt 0.211594 0.300503
vt 0.211594 0.300503
vt 0.211594 0.300503
vt 0.211594 0.300503
vt 0.211594 0.300503
vt 0.211594 0.300503
vt 0.211594 0.300503
vt 0.211594 0.300503
vt 0.211594 0.300503
vt 0.211594 0.300503
vt 0.211594 0.300503
vt 0.211594 0.300503
vt 0.211594 0.300503
vt 0.211594 0.300503
vt 0.211594 0.300503
vt 0.211594 0.300503
vt 0.211594 0.300503
vt 0.211594 0.300503
vn 0.607302 0.090197 -0.789335
vn 0.607302 0.090197 -0.789335
vn 0.607302 0.090197 -0.789335
vn -0.177847 0.955120 -0.236890
vn -0.177847 0.955120 -0.236890
vn -0.177847 0.955120 -0.236890
vn 0.702339 0.242006 -0.669442
vn 0.702339 0.242006 -0.669442
vn 0.702339 0.242006 -0.669442
vn 0.108617 0.268042 -0.957265
vn 0.108617 0.268042 -0.957265
vn 0.108617 0.268042 -0.957265
vn -0.128459 0.967743 -0.216728
vn -0.128459 0.967743 -0.216728
vn -0.128459 0.967743 -0.216728
vn 0.847885 0.504831 0.161975
vn 0.847885 0.504831 0.161975
vn 0.847885 0.504831 0.161975
vn 0.663734 0.695539 0.275104
vn 0.663734 0.695540 0.275104
vn 0.663734 0.695539 0.275104
vn 0.784302 0.156338 -0.600358
vn 0.784302 0.156338 -0.600358
vn 0.784302 0.156338 -0.600358
vn -0.661864 0.745735 0.076264
vn -0.661864 0.745735 0.076264
vn -0.661864 0.745735 0.076264
vn -0.634168 0.772966 0.018842
vn -0.634168 0.772966 0.018842
vn -0.634168 0.772966 0.018842
vn -0.317191 0.198114 -0.927438
vn -0.317191 0.198114 -0.927438
vn -0.317191 0.198114 -0.927438
vn -0.671217 0.740509 0.033387
vn -0.671217 0.740509 0.033387
vn -0.671217 0.740509 0.033387
vn 0.295835 0.913206 0.280243
vn 0.295835 0.913206 0.280243
vn 0.295835 0.913206 0.280243
vn -0.062252 0.202761 -0.977247
vn -0.062252 0.202761 -0.977248
vn -0.062252 0.202761 -0.977248
vn -0.359512 0.223785 -0.905909
vn -0.359512 0.223784 -0.905909
vn -0.359512 0.223784 -0.905909
vn 0.745064 0.301828 -0.594794
vn 0.745064 0.301828 -0.594794
vn 0.745064 0.301828 -0.594794
vn 0.838692 0.521108 0.158247
vn 0.838692 0.521108 0.158247
vn 0.838692 0.521108 0.158247
vn 0.926965 0.374899 -0.013648
vn 0.926965 0.374899 -0.013648
vn 0.926965 0.374899 -0.013648
vn 0.537170 0.073454 -0.840269
vn 0.537170 0.073454 -0.840269
vn 0.537170 0.073454 -0.840269
vn -0.083664 0.917507 0.388820
vn -0.083664 0.917507 0.388820
vn -0.083664 0.917507 0.388820
vn -0.960809 0.257675 -0.102223
vn -0.960809 0.257675 -0.102223
vn -0.960809 0.257675 -0.102223
vn 0.436775 -0.883621 -0.168645
vn 0.436775 -0.883621 -0.168645
vn 0.436775 -0.883621 -0.168645
vn 0.959307 -0.078647 -0.271190
vn 0.959307 -0.078647 -0.271190
vn 0.959307 -0.078647 -0.271190
vn 0.047460 0.049555 -0.997643
vn 0.047460 0.049555 -0.997643
vn 0.047460 0.049555 -0.997643
vn -0.942487 0.319289 -0.098854
vn -0.942487 0.319289 -0.098854
vn -0.942487 0.319289 -0.098854
vn -0.932992 0.359012 -0.025213
vn -0.932992 0.359012 -0.025213
vn -0.932992 0.359012 -0.025213
vn -0.655818 0.096536 -0.748722
vn -0.655818 0.096536 -0.748722
vn -0.655818 0.096536 -0.748722
vn 0.985715 0.139629 0.094184
vn 0.985715 0.139629 0.094184
vn 0.985715 0.139629 0.094184
vn 0.875721 -0.449165 -0.177095
vn 0.875721 -0.449165 -0.177095
vn 0.875721 -0.449165 -0.177095
vn 0.965733 0.119263 0.230511
vn 0.965733 0.119263 0.230511
vn 0.965733 0.119263 0.230511
vn 0.628894 0.242243 0.738790
vn 0.628894 0.242243 0.738790
vn 0.628894 0.242243 0.738791
vn 0.670507 0.186161 0.718168
vn 0.670507 0.186161 0.718168
vn 0.670507 0.186161 0.718168
vn -0.795187 0.478631 0.372275
vn -0.795187 0.478631 0.372275
vn -0.795187 0.478631 0.372275
vn 0.347441 0.306366 0.886242
vn 0.347441 0.306366 0.886242
vn 0.347441 0.306366 0.886242
vn -0.262177 0.515793 0.815611
vn -0.262177 0.515793 0.815611
vn -0.262177 0.515793 0.815611
vn -0.601259 0.337375 0.724338
vn -0.601259 0.337375 0.724338
vn -0.601259 0.337375 0.724338
vn 0.463232 0.270971 0.843796
vn 0.463232 0.270971 0.843796
vn 0.463232 0.270971 0.843796
vn 0.900619 -0.251955 0.354125
vn 0.900619 -0.251955 0.354125
vn 0.900619 -0.251955 0.354125
vn -0.064536 -0.485706 -0.871737
vn -0.064536 -0.485706 -0.871737
vn -0.064536 -0.485706 -0.871737
vn 0.447758 0.250340 0.858396
vn 0.447758 0.250340 0.858396
vn 0.447758 0.250340 0.858396
vn -0.386745 -0.443036 -0.808794
vn -0.386745 -0.443036 -0.808794
vn -0.386745 -0.443036 -0.808794
vn -0.958292 0.193064 -0.210718
vn -0.958292 0.193064 -0.210718
vn -0.958292 0.193064 -0.210718
vn -0.955874 0.274354 0.105046
vn -0.955874 0.274354 0.105046
vn -0.955874 0.274354 0.105046
vn 0.161998 -0.984651 -0.064960
vn 0.161998 -0.984651 -0.064960
vn 0.161998 -0.984651 -0.064960
vn 0.293368 -0.914288 0.279309
vn 0.293368 -0.914288 0.279309
vn 0.293368 -0.914288 0.279309
vn 0.899106 -0.304279 0.314679
vn 0.899106 -0.304279 0.314679
vn 0.899106 -0.304279 0.314679
vn -0.654676 -0.096844 -0.749680
vn -0.654677 -0.096844 -0.749680
vn -0.654676 -0.096844 -0.749680
vn 0.664485 -0.074740 0.743555
vn 0.664485 -0.074740 0.743555
vn 0.664485 -0.074740 0.743555
vn -0.209893 0.250461 0.945100
vn -0.209893 0.250461 0.945100
vn -0.209893 0.250461 0.945100
vn -0.988570 0.081647 -0.126739
vn -0.988570 0.081647 -0.126739
vn -0.988570 0.081647 -0.126739
vn 0.534273 -0.331484 0.777606
vn 0.534273 -0.331484 0.777606
vn 0.534273 -0.331484 0.777606
vn -0.682296 0.264045 0.681727
vn -0.682296 0.264045 0.681727
vn -0.682296 0.264045 0.681727
vn -0.601267 0.337325 0.724355
vn -0.601267 0.337325 0.724355
vn -0.601267 0.337325 0.724355
vn -0.586677 0.329928 0.739565
vn -0.586677 0.329928 0.739566
vn -0.586677 0.329928 0.739566
vn -0.833562 -0.244887 -0.495181
vn -0.833562 -0.244887 -0.495181
vn -0.833562 -0.244887 -0.495181
vn 0.318094 -0.058819 0.946233
vn 0.318094 -0.058819 0.946233
vn 0.318094 -0.058819 0.946233
vn -0.058241 -0.986083 0.155720
vn -0.058241 -0.986083 0.155720
vn -0.058241 -0.986083 0.155720
vn -0.991740 0.077524 0.102185
vn -0.991740 0.077524 0.102185
vn -0.991740 0.077524 0.102185
vn 0.163586 -0.984225 -0.067385
vn 0.163586 -0.984225 -0.067385
vn 0.163586 -0.984225 -0.067385
vn -0.976216 0.110380 -0.186595
vn -0.976216 0.110380 -0.186595
vn -0.976216 0.110380 -0.186595
vn -0.162068 -0.985391 -0.052328
vn -0.162068 -0.985391 -0.052328
vn -0.162068 -0.985391 -0.052328
vn -0.998500 0.054750 0.000507
vn -0.998500 0.054750 0.000507
vn -0.998500 0.054750 0.000507
vn -0.012618 -0.999068 -0.041290
vn -0.012618 -0.999067 -0.041290
vn -0.012618 -0.999067 -0.041290
vn -0.963394 -0.215547 -0.159412
vn -0.963394 -0.215547 -0.159412
vn -0.963394 -0.215547 -0.159412
vn -0.373134 -0.284007 -0.883239
vn -0.373134 -0.284007 -0.883239
vn -0.373134 -0.284007 -0.883239
vn -0.992565 -0.033965 0.116881
vn -0.992565 -0.033965 0.116881
vn -0.992565 -0.033965 0.116881
vn 0.057727 -0.953688 0.295208
vn 0.057727 -0.953688 0.295208
vn 0.057727 -0.953688 0.295208
vn -0.064903 -0.249715 0.966142
vn -0.064903 -0.249715 0.966142
vn -0.064903 -0.249715 0.966142
vn -0.981874 -0.079504 -0.172053
vn -0.981874 -0.079504 -0.172053
vn -0.981874 -0.079504 -0.172053
vn -0.992079 0.078351 0.098188
vn -0.992079 0.078351 0.098188
vn -0.992079 0.078351 0.098188
vn -0.778249 0.552303 0.298813
vn -0.778249 0.552303 0.298813
vn -0.778249 0.552303 0.298813
vn -0.362554 -0.931887 -0.011900
vn -0.362554 -0.931887 -0.011900
vn -0.362554 -0.931887 -0.011900
vn -0.647286 -0.760583 -0.050339
vn -0.647286 -0.760583 -0.050339
vn -0.647286 -0.760583 -0.050339
vn -0.647286 -0.760583 -0.050339
vn -0.519606 -0.854237 0.016972
vn -0.519606 -0.854237 0.016972
vn -0.519606 -0.854237 0.016972
vn -0.519606 -0.854237 0.016972
vn -0.337883 -0.940815 0.026490
vn -0.337883 -0.940815 0.026490
vn -0.337883 -0.940815 0.026490
vn -0.337883 -0.940815 0.026490
vn -0.171318 -0.406242 0.897562
vn -0.171318 -0.406242 0.897562
vn -0.171318 -0.406242 0.897562
vn -0.438486 -0.898688 0.009499
vn -0.438486 -0.898688 0.009499
vn -0.438486 -0.898688 0.009499
vn -0.438486 -0.898688 0.009499
vn -0.663913 -0.740468 0.104530
vn -0.663913 -0.740468 0.104530
vn -0.663913 -0.740468 0.104530
vn -0.663913 -0.740468 0.104530
vn 0.307572 0.950747 -0.038483
vn 0.307572 0.950746 -0.038483
vn 0.307572 0.950746 -0.038483
vn 0.307572 0.950747 -0.038483
vn -0.780645 -0.016375 0.624760
vn -0.780645 -0.016375 0.624760
vn -0.780645 -0.016375 0.624760
vn -0.162827 -0.985099 -0.055394
vn -0.162827 -0.985098 -0.055394
vn -0.162827 -0.985099 -0.055394
vn -0.914424 -0.153909 0.374355
vn -0.914424 -0.153909 0.374355
vn -0.914424 -0.153909 0.374355
vn -0.205580 -0.978619 0.006455
vn -0.205580 -0.978619 0.006455
vn -0.205580 -0.978619 0.006455
vn -0.916937 -0.186245 0.352901
vn -0.916937 -0.186245 0.352901
vn -0.916937 -0.186245 0.352901
vn 0.579682 -0.457314 0.674413
vn 0.579682 -0.457314 0.674413
vn 0.579682 -0.457314 0.674413
vn -0.102281 -0.994722 0.008219
vn -0.102281 -0.994722 0.008219
vn -0.102281 -0.994722 0.008219
vn -0.108819 -0.994024 0.008680
vn -0.108819 -0.994024 0.008680
vn -0.108819 -0.994024 0.008680
vn -0.312733 -0.377741 0.871499
vn -0.312733 -0.377741 0.871499
vn -0.312733 -0.377741 0.871499
vn -0.424716 -0.286570 0.858775
vn -0.424716 -0.286570 0.858775
vn -0.424716 -0.286570 0.858775
vn 0.268791 -0.910386 0.314562
vn 0.268791 -0.910386 0.314562
vn 0.268791 -0.910386 0.314562
vn -0.168245 -0.410380 0.896260
vn -0.168245 -0.410380 0.896260
vn -0.168245 -0.410380 0.896260
vn -0.709719 -0.638621 0.297426
vn -0.709719 -0.638621 0.297426
vn -0.709719 -0.638621 0.297426
vn -0.099745 -0.992685 -0.068033
vn -0.099745 -0.992684 -0.068033
vn -0.099745 -0.992684 -0.068033
vn 0.150676 -0.986640 -0.061954
vn 0.150676 -0.986640 -0.061954
vn 0.150676 -0.986640 -0.061954
s off
f 2/1/1 4/2/2 1/3/3
f 1/3/4 4/2/5 7/4/6
f 2/1/7 3/5/8 4/2/9
f 3/5/10 5/6/11 4/2/12
f 5/6/13 7/4/14 4/2/15
f 1/3/16 12/7/17 2/1/18
f 1/3/19 13/8/20 12/7/21
f 6/9/22 3/5/23 2/1/24
f 7/4/25 5/6/26 9/10/27
f 9/10/28 19/11/29 7/4/30
f 5/6/31 11/12/32 9/10/33
f 9/10/34 17/13/35 19/11/36
f 13/8/37 1/3/38 7/4/39
f 5/6/40 3/5/41 16/14/42
f 5/6/43 16/14/44 11/12/45
f 3/5/46 6/9/47 8/15/48
f 12/7/49 10/16/50 2/1/51
f 2/1/52 10/16/53 6/9/54
f 14/17/55 3/5/56 8/15/57
f 7/4/58 19/11/59 13/8/60
f 29/18/61 17/13/62 9/10/63
f 8/15/64 18/19/65 14/17/66
f 8/15/67 6/9/68 15/20/69
f 3/5/70 14/17/71 16/14/72
f 11/12/73 28/21/74 9/10/75
f 28/21/76 29/18/77 9/10/78
f 11/12/79 16/14/80 30/22/81
f 6/9/82 10/16/83 15/20/84
f 18/19/85 8/15/86 15/20/87
f 15/20/88 10/16/89 20/23/90
f 10/16/91 21/24/92 20/23/93
f 10/16/94 12/7/95 21/24/96
f 19/11/97 17/13/98 29/18/99
f 12/7/100 13/8/101 22/25/102
f 13/8/103 19/11/104 23/26/105
f 19/11/106 29/18/107 23/26/108
f 22/25/109 13/8/110 23/26/111
f 24/27/112 15/20/113 20/23/114
f 25/28/115 16/14/116 14/17/117
f 22/25/118 21/24/119 12/7/120
f 33/29/121 16/14/122 25/28/123
f 30/22/124 28/21/125 11/12/126
f 28/21/127 31/30/128 29/18/129
f 18/19/130 26/31/131 14/17/132
f 26/31/133 25/28/134 14/17/135
f 18/19/136 15/20/137 24/27/138
f 33/29/139 30/22/140 16/14/141
f 24/27/142 20/23/143 21/24/144
f 43/32/145 22/25/146 23/26/147
f 28/21/148 30/22/149 32/33/150
f 27/34/151 24/27/152 21/24/153
f 31/30/154 45/35/155 29/18/156
f 29/18/157 45/35/158 23/26/159
f 45/35/160 43/32/161 23/26/162
f 32/33/163 30/22/164 33/29/165
f 21/24/166 22/25/167 27/34/168
f 25/28/169 26/31/170 33/29/171
f 35/36/172 31/30/173 28/21/174
f 51/37/175 26/31/176 18/19/177
f 34/38/178 28/21/179 32/33/180
f 33/29/181 48/39/182 32/33/183
f 34/38/184 35/36/185 28/21/186
f 33/29/187 26/31/188 48/39/189
f 34/38/190 32/33/191 46/40/192
f 34/38/193 46/40/194 36/41/195
f 34/38/196 49/42/197 35/36/198
f 18/19/199 24/27/200 27/34/201
f 43/32/202 27/34/203 22/25/204
f 36/41/205 37/43/206 34/38/207
f 38/44/208 34/38/209 37/43/210
f 38/44/211 49/42/212 34/38/213
f 46/40/214 44/45/215 39/46/216
f 36/41/217 46/40/218 39/46/219 40/47/220
f 37/43/221 36/41/222 40/47/223 41/48/224
f 38/44/225 37/43/226 41/48/227 49/42/228
f 52/49/229 27/34/230 43/32/231
f 39/46/232 44/45/233 42/50/234 40/47/235
f 40/47/236 42/50/237 49/42/238 41/48/239
f 42/50/240 44/45/241 47/51/242 49/42/243
f 31/30/244 50/52/245 45/35/246
f 48/39/247 46/40/248 32/33/249
f 35/36/250 50/52/251 31/30/252
f 46/40/253 47/51/254 44/45/255
f 35/36/256 49/42/257 50/52/258
f 51/37/259 18/19/260 27/34/261
f 46/40/262 48/39/263 49/42/264
f 46/40/265 49/42/266 47/51/267
f 50/52/268 43/32/269 45/35/270
f 50/52/271 52/49/272 43/32/273
f 49/42/274 48/39/275 26/31/276
f 51/37/277 27/34/278 52/49/279
f 50/52/280 49/42/281 52/49/282
f 52/49/283 49/42/284 26/31/285
f 26/31/286 51/37/287 52/49/288
