# This file uses centimeters as units for non-parametric coordinates.

v 0.172684 -0.819515 -0.314011
v 0.180801 -0.610126 -0.313133
v 0.179642 -0.547270 -0.309814
v -0.192337 -0.437429 -0.294807
v 0.172745 -0.452406 -0.314011
v -0.186981 -0.218825 -0.303741
v 0.021500 -0.904556 -0.313446
v -0.186951 -0.298408 -0.303802
v 0.181290 -0.236550 -0.311745
v -0.113708 -0.040779 -0.310440
v -0.179703 -0.904167 -0.311920
v -0.179230 -0.118663 -0.311386
v 0.297653 -0.904011 -0.111900
v 0.359619 -0.592981 -0.005684
v 0.056870 0.602947 -0.225105
v 0.235977 0.270060 -0.219170
v 0.237717 -0.906242 -0.189209
v 0.150330 0.451189 -0.227394
v 0.272888 0.299059 -0.155785
v 0.013580 0.896664 -0.071091
v -0.256409 -0.906197 -0.155525
v 0.359680 -0.480902 -0.005554
v 0.359512 -0.060103 -0.005630
v 0.267120 0.559771 -0.025764
v -0.331985 -0.904682 0.047386
v 0.359741 -0.873074 0.005241
v -0.242828 -0.026840 -0.205566
v -0.307724 0.086943 -0.091614
v -0.091751 0.763584 -0.034622
v 0.291321 -0.904663 0.122223
v -0.359695 -0.127404 -0.004646
v -0.358139 -0.859756 -0.003700
v 0.053741 0.906242 -0.026260
v -0.156601 0.569235 -0.038116
v 0.329254 0.207932 0.056885
v -0.277496 -0.903080 0.143570
v 0.223175 -0.836651 0.238045
v -0.037354 0.715073 0.109703
v 0.185699 -0.091805 0.307091
v -0.147354 -0.903831 0.252457
v -0.359756 -0.329060 -0.004524
v -0.104843 -0.850113 0.313927
v 0.179718 -0.788597 0.313164
v 0.354568 -0.528059 0.015518
v 0.180893 -0.338045 0.314011
v -0.179047 -0.743168 0.313454
v -0.179291 -0.165337 0.313568
v -0.030991 0.176552 0.313011
vt 0.211594 0.275136
vt 0.211594 0.275136
vt 0.211594 0.300503
vt 0.211594 0.300503
vt 0.211594 0.300503
vt 0.211594 0.300503
vt 0.211594 0.275136
vt 0.211594 0.300503
vt 0.211594 0.300503
vt 0.211594 0.275136
vt 0.211594 0.275136
vt 0.211594 0.275136
vt 0.211594 0.300503
vt 0.211594 0.300503
vt 0.211594 0.275136
vt 0.211594 0.300503
vt 0.211594 0.275136
vt 0.211594 0.300503
vt 0.211594 0.300503
vt 0.211594 0.275136
vt 0.211594 0.300503
vt 0.211594 0.300503
vt 0.211594 0.300503
vt 0.211594 0.275136
vt 0.211594 0.300503
vt 0.211594 0.300503
vt 0.211594 0.300503
vt 0.211594 0.300503
vt 0.211594 0.300503
vt 0.211594 0.275136
vt 0.211594 0.300503
vt 0.211594 0.275136
vt 0.211594 0.300503
vt 0.211594 0.300503
vt 0.211594 0.300503
vt 0.211594 0.300503
vt 0.211594 0.300503
vt 0.211594 0.300503
vt 0.211594 0.275136
vt 0.211594 0.300503
vt 0.211594 0.300503
vt 0.211594 0.300503
vt 0.211594 0.300503
vt 0.211594 0.275136
vt 0.211594 0.300503
vt 0.211594 0.275136
vt 0.211594 0.300503
vt 0.211594 0.300503
vt 0.211594 0.275136
vt 0.211594 0.275136
vt 0.211594 0.275136
vt 0.211594 0.275136
vt 0.211594 0.300503
vt 0.211594 0.275136
vt 0.211594 0.275136
vt 0.211594 0.275136
vt 0.211594 0.275136
vt 0.211594 0.275136
vt 0.211594 0.275136
vt 0.211594 0.275136
vt 0.211594 0.275136
vt 0.211594 0.275136
vt 0.211594 0.275136
vt 0.211594 0.275136
vt 0.211594 0.300503
vt 0.211594 0.275136
vt 0.211594 0.275136
vt 0.211594 0.275136
vt 0.211594 0.275136
vt 0.211594 0.275136
vt 0.211594 0.275136
vt 0.211594 0.275136
vt 0.211594 0.300503
vt 0.211594 0.275136
vt 0.211594 0.275136
vt 0.211594 0.275136
vt 0.211594 0.275136
vt 0.211594 0.300503
vt 0.211594 0.275136
vt 0.211594 0.275136
vt 0.211594 0.275136
vt 0.211594 0.275136
vt 0.211594 0.275136
vt 0.211594 0.275136
vt 0.211594 0.275136
vt 0.211594 0.275136
vt 0.211594 0.275136
vt 0.211594 0.275136
vt 0.211594 0.275136
vt 0.211594 0.275136
vt 0.211594 0.275136
vt 0.211594 0.300503
vt 0.211594 0.275136
vt 0.211594 0.275136
vt 0.211594 0.275136
vt 0.211594 0.275136
vt 0.211594 0.275136
vt 0.211594 0.275136
vt 0.211594 0.275136
vt 0.211594 0.300503
vt 0.211594 0.275136
vt 0.211594 0.275136
vt 0.211594 0.275136
vt 0.211594 0.275136
vt 0.211594 0.300503
vt 0.211594 0.275136
vt 0.211594 0.275136
vt 0.211594 0.300503
vt 0.211594 0.275136
vt 0.211594 0.275136
vt 0.211594 0.275136
vt 0.211594 0.275136
vt 0.211594 0.300503
vt 0.211594 0.275136
vt 0.211594 0.300503
vt 0.211594 0.275136
vt 0.211594 0.300503
vt 0.211594 0.275136
vt 0.211594 0.300503
vt 0.211594 0.275136
vn -0.007557 0.011823 -0.999902
vn -0.007557 0.011823 -0.999902
vn -0.007557 0.011823 -0.999902
vn -0.005975 0.003939 -0.999974
vn -0.005975 0.003939 -0.999974
vn -0.005975 0.003939 -0.999974
vn -0.073006 0.037147 -0.996640
vn -0.073006 0.037147 -0.996640
vn -0.073006 0.037147 -0.996640
vn -0.029572 0.031218 -0.999075
vn -0.029572 0.031218 -0.999075
vn -0.029572 0.031218 -0.999075
vn -0.052287 -0.034999 -0.998019
vn -0.052287 -0.034999 -0.998019
vn -0.052287 -0.034999 -0.998019
vn -0.047342 -0.030176 -0.998423
vn -0.047342 -0.030176 -0.998423
vn -0.047342 -0.030176 -0.998423
vn -0.024935 0.005479 -0.999674
vn -0.024935 0.005479 -0.999674
vn -0.024935 0.005479 -0.999674
vn -0.021798 0.000361 -0.999762
vn -0.021798 0.000361 -0.999762
vn -0.021798 0.000361 -0.999762
vn 0.090392 -0.060070 -0.994093
vn 0.090392 -0.060070 -0.994093
vn 0.090392 -0.060070 -0.994093
vn -0.017465 -0.024486 -0.999548
vn -0.017465 -0.024486 -0.999548
vn -0.017465 -0.024486 -0.999548
vn 0.103070 0.201916 -0.973964
vn 0.103070 0.201916 -0.973964
vn 0.103070 0.201916 -0.973964
vn 0.088154 0.198455 -0.976138
vn 0.088154 0.198455 -0.976138
vn 0.088154 0.198455 -0.976138
vn 0.369703 -0.661623 -0.652361
vn 0.369703 -0.661623 -0.652361
vn 0.369703 -0.661623 -0.652361
vn -0.869206 0.000017 -0.494450
vn -0.869206 0.000017 -0.494450
vn -0.869206 0.000017 -0.494450
vn -0.851819 0.018841 -0.523497
vn -0.851819 0.018841 -0.523497
vn -0.851819 0.018841 -0.523498
vn -0.000906 -0.999928 -0.011965
vn -0.000906 -0.999928 -0.011965
vn -0.000906 -0.999928 -0.011965
vn 0.884262 0.029732 -0.466044
vn 0.884262 0.029732 -0.466044
vn 0.884262 0.029732 -0.466044
vn 0.861854 0.025463 -0.506516
vn 0.861855 0.025463 -0.506516
vn 0.861855 0.025463 -0.506516
vn 0.764958 -0.268774 -0.585320
vn 0.764958 -0.268774 -0.585320
vn 0.764958 -0.268774 -0.585320
vn -0.593237 0.476665 -0.648737
vn -0.593237 0.476665 -0.648737
vn -0.593237 0.476665 -0.648737
vn -0.592038 0.481192 -0.646487
vn -0.592038 0.481192 -0.646487
vn -0.592038 0.481192 -0.646487
vn 0.218113 0.203570 -0.954456
vn 0.218113 0.203570 -0.954456
vn 0.218113 0.203570 -0.954456
vn -0.002048 -0.999900 -0.013974
vn -0.002048 -0.999900 -0.013974
vn -0.002048 -0.999900 -0.013974
vn 0.845155 -0.027021 -0.533838
vn 0.845155 -0.027021 -0.533838
vn 0.845155 -0.027021 -0.533838
vn 0.390432 0.716438 -0.578169
vn 0.390432 0.716438 -0.578169
vn 0.390432 0.716438 -0.578169
vn 0.864911 -0.002208 -0.501920
vn 0.864911 -0.002208 -0.501920
vn 0.864911 -0.002208 -0.501920
vn -0.592524 0.481658 -0.645694
vn -0.592524 0.481658 -0.645694
vn -0.592524 0.481658 -0.645694
vn 0.505604 0.747205 -0.431334
vn 0.505604 0.747205 -0.431334
vn 0.505604 0.747205 -0.431334
vn -0.580228 0.499849 -0.643029
vn -0.580228 0.499849 -0.643029
vn -0.580228 0.499849 -0.643029
vn 0.477262 0.718903 -0.505371
vn 0.477262 0.718903 -0.505371
vn 0.477262 0.718903 -0.505371
vn 0.851370 -0.013458 -0.524394
vn 0.851370 -0.013458 -0.524394
vn 0.851370 -0.013458 -0.524394
vn -0.799427 -0.450088 -0.397916
vn -0.799427 -0.450088 -0.397916
vn -0.799427 -0.450088 -0.397916
vn -0.865723 -0.004419 -0.500504
vn -0.865723 -0.004419 -0.500504
vn -0.865723 -0.004419 -0.500504
vn 0.860708 0.002009 -0.509095
vn 0.860708 0.002009 -0.509095
vn 0.860708 0.002009 -0.509095
vn -0.867910 0.000830 -0.496720
vn -0.867910 0.000830 -0.496720
vn -0.867910 0.000830 -0.496720
vn 0.864402 -0.003868 -0.502787
vn 0.864402 -0.003868 -0.502787
vn 0.864402 -0.003868 -0.502786
vn 0.531044 0.668627 -0.520510
vn 0.531044 0.668627 -0.520510
vn 0.531044 0.668627 -0.520510
vn 0.864126 0.000105 -0.503276
vn 0.864126 0.000105 -0.503276
vn 0.864126 0.000105 -0.503276
vn -0.586692 0.481708 -0.650961
vn -0.586692 0.481708 -0.650961
vn -0.586692 0.481708 -0.650961
vn -0.592239 0.480902 -0.646518
vn -0.592239 0.480902 -0.646518
vn -0.592239 0.480902 -0.646518
vn 0.039388 -0.999223 -0.001718
vn 0.039388 -0.999223 -0.001718
vn 0.039388 -0.999223 -0.001718
vn 0.467276 0.680878 -0.563966
vn 0.467276 0.680878 -0.563966
vn 0.467276 0.680878 -0.563966
vn -0.685612 -0.683610 -0.250228
vn -0.685612 -0.683610 -0.250228
vn -0.685612 -0.683610 -0.250228
vn -0.524232 0.828361 0.197481
vn -0.524232 0.828361 0.197481
vn -0.524232 0.828361 0.197481
vn 0.432026 -0.901815 0.009165
vn 0.432026 -0.901815 0.009165
vn 0.432026 -0.901815 0.009165
vn -0.869234 0.000383 -0.494401
vn -0.869234 0.000383 -0.494401
vn -0.869234 0.000383 -0.494401
vn -0.866725 0.007908 -0.498723
vn -0.866725 0.007908 -0.498723
vn -0.866725 0.007908 -0.498723
vn 0.885071 -0.014877 -0.465218
vn 0.885071 -0.014877 -0.465218
vn 0.885071 -0.014877 -0.465218
vn -0.861471 -0.002877 -0.507798
vn -0.861471 -0.002877 -0.507798
vn -0.861471 -0.002877 -0.507798
vn 0.864159 0.000157 -0.503219
vn 0.864159 0.000157 -0.503219
vn 0.864159 0.000157 -0.503219
vn -0.864377 -0.000053 -0.502844
vn -0.864377 -0.000053 -0.502844
vn -0.864377 -0.000053 -0.502844
vn 0.929510 0.305169 -0.207083
vn 0.929510 0.305170 -0.207083
vn 0.929510 0.305169 -0.207083
vn -0.459514 0.858350 0.228213
vn -0.459515 0.858350 0.228213
vn -0.459515 0.858350 0.228213
vn -0.762935 0.579045 0.287466
vn -0.762935 0.579045 0.287466
vn -0.762935 0.579045 0.287466
vn 0.972274 -0.000436 0.233844
vn 0.972274 -0.000436 0.233844
vn 0.972274 -0.000436 0.233844
vn -0.815237 0.379704 0.437280
vn -0.815237 0.379704 0.437280
vn -0.815237 0.379704 0.437280
vn 0.000623 -0.999945 0.010458
vn 0.000623 -0.999945 0.010458
vn 0.000623 -0.999945 0.010458
vn -0.869917 0.000314 0.493198
vn -0.869917 0.000314 0.493198
vn -0.869917 0.000314 0.493198
vn 0.872799 0.000277 0.488080
vn 0.872799 0.000277 0.488080
vn 0.872799 0.000277 0.488080
vn 0.882897 -0.018974 0.469183
vn 0.882897 -0.018974 0.469182
vn 0.882897 -0.018974 0.469183
vn -0.812376 0.384337 0.438555
vn -0.812376 0.384337 0.438555
vn -0.812376 0.384337 0.438555
vn 0.863565 0.016775 0.503959
vn 0.863565 0.016775 0.503959
vn 0.863565 0.016775 0.503959
vn 0.891037 0.057070 0.450329
vn 0.891037 0.057070 0.450329
vn 0.891037 0.057070 0.450329
vn 0.926761 0.303104 -0.221906
vn 0.926761 0.303104 -0.221906
vn 0.926761 0.303104 -0.221906
vn 0.009802 -0.999890 0.011104
vn 0.009802 -0.999890 0.011104
vn 0.009802 -0.999890 0.011104
vn -0.812620 0.385283 0.437271
vn -0.812620 0.385283 0.437271
vn -0.812620 0.385283 0.437271
vn 0.415299 0.622641 0.663208
vn 0.415299 0.622641 0.663208
vn 0.415299 0.622641 0.663208
vn 0.862781 0.003563 0.505566
vn 0.862781 0.003563 0.505566
vn 0.862781 0.003563 0.505566
vn 0.420082 0.616140 0.666260
vn 0.420082 0.616140 0.666260
vn 0.420082 0.616140 0.666260
vn -0.869283 0.052799 0.491488
vn -0.869283 0.052799 0.491488
vn -0.869283 0.052799 0.491488
vn 0.863046 -0.002470 0.505120
vn 0.863046 -0.002470 0.505120
vn 0.863046 -0.002470 0.505120
vn 0.894744 -0.046402 0.444162
vn 0.894744 -0.046402 0.444162
vn 0.894745 -0.046402 0.444161
vn -0.000375 -0.999987 0.005131
vn -0.000375 -0.999987 0.005131
vn -0.000375 -0.999987 0.005131
vn 0.167928 -0.803745 0.570784
vn 0.167928 -0.803745 0.570784
vn 0.167928 -0.803745 0.570784
vn 0.419317 0.620728 0.662472
vn 0.419317 0.620728 0.662472
vn 0.419317 0.620728 0.662472
vn -0.005969 -0.999982 0.000253
vn -0.005969 -0.999982 0.000253
vn -0.005969 -0.999982 0.000253
vn -0.874086 0.022645 0.485242
vn -0.874086 0.022645 0.485242
vn -0.874086 0.022645 0.485242
vn -0.870518 -0.001593 0.492135
vn -0.870518 -0.001593 0.492135
vn -0.870518 -0.001593 0.492135
vn 0.867933 -0.001953 0.496678
vn 0.867933 -0.001953 0.496678
vn 0.867933 -0.001953 0.496678
vn -0.603454 -0.345063 0.718870
vn -0.603454 -0.345063 0.718870
vn -0.603454 -0.345063 0.718870
vn -0.869622 -0.000301 0.493718
vn -0.869622 -0.000301 0.493718
vn -0.869622 -0.000301 0.493718
vn -0.579228 -0.398716 0.711000
vn -0.579228 -0.398716 0.711000
vn -0.579228 -0.398716 0.711000
vn 0.164784 -0.779083 0.604877
vn 0.164784 -0.779083 0.604877
vn 0.164784 -0.779083 0.604877
vn 0.865010 -0.002022 0.501750
vn 0.865010 -0.002022 0.501750
vn 0.865010 -0.002022 0.501750
vn -0.805663 0.386510 0.448906
vn -0.805663 0.386510 0.448906
vn -0.805663 0.386510 0.448906
vn 0.177192 -0.798530 0.575285
vn 0.177192 -0.798530 0.575285
vn 0.177192 -0.798530 0.575285
vn 0.414290 0.619813 0.666480
vn 0.414290 0.619813 0.666480
vn 0.414290 0.619813 0.666480
vn 0.001471 0.005472 0.999984
vn 0.001471 0.005472 0.999984
vn 0.001471 0.005472 0.999984
vn 0.000647 -0.001196 0.999999
vn 0.000647 -0.001196 0.999999
vn 0.000647 -0.001196 0.999999
vn -0.001314 -0.000136 0.999999
vn -0.001314 -0.000136 0.999999
vn -0.001314 -0.000136 0.999999
vn -0.000168 0.001888 0.999998
vn -0.000168 0.001888 0.999998
vn -0.000168 0.001888 0.999998
vn 0.038772 0.017958 0.999087
vn 0.038772 0.017958 0.999087
vn 0.038772 0.017958 0.999087
s off
f 7/113/1 11/100/2 3/3/3
f 1/4/4 7/113/5 2/5/6
f 2/5/7 7/113/8 3/3/9
f 3/3/10 11/100/11 4/6/12
f 3/3/13 4/6/14 8/119/15
f 5/8/16 3/3/17 8/119/18
f 5/8/19 8/119/20 9/9/21
f 8/119/22 6/117/23 9/9/24
f 10/108/25 6/117/26 12/115/27
f 9/9/28 6/117/29 10/108/30
f 15/13/31 9/9/32 10/108/33
f 9/9/34 15/13/35 18/14/36
f 7/112/37 1/110/38 17/69/39
f 6/10/40 8/120/41 27/95/42
f 12/12/43 6/118/44 27/96/45
f 21/79/46 7/1/47 17/70/48
f 2/5/49 3/3/50 13/18/51
f 14/19/52 3/3/53 5/8/54
f 1/111/55 13/84/56 17/68/57
f 12/116/58 27/97/59 10/11/60
f 27/98/61 15/107/62 10/109/63
f 18/101/64 16/104/65 9/106/66
f 21/80/67 11/99/68 7/114/69
f 13/18/70 1/4/71 2/5/72
f 15/13/73 20/21/74 18/14/75
f 9/9/76 16/105/77 23/22/78
f 15/13/79 27/16/80 29/23/81
f 16/20/82 18/102/83 19/91/84
f 15/13/85 29/23/86 20/21/87
f 18/14/88 20/21/89 24/25/90
f 14/19/91 5/8/92 9/9/93
f 11/2/94 21/81/95 32/89/96
f 4/6/97 11/100/98 32/26/99
f 3/3/100 14/19/101 13/18/102
f 8/7/103 4/93/104 27/94/105
f 16/105/106 19/92/107 23/22/108
f 19/24/109 18/103/110 24/90/111
f 14/19/112 9/9/113 22/27/114
f 27/16/115 34/28/116 29/23/117
f 27/16/118 28/29/119 34/28/120
f 30/75/121 17/67/122 13/85/123
f 24/25/124 20/21/125 33/31/126
f 25/77/127 32/88/128 21/82/129
f 29/23/130 38/33/131 20/21/132
f 26/87/133 30/74/134 13/86/135
f 27/16/136 4/6/137 32/26/138
f 28/29/139 27/16/140 31/35/141
f 13/18/142 14/19/143 26/34/144
f 32/26/145 41/36/146 27/16/147
f 9/9/148 23/22/149 22/27/150
f 27/16/151 41/36/152 31/35/153
f 23/22/154 19/92/155 24/25/156
f 38/33/157 33/31/158 20/21/159
f 38/33/160 29/23/161 34/28/162
f 44/37/163 14/19/164 22/27/165
f 47/38/166 28/29/167 31/35/168
f 17/71/169 36/63/170 21/17/171
f 31/35/172 41/36/173 47/38/174
f 45/40/175 22/27/176 23/22/177
f 45/40/178 23/22/179 35/41/180
f 47/38/181 38/33/182 28/29/183
f 37/42/184 26/34/185 14/19/186
f 44/37/187 22/27/188 45/40/189
f 35/41/190 23/22/191 24/25/192
f 36/64/193 25/32/194 21/83/195
f 38/33/196 34/28/197 28/29/198
f 35/41/199 24/25/200 39/43/201
f 37/42/202 30/73/203 26/34/204
f 33/31/205 38/33/206 24/25/207
f 32/26/208 25/78/209 36/65/210
f 44/37/211 45/40/212 37/42/213
f 44/37/214 37/42/215 14/19/216
f 30/76/217 40/55/218 17/15/219
f 30/30/220 37/59/221 40/54/222
f 38/33/223 39/43/224 24/25/225
f 17/72/226 40/56/227 36/62/228
f 32/26/229 36/65/230 46/45/231
f 41/36/232 32/26/233 46/45/234
f 39/43/235 45/40/236 35/41/237
f 42/51/238 36/39/239 40/57/240
f 41/36/241 46/45/242 47/38/243
f 46/61/244 36/66/245 42/52/246
f 37/60/247 43/49/248 40/44/249
f 45/40/250 43/47/251 37/42/252
f 48/48/253 38/33/254 47/38/255
f 40/58/256 43/50/257 42/46/258
f 39/43/259 38/33/260 48/48/261
f 42/53/262 43/47/263 46/45/264
f 43/47/265 45/40/266 46/45/267
f 46/45/268 45/40/269 47/38/270
f 45/40/271 48/48/272 47/38/273
f 45/40/274 39/43/275 48/48/276
