# This file uses centimeters as units for non-parametric coordinates.

v -0.030346 -0.057052 0.429284
v -0.025064 0.130562 0.426639
v -0.106375 -0.133125 0.423241
v 0.262549 0.019228 0.338391
v -0.174382 0.012885 0.406504
v 0.327913 0.142194 0.254270
v 0.000920 -0.286859 0.336551
v 0.030388 0.358583 0.273705
v -0.126857 0.305925 0.261464
v -0.312929 -0.065732 0.263382
v 0.212858 -0.314973 0.241199
v 0.134521 0.347932 0.229924
v 0.260827 0.268360 0.210162
v 0.361782 -0.123311 0.239414
v 0.385469 0.026578 0.197050
v 0.406257 -0.100783 0.049305
v 0.038065 0.420322 0.156589
v -0.343184 0.065808 0.276115
v 0.111970 -0.404327 0.155997
v 0.412900 -0.052436 0.038241
v 0.058871 0.421403 0.038741
v -0.310676 0.301128 0.123008
v 0.055874 -0.439973 0.063602
v 0.200846 0.340446 -0.050167
v -0.040173 0.445697 0.034480
v -0.058121 -0.392591 0.110412
v -0.328747 -0.149127 0.109334
v 0.187611 -0.180358 -0.261510
v 0.256759 -0.317881 -0.102783
v 0.067900 -0.426298 -0.128826
v -0.278227 -0.278885 -0.048715
v -0.411992 0.127183 0.017126
v -0.317436 0.246881 -0.165646
v 0.283425 0.159707 -0.176600
v -0.337058 -0.194853 -0.060659
v 0.215025 0.289577 -0.147849
v -0.046131 -0.371301 -0.188554
v -0.306653 -0.131588 -0.181823
v -0.323499 -0.078213 -0.222976
v -0.111704 0.251621 -0.275234
v -0.373573 0.143774 -0.173898
v -0.300516 0.097916 -0.263895
v -0.235341 -0.123484 -0.262836
v -0.141978 0.103502 -0.347939
v -0.177725 -0.159268 -0.285020
v 0.089558 -0.087142 -0.345964
v -0.121386 -0.185508 -0.313825
v -0.017979 -0.059544 -0.369275
vt 0.211594 0.300503
vt 0.211594 0.300503
vt 0.211594 0.300503
vt 0.211594 0.300503
vt 0.211594 0.300503
vt 0.211594 0.300503
vt 0.211594 0.300503
vt 0.211594 0.300503
vt 0.211594 0.300503
vt 0.211594 0.300503
vt 0.211594 0.300503
vt 0.211594 0.300503
vt 0.211594 0.300503
vt 0.211594 0.300503
vt 0.211594 0.300503
vt 0.211594 0.300503
vt 0.211594 0.300503
vt 0.211594 0.300503
vt 0.211594 0.300503
vt 0.211594 0.300503
vt 0.211594 0.300503
vt 0.211594 0.300503
vt 0.211594 0.300503
vt 0.211594 0.300503
vt 0.211594 0.300503
vt 0.211594 0.300503
vt 0.211594 0.300503
vt 0.211594 0.300503
vt 0.211594 0.300503
vt 0.211594 0.300503
vt 0.211594 0.300503
vt 0.211594 0.300503
vt 0.211594 0.300503
vt 0.211594 0.300503
vt 0.211594 0.300503
vt 0.211594 0.300503
vt 0.211594 0.300503
vt 0.211594 0.300503
vt 0.211594 0.300503
vt 0.211594 0.300503
vt 0.211594 0.300503
vt 0.211594 0.300503
vt 0.211594 0.300503
vt 0.211594 0.300503
vt 0.211594 0.300503
vt 0.211594 0.300503
vt 0.211594 0.300503
vt 0.211594 0.300503
vn 0.295151 0.005164 0.955437
vn 0.295151 0.005164 0.955437
vn 0.295151 0.005164 0.955437
vn -0.147610 0.018099 0.988880
vn -0.147610 0.018099 0.988880
vn -0.147610 0.018099 0.988880
vn 0.399047 0.363705 0.841713
vn 0.399047 0.363705 0.841713
vn 0.399047 0.363705 0.841713
vn -0.131127 0.052405 0.989980
vn -0.131127 0.052405 0.989979
vn -0.131127 0.052405 0.989979
vn -0.455374 0.445973 0.770547
vn -0.455374 0.445973 0.770547
vn -0.455374 0.445973 0.770547
vn 0.258992 -0.330932 0.907418
vn 0.258992 -0.330932 0.907418
vn 0.258992 -0.330932 0.907418
vn -0.640564 -0.213814 0.737538
vn -0.640564 -0.213814 0.737538
vn -0.640564 -0.213814 0.737538
vn -0.579444 -0.667838 0.467158
vn -0.579444 -0.667838 0.467158
vn -0.579444 -0.667838 0.467158
vn 0.356169 -0.307592 0.882344
vn 0.356169 -0.307592 0.882344
vn 0.356169 -0.307592 0.882344
vn -0.454769 0.456377 0.764791
vn -0.454769 0.456377 0.764791
vn -0.454769 0.456377 0.764791
vn 0.354406 -0.309329 0.882446
vn 0.354406 -0.309329 0.882446
vn 0.354406 -0.309329 0.882446
vn -0.638503 -0.218303 0.738009
vn -0.638503 -0.218303 0.738009
vn -0.638503 -0.218303 0.738009
vn 0.752369 0.049448 0.656883
vn 0.752369 0.049448 0.656883
vn 0.752369 0.049448 0.656883
vn -0.254636 0.580603 0.773344
vn -0.254636 0.580603 0.773344
vn -0.254636 0.580603 0.773344
vn 0.171349 -0.774315 0.609160
vn 0.171349 -0.774315 0.609160
vn 0.171349 -0.774315 0.609160
vn 0.409731 -0.310381 0.857778
vn 0.409731 -0.310381 0.857778
vn 0.409731 -0.310381 0.857778
vn 0.385098 0.447632 0.807047
vn 0.385098 0.447632 0.807047
vn 0.385098 0.447632 0.807047
vn 0.428887 0.492744 0.757139
vn 0.428887 0.492744 0.757139
vn 0.428887 0.492744 0.757139
vn 0.379327 0.452092 0.807294
vn 0.379327 0.452092 0.807294
vn 0.379327 0.452092 0.807294
vn 0.785221 -0.609091 0.111517
vn 0.785221 -0.609091 0.111517
vn 0.785221 -0.609091 0.111517
vn -0.316941 0.847418 0.425947
vn -0.316941 0.847418 0.425947
vn -0.316941 0.847418 0.425947
vn 0.751150 0.066910 0.656731
vn 0.751150 0.066910 0.656731
vn 0.751150 0.066910 0.656731
vn 0.280287 0.841452 0.461950
vn 0.280287 0.841452 0.461950
vn 0.280287 0.841452 0.461950
vn 0.887490 0.459447 -0.035629
vn 0.887490 0.459447 -0.035629
vn 0.887490 0.459447 -0.035629
vn 0.972328 -0.093100 0.214268
vn 0.972328 -0.093100 0.214268
vn 0.972328 -0.093100 0.214268
vn 0.972440 -0.083836 0.217560
vn 0.972440 -0.083836 0.217560
vn 0.972440 -0.083836 0.217560
vn -0.584600 -0.686839 0.431851
vn -0.584600 -0.686839 0.431851
vn -0.584600 -0.686839 0.431851
vn 0.545269 0.831797 0.103899
vn 0.545269 0.831797 0.103899
vn 0.545269 0.831797 0.103899
vn -0.524595 0.514030 0.678656
vn -0.524595 0.514030 0.678656
vn -0.524595 0.514030 0.678656
vn 0.541832 0.833774 0.106019
vn 0.541832 0.833774 0.106019
vn 0.541832 0.833774 0.106019
vn -0.182106 -0.871630 0.455080
vn -0.182106 -0.871630 0.455080
vn -0.182106 -0.871630 0.455080
vn -0.944235 -0.239098 0.226391
vn -0.944235 -0.239098 0.226391
vn -0.944235 -0.239098 0.226391
vn -0.890983 0.327616 0.314352
vn -0.890983 0.327616 0.314352
vn -0.890983 0.327616 0.314352
vn -0.954414 -0.220349 0.201348
vn -0.954414 -0.220349 0.201348
vn -0.954414 -0.220349 0.201348
vn -0.331176 0.858893 0.390673
vn -0.331176 0.858893 0.390673
vn -0.331176 0.858893 0.390674
vn 0.884574 0.460141 -0.076150
vn 0.884574 0.460141 -0.076150
vn 0.884574 0.460141 -0.076150
vn -0.180356 -0.875939 0.447439
vn -0.180356 -0.875939 0.447439
vn -0.180356 -0.875939 0.447439
vn 0.235863 0.970471 0.050545
vn 0.235863 0.970471 0.050545
vn 0.235863 0.970471 0.050545
vn -0.330156 0.850790 0.408843
vn -0.330156 0.850790 0.408843
vn -0.330156 0.850790 0.408843
vn 0.541851 0.833761 0.106023
vn 0.541851 0.833761 0.106023
vn 0.541851 0.833761 0.106023
vn -0.593908 -0.658119 0.462766
vn -0.593908 -0.658119 0.462766
vn -0.593909 -0.658119 0.462766
vn 0.783121 -0.612919 0.105128
vn 0.783121 -0.612919 0.105128
vn 0.783121 -0.612919 0.105128
vn 0.884513 0.460224 -0.076360
vn 0.884513 0.460224 -0.076360
vn 0.884513 0.460224 -0.076360
vn 0.822555 -0.231856 -0.519275
vn 0.822555 -0.231856 -0.519275
vn 0.822555 -0.231856 -0.519275
vn -0.838859 0.538214 -0.081500
vn -0.838859 0.538214 -0.081500
vn -0.838859 0.538214 -0.081500
vn 0.619092 -0.780638 0.085612
vn 0.619092 -0.780638 0.085612
vn 0.619092 -0.780638 0.085612
vn 0.235128 0.875638 -0.421868
vn 0.235128 0.875638 -0.421868
vn 0.235128 0.875638 -0.421868
vn 0.232944 0.875416 -0.423538
vn 0.232944 0.875416 -0.423538
vn 0.232944 0.875416 -0.423538
vn -0.817062 -0.545491 0.186678
vn -0.817062 -0.545491 0.186678
vn -0.817062 -0.545491 0.186678
vn -0.622716 -0.690560 0.367903
vn -0.622716 -0.690560 0.367903
vn -0.622716 -0.690560 0.367903
vn -0.961098 -0.251315 0.114590
vn -0.961098 -0.251315 0.114590
vn -0.961098 -0.251315 0.114590
vn 0.498905 -0.866595 -0.010347
vn 0.498905 -0.866595 -0.010347
vn 0.498905 -0.866595 -0.010347
vn 0.563436 -0.825826 -0.023476
vn 0.563436 -0.825826 -0.023476
vn 0.563436 -0.825826 -0.023476
vn 0.824905 -0.196826 -0.529897
vn 0.824905 -0.196826 -0.529897
vn 0.824905 -0.196826 -0.529897
vn 0.884578 0.459608 -0.079256
vn 0.884578 0.459608 -0.079256
vn 0.884578 0.459608 -0.079256
vn -0.410695 -0.908179 -0.080871
vn -0.410695 -0.908179 -0.080871
vn -0.410695 -0.908179 -0.080871
vn -0.503433 0.851233 -0.148182
vn -0.503433 0.851233 -0.148182
vn -0.503433 0.851233 -0.148182
vn -0.694195 -0.551717 -0.462279
vn -0.694195 -0.551717 -0.462279
vn -0.694195 -0.551717 -0.462279
vn -0.410578 -0.908199 -0.081246
vn -0.410578 -0.908199 -0.081246
vn -0.410578 -0.908199 -0.081246
vn -0.962946 -0.174371 -0.205744
vn -0.962946 -0.174371 -0.205744
vn -0.962946 -0.174371 -0.205744
vn -0.866057 0.482120 -0.132307
vn -0.866057 0.482120 -0.132307
vn -0.866057 0.482120 -0.132307
vn -0.394183 -0.914650 -0.089636
vn -0.394183 -0.914650 -0.089636
vn -0.394183 -0.914650 -0.089636
vn 0.813671 -0.085692 -0.574975
vn 0.813671 -0.085692 -0.574975
vn 0.813671 -0.085692 -0.574975
vn 0.865881 0.484025 -0.126372
vn 0.865881 0.484025 -0.126372
vn 0.865881 0.484025 -0.126372
vn -0.962932 -0.171111 -0.208527
vn -0.962932 -0.171111 -0.208527
vn -0.962932 -0.171111 -0.208527
vn -0.672614 -0.573159 -0.468059
vn -0.672614 -0.573159 -0.468059
vn -0.672614 -0.573159 -0.468059
vn -0.573203 -0.607521 -0.549870
vn -0.573203 -0.607521 -0.549870
vn -0.573203 -0.607521 -0.549870
vn -0.785822 -0.040829 -0.617103
vn -0.785822 -0.040829 -0.617103
vn -0.785822 -0.040829 -0.617103
vn 0.310374 -0.326179 -0.892903
vn 0.310374 -0.326179 -0.892903
vn 0.310374 -0.326179 -0.892903
vn 0.116773 0.829223 -0.546584
vn 0.116773 0.829223 -0.546584
vn 0.116773 0.829223 -0.546584
vn 0.299773 0.370292 -0.879216
vn 0.299773 0.370292 -0.879216
vn 0.299773 0.370292 -0.879216
vn -0.267868 0.843038 -0.466405
vn -0.267868 0.843038 -0.466405
vn -0.267868 0.843038 -0.466405
vn -0.609369 0.387154 -0.691940
vn -0.609369 0.387154 -0.691940
vn -0.609369 0.387154 -0.691940
vn -0.564603 -0.608299 -0.557849
vn -0.564603 -0.608299 -0.557850
vn -0.564603 -0.608299 -0.557850
vn -0.467348 -0.141753 -0.872635
vn -0.467348 -0.141753 -0.872635
vn -0.467348 -0.141753 -0.872635
vn 0.311226 -0.646960 -0.696119
vn 0.311226 -0.646960 -0.696119
vn 0.311226 -0.646960 -0.696119
vn -0.572186 -0.606350 -0.552217
vn -0.572186 -0.606350 -0.552217
vn -0.572186 -0.606350 -0.552217
vn -0.423982 0.467424 -0.775728
vn -0.423982 0.467424 -0.775728
vn -0.423982 0.467424 -0.775728
vn -0.580663 -0.581955 -0.569350
vn -0.580663 -0.581955 -0.569350
vn -0.580663 -0.581955 -0.569350
vn 0.307917 0.357381 -0.881740
vn 0.307917 0.357381 -0.881740
vn 0.307917 0.357381 -0.881740
vn -0.567332 -0.605852 -0.557744
vn -0.567332 -0.605852 -0.557744
vn -0.567332 -0.605851 -0.557744
vn 0.654883 0.004176 -0.755719
vn 0.654883 0.004176 -0.755719
vn 0.654883 0.004176 -0.755719
vn 0.306439 0.363058 -0.879934
vn 0.306439 0.363058 -0.879934
vn 0.306439 0.363058 -0.879934
vn -0.568209 -0.518972 -0.638598
vn -0.568209 -0.518972 -0.638598
vn -0.568209 -0.518972 -0.638598
vn -0.467588 -0.141822 -0.872495
vn -0.467588 -0.141822 -0.872495
vn -0.467588 -0.141822 -0.872495
vn -0.427758 0.463307 -0.776125
vn -0.427758 0.463307 -0.776125
vn -0.427758 0.463307 -0.776125
vn 0.151883 -0.509529 -0.846942
vn 0.151883 -0.509529 -0.846942
vn 0.151883 -0.509529 -0.846942
vn 0.145820 -0.575604 -0.804622
vn 0.145820 -0.575604 -0.804622
vn 0.145820 -0.575604 -0.804622
vn 0.076136 -0.453425 -0.888037
vn 0.076136 -0.453425 -0.888037
vn 0.076136 -0.453425 -0.888037
vn -0.460246 -0.136343 -0.877259
vn -0.460246 -0.136343 -0.877259
vn -0.460246 -0.136343 -0.877259
vn 0.280277 0.331066 -0.901022
vn 0.280277 0.331066 -0.901022
vn 0.280277 0.331066 -0.901022
vn -0.336578 -0.134001 -0.932072
vn -0.336578 -0.134001 -0.932072
vn -0.336578 -0.134001 -0.932072
s off
f 4/1/1 2/2/2 1/3/3
f 2/2/4 5/4/5 1/3/6
f 6/5/7 2/2/8 4/1/9
f 1/3/10 5/4/11 3/6/12
f 2/2/13 18/7/14 5/4/15
f 7/8/16 1/3/17 3/6/18
f 3/6/19 5/4/20 10/9/21
f 7/8/22 3/6/23 10/9/24
f 1/3/25 7/8/26 11/10/27
f 18/7/28 2/2/29 9/11/30
f 1/3/31 11/10/32 4/1/33
f 5/4/34 18/7/35 10/9/36
f 6/5/37 4/1/38 15/12/39
f 9/11/40 2/2/41 8/13/42
f 11/10/43 7/8/44 19/14/45
f 4/1/46 11/10/47 14/15/48
f 2/2/49 12/16/50 8/13/51
f 12/16/52 6/5/53 13/17/54
f 2/2/55 6/5/56 12/16/57
f 14/15/58 11/10/59 16/18/60
f 17/19/61 9/11/62 8/13/63
f 15/12/64 4/1/65 14/15/66
f 8/13/67 12/16/68 17/19/69
f 6/5/70 15/12/71 13/17/72
f 15/12/73 14/15/74 20/20/75
f 14/15/76 16/18/77 20/20/78
f 10/9/79 27/21/80 7/8/81
f 12/16/82 21/22/83 17/19/84
f 18/7/85 9/11/86 22/23/87
f 12/16/88 24/24/89 21/22/90
f 26/25/91 19/14/92 7/8/93
f 10/9/94 18/7/95 27/21/96
f 32/26/97 18/7/98 22/23/99
f 18/7/100 32/26/101 27/21/102
f 17/19/103 25/27/104 22/23/105
f 13/17/106 15/12/107 20/20/108
f 19/14/109 26/25/110 23/28/111
f 21/22/112 25/27/113 17/19/114
f 9/11/115 17/19/116 22/23/117
f 13/17/118 24/24/119 12/16/120
f 27/21/121 26/25/122 7/8/123
f 11/10/124 29/29/125 16/18/126
f 13/17/127 20/20/128 24/24/129
f 20/20/130 16/18/131 28/30/132
f 33/31/133 32/26/134 22/23/135
f 19/14/136 29/29/137 11/10/138
f 24/24/139 36/32/140 21/22/141
f 36/32/142 25/27/143 21/22/144
f 27/21/145 35/33/146 31/34/147
f 27/21/148 31/34/149 26/25/150
f 27/21/151 32/26/152 35/33/153
f 30/35/154 29/29/155 19/14/156
f 23/28/157 30/35/158 19/14/159
f 29/29/160 28/30/161 16/18/162
f 20/20/163 34/36/164 24/24/165
f 26/25/166 31/34/167 23/28/168
f 33/31/169 22/23/170 25/27/171
f 35/33/172 38/37/173 31/34/174
f 23/28/175 31/34/176 37/38/177
f 39/39/178 35/33/179 32/26/180
f 33/31/181 41/40/182 32/26/183
f 30/35/184 23/28/185 37/38/186
f 28/30/187 34/36/188 20/20/189
f 34/36/190 36/32/191 24/24/192
f 32/26/193 41/40/194 39/39/195
f 39/39/196 38/37/197 35/33/198
f 31/34/199 38/37/200 37/38/201
f 41/40/202 42/41/203 39/39/204
f 37/38/205 29/29/206 30/35/207
f 36/32/208 40/42/209 25/27/210
f 44/43/211 40/42/212 36/32/213
f 25/27/214 40/42/215 33/31/216
f 41/40/217 33/31/218 42/41/219
f 38/37/220 39/39/221 43/44/222
f 39/39/223 42/41/224 43/44/225
f 37/38/226 28/30/227 29/29/228
f 37/38/229 38/37/230 45/45/231
f 44/43/232 33/31/233 40/42/234
f 38/37/235 43/44/236 45/45/237
f 34/36/238 44/43/239 36/32/240
f 47/46/241 37/38/242 45/45/243
f 28/30/244 46/47/245 34/36/246
f 46/47/247 44/43/248 34/36/249
f 47/46/250 45/45/251 43/44/252
f 47/46/253 43/44/254 42/41/255
f 42/41/256 33/31/257 44/43/258
f 37/38/259 47/46/260 28/30/261
f 46/47/262 28/30/263 47/46/264
f 48/48/265 46/47/266 47/46/267
f 42/41/268 44/43/269 47/46/270
f 44/43/271 46/47/272 48/48/273
f 44/43/274 48/48/275 47/46/276
