# This file uses centimeters as units for non-parametric coordinates.

v -0.307377 -0.100580 0.181581
v 0.307379 -0.100580 0.181581
v -0.307377 0.100580 0.181581
v 0.307379 0.100580 -0.181581
v -0.307377 -0.100580 -0.181581
v -0.153688 0.100580 -0.181581
v -0.307377 0.100580 -0.090790
v -0.307377 0.050290 -0.181581
v 0.153688 0.100580 0.181581
v 0.307379 0.050290 0.181581
v 0.307379 0.100580 0.090790
v 0.153688 -0.100580 -0.181581
v 0.307379 -0.050290 -0.181581
v 0.307379 -0.100580 -0.090790
vt 0.211923 0.303946
vt 0.211923 0.303946
vt 0.211923 0.303946
vt 0.211923 0.303946
vt 0.211923 0.303946
vt 0.211923 0.303946
vt 0.211923 0.303946
vt 0.211923 0.303946
vt 0.211923 0.303946
vt 0.211923 0.303946
vt 0.211923 0.303946
vt 0.211923 0.303946
vt 0.211923 0.303946
vt 0.211923 0.303946
vn 0.275187 -0.840993 -0.465835
vn 0.275187 -0.840993 -0.465835
vn 0.275187 -0.840993 -0.465835
vn -0.275190 0.840992 -0.465835
vn -0.275190 0.840992 -0.465835
vn -0.275190 0.840992 -0.465835
vn 0.275187 0.840993 0.465836
vn 0.275187 0.840993 0.465836
vn 0.275187 0.840993 0.465836
vn -1.000000 0.000000 0.000000
vn -1.000000 0.000000 0.000000
vn -1.000000 0.000000 0.000000
vn -1.000000 0.000000 0.000000
vn -1.000000 0.000000 0.000000
vn 0.000000 1.000000 -0.000000
vn 0.000000 1.000000 -0.000000
vn 0.000000 1.000000 -0.000000
vn 0.000000 1.000000 -0.000000
vn 0.000000 1.000000 -0.000000
vn 0.000000 1.000000 -0.000000
vn 0.000000 0.000000 1.000000
vn 0.000000 0.000000 1.000000
vn 0.000000 0.000000 1.000000
vn 0.000000 0.000000 1.000000
vn 0.000000 0.000000 1.000000
vn 1.000000 0.000000 0.000000
vn 1.000000 0.000000 0.000000
vn 1.000000 0.000000 0.000000
vn 1.000000 0.000000 0.000000
vn 1.000000 0.000000 0.000000
vn 1.000000 0.000000 0.000000
vn 0.000000 -1.000000 0.000000
vn 0.000000 -1.000000 0.000000
vn 0.000000 -1.000000 0.000000
vn 0.000000 -1.000000 0.000000
vn 0.000000 -1.000000 0.000000
vn 0.000000 0.000000 -1.000000
vn 0.000000 0.000000 -1.000000
vn 0.000000 0.000000 -1.000000
vn 0.000000 0.000000 -1.000000
vn 0.000000 0.000000 -1.000000
vn 0.000000 0.000000 -1.000000
s off
f 13/1/1 14/2/2 12/3/3
f 8/4/4 7/5/5 6/6/6
f 10/7/7 11/8/8 9/9/9
f 5/10/10 1/11/11 3/12/12 7/5/13 8/4/14
f 3/12/15 9/9/16 11/8/17 4/13/18 6/6/19 7/5/20
f 1/11/21 2/14/22 10/7/23 9/9/24 3/12/25
f 2/14/26 14/2/27 13/1/28 4/13/29 11/8/30 10/7/31
f 5/10/32 12/3/33 14/2/34 2/14/35 1/11/36
f 8/4/37 6/6/38 4/13/39 13/1/40 12/3/41 5/10/42
