# This file uses centimeters as units for non-parametric coordinates.

v 0.000003 0.000000 -0.000004
v 0.000003 5.000000 4.999998
v 5.000001 0.000000 -0.000004
v 5.000001 5.000000 4.999998
v 0.000003 5.000000 2.499998
v 5.000001 5.000000 2.499998
v 0.000003 2.500000 -0.000004
v 5.000001 2.500000 -0.000004
v 0.213180 0.161493 -0.000004
v 4.817300 0.132463 -0.000004
v 4.786820 2.500000 -0.000004
v 0.138427 2.500000 -0.000004
v 4.786820 5.000000 2.499998
v 4.786820 5.000000 4.796398
v 0.277097 5.000000 4.756102
v 0.213181 5.000000 2.499998
v 0.482051 0.640756 0.147717
v 4.469306 0.564119 0.149815
v 4.595819 2.525927 0.127876
v 4.709035 4.872121 2.552965
v 4.531735 4.852748 4.290321
v 0.354884 4.850181 4.619427
v 0.251788 4.936532 2.526285
v 1.150117 1.106296 0.149815
v 3.937768 1.076801 0.149815
v 3.937768 2.447031 0.127876
v 1.223310 2.504612 -0.013840
v 3.937772 4.872121 2.552965
v 3.937772 4.850181 3.949739
v 1.128446 4.972095 3.894876
v 1.062230 4.872121 2.552965
v 1.267663 1.231205 -0.016209
v 3.847600 1.163582 -0.016209
v 3.847600 2.504612 -0.013840
v 3.787633 5.013835 2.495365
v 3.847600 5.016202 3.875027
v 1.152398 5.016202 3.875027
v 1.177606 5.013835 2.495365
v 0.290969 4.870307 2.730766
v 0.290969 4.713775 2.394619
v 0.407023 4.872122 2.552965
v 1.062230 4.852466 3.566103
v 0.895175 4.850181 4.019184
v 1.217607 4.850181 3.986504
v 4.746446 4.922241 4.748104
v 4.315045 4.850181 4.541893
v 4.709031 2.740068 0.420914
v 4.760865 2.482327 0.042664
v 4.709031 2.155016 0.130768
v 0.234336 0.180809 0.040741
v 0.720020 0.429083 0.149815
v 1.692296 1.076801 0.149815
v 2.856671 1.076801 0.149815
v 2.264108 1.123543 0.060394
v 2.081128 0.931736 0.149815
v 0.000003 4.370339 1.870338
v 5.000001 4.358493 1.858490
v 0.248790 4.369879 1.869877
v 4.786820 4.358998 1.858997
v 0.434808 4.299341 1.980186
v 1.006584 4.071441 1.695546
v 3.757665 4.368010 1.849545
v 1.171777 4.132152 1.614614
v 0.000003 3.313523 0.813522
v 5.000001 3.576357 1.076355
v 0.163009 3.322092 0.822090
v 4.786820 3.565150 1.065147
v 0.290969 3.279053 0.959896
v 1.134984 3.307397 0.988243
v 3.937768 3.482951 1.163795
v 1.262635 3.371112 0.852654
v 3.823075 3.530794 1.012337
v 4.570863 3.511295 1.192139
v 1.543874 1.504319 0.150511
v 3.475465 1.450679 0.150511
v 3.608514 2.445486 -0.027232
v 1.449811 2.445486 0.128465
v 3.559190 4.871531 2.554468
v 3.554463 4.849483 3.653169
v 1.439443 4.849483 3.692264
v 1.412217 4.871531 2.554468
v 1.761534 4.012036 1.730274
v 3.534539 4.250121 1.967434
v 1.482160 3.253223 0.970543
v 3.588342 3.412906 1.130226
v 4.045552 4.136072 1.816917
v 4.630948 4.144266 1.825111
v 4.709031 4.409332 2.090177
v 4.049649 4.395246 2.076090
v 1.084004 2.704521 0.385367
v 0.290969 2.607248 0.288093
v 0.290969 2.302388 0.129309
v 1.069802 2.331528 0.129766
v 2.609084 1.474738 -0.005185
v 2.500461 1.198892 -0.016209
v 2.405252 1.480399 0.150511
v 3.305541 2.366204 0.128465
v 3.604165 2.654099 0.344482
v 3.573098 2.180683 0.134333
v 2.783496 1.469894 0.150511
v 1.477631 4.219756 1.961776
v 1.493058 3.689950 1.432179
vt 0.200041 0.278032
vt 0.200041 0.278032
vt 0.200041 0.278032
vt 0.200041 0.278032
vt 0.200041 0.278032
vt 0.200041 0.278032
vt 0.200041 0.278032
vt 0.200041 0.278032
vt 0.200041 0.278032
vt 0.200041 0.278032
vt 0.200041 0.278032
vt 0.200041 0.278032
vt 0.200041 0.278032
vt 0.200041 0.278032
vt 0.200041 0.278032
vt 0.200041 0.278032
vt 0.200041 0.278032
vt 0.200041 0.278032
vt 0.200041 0.278032
vt 0.200041 0.278032
vt 0.200041 0.278032
vt 0.200041 0.278032
vt 0.200041 0.278032
vt 0.200041 0.278032
vt 0.200041 0.278032
vt 0.200041 0.278032
vt 0.200041 0.278032
vt 0.200041 0.278032
vt 0.200041 0.278032
vt 0.200041 0.278032
vt 0.200041 0.278032
vt 0.200041 0.278032
vt 0.200041 0.278032
vt 0.200041 0.278032
vt 0.200041 0.278032
vt 0.200041 0.278032
vt 0.200041 0.278032
vt 0.200041 0.278032
vt 0.200041 0.278032
vt 0.200041 0.278032
vt 0.200041 0.278032
vt 0.200041 0.278032
vt 0.200041 0.278032
vt 0.200041 0.278032
vt 0.200041 0.278032
vt 0.200041 0.278032
vt 0.200041 0.278032
vt 0.200041 0.278032
vt 0.200041 0.278032
vt 0.200041 0.278032
vt 0.200041 0.278032
vt 0.200041 0.278032
vt 0.200041 0.278032
vt 0.200041 0.278032
vt 0.200041 0.278032
vt 0.200041 0.278032
vt 0.200041 0.278032
vt 0.200041 0.278032
vt 0.200041 0.278032
vt 0.200041 0.278032
vt 0.200041 0.278032
vt 0.200041 0.278032
vt 0.200041 0.278032
vt 0.200041 0.278032
vt 0.200041 0.278032
vt 0.200041 0.278032
vt 0.200041 0.278032
vt 0.200041 0.278032
vt 0.200041 0.278032
vt 0.200041 0.278032
vt 0.200041 0.278032
vt 0.200041 0.278032
vt 0.200041 0.278032
vt 0.197903 0.304397
vt 0.197903 0.304397
vt 0.197903 0.304397
vt 0.197903 0.304397
vt 0.197903 0.304397
vt 0.197903 0.304397
vt 0.197903 0.304397
vt 0.199511 0.279839
vt 0.197903 0.304397
vt 0.197903 0.304397
vt 0.199511 0.279839
vt 0.197903 0.304397
vt 0.197903 0.304397
vt 0.197903 0.304397
vt 0.197903 0.304397
vt 0.197903 0.304397
vt 0.197903 0.304397
vt 0.197903 0.304397
vt 0.197903 0.304397
vt 0.197903 0.304397
vt 0.197903 0.304397
vt 0.197903 0.304397
vt 0.197903 0.304397
vt 0.197903 0.304397
vt 0.197903 0.304397
vt 0.197903 0.304397
vt 0.197903 0.304397
vt 0.197903 0.304397
vt 0.197903 0.304397
vt 0.197903 0.304397
vt 0.197903 0.304397
vt 0.198292 0.279229
vt 0.198292 0.279229
vt 0.197903 0.304397
vt 0.197903 0.304397
vt 0.200041 0.278032
vt 0.200041 0.278032
vt 0.200041 0.278032
vt 0.200041 0.278032
vt 0.200041 0.278032
vt 0.200041 0.278032
vt 0.200041 0.278032
vt 0.200041 0.278032
vt 0.200041 0.278032
vt 0.200041 0.278032
vt 0.200041 0.278032
vt 0.200041 0.278032
vt 0.222569 0.296953
vt 0.222569 0.296953
vt 0.199681 0.278126
vt 0.222569 0.296953
vt 0.222569 0.296953
vt 0.222569 0.296953
vt 0.222569 0.296953
vt 0.222569 0.296953
vt 0.222569 0.296953
vt 0.222569 0.296953
vt 0.222569 0.296953
vt 0.222569 0.296953
vt 0.200041 0.278032
vt 0.197903 0.304397
vt 0.197903 0.304397
vt 0.200041 0.278032
vt 0.197903 0.304397
vt 0.200041 0.278032
vt 0.200041 0.278032
vt 0.197903 0.304397
vt 0.198292 0.279229
vt 0.198292 0.279229
vt 0.198292 0.279229
vt 0.198292 0.279229
vt 0.197903 0.304397
vt 0.200041 0.278032
vt 0.200041 0.278032
vt 0.197903 0.304397
vt 0.200041 0.278032
vt 0.197903 0.304397
vt 0.197903 0.304397
vt 0.200041 0.278032
vt 0.199511 0.279839
vt 0.199511 0.279839
vt 0.199511 0.279839
vt 0.199511 0.279839
vt 0.200121 0.278620
vt 0.200041 0.278032
vt 0.200041 0.278032
vt 0.222569 0.296953
vt 0.200041 0.278032
vt 0.199681 0.278126
vt 0.199681 0.278126
vt 0.200041 0.278032
vt 0.222569 0.296953
vt 0.200041 0.278032
vt 0.222569 0.296953
vt 0.200041 0.278032
vt 0.200121 0.278620
vt 0.200121 0.278620
vt 0.200121 0.278620
vt 0.200121 0.278620
vt 0.200121 0.278620
vt 0.200041 0.278032
vt 0.222569 0.296953
vt 0.200041 0.278032
vt 0.222569 0.296953
vt 0.222569 0.296953
vt 0.222569 0.296953
vn 0.000613 0.022074 0.999756
vn 0.000613 0.022074 0.999756
vn 0.000613 0.022074 0.999756
vn -0.000181 -0.999806 -0.019711
vn -0.000181 -0.999806 -0.019711
vn -0.000181 -0.999806 -0.019711
vn -0.000181 -0.999806 -0.019711
vn 0.004696 -0.688814 0.724923
vn 0.004696 -0.688814 0.724923
vn 0.004696 -0.688814 0.724923
vn 0.004696 -0.688814 0.724923
vn 0.004696 -0.688814 0.724923
vn 0.000000 0.000000 1.000000
vn 0.000000 0.000000 1.000000
vn 0.000000 0.000000 1.000000
vn 0.000000 0.000000 1.000000
vn 0.000000 0.000000 1.000000
vn 0.000000 0.000000 1.000000
vn 0.000000 0.000000 1.000000
vn 0.000000 0.000000 1.000000
vn 0.000000 0.000000 1.000000
vn 0.000000 0.000000 1.000000
vn 0.000000 0.000000 1.000000
vn 0.000000 0.000000 1.000000
vn 0.000000 -1.000000 0.000000
vn 0.000000 -1.000000 0.000000
vn 0.000000 -1.000000 0.000000
vn 0.000000 -1.000000 0.000000
vn 0.000000 -1.000000 0.000000
vn 0.000000 -1.000000 0.000000
vn 0.000000 -1.000000 0.000000
vn 0.000000 -1.000000 0.000000
vn 0.000000 -1.000000 0.000000
vn 0.000000 -1.000000 0.000000
vn 0.000000 -1.000000 0.000000
vn 0.000000 -1.000000 0.000000
vn 0.000001 -0.707107 0.707107
vn 0.000001 -0.707107 0.707107
vn 0.000001 -0.707107 0.707107
vn 0.000001 -0.707107 0.707107
vn -0.000002 -0.707107 0.707107
vn -0.000002 -0.707107 0.707107
vn -0.000002 -0.707107 0.707107
vn -0.000002 -0.707107 0.707107
vn 0.007512 -0.398990 0.916924
vn 0.007512 -0.398990 0.916924
vn 0.007512 -0.398990 0.916924
vn 0.007512 -0.398990 0.916924
vn 0.007512 -0.398990 0.916924
vn 0.551625 -0.024474 0.833733
vn 0.551625 -0.024474 0.833733
vn 0.551625 -0.024474 0.833733
vn 0.551625 -0.024474 0.833733
vn 0.551625 -0.024474 0.833733
vn 0.120354 -0.988310 0.093581
vn 0.120354 -0.988310 0.093581
vn 0.120355 -0.988310 0.093581
vn -0.000000 0.000000 1.000000
vn -0.000000 0.000000 1.000000
vn -0.000000 0.000000 1.000000
vn 0.005505 0.013053 0.999900
vn 0.005505 0.013053 0.999900
vn 0.005505 0.013053 0.999900
vn 0.005505 0.013053 0.999900
vn 0.005505 0.013053 0.999900
vn -0.004956 0.592882 0.805274
vn -0.004956 0.592882 0.805274
vn -0.004956 0.592882 0.805274
vn -0.004956 0.592882 0.805274
vn -0.338861 -0.912166 -0.230493
vn -0.338861 -0.912166 -0.230493
vn -0.338861 -0.912166 -0.230493
vn -0.350113 -0.521502 0.778111
vn -0.350113 -0.521502 0.778111
vn -0.350113 -0.521502 0.778111
vn 0.000000 -0.707106 0.707107
vn 0.000000 -0.707106 0.707107
vn 0.000000 -0.707106 0.707107
vn 0.000000 -0.707106 0.707107
vn 0.000000 -0.707106 0.707107
vn 0.017943 0.684571 0.728725
vn 0.017943 0.684571 0.728725
vn 0.017943 0.684571 0.728726
vn -0.862020 0.003658 0.506862
vn -0.862020 0.003658 0.506862
vn -0.862020 0.003658 0.506862
vn -0.862020 0.003658 0.506862
vn -0.790750 -0.612007 0.012765
vn -0.790749 -0.612007 0.012765
vn -0.790750 -0.612007 0.012765
vn -0.790750 -0.612007 0.012765
vn -0.004309 -0.491267 -0.870999
vn -0.004309 -0.491267 -0.870999
vn -0.004309 -0.491267 -0.870999
vn -0.004309 -0.491267 -0.870999
vn -0.004309 -0.491267 -0.870999
vn 0.830101 -0.557596 0.004357
vn 0.830101 -0.557596 0.004357
vn 0.830101 -0.557596 0.004357
vn 0.830101 -0.557596 0.004357
vn 0.830101 -0.557596 0.004357
vn 0.654141 -0.554920 0.513968
vn 0.654141 -0.554920 0.513968
vn 0.654141 -0.554920 0.513968
vn 0.654141 -0.554920 0.513968
vn -0.807361 -0.422007 0.412406
vn -0.807361 -0.422007 0.412406
vn -0.807361 -0.422007 0.412406
vn -0.807361 -0.422007 0.412406
vn -0.876581 -0.480648 0.024131
vn -0.876581 -0.480648 0.024131
vn -0.876581 -0.480648 0.024131
vn -0.876581 -0.480648 0.024131
vn -0.876581 -0.480648 0.024131
vn -0.743629 -0.528424 0.409614
vn -0.743629 -0.528424 0.409614
vn -0.743629 -0.528424 0.409614
vn -0.743629 -0.528424 0.409614
vn -0.743629 -0.528424 0.409614
vn 0.024581 -0.720227 0.693303
vn 0.024581 -0.720227 0.693303
vn 0.024581 -0.720227 0.693303
vn 0.024581 -0.720227 0.693303
vn 0.024581 -0.720227 0.693303
vn -0.008141 -0.999882 -0.013069
vn -0.008141 -0.999882 -0.013069
vn -0.008141 -0.999882 -0.013069
vn -0.008141 -0.999882 -0.013069
vn -0.008141 -0.999882 -0.013069
vn -0.008141 -0.999882 -0.013069
vn 0.533115 -0.823873 0.192411
vn 0.533115 -0.823873 0.192411
vn 0.533115 -0.823873 0.192411
vn -0.077919 -0.634764 -0.768767
vn -0.077919 -0.634764 -0.768767
vn -0.077919 -0.634764 -0.768767
vn -0.003289 -0.790337 0.612664
vn -0.003289 -0.790337 0.612664
vn -0.003289 -0.790337 0.612664
vn -0.003289 -0.790337 0.612664
vn -0.003289 -0.790337 0.612664
vn 0.000000 -1.000000 -0.000000
vn 0.000000 -1.000000 -0.000000
vn 0.000000 -1.000000 -0.000000
vn 0.000000 -1.000000 -0.000000
vn 0.000000 -1.000000 -0.000000
vn 0.005096 -0.999904 -0.012892
vn 0.005096 -0.999904 -0.012892
vn 0.005096 -0.999904 -0.012892
vn 0.005096 -0.999904 -0.012892
vn 0.634978 -0.772491 0.007811
vn 0.634978 -0.772491 0.007811
vn 0.634978 -0.772491 0.007811
vn 0.634978 -0.772491 0.007811
vn 0.634978 -0.772491 0.007811
vn 0.435303 -0.715107 0.546930
vn 0.435303 -0.715107 0.546930
vn 0.435303 -0.715107 0.546930
vn 0.422480 0.172604 0.889786
vn 0.422480 0.172604 0.889786
vn 0.422480 0.172604 0.889786
vn -0.142661 -0.150686 0.978234
vn -0.142661 -0.150686 0.978234
vn -0.142661 -0.150686 0.978234
vn 0.120422 0.322780 0.938782
vn 0.120422 0.322779 0.938782
vn 0.120422 0.322780 0.938782
vn 0.038223 0.778604 0.626350
vn 0.038223 0.778604 0.626350
vn 0.038223 0.778604 0.626350
vn 0.038223 0.778604 0.626350
vn 0.000001 0.886233 0.463239
vn 0.000001 0.886233 0.463239
vn 0.000001 0.886233 0.463239
vn 0.000001 0.886233 0.463239
vn 0.000000 0.000000 1.000000
vn 0.000000 0.000000 1.000000
vn 0.000000 0.000000 1.000000
vn 0.000000 0.000000 1.000000
vn -0.001386 0.000880 0.999999
vn -0.001386 0.000880 0.999999
vn -0.001386 0.000880 0.999999
vn -0.001386 0.000880 0.999999
vn -0.001386 0.000880 0.999999
vn 0.006810 -0.999967 -0.004340
vn 0.006810 -0.999967 -0.004340
vn 0.006810 -0.999967 -0.004340
vn -0.091925 0.491444 0.866044
vn -0.091925 0.491444 0.866044
vn -0.091925 0.491444 0.866044
vn 0.004333 -0.708084 0.706115
vn 0.004333 -0.708084 0.706115
vn 0.004333 -0.708084 0.706115
vn 0.004333 -0.708084 0.706115
vn 0.004333 -0.708084 0.706115
vn 0.000004 -0.707107 0.707107
vn 0.000004 -0.707107 0.707107
vn 0.000004 -0.707107 0.707107
vn 0.000004 -0.707107 0.707107
vn 0.000003 -0.707107 0.707107
vn 0.000003 -0.707107 0.707107
vn 0.000003 -0.707107 0.707107
vn 0.000003 -0.707107 0.707107
vn 0.000638 -0.985991 0.166796
vn 0.000638 -0.985991 0.166796
vn 0.000638 -0.985991 0.166796
vn 0.000638 -0.985991 0.166796
vn 0.644160 -0.480632 0.595021
vn 0.644160 -0.480632 0.595021
vn 0.644160 -0.480632 0.595021
vn 0.644160 -0.480632 0.595021
vn -0.639864 -0.506719 0.577763
vn -0.639864 -0.506719 0.577763
vn -0.639864 -0.506719 0.577763
vn -0.639864 -0.506719 0.577763
vn 0.031950 -0.695379 0.717932
vn 0.031950 -0.695379 0.717932
vn 0.031950 -0.695379 0.717932
vn 0.031950 -0.695379 0.717932
vn 0.000002 -0.707107 0.707107
vn 0.000002 -0.707107 0.707107
vn 0.000002 -0.707107 0.707107
vn 0.000002 -0.707107 0.707107
vn -0.010881 -0.150424 0.988562
vn -0.010881 -0.150424 0.988562
vn -0.010881 -0.150424 0.988562
vn -0.010881 -0.150424 0.988562
vn 0.001022 -0.720418 0.693540
vn 0.001022 -0.720418 0.693540
vn 0.001022 -0.720418 0.693540
vn 0.001022 -0.720418 0.693540
vn 0.001022 -0.720418 0.693540
vn 0.000002 -0.707108 0.707106
vn 0.000002 -0.707108 0.707106
vn 0.000002 -0.707108 0.707106
vn 0.000002 -0.707108 0.707106
vn 0.031424 -0.912751 0.407305
vn 0.031424 -0.912751 0.407305
vn 0.031424 -0.912751 0.407305
vn 0.031424 -0.912751 0.407305
vn -0.013756 -0.514457 0.857406
vn -0.013756 -0.514457 0.857406
vn -0.013756 -0.514457 0.857406
vn -0.013756 -0.514457 0.857406
vn 0.438445 -0.014677 0.898638
vn 0.438445 -0.014677 0.898638
vn 0.438445 -0.014677 0.898638
vn 0.438445 -0.014677 0.898638
vn -0.515892 -0.024636 0.856299
vn -0.515892 -0.024636 0.856299
vn -0.515892 -0.024636 0.856299
vn -0.515892 -0.024636 0.856299
vn 0.513856 -0.857682 -0.018264
vn 0.513855 -0.857682 -0.018264
vn 0.513856 -0.857682 -0.018264
vn 0.513856 -0.857682 -0.018264
vn 0.005168 -0.771749 0.635906
vn 0.005168 -0.771749 0.635906
vn 0.005168 -0.771749 0.635906
vn 0.005168 -0.771749 0.635906
vn -0.510770 -0.859694 -0.006311
vn -0.510770 -0.859694 -0.006311
vn -0.510770 -0.859694 -0.006311
vn -0.510770 -0.859694 -0.006311
vn -0.517313 -0.603310 0.606963
vn -0.471022 -0.663304 0.581521
vn -0.479828 -0.652505 0.586517
vn -0.517313 -0.603310 0.606964
vn 0.565427 -0.587537 0.578872
vn 0.565427 -0.587537 0.578872
vn 0.565427 -0.587537 0.578872
vn 0.565427 -0.587537 0.578872
vn -0.446702 -0.585184 0.676769
vn -0.563475 -0.608470 0.558803
vn -0.563475 -0.608470 0.558803
vn -0.510212 -0.599594 0.616579
vn 0.588435 -0.550394 0.592294
vn 0.588435 -0.550394 0.592294
vn 0.588435 -0.550394 0.592294
vn 0.588435 -0.550393 0.592294
vn -0.570423 -0.574558 0.586941
vn -0.570423 -0.574558 0.586941
vn -0.570423 -0.574558 0.586941
vn -0.570423 -0.574558 0.586941
vn 0.550680 -0.588473 0.591990
vn 0.550680 -0.588473 0.591990
vn 0.550680 -0.588473 0.591990
vn 0.550680 -0.588473 0.591990
vn 0.700087 -0.479289 0.529301
vn 0.700087 -0.479289 0.529301
vn 0.700087 -0.479289 0.529301
vn 0.700087 -0.479289 0.529301
vn 0.700087 -0.479289 0.529301
vn -0.571317 -0.572163 0.588410
vn -0.571317 -0.572163 0.588410
vn -0.571317 -0.572163 0.588410
vn -0.571317 -0.572163 0.588410
vn 0.000000 -0.707107 0.707106
vn 0.000000 -0.707107 0.707106
vn 0.000000 -0.707107 0.707106
vn 0.000000 -0.707107 0.707106
vn 0.570472 -0.592647 0.568622
vn 0.570472 -0.592647 0.568622
vn 0.570472 -0.592647 0.568622
vn 0.570472 -0.592647 0.568622
vn 0.854349 -0.367485 0.367481
vn 0.854349 -0.367485 0.367481
vn 0.854349 -0.367485 0.367482
vn 0.854349 -0.367485 0.367482
vn 0.000000 -0.707107 0.707107
vn 0.000000 -0.707107 0.707107
vn 0.000000 -0.707107 0.707107
vn 0.000000 -0.707107 0.707107
vn -0.532070 -0.617801 0.578985
vn -0.532070 -0.617801 0.578985
vn -0.532070 -0.617801 0.578985
vn -0.532070 -0.617801 0.578985
vn 0.699645 -0.526262 0.483265
vn 0.699645 -0.526262 0.483265
vn 0.699645 -0.526262 0.483265
vn 0.699645 -0.526262 0.483265
vn -0.000002 -0.707106 0.707107
vn -0.000002 -0.707106 0.707107
vn -0.000002 -0.707106 0.707107
vn -0.000002 -0.707106 0.707107
vn -0.679052 -0.513463 0.524637
vn -0.679052 -0.513463 0.524637
vn -0.679052 -0.513463 0.524637
vn -0.679052 -0.513463 0.524637
vn -0.543465 -0.023805 0.839094
vn -0.543465 -0.023805 0.839094
vn -0.543465 -0.023805 0.839094
vn -0.543465 -0.023805 0.839094
vn -0.543465 -0.023805 0.839094
vn -0.006123 0.012744 0.999900
vn -0.006123 0.012744 0.999900
vn -0.006123 0.012744 0.999900
vn -0.006123 0.012744 0.999900
vn 0.731732 0.041323 0.680338
vn 0.731732 0.041323 0.680338
vn 0.731732 0.041323 0.680338
vn 0.731732 0.041323 0.680338
vn 0.000203 0.023039 0.999735
vn 0.000203 0.023039 0.999735
vn 0.000203 0.023039 0.999735
vn 0.000203 0.023039 0.999735
vn -0.013746 -0.511905 0.858932
vn -0.013746 -0.511905 0.858932
vn -0.013746 -0.511905 0.858932
vn -0.013746 -0.511905 0.858932
vn 0.017944 0.684570 0.728726
vn 0.017944 0.684570 0.728726
vn 0.017944 0.684570 0.728726
vn 0.581602 -0.259830 0.770862
vn 0.581602 -0.259830 0.770862
vn 0.581602 -0.259830 0.770862
vn 0.466457 -0.440281 0.767184
vn 0.466457 -0.440281 0.767184
vn 0.466457 -0.440281 0.767184
vn 0.466457 -0.440281 0.767184
vn 0.244963 -0.844258 0.476677
vn 0.244963 -0.844258 0.476677
vn 0.244963 -0.844258 0.476677
vn 0.184686 -0.856128 0.482634
vn 0.184686 -0.856128 0.482634
vn 0.184686 -0.856128 0.482634
vn -0.177466 0.529762 0.829372
vn -0.177466 0.529762 0.829373
vn -0.177466 0.529762 0.829373
vn -0.495514 0.542608 0.678264
vn -0.495514 0.542608 0.678264
vn -0.495514 0.542608 0.678264
vn -0.495514 0.542608 0.678264
vn -0.645392 0.224974 0.729970
vn -0.645392 0.224974 0.729970
vn -0.645392 0.224974 0.729970
vn -0.479828 -0.652505 0.586517
vn -0.471022 -0.663304 0.581521
vn -0.261837 -0.855575 0.446579
vn -0.446702 -0.585184 0.676769
vn -0.510212 -0.599594 0.616579
vn -0.265600 -0.526234 0.807796
s off
f 99/121/1 100/122/2 75/124/3
f 78/125/4 79/126/5 80/127/6 81/128/7
f 78/125/8 81/128/9 101/129/10 82/130/11 83/131/12
f 1/1/13 3/3/14 10/10/15 9/9/16
f 3/3/17 8/8/18 11/11/19 10/10/20
f 7/7/21 1/1/22 9/9/23 12/12/24
f 6/6/25 4/4/26 14/14/27 13/13/28
f 4/4/29 2/2/30 15/15/31 14/14/32
f 2/2/33 5/5/34 16/16/35 15/15/36
f 5/5/37 56/56/38 58/58/39 16/16/40
f 8/8/41 65/65/42 67/67/43 11/11/44
f 9/9/45 10/10/46 18/18/47 51/51/48 50/50/49
f 10/10/50 11/11/51 48/48/52 49/49/53 18/18/54
f 45/45/55 46/46/56 21/21/57
f 55/74/58 51/75/59 18/76/60
f 18/76/61 49/77/62 19/78/63 26/79/64 25/80/65
f 12/81/66 92/84/67 93/153/68 27/154/69
f 41/41/70 39/39/71 23/23/72
f 23/23/73 40/40/74 41/41/75
f 19/78/76 47/85/77 73/86/78 70/87/79 26/79/80
f 95/159/81 54/54/82 33/33/83
f 25/25/84 26/26/85 34/34/86 33/33/87
f 28/28/88 29/29/89 36/36/90 35/35/91
f 29/29/92 44/44/93 30/30/94 37/37/95 36/36/96
f 30/30/97 42/42/98 31/31/99 38/38/100 37/37/101
f 31/31/102 61/61/103 63/63/104 38/38/105
f 26/26/106 70/70/107 72/72/108 34/34/109
f 15/15/110 16/16/111 23/23/112 39/39/113 22/22/114
f 16/16/115 58/58/116 60/60/117 40/40/118 23/23/119
f 41/88/120 40/89/121 60/90/122 61/91/123 31/92/124
f 22/93/125 39/94/126 41/88/127 31/92/128 42/95/129 43/96/130
f 43/43/131 42/42/132 30/30/133
f 44/44/134 43/43/135 30/30/136
f 14/14/137 15/15/138 22/22/139 46/46/140 45/45/141
f 29/97/142 46/98/143 22/93/144 43/96/145 44/99/146
f 20/100/147 21/101/148 29/97/149 28/102/150
f 13/13/151 14/14/152 45/45/153 21/21/154 20/20/155
f 48/48/156 47/47/157 19/19/158
f 49/49/159 48/48/160 19/19/161
f 50/50/162 51/51/163 17/17/164
f 52/52/165 55/55/166 54/54/167
f 24/24/168 52/52/169 54/54/170 32/32/171
f 33/33/172 54/54/173 53/53/174 25/25/175
f 55/74/176 18/76/177 25/80/178 53/103/179
f 17/82/180 51/75/181 55/74/182 52/104/183 24/83/184
f 21/101/185 46/98/186 29/97/187
f 54/54/188 55/55/189 53/53/190
f 83/131/191 82/130/192 102/132/193 84/160/194 85/165/195
f 58/58/196 56/56/197 64/64/198 66/66/199
f 59/59/200 57/57/201 6/6/202 13/13/203
f 62/105/204 59/106/205 88/141/206 89/142/207
f 63/63/208 61/61/209 69/69/210 71/71/211
f 60/60/212 58/58/213 66/66/214 68/68/215
f 61/91/216 60/90/217 68/107/218 69/108/219
f 67/67/220 65/65/221 57/57/222 59/59/223
f 86/143/224 87/144/225 59/106/226 62/105/227
f 85/165/228 84/160/229 77/167/230 97/175/231 98/177/232
f 66/66/233 64/64/234 7/7/235 12/12/236
f 90/155/237 91/156/238 12/81/239 27/154/240
f 100/168/241 95/159/242 33/33/243 75/110/244
f 33/33/245 34/34/246 99/166/247 75/110/248
f 27/27/249 32/32/250 74/109/251 77/112/252
f 35/35/253 36/36/254 79/114/255 78/113/256
f 36/36/257 37/37/258 80/115/259 79/114/260
f 37/37/261 38/38/262 81/116/263 80/115/264
f 38/38/265 63/63/266 101/174/267 81/116/268
f 62/62/269 35/35/270 78/113/271 83/118/272
f 63/63/273 71/71/274 84/119/275 102/176/276
f 72/72/277 62/62/278 83/118/279 85/120/280
f 71/71/281 27/27/282 77/112/283 84/119/284
f 34/34/285 72/72/286 85/120/287 98/164/288
f 11/11/289 67/67/290 73/73/291 47/47/292 48/48/293
f 72/72/294 70/70/295 86/133/296 62/62/297
f 70/87/298 73/86/299 87/135/300 86/134/301
f 73/73/302 67/67/303 59/59/304 87/136/305
f 88/138/306 59/59/307 13/13/308 20/20/309
f 89/140/310 88/137/311 20/100/312 28/102/313
f 62/62/314 89/139/315 28/28/316 35/35/317
f 71/71/318 69/69/319 90/146/320 27/27/321
f 69/108/322 68/107/323 91/148/324 90/145/325
f 68/68/326 66/66/327 12/12/328 91/147/329
f 12/12/330 9/9/331 50/50/332 17/17/333 92/149/334
f 93/151/335 92/150/336 17/82/337 24/83/338
f 27/27/339 93/152/340 24/24/341 32/32/342
f 74/178/343 96/179/344 97/175/345 77/167/346
f 32/32/347 95/159/348 96/161/349 74/109/350
f 32/32/351 54/54/352 95/159/353
f 96/161/354 95/159/355 94/158/356
f 97/157/357 96/169/358 94/170/359 76/171/360
f 98/123/361 97/162/362 76/163/363
f 34/34/364 98/164/365 76/111/366
f 99/166/367 34/34/368 76/111/369
f 76/171/370 94/170/371 100/172/372 99/173/373
f 94/158/374 95/159/375 100/168/376
f 101/174/377 63/63/378 82/117/379
f 63/63/380 102/176/381 82/117/382
