# This file uses centimeters as units for non-parametric coordinates.

v 0.000775 0.780098 -0.007396
v -0.003803 0.780098 -0.007396
v -0.006092 0.780098 -0.003431
v -0.003803 0.780098 0.000534
v 0.000775 0.780098 0.000534
v 0.003064 0.780098 -0.003431
v 0.113402 1.641096 -0.196417
v -0.113402 1.641096 -0.196417
v -0.226803 1.641096 -0.000001
v -0.113402 1.641096 0.196418
v 0.113402 1.641096 0.196418
v 0.226804 1.641096 -0.000001
v -0.001514 0.780073 -0.003431
v 0.000000 1.800722 -0.000001
v -0.051691 1.470513 0.071898
v -0.101189 1.470513 -0.013836
v -0.051691 1.470513 -0.099570
v 0.047307 1.470513 -0.099570
v 0.096804 1.470513 -0.013836
v 0.047307 1.470513 0.071898
v -0.046532 1.337583 0.069636
v -0.086736 1.337583 -0.000001
v -0.046532 1.337583 -0.069636
v 0.033876 1.337583 -0.069636
v 0.074082 1.337583 -0.000001
v 0.033876 1.337583 0.069636
v -0.027147 1.163309 0.058422
v -0.048747 1.129347 0.003969
v -0.026212 1.157156 -0.056461
v 0.035609 1.157156 -0.056461
v 0.074893 1.129347 0.003969
v 0.034672 1.163309 0.058422
v -0.022547 0.780366 0.014241
v -0.038888 0.780366 -0.014062
v -0.022547 0.780366 -0.042367
v 0.010135 0.780366 -0.042367
v 0.026476 0.780366 -0.014062
v 0.010135 0.780366 0.014241
v -0.113402 -0.060954 -0.196417
v 0.113402 -0.060954 -0.196417
v 0.226804 -0.060954 -0.000001
v 0.113402 -0.060954 0.196418
v -0.113402 -0.060954 0.196418
v -0.226803 -0.060954 -0.000001
v 0.000000 -0.220580 -0.000001
v 0.051691 0.109629 0.071898
v 0.101190 0.109629 -0.013836
v 0.051691 0.109629 -0.099570
v -0.047306 0.109629 -0.099570
v -0.096804 0.109629 -0.013836
v -0.047306 0.109629 0.071898
v 0.046532 0.280212 0.069636
v 0.086737 0.280212 -0.000001
v 0.046532 0.280212 -0.069636
v -0.033876 0.280212 -0.069636
v -0.074081 0.280212 -0.000001
v -0.033876 0.280212 0.069636
v 0.027260 0.420987 0.056406
v 0.058170 0.420987 0.002868
v 0.017838 0.450796 -0.049569
v -0.045089 0.420614 -0.052394
v -0.075999 0.420614 0.001145
v -0.043982 0.450796 0.057507
v 0.012388 0.473329 0.046020
v 0.037377 0.473329 0.002737
v 0.012388 0.473329 -0.040547
v -0.037593 0.473329 -0.040547
v -0.062582 0.473329 0.002737
v -0.037593 0.473329 0.046020
v 0.035662 1.091533 0.044760
v -0.013695 1.091533 0.044760
v -0.038374 1.091533 0.002015
v -0.013695 1.091533 -0.040731
v 0.035662 1.091533 -0.040731
v 0.060341 1.091533 0.002015
v 0.091502 1.550280 0.153142
v -0.093836 1.550280 0.153142
v -0.186504 1.550280 -0.007365
v -0.093836 1.550280 -0.167872
v 0.091502 1.550280 -0.167872
v 0.184170 1.550280 -0.007365
v 0.101105 0.015048 0.167262
v 0.201232 0.015048 -0.006163
v 0.101105 0.015048 -0.179590
v -0.099149 0.015048 -0.179590
v -0.199277 0.015048 -0.006163
v -0.099149 0.015048 0.167262
vt 0.214591 0.281331
vt 0.214591 0.281331
vt 0.214591 0.281331
vt 0.214591 0.281331
vt 0.214591 0.281331
vt 0.214591 0.281331
vt 0.214591 0.281331
vt 0.214591 0.281331
vt 0.214591 0.281331
vt 0.214591 0.281331
vt 0.214591 0.281331
vt 0.214591 0.281331
vt 0.214591 0.281331
vt 0.214591 0.281331
vt 0.214591 0.281331
vt 0.214591 0.281331
vt 0.214591 0.281331
vt 0.214591 0.281331
vt 0.214591 0.281331
vt 0.214591 0.281331
vt 0.214591 0.281331
vt 0.214591 0.281331
vt 0.214591 0.281331
vt 0.214591 0.281331
vt 0.214591 0.281331
vt 0.214591 0.281331
vt 0.214591 0.281331
vt 0.214591 0.281331
vt 0.214591 0.281331
vt 0.214591 0.281331
vt 0.214591 0.281331
vt 0.214591 0.281331
vt 0.214591 0.281331
vt 0.214591 0.281331
vt 0.214591 0.281331
vt 0.214591 0.281331
vt 0.214591 0.281331
vt 0.214591 0.281331
vt 0.214591 0.281331
vt 0.214591 0.281331
vt 0.214591 0.281331
vt 0.214591 0.281331
vt 0.214591 0.281331
vt 0.214591 0.281331
vt 0.214591 0.281331
vt 0.214591 0.281331
vt 0.214591 0.281331
vt 0.214591 0.281331
vt 0.214591 0.281331
vt 0.214591 0.281331
vt 0.214591 0.281331
vt 0.214591 0.281331
vt 0.214591 0.281331
vt 0.214591 0.281331
vt 0.214591 0.281331
vt 0.214591 0.281331
vt 0.214591 0.281331
vt 0.214591 0.281331
vt 0.214591 0.281331
vt 0.214591 0.281331
vt 0.214591 0.281331
vt 0.214591 0.281331
vt 0.214591 0.281331
vt 0.214591 0.281331
vt 0.214591 0.281331
vt 0.214591 0.281331
vt 0.214591 0.281331
vt 0.214591 0.281331
vt 0.214591 0.281331
vt 0.214591 0.281331
vt 0.214591 0.281331
vt 0.214591 0.281331
vt 0.214591 0.281331
vt 0.214591 0.281331
vt 0.214591 0.281331
vt 0.214591 0.281331
vt 0.214591 0.281331
vt 0.214591 0.281331
vt 0.214591 0.281331
vt 0.214591 0.281331
vt 0.214591 0.281331
vt 0.214591 0.281331
vt 0.214591 0.281331
vt 0.214591 0.281331
vt 0.214591 0.281331
vt 0.214591 0.281331
vt 0.214591 0.281331
vt 0.214591 0.281331
vt 0.214591 0.281331
vt 0.214591 0.281331
vt 0.214591 0.281331
vt 0.214591 0.281331
vt 0.214591 0.281331
vt 0.214591 0.281331
vt 0.214591 0.281331
vt 0.214591 0.281331
vt 0.214591 0.281331
vt 0.214591 0.281331
vt 0.214591 0.281331
vt 0.214591 0.281331
vt 0.214591 0.281331
vt 0.214591 0.281331
vt 0.214591 0.281331
vt 0.214591 0.281331
vt 0.214591 0.281331
vt 0.214591 0.281331
vt 0.214591 0.281331
vt 0.214591 0.281331
vt 0.214591 0.281331
vt 0.214591 0.281331
vt 0.214591 0.281331
vt 0.214591 0.281331
vt 0.214591 0.281331
vt 0.214591 0.281331
vt 0.214591 0.281331
vt 0.214591 0.281331
vt 0.214591 0.281331
vt 0.214591 0.281331
vt 0.214591 0.281331
vn 0.000000 -0.999981 -0.006106
vn 0.000000 -0.999981 -0.006106
vn 0.000000 -0.999981 -0.006106
vn -0.005286 -0.999981 -0.003053
vn -0.005286 -0.999981 -0.003053
vn -0.005286 -0.999981 -0.003053
vn -0.005286 -0.999981 0.003053
vn -0.005286 -0.999981 0.003053
vn -0.005286 -0.999981 0.003053
vn 0.000000 -0.999981 0.006106
vn 0.000000 -0.999981 0.006106
vn 0.000000 -0.999981 0.006106
vn 0.005286 -0.999981 0.003053
vn 0.005286 -0.999981 0.003053
vn 0.005286 -0.999981 0.003053
vn 0.005286 -0.999981 -0.003053
vn 0.005286 -0.999981 -0.003053
vn 0.005286 -0.999981 -0.003053
vn 0.000000 0.776042 -0.630681
vn 0.000000 0.776042 -0.630681
vn 0.000000 0.776042 -0.630681
vn -0.546185 0.776043 -0.315340
vn -0.546185 0.776043 -0.315340
vn -0.546185 0.776043 -0.315340
vn -0.546185 0.776044 0.315337
vn -0.546185 0.776044 0.315337
vn -0.546185 0.776044 0.315337
vn 0.000000 0.776045 0.630677
vn 0.000000 0.776045 0.630677
vn 0.000000 0.776045 0.630677
vn 0.546183 0.776045 0.315339
vn 0.546183 0.776045 0.315338
vn 0.546183 0.776045 0.315339
vn 0.546183 0.776044 -0.315342
vn 0.546183 0.776044 -0.315342
vn 0.546183 0.776044 -0.315342
vn -0.622614 -0.695082 0.359462
vn -0.622614 -0.695082 0.359462
vn -0.622614 -0.695082 0.359462
vn -0.622614 -0.695082 0.359462
vn -0.648300 -0.663032 -0.374292
vn -0.648300 -0.663032 -0.374292
vn -0.648300 -0.663032 -0.374292
vn -0.648300 -0.663032 -0.374292
vn 0.000000 -0.650413 -0.759581
vn 0.000000 -0.650413 -0.759581
vn 0.000000 -0.650413 -0.759581
vn 0.000000 -0.650413 -0.759581
vn 0.641166 -0.672219 -0.370172
vn 0.641166 -0.672219 -0.370172
vn 0.641166 -0.672219 -0.370172
vn 0.641166 -0.672219 -0.370172
vn 0.615723 -0.703219 0.355484
vn 0.615723 -0.703219 0.355484
vn 0.615723 -0.703219 0.355484
vn 0.615723 -0.703219 0.355484
vn 0.000000 -0.713565 0.700589
vn 0.000000 -0.713565 0.700589
vn 0.000000 -0.713565 0.700589
vn 0.000000 -0.713565 0.700589
vn -0.865262 -0.042083 0.499550
vn -0.865262 -0.042083 0.499550
vn -0.865262 -0.042083 0.499550
vn -0.865262 -0.042083 0.499550
vn -0.856917 -0.144663 -0.494739
vn -0.856917 -0.144663 -0.494739
vn -0.856917 -0.144663 -0.494739
vn -0.856917 -0.144663 -0.494739
vn 0.000000 -0.219683 -0.975571
vn 0.000000 -0.219683 -0.975571
vn 0.000000 -0.219683 -0.975571
vn 0.000000 -0.219683 -0.975571
vn 0.849193 -0.196192 -0.490285
vn 0.849193 -0.196192 -0.490285
vn 0.849193 -0.196192 -0.490285
vn 0.849193 -0.196192 -0.490285
vn 0.862063 -0.095561 0.497710
vn 0.862063 -0.095561 0.497710
vn 0.862063 -0.095561 0.497710
vn 0.862063 -0.095561 0.497710
vn 0.000000 -0.017011 0.999855
vn 0.000000 -0.017011 0.999855
vn 0.000000 -0.017011 0.999855
vn 0.000000 -0.017011 0.999855
vn -0.870600 -0.139518 0.471795
vn -0.870600 -0.139518 0.471795
vn -0.870600 -0.139518 0.471795
vn -0.870600 -0.139518 0.471795
vn -0.877183 -0.151695 -0.455563
vn -0.877183 -0.151695 -0.455563
vn -0.877183 -0.151695 -0.455563
vn -0.877183 -0.151695 -0.455563
vn 0.000000 -0.072825 -0.997345
vn 0.000000 -0.072825 -0.997345
vn 0.000000 -0.072825 -0.997345
vn 0.000000 -0.072825 -0.997345
vn 0.851463 -0.017546 -0.524121
vn 0.851463 -0.017546 -0.524121
vn 0.851463 -0.017546 -0.524121
vn 0.851463 -0.017546 -0.524121
vn 0.838291 -0.006803 0.545180
vn 0.838291 -0.006803 0.545180
vn 0.838291 -0.006803 0.545180
vn 0.838291 -0.006803 0.545180
vn 0.000000 -0.064216 0.997936
vn 0.000000 -0.064216 0.997936
vn 0.000000 -0.064216 0.997936
vn 0.000000 -0.064216 0.997936
vn -0.865768 -0.024396 0.499850
vn -0.865768 -0.024396 0.499851
vn -0.865768 -0.024396 0.499851
vn -0.865768 -0.024396 0.499850
vn -0.865710 0.027254 -0.499804
vn -0.865710 0.027254 -0.499804
vn -0.865710 0.027254 -0.499804
vn -0.865710 0.027254 -0.499804
vn 0.000000 0.005259 -0.999986
vn 0.000000 0.005259 -0.999986
vn 0.000000 0.005259 -0.999986
vn 0.000000 0.005259 -0.999986
vn 0.864007 -0.068258 -0.498832
vn 0.864007 -0.068258 -0.498832
vn 0.864007 -0.068258 -0.498832
vn 0.864007 -0.068258 -0.498832
vn 0.859843 -0.119229 0.496441
vn 0.859843 -0.119229 0.496442
vn 0.859843 -0.119229 0.496441
vn 0.859843 -0.119229 0.496442
vn 0.000000 -0.097611 0.995225
vn 0.000000 -0.097611 0.995225
vn 0.000000 -0.097611 0.995225
vn 0.000000 -0.097611 0.995225
vn 0.000000 -0.776042 -0.630682
vn 0.000000 -0.776042 -0.630682
vn 0.000000 -0.776042 -0.630682
vn 0.546183 -0.776044 -0.315342
vn 0.546183 -0.776043 -0.315342
vn 0.546183 -0.776043 -0.315342
vn 0.546184 -0.776044 0.315339
vn 0.546184 -0.776044 0.315339
vn 0.546184 -0.776044 0.315339
vn 0.000000 -0.776045 0.630678
vn 0.000000 -0.776045 0.630678
vn 0.000000 -0.776045 0.630678
vn -0.546186 -0.776044 0.315337
vn -0.546186 -0.776044 0.315337
vn -0.546186 -0.776044 0.315337
vn -0.546185 -0.776043 -0.315340
vn -0.546185 -0.776043 -0.315340
vn -0.546185 -0.776043 -0.315340
vn 0.625805 0.691248 0.361310
vn 0.625805 0.691248 0.361310
vn 0.625805 0.691248 0.361310
vn 0.625805 0.691248 0.361310
vn 0.651598 0.658706 -0.376200
vn 0.651598 0.658706 -0.376200
vn 0.651598 0.658706 -0.376200
vn 0.651598 0.658706 -0.376200
vn 0.000000 0.645897 -0.763424
vn 0.000000 0.645897 -0.763424
vn 0.000000 0.645897 -0.763424
vn 0.000000 0.645897 -0.763424
vn -0.644440 0.668030 -0.372067
vn -0.644440 0.668030 -0.372067
vn -0.644440 0.668030 -0.372067
vn -0.644440 0.668030 -0.372067
vn -0.618884 0.699506 0.357315
vn -0.618884 0.699506 0.357315
vn -0.618884 0.699506 0.357315
vn -0.618884 0.699506 0.357315
vn 0.000000 0.710013 0.704188
vn 0.000000 0.710014 0.704188
vn 0.000000 0.710014 0.704188
vn 0.000000 0.710014 0.704188
vn 0.865559 0.032805 0.499732
vn 0.865559 0.032805 0.499732
vn 0.865559 0.032805 0.499732
vn 0.865559 0.032805 0.499732
vn 0.860456 0.113198 -0.496792
vn 0.860456 0.113198 -0.496792
vn 0.860456 0.113198 -0.496792
vn 0.860456 0.113198 -0.496792
vn 0.000000 0.172837 -0.984950
vn 0.000000 0.172837 -0.984950
vn 0.000000 0.172837 -0.984950
vn 0.000000 0.172837 -0.984950
vn -0.855686 0.154056 -0.494033
vn -0.855686 0.154056 -0.494033
vn -0.855686 0.154056 -0.494033
vn -0.855686 0.154056 -0.494033
vn -0.863614 0.074601 0.498604
vn -0.863614 0.074601 0.498604
vn -0.863614 0.074601 0.498604
vn -0.863614 0.074601 0.498604
vn 0.000000 0.013257 0.999912
vn 0.000000 0.013257 0.999912
vn 0.000000 0.013257 0.999912
vn 0.000000 0.013257 0.999912
vn 0.854397 0.163329 0.493284
vn 0.854397 0.163329 0.493284
vn 0.854397 0.163329 0.493284
vn 0.854397 0.163329 0.493284
vn 0.840086 0.191873 -0.507386
vn 0.840086 0.191873 -0.507386
vn 0.840086 0.191873 -0.507386
vn 0.840086 0.191873 -0.507386
vn -0.005374 0.118434 -0.992947
vn -0.005374 0.118434 -0.992947
vn -0.005374 0.118434 -0.992947
vn -0.005374 0.118434 -0.992947
vn -0.866000 -0.007756 -0.499984
vn -0.866000 -0.007756 -0.499984
vn -0.866000 -0.007756 -0.499984
vn -0.866000 -0.007756 -0.499984
vn -0.865839 -0.015816 0.500073
vn -0.865839 -0.015816 0.500073
vn -0.865839 -0.015816 0.500073
vn -0.865839 -0.015816 0.500073
vn 0.023620 0.083368 0.996239
vn 0.023620 0.083368 0.996239
vn 0.023620 0.083368 0.996239
vn 0.023620 0.083368 0.996239
vn 0.864568 0.058006 0.499158
vn 0.864568 0.058006 0.499158
vn 0.864568 0.058006 0.499158
vn 0.864568 0.058006 0.499158
vn 0.866027 0.003391 -0.499987
vn 0.866027 0.003391 -0.499987
vn 0.866027 0.003391 -0.499987
vn 0.866026 0.003391 -0.499987
vn 0.000000 -0.005927 -0.999982
vn 0.000000 -0.005927 -0.999982
vn 0.000000 -0.005927 -0.999982
vn 0.000000 -0.005927 -0.999982
vn -0.865357 0.039445 -0.499600
vn -0.865357 0.039445 -0.499600
vn -0.865358 0.039445 -0.499600
vn -0.865357 0.039445 -0.499600
vn -0.862210 0.093774 0.497796
vn -0.862210 0.093774 0.497796
vn -0.862209 0.093774 0.497796
vn -0.862210 0.093774 0.497796
vn 0.000000 0.102954 0.994686
vn 0.000000 0.102954 0.994686
vn 0.000000 0.102954 0.994686
vn 0.000000 0.102954 0.994686
vn 0.818607 0.326373 0.472613
vn 0.818607 0.326373 0.472613
vn 0.818607 0.326373 0.472613
vn 0.818607 0.326373 0.472613
vn 0.822337 0.342203 -0.454598
vn 0.822337 0.342203 -0.454598
vn 0.822337 0.342203 -0.454598
vn 0.822337 0.342203 -0.454598
vn -0.047610 0.268141 -0.962203
vn -0.047610 0.268140 -0.962203
vn -0.047610 0.268141 -0.962203
vn -0.047610 0.268141 -0.962203
vn -0.842968 0.229240 -0.486677
vn -0.842968 0.229240 -0.486677
vn -0.842968 0.229240 -0.486677
vn -0.842968 0.229240 -0.486677
vn -0.867066 0.282206 0.410555
vn -0.867066 0.282206 0.410555
vn -0.867066 0.282206 0.410555
vn -0.867066 0.282206 0.410555
vn 0.079439 0.287804 0.954389
vn 0.079439 0.287804 0.954389
vn 0.079439 0.287804 0.954389
vn 0.079439 0.287804 0.954389
vn 0.000000 -0.186986 0.982363
vn 0.000000 -0.186986 0.982363
vn 0.000000 -0.186986 0.982363
vn 0.000000 -0.186986 0.982363
vn -0.836915 -0.251243 0.486261
vn -0.836915 -0.251243 0.486261
vn -0.836915 -0.251243 0.486261
vn -0.836915 -0.251243 0.486261
vn -0.853253 -0.249788 -0.457783
vn -0.853253 -0.249788 -0.457783
vn -0.853253 -0.249788 -0.457783
vn -0.853253 -0.249788 -0.457783
vn 0.000000 -0.233108 -0.972451
vn 0.000000 -0.233108 -0.972451
vn 0.000000 -0.233108 -0.972451
vn 0.000000 -0.233108 -0.972451
vn 0.811429 -0.187464 -0.553570
vn 0.811429 -0.187464 -0.553570
vn 0.811429 -0.187464 -0.553570
vn 0.811429 -0.187464 -0.553570
vn 0.787408 -0.181395 0.589139
vn 0.787408 -0.181395 0.589139
vn 0.787408 -0.181395 0.589139
vn 0.787408 -0.181395 0.589139
vn 0.000000 -0.430176 0.902745
vn 0.000000 -0.430176 0.902745
vn 0.000000 -0.430176 0.902745
vn 0.000000 -0.430176 0.902745
vn -0.797078 -0.391014 0.460190
vn -0.797078 -0.391014 0.460190
vn -0.797078 -0.391014 0.460190
vn -0.797078 -0.391014 0.460190
vn -0.818991 -0.325074 -0.472843
vn -0.818991 -0.325074 -0.472843
vn -0.818991 -0.325074 -0.472843
vn -0.818991 -0.325074 -0.472843
vn 0.000000 -0.299856 -0.953984
vn 0.000000 -0.299856 -0.953984
vn 0.000000 -0.299856 -0.953984
vn 0.000000 -0.299856 -0.953984
vn 0.813264 -0.343708 -0.469539
vn 0.813264 -0.343708 -0.469539
vn 0.813264 -0.343708 -0.469539
vn 0.813264 -0.343708 -0.469539
vn 0.790603 -0.408162 0.456454
vn 0.790603 -0.408162 0.456454
vn 0.790603 -0.408162 0.456454
vn 0.790603 -0.408162 0.456454
vn 0.821927 0.315033 0.474541
vn 0.821928 0.315033 0.474541
vn 0.821927 0.315033 0.474541
vn 0.821928 0.315033 0.474541
vn 0.840002 0.243300 -0.484977
vn 0.840002 0.243300 -0.484976
vn 0.840002 0.243300 -0.484976
vn 0.840002 0.243300 -0.484976
vn 0.000000 0.216170 -0.976356
vn 0.000000 0.216170 -0.976356
vn 0.000000 0.216170 -0.976356
vn 0.000000 0.216170 -0.976356
vn -0.835429 0.263463 -0.482334
vn -0.835429 0.263463 -0.482334
vn -0.835429 0.263463 -0.482334
vn -0.835429 0.263463 -0.482334
vn -0.816329 0.333883 0.471307
vn -0.816329 0.333883 0.471307
vn -0.816329 0.333883 0.471307
vn -0.816329 0.333883 0.471307
vn 0.000000 0.358174 0.933655
vn 0.000000 0.358174 0.933655
vn 0.000000 0.358174 0.933655
vn 0.000000 0.358174 0.933655
s off
f 2/2/1 1/1/2 13/20/3
f 3/3/4 2/2/5 13/20/6
f 4/4/7 3/3/8 13/20/9
f 5/5/10 4/4/11 13/20/12
f 6/6/13 5/5/14 13/20/15
f 1/1/16 6/6/17 13/20/18
f 7/18/19 8/17/20 14/21/21
f 8/17/22 9/16/23 14/21/24
f 9/16/25 10/15/26 14/21/27
f 10/15/28 11/14/29 14/21/30
f 11/14/31 12/19/32 14/21/33
f 12/19/34 7/18/35 14/21/36
f 16/23/37 15/22/38 77/107/39 78/108/40
f 17/24/41 16/23/42 78/108/43 79/109/44
f 18/26/45 17/24/46 79/109/47 80/111/48
f 19/27/49 18/25/50 80/110/51 81/112/52
f 20/28/53 19/27/54 81/112/55 76/106/56
f 15/22/57 20/28/58 76/106/59 77/107/60
f 22/30/61 21/29/62 15/22/63 16/23/64
f 23/31/65 22/30/66 16/23/67 17/24/68
f 24/33/69 23/31/70 17/24/71 18/26/72
f 25/34/73 24/32/74 18/25/75 19/27/76
f 26/35/77 25/34/78 19/27/79 20/28/80
f 21/29/81 26/35/82 20/28/83 15/22/84
f 28/37/85 27/36/86 21/29/87 22/30/88
f 29/38/89 28/37/90 22/30/91 23/31/92
f 30/40/93 29/38/94 23/31/95 24/33/96
f 31/41/97 30/39/98 24/32/99 25/34/100
f 32/42/101 31/41/102 25/34/103 26/35/104
f 27/36/105 32/42/106 26/35/107 21/29/108
f 34/44/109 33/43/110 71/100/111 72/101/112
f 35/45/113 34/44/114 72/101/115 73/102/116
f 36/47/117 35/45/118 73/102/119 74/104/120
f 37/48/121 36/46/122 74/103/123 75/105/124
f 38/49/125 37/48/126 75/105/127 70/99/128
f 33/43/129 38/49/130 70/99/131 71/100/132
f 39/50/133 40/51/134 45/52/135
f 40/51/136 41/53/137 45/52/138
f 41/53/139 42/54/140 45/52/141
f 42/54/142 43/55/143 45/52/144
f 43/55/145 44/56/146 45/52/147
f 44/56/148 39/50/149 45/52/150
f 47/57/151 46/58/152 82/113/153 83/114/154
f 48/61/155 47/57/156 83/114/157 84/115/158
f 49/63/159 48/61/160 84/115/161 85/117/162
f 50/65/163 49/66/164 85/116/165 86/118/166
f 51/69/167 50/65/168 86/118/169 87/119/170
f 46/58/171 51/69/172 87/119/173 82/113/174
f 53/71/175 52/72/176 46/58/177 47/57/178
f 54/73/179 53/71/180 47/57/181 48/61/182
f 55/74/183 54/73/184 48/61/185 49/63/186
f 56/75/187 55/76/188 49/66/189 50/65/190
f 57/77/191 56/75/192 50/65/193 51/69/194
f 52/72/195 57/77/196 51/69/197 46/58/198
f 59/78/199 58/79/200 52/72/201 53/71/202
f 60/80/203 59/78/204 53/71/205 54/73/206
f 61/81/207 60/80/208 54/73/209 55/74/210
f 62/82/211 61/83/212 55/76/213 56/75/214
f 63/84/215 62/82/216 56/75/217 57/77/218
f 58/79/219 63/84/220 57/77/221 52/72/222
f 37/85/223 38/86/224 64/92/225 65/93/226
f 36/87/227 37/85/228 65/93/229 66/94/230
f 35/88/231 36/87/232 66/94/233 67/96/234
f 34/89/235 35/90/236 67/95/237 68/97/238
f 33/91/239 34/89/240 68/97/241 69/98/242
f 38/86/243 33/91/244 69/98/245 64/92/246
f 65/93/247 64/92/248 58/79/249 59/78/250
f 66/94/251 65/93/252 59/78/253 60/80/254
f 67/96/255 66/94/256 60/80/257 61/81/258
f 68/97/259 67/95/260 61/83/261 62/82/262
f 69/98/263 68/97/264 62/82/265 63/84/266
f 64/92/267 69/98/268 63/84/269 58/79/270
f 71/100/271 70/99/272 32/42/273 27/36/274
f 72/101/275 71/100/276 27/36/277 28/37/278
f 73/102/279 72/101/280 28/37/281 29/38/282
f 74/104/283 73/102/284 29/38/285 30/40/286
f 75/105/287 74/103/288 30/39/289 31/41/290
f 70/99/291 75/105/292 31/41/293 32/42/294
f 77/107/295 76/106/296 11/11/297 10/10/298
f 78/108/299 77/107/300 10/10/301 9/9/302
f 79/109/303 78/108/304 9/9/305 8/8/306
f 80/111/307 79/109/308 8/8/309 7/7/310
f 81/112/311 80/110/312 7/13/313 12/12/314
f 76/106/315 81/112/316 12/12/317 11/11/318
f 83/114/319 82/113/320 42/59/321 41/60/322
f 84/115/323 83/114/324 41/60/325 40/62/326
f 85/117/327 84/115/328 40/62/329 39/64/330
f 86/118/331 85/116/332 39/67/333 44/68/334
f 87/119/335 86/118/336 44/68/337 43/70/338
f 82/113/339 87/119/340 43/70/341 42/59/342
