# This file uses centimeters as units for non-parametric coordinates.

v 0.277884 0.628753 -0.334908
v -0.000277 -0.151795 -0.437599
v -0.274385 -0.753917 -0.336555
v -0.438421 -0.151709 0.000549
v -0.337030 0.493044 0.282417
v -0.000277 -0.151678 0.438713
v 0.365454 -1.029912 0.293770
v 0.437868 -0.151762 0.000549
v 0.381138 2.097896 -0.380859
v -0.000277 2.397556 -0.538849
v -0.381695 1.898490 -0.380859
v -0.539682 2.097896 0.000549
v -0.381695 1.706925 0.381973
v -0.000277 2.097896 0.539963
v 0.381138 2.735624 0.381973
v 0.539125 2.397556 0.000549
v 0.249712 2.097896 -0.249443
v -0.000277 2.397556 -0.352989
v -0.250269 1.898490 -0.249443
v -0.353817 2.097896 0.000549
v -0.250269 1.706925 0.250542
v -0.000277 2.097896 0.354088
v 0.249712 2.735624 0.250542
v 0.353260 2.397556 0.000549
v 0.151009 1.608884 -0.150734
v -0.000277 1.608884 -0.213394
v -0.000277 0.968239 0.000549
v -0.151566 1.608884 -0.150734
v -0.214230 1.608884 0.000549
v -0.151566 1.608884 0.151848
v -0.000277 1.608884 0.214508
v 0.151009 1.608884 0.151848
v 0.213673 1.608884 0.000549
v 0.381630 -2.434484 0.380859
v 0.000280 -2.734304 0.538704
v -0.381245 -2.235245 0.380959
v -0.539190 -2.434499 -0.000549
v -0.381285 -2.043308 -0.381775
v 0.000216 -2.434119 -0.539963
v 0.381773 -2.061444 -0.382278
v 0.539682 -2.088157 -0.000694
v 0.250204 -2.434449 0.249443
v 0.000280 -2.734213 0.352844
v -0.249819 -2.235152 0.249542
v -0.353321 -2.434459 -0.000549
v -0.249859 -2.043344 -0.250359
v 0.000216 -2.434209 -0.354088
v 0.250343 -2.061536 -0.250862
v 0.353817 -2.088198 -0.000694
v 0.151396 -1.945410 0.150978
v 0.000107 -1.945474 0.213638
v 0.000107 -1.327374 -0.000305
v -0.151178 -1.945476 0.150978
v -0.213842 -1.945416 -0.000305
v -0.151178 -1.945329 -0.151604
v 0.000107 -1.945265 -0.214264
v 0.151396 -1.945263 -0.151604
v 0.214060 -1.945323 -0.000305
v -0.000277 2.234446 0.447037
v -0.315981 1.843475 0.316254
v -0.446749 2.234446 0.000549
v -0.315981 2.035040 -0.315155
v -0.000277 2.534105 -0.445923
v 0.315424 2.234446 -0.315155
v 0.446192 2.534105 0.000549
v 0.315424 2.872174 0.316254
v 0.000280 -2.872174 0.445770
v 0.315916 -2.572381 0.315155
v 0.446749 -2.226092 -0.000694
v 0.316061 -2.199405 -0.316559
v 0.000216 -2.572079 -0.447037
v -0.315573 -2.181241 -0.316071
v -0.446257 -2.572394 -0.000549
v -0.315531 -2.373113 0.315247
vt 0.005432 0.326708
vt 0.005432 0.326708
vt 0.005432 0.326708
vt 0.005432 0.326708
vt 0.005432 0.326708
vt 0.005432 0.326708
vt 0.005432 0.326708
vt 0.005432 0.326708
vt 0.005432 0.326708
vt 0.005432 0.326708
vt 0.005432 0.326708
vt 0.005432 0.326708
vt 0.005432 0.326708
vt 0.005432 0.326708
vt 0.005432 0.326708
vt 0.005432 0.326708
vt 0.005432 0.326708
vt 0.005432 0.326708
vt 0.005432 0.326708
vt 0.005432 0.326708
vt 0.005432 0.326708
vt 0.005432 0.326708
vt 0.005432 0.326708
vt 0.005432 0.326708
vt 0.005432 0.326708
vt 0.005432 0.326708
vt 0.006727 0.279449
vt 0.006727 0.279449
vt 0.006727 0.279449
vt 0.006727 0.279449
vt 0.006727 0.279449
vt 0.006727 0.279449
vt 0.006727 0.279449
vt 0.006727 0.279449
vt 0.006727 0.279449
vt 0.006727 0.279449
vt 0.006727 0.279449
vt 0.006727 0.279449
vt 0.006727 0.279449
vt 0.006727 0.279449
vt 0.006727 0.279449
vt 0.006727 0.279449
vt 0.006727 0.279449
vt 0.006727 0.279449
vt 0.006727 0.279449
vt 0.006727 0.279449
vt 0.006727 0.279449
vt 0.006727 0.279449
vt 0.006727 0.279449
vt 0.006727 0.279449
vt 0.006727 0.279449
vt 0.006727 0.279449
vt 0.006727 0.279449
vt 0.006727 0.279449
vt 0.006727 0.279449
vt 0.006727 0.279449
vt 0.006727 0.279449
vt 0.006727 0.279449
vt 0.006727 0.279449
vt 0.005432 0.326708
vt 0.006727 0.279449
vt 0.006727 0.279449
vt 0.006727 0.279449
vt 0.006727 0.279449
vt 0.005432 0.326708
vt 0.006727 0.279449
vt 0.006727 0.279449
vt 0.006727 0.279449
vt 0.006727 0.279449
vt 0.005432 0.326708
vt 0.006727 0.279449
vt 0.006727 0.279449
vt 0.006727 0.279449
vt 0.006727 0.279449
vt 0.005432 0.326708
vt 0.006727 0.279449
vt 0.006727 0.279449
vt 0.006727 0.279449
vt 0.006727 0.279449
vt 0.005432 0.326708
vt 0.006727 0.279449
vt 0.006727 0.279449
vt 0.006727 0.279449
vt 0.006727 0.279449
vt 0.005432 0.326708
vt 0.006727 0.279449
vt 0.005432 0.326708
vt 0.006727 0.279449
vt 0.005432 0.326708
vt 0.006727 0.279449
vt 0.005432 0.326708
vt 0.005432 0.326708
vt 0.005432 0.326708
vt 0.005432 0.326708
vt 0.005432 0.326708
vt 0.005432 0.326708
vt 0.005432 0.326708
vt 0.005432 0.326708
vt 0.005432 0.326708
vt 0.005432 0.326708
vt 0.005432 0.326708
vt 0.005432 0.326708
vt 0.005432 0.326708
vt 0.005432 0.326708
vt 0.005432 0.326708
vt 0.005432 0.326708
vt 0.005432 0.326708
vt 0.005432 0.326708
vt 0.006727 0.279449
vt 0.006727 0.279449
vt 0.006727 0.279449
vt 0.006727 0.279449
vt 0.006727 0.279449
vt 0.006727 0.279449
vt 0.006727 0.279449
vt 0.006727 0.279449
vt 0.006727 0.279449
vt 0.006727 0.279449
vt 0.006727 0.279449
vt 0.006727 0.279449
vt 0.006727 0.279449
vt 0.006727 0.279449
vt 0.006727 0.279449
vt 0.006727 0.279449
vt 0.006727 0.279449
vt 0.006727 0.279449
vt 0.006727 0.279449
vt 0.006727 0.279449
vt 0.006727 0.279449
vt 0.006727 0.279449
vt 0.006727 0.279449
vt 0.006727 0.279449
vt 0.005432 0.326708
vt 0.005432 0.326708
vt 0.005432 0.326708
vt 0.005432 0.326708
vt 0.005432 0.326708
vt 0.005432 0.326708
vt 0.005432 0.326708
vt 0.005432 0.326708
vt 0.005432 0.326708
vt 0.005432 0.326708
vt 0.005432 0.326708
vt 0.005432 0.326708
vt 0.005432 0.326708
vt 0.005432 0.326708
vt 0.005432 0.326708
vt 0.005432 0.326708
vt 0.006727 0.279449
vt 0.006727 0.279449
vt 0.006727 0.279449
vt 0.006727 0.279449
vt 0.006727 0.279449
vt 0.006727 0.279449
vt 0.006727 0.279449
vt 0.006727 0.279449
vt 0.006727 0.279449
vt 0.006727 0.279449
vt 0.006727 0.279449
vt 0.006727 0.279449
vt 0.006727 0.279449
vt 0.006727 0.279449
vt 0.006727 0.279449
vt 0.006727 0.279449
vt 0.006727 0.279449
vt 0.006727 0.279449
vt 0.006727 0.279449
vt 0.006727 0.279449
vt 0.006727 0.279449
vt 0.006727 0.279449
vt 0.006727 0.279449
vt 0.006727 0.279449
vt 0.006727 0.279449
vt 0.006727 0.279449
vt 0.006727 0.279449
vt 0.006727 0.279449
vt 0.006727 0.279449
vt 0.006727 0.279449
vt 0.006727 0.279449
vt 0.006727 0.279449
vt 0.005432 0.326708
vt 0.005432 0.326708
vt 0.005432 0.326708
vt 0.005432 0.326708
vt 0.005432 0.326708
vt 0.005432 0.326708
vt 0.005432 0.326708
vt 0.005432 0.326708
vt 0.005432 0.326708
vt 0.005432 0.326708
vt 0.005432 0.326708
vt 0.005432 0.326708
vt 0.005432 0.326708
vt 0.005432 0.326708
vt 0.005432 0.326708
vt 0.005432 0.326708
vn 0.394641 -0.043760 -0.917793
vn 0.394641 -0.043760 -0.917793
vn 0.394641 -0.043760 -0.917793
vn 0.394641 -0.043760 -0.917793
vn -0.318742 -0.033081 -0.947264
vn -0.318742 -0.033081 -0.947264
vn -0.318742 -0.033081 -0.947264
vn -0.318742 -0.033081 -0.947264
vn -0.928674 -0.042843 -0.368415
vn -0.928674 -0.042843 -0.368415
vn -0.928674 -0.042843 -0.368415
vn -0.928674 -0.042843 -0.368415
vn -0.923551 -0.049841 0.380222
vn -0.923551 -0.049841 0.380222
vn -0.923551 -0.049841 0.380222
vn -0.923551 -0.049841 0.380222
vn -0.417353 -0.057962 0.906894
vn -0.417353 -0.057962 0.906894
vn -0.417353 -0.057962 0.906894
vn -0.417353 -0.057962 0.906894
vn 0.367197 -0.030238 0.929651
vn 0.367197 -0.030238 0.929651
vn 0.367197 -0.030238 0.929651
vn 0.367197 -0.030238 0.929651
vn 0.951342 -0.021910 0.307358
vn 0.951342 -0.021910 0.307358
vn 0.951342 -0.021910 0.307358
vn 0.951342 -0.021910 0.307358
vn 0.899873 -0.050751 -0.433189
vn 0.899873 -0.050751 -0.433189
vn 0.899873 -0.050751 -0.433189
vn 0.899873 -0.050751 -0.433189
vn -0.365653 0.294819 0.882824
vn -0.365653 0.294819 0.882824
vn -0.365653 0.294819 0.882824
vn 0.365645 0.294820 0.882827
vn 0.365646 0.294821 0.882827
vn 0.365646 0.294821 0.882827
vn 0.882812 0.294829 0.365675
vn 0.882812 0.294829 0.365675
vn 0.882812 0.294829 0.365675
vn 0.882824 0.294833 -0.365644
vn 0.882824 0.294833 -0.365644
vn 0.882824 0.294833 -0.365644
vn 0.365643 0.294840 -0.882822
vn 0.365643 0.294840 -0.882822
vn 0.365643 0.294840 -0.882822
vn -0.365651 0.294839 -0.882819
vn -0.365651 0.294839 -0.882819
vn -0.365651 0.294839 -0.882819
vn -0.882826 0.294828 -0.365644
vn -0.882826 0.294828 -0.365644
vn -0.882826 0.294828 -0.365644
vn -0.882814 0.294824 0.365676
vn -0.882814 0.294824 0.365676
vn -0.882814 0.294824 0.365676
vn 0.658157 0.490257 -0.571382
vn 0.658157 0.490257 -0.571382
vn 0.658157 0.490257 -0.571382
vn 0.658157 0.490257 -0.571382
vn -0.796778 0.435217 -0.419203
vn -0.796778 0.435217 -0.419203
vn -0.796778 0.435217 -0.419203
vn -0.796778 0.435217 -0.419203
vn -0.649258 0.512391 -0.562067
vn -0.649258 0.512391 -0.562067
vn -0.649258 0.512391 -0.562067
vn -0.649258 0.512391 -0.562067
vn -0.499990 0.466100 0.729905
vn -0.499990 0.466100 0.729905
vn -0.499990 0.466100 0.729905
vn -0.499990 0.466100 0.729905
vn -0.729910 0.466086 0.499995
vn -0.729910 0.466086 0.499995
vn -0.729910 0.466086 0.499995
vn -0.729910 0.466086 0.499995
vn -0.377109 0.395703 0.837382
vn -0.377109 0.395702 0.837382
vn -0.377108 0.395702 0.837382
vn -0.377109 0.395702 0.837382
vn 0.870678 0.480442 -0.105335
vn 0.870678 0.480442 -0.105335
vn 0.870678 0.480442 -0.105335
vn 0.870678 0.480442 -0.105335
vn 0.571373 0.490264 -0.658160
vn 0.571373 0.490265 -0.658160
vn 0.571373 0.490264 -0.658160
vn 0.571373 0.490265 -0.658160
vn -0.246679 0.196067 0.949056
vn -0.246679 0.196067 0.949056
vn -0.246679 0.196067 0.949056
vn -0.246679 0.196067 0.949056
vn 0.120947 0.224756 0.966880
vn 0.120947 0.224756 0.966880
vn 0.120947 0.224756 0.966880
vn 0.120947 0.224756 0.966880
vn 0.922695 0.311229 0.227530
vn 0.922695 0.311229 0.227530
vn 0.922695 0.311229 0.227530
vn 0.922695 0.311229 0.227530
vn 0.925599 0.378213 -0.014891
vn 0.925599 0.378213 -0.014891
vn 0.925599 0.378213 -0.014891
vn 0.925599 0.378213 -0.014891
vn 0.014903 0.378192 -0.925608
vn 0.014903 0.378192 -0.925607
vn 0.014903 0.378192 -0.925608
vn 0.014903 0.378192 -0.925607
vn -0.576475 0.153568 -0.802555
vn -0.576475 0.153568 -0.802555
vn -0.576475 0.153568 -0.802555
vn -0.576475 0.153568 -0.802555
vn -0.871188 0.132737 -0.472665
vn -0.871188 0.132737 -0.472665
vn -0.871188 0.132737 -0.472665
vn -0.871188 0.132737 -0.472665
vn -0.949053 0.196059 0.246696
vn -0.949053 0.196059 0.246696
vn -0.949053 0.196059 0.246696
vn -0.949053 0.196059 0.246696
vn 0.404680 0.044554 0.913372
vn 0.404680 0.044554 0.913372
vn 0.404680 0.044554 0.913372
vn 0.404680 0.044554 0.913372
vn -0.349070 0.037871 0.936331
vn -0.349070 0.037871 0.936331
vn -0.349070 0.037871 0.936331
vn -0.349070 0.037871 0.936331
vn -0.944619 0.033678 0.326436
vn -0.944619 0.033678 0.326436
vn -0.944619 0.033678 0.326436
vn -0.944619 0.033678 0.326436
vn -0.904526 0.058062 -0.422447
vn -0.904526 0.058062 -0.422447
vn -0.904526 0.058062 -0.422447
vn -0.904526 0.058062 -0.422447
vn -0.381010 0.049499 -0.923245
vn -0.381010 0.049499 -0.923245
vn -0.381010 0.049499 -0.923245
vn -0.381010 0.049499 -0.923245
vn 0.313126 0.035152 -0.949061
vn 0.313127 0.035152 -0.949061
vn 0.313127 0.035152 -0.949061
vn 0.313126 0.035152 -0.949061
vn 0.931115 0.045201 -0.361915
vn 0.931115 0.045201 -0.361915
vn 0.931115 0.045201 -0.361915
vn 0.931115 0.045201 -0.361915
vn 0.919343 0.042518 0.391154
vn 0.919342 0.042518 0.391154
vn 0.919343 0.042518 0.391154
vn 0.919343 0.042518 0.391154
vn -0.364359 -0.304607 -0.880032
vn -0.364359 -0.304607 -0.880032
vn -0.364359 -0.304607 -0.880032
vn 0.364483 -0.304591 -0.879987
vn 0.364483 -0.304591 -0.879987
vn 0.364483 -0.304591 -0.879987
vn 0.879931 -0.304608 -0.364603
vn 0.879931 -0.304608 -0.364603
vn 0.879931 -0.304608 -0.364603
vn 0.880038 -0.304645 0.364314
vn 0.880038 -0.304645 0.364314
vn 0.880038 -0.304645 0.364314
vn 0.364576 -0.304690 0.879914
vn 0.364576 -0.304690 0.879914
vn 0.364576 -0.304690 0.879914
vn -0.364453 -0.304706 0.879959
vn -0.364453 -0.304706 0.879959
vn -0.364453 -0.304706 0.879959
vn -0.880007 -0.304686 0.364356
vn -0.880007 -0.304686 0.364356
vn -0.880007 -0.304686 0.364356
vn -0.879900 -0.304649 -0.364644
vn -0.879900 -0.304649 -0.364644
vn -0.879900 -0.304649 -0.364644
vn 0.657215 -0.487352 0.574941
vn 0.657215 -0.487352 0.574941
vn 0.657215 -0.487352 0.574941
vn 0.657215 -0.487352 0.574940
vn -0.795414 -0.433344 0.423709
vn -0.795414 -0.433344 0.423709
vn -0.795414 -0.433344 0.423709
vn -0.795414 -0.433344 0.423709
vn -0.652583 -0.509153 0.561158
vn -0.652583 -0.509153 0.561158
vn -0.652583 -0.509153 0.561158
vn -0.652583 -0.509153 0.561158
vn -0.503781 -0.463413 -0.729008
vn -0.503781 -0.463413 -0.729008
vn -0.503781 -0.463413 -0.729008
vn -0.503781 -0.463413 -0.729008
vn -0.728649 -0.463475 -0.504243
vn -0.728649 -0.463475 -0.504243
vn -0.728649 -0.463475 -0.504243
vn -0.728649 -0.463475 -0.504243
vn 0.715105 -0.468557 -0.518728
vn 0.715105 -0.468557 -0.518728
vn 0.715105 -0.468557 -0.518728
vn 0.715105 -0.468557 -0.518728
vn 0.769643 -0.528052 -0.358902
vn 0.769643 -0.528052 -0.358902
vn 0.769643 -0.528052 -0.358902
vn 0.769643 -0.528052 -0.358902
vn 0.872688 -0.475545 -0.110788
vn 0.872687 -0.475545 -0.110788
vn 0.872687 -0.475545 -0.110788
vn 0.872688 -0.475545 -0.110788
vn -0.246641 -0.195651 -0.949152
vn -0.246641 -0.195651 -0.949152
vn -0.246641 -0.195651 -0.949152
vn -0.246641 -0.195651 -0.949152
vn 0.121004 -0.224251 -0.966990
vn 0.121004 -0.224251 -0.966990
vn 0.121004 -0.224251 -0.966990
vn 0.121004 -0.224251 -0.966990
vn 0.922765 -0.310913 -0.227678
vn 0.922766 -0.310913 -0.227678
vn 0.922765 -0.310913 -0.227678
vn 0.922766 -0.310913 -0.227678
vn 0.925683 -0.378014 0.014710
vn 0.925683 -0.378014 0.014710
vn 0.925683 -0.378014 0.014710
vn 0.925683 -0.378014 0.014710
vn 0.014945 -0.378659 0.925415
vn 0.014945 -0.378660 0.925415
vn 0.014945 -0.378659 0.925415
vn 0.014945 -0.378660 0.925415
vn -0.037432 -0.372443 0.927300
vn -0.037432 -0.372443 0.927300
vn -0.037432 -0.372443 0.927300
vn -0.037432 -0.372443 0.927300
vn -0.670019 -0.705717 0.230301
vn -0.670019 -0.705717 0.230301
vn -0.670019 -0.705717 0.230301
vn -0.670019 -0.705717 0.230301
vn -0.708856 -0.361607 -0.605611
vn -0.708856 -0.361607 -0.605611
vn -0.708856 -0.361607 -0.605611
vn -0.708856 -0.361607 -0.605611
vn -0.251491 0.440244 -0.861938
vn -0.251491 0.440244 -0.861938
vn -0.251491 0.440244 -0.861938
vn -0.251491 0.440244 -0.861938
vn 0.861964 0.440212 0.251458
vn 0.861964 0.440212 0.251458
vn 0.861964 0.440212 0.251458
vn 0.861964 0.440212 0.251458
vn 0.864326 0.502920 0.003456
vn 0.864326 0.502920 0.003456
vn 0.864326 0.502920 0.003456
vn 0.864326 0.502920 0.003456
vn -0.360803 0.402040 0.841537
vn -0.360803 0.402040 0.841537
vn -0.360803 0.402040 0.841537
vn -0.360803 0.402040 0.841537
vn 0.139581 0.472063 0.870444
vn 0.139581 0.472063 0.870444
vn 0.139581 0.472063 0.870444
vn 0.139581 0.472063 0.870444
vn -0.870447 0.472061 -0.139572
vn -0.870447 0.472061 -0.139572
vn -0.870447 0.472061 -0.139572
vn -0.870447 0.472061 -0.139572
vn -0.480359 0.458889 -0.747446
vn -0.480359 0.458889 -0.747446
vn -0.480359 0.458889 -0.747446
vn -0.480359 0.458889 -0.747446
vn -0.903048 0.356496 -0.239615
vn -0.903048 0.356496 -0.239615
vn -0.903048 0.356496 -0.239615
vn -0.903048 0.356496 -0.239615
vn 0.136384 -0.469200 -0.872497
vn 0.136384 -0.469200 -0.872497
vn 0.136384 -0.469200 -0.872497
vn 0.136384 -0.469200 -0.872497
vn -0.477027 -0.453693 -0.752734
vn -0.477027 -0.453693 -0.752734
vn -0.477027 -0.453693 -0.752734
vn -0.477027 -0.453693 -0.752734
vn -0.801162 -0.528020 0.281665
vn -0.801162 -0.528020 0.281665
vn -0.801162 -0.528020 0.281665
vn -0.801162 -0.528020 0.281665
vn 0.227381 -0.444355 0.866514
vn 0.227381 -0.444355 0.866514
vn 0.227381 -0.444355 0.866514
vn 0.227381 -0.444355 0.866514
vn -0.247091 -0.438324 0.864186
vn -0.247091 -0.438324 0.864186
vn -0.247091 -0.438324 0.864186
vn -0.247091 -0.438324 0.864186
vn 0.864116 -0.437914 -0.248062
vn 0.864116 -0.437914 -0.248062
vn 0.864116 -0.437914 -0.248062
vn 0.864116 -0.437914 -0.248062
vn 0.866199 -0.499656 -0.006593
vn 0.866199 -0.499656 -0.006593
vn 0.866199 -0.499656 -0.006593
vn 0.866199 -0.499656 -0.006593
vn -0.357092 -0.400183 -0.844002
vn -0.357092 -0.400183 -0.844002
vn -0.357092 -0.400183 -0.844002
vn -0.357092 -0.400183 -0.844002
s off
f 1/1/1 2/2/2 10/11/3 9/10/4
f 2/2/5 3/3/6 11/12/7 10/11/8
f 3/3/9 4/4/10 12/13/11 11/12/12
f 4/4/13 5/5/14 13/14/15 12/13/16
f 5/5/17 6/6/18 14/15/19 13/14/20
f 6/6/21 7/7/22 15/16/23 14/15/24
f 7/7/25 8/8/26 16/17/27 15/16/28
f 8/8/29 1/9/30 9/18/31 16/17/32
f 25/47/33 26/83/34 27/55/35
f 26/84/36 28/78/37 27/54/38
f 28/79/39 29/73/40 27/53/41
f 29/74/42 30/68/43 27/52/44
f 30/69/45 31/63/46 27/51/47
f 31/64/48 32/58/49 27/50/50
f 32/59/51 33/45/52 27/27/53
f 33/46/54 25/36/55 27/56/56
f 9/25/57 10/24/58 63/185/59 64/186/60
f 10/24/61 11/23/62 62/184/63 63/185/64
f 11/23/65 12/22/66 61/183/67 62/184/68
f 12/22/69 13/21/70 60/182/71 61/183/72
f 13/21/73 14/20/74 59/181/75 60/182/76
f 14/20/77 15/19/78 66/188/79 59/181/80
f 15/19/81 16/26/82 65/187/83 66/188/84
f 16/26/85 9/25/86 64/186/87 65/187/88
f 17/28/89 18/88/90 26/82/91 25/48/92
f 18/29/93 19/86/94 28/77/95 26/37/96
f 19/30/97 20/81/98 29/72/99 28/38/100
f 20/31/101 21/76/102 30/67/103 29/39/104
f 21/32/105 22/71/106 31/62/107 30/40/108
f 22/33/109 23/66/110 32/57/111 31/41/112
f 23/34/113 24/61/114 33/44/115 32/42/116
f 24/35/117 17/90/118 25/49/119 33/43/120
f 7/91/121 6/92/122 35/93/123 34/94/124
f 6/92/125 5/95/126 36/96/127 35/93/128
f 5/95/129 4/97/130 37/98/131 36/96/132
f 4/97/133 3/99/134 38/100/135 37/98/136
f 3/99/137 2/101/138 39/102/139 38/100/140
f 2/101/141 1/103/142 40/104/143 39/102/144
f 1/103/145 8/105/146 41/106/147 40/104/148
f 8/105/149 7/107/150 34/108/151 41/106/152
f 50/109/153 51/110/154 52/111/155
f 51/112/156 53/113/157 52/114/158
f 53/115/159 54/116/160 52/117/161
f 54/118/162 55/119/163 52/120/164
f 55/121/165 56/122/166 52/123/167
f 56/124/168 57/125/169 52/126/170
f 57/127/171 58/128/172 52/129/173
f 58/130/174 50/131/175 52/132/176
f 34/133/177 35/134/178 67/189/179 68/190/180
f 35/134/181 36/137/182 74/196/183 67/189/184
f 36/137/185 37/139/186 73/195/187 74/196/188
f 37/139/189 38/141/190 72/194/191 73/195/192
f 38/141/193 39/143/194 71/193/195 72/194/196
f 39/143/197 40/145/198 70/192/199 71/193/200
f 40/145/201 41/147/202 69/191/203 70/192/204
f 41/147/205 34/133/206 68/190/207 69/191/208
f 42/149/209 43/150/210 51/151/211 50/152/212
f 43/153/213 44/154/214 53/155/215 51/156/216
f 44/157/217 45/158/218 54/159/219 53/160/220
f 45/161/221 46/162/222 55/163/223 54/164/224
f 46/165/225 47/166/226 56/167/227 55/168/228
f 47/169/229 48/170/230 57/171/231 56/172/232
f 48/173/233 49/174/234 58/175/235 57/176/236
f 49/177/237 42/178/238 50/179/239 58/180/240
f 60/182/241 59/181/242 22/70/243 21/75/244
f 61/183/245 60/182/246 21/75/247 20/80/248
f 62/184/249 61/183/250 20/80/251 19/85/252
f 63/185/253 62/184/254 19/85/255 18/87/256
f 64/186/257 63/185/258 18/87/259 17/89/260
f 65/187/261 64/186/262 17/89/263 24/60/264
f 66/188/265 65/187/266 24/60/267 23/65/268
f 59/181/269 66/188/270 23/65/271 22/70/272
f 68/190/273 67/189/274 43/135/275 42/136/276
f 69/191/277 68/190/278 42/136/279 49/148/280
f 70/192/281 69/191/282 49/148/283 48/146/284
f 71/193/285 70/192/286 48/146/287 47/144/288
f 72/194/289 71/193/290 47/144/291 46/142/292
f 73/195/293 72/194/294 46/142/295 45/140/296
f 74/196/297 73/195/298 45/140/299 44/138/300
f 67/189/301 74/196/302 44/138/303 43/135/304
