# This file uses centimeters as units for non-parametric coordinates.

v -3.197769 0.000000 3.118451
v -0.502617 0.000000 4.067286
v 2.982292 0.000000 2.925551
v -1.473953 0.327268 1.543197
v 3.963005 0.000000 0.691243
v -1.186661 0.000000 -4.117282
v 0.365028 0.089449 -1.078000
v 0.804153 0.013060 -1.426814
v 0.723511 0.231797 0.017428
v 3.972794 0.000000 -1.655553
v -4.311157 0.000000 -0.022784
v 2.110939 0.351541 1.168998
v -2.083549 0.000000 3.822562
v 0.882996 0.000000 -3.896220
v -2.520523 0.000000 -3.968020
v -3.200752 0.000000 -3.650489
v -1.257324 0.004133 -3.930121
v -3.814888 0.000000 -2.521010
v -1.320442 0.438849 -2.587583
v -1.514816 0.385732 -2.167312
v -1.704178 -0.014727 -0.802320
v -2.223351 0.104264 -0.807521
v -0.768311 0.087663 -0.074748
v -2.239067 0.184226 -1.409320
v -2.551224 0.178521 -0.022996
v 2.924828 0.141187 0.063338
v -4.051308 0.000000 1.895368
v -0.856369 0.251605 0.772428
v 1.100662 0.042959 1.421000
v -0.257889 0.010253 2.069665
v 1.394440 0.000000 3.738324
v 2.693390 0.001837 2.438384
v 2.101814 0.014261 2.240109
v -0.284721 0.100658 2.501422
v 0.124420 0.063628 2.610238
v 1.779945 0.173831 1.379174
v -2.022568 0.090111 3.301681
v -2.684143 0.000000 3.529099
v -0.909691 0.019005 3.523974
v -1.183876 0.375465 2.253034
v 0.406174 0.139347 1.523320
v -4.274727 0.000000 1.036208
v -3.673676 0.000000 2.581981
v -2.542267 0.080937 1.083131
v -1.206459 0.302330 1.148410
v -0.403046 0.035766 0.726661
v -0.323997 0.057586 1.585893
v 1.044991 0.162212 0.706998
v 2.516907 0.376047 0.706800
v 3.463974 0.003069 -0.675279
v 3.575806 0.000000 1.925488
v 3.063713 0.028532 1.370036
v -1.303276 -0.038935 -0.407752
v 0.310570 0.098437 0.000291
v 2.127975 0.428486 0.597953
v 2.489815 0.358575 0.035844
v -1.346024 0.005755 -0.951819
v 0.782143 0.053912 -1.009690
v 1.503464 0.211499 -1.593663
v 2.640312 0.133004 -0.479905
v 0.369873 0.128141 -0.697560
v -0.862511 0.368793 -1.714961
v -0.814819 0.351781 -2.859694
v 0.203537 0.135077 -2.273528
v 2.323128 0.146931 -2.048942
v -2.119156 0.170544 -3.089198
v 2.443283 0.022584 -2.658069
v 3.642136 0.000000 -2.465739
v -2.229912 0.007445 -3.651177
v -2.906342 0.000000 -3.863187
v -0.036003 0.005971 -3.252770
v 2.032677 0.000000 -3.557448
v 2.247894 0.000000 3.461057
v -2.772316 0.031103 2.291207
v -0.365044 0.257151 -0.844012
v -1.950394 0.000000 -4.069257
v -1.618256 0.361408 2.674767
v -0.017548 -0.015761 0.296222
v 3.021370 0.000000 -3.070374
v 4.089546 0.000000 -0.550902
v -1.349876 0.000000 4.011599
v -0.214668 0.000000 -4.071721
v -3.508011 0.000000 -3.246121
v -0.610313 0.398848 -2.292195
v -4.127945 0.000000 -1.334472
v 0.738930 0.101171 -2.166045
v -2.279037 0.156144 -1.873092
v 2.162132 0.238469 -0.448485
v 0.771629 0.254656 -0.352012
v 2.803001 0.168821 1.186330
v 0.444939 0.000000 3.961585
vt 0.234473 0.277619
vt 0.234473 0.277619
vt 0.234473 0.277619
vt 0.234473 0.277619
vt 0.234473 0.277619
vt 0.234473 0.277619
vt 0.234473 0.277619
vt 0.234473 0.277619
vt 0.234473 0.277619
vt 0.234473 0.277619
vt 0.234473 0.277619
vt 0.234473 0.277619
vt 0.234473 0.277619
vt 0.234473 0.277619
vt 0.234473 0.277619
vt 0.234473 0.277619
vt 0.234473 0.277619
vt 0.234473 0.277619
vt 0.234473 0.277619
vt 0.234473 0.277619
vt 0.234473 0.277619
vt 0.234473 0.277619
vt 0.234473 0.277619
vt 0.234473 0.277619
vt 0.234473 0.277619
vt 0.234473 0.277619
vt 0.234473 0.277619
vt 0.234473 0.277619
vt 0.234473 0.277619
vt 0.234473 0.277619
vt 0.234473 0.277619
vt 0.234473 0.277619
vt 0.234473 0.277619
vt 0.234473 0.277619
vt 0.234473 0.277619
vt 0.234473 0.277619
vt 0.234473 0.277619
vt 0.234473 0.277619
vt 0.234473 0.277619
vt 0.234473 0.277619
vt 0.234473 0.277619
vt 0.234473 0.277619
vt 0.234473 0.277619
vt 0.234473 0.277619
vt 0.234473 0.277619
vt 0.234473 0.277619
vt 0.234473 0.277619
vt 0.234473 0.277619
vt 0.234473 0.277619
vt 0.234473 0.277619
vt 0.234473 0.277619
vt 0.234473 0.277619
vt 0.234473 0.277619
vt 0.234473 0.277619
vt 0.234473 0.277619
vt 0.234473 0.277619
vt 0.234473 0.277619
vt 0.234473 0.277619
vt 0.234473 0.277619
vt 0.234473 0.277619
vt 0.234473 0.277619
vt 0.234473 0.277619
vt 0.234473 0.277619
vt 0.234473 0.277619
vt 0.234473 0.277619
vt 0.234473 0.277619
vt 0.234473 0.277619
vt 0.234473 0.277619
vt 0.234473 0.277619
vt 0.234473 0.277619
vt 0.234473 0.277619
vt 0.234473 0.277619
vt 0.234473 0.277619
vt 0.234473 0.277619
vt 0.234473 0.277619
vt 0.234473 0.277619
vt 0.234473 0.277619
vt 0.234473 0.277619
vt 0.234473 0.277619
vt 0.234473 0.277619
vt 0.234473 0.277619
vt 0.234473 0.277619
vt 0.234473 0.277619
vt 0.234473 0.277619
vt 0.234473 0.277619
vt 0.234473 0.277619
vt 0.234473 0.277619
vt 0.234473 0.277619
vt 0.234473 0.277619
vt 0.234473 0.277619
vt 0.234473 0.277619
vn 0.003599 0.999473 0.032265
vn 0.003599 0.999473 0.032265
vn 0.003599 0.999473 0.032265
vn 0.043028 0.994329 0.097256
vn 0.043028 0.994329 0.097256
vn 0.043028 0.994329 0.097256
vn -0.022820 0.991225 0.130201
vn -0.022820 0.991225 0.130201
vn -0.022820 0.991225 0.130200
vn 0.065148 0.995412 0.070076
vn 0.065148 0.995412 0.070076
vn 0.065148 0.995412 0.070076
vn 0.094983 0.986184 0.135717
vn 0.094983 0.986184 0.135717
vn 0.094983 0.986184 0.135717
vn -0.091682 0.979236 -0.180807
vn -0.091682 0.979236 -0.180807
vn -0.091682 0.979236 -0.180807
vn 0.029265 0.997474 0.064722
vn 0.029265 0.997474 0.064722
vn 0.029265 0.997474 0.064722
vn -0.240345 0.961146 0.135767
vn -0.240345 0.961146 0.135767
vn -0.240345 0.961146 0.135767
vn -0.097597 0.995133 -0.013632
vn -0.097597 0.995133 -0.013632
vn -0.097597 0.995133 -0.013632
vn -0.085889 0.995641 -0.036349
vn -0.085889 0.995641 -0.036349
vn -0.085889 0.995641 -0.036349
vn 0.105474 0.987169 -0.119883
vn 0.105474 0.987169 -0.119883
vn 0.105474 0.987169 -0.119883
vn 0.001017 0.999764 -0.021695
vn 0.001017 0.999764 -0.021695
vn 0.001017 0.999764 -0.021695
vn 0.050826 0.998570 0.016567
vn 0.050826 0.998570 0.016567
vn 0.050826 0.998570 0.016567
vn 0.002041 0.999974 -0.006926
vn 0.002041 0.999974 -0.006926
vn 0.002041 0.999974 -0.006926
vn -0.003587 0.999790 -0.020201
vn -0.003587 0.999789 -0.020201
vn -0.003587 0.999789 -0.020201
vn -0.085850 0.946666 -0.310568
vn -0.085850 0.946666 -0.310568
vn -0.085850 0.946666 -0.310568
vn -0.005110 0.999810 -0.018805
vn -0.005110 0.999810 -0.018805
vn -0.005110 0.999810 -0.018805
vn 0.022540 0.999478 -0.023142
vn 0.022540 0.999478 -0.023142
vn 0.022540 0.999478 -0.023142
vn 0.113943 0.955993 0.270361
vn 0.113943 0.955993 0.270361
vn 0.113943 0.955993 0.270361
vn 0.054679 0.984954 0.163939
vn 0.054679 0.984954 0.163939
vn 0.054679 0.984954 0.163939
vn 0.164213 0.986115 -0.024708
vn 0.164213 0.986115 -0.024708
vn 0.164213 0.986115 -0.024708
vn 0.415367 0.900168 -0.131023
vn 0.415367 0.900168 -0.131023
vn 0.415367 0.900168 -0.131023
vn -0.167056 0.982014 0.087987
vn -0.167056 0.982014 0.087987
vn -0.167056 0.982014 0.087987
vn 0.000000 1.000000 -0.000000
vn 0.000000 1.000000 -0.000000
vn 0.000000 1.000000 -0.000000
vn 0.310189 0.949417 0.048883
vn 0.310189 0.949417 0.048883
vn 0.310189 0.949417 0.048883
vn 0.543282 0.838676 0.038299
vn 0.543282 0.838676 0.038299
vn 0.543282 0.838676 0.038299
vn -0.175817 0.968654 0.175493
vn -0.175817 0.968654 0.175493
vn -0.175817 0.968654 0.175493
vn 0.435116 0.852338 0.290161
vn 0.435116 0.852338 0.290161
vn 0.435116 0.852338 0.290161
vn -0.058668 0.998061 0.020794
vn -0.058668 0.998061 0.020794
vn -0.058668 0.998061 0.020794
vn 0.000000 1.000000 -0.000000
vn 0.000000 1.000000 -0.000000
vn 0.000000 1.000000 -0.000000
vn -0.171611 0.984869 0.024124
vn -0.171611 0.984869 0.024124
vn -0.171611 0.984869 0.024124
vn -0.076190 0.997092 -0.001696
vn -0.076190 0.997092 -0.001696
vn -0.076190 0.997092 -0.001696
vn -0.094163 0.988566 0.117776
vn -0.094163 0.988566 0.117776
vn -0.094163 0.988566 0.117776
vn 0.001919 0.999995 0.002632
vn 0.001919 0.999995 0.002632
vn 0.001919 0.999995 0.002632
vn 0.006411 0.999785 0.019733
vn 0.006411 0.999785 0.019733
vn 0.006411 0.999785 0.019733
vn 0.006107 0.999971 0.004456
vn 0.006107 0.999971 0.004456
vn 0.006107 0.999971 0.004456
vn 0.012447 0.999597 0.025502
vn 0.012447 0.999597 0.025502
vn 0.012447 0.999597 0.025502
vn -0.307714 0.908297 0.283390
vn -0.307714 0.908297 0.283390
vn -0.307714 0.908297 0.283390
vn 0.028221 0.984411 0.173604
vn 0.028221 0.984411 0.173604
vn 0.028221 0.984411 0.173604
vn -0.078662 0.983817 0.160988
vn -0.078662 0.983817 0.160988
vn -0.078662 0.983817 0.160988
vn -0.002417 0.999321 0.036767
vn -0.002417 0.999321 0.036767
vn -0.002417 0.999321 0.036767
vn -0.008143 0.999467 0.031603
vn -0.008143 0.999467 0.031603
vn -0.008143 0.999467 0.031603
vn -0.255629 0.964804 -0.061708
vn -0.255629 0.964804 -0.061708
vn -0.255629 0.964804 -0.061708
vn -0.018413 0.921869 0.387064
vn -0.018413 0.921869 0.387064
vn -0.018413 0.921869 0.387064
vn -0.327792 0.925619 0.189161
vn -0.327792 0.925619 0.189161
vn -0.327792 0.925619 0.189161
vn 0.213572 0.954794 0.206775
vn 0.213572 0.954794 0.206775
vn 0.213572 0.954794 0.206775
vn 0.318703 0.931514 -0.175243
vn 0.318703 0.931514 -0.175243
vn 0.318703 0.931514 -0.175243
vn 0.336487 0.920207 -0.199988
vn 0.336487 0.920207 -0.199988
vn 0.336487 0.920207 -0.199988
vn -0.064758 0.997642 -0.022733
vn -0.064758 0.997642 -0.022733
vn -0.064758 0.997642 -0.022733
vn 0.198798 0.969052 0.146351
vn 0.198798 0.969052 0.146351
vn 0.198798 0.969052 0.146351
vn 0.079023 0.992833 0.089649
vn 0.079023 0.992833 0.089649
vn 0.079023 0.992833 0.089649
vn -0.101234 0.988699 0.110570
vn -0.101234 0.988699 0.110570
vn -0.101234 0.988699 0.110570
vn 0.000000 1.000000 -0.000000
vn 0.000000 1.000000 -0.000000
vn 0.000000 1.000000 -0.000000
vn 0.000000 1.000000 0.000000
vn 0.000000 1.000000 0.000000
vn 0.000000 1.000000 0.000000
vn -0.223704 0.974654 -0.002394
vn -0.223704 0.974654 -0.002394
vn -0.223704 0.974654 -0.002394
vn 0.011267 0.998996 0.043355
vn 0.011267 0.998996 0.043355
vn 0.011267 0.998996 0.043355
vn -0.153378 0.974216 -0.165463
vn -0.153378 0.974216 -0.165463
vn -0.153378 0.974216 -0.165463
vn 0.237925 0.969282 0.062323
vn 0.237925 0.969282 0.062323
vn 0.237925 0.969282 0.062323
vn 0.290292 0.955579 -0.050974
vn 0.290292 0.955579 -0.050974
vn 0.290292 0.955579 -0.050974
vn -0.118016 0.989426 -0.084314
vn -0.118016 0.989426 -0.084314
vn -0.118016 0.989426 -0.084314
vn -0.332295 0.943165 -0.004475
vn -0.332295 0.943165 -0.004475
vn -0.332295 0.943165 -0.004475
vn -0.293043 0.906231 0.304747
vn -0.293043 0.906231 0.304747
vn -0.293043 0.906231 0.304747
vn 0.275815 0.916156 0.290835
vn 0.275815 0.916156 0.290835
vn 0.275815 0.916156 0.290835
vn 0.211906 0.936796 0.278404
vn 0.211906 0.936796 0.278404
vn 0.211906 0.936796 0.278404
vn 0.007670 0.999970 0.000850
vn 0.007670 0.999970 0.000850
vn 0.007670 0.999970 0.000850
vn 0.033870 0.999224 0.020101
vn 0.033870 0.999224 0.020101
vn 0.033870 0.999224 0.020101
vn 0.057006 0.998373 -0.001273
vn 0.057006 0.998373 -0.001273
vn 0.057006 0.998373 -0.001273
vn 0.000000 1.000000 0.000000
vn 0.000000 1.000000 0.000000
vn 0.000000 1.000000 0.000000
vn -0.100514 0.991015 0.088242
vn -0.100514 0.991015 0.088242
vn -0.100514 0.991015 0.088242
vn 0.013949 0.992564 -0.120920
vn 0.013949 0.992564 -0.120920
vn 0.013949 0.992564 -0.120920
vn 0.084513 0.959635 -0.268249
vn 0.084513 0.959635 -0.268249
vn 0.084513 0.959635 -0.268249
vn -0.106300 0.974104 -0.199555
vn -0.106300 0.974104 -0.199555
vn -0.106300 0.974104 -0.199555
vn 0.135247 0.990809 0.002519
vn 0.135247 0.990809 0.002519
vn 0.135247 0.990809 0.002519
vn -0.317923 0.948023 0.013335
vn -0.317923 0.948023 0.013335
vn -0.317923 0.948023 0.013335
vn 0.221869 0.960758 -0.166486
vn 0.221869 0.960758 -0.166486
vn 0.221869 0.960758 -0.166486
vn -0.288131 0.952265 0.100858
vn -0.288131 0.952265 0.100858
vn -0.288131 0.952265 0.100858
vn -0.022091 0.996257 0.083568
vn -0.022091 0.996257 0.083568
vn -0.022091 0.996257 0.083568
vn -0.307973 0.951210 0.018743
vn -0.307973 0.951210 0.018743
vn -0.307973 0.951210 0.018743
vn -0.311266 0.950220 0.013994
vn -0.311266 0.950220 0.013994
vn -0.311266 0.950220 0.013994
vn -0.058039 0.981917 -0.180195
vn -0.058039 0.981917 -0.180195
vn -0.058039 0.981917 -0.180195
vn -0.295255 0.949233 -0.108545
vn -0.295255 0.949233 -0.108545
vn -0.295255 0.949233 -0.108545
vn -0.159605 0.984794 0.068606
vn -0.159605 0.984794 0.068606
vn -0.159605 0.984794 0.068606
vn 0.135370 0.987076 -0.085766
vn 0.135370 0.987076 -0.085766
vn 0.135370 0.987076 -0.085766
vn 0.213094 0.976426 -0.034410
vn 0.213094 0.976426 -0.034410
vn 0.213094 0.976426 -0.034410
vn 0.150764 0.988332 -0.021705
vn 0.150764 0.988332 -0.021705
vn 0.150764 0.988332 -0.021705
vn 0.220542 0.967615 0.122808
vn 0.220542 0.967615 0.122808
vn 0.220542 0.967615 0.122808
vn 0.191634 0.976181 -0.101720
vn 0.191634 0.976181 -0.101720
vn 0.191634 0.976181 -0.101720
vn -0.223071 0.970081 -0.095819
vn -0.223071 0.970081 -0.095819
vn -0.223071 0.970081 -0.095819
vn 0.099446 0.990800 -0.091788
vn 0.099446 0.990800 -0.091788
vn 0.099446 0.990800 -0.091788
vn 0.127974 0.949143 -0.287663
vn 0.127974 0.949143 -0.287663
vn 0.127975 0.949143 -0.287663
vn -0.396664 0.900706 0.177161
vn -0.396664 0.900706 0.177161
vn -0.396664 0.900706 0.177161
vn 0.240011 0.969257 0.054187
vn 0.240011 0.969257 0.054187
vn 0.240011 0.969257 0.054187
vn -0.082557 0.981462 0.172963
vn -0.082557 0.981462 0.172963
vn -0.082557 0.981462 0.172963
vn 0.075022 0.993594 0.084512
vn 0.075022 0.993594 0.084512
vn 0.075022 0.993594 0.084512
vn 0.308421 0.951235 -0.005357
vn 0.308421 0.951235 -0.005357
vn 0.308421 0.951235 -0.005357
vn 0.306719 0.933065 -0.187917
vn 0.306719 0.933065 -0.187917
vn 0.306719 0.933065 -0.187917
vn 0.181402 0.983323 0.013025
vn 0.181402 0.983323 0.013025
vn 0.181402 0.983323 0.013025
vn 0.039815 0.992591 0.114796
vn 0.039815 0.992591 0.114796
vn 0.039815 0.992591 0.114796
vn 0.312138 0.928996 -0.198836
vn 0.312138 0.928996 -0.198836
vn 0.312138 0.928996 -0.198836
vn 0.092918 0.983933 -0.152454
vn 0.092918 0.983933 -0.152454
vn 0.092918 0.983933 -0.152454
vn 0.049657 0.997409 -0.052051
vn 0.049657 0.997409 -0.052051
vn 0.049657 0.997409 -0.052051
vn -0.078636 0.995467 -0.053499
vn -0.078636 0.995467 -0.053499
vn -0.078636 0.995467 -0.053499
vn -0.306278 0.951702 -0.021368
vn -0.306278 0.951702 -0.021368
vn -0.306278 0.951702 -0.021368
vn 0.208912 0.901452 -0.379131
vn 0.208912 0.901452 -0.379131
vn 0.208912 0.901452 -0.379131
vn -0.013314 0.979188 -0.202519
vn -0.013314 0.979188 -0.202519
vn -0.013314 0.979188 -0.202519
vn -0.016007 0.985557 -0.168588
vn -0.016007 0.985557 -0.168588
vn -0.016007 0.985557 -0.168588
vn 0.020153 0.999763 -0.008225
vn 0.020153 0.999763 -0.008225
vn 0.020153 0.999763 -0.008225
vn 0.128447 0.976337 -0.173973
vn 0.128447 0.976337 -0.173973
vn 0.128447 0.976337 -0.173973
vn -0.007675 0.999914 -0.010624
vn -0.007675 0.999914 -0.010624
vn -0.007675 0.999914 -0.010624
vn -0.007564 0.960742 -0.277340
vn -0.007564 0.960742 -0.277340
vn -0.007564 0.960742 -0.277340
vn -0.167492 0.955151 -0.244198
vn -0.167492 0.955151 -0.244198
vn -0.167492 0.955151 -0.244198
vn -0.001422 0.999743 -0.022616
vn -0.001422 0.999743 -0.022616
vn -0.001422 0.999743 -0.022616
vn -0.002106 0.999813 -0.019211
vn -0.002106 0.999813 -0.019211
vn -0.002106 0.999813 -0.019211
vn 0.002222 0.999987 -0.004510
vn 0.002222 0.999987 -0.004510
vn 0.002222 0.999987 -0.004510
vn 0.001965 0.999978 -0.006256
vn 0.001965 0.999978 -0.006256
vn 0.001965 0.999978 -0.006256
vn 0.007466 0.995680 -0.092548
vn 0.007466 0.995680 -0.092548
vn 0.007466 0.995680 -0.092548
vn 0.002143 0.999908 -0.013405
vn 0.002143 0.999908 -0.013405
vn 0.002143 0.999908 -0.013405
vn -0.002010 0.951339 -0.308140
vn -0.002010 0.951339 -0.308140
vn -0.002010 0.951339 -0.308140
vn -0.111962 0.990064 -0.085075
vn -0.111962 0.990064 -0.085075
vn -0.111962 0.990064 -0.085075
vn -0.297408 0.954346 -0.027800
vn -0.297408 0.954346 -0.027800
vn -0.297408 0.954346 -0.027800
vn -0.121410 0.992594 -0.004208
vn -0.121410 0.992594 -0.004208
vn -0.121410 0.992594 -0.004208
vn -0.098054 0.994845 -0.025871
vn -0.098054 0.994845 -0.025871
vn -0.098054 0.994845 -0.025871
vn -0.046396 0.993483 0.104107
vn -0.046396 0.993483 0.104107
vn -0.046396 0.993483 0.104107
vn -0.195922 0.927876 0.317272
vn -0.195922 0.927876 0.317272
vn -0.195922 0.927876 0.317272
vn -0.159925 0.935623 0.314695
vn -0.159925 0.935623 0.314695
vn -0.159925 0.935623 0.314695
vn 0.056021 0.962330 0.266052
vn 0.056021 0.962330 0.266052
vn 0.056021 0.962330 0.266052
vn 0.234048 0.969023 -0.078846
vn 0.234048 0.969023 -0.078846
vn 0.234048 0.969023 -0.078846
vn 0.079609 0.996094 0.038203
vn 0.079609 0.996094 0.038203
vn 0.079609 0.996094 0.038203
vn 0.445656 0.860635 -0.246369
vn 0.445656 0.860635 -0.246369
vn 0.445656 0.860635 -0.246369
vn 0.179814 0.919456 -0.349668
vn 0.179814 0.919456 -0.349668
vn 0.179814 0.919456 -0.349668
vn 0.080749 0.953675 -0.289801
vn 0.080749 0.953675 -0.289801
vn 0.080749 0.953675 -0.289801
vn 0.000002 0.991288 0.131713
vn 0.000002 0.991288 0.131713
vn 0.000002 0.991288 0.131713
vn -0.100009 0.985772 -0.135101
vn -0.100009 0.985772 -0.135101
vn -0.100009 0.985772 -0.135101
vn 0.448728 0.892710 -0.041365
vn 0.448728 0.892710 -0.041365
vn 0.448728 0.892710 -0.041365
vn 0.142206 0.989336 -0.031505
vn 0.142206 0.989336 -0.031505
vn 0.142206 0.989336 -0.031505
vn -0.225187 0.966456 0.123506
vn -0.225187 0.966456 0.123506
vn -0.225187 0.966456 0.123506
vn -0.222870 0.964491 0.141723
vn -0.222870 0.964491 0.141723
vn -0.222870 0.964491 0.141723
vn -0.307484 0.921730 0.236363
vn -0.307484 0.921730 0.236363
vn -0.307484 0.921730 0.236363
vn 0.458374 0.888322 0.027866
vn 0.458374 0.888322 0.027866
vn 0.458374 0.888322 0.027866
vn -0.022570 0.999598 0.017153
vn -0.022570 0.999598 0.017153
vn -0.022570 0.999598 0.017153
vn 0.381257 0.911395 0.154929
vn 0.381257 0.911395 0.154929
vn 0.381257 0.911395 0.154929
vn 0.095009 0.994895 -0.034006
vn 0.095009 0.994895 -0.034006
vn 0.095009 0.994895 -0.034006
vn 0.216590 0.972527 0.085321
vn 0.216590 0.972527 0.085321
vn 0.216590 0.972527 0.085321
vn 0.217400 0.942098 0.255321
vn 0.217400 0.942098 0.255321
vn 0.217400 0.942098 0.255321
vn -0.070139 0.996774 -0.039018
vn -0.070139 0.996774 -0.039018
vn -0.070139 0.996774 -0.039018
vn -0.196725 0.964120 -0.178247
vn -0.196725 0.964120 -0.178247
vn -0.196725 0.964120 -0.178247
vn 0.054934 0.985249 0.162073
vn 0.054934 0.985248 0.162073
vn 0.054934 0.985248 0.162073
vn 0.059082 0.991573 0.115290
vn 0.059082 0.991573 0.115290
vn 0.059082 0.991573 0.115290
vn 0.139633 0.970890 -0.194616
vn 0.139633 0.970890 -0.194616
vn 0.139633 0.970890 -0.194616
vn 0.005908 0.999667 0.025126
vn 0.005908 0.999667 0.025126
vn 0.005908 0.999667 0.025126
s off
f 2/2/1 91/91/2 39/39/3
f 39/39/4 33/33/5 35/35/6
f 33/33/7 32/32/8 90/90/9
f 9/9/10 48/48/11 89/89/12
f 12/12/13 49/49/14 55/55/15
f 55/55/16 56/56/17 88/88/18
f 19/19/19 62/62/20 84/84/21
f 8/8/22 59/59/23 86/86/24
f 11/11/25 24/24/26 85/85/27
f 18/18/28 87/87/29 83/83/30
f 19/19/31 84/84/32 63/63/33
f 6/6/34 17/17/35 82/82/36
f 86/86/37 67/67/38 79/79/39
f 14/14/40 17/17/41 72/72/42
f 15/15/43 69/69/44 76/76/45
f 17/17/46 69/69/47 19/19/48
f 15/15/49 70/70/50 69/69/51
f 79/79/52 67/67/53 68/68/54
f 23/23/55 61/61/56 75/75/57
f 23/23/58 78/78/59 61/61/60
f 25/25/61 53/53/62 22/22/63
f 28/28/64 46/46/65 23/23/66
f 44/44/67 45/45/68 25/25/69
f 10/10/70 51/51/71 80/80/72
f 26/26/73 52/52/74 50/50/75
f 26/26/76 49/49/77 90/90/78
f 29/29/79 36/36/80 48/48/81
f 28/28/82 45/45/83 46/46/84
f 11/11/85 1/1/86 44/44/87
f 27/27/88 43/43/89 42/42/90
f 30/30/91 35/35/92 41/41/93
f 1/1/94 37/37/95 74/74/96
f 1/1/97 38/38/98 37/37/99
f 32/32/100 73/73/101 3/3/102
f 73/73/103 39/39/104 31/31/105
f 32/32/106 39/39/107 73/73/108
f 32/32/109 33/33/110 39/39/111
f 36/36/112 33/33/113 12/12/114
f 37/37/115 13/13/116 39/39/117
f 37/37/118 38/38/119 13/13/120
f 39/39/121 81/81/122 2/2/123
f 39/39/124 13/13/125 81/81/126
f 74/74/127 77/77/128 4/4/129
f 77/77/130 37/37/131 39/39/132
f 74/74/133 37/37/134 77/77/135
f 77/77/136 39/39/137 34/34/138
f 4/4/139 34/34/140 30/30/141
f 40/40/142 34/34/143 4/4/144
f 41/41/145 48/48/146 54/54/147
f 48/48/148 35/35/149 29/29/150
f 41/41/151 35/35/152 48/48/153
f 30/30/154 41/41/155 47/47/156
f 42/42/157 1/1/158 11/11/159
f 42/42/160 43/43/161 1/1/162
f 44/44/163 74/74/164 4/4/165
f 44/44/166 1/1/167 74/74/168
f 45/45/169 44/44/170 4/4/171
f 47/47/172 45/45/173 30/30/174
f 46/46/175 45/45/176 47/47/177
f 41/41/178 78/78/179 47/47/180
f 54/54/181 78/78/182 41/41/183
f 48/48/184 36/36/185 12/12/186
f 33/33/187 49/49/188 12/12/189
f 90/90/190 49/49/191 33/33/192
f 50/50/193 51/51/194 10/10/195
f 51/51/196 52/52/197 3/3/198
f 50/50/199 52/52/200 51/51/201
f 80/80/202 51/51/203 5/5/204
f 25/25/205 11/11/206 44/44/207
f 25/25/208 45/45/209 28/28/210
f 28/28/211 53/53/212 25/25/213
f 23/23/214 53/53/215 28/28/216
f 23/23/217 46/46/218 78/78/219
f 78/78/220 54/54/221 61/61/222
f 22/22/223 53/53/224 21/21/225
f 57/57/226 53/53/227 23/23/228
f 53/53/229 57/57/230 21/21/231
f 89/89/232 54/54/233 9/9/234
f 89/89/235 61/61/236 54/54/237
f 88/88/238 58/58/239 55/55/240
f 58/58/241 59/59/242 8/8/243
f 88/88/244 59/59/245 58/58/246
f 50/50/247 60/60/248 26/26/249
f 60/60/250 65/65/251 88/88/252
f 50/50/253 65/65/254 60/60/255
f 24/24/256 22/22/257 21/21/258
f 75/75/259 61/61/260 7/7/261
f 7/7/262 61/61/263 89/89/264
f 7/7/265 58/58/266 8/8/267
f 58/58/268 7/7/269 89/89/270
f 62/62/271 57/57/272 23/23/273
f 84/84/274 75/75/275 7/7/276
f 75/75/277 62/62/278 23/23/279
f 84/84/280 62/62/281 75/75/282
f 64/64/283 84/84/284 7/7/285
f 64/64/286 63/63/287 84/84/288
f 64/64/289 7/7/290 8/8/291
f 86/86/292 64/64/293 8/8/294
f 64/64/295 71/71/296 63/63/297
f 86/86/298 71/71/299 64/64/300
f 88/88/301 65/65/302 59/59/303
f 24/24/304 87/87/305 18/18/306
f 66/66/307 20/20/308 19/19/309
f 63/63/310 71/71/311 17/17/312
f 65/65/313 67/67/314 86/86/315
f 59/59/316 65/65/317 86/86/318
f 68/68/319 67/67/320 10/10/321
f 10/10/322 67/67/323 65/65/324
f 69/69/325 70/70/326 16/16/327
f 66/66/328 69/69/329 16/16/330
f 19/19/331 69/69/332 66/66/333
f 76/76/334 17/17/335 6/6/336
f 76/76/337 69/69/338 17/17/339
f 72/72/340 71/71/341 79/79/342
f 72/72/343 17/17/344 71/71/345
f 79/79/346 71/71/347 86/86/348
f 82/82/349 17/17/350 14/14/351
f 19/19/352 63/63/353 17/17/354
f 83/83/355 66/66/356 16/16/357
f 66/66/358 87/87/359 20/20/360
f 83/83/361 87/87/362 66/66/363
f 85/85/364 24/24/365 18/18/366
f 20/20/367 62/62/368 19/19/369
f 20/20/370 57/57/371 62/62/372
f 87/87/373 57/57/374 20/20/375
f 57/57/376 24/24/377 21/21/378
f 87/87/379 24/24/380 57/57/381
f 50/50/382 10/10/383 65/65/384
f 60/60/385 56/56/386 26/26/387
f 88/88/388 56/56/389 60/60/390
f 58/58/391 89/89/392 55/55/393
f 11/11/394 22/22/395 24/24/396
f 22/22/397 11/11/398 25/25/399
f 56/56/400 49/49/401 26/26/402
f 55/55/403 49/49/404 56/56/405
f 55/55/406 48/48/407 12/12/408
f 89/89/409 48/48/410 55/55/411
f 54/54/412 48/48/413 9/9/414
f 90/90/415 52/52/416 26/26/417
f 52/52/418 32/32/419 3/3/420
f 90/90/421 32/32/422 52/52/423
f 78/78/424 46/46/425 47/47/426
f 45/45/427 4/4/428 30/30/429
f 40/40/430 77/77/431 34/34/432
f 4/4/433 77/77/434 40/40/435
f 35/35/436 36/36/437 29/29/438
f 35/35/439 33/33/440 36/36/441
f 35/35/442 34/34/443 39/39/444
f 30/30/445 34/34/446 35/35/447
f 39/39/448 91/91/449 31/31/450
