# This file uses centimeters as units for non-parametric coordinates.

v 0.011267 1.005774 -0.019516
v -0.011268 1.005774 -0.019516
v -0.022538 1.005774 0.000001
v -0.011268 1.005774 0.019518
v 0.011267 1.005774 0.019518
v 0.022536 1.005774 0.000001
v 0.113402 -0.020585 -0.196417
v -0.113402 -0.020585 -0.196417
v -0.226804 -0.020585 0.000001
v -0.113402 -0.020585 0.196418
v 0.113402 -0.020585 0.196418
v 0.226804 -0.020585 0.000001
v 0.000000 1.023528 0.000001
v 0.000000 -0.220580 0.000001
v -0.065731 0.236786 0.096216
v -0.129267 0.247579 -0.013834
v -0.065731 0.235844 -0.123883
v 0.061344 0.248193 -0.123883
v 0.124880 0.256888 -0.013834
v 0.061344 0.236873 0.096216
v -0.046532 0.458021 0.069636
v -0.086737 0.458805 0.000001
v -0.046532 0.445878 -0.069636
v 0.033877 0.446140 -0.069636
v 0.074081 0.446271 0.000001
v 0.033877 0.446140 0.069636
v -0.032585 0.621522 0.050504
v -0.063496 0.621391 -0.003034
v -0.032585 0.634334 -0.056571
v 0.029235 0.621391 -0.056571
v 0.060145 0.633551 -0.003034
v 0.029235 0.621585 0.050504
v -0.024324 0.776740 0.030825
v -0.045940 0.765272 -0.006615
v -0.024324 0.765272 -0.044055
v 0.018909 0.777524 -0.044055
v 0.040525 0.765398 -0.006615
v 0.018909 0.765398 0.030825
v -0.017221 0.900592 0.029827
v -0.034441 0.900592 0.000001
v -0.017221 0.900592 -0.029826
v 0.017220 0.900592 -0.029826
v 0.034440 0.900592 0.000001
v 0.017220 0.910803 0.029827
v -0.108394 0.068435 0.180538
v 0.106601 0.068435 0.180538
v 0.214099 0.068435 -0.005653
v 0.106601 0.068435 -0.191845
v -0.108394 0.068435 -0.191845
v -0.215891 0.068435 -0.005653
v 0.039208 0.406046 0.083156
v 0.085641 0.406321 0.002731
v 0.039208 0.406321 -0.077692
v -0.053658 0.406046 -0.077692
v -0.100092 0.418750 0.002731
v -0.053658 0.417775 0.083156
v 0.034556 0.582766 0.057164
v 0.071686 0.594618 -0.007147
v 0.034556 0.582185 -0.071459
v -0.039705 0.595171 -0.071459
v -0.076835 0.582294 -0.007147
v -0.039705 0.582766 0.057164
v 0.029551 0.726853 0.035406
v 0.056322 0.726488 -0.010959
v 0.029551 0.738729 -0.057326
v -0.023989 0.726309 -0.057326
v -0.050758 0.726674 -0.010959
v -0.023989 0.738483 0.035406
v 0.017552 0.875735 0.042510
v 0.040576 0.865345 0.002631
v 0.017552 0.865332 -0.037246
v -0.028495 0.865332 -0.037246
v -0.051518 0.865036 0.002631
v -0.028495 0.865036 0.042510
v 0.073295 0.206483 0.117484
v 0.148656 0.226073 -0.013045
v 0.073295 0.217552 -0.143576
v -0.077430 0.205469 -0.143576
v -0.152791 0.216955 -0.013045
v -0.077430 0.206483 0.117484
vt 0.211398 0.301126
vt 0.211398 0.301126
vt 0.211398 0.301126
vt 0.211398 0.301126
vt 0.211398 0.301126
vt 0.211398 0.301126
vt 0.212874 0.278000
vt 0.212874 0.278000
vt 0.212874 0.278000
vt 0.212874 0.278000
vt 0.212874 0.278000
vt 0.212874 0.278000
vt 0.212874 0.278000
vt 0.212874 0.278000
vt 0.212874 0.278000
vt 0.212874 0.278000
vt 0.212874 0.278000
vt 0.212874 0.278000
vt 0.212874 0.278000
vt 0.212874 0.278000
vt 0.212874 0.278000
vt 0.212874 0.278000
vt 0.212874 0.278000
vt 0.212874 0.278000
vt 0.212874 0.278000
vt 0.212874 0.278000
vt 0.211398 0.301126
vt 0.212874 0.278000
vt 0.212874 0.277999
vt 0.212874 0.277999
vt 0.212874 0.277999
vt 0.212874 0.277999
vt 0.212874 0.277999
vt 0.212874 0.277999
vt 0.212874 0.277999
vt 0.212874 0.277999
vt 0.212874 0.277999
vt 0.212874 0.277999
vt 0.211398 0.301126
vt 0.212874 0.277999
vt 0.212874 0.277999
vt 0.212874 0.277999
vt 0.212874 0.277999
vt 0.212874 0.277999
vt 0.212874 0.277999
vt 0.211398 0.301126
vt 0.212874 0.277999
vt 0.212874 0.277999
vt 0.212874 0.277999
vt 0.212874 0.278000
vt 0.212874 0.278000
vt 0.212874 0.278000
vt 0.211398 0.301126
vt 0.212874 0.278000
vt 0.212874 0.278000
vt 0.212874 0.278000
vt 0.211398 0.301126
vt 0.212874 0.278000
vt 0.212874 0.278000
vt 0.212874 0.278000
vt 0.212874 0.278000
vt 0.212874 0.278000
vt 0.212874 0.278000
vt 0.212874 0.278000
vt 0.212874 0.278000
vt 0.212874 0.278000
vt 0.212874 0.278000
vt 0.212874 0.278000
vt 0.212874 0.278000
vt 0.212874 0.278000
vt 0.211398 0.301126
vt 0.212874 0.278000
vt 0.212874 0.278000
vt 0.212874 0.278000
vt 0.212874 0.278000
vt 0.212874 0.278000
vt 0.212874 0.278000
vt 0.211398 0.301126
vt 0.212874 0.277999
vt 0.212874 0.277999
vt 0.212874 0.277999
vt 0.212874 0.277999
vt 0.212874 0.277999
vt 0.212874 0.277999
vt 0.211398 0.301126
vt 0.212874 0.278000
vt 0.212874 0.278000
vt 0.212874 0.278000
vt 0.212874 0.278000
vt 0.212874 0.278000
vt 0.212874 0.278000
vt 0.211398 0.301126
vt 0.212874 0.278000
vt 0.212874 0.278000
vt 0.212874 0.278000
vt 0.212874 0.278000
vt 0.212874 0.278000
vt 0.212874 0.278000
vt 0.212874 0.277999
vt 0.212874 0.277999
vt 0.212874 0.277999
vt 0.212874 0.277999
vt 0.212874 0.277999
vt 0.212874 0.277999
vt 0.212874 0.277999
vt 0.211398 0.301126
vt 0.211398 0.301126
vt 0.211398 0.301126
vt 0.212874 0.278000
vt 0.211398 0.301126
vt 0.211398 0.301126
vt 0.211398 0.301126
vt 0.211398 0.301126
vt 0.211398 0.301126
vt 0.211398 0.301126
vt 0.211398 0.301126
vt 0.211398 0.301126
vt 0.211398 0.301126
vt 0.211398 0.301126
vt 0.211398 0.301126
vt 0.212874 0.278000
vt 0.211398 0.301126
vt 0.211398 0.301126
vt 0.211398 0.301126
vt 0.211398 0.301126
vt 0.211398 0.301126
vt 0.211398 0.301126
vt 0.211398 0.301126
vt 0.211398 0.301126
vt 0.211398 0.301126
vt 0.211398 0.301126
vt 0.211398 0.301126
vt 0.212874 0.277999
vt 0.211398 0.301126
vt 0.211398 0.301126
vt 0.211398 0.301126
vt 0.211398 0.301126
vt 0.211398 0.301126
vt 0.211398 0.301126
vt 0.211398 0.301126
vt 0.211398 0.301126
vt 0.211398 0.301126
vt 0.211398 0.301126
vt 0.211398 0.301126
vt 0.212874 0.278000
vt 0.211398 0.301126
vt 0.211398 0.301126
vt 0.211398 0.301126
vt 0.211398 0.301126
vt 0.211398 0.301126
vt 0.211398 0.301126
vt 0.211398 0.301126
vt 0.211398 0.301126
vt 0.211398 0.301126
vt 0.211398 0.301126
vt 0.211398 0.301126
vt 0.212874 0.278000
vt 0.211398 0.301126
vt 0.211398 0.301126
vt 0.211398 0.301126
vt 0.211398 0.301126
vt 0.211398 0.301126
vt 0.211398 0.301126
vt 0.211398 0.301126
vt 0.211398 0.301126
vt 0.211398 0.301126
vt 0.211398 0.301126
vt 0.211398 0.301126
vt 0.211398 0.301126
vt 0.211398 0.301126
vt 0.211398 0.301126
vt 0.211398 0.301126
vt 0.212874 0.278000
vt 0.211398 0.301126
vt 0.211398 0.301126
vt 0.211398 0.301126
vt 0.211398 0.301126
vt 0.211398 0.301126
vt 0.211398 0.301126
vt 0.211398 0.301126
vt 0.211398 0.301126
vt 0.211398 0.301126
vt 0.211398 0.301126
vt 0.211398 0.301126
vt 0.212874 0.277999
vt 0.211398 0.301126
vt 0.211398 0.301126
vt 0.211398 0.301126
vt 0.211398 0.301126
vt 0.211398 0.301126
vt 0.211398 0.301126
vt 0.211398 0.301126
vt 0.211398 0.301126
vt 0.211398 0.301126
vt 0.211398 0.301126
vt 0.211398 0.301126
vt 0.212874 0.277999
vt 0.211398 0.301126
vt 0.211398 0.301126
vt 0.211398 0.301126
vt 0.211398 0.301126
vt 0.211398 0.301126
vt 0.211398 0.301126
vt 0.211398 0.301126
vt 0.211398 0.301126
vt 0.211398 0.301126
vt 0.211398 0.301126
vt 0.211398 0.301126
vt 0.211398 0.301126
vt 0.211398 0.301126
vt 0.211398 0.301126
vt 0.211398 0.301126
vt 0.211890 0.305063
vt 0.211890 0.305063
vt 0.211890 0.305063
vt 0.211890 0.305063
vt 0.211890 0.305063
vt 0.211890 0.305063
vt 0.211890 0.305063
vt 0.211890 0.305063
vt 0.211890 0.305063
vt 0.211890 0.305063
vt 0.211890 0.305063
vt 0.211890 0.305063
vn 0.000001 0.097554 -0.995230
vn 0.000001 0.097554 -0.995230
vn 0.000001 0.097554 -0.995230
vn 0.000001 0.097554 -0.995230
vn -0.861893 0.097545 -0.497619
vn -0.861893 0.097545 -0.497619
vn -0.861893 0.097545 -0.497619
vn -0.861893 0.097545 -0.497619
vn -0.861886 0.097541 0.497633
vn -0.861886 0.097541 0.497633
vn -0.861886 0.097541 0.497634
vn -0.861885 0.097541 0.497634
vn -0.018358 0.102443 0.994569
vn -0.018358 0.102443 0.994569
vn -0.018358 0.102443 0.994569
vn -0.018358 0.102443 0.994569
vn 0.870498 0.102452 0.481390
vn 0.870498 0.102452 0.481390
vn 0.870498 0.102452 0.481390
vn 0.870498 0.102452 0.481390
vn 0.861900 0.097549 -0.497607
vn 0.861900 0.097549 -0.497607
vn 0.861900 0.097549 -0.497607
vn 0.861900 0.097549 -0.497607
vn 0.000000 0.739729 -0.672905
vn 0.000000 0.739729 -0.672905
vn 0.000000 0.739729 -0.672905
vn -0.582727 0.739739 -0.336475
vn -0.582727 0.739739 -0.336475
vn -0.582727 0.739739 -0.336475
vn -0.582727 0.739739 0.336475
vn -0.582727 0.739739 0.336475
vn -0.582727 0.739739 0.336475
vn 0.000000 0.739729 0.672905
vn 0.000000 0.739729 0.672905
vn 0.000000 0.739729 0.672905
vn 0.582763 0.739714 0.336467
vn 0.582763 0.739714 0.336467
vn 0.582763 0.739714 0.336467
vn 0.582763 0.739714 -0.336467
vn 0.582763 0.739714 -0.336467
vn 0.582763 0.739714 -0.336467
vn 0.000000 -0.700699 -0.713457
vn 0.000000 -0.700699 -0.713457
vn 0.000000 -0.700699 -0.713457
vn -0.617872 -0.700699 -0.356728
vn -0.617872 -0.700699 -0.356728
vn -0.617872 -0.700699 -0.356728
vn -0.617872 -0.700698 0.356731
vn -0.617872 -0.700698 0.356731
vn -0.617872 -0.700698 0.356731
vn 0.000000 -0.700696 0.713460
vn 0.000000 -0.700696 0.713460
vn 0.000000 -0.700696 0.713460
vn 0.617874 -0.700697 0.356729
vn 0.617874 -0.700697 0.356729
vn 0.617874 -0.700697 0.356729
vn 0.617874 -0.700698 -0.356726
vn 0.617874 -0.700698 -0.356726
vn 0.617874 -0.700698 -0.356726
vn -0.692924 0.563455 0.449861
vn -0.785299 0.402219 0.470664
vn -0.787570 0.397332 0.471022
vn -0.692924 0.563455 0.449861
vn -0.701210 0.546719 -0.457607
vn -0.800828 0.359535 -0.478967
vn -0.799659 0.362329 -0.478815
vn -0.701210 0.546719 -0.457607
vn -0.047630 0.541571 -0.839305
vn -0.015213 0.348323 -0.937251
vn -0.014495 0.343900 -0.938895
vn -0.047630 0.541571 -0.839305
vn 0.706631 0.548341 -0.447209
vn 0.805146 0.352305 -0.477097
vn 0.805714 0.350826 -0.477228
vn 0.706631 0.548341 -0.447209
vn 0.671002 0.564794 0.480379
vn 0.781498 0.397062 0.481252
vn 0.777462 0.404482 0.481608
vn 0.671002 0.564794 0.480379
vn -0.000180 0.573935 0.818901
vn -0.000021 0.434740 0.900556
vn -0.000021 0.434525 0.900660
vn -0.000180 0.573935 0.818901
vn -0.822721 0.306702 0.478606
vn -0.822721 0.306702 0.478606
vn -0.822721 0.306702 0.478606
vn -0.822721 0.306702 0.478606
vn -0.820958 0.244869 -0.515817
vn -0.820958 0.244869 -0.515817
vn -0.820958 0.244869 -0.515817
vn -0.820958 0.244869 -0.515817
vn -0.000614 0.198270 -0.980147
vn -0.000614 0.198270 -0.980147
vn -0.000614 0.198270 -0.980147
vn -0.000614 0.198270 -0.980147
vn 0.846292 0.211828 -0.488793
vn 0.846292 0.211828 -0.488793
vn 0.846292 0.211828 -0.488793
vn 0.846292 0.211828 -0.488793
vn 0.832694 0.273462 0.481496
vn 0.832694 0.273462 0.481496
vn 0.832694 0.273462 0.481496
vn 0.832694 0.273462 0.481496
vn 0.043306 0.317816 0.947163
vn 0.043306 0.317816 0.947163
vn 0.043306 0.317816 0.947163
vn 0.043306 0.317816 0.947163
vn -0.841857 0.237091 0.484834
vn -0.841857 0.237091 0.484834
vn -0.841857 0.237091 0.484834
vn -0.841857 0.237091 0.484834
vn -0.848417 0.323511 -0.418961
vn -0.848417 0.323511 -0.418961
vn -0.848417 0.323511 -0.418961
vn -0.848417 0.323511 -0.418961
vn 0.067268 0.353023 -0.933193
vn 0.067268 0.353023 -0.933193
vn 0.067268 0.353023 -0.933193
vn 0.067268 0.353023 -0.933193
vn 0.797911 0.299398 -0.523162
vn 0.797911 0.299398 -0.523162
vn 0.797911 0.299398 -0.523162
vn 0.797911 0.299398 -0.523162
vn 0.831211 0.197290 0.519773
vn 0.831212 0.197290 0.519773
vn 0.831212 0.197290 0.519773
vn 0.831211 0.197290 0.519773
vn -0.000079 0.169243 0.985574
vn -0.000079 0.169243 0.985574
vn -0.000079 0.169243 0.985574
vn -0.000079 0.169243 0.985574
vn -0.871058 0.052319 0.488387
vn -0.871058 0.052319 0.488387
vn -0.871058 0.052319 0.488387
vn -0.871058 0.052319 0.488387
vn -0.854342 0.161571 -0.493959
vn -0.854342 0.161571 -0.493959
vn -0.854342 0.161571 -0.493959
vn -0.854342 0.161571 -0.493959
vn -0.079529 0.311954 -0.946763
vn -0.079529 0.311954 -0.946763
vn -0.079529 0.311954 -0.946763
vn -0.079529 0.311954 -0.946763
vn 0.846111 0.373984 -0.379778
vn 0.846111 0.373984 -0.379778
vn 0.846111 0.373984 -0.379778
vn 0.846111 0.373984 -0.379778
vn 0.830638 0.284999 0.478348
vn 0.830638 0.284999 0.478348
vn 0.830638 0.284999 0.478348
vn 0.830638 0.284999 0.478348
vn 0.029081 0.122507 0.992041
vn 0.029081 0.122507 0.992041
vn 0.029081 0.122507 0.992041
vn 0.029081 0.122507 0.992041
vn -0.788883 0.412581 0.455456
vn -0.788883 0.412581 0.455456
vn -0.788883 0.412581 0.455456
vn -0.788883 0.412581 0.455456
vn -0.810008 0.355811 -0.466140
vn -0.810008 0.355811 -0.466140
vn -0.810008 0.355811 -0.466140
vn -0.810008 0.355811 -0.466140
vn 0.000001 0.205916 -0.978570
vn 0.000001 0.205916 -0.978570
vn 0.000001 0.205916 -0.978570
vn 0.000001 0.205916 -0.978570
vn 0.860503 0.112687 -0.496826
vn 0.860503 0.112687 -0.496826
vn 0.860503 0.112687 -0.496826
vn 0.860503 0.112687 -0.496826
vn 0.874033 0.178783 0.451778
vn 0.874033 0.178783 0.451778
vn 0.874033 0.178783 0.451778
vn 0.874033 0.178783 0.451778
vn -0.090681 0.349052 0.932706
vn -0.090681 0.349052 0.932706
vn -0.090681 0.349052 0.932706
vn -0.090681 0.349052 0.932706
vn 0.000000 0.175610 0.984460
vn 0.000000 0.175610 0.984460
vn 0.000000 0.175610 0.984460
vn 0.000000 0.175610 0.984460
vn 0.855760 0.153515 0.494073
vn 0.855760 0.153515 0.494073
vn 0.855760 0.153515 0.494073
vn 0.855760 0.153515 0.494073
vn 0.862397 0.091459 -0.497903
vn 0.862397 0.091459 -0.497903
vn 0.862397 0.091459 -0.497903
vn 0.862397 0.091459 -0.497903
vn 0.000000 0.051299 -0.998683
vn 0.000000 0.051299 -0.998683
vn 0.000000 0.051299 -0.998683
vn 0.000000 0.051299 -0.998683
vn -0.863639 0.074199 -0.498620
vn -0.863639 0.074199 -0.498620
vn -0.863639 0.074199 -0.498620
vn -0.863639 0.074199 -0.498620
vn -0.857905 0.136624 0.495312
vn -0.857905 0.136624 0.495312
vn -0.857905 0.136624 0.495312
vn -0.857905 0.136624 0.495312
vn 0.847815 0.157752 0.506284
vn 0.847815 0.157752 0.506284
vn 0.847815 0.157752 0.506284
vn 0.847815 0.157752 0.506284
vn 0.829582 0.265756 -0.491089
vn 0.829581 0.265756 -0.491089
vn 0.829582 0.265756 -0.491089
vn 0.829582 0.265756 -0.491089
vn -0.015519 0.270382 -0.962628
vn -0.015519 0.270382 -0.962628
vn -0.015519 0.270382 -0.962628
vn -0.015519 0.270382 -0.962628
vn -0.838384 0.194881 -0.509051
vn -0.838384 0.194881 -0.509051
vn -0.838384 0.194881 -0.509051
vn -0.838384 0.194881 -0.509051
vn -0.859483 0.095668 0.502132
vn -0.859483 0.095668 0.502132
vn -0.859483 0.095668 0.502132
vn -0.859483 0.095668 0.502132
vn 0.003943 0.074495 0.997214
vn 0.003943 0.074495 0.997214
vn 0.003943 0.074495 0.997214
vn 0.003943 0.074495 0.997214
vn 0.863794 0.039783 0.502272
vn 0.863794 0.039783 0.502272
vn 0.863794 0.039783 0.502272
vn 0.863794 0.039783 0.502272
vn 0.866408 -0.010521 -0.499227
vn 0.866407 -0.010521 -0.499227
vn 0.866408 -0.010521 -0.499227
vn 0.866407 -0.010521 -0.499227
vn -0.001049 -0.012752 -0.999918
vn -0.001049 -0.012752 -0.999918
vn -0.001049 -0.012752 -0.999918
vn -0.001049 -0.012752 -0.999918
vn -0.865438 0.036640 -0.499674
vn -0.865438 0.036640 -0.499674
vn -0.865438 0.036640 -0.499674
vn -0.865438 0.036640 -0.499674
vn -0.861805 0.097424 0.497796
vn -0.861805 0.097424 0.497796
vn -0.861805 0.097424 0.497796
vn -0.861805 0.097424 0.497796
vn 0.007282 0.094793 0.995470
vn 0.007282 0.094793 0.995470
vn 0.007282 0.094793 0.995470
vn 0.007282 0.094793 0.995470
vn 0.859912 0.073883 0.505066
vn 0.859913 0.073883 0.505066
vn 0.859912 0.073883 0.505066
vn 0.859913 0.073883 0.505066
vn 0.866000 -0.006195 -0.500006
vn 0.866000 -0.006195 -0.500006
vn 0.866000 -0.006195 -0.500006
vn 0.866000 -0.006195 -0.500006
vn -0.000033 -0.007216 -0.999974
vn -0.000033 -0.007216 -0.999974
vn -0.000033 -0.007216 -0.999974
vn -0.000033 -0.007216 -0.999974
vn -0.867671 0.072197 -0.491868
vn -0.867671 0.072197 -0.491868
vn -0.867671 0.072197 -0.491868
vn -0.867671 0.072197 -0.491868
vn -0.865119 0.133139 0.483573
vn -0.865119 0.133139 0.483573
vn -0.865119 0.133139 0.483573
vn -0.865119 0.133139 0.483573
vn 0.013446 0.134098 0.990877
vn 0.013446 0.134098 0.990877
vn 0.013446 0.134098 0.990877
vn 0.013446 0.134098 0.990877
vn 0.862536 -0.044811 0.504007
vn 0.862536 -0.044811 0.504007
vn 0.862536 -0.044811 0.504007
vn 0.862536 -0.044811 0.504007
vn 0.868267 0.048259 -0.493745
vn 0.868267 0.048259 -0.493745
vn 0.868267 0.048259 -0.493745
vn 0.868267 0.048259 -0.493745
vn -0.009881 0.072005 -0.997355
vn -0.009881 0.072005 -0.997355
vn -0.009881 0.072005 -0.997355
vn -0.009881 0.072005 -0.997355
vn -0.866014 -0.002075 -0.500016
vn -0.866014 -0.002075 -0.500016
vn -0.866014 -0.002075 -0.500016
vn -0.866014 -0.002075 -0.500016
vn -0.855046 -0.100934 0.508633
vn -0.855047 -0.100934 0.508633
vn -0.855046 -0.100934 0.508633
vn -0.855046 -0.100934 0.508633
vn -0.000840 -0.116869 0.993147
vn -0.000840 -0.116869 0.993147
vn -0.000840 -0.116869 0.993147
vn -0.000840 -0.116869 0.993147
vn 0.781498 0.397062 0.481252
vn 0.791208 0.378647 0.480226
vn 0.791208 0.378647 0.480226
vn 0.777462 0.404482 0.481608
vn 0.805714 0.350826 -0.477228
vn 0.805146 0.352305 -0.477097
vn 0.814838 0.326168 -0.479221
vn 0.814838 0.326168 -0.479221
vn -0.014495 0.343900 -0.938895
vn -0.015213 0.348323 -0.937251
vn -0.010558 0.319569 -0.947504
vn -0.010558 0.319569 -0.947504
vn -0.799659 0.362329 -0.478815
vn -0.800828 0.359535 -0.478967
vn -0.810451 0.335695 -0.480082
vn -0.810451 0.335695 -0.480082
vn -0.787570 0.397332 0.471022
vn -0.785299 0.402219 0.470664
vn -0.796473 0.377547 0.472323
vn -0.796473 0.377547 0.472323
vn -0.000021 0.434525 0.900660
vn -0.000021 0.434740 0.900556
vn 0.000000 0.415466 0.909608
vn 0.000000 0.415466 0.909609
s off
f 1/7/1 42/61/2 41/59/3 2/8/4
f 2/8/5 41/59/6 40/58/7 3/9/8
f 3/9/9 40/58/10 39/157/11 4/10/12
f 4/10/13 39/157/14 44/63/15 5/11/16
f 5/11/17 44/63/18 43/62/19 6/12/20
f 6/12/21 43/62/22 42/60/23 1/13/24
f 2/211/25 13/205/26 1/1/27
f 3/210/28 13/204/29 2/2/30
f 4/209/31 13/203/32 3/3/33
f 5/208/34 13/202/35 4/4/36
f 6/207/37 13/27/38 5/5/39
f 1/212/40 13/206/41 6/6/42
f 7/25/43 14/28/44 8/24/45
f 8/24/46 14/28/47 9/23/48
f 9/23/49 14/28/50 10/22/51
f 10/22/52 14/28/53 11/21/54
f 11/21/55 14/28/56 12/26/57
f 12/26/58 14/28/59 7/25/60
f 16/213/61 79/214/62 80/215/63 15/216/64
f 17/217/65 78/218/66 79/214/67 16/213/68
f 18/219/69 77/220/70 78/218/71 17/217/72
f 19/221/73 76/222/74 77/220/75 18/219/76
f 20/223/77 75/224/78 76/222/79 19/221/80
f 15/216/81 80/215/82 75/224/83 20/223/84
f 22/200/85 55/147/86 56/142/87 21/193/88
f 23/198/89 54/149/90 55/146/91 22/201/92
f 24/196/93 53/151/94 54/148/95 23/199/96
f 25/194/97 52/153/98 53/150/99 24/39/100
f 26/190/101 51/144/102 52/152/103 25/195/104
f 21/192/105 56/143/106 51/71/107 26/191/108
f 28/188/109 61/135/110 62/130/111 27/181/112
f 29/186/113 60/137/114 61/134/115 28/189/116
f 30/184/117 59/139/118 60/136/119 29/187/120
f 31/182/121 58/141/122 59/138/123 30/46/124
f 32/178/125 57/132/126 58/140/127 31/183/128
f 27/180/129 62/131/130 57/78/131 32/179/132
f 34/176/133 67/123/134 68/118/135 33/169/136
f 35/174/137 66/125/138 67/122/139 34/177/140
f 36/172/141 65/127/142 66/124/143 35/175/144
f 37/170/145 64/129/146 65/126/147 36/53/148
f 38/166/149 63/120/150 64/128/151 37/171/152
f 33/168/153 68/119/154 63/85/155 38/167/156
f 40/164/157 73/111/158 74/106/159 39/156/160
f 41/162/161 72/113/162 73/110/163 40/165/164
f 42/160/165 71/115/166 72/112/167 41/163/168
f 43/158/169 70/117/170 71/114/171 42/161/172
f 44/154/173 69/108/174 70/116/175 43/159/176
f 39/57/177 74/107/178 69/92/179 44/155/180
f 45/64/181 10/17/182 11/18/183 46/65/184
f 47/66/185 46/65/186 11/18/187 12/19/188
f 48/68/189 47/66/190 12/19/191 7/20/192
f 49/69/193 48/67/194 7/14/195 8/15/196
f 50/70/197 49/69/198 8/15/199 9/16/200
f 45/64/201 50/70/202 9/16/203 10/17/204
f 51/145/205 20/35/206 19/34/207 52/72/208
f 53/74/209 52/72/210 19/34/211 18/32/212
f 54/75/213 53/73/214 18/33/215 17/31/216
f 55/76/217 54/75/218 17/31/219 16/30/220
f 56/77/221 55/76/222 16/30/223 15/29/224
f 51/145/225 56/77/226 15/29/227 20/35/228
f 57/133/229 26/42/230 25/41/231 58/79/232
f 59/81/233 58/79/234 25/41/235 24/197/236
f 60/82/237 59/80/238 24/40/239 23/38/240
f 61/83/241 60/82/242 23/38/243 22/37/244
f 62/84/245 61/83/246 22/37/247 21/36/248
f 57/133/249 62/84/250 21/36/251 26/42/252
f 63/121/253 32/49/254 31/48/255 64/86/256
f 65/88/257 64/86/258 31/48/259 30/185/260
f 66/89/261 65/87/262 30/47/263 29/45/264
f 67/90/265 66/89/266 29/45/267 28/44/268
f 68/91/269 67/90/270 28/44/271 27/43/272
f 63/121/273 68/91/274 27/43/275 32/49/276
f 69/109/277 38/56/278 37/55/279 70/93/280
f 71/95/281 70/93/282 37/55/283 36/173/284
f 72/96/285 71/94/286 36/54/287 35/52/288
f 73/97/289 72/96/290 35/52/291 34/51/292
f 74/98/293 73/97/294 34/51/295 33/50/296
f 69/109/297 74/98/298 33/50/299 38/56/300
f 75/99/301 46/65/302 47/66/303 76/100/304
f 77/102/305 76/100/306 47/66/307 48/68/308
f 78/103/309 77/101/310 48/67/311 49/69/312
f 79/104/313 78/103/314 49/69/315 50/70/316
f 80/105/317 79/104/318 50/70/319 45/64/320
f 75/99/321 80/105/322 45/64/323 46/65/324
