# This file uses centimeters as units for non-parametric coordinates.

v -0.375374 0.000000 0.375373
v 0.375372 0.000000 0.375373
v -0.339920 0.179438 0.339920
v 0.339920 0.179438 0.339920
v -0.339920 0.179438 -0.339920
v 0.339920 0.179438 -0.339920
v -0.375374 0.000000 -0.375373
v 0.375372 0.000000 -0.375373
v -0.269114 0.208880 0.269109
v 0.269114 0.208880 0.269109
v 0.269114 0.208880 -0.269109
v -0.269114 0.208880 -0.269109
v -0.195206 1.316836 0.195210
v 0.195204 1.316836 0.195210
v 0.195204 1.316836 -0.195209
v -0.195206 1.316836 -0.195209
v -0.267599 1.354088 0.267598
v 0.267597 1.354088 0.267598
v 0.267597 1.354088 -0.267598
v -0.267599 1.354088 -0.267598
v -0.282618 1.520377 0.282619
v 0.282616 1.520377 0.282619
v 0.282616 1.520377 -0.282619
v -0.282618 1.520377 -0.282619
v -0.204969 1.520377 0.204967
v 0.204967 1.520377 0.204967
v 0.204967 1.520377 -0.204967
v -0.204969 1.520377 -0.204967
v -0.204969 1.953763 0.204967
v 0.204967 1.953763 0.204967
v 0.204967 1.953763 -0.204967
v -0.204969 1.953763 -0.204967
v -0.139381 1.589718 0.204967
v 0.139380 1.589718 0.204967
v 0.139380 1.884421 0.204967
v -0.139381 1.884421 0.204967
v 0.204967 1.589718 0.139377
v 0.204967 1.589718 -0.139376
v 0.204967 1.884421 -0.139376
v 0.204967 1.884421 0.139377
v -0.139381 1.589718 -0.204967
v 0.139380 1.589718 -0.204967
v -0.139381 1.884421 -0.204967
v 0.139380 1.884421 -0.204967
v -0.204969 1.589718 0.139377
v -0.204969 1.589718 -0.139376
v -0.204969 1.884421 0.139377
v -0.204969 1.884421 -0.139376
v -0.069687 1.663394 0.144422
v 0.069685 1.663394 0.144422
v 0.069685 1.810745 0.144422
v -0.069687 1.810745 0.144422
v 0.144419 1.663394 0.069691
v 0.144419 1.663394 -0.069686
v 0.144419 1.810745 -0.069686
v 0.144419 1.810745 0.069691
v -0.069687 1.663394 -0.144422
v 0.069685 1.663394 -0.144422
v -0.069687 1.810745 -0.144422
v 0.069685 1.810745 -0.144422
v -0.144421 1.663394 0.069691
v -0.144421 1.663394 -0.069686
v -0.144421 1.810745 0.069691
v -0.144421 1.810745 -0.069686
vt 0.198962 0.303024
vt 0.198962 0.303024
vt 0.198962 0.303024
vt 0.198962 0.303024
vt 0.198962 0.303024
vt 0.198962 0.303024
vt 0.198962 0.303024
vt 0.198962 0.303024
vt 0.198962 0.303024
vt 0.198962 0.303024
vt 0.198962 0.303024
vt 0.198962 0.303024
vt 0.198962 0.303024
vt 0.198962 0.303024
vt 0.198962 0.303024
vt 0.198962 0.303024
vt 0.198962 0.303024
vt 0.198962 0.303024
vt 0.198962 0.303024
vt 0.198962 0.303024
vt 0.198962 0.303024
vt 0.198962 0.303024
vt 0.198962 0.303024
vt 0.198962 0.303024
vt 0.198962 0.303024
vt 0.198962 0.303024
vt 0.198962 0.303024
vt 0.198962 0.303024
vt 0.198962 0.303024
vt 0.198962 0.303024
vt 0.198962 0.303024
vt 0.198962 0.303024
vt 0.198962 0.303024
vt 0.198962 0.303024
vt 0.198962 0.303024
vt 0.198962 0.303024
vt 0.198962 0.303024
vt 0.198962 0.303024
vt 0.198962 0.303024
vt 0.198962 0.303024
vt 0.198962 0.303024
vt 0.198962 0.303024
vt 0.198962 0.303024
vt 0.198962 0.303024
vt 0.198962 0.303024
vt 0.198962 0.303024
vt 0.198962 0.303024
vt 0.198962 0.303024
vt 0.198962 0.303024
vt 0.198962 0.303024
vt 0.198962 0.303024
vt 0.198962 0.303024
vt 0.198962 0.303024
vt 0.198962 0.303024
vt 0.198962 0.303024
vt 0.198962 0.303024
vt 0.198962 0.303024
vt 0.198962 0.303024
vt 0.198962 0.303024
vt 0.198962 0.303024
vt 0.198962 0.303024
vt 0.198962 0.303024
vt 0.198962 0.303024
vt 0.198962 0.303024
vn 0.000000 0.193830 0.981035
vn 0.000000 0.193830 0.981035
vn 0.000000 0.193830 0.981035
vn 0.000000 0.193830 0.981035
vn 0.000000 1.000000 0.000000
vn 0.000000 1.000000 0.000000
vn 0.000000 1.000000 0.000000
vn 0.000000 1.000000 0.000000
vn 0.000000 0.193830 -0.981035
vn 0.000000 0.193830 -0.981035
vn 0.000000 0.193830 -0.981035
vn 0.000000 0.193830 -0.981035
vn 0.000000 -1.000000 0.000000
vn 0.000000 -1.000000 0.000000
vn 0.000000 -1.000000 0.000000
vn 0.000000 -1.000000 0.000000
vn 0.981036 0.193824 0.000000
vn 0.981036 0.193824 0.000000
vn 0.981036 0.193825 0.000000
vn 0.981036 0.193825 0.000000
vn -0.981034 0.193835 0.000000
vn -0.981034 0.193835 0.000000
vn -0.981034 0.193835 0.000000
vn -0.981034 0.193835 0.000000
vn 0.000000 0.923370 0.383910
vn 0.000000 0.923370 0.383910
vn 0.000000 0.923370 0.383910
vn 0.000000 0.923370 0.383910
vn 0.383932 0.923361 0.000000
vn 0.383932 0.923361 0.000000
vn 0.383932 0.923361 0.000000
vn 0.383932 0.923361 0.000000
vn 0.000000 0.923370 -0.383910
vn 0.000000 0.923370 -0.383910
vn 0.000000 0.923370 -0.383910
vn 0.000000 0.923370 -0.383910
vn -0.383932 0.923361 0.000000
vn -0.383932 0.923361 0.000000
vn -0.383932 0.923361 0.000000
vn -0.383932 0.923361 0.000000
vn 0.000000 0.066551 0.997783
vn 0.000000 0.066551 0.997783
vn 0.000000 0.066551 0.997783
vn 0.000000 0.066551 0.997783
vn 0.997782 0.066560 0.000000
vn 0.997782 0.066560 0.000000
vn 0.997782 0.066560 0.000000
vn 0.997782 0.066560 0.000000
vn 0.000000 0.066552 -0.997783
vn 0.000000 0.066552 -0.997783
vn 0.000000 0.066552 -0.997783
vn 0.000000 0.066552 -0.997783
vn -0.997783 0.066559 0.000000
vn -0.997783 0.066559 0.000000
vn -0.997783 0.066559 0.000000
vn -0.997783 0.066559 0.000000
vn 0.000000 -0.889168 0.457580
vn 0.000000 -0.889168 0.457580
vn 0.000000 -0.889168 0.457580
vn 0.000000 -0.889168 0.457580
vn 0.457556 -0.889181 0.000000
vn 0.457556 -0.889181 0.000000
vn 0.457556 -0.889181 0.000000
vn 0.457556 -0.889181 0.000000
vn 0.000000 -0.889171 -0.457575
vn 0.000000 -0.889171 -0.457575
vn 0.000000 -0.889171 -0.457575
vn 0.000000 -0.889171 -0.457575
vn -0.457556 -0.889181 0.000000
vn -0.457556 -0.889181 0.000000
vn -0.457556 -0.889181 0.000000
vn -0.457556 -0.889181 0.000000
vn 0.000000 -0.089961 0.995945
vn 0.000000 -0.089961 0.995945
vn 0.000000 -0.089961 0.995945
vn 0.000000 -0.089961 0.995945
vn 0.995946 -0.089950 0.000000
vn 0.995946 -0.089950 0.000000
vn 0.995946 -0.089950 0.000000
vn 0.995946 -0.089950 0.000000
vn 0.000000 -0.089961 -0.995945
vn 0.000000 -0.089961 -0.995945
vn 0.000000 -0.089961 -0.995945
vn 0.000000 -0.089961 -0.995945
vn -0.995946 -0.089949 0.000000
vn -0.995946 -0.089949 0.000000
vn -0.995946 -0.089949 0.000000
vn -0.995946 -0.089949 0.000000
vn 0.000000 1.000000 -0.000001
vn 0.000000 1.000000 -0.000001
vn 0.000000 1.000000 -0.000001
vn 0.000000 1.000000 -0.000001
vn 0.000000 1.000000 0.000000
vn 0.000000 1.000000 0.000000
vn 0.000000 1.000000 0.000000
vn 0.000000 1.000000 0.000000
vn 0.000000 1.000000 0.000001
vn 0.000000 1.000000 0.000001
vn 0.000000 1.000000 0.000001
vn 0.000000 1.000000 0.000001
vn 0.000000 1.000000 0.000000
vn 0.000000 1.000000 0.000000
vn 0.000000 1.000000 0.000000
vn 0.000000 1.000000 0.000000
vn 0.000000 0.000000 1.000000
vn 0.000000 0.000000 1.000000
vn 0.000000 0.000000 1.000000
vn 0.000000 0.000000 1.000000
vn 1.000000 0.000000 0.000000
vn 1.000000 0.000000 0.000000
vn 1.000000 0.000000 0.000000
vn 1.000000 0.000000 0.000000
vn 0.000000 0.000000 -1.000000
vn 0.000000 0.000000 -1.000000
vn 0.000000 0.000000 -1.000000
vn 0.000000 0.000000 -1.000000
vn -1.000000 0.000000 0.000000
vn -1.000000 0.000000 0.000000
vn -1.000000 0.000000 0.000000
vn -1.000000 0.000000 0.000000
vn 0.000000 0.000000 1.000000
vn -0.000000 0.000000 1.000000
vn -0.000000 0.000000 1.000000
vn 0.000000 0.000000 1.000000
vn -0.000000 0.000000 1.000000
vn -0.000000 0.000000 1.000000
vn -0.000000 0.000000 1.000000
vn -0.000000 0.000000 1.000000
vn -0.000000 0.000000 1.000000
vn 0.000000 0.000000 1.000000
vn 0.000000 0.000000 1.000000
vn -0.000000 0.000000 1.000000
vn 0.000000 0.000000 1.000000
vn 0.000000 0.000000 1.000000
vn 0.000000 0.000000 1.000000
vn 0.000000 0.000000 1.000000
vn 1.000000 0.000000 0.000000
vn 1.000000 0.000000 0.000000
vn 1.000000 0.000000 0.000000
vn 1.000000 0.000000 0.000000
vn 1.000000 0.000000 0.000000
vn 1.000000 -0.000000 0.000000
vn 1.000000 -0.000000 0.000000
vn 1.000000 0.000000 0.000000
vn 1.000000 -0.000000 0.000000
vn 1.000000 -0.000000 0.000000
vn 1.000000 -0.000000 0.000000
vn 1.000000 -0.000000 0.000000
vn 1.000000 -0.000000 0.000000
vn 1.000000 0.000000 0.000000
vn 1.000000 0.000000 0.000000
vn 1.000000 -0.000000 0.000000
vn -0.000000 0.000000 -1.000000
vn 0.000000 0.000000 -1.000000
vn 0.000000 0.000000 -1.000000
vn -0.000000 0.000000 -1.000000
vn 0.000000 0.000000 -1.000000
vn 0.000000 0.000000 -1.000000
vn 0.000000 0.000000 -1.000000
vn 0.000000 0.000000 -1.000000
vn 0.000000 0.000000 -1.000000
vn -0.000000 0.000000 -1.000000
vn -0.000000 0.000000 -1.000000
vn 0.000000 0.000000 -1.000000
vn -0.000000 0.000000 -1.000000
vn -0.000000 0.000000 -1.000000
vn -0.000000 0.000000 -1.000000
vn -0.000000 0.000000 -1.000000
vn -1.000000 0.000000 0.000000
vn -1.000000 0.000000 0.000000
vn -1.000000 0.000000 0.000000
vn -1.000000 0.000000 0.000000
vn -1.000000 0.000000 0.000000
vn -1.000000 -0.000000 0.000000
vn -1.000000 -0.000000 0.000000
vn -1.000000 0.000000 0.000000
vn -1.000000 -0.000000 0.000000
vn -1.000000 -0.000000 0.000000
vn -1.000000 -0.000000 0.000000
vn -1.000000 -0.000000 0.000000
vn -1.000000 -0.000000 0.000000
vn -1.000000 0.000000 0.000000
vn -1.000000 0.000000 0.000000
vn -1.000000 -0.000000 0.000000
vn 0.000000 0.634900 0.772594
vn 0.000000 0.634900 0.772594
vn 0.000000 0.634900 0.772594
vn 0.000000 0.634900 0.772594
vn -0.655815 0.000000 0.754922
vn -0.655815 0.000000 0.754922
vn -0.655815 0.000000 0.754922
vn -0.655815 0.000000 0.754922
vn 0.000000 -0.634901 0.772594
vn 0.000000 -0.634901 0.772594
vn 0.000000 -0.634901 0.772594
vn 0.000000 -0.634901 0.772594
vn 0.655815 0.000000 0.754922
vn 0.655815 0.000000 0.754922
vn 0.655815 0.000000 0.754922
vn 0.655815 0.000000 0.754922
vn 0.772574 0.634924 0.000000
vn 0.772574 0.634924 0.000000
vn 0.772574 0.634924 0.000000
vn 0.772574 0.634924 0.000000
vn 0.754879 0.000000 0.655864
vn 0.754879 0.000000 0.655864
vn 0.754879 0.000000 0.655864
vn 0.754879 0.000000 0.655864
vn 0.772574 -0.634924 0.000000
vn 0.772574 -0.634924 0.000000
vn 0.772574 -0.634924 0.000000
vn 0.772574 -0.634924 0.000000
vn 0.754861 0.000000 -0.655885
vn 0.754861 0.000000 -0.655885
vn 0.754861 0.000000 -0.655885
vn 0.754861 0.000000 -0.655885
vn 0.000000 0.634900 -0.772594
vn 0.000000 0.634900 -0.772594
vn 0.000000 0.634900 -0.772594
vn 0.000000 0.634900 -0.772594
vn 0.655815 0.000000 -0.754922
vn 0.655815 0.000000 -0.754922
vn 0.655815 0.000000 -0.754922
vn 0.655815 0.000000 -0.754922
vn 0.000000 -0.634901 -0.772594
vn 0.000000 -0.634901 -0.772594
vn 0.000000 -0.634901 -0.772594
vn 0.000000 -0.634901 -0.772594
vn -0.655815 0.000000 -0.754922
vn -0.655815 0.000000 -0.754922
vn -0.655815 0.000000 -0.754922
vn -0.655815 0.000000 -0.754922
vn -0.772575 0.634924 0.000000
vn -0.772574 0.634924 0.000000
vn -0.772575 0.634924 0.000000
vn -0.772575 0.634924 0.000000
vn -0.754861 0.000000 -0.655885
vn -0.754861 0.000000 -0.655885
vn -0.754861 0.000000 -0.655885
vn -0.754861 0.000000 -0.655885
vn -0.772575 -0.634924 0.000000
vn -0.772575 -0.634924 0.000000
vn -0.772575 -0.634924 0.000000
vn -0.772575 -0.634924 0.000000
vn -0.754879 0.000000 0.655864
vn -0.754879 0.000000 0.655864
vn -0.754879 0.000000 0.655864
vn -0.754879 0.000000 0.655864
s off
f 1/1/1 2/2/2 4/3/3 3/4/4
f 29/5/5 30/6/6 31/7/7 32/8/8
f 5/9/9 6/10/10 8/11/11 7/12/12
f 7/12/13 8/11/14 2/2/15 1/1/16
f 2/2/17 8/11/18 6/10/19 4/3/20
f 7/12/21 1/1/22 3/4/23 5/9/24
f 3/4/25 4/3/26 10/13/27 9/14/28
f 4/3/29 6/10/30 11/15/31 10/13/32
f 6/10/33 5/9/34 12/16/35 11/15/36
f 5/9/37 3/4/38 9/14/39 12/16/40
f 9/14/41 10/13/42 14/17/43 13/18/44
f 10/13/45 11/15/46 15/19/47 14/17/48
f 11/15/49 12/16/50 16/20/51 15/19/52
f 12/16/53 9/14/54 13/18/55 16/20/56
f 13/18/57 14/17/58 18/21/59 17/22/60
f 14/17/61 15/19/62 19/23/63 18/21/64
f 15/19/65 16/20/66 20/24/67 19/23/68
f 16/20/69 13/18/70 17/22/71 20/24/72
f 17/22/73 18/21/74 22/25/75 21/26/76
f 18/21/77 19/23/78 23/27/79 22/25/80
f 19/23/81 20/24/82 24/28/83 23/27/84
f 20/24/85 17/22/86 21/26/87 24/28/88
f 21/26/89 22/25/90 26/29/91 25/30/92
f 22/25/93 23/27/94 27/31/95 26/29/96
f 23/27/97 24/28/98 28/32/99 27/31/100
f 24/28/101 21/26/102 25/30/103 28/32/104
f 49/33/105 50/34/106 51/35/107 52/36/108
f 53/37/109 54/38/110 55/39/111 56/40/112
f 58/41/113 57/42/114 59/43/115 60/44/116
f 62/45/117 61/46/118 63/47/119 64/48/120
f 25/30/121 26/29/122 34/49/123 33/50/124
f 26/29/125 30/6/126 35/51/127 34/49/128
f 30/6/129 29/5/130 36/52/131 35/51/132
f 29/5/133 25/30/134 33/50/135 36/52/136
f 26/29/137 27/31/138 38/53/139 37/54/140
f 27/31/141 31/7/142 39/55/143 38/53/144
f 31/7/145 30/6/146 40/56/147 39/55/148
f 30/6/149 26/29/150 37/54/151 40/56/152
f 27/31/153 28/32/154 41/57/155 42/58/156
f 28/32/157 32/8/158 43/59/159 41/57/160
f 32/8/161 31/7/162 44/60/163 43/59/164
f 31/7/165 27/31/166 42/58/167 44/60/168
f 28/32/169 25/30/170 45/61/171 46/62/172
f 25/30/173 29/5/174 47/63/175 45/61/176
f 29/5/177 32/8/178 48/64/179 47/63/180
f 32/8/181 28/32/182 46/62/183 48/64/184
f 33/50/185 34/49/186 50/34/187 49/33/188
f 34/49/189 35/51/190 51/35/191 50/34/192
f 35/51/193 36/52/194 52/36/195 51/35/196
f 36/52/197 33/50/198 49/33/199 52/36/200
f 37/54/201 38/53/202 54/38/203 53/37/204
f 38/53/205 39/55/206 55/39/207 54/38/208
f 39/55/209 40/56/210 56/40/211 55/39/212
f 40/56/213 37/54/214 53/37/215 56/40/216
f 42/58/217 41/57/218 57/42/219 58/41/220
f 41/57/221 43/59/222 59/43/223 57/42/224
f 43/59/225 44/60/226 60/44/227 59/43/228
f 44/60/229 42/58/230 58/41/231 60/44/232
f 46/62/233 45/61/234 61/46/235 62/45/236
f 45/61/237 47/63/238 63/47/239 61/46/240
f 47/63/241 48/64/242 64/48/243 63/47/244
f 48/64/245 46/62/246 62/45/247 64/48/248
