# This file uses centimeters as units for non-parametric coordinates.

v -0.121380 0.435451 0.141905
v 0.040997 0.435621 0.142195
v 0.074478 0.399978 0.129423
v 0.069717 0.364278 0.145819
v 0.071259 0.438458 0.128567
v -0.119801 0.356805 0.141638
v 0.111439 0.323025 0.149992
v 0.122940 0.226376 0.126482
v -0.124039 0.417284 0.034401
v -0.126404 0.250070 0.098917
v -0.090942 0.235067 0.127161
v 0.126511 0.364296 0.118755
v 0.126602 0.217558 0.109428
v -0.091553 0.439836 0.011826
v 0.120277 0.413276 0.075876
v -0.126587 0.194783 0.046640
v -0.090912 0.144343 0.103302
v 0.123585 0.102817 0.090153
v 0.088619 0.435775 0.069723
v -0.121857 0.135132 0.084213
v -0.111313 0.040629 0.073446
v -0.126598 0.039912 0.057482
v -0.124783 0.000000 0.059563
v 0.124901 0.000000 0.059563
v -0.006756 0.027500 0.069750
v -0.006935 0.000000 0.059574
v 0.049809 0.007751 0.054424
v 0.015877 0.002028 0.013748
v 0.123520 0.439878 0.000809
v 0.124413 0.000000 -0.175972
v -0.126495 0.006461 -0.038052
v -0.126587 0.384698 -0.007559
v -0.090481 0.435525 -0.047089
v -0.016415 0.000000 -0.091396
v 0.119415 0.422083 -0.159247
v -0.123512 0.439894 -0.105736
v -0.126534 0.136863 -0.177733
v -0.116219 0.020529 -0.163109
v -0.101147 0.001784 -0.110400
v 0.107986 0.432611 -0.160177
v 0.126472 0.356800 -0.175658
v -0.121029 0.055722 -0.186706
v 0.028282 0.439432 -0.188033
v -0.123444 0.439438 -0.187980
v -0.123234 0.274384 -0.187209
v 0.123489 0.103099 -0.186997
v 0.090527 0.424626 -0.186451
v -0.111729 0.206202 -0.188033
v 0.059372 0.185583 -0.188033
v -0.006268 0.103099 -0.185899
v 0.111862 0.000000 -0.187501
v -0.047852 0.000000 -0.187518
vt 0.211594 0.280109
vt 0.211594 0.299863
vt 0.211594 0.280109
vt 0.211594 0.299863
vt 0.211594 0.299863
vt 0.211594 0.299863
vt 0.211594 0.280109
vt 0.211594 0.299863
vt 0.211594 0.299863
vt 0.211594 0.280109
vt 0.211594 0.280109
vt 0.211594 0.299863
vt 0.211594 0.299863
vt 0.211594 0.299863
vt 0.211594 0.280109
vt 0.211594 0.299863
vt 0.211594 0.299863
vt 0.211594 0.280109
vt 0.211594 0.299863
vt 0.211594 0.280109
vt 0.211594 0.299863
vt 0.211594 0.299863
vt 0.211594 0.299863
vt 0.211594 0.299863
vt 0.211594 0.280109
vt 0.211594 0.299863
vt 0.211594 0.299863
vt 0.211594 0.299863
vt 0.211594 0.280109
vt 0.211594 0.299863
vt 0.211594 0.299863
vt 0.211594 0.280109
vt 0.211594 0.299863
vt 0.211594 0.280109
vt 0.211594 0.299863
vt 0.211594 0.280109
vt 0.211594 0.299863
vt 0.211594 0.280109
vt 0.211594 0.299863
vt 0.211594 0.299863
vt 0.211594 0.280109
vt 0.211594 0.280109
vt 0.211594 0.299863
vt 0.211594 0.299863
vt 0.211594 0.280109
vt 0.211594 0.299863
vt 0.211594 0.299863
vt 0.211594 0.299863
vt 0.211594 0.280109
vt 0.211594 0.299863
vt 0.211594 0.299863
vt 0.211594 0.299863
vt 0.211594 0.299863
vt 0.211594 0.299863
vt 0.211594 0.299863
vt 0.211594 0.299863
vt 0.211594 0.299863
vt 0.211594 0.299863
vt 0.211594 0.299863
vt 0.211594 0.280109
vt 0.211594 0.299863
vt 0.211594 0.280109
vt 0.211594 0.280109
vt 0.211594 0.299863
vt 0.211594 0.299863
vt 0.211594 0.299863
vt 0.211594 0.299863
vt 0.211594 0.299863
vt 0.211594 0.280109
vt 0.211594 0.280109
vt 0.211594 0.299863
vt 0.211594 0.299863
vt 0.211594 0.280109
vt 0.211594 0.280109
vt 0.211594 0.280109
vt 0.211594 0.280109
vt 0.211594 0.280109
vt 0.211594 0.299863
vt 0.211594 0.299863
vt 0.211594 0.299863
vt 0.211594 0.299863
vt 0.211594 0.299863
vt 0.211594 0.280109
vt 0.211594 0.299863
vt 0.211594 0.299863
vt 0.211594 0.280109
vt 0.211594 0.299863
vt 0.211594 0.299863
vt 0.211594 0.299863
vt 0.211594 0.299863
vt 0.211594 0.280109
vt 0.211594 0.299863
vt 0.211594 0.299863
vt 0.211594 0.299863
vt 0.211594 0.299863
vt 0.211594 0.299863
vt 0.211594 0.299863
vt 0.211594 0.299863
vt 0.211594 0.299863
vt 0.211594 0.299863
vt 0.211594 0.299863
vt 0.211594 0.299863
vt 0.211594 0.299863
vt 0.211594 0.280109
vt 0.211594 0.280109
vt 0.211594 0.299863
vt 0.211594 0.299863
vt 0.211594 0.299863
vt 0.211594 0.299863
vt 0.211594 0.299863
vt 0.211594 0.299863
vt 0.211594 0.280109
vt 0.211594 0.299863
vt 0.211594 0.299863
vt 0.211594 0.280109
vt 0.211594 0.280109
vt 0.211594 0.299863
vt 0.211594 0.299863
vt 0.211594 0.280109
vt 0.211594 0.280109
vt 0.211594 0.280109
vt 0.211594 0.299863
vt 0.211594 0.299863
vt 0.211594 0.280109
vt 0.211594 0.280109
vt 0.211594 0.299863
vt 0.211594 0.299863
vt 0.211594 0.299863
vt 0.211594 0.299863
vt 0.211594 0.280109
vt 0.211594 0.280109
vt 0.211594 0.299863
vt 0.211594 0.299863
vt 0.211594 0.280109
vt 0.211594 0.280109
vt 0.211594 0.299863
vt 0.211594 0.299863
vt 0.211594 0.299863
vt 0.211594 0.299863
vt 0.211594 0.299863
vt 0.211594 0.299863
vt 0.211594 0.299863
vt 0.211594 0.280109
vt 0.211594 0.280109
vt 0.211594 0.280109
vt 0.211594 0.299863
vt 0.211594 0.299863
vt 0.211594 0.280109
vt 0.211594 0.299863
vt 0.211594 0.299863
vt 0.211594 0.280109
vt 0.211594 0.280109
vt 0.211594 0.280109
vt 0.211594 0.299863
vt 0.211594 0.299863
vt 0.211594 0.299863
vt 0.211594 0.280109
vt 0.211594 0.280109
vt 0.211594 0.280109
vt 0.211594 0.280109
vt 0.211594 0.280109
vt 0.211594 0.280109
vt 0.211594 0.280109
vt 0.211594 0.299863
vt 0.211594 0.299863
vt 0.211594 0.299863
vt 0.211594 0.299863
vt 0.211594 0.299863
vt 0.211594 0.280109
vt 0.211594 0.280109
vt 0.211594 0.280109
vt 0.211594 0.299863
vt 0.211594 0.299863
vt 0.211594 0.299863
vt 0.211594 0.299863
vt 0.211594 0.280109
vt 0.211594 0.299863
vt 0.211594 0.280109
vt 0.211594 0.280109
vt 0.211594 0.299863
vt 0.211594 0.299863
vt 0.211594 0.280109
vt 0.211594 0.299863
vt 0.211594 0.299863
vt 0.211594 0.299863
vt 0.211594 0.280109
vt 0.211594 0.280109
vt 0.211594 0.299863
vt 0.211594 0.299863
vt 0.211594 0.299863
vt 0.211594 0.280109
vt 0.211594 0.280109
vt 0.211594 0.299863
vt 0.211594 0.299863
vt 0.211594 0.280109
vt 0.211594 0.280109
vt 0.211594 0.299863
vt 0.211594 0.299863
vt 0.211594 0.299863
vt 0.211594 0.299863
vt 0.211594 0.299863
vt 0.211594 0.280109
vt 0.211594 0.299863
vt 0.211594 0.280109
vt 0.211594 0.280109
vt 0.211594 0.280109
vt 0.211594 0.299863
vt 0.211594 0.280109
vt 0.211594 0.280109
vt 0.211594 0.280109
vt 0.211594 0.299863
vt 0.211594 0.299863
vt 0.211594 0.299863
vt 0.211594 0.299863
vt 0.211594 0.280109
vt 0.211594 0.299863
vt 0.211594 0.299863
vt 0.211594 0.299863
vt 0.211594 0.299863
vt 0.211594 0.280109
vt 0.211594 0.280109
vt 0.211594 0.299863
vt 0.211594 0.299863
vt 0.211594 0.299863
vt 0.211594 0.299863
vt 0.211594 0.299863
vt 0.211594 0.280109
vt 0.211594 0.280109
vt 0.211594 0.280109
vt 0.211594 0.280109
vt 0.211594 0.280109
vt 0.211594 0.280109
vt 0.211594 0.280109
vt 0.211594 0.299863
vt 0.211594 0.299863
vt 0.211594 0.280109
vt 0.211594 0.280109
vt 0.211594 0.299863
vt 0.211594 0.280109
vt 0.211594 0.280109
vt 0.211594 0.280109
vt 0.211594 0.280109
vt 0.211594 0.280109
vt 0.211594 0.299863
vt 0.211594 0.299863
vt 0.211594 0.299863
vt 0.211594 0.299863
vt 0.211594 0.299863
vt 0.211594 0.299863
vt 0.211594 0.280109
vt 0.211594 0.299863
vt 0.211594 0.299863
vt 0.211594 0.299863
vt 0.211594 0.299863
vt 0.211594 0.280109
vt 0.211594 0.299863
vt 0.211594 0.299863
vt 0.211594 0.299863
vt 0.211594 0.280109
vt 0.211594 0.280109
vt 0.211594 0.280109
vt 0.211594 0.280109
vt 0.211594 0.280109
vt 0.211594 0.280109
vt 0.211594 0.299863
vt 0.211594 0.299863
vt 0.211594 0.280109
vt 0.211594 0.299863
vt 0.211594 0.299863
vt 0.211594 0.299863
vt 0.211594 0.280109
vt 0.211594 0.280109
vt 0.211594 0.280109
vt 0.211594 0.299863
vt 0.211594 0.299863
vt 0.211594 0.299863
vt 0.211594 0.299863
vt 0.211594 0.280109
vt 0.211594 0.280109
vt 0.211594 0.280109
vt 0.211594 0.280109
vt 0.211594 0.299863
vt 0.211594 0.299863
vt 0.211594 0.299863
vt 0.211594 0.299863
vt 0.211594 0.280109
vt 0.211594 0.299863
vt 0.211594 0.299863
vt 0.211594 0.299863
vt 0.211594 0.299863
vt 0.211594 0.299863
vt 0.211594 0.299863
vt 0.211594 0.280109
vt 0.211594 0.299863
vt 0.211594 0.299863
vt 0.211594 0.280109
vt 0.211594 0.280109
vt 0.211594 0.280109
vn 0.405780 0.054257 0.912359
vn 0.405780 0.054257 0.912359
vn 0.405780 0.054257 0.912359
vn -0.021904 -0.003834 0.999753
vn -0.021904 -0.003834 0.999753
vn -0.021904 -0.003834 0.999753
vn -0.001836 0.049994 0.998748
vn -0.001836 0.049994 0.998748
vn -0.001836 0.049994 0.998748
vn -0.001384 0.979622 0.200845
vn -0.001384 0.979622 0.200845
vn -0.001384 0.979622 0.200845
vn 0.583048 0.273578 0.764991
vn 0.583048 0.273578 0.764991
vn 0.583048 0.273578 0.764991
vn -0.013481 0.999441 0.030598
vn -0.013481 0.999441 0.030598
vn -0.013481 0.999441 0.030598
vn 0.405017 0.336434 0.850161
vn 0.405017 0.336434 0.850161
vn 0.405017 0.336434 0.850161
vn 0.380565 0.465702 0.798931
vn 0.380565 0.465702 0.798931
vn 0.380565 0.465702 0.798931
vn -0.017079 -0.122059 0.992376
vn -0.017079 -0.122059 0.992376
vn -0.017079 -0.122059 0.992376
vn -0.002538 -0.139822 0.990173
vn -0.002538 -0.139822 0.990173
vn -0.002538 -0.139822 0.990173
vn 0.900065 0.001111 0.435754
vn 0.900065 0.001111 0.435754
vn 0.900065 0.001111 0.435754
vn -0.347650 -0.260473 0.900718
vn -0.347650 -0.260473 0.900718
vn -0.347650 -0.260473 0.900718
vn -0.979137 -0.020348 0.202182
vn -0.979137 -0.020348 0.202182
vn -0.979137 -0.020348 0.202182
vn -0.665047 -0.241679 0.706614
vn -0.665047 -0.241679 0.706614
vn -0.665047 -0.241679 0.706614
vn 0.748114 0.077262 0.659057
vn 0.748114 0.077262 0.659057
vn 0.748114 0.077262 0.659057
vn 0.531688 0.595172 0.602560
vn 0.531688 0.595172 0.602560
vn 0.531688 0.595172 0.602560
vn 0.976209 -0.013148 0.216431
vn 0.976209 -0.013148 0.216431
vn 0.976209 -0.013148 0.216431
vn -0.619509 0.776389 -0.115883
vn -0.619508 0.776389 -0.115883
vn -0.619508 0.776389 -0.115883
vn -0.999400 0.020636 0.027810
vn -0.999400 0.020636 0.027810
vn -0.999400 0.020636 0.027810
vn -0.884537 -0.118919 0.451057
vn -0.884537 -0.118919 0.451057
vn -0.884537 -0.118919 0.451057
vn -0.008418 -0.282114 0.959344
vn -0.008418 -0.282114 0.959344
vn -0.008418 -0.282114 0.959344
vn -0.656322 -0.517217 0.549297
vn -0.656322 -0.517217 0.549297
vn -0.656322 -0.517217 0.549297
vn 0.968006 -0.066121 0.242060
vn 0.968006 -0.066121 0.242060
vn 0.968006 -0.066121 0.242060
vn 0.558035 0.820003 0.127246
vn 0.558035 0.820003 0.127246
vn 0.558035 0.820003 0.127246
vn -0.998142 0.059135 0.014693
vn -0.998142 0.059135 0.014693
vn -0.998142 0.059135 0.014693
vn -0.485666 -0.152257 0.860782
vn -0.485666 -0.152257 0.860783
vn -0.485666 -0.152257 0.860782
vn 0.010048 -0.254322 0.967067
vn 0.010048 -0.254322 0.967067
vn 0.010048 -0.254322 0.967067
vn 0.033933 0.998792 -0.035534
vn 0.033933 0.998792 -0.035534
vn 0.033933 0.998792 -0.035534
vn 0.965086 0.230969 0.123538
vn 0.965086 0.230969 0.123538
vn 0.965086 0.230969 0.123538
vn -0.999996 0.000768 0.002691
vn -0.999996 0.000768 0.002691
vn -0.999996 0.000768 0.002691
vn -0.709755 -0.157418 0.686635
vn -0.709755 -0.157418 0.686635
vn -0.709755 -0.157418 0.686635
vn 0.006386 -0.271744 0.962348
vn 0.006386 -0.271744 0.962348
vn 0.006386 -0.271744 0.962348
vn 0.014638 -0.284963 0.958427
vn 0.014638 -0.284963 0.958427
vn 0.014638 -0.284963 0.958427
vn -0.006868 -0.321311 0.946949
vn -0.006868 -0.321311 0.946949
vn -0.006868 -0.321311 0.946949
vn -0.000744 -0.276496 0.961015
vn -0.000744 -0.276496 0.961015
vn -0.000744 -0.276496 0.961015
vn 0.131447 -0.344773 0.929437
vn 0.131447 -0.344773 0.929437
vn 0.131447 -0.344773 0.929437
vn -0.122797 -0.803615 0.582343
vn -0.122797 -0.803615 0.582343
vn -0.122797 -0.803615 0.582343
vn 0.511070 0.802981 0.306641
vn 0.511070 0.802981 0.306641
vn 0.511070 0.802981 0.306641
vn -0.722369 0.003189 0.691501
vn -0.722369 0.003189 0.691501
vn -0.722369 0.003189 0.691501
vn -0.000091 -0.347030 0.937854
vn -0.000091 -0.347030 0.937854
vn -0.000091 -0.347030 0.937854
vn 0.137492 -0.990197 0.024622
vn 0.137492 -0.990197 0.024622
vn 0.137492 -0.990197 0.024622
vn -0.564230 0.407530 0.718028
vn -0.564230 0.407530 0.718028
vn -0.564230 0.407530 0.718028
vn 0.999488 -0.028667 0.014184
vn 0.999488 -0.028667 0.014184
vn 0.999488 -0.028667 0.014184
vn 0.999908 0.013415 -0.002073
vn 0.999908 0.013415 -0.002073
vn 0.999908 0.013415 -0.002073
vn -0.115580 -0.965754 0.232293
vn -0.115580 -0.965754 0.232293
vn -0.115580 -0.965754 0.232293
vn -0.990052 0.009899 0.140357
vn -0.990051 0.009899 0.140357
vn -0.990052 0.009899 0.140357
vn -0.871454 0.411609 -0.266732
vn -0.871454 0.411609 -0.266732
vn -0.871454 0.411609 -0.266732
vn -1.000000 0.000098 0.000343
vn -1.000000 0.000098 0.000343
vn -1.000000 0.000098 0.000343
vn -0.600904 0.796320 -0.069201
vn -0.600904 0.796320 -0.069201
vn -0.600904 0.796320 -0.069201
vn -0.998895 -0.044685 0.014570
vn -0.998895 -0.044685 0.014570
vn -0.998895 -0.044685 0.014570
vn 0.002923 0.998138 0.060918
vn 0.002923 0.998138 0.060918
vn 0.002923 0.998138 0.060918
vn 0.999672 -0.000383 -0.025594
vn 0.999672 -0.000383 -0.025594
vn 0.999672 -0.000383 -0.025594
vn 0.000000 -1.000000 0.000000
vn 0.000000 -1.000000 0.000000
vn 0.000000 -1.000000 0.000000
vn -0.018128 -0.999751 -0.013013
vn -0.018128 -0.999751 -0.013013
vn -0.018128 -0.999751 -0.013013
vn 0.078697 -0.996886 -0.004941
vn 0.078697 -0.996886 -0.004941
vn 0.078697 -0.996886 -0.004941
vn -0.334523 -0.940699 -0.056393
vn -0.334523 -0.940699 -0.056393
vn -0.334523 -0.940699 -0.056393
vn -0.018614 -0.999827 0.000039
vn -0.018614 -0.999827 0.000039
vn -0.018614 -0.999827 0.000039
vn -0.585826 0.714143 0.383155
vn -0.585826 0.714143 0.383155
vn -0.585826 0.714143 0.383155
vn 0.678542 0.727950 -0.098336
vn 0.678542 0.727950 -0.098336
vn 0.678542 0.727950 -0.098336
vn 0.994126 0.108190 -0.002883
vn 0.994126 0.108190 -0.002883
vn 0.994126 0.108190 -0.002883
vn 1.000000 0.000633 -0.000146
vn 1.000000 0.000633 -0.000146
vn 1.000000 0.000633 -0.000146
vn -0.000311 0.999998 -0.002205
vn -0.000311 0.999997 -0.002205
vn -0.000311 0.999998 -0.002205
vn -0.121135 0.989827 -0.074631
vn -0.121135 0.989827 -0.074631
vn -0.121135 0.989827 -0.074631
vn -0.983123 0.172333 -0.061403
vn -0.983123 0.172333 -0.061403
vn -0.983123 0.172333 -0.061403
vn -0.545879 -0.826449 -0.137832
vn -0.545879 -0.826449 -0.137832
vn -0.545879 -0.826449 -0.137831
vn 0.033204 0.997899 0.055642
vn 0.033204 0.997899 0.055642
vn 0.033204 0.997899 0.055642
vn 0.104177 0.993043 -0.054884
vn 0.104177 0.993043 -0.054884
vn 0.104177 0.993043 -0.054884
vn -0.994909 -0.093073 -0.038637
vn -0.994909 -0.093073 -0.038637
vn -0.994909 -0.093073 -0.038637
vn 0.009778 -0.999820 0.016281
vn 0.009778 -0.999820 0.016281
vn 0.009778 -0.999820 0.016281
vn 0.999882 0.007520 -0.013403
vn 0.999882 0.007520 -0.013403
vn 0.999882 0.007520 -0.013403
vn 0.000000 -1.000000 0.000000
vn 0.000000 -1.000000 0.000000
vn 0.000000 -1.000000 0.000000
vn -0.993176 -0.077057 0.087541
vn -0.993176 -0.077057 0.087541
vn -0.993176 -0.077057 0.087541
vn -0.022712 -0.999715 0.007428
vn -0.022712 -0.999715 0.007428
vn -0.022712 -0.999714 0.007428
vn -0.998561 0.053611 -0.001131
vn -0.998561 0.053611 -0.001131
vn -0.998561 0.053611 -0.001131
vn -0.352405 -0.909009 -0.222517
vn -0.352405 -0.909009 -0.222517
vn -0.352405 -0.909009 -0.222517
vn 0.999916 -0.011486 -0.006065
vn 0.999916 -0.011486 -0.006065
vn 0.999916 -0.011486 -0.006065
vn -0.999949 0.005564 -0.008418
vn -0.999949 0.005564 -0.008418
vn -0.999949 0.005564 -0.008418
vn -0.999949 0.005564 -0.008418
vn 0.000033 0.999985 -0.005551
vn 0.000033 0.999985 -0.005551
vn 0.000033 0.999985 -0.005551
vn 0.220535 0.882771 -0.414825
vn 0.220535 0.882771 -0.414825
vn 0.220535 0.882771 -0.414825
vn -0.999840 -0.001354 -0.017830
vn -0.999840 -0.001354 -0.017830
vn -0.999840 -0.001354 -0.017830
vn 0.583404 0.583449 -0.565002
vn 0.583404 0.583449 -0.565002
vn 0.583404 0.583449 -0.565002
vn 0.674724 -0.072506 -0.734500
vn 0.674724 -0.072506 -0.734500
vn 0.674724 -0.072506 -0.734500
vn 0.000000 -1.000000 0.000000
vn 0.000000 -1.000000 0.000000
vn 0.000000 -1.000000 0.000000
vn 0.019878 -0.023239 -0.999532
vn 0.019878 -0.023239 -0.999532
vn 0.019878 -0.023239 -0.999532
vn 0.675671 0.247593 -0.694382
vn 0.675671 0.247593 -0.694382
vn 0.675671 0.247593 -0.694382
vn -0.000352 -0.004669 -0.999989
vn -0.000352 -0.004669 -0.999989
vn -0.000352 -0.004669 -0.999989
vn -0.004422 0.011338 -0.999926
vn -0.004422 0.011338 -0.999926
vn -0.004422 0.011338 -0.999926
vn 0.351889 0.037665 -0.935284
vn 0.351889 0.037665 -0.935284
vn 0.351889 0.037665 -0.935284
vn -0.386826 -0.054148 -0.920562
vn -0.386826 -0.054148 -0.920562
vn -0.386826 -0.054148 -0.920562
vn 0.000785 0.006516 -0.999979
vn 0.000785 0.006516 -0.999978
vn 0.000785 0.006516 -0.999978
vn -0.002845 -0.023605 -0.999717
vn -0.002845 -0.023605 -0.999717
vn -0.002845 -0.023605 -0.999717
vn 0.021120 0.003864 -0.999770
vn 0.021120 0.003864 -0.999770
vn 0.021120 0.003864 -0.999770
vn -0.677017 0.035357 -0.735118
vn -0.677017 0.035357 -0.735118
vn -0.677016 0.035357 -0.735118
vn -0.105192 0.058021 -0.992758
vn -0.105192 0.058021 -0.992758
vn -0.105192 0.058021 -0.992758
vn 0.010950 -0.009498 -0.999895
vn 0.010950 -0.009498 -0.999895
vn 0.010950 -0.009498 -0.999895
vn 0.000108 -0.002837 -0.999996
vn 0.000108 -0.002837 -0.999996
vn 0.000108 -0.002837 -0.999996
vn 0.019590 0.002674 -0.999805
vn 0.019590 0.002674 -0.999805
vn 0.019590 0.002674 -0.999805
vn 0.000655 0.015441 -0.999881
vn 0.000655 0.015441 -0.999881
vn 0.000655 0.015441 -0.999881
vn -0.422238 -0.543933 -0.725156
vn -0.422238 -0.543933 -0.725156
vn -0.422238 -0.543933 -0.725156
s off
f 5/1/1 2/280/2 3/262/3
f 1/247/4 6/265/5 4/269/6
f 2/282/7 1/246/8 4/270/9
f 5/275/10 1/245/11 2/2/12
f 2/281/13 4/271/14 3/261/15
f 14/201/16 1/244/17 5/276/18
f 3/3/19 4/272/20 12/162/21
f 12/161/22 4/273/23 7/297/24
f 4/268/25 6/266/26 11/251/27
f 4/6/28 11/252/29 8/257/30
f 12/160/31 7/298/32 8/259/33
f 7/9/34 4/274/35 8/258/36
f 1/248/37 10/190/38 6/5/39
f 11/250/40 6/267/41 10/191/42
f 15/240/43 5/279/44 3/263/45
f 15/239/46 3/264/47 12/163/48
f 13/131/49 12/159/50 8/260/51
f 1/243/52 14/202/53 9/15/54
f 1/249/55 32/137/56 10/12/57
f 11/255/58 16/205/59 17/18/60
f 8/256/61 11/253/62 18/214/63
f 10/192/64 16/204/65 11/10/66
f 13/130/67 8/11/68 18/215/69
f 15/241/70 19/187/71 5/278/72
f 9/194/73 32/136/74 1/4/75
f 17/220/76 20/209/77 21/233/78
f 11/254/79 17/217/80 18/213/81
f 19/188/82 14/200/83 5/277/84
f 29/181/85 15/13/86 12/164/87
f 10/193/88 32/138/89 16/203/90
f 20/210/91 22/124/92 21/232/93
f 18/212/94 17/218/95 25/225/96
f 18/211/97 25/226/98 24/238/99
f 21/22/100 23/172/101 25/223/102
f 17/219/103 21/234/104 25/224/105
f 25/25/106 26/178/107 27/230/108
f 24/237/109 25/227/110 27/29/111
f 19/20/112 15/242/113 29/182/114
f 21/231/115 22/125/116 23/171/117
f 25/222/118 23/173/119 26/177/120
f 27/229/121 26/179/122 28/152/123
f 17/221/124 16/206/125 20/208/126
f 13/129/127 18/216/128 30/110/129
f 30/109/130 18/19/131 24/26/132
f 28/153/133 24/236/134 27/228/135
f 16/207/136 22/123/137 20/21/138
f 9/195/139 33/170/140 32/135/141
f 32/139/142 22/122/143 16/17/144
f 14/7/145 33/169/146 9/196/147
f 22/126/148 31/156/149 23/27/150
f 29/183/151 14/199/152 19/189/153
f 35/147/154 29/23/155 12/165/156
f 23/174/157 34/96/158 26/28/159
f 39/294/160 34/95/161 23/175/162
f 34/97/163 28/30/164 26/180/165
f 31/157/166 39/293/167 23/176/168
f 28/154/169 30/108/170 24/235/171
f 33/32/172 36/151/173 32/134/174
f 40/38/175 29/186/176 35/148/177
f 35/146/178 12/166/179 41/114/180
f 41/113/181 12/8/182 13/132/183
f 29/184/184 43/288/185 14/198/186
f 14/197/187 43/289/188 33/168/189
f 22/127/190 38/118/191 31/33/192
f 31/158/193 38/119/194 39/36/195
f 43/290/196 36/150/197 33/167/198
f 40/142/199 43/287/200 29/185/201
f 37/72/202 38/117/203 22/128/204
f 34/98/205 30/107/206 28/155/207
f 13/14/208 30/111/209 46/84/210
f 51/59/211 30/31/212 34/99/213
f 37/73/214 42/62/215 38/41/216
f 39/295/217 52/106/218 34/35/219
f 36/37/220 44/88/221 32/16/222
f 38/120/223 52/105/224 39/296/225
f 46/85/226 41/39/227 13/133/228
f 32/140/229 45/90/230 37/71/231 22/24/232
f 44/87/233 36/149/234 43/291/235
f 47/77/236 43/286/237 40/143/238
f 32/141/239 44/89/240 45/48/241
f 35/34/242 47/76/243 40/144/244
f 46/83/245 30/112/246 51/60/247
f 52/46/248 51/58/249 34/100/250
f 47/78/251 45/93/252 43/40/253
f 47/75/254 35/145/255 41/115/256
f 44/47/257 43/292/258 45/94/259
f 45/92/260 47/79/261 48/68/262
f 47/49/263 41/116/264 46/86/265
f 45/91/266 48/69/267 37/42/268
f 48/67/269 47/80/270 49/54/271
f 48/66/272 49/55/273 50/284/274
f 47/81/275 46/43/276 49/53/277
f 37/74/278 48/70/279 42/45/280
f 50/283/281 49/56/282 52/102/283
f 48/50/284 50/285/285 42/65/286
f 52/101/287 49/57/288 51/44/289
f 49/51/290 46/82/291 51/61/292
f 42/64/293 50/52/294 52/103/295
f 42/63/296 52/104/297 38/121/298
