# This file uses centimeters as units for non-parametric coordinates.

v -0.307377 -0.100580 0.181580
v 0.307379 0.100580 0.181580
v -0.307377 0.100580 -0.181581
v 0.307379 -0.100580 -0.181581
v 0.153688 -0.100580 0.181580
v -0.153688 0.100580 0.181580
v 0.153688 0.100580 -0.181581
v -0.153688 -0.100580 -0.181581
v -0.307377 0.050290 0.181580
v 0.307379 -0.050290 0.181580
v -0.307377 0.100580 0.090789
v 0.307379 0.100580 -0.090791
v -0.307377 -0.050290 -0.181581
v 0.307379 0.050290 -0.181581
v -0.307377 -0.100580 -0.090791
v 0.307379 -0.100580 0.090789
v 0.038864 0.100580 0.181580
v 0.094454 0.100580 0.005770
v 0.150938 0.100580 0.181580
v 0.106535 -0.017970 0.181580
v 0.102421 0.084808 0.152391
vt 0.211923 0.303946
vt 0.211923 0.303946
vt 0.211923 0.303946
vt 0.211923 0.303946
vt 0.211923 0.303946
vt 0.211923 0.303946
vt 0.211923 0.303946
vt 0.211923 0.303946
vt 0.211923 0.303946
vt 0.211923 0.303946
vt 0.211923 0.303946
vt 0.211923 0.303946
vt 0.211923 0.303946
vt 0.211923 0.303946
vt 0.211923 0.303946
vt 0.211923 0.303946
vt 0.211923 0.303946
vt 0.211923 0.303946
vt 0.211923 0.303946
vt 0.211923 0.303946
vt 0.211923 0.303946
vn 0.275187 -0.840993 0.465835
vn 0.275187 -0.840993 0.465835
vn 0.275187 -0.840993 0.465835
vn 0.275186 0.840991 -0.465839
vn 0.275186 0.840991 -0.465839
vn 0.275186 0.840991 -0.465839
vn -0.275190 0.840992 0.465835
vn -0.275190 0.840992 0.465835
vn -0.275190 0.840992 0.465835
vn 0.000000 0.000000 1.000000
vn 0.000000 0.000000 1.000000
vn 0.000000 0.000000 1.000000
vn 0.000000 0.000000 1.000000
vn 0.000000 0.000000 1.000000
vn 0.000000 0.000000 1.000000
vn -0.275189 -0.840991 -0.465839
vn -0.275189 -0.840991 -0.465839
vn -0.275189 -0.840991 -0.465839
vn 1.000000 -0.000000 0.000000
vn 1.000000 -0.000000 0.000000
vn 1.000000 -0.000000 0.000000
vn 1.000000 -0.000000 0.000000
vn 1.000000 -0.000000 0.000000
vn 1.000000 -0.000000 0.000000
vn 0.000000 1.000000 0.000000
vn 0.000000 1.000000 0.000000
vn 0.000000 1.000000 0.000000
vn 0.000000 1.000000 0.000000
vn 0.000000 1.000000 0.000000
vn 0.000000 1.000000 0.000000
vn 0.000000 0.000000 -1.000000
vn 0.000000 0.000000 -1.000000
vn 0.000000 0.000000 -1.000000
vn 0.000000 0.000000 -1.000000
vn 0.000000 0.000000 -1.000000
vn 0.000000 0.000000 -1.000000
vn 0.000000 -1.000000 0.000000
vn 0.000000 -1.000000 0.000000
vn 0.000000 -1.000000 0.000000
vn 0.000000 -1.000000 0.000000
vn 0.000000 -1.000000 0.000000
vn 0.000000 -1.000000 0.000000
vn -1.000000 0.000000 0.000000
vn -1.000000 0.000000 0.000000
vn -1.000000 0.000000 0.000000
vn -1.000000 0.000000 0.000000
vn -1.000000 0.000000 0.000000
vn -1.000000 0.000000 0.000000
vn 0.000000 0.000000 1.000000
vn 0.000000 0.000000 1.000000
vn 0.000000 0.000000 1.000000
vn 0.000000 0.000000 1.000000
vn 0.000000 0.000000 1.000000
vn 0.000000 1.000000 0.000000
vn 0.000000 1.000000 0.000000
vn 0.000000 1.000000 0.000000
vn 0.000000 1.000000 0.000000
vn 0.000000 1.000000 0.000000
vn -0.371093 0.920910 0.119225
vn -0.371093 0.920910 0.119225
vn -0.371093 0.920910 0.119225
vn -0.552883 0.207083 0.807117
vn -0.552883 0.207083 0.807117
vn -0.552883 0.207083 0.807116
vn 0.277722 0.956639 0.087814
vn 0.277722 0.956640 0.087814
vn 0.277722 0.956640 0.087814
vn 0.455528 0.260025 0.851399
vn 0.455528 0.260025 0.851399
vn 0.455528 0.260025 0.851399
s off
f 16/1/1 10/2/2 5/3/3
f 12/4/4 14/5/5 7/6/6
f 11/7/7 9/8/8 6/9/9
f 1/10/10 5/3/11 20/11/12 17/12/13 6/9/14 9/8/15
f 15/13/16 13/14/17 8/15/18
f 10/2/19 16/1/20 4/16/21 14/5/22 12/4/23 2/17/24
f 11/7/25 6/9/26 17/12/27 18/18/28 7/6/29 3/19/30
f 3/19/31 7/6/32 14/5/33 4/16/34 8/15/35 13/14/36
f 15/13/37 8/15/38 4/16/39 16/1/40 5/3/41 1/10/42
f 13/14/43 15/13/44 1/10/45 9/8/46 11/7/47 3/19/48
f 19/20/49 20/11/50 5/3/51 10/2/52 2/17/53
f 7/6/54 18/18/55 19/20/56 2/17/57 12/4/58
f 19/20/59 18/18/60 21/21/61
f 21/21/62 20/11/63 19/20/64
f 21/21/65 18/18/66 17/12/67
f 17/12/68 20/11/69 21/21/70
