# This file uses centimeters as units for non-parametric coordinates.

v -0.028537 0.235248 0.553693
v 0.302898 0.155037 0.419140
v -0.120124 -0.155788 0.516926
v 0.267932 0.950036 0.230549
v 0.058928 -0.539440 0.352008
v -0.157272 0.094318 0.529496
v -0.023319 0.958914 0.381217
v 0.394253 0.367635 0.305709
v 0.036535 1.079621 0.329078
v 0.434971 -0.189429 0.287849
v 0.214006 -0.557954 0.292442
v 0.463450 0.101114 0.236915
v -0.412613 0.258589 0.331975
v -0.494606 0.038672 0.229800
v 0.039899 -0.705953 0.187546
v 0.112803 1.288439 0.152166
v -0.369192 0.902379 0.173369
v -0.053811 1.418435 0.042546
v -0.434879 0.759547 0.043826
v -0.397905 -0.389903 -0.044713
v 0.246957 -0.701577 -0.146877
v 0.192653 1.168546 -0.120782
v 0.512929 -0.196061 -0.125875
v 0.110701 -0.779198 -0.136243
v 0.125964 0.998628 -0.262006
v 0.364436 0.182681 -0.390995
v -0.495340 0.415274 0.020591
v -0.381657 0.722755 -0.199157
v -0.449148 0.424486 -0.209078
v -0.250474 -0.477559 -0.334238
v -0.158363 0.497408 -0.442147
v 0.263973 -0.039307 -0.435414
v -0.380594 0.053978 -0.379167
v -0.162495 0.148968 -0.533389
v -0.177102 -0.206749 -0.450577
v -0.026037 0.627451 -0.391961
v 0.060366 0.066019 -0.510266
v -0.102952 0.061557 -0.548269
vt 0.211594 0.300503
vt 0.211594 0.300503
vt 0.211594 0.300503
vt 0.211594 0.300503
vt 0.211594 0.300503
vt 0.211594 0.300503
vt 0.211594 0.300503
vt 0.211594 0.300503
vt 0.211594 0.300503
vt 0.211594 0.300503
vt 0.211594 0.300503
vt 0.211594 0.300503
vt 0.211594 0.300503
vt 0.211594 0.300503
vt 0.211594 0.300503
vt 0.211594 0.300503
vt 0.211594 0.300503
vt 0.211594 0.300503
vt 0.211594 0.300503
vt 0.211594 0.300503
vt 0.211594 0.300503
vt 0.211594 0.300503
vt 0.211594 0.300503
vt 0.211594 0.300503
vt 0.211594 0.300503
vt 0.211594 0.300503
vt 0.211594 0.300503
vt 0.211594 0.300503
vt 0.211594 0.300503
vt 0.211594 0.300503
vt 0.211594 0.300503
vt 0.211594 0.300503
vt 0.211594 0.300503
vt 0.211594 0.300503
vt 0.211594 0.300503
vt 0.211594 0.300503
vt 0.211594 0.300503
vt 0.211594 0.300503
vn -0.113349 -0.066660 0.991317
vn -0.113349 -0.066660 0.991317
vn -0.113349 -0.066660 0.991316
vn 0.336206 -0.165911 0.927059
vn 0.336206 -0.165911 0.927059
vn 0.336206 -0.165911 0.927059
vn 0.432001 0.216609 0.875474
vn 0.432001 0.216609 0.875474
vn 0.432001 0.216609 0.875474
vn 0.432001 0.216609 0.875474
vn -0.466674 0.282390 0.838135
vn -0.466674 0.282390 0.838135
vn -0.466674 0.282390 0.838135
vn -0.659162 -0.135087 0.739768
vn -0.659162 -0.135087 0.739768
vn -0.659162 -0.135087 0.739768
vn 0.368266 -0.216768 0.904097
vn 0.368266 -0.216768 0.904097
vn 0.368266 -0.216768 0.904097
vn -0.671324 -0.534170 0.513796
vn -0.671324 -0.534170 0.513796
vn -0.671324 -0.534170 0.513796
vn 0.329546 -0.204861 0.921646
vn 0.329546 -0.204861 0.921646
vn 0.329546 -0.204861 0.921646
vn -0.641019 -0.113669 0.759061
vn -0.641019 -0.113669 0.759061
vn -0.641019 -0.113669 0.759061
vn 0.457813 0.151399 0.876062
vn 0.457813 0.151399 0.876062
vn 0.457813 0.151399 0.876062
vn -0.479704 0.206697 0.852737
vn -0.479704 0.206697 0.852737
vn -0.479704 0.206697 0.852737
vn 0.517474 0.218990 0.827203
vn 0.517474 0.218990 0.827202
vn 0.517474 0.218990 0.827202
vn 0.363688 -0.206745 0.908288
vn 0.363688 -0.206745 0.908288
vn 0.363688 -0.206744 0.908288
vn 0.836726 -0.498879 0.225851
vn 0.836726 -0.498879 0.225851
vn 0.836726 -0.498879 0.225851
vn 0.753905 0.026294 0.656457
vn 0.753905 0.026294 0.656457
vn 0.753905 0.026294 0.656457
vn 0.755621 0.040541 0.653753
vn 0.755621 0.040541 0.653753
vn 0.755621 0.040541 0.653753
vn -0.406034 0.524567 0.748309
vn -0.406034 0.524567 0.748309
vn -0.406034 0.524567 0.748309
vn 0.968725 0.223913 0.106932
vn 0.968725 0.223913 0.106932
vn 0.968725 0.223913 0.106932
vn 0.181013 -0.701498 0.689300
vn 0.181013 -0.701498 0.689300
vn 0.181013 -0.701498 0.689300
vn -0.936591 0.142085 0.320326
vn -0.936591 0.142085 0.320326
vn -0.936591 0.142085 0.320326
vn -0.528583 0.236502 0.815271
vn -0.528583 0.236502 0.815271
vn -0.528583 0.236502 0.815271
vn -0.922202 0.186418 0.338811
vn -0.922202 0.186418 0.338811
vn -0.922202 0.186418 0.338811
vn -0.506547 0.489505 0.709785
vn -0.506547 0.489505 0.709785
vn -0.506547 0.489505 0.709785
vn 0.505132 -0.808414 0.302174
vn 0.505132 -0.808414 0.302174
vn 0.505132 -0.808414 0.302174
vn 0.543880 0.417880 0.727716
vn 0.543880 0.417880 0.727716
vn 0.543880 0.417880 0.727716
vn 0.001828 0.646019 0.763319
vn 0.001828 0.646019 0.763319
vn 0.001828 0.646019 0.763319
vn -0.659803 -0.505185 0.556281
vn -0.659803 -0.505185 0.556281
vn -0.659803 -0.505185 0.556281
vn 0.868971 -0.464312 0.171183
vn 0.868971 -0.464312 0.171183
vn 0.868971 -0.464312 0.171183
vn -0.646904 -0.497171 0.578218
vn -0.646904 -0.497171 0.578218
vn -0.646904 -0.497171 0.578218
vn -0.860286 0.497329 -0.112124
vn -0.860286 0.497329 -0.112124
vn -0.860286 0.497329 -0.112124
vn -0.977681 -0.103480 -0.182845
vn -0.977681 -0.103480 -0.182845
vn -0.977681 -0.103480 -0.182845
vn -0.937405 0.143203 0.317435
vn -0.937405 0.143203 0.317435
vn -0.937405 0.143203 0.317435
vn 0.661863 0.738158 -0.130613
vn 0.661863 0.738158 -0.130613
vn 0.661863 0.738158 -0.130613
vn 0.980534 -0.063545 0.185781
vn 0.980534 -0.063545 0.185781
vn 0.980534 -0.063545 0.185781
vn 0.899865 0.429763 0.074477
vn 0.899865 0.429763 0.074477
vn 0.899865 0.429763 0.074477
vn 0.490434 -0.820778 0.292912
vn 0.490434 -0.820778 0.292912
vn 0.490434 -0.820778 0.292912
vn -0.976887 -0.103023 -0.187294
vn -0.976887 -0.103023 -0.187294
vn -0.976887 -0.103023 -0.187294
vn 0.973324 0.223791 -0.050571
vn 0.973324 0.223791 -0.050571
vn 0.973324 0.223791 -0.050571
vn -0.836899 0.483522 -0.256528
vn -0.836899 0.483522 -0.256528
vn -0.836899 0.483522 -0.256528
vn -0.965355 0.182146 -0.186851
vn -0.965355 0.182146 -0.186851
vn -0.965355 0.182146 -0.186851
vn -0.650225 -0.759166 0.029551
vn -0.650225 -0.759167 0.029551
vn -0.650225 -0.759166 0.029551
vn 0.976922 0.194451 -0.088386
vn 0.976922 0.194451 -0.088386
vn 0.976922 0.194451 -0.088386
vn -0.944946 0.221822 -0.240568
vn -0.944945 0.221822 -0.240568
vn -0.944946 0.221822 -0.240568
vn -0.975799 -0.088818 -0.199820
vn -0.975799 -0.088818 -0.199820
vn -0.975799 -0.088818 -0.199820
vn 0.100979 0.612178 -0.784245
vn 0.100979 0.612178 -0.784245
vn 0.100979 0.612178 -0.784245
vn 0.668101 0.302714 -0.679710
vn 0.668101 0.302714 -0.679710
vn 0.668101 0.302714 -0.679710
vn -0.570099 -0.820507 -0.041889
vn -0.570099 -0.820507 -0.041889
vn -0.570099 -0.820508 -0.041889
vn 0.654763 -0.315970 -0.686621
vn 0.654763 -0.315970 -0.686621
vn 0.654763 -0.315970 -0.686621
vn 0.138373 -0.422330 -0.895818
vn 0.138373 -0.422330 -0.895818
vn 0.138373 -0.422330 -0.895818
vn -0.891311 -0.250155 -0.378135
vn -0.891311 -0.250155 -0.378135
vn -0.891311 -0.250155 -0.378135
vn 0.952054 0.255735 -0.167908
vn 0.952054 0.255735 -0.167908
vn 0.952054 0.255735 -0.167908
vn 0.163721 -0.410307 -0.897131
vn 0.163721 -0.410307 -0.897131
vn 0.163721 -0.410307 -0.897131
vn -0.396444 0.462383 -0.793117
vn -0.396444 0.462383 -0.793117
vn -0.396444 0.462383 -0.793116
vn 0.181528 -0.396697 -0.899821
vn 0.181528 -0.396697 -0.899821
vn 0.181528 -0.396697 -0.899821
vn -0.304541 0.470426 -0.828224
vn -0.304541 0.470426 -0.828224
vn -0.304541 0.470426 -0.828224
vn 0.715994 -0.189591 -0.671869
vn 0.715994 -0.189591 -0.671869
vn 0.715994 -0.189591 -0.671869
vn -0.544613 -0.202122 -0.813968
vn -0.544613 -0.202122 -0.813968
vn -0.544613 -0.202122 -0.813968
vn 0.055896 0.309464 -0.949267
vn 0.055896 0.309464 -0.949267
vn 0.055896 0.309464 -0.949267
vn -0.660014 0.173658 -0.730907
vn -0.660014 0.173658 -0.730907
vn -0.660014 0.173658 -0.730907
vn -0.626206 0.226601 -0.746002
vn -0.626206 0.226601 -0.746002
vn -0.626205 0.226601 -0.746002
vn -0.617842 0.206031 -0.758830
vn -0.617842 0.206031 -0.758830
vn -0.617842 0.206031 -0.758830
vn -0.516945 -0.173900 -0.838168
vn -0.516945 -0.173900 -0.838168
vn -0.516945 -0.173900 -0.838168
vn 0.356542 0.025521 -0.933931
vn 0.356542 0.025521 -0.933931
vn 0.356542 0.025521 -0.933931
vn 0.257239 0.223794 -0.940077
vn 0.257239 0.223794 -0.940077
vn 0.257239 0.223794 -0.940077
vn 0.162263 -0.343672 -0.924965
vn 0.162263 -0.343672 -0.924965
vn 0.162263 -0.343672 -0.924965
vn 0.119585 0.249200 -0.961040
vn 0.119585 0.249200 -0.961040
vn 0.119585 0.249200 -0.961040
vn 0.126913 0.249860 -0.959929
vn 0.126913 0.249860 -0.959929
vn 0.126913 0.249861 -0.959929
vn -0.479311 -0.180279 -0.858930
vn -0.479311 -0.180279 -0.858930
vn -0.479311 -0.180279 -0.858930
vn 0.273958 0.238490 -0.931702
vn 0.273958 0.238490 -0.931702
vn 0.273958 0.238490 -0.931702
vn 0.219017 -0.386703 -0.895820
vn 0.219017 -0.386703 -0.895820
vn 0.219017 -0.386703 -0.895820
vn 0.214367 0.232877 -0.948586
vn 0.214367 0.232877 -0.948586
vn 0.214367 0.232877 -0.948586
s off
f 1/1/1 6/2/2 3/3/3
f 3/3/4 2/4/5 1/1/6
f 1/1/7 2/4/8 4/5/9 7/6/10
f 6/2/11 1/1/12 13/7/13
f 6/2/14 13/7/15 3/3/16
f 2/4/17 3/3/18 5/8/19
f 5/8/20 3/3/21 14/9/22
f 11/10/23 2/4/24 5/8/25
f 13/7/26 14/9/27 3/3/28
f 7/6/29 4/5/30 9/11/31
f 1/1/32 7/6/33 13/7/34
f 4/5/35 2/4/36 8/12/37
f 2/4/38 11/10/39 10/13/40
f 21/14/41 10/13/42 11/10/43
f 2/4/44 12/15/45 8/12/46
f 2/4/47 10/13/48 12/15/49
f 18/16/50 7/6/51 9/11/52
f 8/12/53 12/15/54 4/5/55
f 11/10/56 5/8/57 15/17/58
f 27/18/59 13/7/60 17/19/61
f 13/7/62 7/6/63 17/19/64
f 13/7/65 27/18/66 14/9/67
f 7/6/68 18/16/69 17/19/70
f 21/14/71 11/10/72 15/17/73
f 9/11/74 4/5/75 16/20/76
f 16/20/77 18/16/78 9/11/79
f 20/21/80 15/17/81 14/9/82
f 10/13/83 21/14/84 23/22/85
f 14/9/86 15/17/87 5/8/88
f 19/23/89 17/19/90 18/16/91
f 27/18/92 20/21/93 14/9/94
f 27/18/95 17/19/96 19/23/97
f 18/16/98 16/20/99 22/24/100
f 12/15/101 10/13/102 23/22/103
f 22/24/104 16/20/105 4/5/106
f 15/17/107 24/25/108 21/14/109
f 27/18/110 33/26/111 20/21/112
f 23/22/113 4/5/114 12/15/115
f 28/27/116 19/23/117 18/16/118
f 19/23/119 29/28/120 27/18/121
f 24/25/122 15/17/123 30/29/124
f 4/5/125 26/30/126 22/24/127
f 19/23/128 28/27/129 29/28/130
f 27/18/131 29/28/132 33/26/133
f 25/31/134 18/16/135 22/24/136
f 22/24/137 26/30/138 25/31/139
f 20/21/140 30/29/141 15/17/142
f 21/14/143 32/32/144 23/22/145
f 35/33/146 24/25/147 30/29/148
f 20/21/149 33/26/150 30/29/151
f 23/22/152 26/30/153 4/5/154
f 35/33/155 21/14/156 24/25/157
f 31/34/158 28/27/159 18/16/160
f 35/33/161 32/32/162 21/14/163
f 25/31/164 31/34/165 18/16/166
f 32/32/167 26/30/168 23/22/169
f 30/29/170 33/26/171 35/33/172
f 36/35/173 31/34/174 25/31/175
f 29/28/176 28/27/177 34/36/178
f 33/26/179 29/28/180 34/36/181
f 28/27/182 31/34/183 34/36/184
f 33/26/185 34/36/186 35/33/187
f 37/37/188 26/30/189 32/32/190
f 36/35/191 25/31/192 26/30/193
f 35/33/194 37/37/195 32/32/196
f 31/34/197 36/35/198 38/38/199
f 31/34/200 38/38/201 34/36/202
f 34/36/203 38/38/204 35/33/205
f 36/35/206 26/30/207 37/37/208
f 38/38/209 37/37/210 35/33/211
f 36/35/212 37/37/213 38/38/214
