# This file uses centimeters as units for non-parametric coordinates.

v -0.020128 -0.893929 -0.005715
v -0.026182 -0.893929 -0.005715
v -0.029210 -0.893929 -0.000470
v -0.026182 -0.893929 0.004775
v -0.020128 -0.893929 0.004775
v -0.017100 -0.893929 -0.000470
v 0.000000 0.040107 -0.255170
v -0.136469 0.040107 -0.196417
v -0.235424 0.040107 0.000001
v -0.136469 0.040107 0.196420
v 0.000000 0.040107 0.255170
v -0.023155 -0.909503 -0.000470
v 0.000000 0.199733 0.000001
v -0.094682 -0.092777 0.071900
v -0.144181 -0.092777 -0.013834
v -0.094682 -0.092777 -0.099568
v -0.002193 -0.092777 -0.125660
v -0.002193 -0.092777 0.097992
v -0.089523 -0.209408 0.069636
v -0.129727 -0.209408 0.000001
v -0.089523 -0.209408 -0.069636
v -0.006328 -0.209408 -0.086617
v -0.006328 -0.209408 0.095040
v -0.060828 -0.379991 0.057507
v -0.091739 -0.379991 0.003969
v -0.060828 -0.379991 -0.049569
v 0.013072 -0.315867 -0.049569
v 0.006286 -0.414879 0.003969
v 0.013072 -0.315867 0.057507
v -0.058637 -0.552786 0.023711
v -0.080253 -0.552786 -0.013730
v -0.058637 -0.552786 -0.051170
v -0.015405 -0.552786 -0.051170
v 0.006211 -0.552786 -0.013730
v -0.015405 -0.552786 0.023711
v -0.035477 -0.723346 0.020873
v -0.047799 -0.723346 -0.000470
v -0.035477 -0.723346 -0.021813
v -0.010833 -0.723346 -0.021813
v 0.001489 -0.723346 -0.000470
v -0.010833 -0.723346 0.020873
v 0.079422 -0.695910 -0.004552
v 0.074691 -0.695910 -0.004552
v 0.072325 -0.695910 -0.000454
v 0.074691 -0.695910 0.003643
v 0.079422 -0.695910 0.003643
v 0.081787 -0.695910 -0.000454
v 0.136469 0.040107 -0.196417
v 0.136469 0.040107 0.196420
v 0.235424 0.040107 0.000001
v 0.077057 -0.703618 -0.000454
v 0.090296 -0.092777 -0.099568
v 0.139795 -0.092777 -0.013834
v 0.090296 -0.092777 0.071900
v 0.076867 -0.209408 -0.069636
v 0.117071 -0.209408 0.000001
v 0.076867 -0.209408 0.069636
v 0.086973 -0.379991 -0.049569
v 0.117884 -0.379991 0.003969
v 0.086973 -0.379991 0.057507
v 0.045690 -0.527060 0.017809
v 0.028803 -0.527060 -0.011441
v 0.045690 -0.527060 -0.040689
v 0.079463 -0.527060 -0.040689
v 0.096349 -0.527060 -0.011441
v 0.079463 -0.527060 0.017809
v 0.067430 -0.611485 0.016218
v 0.057804 -0.611485 -0.000454
v 0.067430 -0.611485 -0.017127
v 0.086683 -0.611485 -0.017127
v 0.096308 -0.611485 -0.000454
v 0.086683 -0.611485 0.016218
vt 0.214591 0.281331
vt 0.214591 0.281331
vt 0.214591 0.281331
vt 0.214591 0.281331
vt 0.214591 0.281331
vt 0.214591 0.281331
vt 0.214591 0.281331
vt 0.214591 0.281331
vt 0.214591 0.281331
vt 0.214591 0.281331
vt 0.214591 0.281331
vt 0.214591 0.281331
vt 0.214591 0.281331
vt 0.214591 0.281331
vt 0.214591 0.281331
vt 0.214591 0.281331
vt 0.214591 0.281331
vt 0.214591 0.281331
vt 0.214591 0.281331
vt 0.214591 0.281331
vt 0.214591 0.281331
vt 0.214591 0.281331
vt 0.214591 0.281331
vt 0.214591 0.281331
vt 0.214591 0.281331
vt 0.214591 0.281331
vt 0.214591 0.281331
vt 0.214591 0.281331
vt 0.214591 0.281331
vt 0.214591 0.281331
vt 0.214591 0.281331
vt 0.214591 0.281331
vt 0.214591 0.281331
vt 0.214591 0.281331
vt 0.214591 0.281331
vt 0.214591 0.281331
vt 0.214591 0.281331
vt 0.214591 0.281331
vt 0.214591 0.281331
vt 0.214591 0.281331
vt 0.214591 0.281331
vt 0.214591 0.281331
vt 0.214591 0.281331
vt 0.214591 0.281331
vt 0.214591 0.281331
vt 0.214591 0.281331
vt 0.214591 0.281331
vt 0.214591 0.281331
vt 0.214591 0.281331
vt 0.214591 0.281331
vt 0.214591 0.281331
vt 0.214591 0.281331
vt 0.214591 0.281331
vt 0.214591 0.281331
vt 0.214591 0.281331
vt 0.214591 0.281331
vt 0.214591 0.281331
vt 0.214591 0.281331
vt 0.214591 0.281331
vt 0.214591 0.281331
vt 0.214591 0.281331
vt 0.214591 0.281331
vt 0.214591 0.281331
vt 0.214591 0.281331
vt 0.214591 0.281331
vt 0.214591 0.281331
vt 0.214591 0.281331
vt 0.214591 0.281331
vt 0.214591 0.281331
vt 0.214591 0.281331
vt 0.214591 0.281331
vt 0.214591 0.281331
vt 0.214591 0.281331
vt 0.214591 0.281331
vt 0.214591 0.281331
vt 0.214591 0.281331
vt 0.214591 0.281331
vt 0.214591 0.281331
vt 0.214591 0.281331
vt 0.214591 0.281331
vt 0.214591 0.281331
vt 0.214591 0.281331
vt 0.214591 0.281331
vt 0.214591 0.281331
vt 0.214591 0.281331
vt 0.214591 0.281331
vt 0.214591 0.281331
vt 0.214591 0.281331
vt 0.214591 0.281331
vt 0.214591 0.281331
vt 0.214591 0.281331
vt 0.214591 0.281331
vt 0.214591 0.281331
vt 0.214591 0.281331
vt 0.214591 0.281331
vt 0.214591 0.281331
vt 0.214591 0.281331
vt 0.214591 0.281331
vt 0.214591 0.281331
vt 0.214591 0.281331
vt 0.214591 0.281331
vt 0.214591 0.281331
vt 0.214591 0.281331
vt 0.214591 0.281331
vt 0.214591 0.281331
vt 0.214591 0.281331
vt 0.214591 0.281331
vt 0.214591 0.281331
vt 0.214591 0.281331
vt 0.214591 0.281331
vt 0.214591 0.281331
vt 0.214591 0.281331
vt 0.214591 0.281331
vt 0.214591 0.281331
vt 0.214591 0.281331
vn 0.000000 -0.093957 -0.995576
vn 0.000000 -0.093957 -0.995576
vn 0.000000 -0.093957 -0.995576
vn 0.000000 -0.093957 -0.995576
vn -0.862196 -0.093955 -0.497785
vn -0.862196 -0.093955 -0.497785
vn -0.862196 -0.093955 -0.497785
vn -0.862196 -0.093955 -0.497785
vn -0.862196 -0.093955 0.497786
vn -0.862196 -0.093955 0.497786
vn -0.862196 -0.093955 0.497786
vn -0.862196 -0.093955 0.497786
vn 0.000000 -0.093957 0.995576
vn 0.000000 -0.093957 0.995576
vn 0.000000 -0.093957 0.995576
vn 0.000000 -0.093957 0.995576
vn 0.862196 -0.093955 0.497786
vn 0.862196 -0.093955 0.497786
vn 0.862196 -0.093955 0.497786
vn 0.862196 -0.093955 0.497786
vn 0.862196 -0.093955 -0.497786
vn 0.862196 -0.093955 -0.497786
vn 0.862196 -0.093955 -0.497786
vn 0.862196 -0.093955 -0.497786
vn 0.000000 -0.319134 -0.947710
vn 0.000000 -0.319134 -0.947710
vn 0.000000 -0.319134 -0.947710
vn -0.820759 -0.319088 -0.473854
vn -0.820759 -0.319088 -0.473854
vn -0.820759 -0.319088 -0.473854
vn -0.820759 -0.319088 0.473854
vn -0.820759 -0.319088 0.473854
vn -0.820759 -0.319088 0.473854
vn 0.000000 -0.319134 0.947710
vn 0.000000 -0.319134 0.947710
vn 0.000000 -0.319134 0.947710
vn 0.820746 -0.319133 0.473846
vn 0.820746 -0.319133 0.473846
vn 0.820746 -0.319133 0.473846
vn 0.820744 -0.319132 -0.473850
vn 0.820744 -0.319132 -0.473850
vn 0.820744 -0.319132 -0.473850
vn -0.222593 0.826513 -0.517038
vn -0.222593 0.826513 -0.517038
vn -0.222593 0.826513 -0.517038
vn -0.540030 0.796460 -0.272065
vn -0.540030 0.796460 -0.272065
vn -0.540030 0.796460 -0.272065
vn -0.540030 0.796460 0.272065
vn -0.540030 0.796460 0.272065
vn -0.540030 0.796460 0.272065
vn -0.222588 0.826512 0.517042
vn -0.222588 0.826512 0.517042
vn -0.222588 0.826512 0.517042
vn -0.729984 -0.565338 0.384079
vn -0.729984 -0.565338 0.384079
vn -0.729984 -0.565338 0.384079
vn -0.729984 -0.565338 0.384079
vn -0.762734 -0.507137 -0.401310
vn -0.762734 -0.507137 -0.401310
vn -0.762734 -0.507137 -0.401310
vn -0.762734 -0.507137 -0.401310
vn -0.264703 -0.647831 -0.714316
vn -0.264703 -0.647831 -0.714316
vn -0.264703 -0.647831 -0.714316
vn -0.264703 -0.647831 -0.714316
vn -0.240155 -0.722709 0.648087
vn -0.240155 -0.722709 0.648087
vn -0.240155 -0.722709 0.648087
vn -0.240155 -0.722709 0.648087
vn -0.865028 -0.047958 0.499427
vn -0.865028 -0.047958 0.499427
vn -0.865028 -0.047958 0.499427
vn -0.865028 -0.047958 0.499427
vn -0.854248 -0.164365 -0.493198
vn -0.854248 -0.164365 -0.493198
vn -0.854248 -0.164365 -0.493198
vn -0.854248 -0.164365 -0.493198
vn -0.228809 -0.276962 -0.933241
vn -0.228809 -0.276962 -0.933241
vn -0.228809 -0.276962 -0.933241
vn -0.228809 -0.276962 -0.933241
vn -0.281212 -0.022687 0.959377
vn -0.281212 -0.022687 0.959377
vn -0.281212 -0.022687 0.959377
vn -0.281212 -0.022687 0.959377
vn -0.852142 -0.178323 0.491991
vn -0.852142 -0.178323 0.491991
vn -0.852142 -0.178323 0.491991
vn -0.852142 -0.178323 0.491991
vn -0.848468 -0.200345 -0.489862
vn -0.848467 -0.200345 -0.489862
vn -0.848468 -0.200345 -0.489862
vn -0.848468 -0.200345 -0.489862
vn -0.021878 -0.205504 -0.978412
vn -0.021878 -0.205504 -0.978412
vn -0.021878 -0.205504 -0.978412
vn -0.021878 -0.205504 -0.978412
vn -0.080908 -0.189457 0.978550
vn -0.080908 -0.189457 0.978550
vn -0.080908 -0.189457 0.978550
vn -0.080908 -0.189457 0.978550
vn -0.860946 -0.108141 0.497069
vn -0.860946 -0.108141 0.497069
vn -0.860946 -0.108141 0.497069
vn -0.860946 -0.108141 0.497069
vn -0.866003 -0.006351 -0.499999
vn -0.866003 -0.006351 -0.499999
vn -0.866003 -0.006351 -0.499999
vn -0.866003 -0.006351 -0.499999
vn -0.004433 0.008098 -0.999957
vn -0.004433 0.008098 -0.999957
vn -0.004433 0.008098 -0.999957
vn -0.004433 0.008098 -0.999957
vn 0.972048 -0.062390 -0.226342
vn 0.972048 -0.062390 -0.226342
vn 0.972048 -0.062390 -0.226342
vn 0.972048 -0.062390 -0.226342
vn 0.954756 -0.110651 0.276040
vn 0.954756 -0.110651 0.276040
vn 0.954756 -0.110651 0.276040
vn 0.954756 -0.110651 0.276040
vn 0.091872 -0.167820 0.981527
vn 0.091872 -0.167820 0.981527
vn 0.091872 -0.167820 0.981527
vn 0.091872 -0.167820 0.981527
vn -0.859243 -0.124930 0.496078
vn -0.859243 -0.124930 0.496078
vn -0.859243 -0.124930 0.496078
vn -0.859243 -0.124930 0.496079
vn -0.848601 -0.199563 -0.489950
vn -0.848601 -0.199563 -0.489950
vn -0.848601 -0.199563 -0.489950
vn -0.848601 -0.199563 -0.489950
vn 0.000000 -0.169628 -0.985508
vn 0.000000 -0.169628 -0.985508
vn 0.000000 -0.169628 -0.985508
vn 0.000000 -0.169628 -0.985508
vn 0.864322 -0.062725 -0.499013
vn 0.864322 -0.062725 -0.499013
vn 0.864322 -0.062725 -0.499013
vn 0.864322 -0.062725 -0.499013
vn 0.865938 0.014892 0.499930
vn 0.865938 0.014892 0.499930
vn 0.865938 0.014892 0.499930
vn 0.865938 0.014892 0.499930
vn 0.000000 -0.016638 0.999862
vn 0.000000 -0.016638 0.999862
vn 0.000000 -0.016638 0.999862
vn 0.000000 -0.016638 0.999862
vn 0.000000 -0.147323 -0.989088
vn 0.000000 -0.147323 -0.989088
vn 0.000000 -0.147323 -0.989089
vn 0.000000 -0.147323 -0.989088
vn -0.856585 -0.147329 -0.494526
vn -0.856585 -0.147329 -0.494526
vn -0.856585 -0.147329 -0.494526
vn -0.856585 -0.147329 -0.494526
vn -0.856546 -0.147329 0.494594
vn -0.856546 -0.147329 0.494594
vn -0.856546 -0.147329 0.494594
vn -0.856546 -0.147329 0.494594
vn 0.000000 -0.147323 0.989089
vn 0.000000 -0.147323 0.989088
vn 0.000000 -0.147323 0.989088
vn 0.000000 -0.147323 0.989089
vn 0.856580 -0.147326 0.494536
vn 0.856580 -0.147326 0.494536
vn 0.856580 -0.147326 0.494536
vn 0.856580 -0.147326 0.494536
vn 0.856619 -0.147326 -0.494468
vn 0.856619 -0.147326 -0.494468
vn 0.856619 -0.147326 -0.494468
vn 0.856619 -0.147326 -0.494468
vn 0.000000 -0.469450 -0.882959
vn 0.000000 -0.469450 -0.882959
vn 0.000000 -0.469450 -0.882959
vn -0.764732 -0.469397 -0.441419
vn -0.764732 -0.469397 -0.441419
vn -0.764732 -0.469397 -0.441419
vn -0.764661 -0.469353 0.441589
vn -0.764661 -0.469353 0.441589
vn -0.764661 -0.469353 0.441589
vn 0.000000 -0.469280 0.883049
vn 0.000000 -0.469280 0.883049
vn 0.000000 -0.469280 0.883049
vn 0.764746 -0.469333 0.441463
vn 0.764746 -0.469333 0.441463
vn 0.764746 -0.469333 0.441463
vn 0.764813 -0.469376 -0.441302
vn 0.764813 -0.469376 -0.441302
vn 0.764813 -0.469376 -0.441302
vn 0.222594 0.826513 -0.517038
vn 0.222594 0.826513 -0.517038
vn 0.222594 0.826513 -0.517038
vn 0.222588 0.826512 0.517042
vn 0.222588 0.826512 0.517042
vn 0.222588 0.826512 0.517042
vn 0.540030 0.796460 0.272065
vn 0.540030 0.796460 0.272065
vn 0.540030 0.796460 0.272065
vn 0.540030 0.796460 -0.272065
vn 0.540030 0.796460 -0.272065
vn 0.540030 0.796460 -0.272065
vn 0.263208 -0.652858 -0.710281
vn 0.263208 -0.652858 -0.710281
vn 0.263208 -0.652858 -0.710281
vn 0.263208 -0.652858 -0.710281
vn 0.752946 -0.525480 -0.396160
vn 0.752946 -0.525480 -0.396160
vn 0.752946 -0.525480 -0.396160
vn 0.752946 -0.525480 -0.396160
vn 0.720037 -0.581398 0.378845
vn 0.720037 -0.581398 0.378845
vn 0.720037 -0.581398 0.378845
vn 0.720037 -0.581398 0.378845
vn 0.238784 -0.726463 0.644386
vn 0.238784 -0.726463 0.644386
vn 0.238784 -0.726463 0.644386
vn 0.238784 -0.726463 0.644386
vn 0.227758 -0.291839 -0.928955
vn 0.227758 -0.291839 -0.928954
vn 0.227758 -0.291839 -0.928954
vn 0.227758 -0.291839 -0.928954
vn 0.844351 -0.222330 -0.487484
vn 0.844351 -0.222330 -0.487484
vn 0.844351 -0.222330 -0.487484
vn 0.844351 -0.222330 -0.487484
vn 0.860886 -0.108770 0.497036
vn 0.860886 -0.108770 0.497036
vn 0.860886 -0.108770 0.497036
vn 0.860886 -0.108770 0.497036
vn 0.281029 -0.042598 0.958753
vn 0.281029 -0.042598 0.958753
vn 0.281029 -0.042598 0.958753
vn 0.281029 -0.042598 0.958753
vn 0.024523 -0.199344 -0.979623
vn 0.024523 -0.199344 -0.979623
vn 0.024523 -0.199344 -0.979623
vn 0.024523 -0.199344 -0.979623
vn 0.866002 -0.007508 -0.499985
vn 0.866002 -0.007508 -0.499985
vn 0.866002 -0.007508 -0.499985
vn 0.866002 -0.007508 -0.499985
vn 0.865915 0.015753 0.499943
vn 0.865915 0.015753 0.499943
vn 0.865915 0.015753 0.499943
vn 0.865915 0.015753 0.499943
vn 0.090887 -0.166328 0.981873
vn 0.090887 -0.166328 0.981873
vn 0.090887 -0.166328 0.981873
vn 0.090887 -0.166328 0.981873
vn -0.829211 -0.228323 0.510175
vn -0.829211 -0.228323 0.510174
vn -0.829211 -0.228323 0.510174
vn -0.829211 -0.228323 0.510174
vn -0.892766 -0.143593 -0.427024
vn -0.892766 -0.143593 -0.427024
vn -0.892766 -0.143593 -0.427024
vn -0.892766 -0.143593 -0.427024
vn -0.030753 -0.051639 -0.998192
vn -0.030753 -0.051639 -0.998192
vn -0.030753 -0.051639 -0.998192
vn -0.030753 -0.051639 -0.998192
vn 0.863635 -0.074209 -0.498626
vn 0.863635 -0.074209 -0.498626
vn 0.863635 -0.074209 -0.498626
vn 0.863635 -0.074209 -0.498626
vn 0.852450 -0.176384 0.492157
vn 0.852450 -0.176384 0.492157
vn 0.852450 -0.176384 0.492157
vn 0.852450 -0.176384 0.492157
vn -0.132996 -0.223321 0.965629
vn -0.132996 -0.223321 0.965629
vn -0.132996 -0.223321 0.965629
vn -0.132996 -0.223321 0.965629
vn -0.843538 -0.226392 0.487021
vn -0.843538 -0.226392 0.487021
vn -0.843538 -0.226392 0.487021
vn -0.843538 -0.226392 0.487021
vn -0.814164 -0.340850 -0.470062
vn -0.814164 -0.340850 -0.470062
vn -0.814164 -0.340850 -0.470062
vn -0.814164 -0.340850 -0.470062
vn 0.000000 -0.268819 -0.963191
vn 0.000000 -0.268819 -0.963191
vn 0.000000 -0.268819 -0.963191
vn 0.000000 -0.268819 -0.963191
vn 0.864182 -0.065349 -0.498917
vn 0.864182 -0.065349 -0.498917
vn 0.864182 -0.065349 -0.498917
vn 0.864182 -0.065349 -0.498917
vn 0.864230 0.064506 0.498945
vn 0.864230 0.064506 0.498945
vn 0.864230 0.064506 0.498945
vn 0.864230 0.064506 0.498945
vn 0.000000 -0.018845 0.999822
vn 0.000000 -0.018845 0.999822
vn 0.000000 -0.018845 0.999822
vn 0.000000 -0.018845 0.999822
s off
f 1/7/1 2/8/2 38/52/3 39/54/4
f 2/8/5 3/9/6 37/51/7 38/52/8
f 3/9/9 4/10/10 36/50/11 37/51/12
f 4/10/13 5/11/14 41/56/15 36/50/16
f 5/11/17 6/12/18 40/55/19 41/56/20
f 6/12/21 1/13/22 39/53/23 40/55/24
f 2/2/25 1/1/26 12/24/27
f 3/3/28 2/2/29 12/24/30
f 4/4/31 3/3/32 12/24/33
f 5/5/34 4/4/35 12/24/36
f 6/6/37 5/5/38 12/24/39
f 1/1/40 6/6/41 12/24/42
f 7/23/43 8/22/44 13/25/45
f 8/22/46 9/21/47 13/25/48
f 9/21/49 10/20/50 13/25/51
f 10/20/52 11/19/53 13/25/54
f 15/27/55 14/26/56 10/17/57 9/16/58
f 16/28/59 15/27/60 9/16/61 8/15/62
f 17/29/63 16/28/64 8/15/65 7/14/66
f 14/26/67 18/30/68 11/18/69 10/17/70
f 20/32/71 19/31/72 14/26/73 15/27/74
f 21/33/75 20/32/76 15/27/77 16/28/78
f 22/34/79 21/33/80 16/28/81 17/29/82
f 19/31/83 23/35/84 18/30/85 14/26/86
f 25/37/87 24/36/88 19/31/89 20/32/90
f 26/38/91 25/37/92 20/32/93 21/33/94
f 27/40/95 26/38/96 21/33/97 22/34/98
f 24/36/99 29/42/100 23/35/101 19/31/102
f 31/44/103 30/43/104 24/36/105 25/37/106
f 32/45/107 31/44/108 25/37/109 26/38/110
f 33/47/111 32/45/112 26/38/113 27/40/114
f 34/48/115 33/46/116 27/39/117 28/41/118
f 35/49/119 34/48/120 28/41/121 29/42/122
f 30/43/123 35/49/124 29/42/125 24/36/126
f 37/51/127 36/50/128 30/43/129 31/44/130
f 38/52/131 37/51/132 31/44/133 32/45/134
f 39/54/135 38/52/136 32/45/137 33/47/138
f 40/55/139 39/53/140 33/46/141 34/48/142
f 41/56/143 40/55/144 34/48/145 35/49/146
f 36/50/147 41/56/148 35/49/149 30/43/150
f 42/57/151 43/58/152 69/59/153 70/60/154
f 43/58/155 44/61/156 68/62/157 69/59/158
f 44/61/159 45/63/160 67/64/161 68/62/162
f 45/63/163 46/65/164 72/66/165 67/64/166
f 46/65/167 47/67/168 71/68/169 72/66/170
f 47/67/171 42/69/172 70/70/173 71/68/174
f 43/71/175 42/72/176 51/73/177
f 44/74/178 43/71/179 51/73/180
f 45/75/181 44/74/182 51/73/183
f 46/76/184 45/75/185 51/73/186
f 47/77/187 46/76/188 51/73/189
f 42/72/190 47/77/191 51/73/192
f 48/78/193 7/79/194 13/80/195
f 11/81/196 49/82/197 13/80/198
f 49/82/199 50/83/200 13/80/201
f 50/83/202 48/78/203 13/80/204
f 52/84/205 17/85/206 7/86/207 48/87/208
f 53/88/209 52/89/210 48/90/211 50/91/212
f 54/92/213 53/88/214 50/91/215 49/93/216
f 18/94/217 54/92/218 49/93/219 11/95/220
f 55/96/221 22/97/222 17/85/223 52/84/224
f 56/98/225 55/99/226 52/89/227 53/88/228
f 57/100/229 56/98/230 53/88/231 54/92/232
f 23/101/233 57/100/234 54/92/235 18/94/236
f 58/102/237 27/103/238 22/97/239 55/96/240
f 59/104/241 58/105/242 55/99/243 56/98/244
f 60/106/245 59/104/246 56/98/247 57/100/248
f 29/107/249 60/106/250 57/100/251 23/101/252
f 62/108/253 61/109/254 29/107/255 28/110/256
f 63/111/257 62/108/258 28/110/259 27/103/260
f 64/112/261 63/111/262 27/103/263 58/102/264
f 65/113/265 64/114/266 58/105/267 59/104/268
f 66/115/269 65/113/270 59/104/271 60/106/272
f 61/109/273 66/115/274 60/106/275 29/107/276
f 68/62/277 67/64/278 61/109/279 62/108/280
f 69/59/281 68/62/282 62/108/283 63/111/284
f 70/60/285 69/59/286 63/111/287 64/112/288
f 71/68/289 70/70/290 64/114/291 65/113/292
f 72/66/293 71/68/294 65/113/295 66/115/296
f 67/64/297 72/66/298 66/115/299 61/109/300
