# This file uses centimeters as units for non-parametric coordinates.

v -0.313499 0.000000 0.313498
v 0.313492 0.000000 0.313498
v -0.313499 0.123602 0.313498
v 0.313492 0.123602 0.313498
v -0.313499 0.123602 -0.313500
v 0.313492 0.123602 -0.313500
v -0.313499 0.000000 -0.313500
v 0.313492 0.000000 -0.313500
v -0.236961 0.212510 0.236965
v 0.236969 0.212510 0.236965
v 0.236969 0.212510 -0.236965
v -0.236961 0.212510 -0.236965
v -0.236961 0.462967 0.236965
v 0.236969 0.462967 0.236965
v 0.236969 0.462967 -0.236965
v -0.236961 0.462967 -0.236965
v -0.277548 0.462967 0.277542
v 0.277540 0.462967 0.277542
v 0.277540 0.462967 -0.277545
v -0.277548 0.462967 -0.277545
v -0.277548 0.535819 0.277542
v 0.277540 0.535819 0.277542
v 0.277540 0.535819 -0.277545
v -0.277548 0.535819 -0.277545
v -0.183510 0.605963 0.183503
v 0.183502 0.605963 0.183503
v 0.183502 0.605963 -0.183507
v -0.183510 0.605963 -0.183507
v -0.183510 1.749924 0.183503
v 0.183502 1.749924 0.183503
v 0.183502 1.749924 -0.183507
v -0.183510 1.749924 -0.183507
v -0.232498 1.749924 0.232499
v 0.232504 1.749924 0.232499
v 0.232504 1.749924 -0.232500
v -0.232498 1.749924 -0.232500
v -0.232498 1.861741 0.232499
v 0.232504 1.861741 0.232499
v 0.232504 1.861741 -0.232500
v -0.232498 1.861741 -0.232500
v -0.286127 1.930539 0.286119
v 0.286119 1.930539 0.286119
v 0.286119 1.930539 -0.286123
v -0.286127 1.930539 -0.286123
v -0.286127 2.073580 0.286119
v 0.286119 2.073580 0.286119
v 0.286119 2.073580 -0.286123
v -0.286127 2.073580 -0.286123
v -0.257647 2.110347 0.257646
v 0.257645 2.110347 0.257646
v 0.257645 2.110347 -0.257648
v -0.257647 2.110347 -0.257648
v 0.146603 1.406825 0.146601
v -0.146610 1.406825 0.146601
v -0.146610 1.406825 -0.146605
v 0.146603 1.406825 -0.146605
v 0.146603 0.978378 0.146601
v -0.146610 0.978378 0.146601
v -0.146610 0.978378 -0.146605
v 0.146603 0.978378 -0.146605
v 0.183502 1.018274 0.183503
v -0.183510 1.018274 0.183503
v -0.183510 1.018274 -0.183507
v 0.183502 1.018274 -0.183507
v 0.183502 0.933280 0.183503
v -0.183510 0.933280 0.183503
v -0.183510 0.933280 -0.183507
v 0.183502 0.933280 -0.183507
v 0.183502 1.449979 0.183503
v -0.183510 1.449979 0.183503
v -0.183510 1.449979 -0.183507
v 0.183502 1.449979 -0.183507
v 0.183502 1.353001 0.183503
v -0.183510 1.353001 0.183503
v -0.183510 1.353001 -0.183507
v 0.183502 1.353001 -0.183507
vt 0.198962 0.303024
vt 0.198962 0.303024
vt 0.198962 0.303024
vt 0.198962 0.303024
vt 0.198962 0.303024
vt 0.198962 0.303024
vt 0.198962 0.303024
vt 0.198962 0.303024
vt 0.198962 0.303024
vt 0.198962 0.303024
vt 0.198962 0.303024
vt 0.198962 0.303024
vt 0.198962 0.303024
vt 0.198962 0.303024
vt 0.198962 0.303024
vt 0.198962 0.303024
vt 0.198962 0.303024
vt 0.198962 0.303024
vt 0.198962 0.303024
vt 0.198962 0.303024
vt 0.198962 0.303024
vt 0.198962 0.303024
vt 0.198962 0.303024
vt 0.198962 0.303024
vt 0.198962 0.303024
vt 0.198962 0.303024
vt 0.198962 0.303024
vt 0.198962 0.303024
vt 0.198962 0.303024
vt 0.198962 0.303024
vt 0.198962 0.303024
vt 0.198962 0.303024
vt 0.198962 0.303024
vt 0.198962 0.303024
vt 0.198962 0.303024
vt 0.198962 0.303024
vt 0.198962 0.303024
vt 0.198962 0.303024
vt 0.198962 0.303024
vt 0.198962 0.303024
vt 0.198962 0.303024
vt 0.198962 0.303024
vt 0.198962 0.303024
vt 0.198962 0.303024
vt 0.198962 0.303024
vt 0.198962 0.303024
vt 0.198962 0.303024
vt 0.198962 0.303024
vt 0.198962 0.303024
vt 0.198962 0.303024
vt 0.198962 0.303024
vt 0.198962 0.303024
vt 0.198962 0.303024
vt 0.198962 0.303024
vt 0.198962 0.303024
vt 0.198962 0.303024
vt 0.198962 0.303024
vt 0.198962 0.303024
vt 0.198962 0.303024
vt 0.198962 0.303024
vt 0.198962 0.303024
vt 0.198962 0.303024
vt 0.198962 0.303024
vt 0.198962 0.303024
vt 0.198962 0.303024
vt 0.198962 0.303024
vt 0.198962 0.303024
vt 0.198962 0.303024
vt 0.198962 0.303024
vt 0.198962 0.303024
vt 0.198962 0.303024
vt 0.198962 0.303024
vt 0.198962 0.303024
vt 0.198962 0.303024
vt 0.198962 0.303024
vt 0.198962 0.303024
vn 0.000000 0.000000 1.000000
vn 0.000000 0.000000 1.000000
vn 0.000000 0.000000 1.000000
vn 0.000000 0.000000 1.000000
vn 0.000000 1.000000 0.000000
vn 0.000000 1.000000 0.000000
vn 0.000000 1.000000 0.000000
vn 0.000000 1.000000 0.000000
vn 0.000000 0.000000 -1.000000
vn 0.000000 0.000000 -1.000000
vn 0.000000 0.000000 -1.000000
vn 0.000000 0.000000 -1.000000
vn 0.000000 -1.000000 0.000000
vn 0.000000 -1.000000 0.000000
vn 0.000000 -1.000000 0.000000
vn 0.000000 -1.000000 0.000000
vn 1.000000 0.000000 0.000000
vn 1.000000 0.000000 0.000000
vn 1.000000 0.000000 0.000000
vn 1.000000 0.000000 0.000000
vn -1.000000 0.000000 0.000000
vn -1.000000 0.000000 0.000000
vn -1.000000 0.000000 0.000000
vn -1.000000 0.000000 0.000000
vn 0.000000 0.652393 0.757881
vn 0.000000 0.652393 0.757881
vn 0.000000 0.652393 0.757881
vn 0.000000 0.652393 0.757881
vn 0.757923 0.652344 0.000000
vn 0.757923 0.652344 0.000000
vn 0.757923 0.652344 0.000000
vn 0.757923 0.652344 0.000000
vn 0.000000 0.652403 -0.757873
vn 0.000000 0.652403 -0.757873
vn 0.000000 0.652403 -0.757873
vn 0.000000 0.652403 -0.757873
vn -0.757859 0.652419 0.000000
vn -0.757859 0.652419 0.000000
vn -0.757858 0.652419 0.000000
vn -0.757859 0.652419 0.000000
vn 0.000000 0.000000 1.000000
vn 0.000000 0.000000 1.000000
vn 0.000000 0.000000 1.000000
vn 0.000000 0.000000 1.000000
vn 1.000000 0.000000 0.000000
vn 1.000000 0.000000 0.000000
vn 1.000000 0.000000 0.000000
vn 1.000000 0.000000 0.000000
vn 0.000000 0.000000 -1.000000
vn 0.000000 0.000000 -1.000000
vn 0.000000 0.000000 -1.000000
vn 0.000000 0.000000 -1.000000
vn -1.000000 0.000000 0.000000
vn -1.000000 0.000000 0.000000
vn -1.000000 0.000000 0.000000
vn -1.000000 0.000000 0.000000
vn 0.000000 -1.000000 -0.000001
vn 0.000000 -1.000000 -0.000001
vn 0.000000 -1.000000 -0.000001
vn 0.000000 -1.000000 -0.000001
vn 0.000000 -1.000000 0.000000
vn 0.000000 -1.000000 0.000000
vn 0.000000 -1.000000 0.000000
vn 0.000000 -1.000000 0.000000
vn 0.000000 -1.000000 0.000001
vn 0.000000 -1.000000 0.000001
vn 0.000000 -1.000000 0.000001
vn 0.000000 -1.000000 0.000001
vn 0.000000 -1.000000 0.000000
vn 0.000000 -1.000000 0.000000
vn 0.000000 -1.000000 0.000000
vn 0.000000 -1.000000 0.000000
vn 0.000000 0.000000 1.000000
vn 0.000000 0.000000 1.000000
vn 0.000000 0.000000 1.000000
vn 0.000000 0.000000 1.000000
vn 1.000000 0.000000 0.000000
vn 1.000000 0.000000 0.000000
vn 1.000000 0.000000 0.000000
vn 1.000000 0.000000 0.000000
vn 0.000000 0.000000 -1.000000
vn 0.000000 0.000000 -1.000000
vn 0.000000 0.000000 -1.000000
vn 0.000000 0.000000 -1.000000
vn -1.000000 0.000000 0.000000
vn -1.000000 0.000000 0.000000
vn -1.000000 0.000000 0.000000
vn -1.000000 0.000000 0.000000
vn 0.000000 0.801573 0.597897
vn 0.000000 0.801573 0.597897
vn 0.000000 0.801573 0.597897
vn 0.000000 0.801573 0.597897
vn 0.597899 0.801572 0.000000
vn 0.597899 0.801572 0.000000
vn 0.597899 0.801572 0.000000
vn 0.597899 0.801572 0.000000
vn 0.000000 0.801572 -0.597899
vn 0.000000 0.801572 -0.597899
vn 0.000000 0.801572 -0.597899
vn 0.000000 0.801572 -0.597899
vn -0.597899 0.801572 0.000000
vn -0.597899 0.801572 0.000000
vn -0.597899 0.801572 0.000000
vn -0.597899 0.801572 0.000000
vn 0.000000 0.000000 1.000000
vn 0.000000 0.000000 1.000000
vn 0.000000 0.000000 1.000000
vn 0.000000 0.000000 1.000000
vn 1.000000 0.000000 0.000000
vn 1.000000 0.000000 0.000000
vn 1.000000 0.000000 0.000000
vn 1.000000 0.000000 0.000000
vn 0.000000 0.000000 -1.000000
vn 0.000000 0.000000 -1.000000
vn 0.000000 0.000000 -1.000000
vn 0.000000 0.000000 -1.000000
vn -1.000000 0.000000 0.000000
vn -1.000000 0.000000 0.000000
vn -1.000000 0.000000 0.000000
vn -1.000000 0.000000 0.000000
vn 0.000000 -1.000000 0.000002
vn 0.000000 -1.000000 0.000002
vn 0.000000 -1.000000 0.000002
vn 0.000000 -1.000000 0.000002
vn 0.000000 -1.000000 0.000000
vn 0.000000 -1.000000 0.000000
vn 0.000000 -1.000000 0.000000
vn 0.000000 -1.000000 0.000000
vn 0.000000 -1.000000 -0.000002
vn 0.000000 -1.000000 -0.000002
vn 0.000000 -1.000000 -0.000002
vn 0.000000 -1.000000 -0.000002
vn 0.000000 -1.000000 0.000000
vn 0.000000 -1.000000 0.000000
vn 0.000000 -1.000000 0.000000
vn 0.000000 -1.000000 0.000000
vn 0.000000 0.000000 1.000000
vn 0.000000 0.000000 1.000000
vn 0.000000 0.000000 1.000000
vn 0.000000 0.000000 1.000000
vn 1.000000 0.000000 0.000000
vn 1.000000 0.000000 0.000000
vn 1.000000 0.000000 0.000000
vn 1.000000 0.000000 0.000000
vn 0.000000 0.000000 -1.000000
vn 0.000000 0.000000 -1.000000
vn 0.000000 0.000000 -1.000000
vn 0.000000 0.000000 -1.000000
vn -1.000000 0.000000 0.000000
vn -1.000000 0.000000 0.000000
vn -1.000000 0.000000 0.000000
vn -1.000000 0.000000 0.000000
vn 0.000000 -0.614732 0.788736
vn 0.000000 -0.614732 0.788736
vn 0.000000 -0.614732 0.788736
vn 0.000000 -0.614732 0.788736
vn 0.788763 -0.614697 0.000000
vn 0.788763 -0.614697 0.000000
vn 0.788763 -0.614697 0.000000
vn 0.788763 -0.614697 0.000000
vn 0.000000 -0.614756 -0.788718
vn 0.000000 -0.614756 -0.788718
vn 0.000000 -0.614756 -0.788718
vn 0.000000 -0.614756 -0.788718
vn -0.788689 -0.614793 0.000000
vn -0.788689 -0.614793 0.000000
vn -0.788689 -0.614793 0.000000
vn -0.788689 -0.614793 0.000000
vn 0.000000 0.000000 1.000000
vn 0.000000 0.000000 1.000000
vn 0.000000 0.000000 1.000000
vn 0.000000 0.000000 1.000000
vn 1.000000 0.000000 0.000000
vn 1.000000 0.000000 0.000000
vn 1.000000 0.000000 0.000000
vn 1.000000 0.000000 0.000000
vn 0.000000 0.000000 -1.000000
vn 0.000000 0.000000 -1.000000
vn 0.000000 0.000000 -1.000000
vn 0.000000 0.000000 -1.000000
vn -1.000000 0.000000 0.000000
vn -1.000000 0.000000 0.000000
vn -1.000000 0.000000 0.000000
vn -1.000000 0.000000 0.000000
vn 0.000000 0.612296 0.790629
vn 0.000000 0.612296 0.790629
vn 0.000000 0.612296 0.790629
vn 0.000000 0.612296 0.790629
vn 0.790619 0.612308 0.000000
vn 0.790619 0.612308 0.000000
vn 0.790619 0.612308 0.000000
vn 0.790619 0.612308 0.000000
vn 0.000000 0.612316 -0.790613
vn 0.000000 0.612316 -0.790613
vn 0.000000 0.612316 -0.790613
vn 0.000000 0.612316 -0.790613
vn -0.790560 0.612385 0.000000
vn -0.790560 0.612385 0.000000
vn -0.790560 0.612385 0.000000
vn -0.790560 0.612385 0.000000
vn 0.000000 -0.649907 0.760014
vn 0.000000 -0.649907 0.760014
vn 0.000000 -0.649907 0.760014
vn 0.000000 -0.649907 0.760014
vn -0.760034 -0.649884 0.000000
vn -0.760034 -0.649884 0.000000
vn -0.760034 -0.649884 0.000000
vn -0.760034 -0.649884 0.000000
vn 0.000000 -0.649907 -0.760014
vn 0.000000 -0.649907 -0.760014
vn 0.000000 -0.649907 -0.760014
vn 0.000000 -0.649907 -0.760014
vn 0.760034 -0.649884 0.000000
vn 0.760034 -0.649884 0.000000
vn 0.760034 -0.649883 0.000000
vn 0.760034 -0.649883 0.000000
vn 0.000000 -0.679019 0.734121
vn 0.000000 -0.679019 0.734121
vn 0.000000 -0.679019 0.734121
vn 0.000000 -0.679019 0.734121
vn -0.734142 -0.678996 0.000000
vn -0.734142 -0.678996 0.000000
vn -0.734142 -0.678996 0.000000
vn -0.734142 -0.678996 0.000000
vn 0.000000 -0.679019 -0.734121
vn 0.000000 -0.679019 -0.734121
vn 0.000000 -0.679019 -0.734121
vn 0.000000 -0.679019 -0.734121
vn 0.734142 -0.678995 0.000000
vn 0.734142 -0.678995 0.000000
vn 0.734142 -0.678996 0.000000
vn 0.734142 -0.678996 0.000000
vn 0.000000 0.000000 1.000000
vn 0.000000 0.000000 1.000000
vn 0.000000 0.000000 1.000000
vn 0.000000 0.000000 1.000000
vn -1.000000 0.000000 0.000000
vn -1.000000 0.000000 0.000000
vn -1.000000 0.000000 0.000000
vn -1.000000 0.000000 0.000000
vn 0.000000 0.000000 -1.000000
vn 0.000000 0.000000 -1.000000
vn 0.000000 0.000000 -1.000000
vn 0.000000 0.000000 -1.000000
vn 1.000000 0.000000 0.000000
vn 1.000000 0.000000 0.000000
vn 1.000000 0.000000 0.000000
vn 1.000000 0.000000 0.000000
vn 0.000000 0.633273 0.773929
vn 0.000000 0.633273 0.773929
vn 0.000000 0.633273 0.773929
vn 0.000000 0.633273 0.773929
vn -0.773949 0.633248 0.000000
vn -0.773949 0.633248 0.000000
vn -0.773949 0.633248 0.000000
vn -0.773949 0.633248 0.000000
vn 0.000000 0.633273 -0.773929
vn 0.000000 0.633273 -0.773929
vn 0.000000 0.633273 -0.773929
vn 0.000000 0.633273 -0.773929
vn 0.773949 0.633248 0.000000
vn 0.773949 0.633248 0.000000
vn 0.773949 0.633248 0.000000
vn 0.773949 0.633248 0.000000
vn 0.000000 0.000000 1.000000
vn 0.000000 0.000000 1.000000
vn 0.000000 0.000000 1.000000
vn 0.000000 0.000000 1.000000
vn -1.000000 0.000000 0.000000
vn -1.000000 0.000000 0.000000
vn -1.000000 0.000000 0.000000
vn -1.000000 0.000000 0.000000
vn 0.000000 0.000000 -1.000000
vn 0.000000 0.000000 -1.000000
vn 0.000000 0.000000 -1.000000
vn 0.000000 0.000000 -1.000000
vn 1.000000 0.000000 0.000000
vn 1.000000 0.000000 0.000000
vn 1.000000 0.000000 0.000000
vn 1.000000 0.000000 0.000000
vn 0.000000 0.565464 0.824773
vn 0.000000 0.565464 0.824773
vn 0.000000 0.565464 0.824773
vn 0.000000 0.565464 0.824773
vn -0.824790 0.565439 0.000000
vn -0.824790 0.565439 0.000000
vn -0.824790 0.565439 0.000000
vn -0.824790 0.565439 0.000000
vn 0.000000 0.565464 -0.824773
vn 0.000000 0.565464 -0.824773
vn 0.000000 0.565464 -0.824773
vn 0.000000 0.565464 -0.824773
vn 0.824790 0.565439 0.000000
vn 0.824790 0.565439 0.000000
vn 0.824790 0.565439 0.000000
vn 0.824790 0.565439 0.000000
s off
f 1/1/1 2/2/2 4/3/3 3/4/4
f 49/5/5 50/6/6 51/7/7 52/8/8
f 5/9/9 6/10/10 8/11/11 7/12/12
f 7/12/13 8/11/14 2/2/15 1/1/16
f 2/2/17 8/11/18 6/10/19 4/3/20
f 7/12/21 1/1/22 3/4/23 5/9/24
f 3/4/25 4/3/26 10/13/27 9/14/28
f 4/3/29 6/10/30 11/15/31 10/13/32
f 6/10/33 5/9/34 12/16/35 11/15/36
f 5/9/37 3/4/38 9/14/39 12/16/40
f 9/14/41 10/13/42 14/17/43 13/18/44
f 10/13/45 11/15/46 15/19/47 14/17/48
f 11/15/49 12/16/50 16/20/51 15/19/52
f 12/16/53 9/14/54 13/18/55 16/20/56
f 13/18/57 14/17/58 18/21/59 17/22/60
f 14/17/61 15/19/62 19/23/63 18/21/64
f 15/19/65 16/20/66 20/24/67 19/23/68
f 16/20/69 13/18/70 17/22/71 20/24/72
f 17/22/73 18/21/74 22/25/75 21/26/76
f 18/21/77 19/23/78 23/27/79 22/25/80
f 19/23/81 20/24/82 24/28/83 23/27/84
f 20/24/85 17/22/86 21/26/87 24/28/88
f 21/26/89 22/25/90 26/29/91 25/30/92
f 22/25/93 23/27/94 27/31/95 26/29/96
f 23/27/97 24/28/98 28/32/99 27/31/100
f 24/28/101 21/26/102 25/30/103 28/32/104
f 25/30/105 26/29/106 65/33/107 66/34/108
f 26/29/109 27/31/110 68/35/111 65/33/112
f 27/31/113 28/32/114 67/36/115 68/35/116
f 28/32/117 25/30/118 66/34/119 67/36/120
f 29/37/121 30/38/122 34/39/123 33/40/124
f 30/38/125 31/41/126 35/42/127 34/39/128
f 31/41/129 32/43/130 36/44/131 35/42/132
f 32/43/133 29/37/134 33/40/135 36/44/136
f 33/40/137 34/39/138 38/45/139 37/46/140
f 34/39/141 35/42/142 39/47/143 38/45/144
f 35/42/145 36/44/146 40/48/147 39/47/148
f 36/44/149 33/40/150 37/46/151 40/48/152
f 37/46/153 38/45/154 42/49/155 41/50/156
f 38/45/157 39/47/158 43/51/159 42/49/160
f 39/47/161 40/48/162 44/52/163 43/51/164
f 40/48/165 37/46/166 41/50/167 44/52/168
f 41/50/169 42/49/170 46/53/171 45/54/172
f 42/49/173 43/51/174 47/55/175 46/53/176
f 43/51/177 44/52/178 48/56/179 47/55/180
f 44/52/181 41/50/182 45/54/183 48/56/184
f 45/54/185 46/53/186 50/6/187 49/5/188
f 46/53/189 47/55/190 51/7/191 50/6/192
f 47/55/193 48/56/194 52/8/195 51/7/196
f 48/56/197 45/54/198 49/5/199 52/8/200
f 54/57/201 53/58/202 69/59/203 70/60/204
f 55/61/205 54/57/206 70/60/207 71/62/208
f 56/63/209 55/61/210 71/62/211 72/64/212
f 53/58/213 56/63/214 72/64/215 69/59/216
f 58/65/217 57/66/218 61/67/219 62/68/220
f 59/69/221 58/65/222 62/68/223 63/70/224
f 60/71/225 59/69/226 63/70/227 64/72/228
f 57/66/229 60/71/230 64/72/231 61/67/232
f 62/68/233 61/67/234 73/73/235 74/74/236
f 63/70/237 62/68/238 74/74/239 75/75/240
f 64/72/241 63/70/242 75/75/243 76/76/244
f 61/67/245 64/72/246 76/76/247 73/73/248
f 66/34/249 65/33/250 57/66/251 58/65/252
f 67/36/253 66/34/254 58/65/255 59/69/256
f 68/35/257 67/36/258 59/69/259 60/71/260
f 65/33/261 68/35/262 60/71/263 57/66/264
f 70/60/265 69/59/266 30/38/267 29/37/268
f 71/62/269 70/60/270 29/37/271 32/43/272
f 72/64/273 71/62/274 32/43/275 31/41/276
f 69/59/277 72/64/278 31/41/279 30/38/280
f 74/74/281 73/73/282 53/58/283 54/57/284
f 75/75/285 74/74/286 54/57/287 55/61/288
f 76/76/289 75/75/290 55/61/291 56/63/292
f 73/73/293 76/76/294 56/63/295 53/58/296
