# This file uses centimeters as units for non-parametric coordinates.

v 0.182229 0.756603 0.313169
v -0.180334 0.362350 0.313784
v 0.182517 0.457800 0.312670
v 0.077458 0.339029 0.313875
v 0.075892 0.156364 0.314135
v 0.062160 -0.504028 0.314192
v 0.219415 0.924118 0.248718
v -0.184297 0.842228 0.306604
v -0.182350 -0.613462 0.312918
v 0.001676 0.930660 0.310785
v -0.307301 -0.667240 0.090767
v -0.226422 -0.763367 0.220379
v -0.076954 0.931202 0.280636
v 0.256009 0.930729 0.185352
v 0.248345 0.289722 0.198484
v 0.361221 0.829220 -0.002916
v 0.359890 -0.548285 0.003898
v 0.247922 -0.584898 0.196177
v 0.292590 -0.713997 0.088831
v -0.361362 0.843864 -0.002904
v -0.319888 0.274500 0.074699
v -0.322329 0.481659 0.068956
v 0.275762 -0.573387 -0.147635
v 0.112706 -0.927261 -0.010240
v 0.229489 0.930367 -0.200161
v 0.047223 -0.929543 -0.142628
v -0.305379 -0.006925 -0.091016
v -0.303682 -0.123178 -0.090917
v 0.290761 0.514339 -0.124678
v -0.301103 -0.268796 -0.084084
v -0.299497 -0.347536 -0.091517
v -0.298869 -0.263167 -0.131894
v -0.298812 -0.365435 -0.131969
v -0.126885 -0.928001 -0.119858
v -0.157283 -0.923382 0.081585
v -0.327266 0.572828 -0.061205
v -0.298669 -0.406729 -0.104270
v -0.306502 0.105511 -0.097947
v -0.180101 -0.929489 -0.047505
v -0.287726 0.931213 -0.076107
v -0.259514 0.886356 -0.178007
v 0.117440 -0.714558 -0.299966
v -0.263029 -0.824585 -0.171072
v 0.178458 0.582626 -0.314400
v -0.033744 0.930988 -0.265358
v -0.302406 -0.103109 -0.125768
v 0.155993 0.858246 -0.314400
v -0.180741 0.400429 -0.313343
v 0.105613 0.040914 -0.313898
v -0.182482 0.828922 -0.312345
v -0.033014 0.900749 -0.310452
v 0.098624 0.491856 -0.314339
v -0.182261 -0.633862 -0.312665
vt 0.211594 0.275676
vt 0.211594 0.300503
vt 0.211594 0.300503
vt 0.211594 0.300503
vt 0.211594 0.300503
vt 0.211594 0.300503
vt 0.211594 0.300503
vt 0.211594 0.300503
vt 0.211594 0.300503
vt 0.211594 0.300503
vt 0.211594 0.300503
vt 0.211594 0.300503
vt 0.211594 0.300503
vt 0.211594 0.300503
vt 0.211594 0.300503
vt 0.211594 0.300503
vt 0.211594 0.300503
vt 0.211594 0.300503
vt 0.211594 0.300503
vt 0.211594 0.300503
vt 0.211594 0.300503
vt 0.211594 0.300503
vt 0.211594 0.300503
vt 0.211594 0.300503
vt 0.211594 0.300503
vt 0.211594 0.300503
vt 0.211594 0.300503
vt 0.211594 0.300503
vt 0.211594 0.300503
vt 0.211594 0.300503
vt 0.211594 0.300503
vt 0.211594 0.300503
vt 0.211594 0.300503
vt 0.211594 0.300503
vt 0.211594 0.300503
vt 0.211594 0.300503
vt 0.211594 0.300503
vt 0.211594 0.300503
vt 0.211594 0.300503
vt 0.211594 0.300503
vt 0.211594 0.300503
vt 0.211594 0.300503
vt 0.211594 0.300503
vt 0.211594 0.300503
vt 0.211594 0.300503
vt 0.211594 0.300503
vt 0.211594 0.300503
vt 0.211594 0.300503
vt 0.211594 0.300503
vt 0.211594 0.275676
vt 0.211594 0.300503
vt 0.211594 0.300503
vt 0.211594 0.300503
vt 0.211594 0.275676
vt 0.211594 0.275676
vt 0.211594 0.275676
vt 0.211594 0.275676
vt 0.211594 0.300503
vt 0.211594 0.275676
vt 0.211594 0.275676
vt 0.211594 0.275676
vt 0.211594 0.275676
vt 0.211594 0.275676
vt 0.211594 0.275676
vt 0.211594 0.275676
vt 0.211594 0.275676
vt 0.211594 0.275676
vt 0.211594 0.275676
vt 0.211594 0.275676
vt 0.211594 0.275676
vt 0.211594 0.275676
vt 0.211594 0.275676
vt 0.211594 0.275676
vt 0.211594 0.275676
vt 0.211594 0.300503
vt 0.211594 0.275676
vt 0.211594 0.275676
vn -0.029464 0.014709 0.999458
vn -0.029464 0.014709 0.999458
vn -0.029464 0.014709 0.999458
vn 0.001837 0.004688 0.999987
vn 0.001837 0.004688 0.999987
vn 0.001837 0.004688 0.999987
vn -0.014829 -0.001687 0.999889
vn -0.014829 -0.001687 0.999889
vn -0.014829 -0.001687 0.999889
vn 0.000521 0.009688 0.999953
vn 0.000521 0.009688 0.999953
vn 0.000521 0.009688 0.999953
vn -0.000227 0.001422 0.999999
vn -0.000227 0.001422 0.999999
vn -0.000227 0.001422 0.999999
vn -0.001278 0.000113 0.999999
vn -0.001278 0.000113 0.999999
vn -0.001278 0.000113 0.999999
vn -0.004818 -0.000877 0.999988
vn -0.004818 -0.000877 0.999988
vn -0.004818 -0.000877 0.999988
vn 0.270239 0.292889 0.917162
vn 0.270239 0.292889 0.917162
vn 0.270239 0.292889 0.917162
vn -0.867996 0.000262 0.496571
vn -0.867996 0.000262 0.496571
vn -0.867996 0.000262 0.496571
vn 0.558893 -0.003614 0.829232
vn 0.558893 -0.003614 0.829232
vn 0.558893 -0.003614 0.829232
vn -0.863853 0.001338 0.503742
vn -0.863853 0.001338 0.503742
vn -0.863853 0.001338 0.503742
vn -0.289876 0.573378 0.766296
vn -0.289876 0.573378 0.766296
vn -0.289876 0.573378 0.766296
vn 0.246761 -0.560543 0.790506
vn 0.246761 -0.560543 0.790506
vn 0.246761 -0.560543 0.790506
vn 0.020155 0.999197 -0.034615
vn 0.020155 0.999197 -0.034615
vn 0.020155 0.999197 -0.034615
vn -0.864663 -0.054096 0.499432
vn -0.864663 -0.054096 0.499432
vn -0.864663 -0.054096 0.499432
vn -0.863539 0.006977 0.504234
vn -0.863539 0.006977 0.504234
vn -0.863539 0.006977 0.504234
vn -0.864236 0.003765 0.503073
vn -0.864236 0.003765 0.503073
vn -0.864236 0.003765 0.503073
vn 0.865957 0.000191 0.500118
vn 0.865957 0.000191 0.500118
vn 0.865957 0.000191 0.500118
vn 0.439573 -0.380567 0.813600
vn 0.439573 -0.380567 0.813600
vn 0.439573 -0.380567 0.813600
vn -0.871248 -0.003271 0.490832
vn -0.871248 -0.003271 0.490832
vn -0.871248 -0.003271 0.490832
vn 0.535464 -0.002488 0.844554
vn 0.535464 -0.002488 0.844554
vn 0.535464 -0.002488 0.844554
vn 0.563125 -0.011639 0.826290
vn 0.563125 -0.011639 0.826290
vn 0.563125 -0.011639 0.826289
vn 0.868469 0.003358 0.495733
vn 0.868469 0.003358 0.495733
vn 0.868469 0.003358 0.495733
vn -0.849735 -0.503302 0.156964
vn -0.849735 -0.503302 0.156964
vn -0.849735 -0.503302 0.156964
vn 0.870965 -0.008424 0.491273
vn 0.870965 -0.008424 0.491273
vn 0.870965 -0.008424 0.491273
vn -0.556606 0.765637 0.322474
vn -0.556606 0.765637 0.322474
vn -0.556606 0.765637 0.322475
vn 0.252651 -0.565431 0.785147
vn 0.252651 -0.565431 0.785147
vn 0.252651 -0.565431 0.785147
vn 0.256043 -0.567891 0.782267
vn 0.256043 -0.567891 0.782267
vn 0.256043 -0.567891 0.782267
vn 0.257617 -0.568274 0.781472
vn 0.257617 -0.568274 0.781472
vn 0.257617 -0.568274 0.781472
vn 0.037149 0.991475 0.124893
vn 0.037149 0.991475 0.124893
vn 0.037149 0.991475 0.124893
vn -0.999483 -0.010936 0.030252
vn -0.999483 -0.010936 0.030252
vn -0.999483 -0.010936 0.030252
vn -0.992361 -0.115531 -0.043280
vn -0.992361 -0.115531 -0.043280
vn -0.992361 -0.115531 -0.043280
vn -0.997935 -0.014617 -0.062551
vn -0.997935 -0.014617 -0.062551
vn -0.997935 -0.014617 -0.062551
vn 0.867962 -0.103556 0.485714
vn 0.867962 -0.103556 0.485714
vn 0.867962 -0.103556 0.485714
vn 0.245670 -0.571080 0.783271
vn 0.245670 -0.571080 0.783271
vn 0.245670 -0.571080 0.783271
vn 0.870166 0.000015 0.492759
vn 0.870166 0.000015 0.492759
vn 0.870166 0.000015 0.492759
vn 0.870510 0.001593 0.492149
vn 0.870510 0.001593 0.492149
vn 0.870510 0.001593 0.492149
vn 0.864303 -0.001746 0.502969
vn 0.864303 -0.001746 0.502969
vn 0.864303 -0.001746 0.502969
vn 0.788714 -0.502113 -0.354701
vn 0.788714 -0.502113 -0.354701
vn 0.788714 -0.502113 -0.354701
vn -0.849459 -0.503205 0.158761
vn -0.849459 -0.503204 0.158761
vn -0.849459 -0.503204 0.158761
vn -0.564344 0.755199 0.333453
vn -0.564344 0.755199 0.333453
vn -0.564344 0.755199 0.333453
vn -0.007282 -0.999757 0.020829
vn -0.007282 -0.999757 0.020829
vn -0.007282 -0.999757 0.020829
vn 0.869184 -0.003286 -0.494478
vn 0.869184 -0.003286 -0.494478
vn 0.869184 -0.003286 -0.494478
vn 0.874422 -0.001818 -0.485162
vn 0.874422 -0.001818 -0.485162
vn 0.874422 -0.001818 -0.485162
vn 0.650301 0.758316 -0.045448
vn 0.650301 0.758316 -0.045448
vn 0.650301 0.758316 -0.045448
vn 0.789430 -0.501295 -0.354266
vn 0.789430 -0.501295 -0.354266
vn 0.789430 -0.501295 -0.354266
vn 0.018194 -0.998864 0.044041
vn 0.018194 -0.998864 0.044041
vn 0.018194 -0.998864 0.044041
vn -0.998567 -0.020020 -0.049641
vn -0.998567 -0.020020 -0.049641
vn -0.998567 -0.020020 -0.049641
vn -0.997552 -0.014501 -0.068404
vn -0.997552 -0.014501 -0.068404
vn -0.997552 -0.014501 -0.068404
vn -0.998461 -0.041467 -0.036825
vn -0.998461 -0.041467 -0.036825
vn -0.998461 -0.041467 -0.036825
vn -0.997868 -0.013901 -0.063761
vn -0.997868 -0.013901 -0.063761
vn -0.997868 -0.013901 -0.063761
vn -0.012762 -0.999470 -0.029940
vn -0.012762 -0.999470 -0.029940
vn -0.012762 -0.999470 -0.029940
vn -0.998881 -0.014616 -0.044988
vn -0.998881 -0.014616 -0.044988
vn -0.998881 -0.014616 -0.044988
vn -0.997637 -0.013998 -0.067261
vn -0.997637 -0.013998 -0.067261
vn -0.997637 -0.013998 -0.067261
vn -0.998802 -0.003452 -0.048814
vn -0.998802 -0.003452 -0.048814
vn -0.998802 -0.003452 -0.048814
vn -0.838220 0.374119 -0.396764
vn -0.838220 0.374119 -0.396764
vn -0.838220 0.374119 -0.396764
vn -0.864848 -0.000810 -0.502033
vn -0.864848 -0.000810 -0.502033
vn -0.864848 -0.000810 -0.502033
vn -0.998695 -0.013023 -0.049382
vn -0.998695 -0.013023 -0.049382
vn -0.998695 -0.013023 -0.049382
vn -0.998633 -0.020224 -0.048208
vn -0.998633 -0.020224 -0.048208
vn -0.998633 -0.020224 -0.048208
vn -0.998599 -0.019990 -0.049004
vn -0.998599 -0.019990 -0.049004
vn -0.998599 -0.019990 -0.049004
vn -0.999459 -0.007858 -0.031953
vn -0.999458 -0.007858 -0.031953
vn -0.999459 -0.007858 -0.031953
vn -0.999459 -0.007858 -0.031953
vn -0.999864 -0.011425 -0.011870
vn -0.999864 -0.011425 -0.011870
vn -0.999864 -0.011425 -0.011870
vn -0.989592 -0.063783 -0.128991
vn -0.989592 -0.063783 -0.128991
vn -0.989592 -0.063783 -0.128991
vn -0.887658 0.043706 -0.458425
vn -0.887658 0.043706 -0.458425
vn -0.887658 0.043706 -0.458425
vn -0.864402 -0.000091 -0.502801
vn -0.864402 -0.000091 -0.502801
vn -0.864402 -0.000091 -0.502801
vn -0.838125 0.002355 -0.545473
vn -0.838125 0.002355 -0.545472
vn -0.838125 0.002355 -0.545473
vn -0.840403 -0.000074 -0.541963
vn -0.840403 -0.000074 -0.541963
vn -0.840403 -0.000074 -0.541963
vn -0.472628 -0.802519 -0.364124
vn -0.472628 -0.802519 -0.364124
vn -0.472628 -0.802519 -0.364124
vn -0.932325 -0.203666 -0.298814
vn -0.932325 -0.203666 -0.298814
vn -0.932325 -0.203666 -0.298814
vn 0.767947 -0.522232 -0.370851
vn 0.767947 -0.522232 -0.370851
vn 0.767947 -0.522232 -0.370851
vn -0.862142 -0.475524 0.174893
vn -0.862142 -0.475525 0.174893
vn -0.862142 -0.475525 0.174893
vn 0.001129 0.999999 -0.001018
vn 0.001129 0.999999 -0.001018
vn 0.001129 0.999999 -0.001018
vn 0.000632 1.000000 -0.000341
vn 0.000632 1.000000 -0.000341
vn 0.000632 1.000000 -0.000341
vn 0.842651 0.052395 -0.535905
vn 0.842651 0.052395 -0.535905
vn 0.842651 0.052395 -0.535905
vn -0.112088 -0.562767 -0.818981
vn -0.112088 -0.562767 -0.818981
vn -0.112088 -0.562767 -0.818981
vn 0.788906 -0.501431 -0.355237
vn 0.788906 -0.501431 -0.355237
vn 0.788906 -0.501431 -0.355237
vn -0.339116 0.822791 -0.456087
vn -0.339116 0.822791 -0.456088
vn -0.339116 0.822791 -0.456088
vn 0.861145 0.003875 -0.508345
vn 0.861145 0.003875 -0.508345
vn 0.861145 0.003875 -0.508345
vn -0.357790 0.766758 -0.532981
vn -0.357790 0.766758 -0.532981
vn -0.357790 0.766758 -0.532981
vn -0.116551 -0.559733 -0.820436
vn -0.116551 -0.559733 -0.820436
vn -0.116551 -0.559733 -0.820436
vn -0.871051 0.004230 -0.491174
vn -0.871051 0.004230 -0.491174
vn -0.871051 0.004230 -0.491174
vn 0.002412 0.999997 -0.000201
vn 0.002412 0.999997 -0.000201
vn 0.002412 0.999997 -0.000201
vn -0.864265 0.001150 -0.503035
vn -0.864265 0.001150 -0.503035
vn -0.864265 0.001150 -0.503035
vn 0.138183 0.823615 -0.550058
vn 0.138183 0.823615 -0.550058
vn 0.138183 0.823615 -0.550058
vn -0.363836 0.770893 -0.522827
vn -0.363836 0.770893 -0.522827
vn -0.363836 0.770893 -0.522827
vn -0.115931 -0.559693 -0.820551
vn -0.115931 -0.559693 -0.820551
vn -0.115931 -0.559693 -0.820551
vn 0.620128 -0.545789 -0.563521
vn 0.620128 -0.545789 -0.563521
vn 0.620128 -0.545789 -0.563521
vn 0.819396 0.066786 -0.569324
vn 0.819396 0.066786 -0.569324
vn 0.819396 0.066786 -0.569324
vn 0.163615 0.783277 -0.599756
vn 0.163615 0.783277 -0.599756
vn 0.163615 0.783277 -0.599756
vn -0.867931 -0.002368 -0.496679
vn -0.867931 -0.002368 -0.496679
vn -0.867931 -0.002368 -0.496679
vn 0.708299 0.005132 -0.705894
vn 0.708299 0.005132 -0.705894
vn 0.708299 0.005132 -0.705894
vn -0.840046 0.000878 -0.542514
vn -0.840046 0.000878 -0.542514
vn -0.840046 0.000878 -0.542514
vn 0.694448 -0.002397 -0.719539
vn 0.694448 -0.002397 -0.719539
vn 0.694448 -0.002397 -0.719539
vn 0.701867 0.010181 -0.712236
vn 0.701867 0.010181 -0.712236
vn 0.701867 0.010181 -0.712236
vn -0.010179 0.047494 -0.998820
vn -0.010179 0.047494 -0.998820
vn -0.010179 0.047494 -0.998820
vn -0.000699 -0.000057 -1.000000
vn -0.000699 -0.000057 -1.000000
vn -0.000699 -0.000057 -1.000000
vn -0.006141 0.000795 -0.999981
vn -0.006141 0.000795 -0.999981
vn -0.006141 0.000795 -0.999981
vn -0.004321 0.002313 -0.999988
vn -0.004321 0.002313 -0.999988
vn -0.004321 0.002313 -0.999988
vn -0.003228 -0.001027 -0.999994
vn -0.003228 -0.001027 -0.999994
vn -0.003228 -0.001027 -0.999994
vn -0.002756 -0.000652 -0.999996
vn -0.002756 -0.000652 -0.999996
vn -0.002756 -0.000652 -0.999996
vn 0.037533 -0.017838 -0.999136
vn 0.037533 -0.017838 -0.999136
vn 0.037533 -0.017838 -0.999136
s off
f 8/75/1 2/2/2 10/3/3
f 10/3/4 2/2/5 3/4/6
f 1/5/7 10/3/8 3/4/9
f 3/4/10 2/2/11 4/6/12
f 5/7/13 4/6/14 2/2/15
f 5/7/16 2/2/17 6/8/18
f 6/8/19 2/2/20 9/9/21
f 1/5/22 7/10/23 10/3/24
f 2/2/25 8/75/26 20/11/27
f 5/7/28 15/12/29 4/6/30
f 9/9/31 2/2/32 21/13/33
f 8/1/34 10/77/35 13/69/36
f 12/15/37 6/8/38 9/9/39
f 7/10/40 13/14/41 10/3/42
f 9/9/43 11/16/44 12/15/45
f 2/2/46 20/11/47 22/17/48
f 21/13/49 2/2/50 22/17/51
f 14/18/52 7/10/53 1/5/54
f 15/12/55 3/4/56 4/6/57
f 11/16/58 9/9/59 21/13/60
f 6/8/61 18/19/62 15/12/63
f 15/12/64 5/7/65 6/8/66
f 15/12/67 16/20/68 3/4/69
f 12/15/70 11/16/71 35/21/72
f 14/18/73 1/5/74 16/20/75
f 20/74/76 8/76/77 13/70/78
f 6/8/79 19/22/80 18/19/81
f 6/8/82 12/15/83 35/21/84
f 35/21/85 24/23/86 6/8/87
f 14/18/88 13/14/89 7/10/90
f 22/17/91 36/24/92 21/13/93
f 20/11/94 36/24/95 22/17/96
f 27/25/97 28/26/98 21/13/99
f 18/19/100 19/22/101 17/27/102
f 24/23/103 19/22/104 6/8/105
f 3/4/106 16/20/107 1/5/108
f 16/20/109 15/12/110 17/27/111
f 15/12/112 18/19/113 17/27/114
f 19/22/115 23/28/116 17/27/117
f 43/29/118 35/21/119 11/16/120
f 20/73/121 13/71/122 40/66/123
f 26/31/124 24/23/125 35/21/126
f 29/32/127 16/20/128 17/27/129
f 23/28/130 29/32/131 17/27/132
f 16/20/133 25/33/134 14/18/135
f 24/23/136 23/28/137 19/22/138
f 39/34/139 26/31/140 35/21/141
f 28/26/142 30/35/143 21/13/144
f 21/13/145 30/35/146 11/16/147
f 21/13/148 36/24/149 38/36/150
f 21/13/151 38/36/152 27/25/153
f 39/34/154 34/37/155 26/31/156
f 28/26/157 27/25/158 46/38/159
f 30/35/160 31/39/161 11/16/162
f 11/16/163 31/39/164 37/40/165
f 20/72/166 40/67/167 41/65/168
f 20/11/169 48/42/170 36/24/171
f 38/36/172 46/38/173 27/25/174
f 46/38/175 32/43/176 28/26/177
f 28/26/178 32/43/179 30/35/180
f 33/44/181 31/39/182 30/35/183 32/43/184
f 31/39/185 33/44/186 37/40/187
f 11/16/188 37/40/189 43/29/190
f 48/42/191 46/38/192 38/36/193
f 20/11/194 41/41/195 48/42/196
f 32/43/197 46/38/198 53/45/199
f 33/44/200 32/43/201 53/45/202
f 43/29/203 34/37/204 39/34/205
f 53/45/206 37/40/207 33/44/208
f 42/46/209 24/23/210 26/31/211
f 35/21/212 43/29/213 39/34/214
f 25/33/215 13/14/216 14/18/217
f 45/47/218 40/30/219 13/14/220
f 16/20/221 44/48/222 25/33/223
f 34/37/224 42/46/225 26/31/226
f 42/46/227 23/28/228 24/23/229
f 45/60/230 41/64/231 40/68/232
f 44/48/233 16/20/234 29/32/235
f 45/61/236 50/57/237 41/63/238
f 53/45/239 34/37/240 43/29/241
f 37/40/242 53/45/243 43/29/244
f 25/33/245 45/47/246 13/14/247
f 36/24/248 48/42/249 38/36/250
f 51/58/251 45/47/252 25/33/253
f 51/59/254 50/56/255 45/62/256
f 42/46/257 34/37/258 53/45/259
f 52/51/260 44/48/261 29/32/262
f 44/48/263 47/52/264 25/33/265
f 25/33/266 47/52/267 51/58/268
f 41/41/269 50/49/270 48/42/271
f 49/53/272 29/32/273 23/28/274
f 46/38/275 48/42/276 53/45/277
f 42/46/278 49/53/279 23/28/280
f 49/53/281 52/51/282 29/32/283
f 51/50/284 47/54/285 50/55/286
f 47/52/287 44/48/288 52/51/289
f 50/49/290 47/52/291 52/51/292
f 48/42/293 50/49/294 52/51/295
f 48/42/296 52/51/297 49/53/298
f 48/42/299 49/53/300 53/45/301
f 53/45/302 49/53/303 42/46/304
