# This file uses centimeters as units for non-parametric coordinates.

v -0.196896 -0.263527 0.252320
v 0.206467 -0.263527 0.216300
v -0.196896 0.263527 0.252320
v 0.206467 0.263527 0.252320
v -0.196896 0.263527 -0.083652
v 0.206467 0.263527 -0.122965
v -0.196896 -0.263527 -0.122965
v 0.206467 -0.263527 -0.122965
v -0.196896 0.192274 -0.122965
v -0.128120 0.263527 -0.122965
v 0.206467 -0.180668 0.252320
v 0.127258 -0.263527 0.252320
v -0.245098 0.031921 0.008225
v -0.245098 -0.039875 0.008225
v -0.245098 -0.075775 0.070404
v -0.245098 -0.039875 0.132583
v -0.245098 0.031921 0.132583
v -0.245098 0.067822 0.070404
v -0.299660 0.022154 0.025145
v -0.299660 -0.030107 0.025145
v -0.299660 -0.056238 0.070404
v -0.299660 -0.030107 0.115664
v -0.299660 0.022154 0.115664
v -0.299660 0.048285 0.070404
v -0.299660 -0.003977 0.070404
v -0.245098 0.135937 -0.050763
v -0.245098 -0.143890 -0.050763
v -0.245098 -0.153152 0.070404
v -0.245098 -0.143890 0.191573
v -0.245098 0.135937 0.191573
v -0.245098 0.145199 0.070404
v -0.178398 0.135937 -0.050763
v -0.178398 -0.143890 -0.050763
v -0.178398 -0.153152 0.070404
v -0.178398 -0.143890 0.191573
v -0.178398 0.135937 0.191573
v -0.178398 0.145199 0.070404
v -0.276703 -0.039875 0.008225
v -0.276703 -0.075775 0.070404
v -0.276703 -0.039875 0.132583
v -0.276703 0.031921 0.132583
v -0.276703 0.067822 0.070404
v -0.276703 0.031921 0.008225
v -0.276703 0.048285 0.070404
v -0.276703 0.022154 0.115664
v -0.276703 -0.030107 0.115664
v -0.276703 -0.056238 0.070404
v -0.276703 -0.030107 0.025145
v -0.276703 0.022154 0.025145
v 0.255650 0.034609 0.117058
v 0.255650 -0.037188 0.117058
v 0.255650 -0.073088 0.054879
v 0.255650 -0.037188 -0.007299
v 0.255650 0.034609 -0.007299
v 0.255650 0.070509 0.054879
v 0.310211 0.024841 0.100139
v 0.310211 -0.027420 0.100139
v 0.310211 -0.053551 0.054879
v 0.310211 -0.027420 0.009619
v 0.310211 0.024841 0.009619
v 0.310211 0.050972 0.054879
v 0.310211 -0.001289 0.054879
v 0.255650 0.138624 0.176046
v 0.255650 -0.141203 0.176046
v 0.255650 -0.150465 0.054879
v 0.255650 -0.141203 -0.066289
v 0.255650 0.138624 -0.066289
v 0.255650 0.147886 0.054879
v 0.188950 0.138624 0.176046
v 0.188950 -0.141203 0.176046
v 0.188950 -0.150465 0.054879
v 0.188950 -0.141203 -0.066289
v 0.188950 0.138624 -0.066289
v 0.188950 0.147886 0.054879
v 0.287254 -0.037188 0.117058
v 0.287254 -0.073088 0.054879
v 0.287254 -0.037188 -0.007299
v 0.287254 0.034609 -0.007299
v 0.287254 0.070509 0.054879
v 0.287254 0.034609 0.117058
v 0.287254 0.050972 0.054879
v 0.287254 0.024841 0.009619
v 0.287254 -0.027420 0.009619
v 0.287254 -0.053551 0.054879
v 0.287254 -0.027420 0.100139
v 0.287254 0.024841 0.100139
vt 0.200491 0.279040
vt 0.198513 0.255323
vt 0.200491 0.279040
vt 0.200491 0.279040
vt 0.198513 0.255323
vt 0.200491 0.279040
vt 0.200491 0.279040
vt 0.200491 0.251372
vt 0.200491 0.279040
vt 0.200491 0.279040
vt 0.200491 0.279040
vt 0.200491 0.279040
vt 0.200491 0.279040
vt 0.200491 0.279040
vt 0.200491 0.251372
vt 0.200491 0.279040
vt 0.200491 0.279040
vt 0.200491 0.251372
vt 0.200491 0.279040
vt 0.200491 0.251372
vt 0.200491 0.279040
vt 0.200491 0.251372
vt 0.200491 0.251372
vt 0.200491 0.279040
vt 0.200491 0.279040
vt 0.200491 0.251372
vt 0.200491 0.251372
vt 0.200491 0.279040
vt 0.200491 0.251372
vt 0.200491 0.279040
vt 0.200491 0.251372
vt 0.200491 0.279040
vt 0.198513 0.255323
vt 0.198513 0.255323
vt 0.198513 0.255323
vt 0.198513 0.255323
vt 0.199515 0.227902
vt 0.199515 0.227902
vt 0.199515 0.227902
vt 0.199515 0.227902
vt 0.199515 0.227902
vt 0.199515 0.227902
vt 0.199515 0.227902
vt 0.199515 0.227902
vt 0.199515 0.227902
vt 0.199515 0.227902
vt 0.199515 0.227902
vt 0.199515 0.227902
vt 0.199087 0.275987
vt 0.199087 0.275987
vt 0.199087 0.275987
vt 0.199087 0.275987
vt 0.199087 0.275987
vt 0.199087 0.275987
vt 0.199087 0.275987
vt 0.199060 0.252385
vt 0.199060 0.252385
vt 0.199060 0.252385
vt 0.199060 0.252385
vt 0.199060 0.252385
vt 0.199060 0.252385
vt 0.199060 0.252385
vt 0.199060 0.252385
vt 0.199060 0.252385
vt 0.199060 0.252385
vt 0.199060 0.252385
vt 0.199060 0.252385
vt 0.199060 0.252385
vt 0.199060 0.252385
vt 0.199060 0.252385
vt 0.199060 0.252385
vt 0.199060 0.252385
vt 0.199060 0.252385
vt 0.199060 0.252385
vt 0.199060 0.252385
vt 0.199060 0.252385
vt 0.199060 0.252385
vt 0.199060 0.252385
vt 0.199060 0.252385
vt 0.199060 0.252385
vt 0.199060 0.252385
vt 0.199060 0.252385
vt 0.199060 0.252385
vt 0.199060 0.252385
vt 0.199060 0.252385
vt 0.199060 0.252385
vt 0.199060 0.252385
vt 0.199060 0.252385
vt 0.199060 0.252385
vt 0.199060 0.252385
vt 0.199060 0.252385
vt 0.199515 0.227902
vt 0.199515 0.227902
vt 0.199515 0.227902
vt 0.199515 0.227902
vt 0.199515 0.227902
vt 0.199515 0.227902
vt 0.199087 0.275987
vt 0.199087 0.275987
vt 0.199087 0.275987
vt 0.199087 0.275987
vt 0.199087 0.275987
vt 0.199087 0.275987
vt 0.199515 0.227902
vt 0.199515 0.227902
vt 0.199515 0.227902
vt 0.199515 0.227902
vt 0.199515 0.227902
vt 0.199515 0.227902
vt 0.199515 0.227902
vt 0.199515 0.227902
vt 0.199515 0.227902
vt 0.199515 0.227902
vt 0.199515 0.227902
vt 0.199515 0.227902
vt 0.199087 0.275987
vt 0.199087 0.275987
vt 0.199087 0.275987
vt 0.199087 0.275987
vt 0.199087 0.275987
vt 0.199087 0.275987
vt 0.199087 0.275987
vt 0.199060 0.252385
vt 0.199060 0.252385
vt 0.199060 0.252385
vt 0.199060 0.252385
vt 0.199060 0.252385
vt 0.199060 0.252385
vt 0.199060 0.252385
vt 0.199060 0.252385
vt 0.199060 0.252385
vt 0.199060 0.252385
vt 0.199060 0.252385
vt 0.199060 0.252385
vt 0.199060 0.252385
vt 0.199060 0.252385
vt 0.199060 0.252385
vt 0.199060 0.252385
vt 0.199060 0.252385
vt 0.199060 0.252385
vt 0.199060 0.252385
vt 0.199060 0.252385
vt 0.199060 0.252385
vt 0.199060 0.252385
vt 0.199060 0.252385
vt 0.199060 0.252385
vt 0.199060 0.252385
vt 0.199060 0.252385
vt 0.199060 0.252385
vt 0.199060 0.252385
vt 0.199060 0.252385
vt 0.199060 0.252385
vt 0.199060 0.252385
vt 0.199060 0.252385
vt 0.199060 0.252385
vt 0.199060 0.252385
vt 0.199060 0.252385
vt 0.199060 0.252385
vt 0.199515 0.227902
vt 0.199515 0.227902
vt 0.199515 0.227902
vt 0.199515 0.227902
vt 0.199515 0.227902
vt 0.199515 0.227902
vt 0.199087 0.275987
vt 0.199087 0.275987
vt 0.199087 0.275987
vt 0.199087 0.275987
vt 0.199087 0.275987
vt 0.199087 0.275987
vn 0.002522 -0.002411 0.999994
vn 0.002704 -0.002585 0.999993
vn 0.384913 -0.367955 0.846434
vn 0.000000 1.000000 0.000000
vn 0.000000 1.000000 0.000000
vn 0.000000 1.000000 0.000000
vn 0.000000 1.000000 0.000000
vn 0.000000 1.000000 0.000000
vn -0.002486 0.002399 -0.999994
vn -0.002620 0.002529 -0.999993
vn 0.000000 0.000000 -1.000000
vn 0.000000 0.000000 -1.000000
vn 0.000000 0.000000 -1.000000
vn -1.000000 0.000000 0.000000
vn -1.000000 0.000000 0.000000
vn -1.000000 0.000000 0.000000
vn -1.000000 0.000000 0.000000
vn -1.000000 0.000000 0.000000
vn -0.447564 0.432001 -0.782983
vn -0.002620 0.002529 -0.999993
vn -0.002486 0.002399 -0.999994
vn 0.000000 0.000000 1.000000
vn 0.002704 -0.002585 0.999993
vn 0.002522 -0.002411 0.999994
vn 0.000000 0.000000 1.000000
vn 0.000000 0.000000 1.000000
vn 0.000000 -1.000000 0.000000
vn 0.000000 -1.000000 0.000000
vn 0.000000 -1.000000 0.000000
vn 0.000000 -1.000000 0.000000
vn 0.000000 -1.000000 0.000000
vn 1.000000 0.000000 0.000000
vn 1.000000 0.000000 0.000000
vn 1.000000 0.000000 0.000000
vn 1.000000 0.000000 0.000000
vn 1.000000 0.000000 0.000000
vn -1.000000 0.000000 0.000000
vn -1.000000 0.000000 0.000000
vn -1.000000 0.000000 0.000000
vn -1.000000 0.000000 0.000000
vn -1.000000 0.000000 0.000000
vn -1.000000 0.000000 0.000000
vn -1.000000 0.000000 0.000000
vn -1.000000 0.000000 0.000000
vn -1.000000 0.000001 0.000000
vn -1.000000 0.000001 0.000000
vn -1.000000 0.000001 0.000000
vn -1.000000 0.000001 0.000000
vn -1.000000 0.000000 0.000000
vn -1.000000 0.000000 0.000000
vn -1.000000 0.000000 0.000000
vn -1.000000 0.000000 0.000000
vn -1.000000 -0.000001 0.000000
vn -1.000000 -0.000001 0.000000
vn -1.000000 -0.000001 0.000000
vn -1.000000 -0.000001 0.000000
vn -1.000000 0.000000 0.000000
vn -1.000000 0.000000 0.000000
vn -1.000000 0.000000 0.000000
vn -1.000000 0.000000 0.000000
vn -1.000000 0.000000 0.000000
vn -1.000000 0.000000 0.000000
vn -1.000000 0.000000 0.000000
vn -1.000000 0.000000 0.000000
vn -1.000000 0.000000 0.000000
vn -1.000000 0.000000 0.000000
vn -1.000000 0.000000 0.000000
vn -1.000000 0.000000 0.000000
vn -1.000000 0.000000 0.000000
vn -1.000000 0.000000 0.000000
vn -1.000000 0.000000 0.000000
vn -1.000000 0.000000 0.000000
vn -1.000000 0.000000 0.000000
vn -1.000000 0.000000 0.000000
vn -1.000000 0.000000 0.000000
vn -1.000000 0.000000 0.000000
vn -1.000000 0.000000 0.000000
vn -1.000000 0.000000 0.000000
vn -1.000000 0.000000 0.000000
vn -1.000000 0.000000 0.000000
vn -1.000000 0.000000 0.000000
vn -1.000000 0.000000 0.000000
vn -1.000000 0.000000 0.000000
vn -1.000000 0.000000 0.000000
vn -1.000000 0.000000 0.000000
vn -1.000000 0.000000 0.000000
vn -1.000000 0.000000 0.000000
vn -1.000000 0.000000 0.000000
vn -1.000000 0.000000 0.000000
vn -1.000000 0.000000 0.000000
vn -1.000000 0.000000 0.000000
vn -1.000000 0.000000 0.000000
vn -1.000000 0.000000 0.000000
vn -1.000000 0.000000 0.000000
vn -1.000000 0.000000 0.000000
vn -1.000000 0.000000 0.000000
vn -1.000000 0.000000 0.000000
vn -1.000000 0.000000 0.000000
vn -1.000000 0.000000 0.000000
vn -1.000000 0.000000 0.000000
vn -1.000000 0.000000 0.000000
vn -1.000000 0.000000 0.000000
vn 0.000000 0.000000 -1.000000
vn 0.000000 0.000000 -1.000000
vn 0.000000 0.000000 -1.000000
vn 0.000000 0.000000 -1.000000
vn 0.000000 -0.997091 -0.076218
vn 0.000000 -0.997091 -0.076218
vn 0.000000 -0.997091 -0.076218
vn 0.000000 -0.997091 -0.076218
vn 0.000000 -0.997091 0.076217
vn 0.000000 -0.997091 0.076217
vn 0.000000 -0.997091 0.076217
vn 0.000000 -0.997091 0.076217
vn 0.000000 0.000000 1.000000
vn 0.000000 0.000000 1.000000
vn 0.000000 0.000000 1.000000
vn 0.000000 0.000000 1.000000
vn 0.000000 0.997091 0.076217
vn 0.000000 0.997091 0.076217
vn 0.000000 0.997091 0.076217
vn 0.000000 0.997091 0.076217
vn 0.000000 0.997091 -0.076218
vn 0.000000 0.997091 -0.076218
vn 0.000000 0.997091 -0.076218
vn 0.000000 0.997091 -0.076218
vn 1.000000 -0.000000 0.000000
vn 1.000000 -0.000000 0.000000
vn 1.000000 -0.000000 0.000000
vn 1.000000 -0.000000 0.000000
vn 1.000000 -0.000000 0.000000
vn 1.000000 -0.000000 0.000000
vn 0.000000 -0.866018 -0.500013
vn 0.000000 -0.866018 -0.500013
vn 0.000000 -0.866018 -0.500013
vn 0.000000 -0.866018 -0.500013
vn 0.000000 -0.866018 0.500013
vn 0.000000 -0.866018 0.500013
vn 0.000000 -0.866018 0.500013
vn 0.000000 -0.866018 0.500013
vn 0.000000 0.000000 1.000000
vn 0.000000 0.000000 1.000000
vn 0.000000 0.000000 1.000000
vn 0.000000 0.000000 1.000000
vn 0.000000 0.866018 0.500013
vn 0.000000 0.866018 0.500013
vn 0.000000 0.866018 0.500013
vn 0.000000 0.866018 0.500013
vn 0.000000 0.866018 -0.500013
vn 0.000000 0.866018 -0.500013
vn 0.000000 0.866018 -0.500013
vn 0.000000 0.866018 -0.500013
vn 0.000000 0.000000 -1.000000
vn 0.000000 0.000000 -1.000000
vn 0.000000 0.000000 -1.000000
vn 0.000000 0.000000 -1.000000
vn 0.000000 0.866029 0.499994
vn 0.000000 0.866029 0.499994
vn 0.000000 0.866029 0.499994
vn 0.000000 0.866029 0.499994
vn 0.000000 0.000000 1.000000
vn 0.000000 0.000000 1.000000
vn 0.000000 0.000000 1.000000
vn 0.000000 0.000000 1.000000
vn 0.000000 -0.866029 0.499994
vn 0.000000 -0.866029 0.499994
vn 0.000000 -0.866029 0.499994
vn 0.000000 -0.866029 0.499994
vn 0.000000 -0.866024 -0.500002
vn 0.000000 -0.866024 -0.500002
vn 0.000000 -0.866024 -0.500002
vn 0.000000 -0.866024 -0.500002
vn 0.000000 0.000000 -1.000000
vn 0.000000 0.000000 -1.000000
vn 0.000000 0.000000 -1.000000
vn 0.000000 0.000000 -1.000000
vn 0.000000 0.866024 -0.500002
vn 0.000000 0.866024 -0.500002
vn 0.000000 0.866024 -0.500002
vn 0.000000 0.866024 -0.500002
vn 1.000000 0.000000 0.000000
vn 1.000000 0.000000 0.000000
vn 1.000000 0.000000 0.000000
vn 1.000000 0.000000 0.000000
vn 1.000000 -0.000000 0.000000
vn 1.000000 -0.000000 0.000000
vn 1.000000 -0.000000 0.000000
vn 1.000000 -0.000000 0.000000
vn 1.000000 0.000000 0.000000
vn 1.000000 0.000000 0.000000
vn 1.000000 0.000000 0.000000
vn 1.000000 0.000000 0.000000
vn 1.000000 0.000000 0.000000
vn 1.000000 0.000000 0.000000
vn 1.000000 0.000000 0.000000
vn 1.000000 0.000000 0.000000
vn 1.000000 0.000000 0.000000
vn 1.000000 0.000000 0.000000
vn 1.000000 0.000000 0.000000
vn 1.000000 0.000000 0.000000
vn 1.000000 0.000000 0.000000
vn 1.000000 0.000000 0.000000
vn 1.000000 0.000000 0.000000
vn 1.000000 0.000000 0.000000
vn 1.000000 0.000000 0.000000
vn 1.000000 0.000000 0.000000
vn 1.000000 0.000000 0.000000
vn 1.000000 0.000000 0.000000
vn 1.000000 0.000000 0.000000
vn 1.000000 0.000000 0.000000
vn 1.000000 0.000000 0.000000
vn 1.000000 0.000000 0.000000
vn 1.000000 0.000000 0.000000
vn 1.000000 0.000000 0.000000
vn 1.000000 0.000000 0.000000
vn 1.000000 0.000000 0.000000
vn 1.000000 0.000000 0.000000
vn 1.000000 0.000000 0.000000
vn 1.000000 0.000000 0.000000
vn 1.000000 0.000000 0.000000
vn 1.000000 0.000000 0.000000
vn 1.000000 0.000000 0.000000
vn 1.000000 0.000000 0.000000
vn 1.000000 0.000000 0.000000
vn 1.000000 0.000000 0.000000
vn 1.000000 0.000000 0.000000
vn 1.000000 0.000000 0.000000
vn 1.000000 0.000000 0.000000
vn 1.000000 0.000000 0.000000
vn 1.000000 0.000000 0.000000
vn 1.000000 0.000000 0.000000
vn 1.000000 0.000000 0.000000
vn 1.000000 0.000000 0.000000
vn 1.000000 0.000000 0.000000
vn 1.000000 0.000000 0.000000
vn 1.000000 0.000000 0.000000
vn 1.000000 0.000000 0.000000
vn 1.000000 0.000000 0.000000
vn 1.000000 0.000000 0.000000
vn 1.000000 0.000000 0.000000
vn 1.000000 0.000000 0.000000
vn 1.000000 0.000000 0.000000
vn 1.000000 -0.000000 0.000000
vn 1.000000 -0.000000 0.000000
vn 1.000000 -0.000000 0.000000
vn 1.000000 -0.000000 0.000000
vn 0.000000 0.000000 1.000000
vn 0.000000 0.000000 1.000000
vn 0.000000 0.000000 1.000000
vn 0.000000 0.000000 1.000000
vn 0.000000 -0.997091 0.076218
vn 0.000000 -0.997091 0.076218
vn 0.000000 -0.997091 0.076218
vn 0.000000 -0.997091 0.076218
vn 0.000000 -0.997091 -0.076217
vn 0.000000 -0.997091 -0.076217
vn 0.000000 -0.997091 -0.076217
vn 0.000000 -0.997091 -0.076217
vn 0.000000 0.000000 -1.000000
vn 0.000000 0.000000 -1.000000
vn 0.000000 0.000000 -1.000000
vn 0.000000 0.000000 -1.000000
vn 0.000000 0.997091 -0.076217
vn 0.000000 0.997091 -0.076217
vn 0.000000 0.997091 -0.076217
vn 0.000000 0.997091 -0.076217
vn 0.000000 0.997091 0.076218
vn 0.000000 0.997091 0.076218
vn 0.000000 0.997091 0.076218
vn 0.000000 0.997091 0.076218
vn -1.000000 0.000000 0.000000
vn -1.000000 0.000000 0.000000
vn -1.000000 0.000000 0.000000
vn -1.000000 0.000000 0.000000
vn -1.000000 0.000000 0.000000
vn -1.000000 0.000000 0.000000
vn 0.000000 -0.866018 0.500013
vn 0.000000 -0.866018 0.500013
vn 0.000000 -0.866018 0.500013
vn 0.000000 -0.866018 0.500013
vn 0.000000 -0.866018 -0.500013
vn 0.000000 -0.866018 -0.500013
vn 0.000000 -0.866018 -0.500013
vn 0.000000 -0.866018 -0.500013
vn 0.000000 0.000000 -1.000000
vn 0.000000 0.000000 -1.000000
vn 0.000000 0.000000 -1.000000
vn 0.000000 0.000000 -1.000000
vn 0.000000 0.866018 -0.500013
vn 0.000000 0.866018 -0.500013
vn 0.000000 0.866018 -0.500013
vn 0.000000 0.866018 -0.500013
vn 0.000000 0.866018 0.500013
vn 0.000000 0.866018 0.500013
vn 0.000000 0.866018 0.500013
vn 0.000000 0.866018 0.500013
vn 0.000000 0.000000 1.000000
vn 0.000000 0.000000 1.000000
vn 0.000000 0.000000 1.000000
vn 0.000000 0.000000 1.000000
vn 0.000000 0.866027 -0.499998
vn 0.000000 0.866027 -0.499998
vn 0.000000 0.866027 -0.499998
vn 0.000000 0.866027 -0.499998
vn 0.000000 0.000000 -1.000000
vn 0.000000 0.000000 -1.000000
vn 0.000000 0.000000 -1.000000
vn 0.000000 0.000000 -1.000000
vn 0.000000 -0.866027 -0.499998
vn 0.000000 -0.866027 -0.499998
vn 0.000000 -0.866027 -0.499998
vn 0.000000 -0.866027 -0.499998
vn 0.000000 -0.866027 0.499998
vn 0.000000 -0.866027 0.499998
vn 0.000000 -0.866027 0.499998
vn 0.000000 -0.866027 0.499998
vn 0.000000 0.000000 1.000000
vn 0.000000 0.000000 1.000000
vn 0.000000 0.000000 1.000000
vn 0.000000 0.000000 1.000000
vn 0.000000 0.866027 0.499998
vn 0.000000 0.866027 0.499998
vn 0.000000 0.866027 0.499998
vn 0.000000 0.866027 0.499998
s off
f 11/2/1 12/5/2 2/33/3
f 3/3/4 4/21/5 6/6/6 10/28/7 5/17/8
f 9/26/9 10/27/10 6/15/11 8/8/12 7/18/13
f 7/13/14 1/1/15 3/24/16 5/14/17 9/25/18
f 5/34/19 10/35/20 9/36/21
f 1/22/22 12/31/23 11/29/24 4/20/25 3/23/26
f 7/7/27 8/16/28 2/10/29 12/32/30 1/9/31
f 11/30/32 2/19/33 8/11/34 6/12/35 4/4/36
f 43/37/37 38/38/38 48/39/39 49/40/40
f 38/38/41 39/41/42 47/42/43 48/39/44
f 39/41/45 40/43/46 46/44/47 47/42/48
f 40/43/49 41/45/50 45/46/51 46/44/52
f 41/45/53 42/47/54 44/48/55 45/46/56
f 42/47/57 43/37/58 49/40/59 44/48/60
f 19/49/61 20/50/62 25/51/63
f 20/50/64 21/52/65 25/51/66
f 21/52/67 22/53/68 25/51/69
f 22/53/70 23/54/71 25/51/72
f 23/54/73 24/55/74 25/51/75
f 24/55/76 19/49/77 25/51/78
f 14/56/79 13/57/80 26/58/81 27/59/82
f 15/60/83 14/56/84 27/59/85 28/61/86
f 16/62/87 15/60/88 28/61/89 29/63/90
f 17/64/91 16/62/92 29/63/93 30/65/94
f 18/66/95 17/64/96 30/65/97 31/67/98
f 13/57/99 18/66/100 31/67/101 26/58/102
f 27/68/103 26/69/104 32/70/105 33/71/106
f 28/72/107 27/73/108 33/74/109 34/75/110
f 29/76/111 28/77/112 34/78/113 35/79/114
f 30/80/115 29/81/116 35/82/117 36/83/118
f 31/84/119 30/85/120 36/86/121 37/87/122
f 26/88/123 31/89/124 37/90/125 32/91/126
f 33/71/127 32/91/128 37/87/129 36/83/130 35/79/131 34/75/132
f 14/92/133 15/93/134 39/41/135 38/38/136
f 15/93/137 16/94/138 40/43/139 39/41/140
f 16/94/141 17/95/142 41/45/143 40/43/144
f 17/95/145 18/96/146 42/47/147 41/45/148
f 18/96/149 13/97/150 43/37/151 42/47/152
f 13/97/153 14/92/154 38/38/155 43/37/156
f 45/98/157 44/99/158 24/55/159 23/54/160
f 46/100/161 45/98/162 23/54/163 22/53/164
f 47/101/165 46/100/166 22/53/167 21/52/168
f 48/102/169 47/101/170 21/52/171 20/50/172
f 49/103/173 48/102/174 20/50/175 19/49/176
f 44/99/177 49/103/178 19/49/179 24/55/180
f 80/104/181 75/105/182 85/106/183 86/107/184
f 75/105/185 76/108/186 84/109/187 85/106/188
f 76/108/189 77/110/190 83/111/191 84/109/192
f 77/110/193 78/112/194 82/113/195 83/111/196
f 78/112/197 79/114/198 81/115/199 82/113/200
f 79/114/201 80/104/202 86/107/203 81/115/204
f 56/116/205 57/117/206 62/118/207
f 57/117/208 58/119/209 62/118/210
f 58/119/211 59/120/212 62/118/213
f 59/120/214 60/121/215 62/118/216
f 60/121/217 61/122/218 62/118/219
f 61/122/220 56/116/221 62/118/222
f 51/123/223 50/124/224 63/125/225 64/126/226
f 52/127/227 51/123/228 64/126/229 65/128/230
f 53/129/231 52/127/232 65/128/233 66/130/234
f 54/131/235 53/129/236 66/130/237 67/132/238
f 55/133/239 54/131/240 67/132/241 68/134/242
f 50/124/243 55/133/244 68/134/245 63/125/246
f 64/135/247 63/136/248 69/137/249 70/138/250
f 65/139/251 64/140/252 70/141/253 71/142/254
f 66/143/255 65/144/256 71/145/257 72/146/258
f 67/147/259 66/148/260 72/149/261 73/150/262
f 68/151/263 67/152/264 73/153/265 74/154/266
f 63/155/267 68/156/268 74/157/269 69/158/270
f 70/138/271 69/158/272 74/154/273 73/150/274 72/146/275 71/142/276
f 51/159/277 52/160/278 76/108/279 75/105/280
f 52/160/281 53/161/282 77/110/283 76/108/284
f 53/161/285 54/162/286 78/112/287 77/110/288
f 54/162/289 55/163/290 79/114/291 78/112/292
f 55/163/293 50/164/294 80/104/295 79/114/296
f 50/164/297 51/159/298 75/105/299 80/104/300
f 82/165/301 81/166/302 61/122/303 60/121/304
f 83/167/305 82/165/306 60/121/307 59/120/308
f 84/168/309 83/167/310 59/120/311 58/119/312
f 85/169/313 84/168/314 58/119/315 57/117/316
f 86/170/317 85/169/318 57/117/319 56/116/320
f 81/166/321 86/170/322 56/116/323 61/122/324
