# This file uses centimeters as units for non-parametric coordinates.

v -0.393353 0.406194 0.264557
v -0.085468 0.460392 0.262432
v 0.187263 0.462128 0.198540
v 0.260384 0.462128 0.264658
v 0.504311 0.418547 0.260777
v 0.113583 0.217723 0.264721
v 0.347610 0.273758 0.265444
v 0.475861 0.228431 0.227869
v -0.504692 0.144418 0.263411
v 0.504326 0.000000 0.262268
v -0.504692 0.000096 0.260952
v 0.113506 0.000547 0.263054
v -0.086334 0.000669 0.262199
v 0.504696 0.461656 0.230931
v 0.006214 0.398182 0.193992
v 0.504658 0.199343 0.174190
v -0.256420 0.462128 0.264715
v 0.499012 0.459999 0.051257
v -0.484394 0.447741 0.153405
v 0.021076 0.062050 0.195275
v -0.504692 0.028880 0.100576
v 0.051090 0.393983 0.036062
v -0.034649 0.000812 -0.033691
v -0.504372 0.457010 0.082377
v 0.142139 0.409135 0.041994
v -0.464405 0.002612 0.082754
v -0.504684 0.461544 -0.057910
v 0.466850 0.409586 -0.059826
v 0.504288 0.000096 -0.118788
v -0.459488 0.017992 -0.024343
v 0.189419 0.461443 -0.066347
v 0.504696 0.363569 -0.098878
v 0.209827 0.000000 -0.265297
v -0.338051 0.461236 -0.265335
v -0.504684 0.354071 -0.224364
v -0.504578 0.000000 -0.099071
v 0.377853 0.462128 -0.074379
v -0.096878 0.462128 -0.149878
v -0.171490 0.000000 -0.265286
v 0.503052 0.461284 -0.265445
v 0.504448 0.113095 -0.224020
v -0.002792 0.461475 -0.265340
v 0.209499 0.461125 -0.265445
v 0.103664 0.396388 -0.190744
v 0.104641 0.064604 -0.191422
v 0.504696 0.187765 -0.257599
v -0.504494 0.000000 -0.265205
v -0.432945 0.428873 -0.264356
v -0.059669 0.025987 -0.252386
v 0.005859 0.247081 -0.264112
v 0.025169 0.084581 -0.241618
v 0.449352 0.079867 -0.259282
vt 0.199346 0.301049
vt 0.199346 0.301049
vt 0.199346 0.280899
vt 0.199346 0.280899
vt 0.199346 0.280899
vt 0.199346 0.280899
vt 0.199346 0.280899
vt 0.199346 0.280899
vt 0.199346 0.301049
vt 0.199346 0.280899
vt 0.199346 0.301049
vt 0.199346 0.301049
vt 0.199346 0.280899
vt 0.199346 0.280899
vt 0.199346 0.301049
vt 0.199346 0.301049
vt 0.199346 0.301049
vt 0.199346 0.301049
vt 0.199346 0.301049
vt 0.199346 0.280899
vt 0.199346 0.301049
vt 0.199346 0.280899
vt 0.199346 0.301049
vt 0.199346 0.280899
vt 0.199346 0.301049
vt 0.199346 0.301049
vt 0.199346 0.280899
vt 0.199346 0.301049
vt 0.199346 0.280899
vt 0.199346 0.280899
vt 0.199346 0.280899
vt 0.199346 0.280899
vt 0.199346 0.301049
vt 0.199346 0.280899
vt 0.199346 0.301049
vt 0.199346 0.280899
vt 0.199346 0.280899
vt 0.199346 0.301049
vt 0.199346 0.301049
vt 0.199346 0.301049
vt 0.199346 0.280899
vt 0.199346 0.280899
vt 0.199346 0.301049
vt 0.199346 0.301049
vt 0.199346 0.280899
vt 0.199346 0.301049
vt 0.199346 0.280899
vt 0.199346 0.280899
vt 0.199346 0.280899
vt 0.199346 0.301049
vt 0.199346 0.280899
vt 0.199346 0.301049
vt 0.199346 0.301049
vt 0.199346 0.280899
vt 0.199346 0.301049
vt 0.199346 0.301049
vt 0.199346 0.301049
vt 0.199346 0.301049
vt 0.199346 0.301049
vt 0.199346 0.301049
vt 0.199346 0.301049
vt 0.199346 0.301049
vt 0.199346 0.301049
vt 0.199346 0.301049
vt 0.199346 0.280899
vt 0.199346 0.280899
vt 0.199346 0.280899
vt 0.199346 0.301049
vt 0.199346 0.301049
vt 0.199346 0.301049
vt 0.199346 0.301049
vt 0.199346 0.301049
vt 0.199346 0.301049
vt 0.199346 0.301049
vt 0.199346 0.301049
vt 0.199346 0.301049
vt 0.199346 0.280899
vt 0.199346 0.280899
vt 0.199346 0.280899
vt 0.199346 0.280899
vt 0.199346 0.280899
vt 0.199346 0.280899
vt 0.199346 0.301049
vt 0.199346 0.280899
vt 0.199346 0.301049
vt 0.199346 0.301049
vt 0.199346 0.301049
vt 0.199346 0.301049
vt 0.199346 0.301049
vt 0.199346 0.280899
vt 0.199346 0.280899
vt 0.199346 0.301049
vt 0.199346 0.301049
vt 0.199346 0.301049
vt 0.199346 0.280899
vt 0.199346 0.280899
vt 0.199346 0.301049
vt 0.199346 0.280899
vt 0.199346 0.280899
vt 0.199346 0.280899
vt 0.199346 0.280899
vt 0.199346 0.280899
vt 0.199346 0.280899
vt 0.199346 0.301049
vt 0.199346 0.301049
vt 0.199346 0.301049
vt 0.199346 0.280899
vt 0.199346 0.280899
vt 0.199346 0.301049
vt 0.199346 0.280899
vt 0.199346 0.280899
vt 0.199346 0.280899
vt 0.199346 0.280899
vt 0.199346 0.301049
vt 0.199346 0.301049
vt 0.199346 0.280899
vt 0.199346 0.280899
vt 0.199346 0.280899
vt 0.199346 0.280899
vt 0.199346 0.280899
vt 0.199346 0.280899
vt 0.199346 0.280899
vt 0.199346 0.280899
vt 0.199346 0.280899
vt 0.199346 0.280899
vt 0.199346 0.280899
vt 0.199346 0.301049
vt 0.199346 0.301049
vt 0.199346 0.280899
vt 0.199346 0.280899
vt 0.199346 0.280899
vt 0.199346 0.301049
vt 0.199346 0.280899
vt 0.199346 0.301049
vt 0.199346 0.301049
vt 0.199346 0.301049
vt 0.199346 0.301049
vt 0.199346 0.301049
vt 0.199346 0.280899
vt 0.199346 0.280899
vt 0.199346 0.301049
vt 0.199346 0.280899
vt 0.199346 0.280899
vt 0.199346 0.301049
vt 0.199346 0.301049
vt 0.199346 0.301049
vt 0.199346 0.301049
vt 0.199346 0.280899
vt 0.199346 0.280899
vt 0.199346 0.301049
vt 0.199346 0.301049
vt 0.199346 0.301049
vt 0.199346 0.301049
vt 0.199346 0.280899
vt 0.199346 0.280899
vt 0.199346 0.280899
vt 0.199346 0.280899
vt 0.199346 0.301049
vt 0.199346 0.301049
vt 0.199346 0.301049
vt 0.199346 0.301049
vt 0.199346 0.301049
vt 0.199346 0.301049
vt 0.199346 0.280899
vt 0.199346 0.280899
vt 0.199346 0.280899
vt 0.199346 0.301049
vt 0.199346 0.301049
vt 0.199346 0.301049
vt 0.199346 0.280899
vt 0.199346 0.280899
vt 0.199346 0.280899
vt 0.199346 0.301049
vt 0.199346 0.301049
vt 0.199346 0.280899
vt 0.199346 0.301049
vt 0.199346 0.301049
vt 0.199346 0.301049
vt 0.199346 0.301049
vt 0.199346 0.280899
vt 0.199346 0.280899
vt 0.199346 0.280899
vt 0.199346 0.280899
vt 0.199346 0.280899
vt 0.199346 0.280899
vt 0.199346 0.280899
vt 0.199346 0.280899
vt 0.199346 0.280899
vt 0.199346 0.301049
vt 0.199346 0.301049
vt 0.199346 0.280899
vt 0.199346 0.280899
vt 0.199346 0.301049
vt 0.199346 0.301049
vt 0.199346 0.301049
vt 0.199346 0.280899
vt 0.199346 0.280899
vt 0.199346 0.280899
vt 0.199346 0.301049
vt 0.199346 0.301049
vt 0.199346 0.280899
vt 0.199346 0.301049
vt 0.199346 0.301049
vt 0.199346 0.280899
vt 0.199346 0.301049
vt 0.199346 0.280899
vt 0.199346 0.301049
vt 0.199346 0.280899
vt 0.199346 0.280899
vt 0.199346 0.301049
vt 0.199346 0.301049
vt 0.199346 0.280899
vt 0.199346 0.280899
vt 0.199346 0.301049
vt 0.199346 0.301049
vt 0.199346 0.301049
vt 0.199346 0.280899
vt 0.199346 0.280899
vt 0.199346 0.301049
vt 0.199346 0.301049
vt 0.199346 0.301049
vt 0.199346 0.301049
vt 0.199346 0.280899
vt 0.199346 0.280899
vt 0.199346 0.280899
vt 0.199346 0.280899
vt 0.199346 0.301049
vt 0.199346 0.301049
vt 0.199346 0.280899
vt 0.199346 0.280899
vt 0.199346 0.301049
vt 0.199346 0.301049
vt 0.199346 0.301049
vt 0.199346 0.280899
vt 0.199346 0.301049
vt 0.199346 0.301049
vt 0.199346 0.301049
vt 0.199346 0.280899
vt 0.199346 0.301049
vt 0.199346 0.301049
vt 0.199346 0.280899
vt 0.199346 0.280899
vt 0.199346 0.301049
vt 0.199346 0.301049
vt 0.199346 0.280899
vt 0.199346 0.280899
vt 0.199346 0.280899
vt 0.199346 0.301049
vt 0.199346 0.301049
vt 0.199346 0.301049
vt 0.199346 0.301049
vt 0.199346 0.280899
vt 0.199346 0.280899
vt 0.199346 0.280899
vt 0.199346 0.280899
vt 0.199346 0.280899
vt 0.199346 0.280899
vt 0.199346 0.280899
vt 0.199346 0.280899
vt 0.199346 0.280899
vt 0.199346 0.280899
vt 0.199346 0.301049
vt 0.199346 0.280899
vt 0.199346 0.301049
vt 0.199346 0.301049
vt 0.199346 0.280899
vt 0.199346 0.280899
vt 0.199346 0.280899
vt 0.199346 0.301049
vt 0.199346 0.280899
vt 0.199346 0.280899
vt 0.199346 0.301049
vt 0.199346 0.280899
vt 0.199346 0.280899
vt 0.199346 0.301049
vt 0.199346 0.301049
vt 0.199346 0.301049
vt 0.199346 0.301049
vt 0.199346 0.280899
vt 0.199346 0.280899
vt 0.199346 0.280899
vt 0.199346 0.280899
vt 0.199346 0.301049
vt 0.199346 0.301049
vt 0.199346 0.301049
vt 0.199346 0.280899
vt 0.199346 0.280899
vt 0.199346 0.301049
vt 0.199346 0.301049
vt 0.199346 0.301049
vt 0.199346 0.280899
vt 0.199346 0.280899
vt 0.199346 0.301049
vt 0.199346 0.301049
vt 0.199346 0.280899
vt 0.199346 0.280899
vt 0.199346 0.301049
vt 0.199346 0.301049
vt 0.199346 0.301049
vt 0.199346 0.301049
vn 0.018151 0.012576 0.999756
vn 0.018151 0.012576 0.999756
vn 0.018151 0.012576 0.999756
vn -0.319437 0.879298 0.353264
vn -0.319437 0.879298 0.353264
vn -0.319437 0.879298 0.353264
vn -0.003680 0.002468 0.999990
vn -0.003680 0.002468 0.999990
vn -0.003680 0.002468 0.999990
vn 0.012994 -0.034640 0.999315
vn 0.012994 -0.034640 0.999315
vn 0.012994 -0.034640 0.999315
vn -0.306001 0.184038 0.934074
vn -0.306001 0.184039 0.934074
vn -0.306001 0.184038 0.934074
vn 0.210785 -0.197269 0.957421
vn 0.210785 -0.197269 0.957421
vn 0.210785 -0.197269 0.957421
vn 0.008293 -0.007906 0.999934
vn 0.008293 -0.007906 0.999934
vn 0.008293 -0.007906 0.999934
vn 0.334887 0.180982 0.924714
vn 0.334887 0.180982 0.924714
vn 0.334887 0.180982 0.924714
vn -0.000274 -0.011756 0.999931
vn -0.000274 -0.011756 0.999931
vn -0.000274 -0.011756 0.999931
vn -0.593912 -0.005967 0.804508
vn -0.593912 -0.005967 0.804508
vn -0.593912 -0.005967 0.804508
vn 0.002000 -0.007676 0.999969
vn 0.002000 -0.007676 0.999969
vn 0.002000 -0.007676 0.999969
vn -0.002958 -0.017033 0.999851
vn -0.002958 -0.017033 0.999851
vn -0.002958 -0.017033 0.999851
vn 0.002719 -0.000511 0.999996
vn 0.002719 -0.000511 0.999996
vn 0.002719 -0.000511 0.999996
vn 0.010207 0.999940 0.003928
vn 0.010207 0.999940 0.003928
vn 0.010207 0.999940 0.003928
vn 0.113918 0.564842 0.817298
vn 0.113918 0.564842 0.817298
vn 0.113918 0.564842 0.817298
vn 0.597533 -0.001531 0.801843
vn 0.597533 -0.001531 0.801843
vn 0.597533 -0.001531 0.801843
vn 0.806867 -0.215922 0.549858
vn 0.806867 -0.215922 0.549858
vn 0.806867 -0.215922 0.549858
vn 0.903863 0.171645 0.391881
vn 0.903863 0.171645 0.391881
vn 0.903862 0.171645 0.391881
vn 0.001411 -0.999904 -0.013801
vn 0.001411 -0.999904 -0.013801
vn 0.001411 -0.999904 -0.013801
vn -0.001400 -0.999999 -0.000251
vn -0.001400 -0.999999 -0.000251
vn -0.001400 -0.999999 -0.000251
vn -0.685068 0.288447 0.668940
vn -0.685068 0.288447 0.668940
vn -0.685068 0.288447 0.668940
vn -0.316702 0.773762 0.548627
vn -0.316702 0.773762 0.548627
vn -0.316702 0.773762 0.548627
vn 0.999040 -0.030616 -0.031322
vn 0.999040 -0.030617 -0.031322
vn 0.999040 -0.030616 -0.031322
vn 0.999674 0.010731 -0.023158
vn 0.999674 0.010731 -0.023158
vn 0.999674 0.010731 -0.023158
vn 0.517827 0.026161 0.855085
vn 0.517827 0.026161 0.855085
vn 0.517827 0.026161 0.855085
vn -0.575896 -0.022342 0.817218
vn -0.575896 -0.022342 0.817218
vn -0.575896 -0.022342 0.817217
vn 0.002031 0.999998 0.000704
vn 0.002031 0.999998 0.000704
vn 0.002031 0.999998 0.000704
vn 0.537242 -0.838237 0.093438
vn 0.537242 -0.838237 0.093438
vn 0.537242 -0.838237 0.093438
vn -0.143396 0.975367 0.167619
vn -0.143396 0.975367 0.167619
vn -0.143395 0.975367 0.167619
vn -0.016085 0.999852 -0.006190
vn -0.016085 0.999851 -0.006190
vn -0.016085 0.999852 -0.006190
vn 0.633159 0.757351 0.159775
vn 0.633159 0.757351 0.159775
vn 0.633159 0.757351 0.159775
vn -1.000000 0.000000 0.000000
vn -1.000000 0.000000 0.000000
vn -1.000000 0.000000 0.000000
vn -0.943185 0.167241 0.287110
vn -0.943185 0.167241 0.287110
vn -0.943185 0.167241 0.287110
vn 0.028038 0.999556 -0.010102
vn 0.028038 0.999556 -0.010102
vn 0.028038 0.999556 -0.010102
vn 0.999999 -0.001709 -0.000101
vn 0.999999 -0.001709 -0.000101
vn 0.999999 -0.001709 -0.000101
vn -0.319980 0.921590 -0.219739
vn -0.319980 0.921590 -0.219739
vn -0.319980 0.921590 -0.219739
vn -0.584265 -0.798799 -0.143371
vn -0.584265 -0.798799 -0.143371
vn -0.584265 -0.798799 -0.143371
vn 0.426567 0.904420 -0.007996
vn 0.426567 0.904420 -0.007996
vn 0.426567 0.904420 -0.007996
vn -0.000174 -0.999999 0.001003
vn -0.000174 -1.000000 0.001003
vn -0.000174 -1.000000 0.001003
vn -0.749842 0.661571 -0.007812
vn -0.749842 0.661571 -0.007812
vn -0.749842 0.661571 -0.007812
vn -0.159205 0.984659 -0.071420
vn -0.159205 0.984659 -0.071420
vn -0.159205 0.984659 -0.071420
vn 0.000000 1.000000 0.000000
vn 0.000000 1.000000 0.000000
vn 0.000000 1.000000 0.000000
vn 0.503889 0.722296 -0.473692
vn 0.503889 0.722296 -0.473692
vn 0.503889 0.722296 -0.473692
vn -0.003746 0.999990 -0.002616
vn -0.003746 0.999990 -0.002616
vn -0.003746 0.999990 -0.002616
vn 0.005850 0.999462 0.032288
vn 0.005850 0.999462 0.032288
vn 0.005850 0.999462 0.032288
vn -1.000000 0.000727 -0.000516
vn -1.000000 0.000727 -0.000516
vn -1.000000 0.000727 -0.000516
vn -0.175919 0.914358 0.364694
vn -0.175919 0.914358 0.364694
vn -0.175919 0.914358 0.364694
vn -0.583876 -0.799398 -0.141606
vn -0.583876 -0.799398 -0.141606
vn -0.583876 -0.799398 -0.141606
vn -0.006218 -0.999978 0.002272
vn -0.006218 -0.999978 0.002272
vn -0.006218 -0.999978 0.002272
vn -0.999992 -0.003290 0.002123
vn -0.999992 -0.003290 0.002123
vn -0.999992 -0.003290 0.002123
vn -0.999999 0.000781 0.000758
vn -0.999999 0.000781 0.000758
vn -0.999999 0.000781 0.000758
vn -0.504514 -0.858586 -0.091087
vn -0.504514 -0.858586 -0.091087
vn -0.504514 -0.858586 -0.091087
vn 0.509455 -0.854134 0.104452
vn 0.509455 -0.854134 0.104452
vn 0.509455 -0.854134 0.104452
vn -0.184520 -0.971621 -0.148002
vn -0.184520 -0.971621 -0.148002
vn -0.184520 -0.971621 -0.148002
vn 0.155574 -0.977636 0.141511
vn 0.155574 -0.977636 0.141511
vn 0.155574 -0.977636 0.141511
vn 0.439388 0.763295 -0.473624
vn 0.439388 0.763295 -0.473624
vn 0.439388 0.763295 -0.473624
vn -0.002158 0.999992 -0.003218
vn -0.002158 0.999992 -0.003218
vn -0.002158 0.999992 -0.003218
vn -1.000000 -0.000480 -0.000504
vn -1.000000 -0.000480 -0.000504
vn -1.000000 -0.000480 -0.000504
vn 0.999372 0.030309 0.018368
vn 0.999372 0.030309 0.018368
vn 0.999372 0.030309 0.018368
vn 0.457967 0.881433 0.115504
vn 0.457967 0.881433 0.115504
vn 0.457967 0.881433 0.115504
vn -0.498376 0.860407 -0.106401
vn -0.498375 0.860407 -0.106401
vn -0.498375 0.860407 -0.106401
vn 0.221641 0.959264 0.175181
vn 0.221641 0.959264 0.175181
vn 0.221641 0.959264 0.175181
vn 0.999999 -0.001588 -0.000183
vn 0.999999 -0.001588 -0.000183
vn 0.999999 -0.001588 -0.000183
vn -0.549820 0.833350 -0.056787
vn -0.549820 0.833350 -0.056787
vn -0.549821 0.833350 -0.056787
vn 1.000000 -0.000082 0.000091
vn 1.000000 -0.000082 0.000091
vn 1.000000 -0.000082 0.000091
vn -1.000000 -0.000481 -0.000505
vn -1.000000 -0.000481 -0.000505
vn -1.000000 -0.000481 -0.000505
vn 0.005214 -0.999986 0.000426
vn 0.005214 -0.999986 0.000426
vn 0.005214 -0.999986 0.000426
vn 0.450523 0.843841 0.291483
vn 0.450523 0.843841 0.291483
vn 0.450523 0.843841 0.291483
vn 0.842990 0.467573 0.265978
vn 0.842990 0.467573 0.265978
vn 0.842990 0.467573 0.265978
vn -0.003719 0.999991 -0.001975
vn -0.003719 0.999991 -0.001975
vn -0.003719 0.999991 -0.001975
vn -0.000543 0.999988 -0.004774
vn -0.000543 0.999989 -0.004774
vn -0.000543 0.999988 -0.004774
vn 0.090429 -0.979277 0.181214
vn 0.090429 -0.979277 0.181214
vn 0.090429 -0.979277 0.181214
vn 0.999995 -0.003242 0.000175
vn 0.999995 -0.003242 0.000175
vn 0.999995 -0.003242 0.000175
vn -0.314545 0.914616 -0.254044
vn -0.314545 0.914616 -0.254044
vn -0.314544 0.914616 -0.254044
vn 0.002424 -0.927792 -0.373089
vn 0.002424 -0.927792 -0.373089
vn 0.002424 -0.927792 -0.373089
vn -0.762450 0.543588 -0.350974
vn -0.762450 0.543588 -0.350974
vn -0.762450 0.543588 -0.350974
vn 0.999962 0.005826 -0.006453
vn 0.999962 0.005826 -0.006453
vn 0.999962 0.005826 -0.006453
vn -0.574743 -0.000019 -0.818334
vn -0.574743 -0.000019 -0.818334
vn -0.574743 -0.000019 -0.818334
vn -0.584250 -0.800842 -0.131544
vn -0.584250 -0.800842 -0.131544
vn -0.584250 -0.800842 -0.131544
vn 0.596749 0.003396 -0.802421
vn 0.596749 0.003396 -0.802421
vn 0.596749 0.003396 -0.802421
vn 0.523173 -0.055551 -0.850414
vn 0.523173 -0.055551 -0.850414
vn 0.523173 -0.055551 -0.850414
vn 0.574649 -0.802969 -0.158178
vn 0.574649 -0.802969 -0.158177
vn 0.574649 -0.802969 -0.158178
vn 0.239280 -0.961092 -0.138011
vn 0.239280 -0.961092 -0.138011
vn 0.239280 -0.961092 -0.138011
vn -0.000713 0.999980 -0.006236
vn -0.000713 0.999980 -0.006236
vn -0.000713 0.999980 -0.006236
vn -0.576374 -0.000672 -0.817185
vn -0.576374 -0.000672 -0.817185
vn -0.576375 -0.000672 -0.817186
vn 0.275847 -0.785563 -0.553895
vn 0.275846 -0.785563 -0.553895
vn 0.275846 -0.785563 -0.553895
vn 0.581438 0.018807 -0.813373
vn 0.581438 0.018807 -0.813373
vn 0.581438 0.018807 -0.813373
vn 0.000000 -1.000000 0.000000
vn 0.000000 -1.000000 0.000000
vn 0.000000 -1.000000 0.000000
vn -0.000010 -0.005725 -0.999984
vn -0.000010 -0.005725 -0.999984
vn -0.000010 -0.005725 -0.999984
vn 0.000015 -0.028673 -0.999589
vn 0.000015 -0.028673 -0.999589
vn 0.000015 -0.028673 -0.999589
vn 0.197600 -0.602797 -0.773039
vn 0.197600 -0.602797 -0.773039
vn 0.197600 -0.602797 -0.773040
vn 0.026290 -0.000302 -0.999654
vn 0.026290 -0.000302 -0.999654
vn 0.026290 -0.000302 -0.999654
vn -0.302911 0.109043 -0.946760
vn -0.302911 0.109043 -0.946760
vn -0.302911 0.109043 -0.946760
vn 0.002760 -0.001277 -0.999995
vn 0.002760 -0.001277 -0.999995
vn 0.002760 -0.001277 -0.999995
vn 0.639482 -0.317081 -0.700373
vn 0.639482 -0.317081 -0.700373
vn 0.639482 -0.317081 -0.700373
vn 0.024011 0.003280 -0.999706
vn 0.024011 0.003280 -0.999706
vn 0.024011 0.003280 -0.999706
vn 0.167558 -0.115617 -0.979059
vn 0.167558 -0.115617 -0.979059
vn 0.167557 -0.115617 -0.979059
vn 0.108822 0.025058 -0.993746
vn 0.108822 0.025058 -0.993745
vn 0.108822 0.025058 -0.993745
vn 0.660371 -0.512272 -0.549078
vn 0.660371 -0.512272 -0.549078
vn 0.660371 -0.512272 -0.549078
vn -0.000243 0.004926 -0.999988
vn -0.000243 0.004926 -0.999988
vn -0.000243 0.004926 -0.999988
s off
f 5/269/1 4/227/2 7/290/3
f 3/266/4 15/257/5 4/230/6
f 4/228/7 6/283/8 7/289/9
f 2/250/10 17/278/11 1/9/12
f 4/229/13 15/258/14 6/282/15
f 5/268/16 7/3/17 8/280/18
f 1/272/19 9/219/20 2/249/21
f 8/279/22 7/287/23 10/241/24
f 7/288/25 6/284/26 10/240/27
f 12/13/28 6/286/29 20/124/30
f 10/239/31 6/285/32 12/235/33
f 9/221/34 11/232/35 13/168/36
f 2/248/37 9/220/38 13/169/39
f 38/297/40 17/277/41 2/251/42
f 14/261/43 4/226/44 5/270/45
f 2/247/46 13/170/47 15/253/48
f 5/267/49 8/281/50 16/143/51
f 16/142/52 8/10/53 10/242/54
f 11/233/55 26/214/56 13/167/57
f 29/104/58 10/12/59 12/236/60
f 19/246/61 9/218/62 1/273/63
f 17/8/64 19/245/65 1/274/66
f 14/260/67 5/271/68 18/206/69
f 18/205/70 5/1/71 16/144/72
f 13/171/73 20/122/74 15/5/75
f 6/6/76 15/259/77 20/123/78
f 37/159/79 4/2/80 14/262/81
f 13/172/82 23/110/83 20/121/84
f 24/200/85 19/244/86 17/275/87
f 38/298/88 24/199/89 17/276/90
f 15/254/91 22/185/92 2/7/93
f 9/222/94 21/195/95 11/15/96
f 19/22/97 24/201/98 9/217/99
f 14/18/100 18/207/101 37/158/102
f 16/141/103 10/243/104 29/105/105
f 15/256/106 3/4/107 25/224/108
f 11/234/109 21/196/110 26/213/111
f 22/186/112 38/296/113 2/252/114
f 33/83/115 29/21/116 12/237/117
f 31/180/118 25/223/119 3/263/120
f 22/184/121 15/255/122 25/225/123
f 37/160/124 3/265/125 4/231/126
f 28/165/127 37/157/128 18/208/129
f 37/161/130 31/179/131 3/264/132
f 38/299/133 27/128/134 24/26/135
f 9/11/136 24/202/137 21/194/138
f 31/181/139 22/183/140 25/29/141
f 26/20/142 21/197/143 30/34/144
f 26/215/145 39/59/146 13/16/147
f 24/204/148 27/129/149 35/36/150
f 21/193/151 24/203/152 35/151/153
f 20/125/154 33/82/155 12/238/156
f 23/111/157 45/117/158 20/14/159
f 30/210/160 39/58/161 26/216/162
f 21/198/163 36/175/164 30/212/165
f 32/139/166 28/164/167 18/209/168
f 38/300/169 34/93/170 27/127/171
f 35/152/172 36/174/173 21/28/174
f 32/138/175 18/23/176 16/145/177
f 22/188/178 44/102/179 42/192/180
f 44/101/181 22/27/182 31/182/183
f 22/187/184 42/42/185 38/295/186
f 41/150/187 16/19/188 29/106/189
f 43/90/190 44/100/191 31/31/192
f 46/72/193 32/137/194 16/146/195
f 35/153/196 47/55/197 36/38/198
f 39/60/199 23/109/200 13/173/201
f 40/133/202 37/24/203 28/166/204
f 40/47/205 28/32/206 32/140/207
f 43/89/208 31/178/209 37/162/210
f 40/134/211 43/88/212 37/163/213
f 39/57/214 30/211/215 36/176/216
f 46/71/217 16/147/218 41/43/219
f 34/94/220 48/132/221 27/33/222
f 23/112/223 51/291/224 45/116/225
f 27/130/226 48/48/227 35/156/228
f 40/136/229 32/39/230 46/73/231
f 45/119/232 44/98/233 33/80/234
f 20/126/235 45/118/236 33/81/237
f 44/41/238 45/120/239 50/66/240
f 50/65/241 45/37/242 51/292/243
f 49/51/244 51/49/245 23/113/246
f 39/61/247 49/115/248 23/25/249
f 42/189/250 34/92/251 38/17/252
f 33/30/253 44/99/254 43/91/255
f 33/84/256 52/77/257 29/108/258
f 50/67/259 42/191/260 44/103/261
f 47/56/262 39/35/263 36/177/264
f 34/40/265 42/190/266 50/68/267
f 46/74/268 43/87/269 40/135/270
f 48/131/271 34/95/272 35/155/273
f 43/44/274 46/75/275 33/86/276
f 35/154/277 34/96/278 47/54/279
f 34/97/280 50/69/281 47/53/282
f 46/45/283 41/148/284 52/79/285
f 52/52/286 33/85/287 46/76/288
f 50/50/289 51/293/290 39/63/291
f 51/294/292 49/114/293 39/62/294
f 52/78/295 41/149/296 29/107/297
f 47/46/298 50/70/299 39/64/300
