# This file uses centimeters as units for non-parametric coordinates.

v 1.478348 1.352019 0.167263
v 1.540802 1.353214 0.104683
v 1.449371 2.831846 0.167263
v 1.511841 2.833040 0.104683
v 1.386917 2.830652 0.104683
v 1.449371 2.831846 0.042118
v 1.415894 1.350825 0.104683
v 1.478348 1.352019 0.042118
v 1.437805 2.036862 0.058712
v 1.375366 2.035668 -0.003841
v 1.437836 2.036862 -0.066406
v 1.500290 2.038056 -0.003841
v 0.901550 1.361892 0.100887
v 0.962738 1.366261 0.038319
v 0.925644 2.813478 0.164616
v 0.984200 2.800023 0.102039
v 0.867119 2.826927 0.102039
v 0.925644 2.813478 0.039471
v 0.840401 1.357524 0.038319
v 0.901550 1.361892 -0.024242
v 0.870605 1.982082 0.065830
v 0.809433 1.977713 0.003284
v 0.870605 1.982082 -0.059284
v 0.931770 1.986450 0.003284
v 1.202415 1.338431 0.177883
v 1.264946 1.339092 0.115314
v 1.173935 2.819861 0.177883
v 1.236473 2.820523 0.115314
v 1.111382 2.819200 0.115314
v 1.173935 2.819861 0.052746
v 1.139870 1.337769 0.115314
v 1.202415 1.338431 0.052746
v 1.169807 2.244515 0.101925
v 1.107254 2.243853 0.039356
v 1.169807 2.244515 -0.023220
v 1.232330 2.245177 0.039356
v 1.198822 1.931629 -0.082859
v 1.124077 1.930751 -0.008083
v 1.198822 1.931629 0.066708
v 1.273529 1.932508 -0.008083
v 3.324371 1.352019 -0.001820
v 3.261917 1.353214 0.060760
v 3.353348 2.831846 -0.001820
v 3.290878 2.833040 0.060760
v 3.415802 2.830652 0.060760
v 3.353348 2.831846 0.123325
v 3.386826 1.350825 0.060760
v 3.324371 1.352019 0.123325
v 3.364914 2.224041 0.013420
v 3.427353 2.222847 0.075974
v 3.364883 2.224042 0.138538
v 3.302429 2.225236 0.075974
v 3.901169 1.361892 0.064556
v 3.839981 1.366261 0.127125
v 3.877075 2.813478 0.000828
v 3.818520 2.800023 0.063404
v 3.935600 2.826927 0.063404
v 3.877075 2.813478 0.125973
v 3.962318 1.357524 0.127125
v 3.901169 1.361892 0.189686
v 3.932114 1.818498 0.006302
v 3.993286 1.814129 0.068848
v 3.932114 1.818498 0.131416
v 3.870949 1.822866 0.068848
v 3.600304 1.338431 -0.012440
v 3.537773 1.339092 0.050129
v 3.628784 2.819861 -0.012440
v 3.566246 2.820523 0.050129
v 3.691338 2.819200 0.050129
v 3.628784 2.819861 0.112698
v 3.662849 1.337769 0.050129
v 3.600304 1.338431 0.112698
v 3.632912 2.436890 -0.029793
v 3.695465 2.436228 0.032776
v 3.632912 2.436890 0.095352
v 3.570389 2.437552 0.032776
v 3.596077 1.628681 0.032658
v 3.670822 1.627802 -0.042118
v 3.596077 1.628681 -0.116909
v 3.521370 1.629559 -0.042118
vt 0.090009 0.254155
vt 0.090009 0.254155
vt 0.090009 0.254155
vt 0.090009 0.254155
vt 0.090009 0.254155
vt 0.090009 0.254155
vt 0.090009 0.254155
vt 0.090009 0.254155
vt 0.090009 0.254155
vt 0.090009 0.254155
vt 0.090009 0.254155
vt 0.090009 0.254155
vt 0.090009 0.254155
vt 0.090009 0.254155
vt 0.090009 0.254155
vt 0.090009 0.254155
vt 0.090009 0.254155
vt 0.090009 0.254155
vt 0.090009 0.254155
vt 0.090009 0.254155
vt 0.090009 0.254155
vt 0.090009 0.254155
vt 0.090009 0.254155
vt 0.090009 0.254155
vt 0.090009 0.254155
vt 0.090009 0.254155
vt 0.090009 0.254155
vt 0.090009 0.254155
vt 0.090009 0.254155
vt 0.090009 0.254155
vt 0.090009 0.254155
vt 0.090009 0.254155
vt 0.090009 0.254155
vt 0.090009 0.254155
vt 0.090009 0.254155
vt 0.090009 0.254155
vt 0.090009 0.254155
vt 0.090009 0.254155
vt 0.090009 0.254155
vt 0.090009 0.254155
vt 0.090009 0.254155
vt 0.090009 0.254155
vt 0.090009 0.254155
vt 0.090009 0.254155
vt 0.090009 0.254155
vt 0.090009 0.254155
vt 0.090009 0.254155
vt 0.090009 0.254155
vt 0.090009 0.254155
vt 0.090009 0.254155
vt 0.090009 0.254155
vt 0.090009 0.254155
vt 0.090009 0.254155
vt 0.090009 0.254155
vt 0.090009 0.254155
vt 0.090009 0.254155
vt 0.090009 0.254155
vt 0.090009 0.254155
vt 0.090009 0.254155
vt 0.090009 0.254155
vt 0.090009 0.254155
vt 0.090009 0.254155
vt 0.090009 0.254155
vt 0.090009 0.254155
vt 0.090009 0.254155
vt 0.090009 0.254155
vt 0.090009 0.254155
vt 0.090009 0.254155
vt 0.090009 0.254155
vt 0.090009 0.254155
vt 0.090009 0.254155
vt 0.090009 0.254155
vt 0.090009 0.254155
vt 0.090009 0.254155
vt 0.090009 0.254155
vt 0.090009 0.254155
vt 0.090009 0.254155
vt 0.090009 0.254155
vt 0.090009 0.254155
vt 0.090009 0.254155
vt 0.090009 0.254155
vt 0.090009 0.254155
vt 0.090009 0.254155
vt 0.090009 0.254155
vt 0.090009 0.254155
vt 0.090009 0.254155
vt 0.090009 0.254155
vt 0.090009 0.254155
vt 0.090009 0.254155
vt 0.090009 0.254155
vt 0.090009 0.254155
vt 0.090009 0.254155
vt 0.090009 0.254155
vt 0.090009 0.254155
vt 0.090009 0.254155
vt 0.090009 0.254155
vt 0.090009 0.254155
vt 0.090009 0.254155
vt 0.090009 0.254155
vt 0.090009 0.254155
vt 0.090009 0.254155
vt 0.090009 0.254155
vt 0.090009 0.254155
vt 0.090009 0.254155
vt 0.090009 0.254155
vt 0.090009 0.254155
vt 0.090009 0.254155
vt 0.090009 0.254155
vt 0.090009 0.254155
vt 0.090009 0.254155
vt 0.090009 0.254155
vt 0.090009 0.254155
vt 0.090009 0.254155
vt 0.090009 0.254155
vt 0.090009 0.254155
vt 0.090009 0.254155
vt 0.090009 0.254155
vt 0.090009 0.254155
vt 0.090009 0.254155
vt 0.090009 0.254155
vt 0.090009 0.254155
vt 0.090009 0.254155
vt 0.090009 0.254155
vt 0.090009 0.254155
vt 0.090009 0.254155
vt 0.090009 0.254155
vt 0.090009 0.254155
vt 0.090009 0.254155
vt 0.090009 0.254155
vt 0.090009 0.254155
vt 0.090009 0.254155
vt 0.090009 0.254155
vn 0.697957 0.152208 0.699778
vn 0.697957 0.152208 0.699778
vn 0.707442 0.013394 0.706644
vn 0.707426 0.014248 0.706644
vn -0.707481 -0.014259 -0.706589
vn -0.707498 -0.013405 -0.706589
vn -0.697992 -0.152184 -0.699748
vn -0.697992 -0.152184 -0.699748
vn 0.019121 -0.999817 -0.000001
vn 0.019121 -0.999817 -0.000001
vn 0.019121 -0.999817 -0.000001
vn 0.019121 -0.999817 -0.000001
vn 0.706673 -0.069771 -0.704092
vn 0.706673 -0.069771 -0.704092
vn 0.707498 0.014388 -0.706569
vn 0.707518 0.013406 -0.706569
vn -0.706728 0.069750 0.704039
vn -0.706728 0.069750 0.704039
vn -0.707595 -0.013404 0.706492
vn -0.707576 -0.014386 0.706491
vn -0.707576 -0.014386 0.706491
vn -0.707595 -0.013404 0.706492
vn -0.704345 -0.085962 0.704633
vn -0.704345 -0.085962 0.704633
vn -0.704713 0.105999 -0.701530
vn -0.704713 0.105999 -0.701530
vn -0.707498 -0.013405 -0.706589
vn -0.707481 -0.014259 -0.706589
vn 0.707518 0.013406 -0.706569
vn 0.707498 0.014388 -0.706569
vn 0.704247 0.085978 -0.704729
vn 0.704247 0.085978 -0.704729
vn 0.707426 0.014248 0.706644
vn 0.707442 0.013394 0.706644
vn 0.704636 -0.106033 0.701602
vn 0.704636 -0.106033 0.701602
vn 0.710317 0.075003 0.699875
vn 0.710317 0.075003 0.699875
vn 0.714802 -0.043444 0.697977
vn 0.714814 -0.039324 0.698208
vn -0.714952 0.040023 -0.698027
vn -0.714937 0.044311 -0.697784
vn -0.710448 -0.074994 -0.699743
vn -0.710448 -0.074994 -0.699743
vn 0.071233 -0.997460 -0.000001
vn 0.071233 -0.997460 -0.000001
vn 0.071233 -0.997460 -0.000001
vn 0.071233 -0.997460 -0.000001
vn 0.715124 -0.003795 -0.698988
vn 0.715124 -0.003795 -0.698988
vn 0.719767 0.017538 -0.693994
vn 0.720166 0.019452 -0.693529
vn -0.715169 0.003799 0.698942
vn -0.715169 0.003799 0.698942
vn -0.720199 -0.017870 0.693537
vn -0.719805 -0.016113 0.693989
vn -0.719805 -0.016113 0.693989
vn -0.720199 -0.017870 0.693537
vn -0.723393 -0.032544 0.689669
vn -0.723393 -0.032544 0.689669
vn -0.711924 0.128881 -0.690329
vn -0.711924 0.128881 -0.690329
vn -0.714937 0.044311 -0.697784
vn -0.714952 0.040023 -0.698027
vn 0.720166 0.019452 -0.693529
vn 0.719767 0.017538 -0.693994
vn 0.723404 0.035528 -0.689510
vn 0.723404 0.035528 -0.689510
vn 0.714814 -0.039324 0.698208
vn 0.714802 -0.043444 0.697977
vn 0.711744 -0.129409 0.690415
vn 0.711744 -0.129409 0.690415
vn 0.704430 0.084409 0.704737
vn 0.704385 0.085086 0.704700
vn 0.706289 -0.063296 0.705088
vn 0.706027 -0.069376 0.704779
vn -0.704954 0.088001 -0.703773
vn -0.705076 0.085904 -0.703910
vn -0.704177 -0.085460 -0.704862
vn -0.704248 -0.084394 -0.704920
vn 0.010579 -0.999944 -0.000002
vn 0.010579 -0.999944 -0.000002
vn 0.010579 -0.999944 -0.000002
vn 0.010579 -0.999944 -0.000002
vn 0.707079 -0.038840 -0.706067
vn 0.707256 -0.029347 -0.706348
vn 0.700446 0.132156 -0.701363
vn 0.700936 0.127138 -0.701801
vn -0.707120 0.030388 0.706440
vn -0.706986 0.037664 0.706224
vn -0.702500 -0.107921 0.703453
vn -0.702288 -0.110489 0.703266
vn -0.702288 -0.110489 0.703266
vn -0.702500 -0.107921 0.703453
vn -0.703984 -0.087991 0.704744
vn -0.703985 -0.087991 0.704743
vn -0.704336 0.097880 -0.703086
vn -0.704336 0.097880 -0.703086
vn -0.705076 0.085904 -0.703910
vn -0.704954 0.088001 -0.703773
vn 0.700936 0.127138 -0.701801
vn 0.700446 0.132156 -0.701363
vn 0.704137 0.087966 -0.704595
vn 0.704137 0.087966 -0.704594
vn 0.706027 -0.069376 0.704779
vn 0.706289 -0.063296 0.705088
vn 0.704444 -0.097872 0.702979
vn 0.704444 -0.097872 0.702979
vn -0.704248 -0.084394 -0.704920
vn -0.704177 -0.085460 -0.704862
vn -0.696764 -0.163868 -0.698331
vn -0.696764 -0.163868 -0.698331
vn -0.702264 0.127048 0.700489
vn -0.702264 0.127048 0.700489
vn -0.706986 0.037664 0.706224
vn -0.707120 0.030388 0.706440
vn 0.700123 0.135636 0.701021
vn 0.700123 0.135636 0.701021
vn 0.704385 0.085086 0.704700
vn 0.704430 0.084409 0.704737
vn 0.699684 -0.155164 -0.697400
vn 0.699684 -0.155164 -0.697400
vn 0.707256 -0.029347 -0.706348
vn 0.707079 -0.038840 -0.706067
vn -0.706503 0.045167 -0.706267
vn -0.706503 0.045167 -0.706267
vn -0.707439 0.013824 -0.706639
vn -0.707439 0.013871 -0.706639
vn 0.707488 -0.013877 0.706589
vn 0.707489 -0.013830 0.706589
vn 0.706536 -0.045151 0.706235
vn 0.706536 -0.045151 0.706235
vn -0.019121 -0.999817 0.000001
vn -0.019121 -0.999817 0.000001
vn -0.019121 -0.999817 0.000001
vn -0.019121 -0.999817 0.000001
vn -0.707387 0.020538 0.706528
vn -0.707387 0.020538 0.706528
vn -0.707514 0.013884 0.706563
vn -0.707515 0.013820 0.706563
vn 0.707441 -0.020549 -0.706474
vn 0.707441 -0.020549 -0.706474
vn 0.707587 -0.013824 -0.706491
vn 0.707585 -0.013888 -0.706491
vn 0.707585 -0.013888 -0.706491
vn 0.707587 -0.013824 -0.706491
vn 0.707739 -0.004239 -0.706461
vn 0.707739 -0.004239 -0.706461
vn 0.707643 0.031107 0.705885
vn 0.707643 0.031107 0.705885
vn 0.707489 -0.013830 0.706589
vn 0.707488 -0.013877 0.706589
vn -0.707515 0.013820 0.706563
vn -0.707514 0.013884 0.706563
vn -0.707642 0.004245 0.706558
vn -0.707642 0.004245 0.706558
vn -0.707439 0.013871 -0.706639
vn -0.707439 0.013824 -0.706639
vn -0.707568 -0.031141 -0.705959
vn -0.707568 -0.031141 -0.705959
vn -0.715779 -0.040434 -0.697155
vn -0.715779 -0.040434 -0.697155
vn -0.718852 -0.042234 -0.693880
vn -0.718858 -0.042238 -0.693873
vn 0.718939 0.043005 0.693742
vn 0.718934 0.043001 0.693747
vn 0.715909 0.040420 0.697023
vn 0.715909 0.040420 0.697023
vn -0.071233 -0.997460 0.000001
vn -0.071233 -0.997460 0.000001
vn -0.071233 -0.997460 0.000001
vn -0.071233 -0.997460 0.000001
vn -0.703496 0.136702 0.697428
vn -0.703496 0.136702 0.697428
vn -0.717270 0.024179 0.696375
vn -0.717961 0.015336 0.695914
vn 0.703542 -0.136689 -0.697385
vn 0.703542 -0.136689 -0.697385
vn 0.718018 -0.013779 -0.695888
vn 0.717340 -0.022678 -0.696354
vn 0.717340 -0.022678 -0.696354
vn 0.718018 -0.013779 -0.695888
vn 0.720778 0.036703 -0.692194
vn 0.720778 0.036703 -0.692194
vn 0.720329 0.044195 0.692223
vn 0.720329 0.044195 0.692223
vn 0.718934 0.043001 0.693747
vn 0.718939 0.043005 0.693742
vn -0.717961 0.015336 0.695914
vn -0.717270 0.024179 0.696375
vn -0.720831 -0.035459 0.692203
vn -0.720831 -0.035459 0.692203
vn -0.718858 -0.042238 -0.693873
vn -0.718852 -0.042234 -0.693880
vn -0.720295 -0.043084 -0.692328
vn -0.720295 -0.043084 -0.692328
vn -0.707214 0.018338 -0.706761
vn -0.707410 0.003693 -0.706794
vn -0.704567 0.081954 -0.704889
vn -0.704444 0.083906 -0.704783
vn 0.705174 -0.068844 0.705684
vn 0.705252 -0.067383 0.705747
vn 0.707208 -0.004948 0.706988
vn 0.707054 -0.016612 0.706965
vn -0.010579 -0.999944 0.000002
vn -0.010579 -0.999944 0.000002
vn -0.010579 -0.999944 0.000002
vn -0.010579 -0.999944 0.000002
vn -0.706989 0.027537 0.706688
vn -0.706773 0.035239 0.706562
vn -0.707273 -0.027941 0.706388
vn -0.707283 -0.027453 0.706398
vn 0.706598 -0.036365 -0.706680
vn 0.706888 -0.025843 -0.706854
vn 0.706836 0.042657 -0.706091
vn 0.706836 0.042535 -0.706097
vn 0.706836 0.042535 -0.706097
vn 0.706836 0.042657 -0.706091
vn 0.706847 0.039620 -0.706256
vn 0.706847 0.039620 -0.706256
vn 0.706875 -0.024406 0.706918
vn 0.706875 -0.024406 0.706918
vn 0.705252 -0.067383 0.705747
vn 0.705174 -0.068844 0.705684
vn -0.707283 -0.027453 0.706398
vn -0.707273 -0.027941 0.706388
vn -0.706998 -0.039622 0.706105
vn -0.706998 -0.039622 0.706105
vn -0.704444 0.083906 -0.704783
vn -0.704567 0.081954 -0.704889
vn -0.706983 0.024393 -0.706810
vn -0.706983 0.024393 -0.706810
vn 0.707054 -0.016612 0.706965
vn 0.707208 -0.004948 0.706988
vn 0.693963 0.200812 0.691441
vn 0.693963 0.200812 0.691441
vn 0.685685 -0.237662 -0.688007
vn 0.685685 -0.237662 -0.688007
vn 0.706888 -0.025843 -0.706854
vn 0.706598 -0.036365 -0.706680
vn -0.685399 -0.255350 -0.681927
vn -0.685399 -0.255350 -0.681927
vn -0.707410 0.003693 -0.706794
vn -0.707214 0.018338 -0.706761
vn -0.694569 0.181834 0.696068
vn -0.694569 0.181834 0.696068
vn -0.706773 0.035239 0.706562
vn -0.706989 0.027537 0.706688
s off
f 1/1/1 2/2/2 12/3/3 9/4/4
f 10/5/5 11/6/6 8/7/7 7/8/8
f 7/8/9 8/7/10 2/9/11 1/10/12
f 2/2/13 8/11/14 11/12/15 12/3/16
f 7/13/17 1/1/18 9/4/19 10/14/20
f 10/14/21 9/4/22 3/15/23 5/16/24
f 5/17/25 6/18/26 11/6/27 10/5/28
f 12/3/29 11/12/30 6/19/31 4/20/32
f 9/4/33 12/3/34 4/20/35 3/15/36
f 13/21/37 14/22/38 24/23/39 21/24/40
f 22/25/41 23/26/42 20/27/43 19/28/44
f 19/28/45 20/27/46 14/29/47 13/30/48
f 14/22/49 20/31/50 23/32/51 24/23/52
f 19/33/53 13/21/54 21/24/55 22/34/56
f 22/34/57 21/24/58 15/35/59 17/36/60
f 17/37/61 18/38/62 23/26/63 22/25/64
f 24/23/65 23/32/66 18/39/67 16/40/68
f 21/24/69 24/23/70 16/40/71 15/35/72
f 39/41/73 40/42/74 36/43/75 33/44/76
f 34/45/77 35/46/78 37/47/79 38/48/80
f 31/49/81 32/50/82 26/51/83 25/52/84
f 40/42/85 37/53/86 35/54/87 36/43/88
f 38/55/89 39/41/90 33/44/91 34/56/92
f 34/56/93 33/44/94 27/57/95 29/58/96
f 29/59/97 30/60/98 35/46/99 34/45/100
f 36/43/101 35/54/102 30/61/103 28/62/104
f 33/44/105 36/43/106 28/62/107 27/57/108
f 38/48/109 37/47/110 32/50/111 31/49/112
f 31/63/113 25/64/114 39/41/115 38/55/116
f 25/64/117 26/65/118 40/42/119 39/41/120
f 26/65/121 32/66/122 37/53/123 40/42/124
f 41/67/125 42/68/126 52/69/127 49/70/128
f 50/71/129 51/72/130 48/73/131 47/74/132
f 47/74/133 48/73/134 42/75/135 41/76/136
f 42/68/137 48/77/138 51/78/139 52/69/140
f 47/79/141 41/67/142 49/70/143 50/80/144
f 50/80/145 49/70/146 43/81/147 45/82/148
f 45/83/149 46/84/150 51/72/151 50/71/152
f 52/69/153 51/78/154 46/85/155 44/86/156
f 49/70/157 52/69/158 44/86/159 43/81/160
f 53/87/161 54/88/162 64/89/163 61/90/164
f 62/91/165 63/92/166 60/93/167 59/94/168
f 59/94/169 60/93/170 54/95/171 53/96/172
f 54/88/173 60/97/174 63/98/175 64/89/176
f 59/99/177 53/87/178 61/90/179 62/100/180
f 62/100/181 61/90/182 55/101/183 57/102/184
f 57/103/185 58/104/186 63/92/187 62/91/188
f 64/89/189 63/98/190 58/105/191 56/106/192
f 61/90/193 64/89/194 56/106/195 55/101/196
f 79/107/197 80/108/198 76/109/199 73/110/200
f 74/111/201 75/112/202 77/113/203 78/114/204
f 71/115/205 72/116/206 66/117/207 65/118/208
f 80/108/209 77/119/210 75/120/211 76/109/212
f 78/121/213 79/107/214 73/110/215 74/122/216
f 74/122/217 73/110/218 67/123/219 69/124/220
f 69/125/221 70/126/222 75/112/223 74/111/224
f 76/109/225 75/120/226 70/127/227 68/128/228
f 73/110/229 76/109/230 68/128/231 67/123/232
f 78/114/233 77/113/234 72/116/235 71/115/236
f 71/129/237 65/130/238 79/107/239 78/121/240
f 65/130/241 66/131/242 80/108/243 79/107/244
f 66/131/245 72/132/246 77/119/247 80/108/248
