# This file uses centimeters as units for non-parametric coordinates.

v 0.132664 0.290493 -0.286901
v 0.266178 0.137171 -0.290731
v -0.019955 0.020029 -0.427129
v 0.089939 0.257316 -0.343868
v -0.065813 0.301573 -0.297906
v 0.358802 0.009431 -0.236050
v 0.112429 0.381112 -0.174558
v 0.106212 -0.143004 -0.387756
v -0.177633 0.319377 -0.220415
v 0.422227 0.078642 -0.098937
v -0.270967 0.275094 -0.189507
v 0.358764 0.254383 0.025051
v 0.291715 0.320127 0.060367
v -0.060550 -0.140083 -0.405391
v 0.392975 -0.090024 -0.106586
v -0.321572 0.010126 -0.299322
v -0.107794 0.314725 0.029346
v 0.337330 -0.160078 -0.028393
v 0.088292 0.335954 0.082194
v 0.422028 -0.041025 -0.013648
v 0.315622 0.043528 0.257944
v 0.235986 0.157937 0.346669
v 0.233552 0.290099 0.257813
v 0.365531 -0.119620 0.056853
v -0.320180 -0.100256 -0.200009
v -0.308419 -0.076315 -0.120612
v 0.249190 0.017147 0.316097
v -0.275725 0.233397 0.123644
v -0.136740 0.314164 0.182324
v -0.409966 0.089126 -0.072405
v -0.197835 0.254191 0.242245
v -0.412960 0.000454 0.045291
v -0.405038 -0.039179 -0.101362
v -0.395127 0.012042 0.099605
v -0.294423 0.153860 0.176804
v -0.395582 0.006746 0.102253
v -0.395121 0.006959 0.103728
v -0.389959 0.007144 0.112114
v -0.395092 0.006708 0.103203
v -0.392966 0.006805 0.106956
v -0.389916 0.006944 0.111728
v -0.390686 0.006909 0.110640
v 0.132672 0.166922 0.381380
v -0.392934 0.006759 0.106922
v 0.034049 0.154074 0.380783
v -0.394978 0.005999 0.101710
v -0.390426 0.006954 0.111100
v -0.363393 -0.032523 0.002295
v -0.387025 0.006834 0.115114
v -0.130479 0.008722 0.352877
v 0.162926 -0.101740 0.294567
v -0.093854 -0.061330 0.349164
vt 0.211594 0.300503
vt 0.211594 0.300503
vt 0.211594 0.300503
vt 0.211594 0.300503
vt 0.211594 0.300503
vt 0.211594 0.300503
vt 0.211594 0.300503
vt 0.211594 0.300503
vt 0.211594 0.300503
vt 0.211594 0.300503
vt 0.211594 0.300503
vt 0.211594 0.300503
vt 0.211594 0.300503
vt 0.211594 0.300503
vt 0.211594 0.300503
vt 0.211594 0.300503
vt 0.211594 0.300503
vt 0.211594 0.300503
vt 0.211594 0.300503
vt 0.211594 0.300503
vt 0.211594 0.300503
vt 0.211594 0.300503
vt 0.211594 0.300503
vt 0.211594 0.300503
vt 0.211594 0.300503
vt 0.211594 0.300503
vt 0.211594 0.300503
vt 0.211594 0.300503
vt 0.211594 0.300503
vt 0.211594 0.300503
vt 0.211594 0.300503
vt 0.211594 0.300503
vt 0.211594 0.300503
vt 0.211594 0.300503
vt 0.211594 0.300503
vt 0.211594 0.300503
vt 0.211594 0.300503
vt 0.211594 0.300503
vt 0.211594 0.300503
vt 0.211594 0.300503
vt 0.211594 0.300503
vt 0.211594 0.300503
vt 0.211594 0.300503
vt 0.211594 0.300503
vt 0.211594 0.300503
vt 0.211594 0.300503
vt 0.211594 0.300503
vt 0.211594 0.300503
vt 0.211594 0.300503
vt 0.211594 0.300503
vt 0.211594 0.300503
vt 0.211594 0.300503
vn 0.538987 0.486529 -0.687592
vn 0.538987 0.486529 -0.687592
vn 0.538987 0.486529 -0.687592
vn 0.188202 0.780731 -0.595851
vn 0.188202 0.780731 -0.595851
vn 0.188202 0.780731 -0.595851
vn 0.375990 0.146897 -0.914906
vn 0.375990 0.146897 -0.914906
vn 0.375990 0.146897 -0.914906
vn -0.156621 0.390807 -0.907050
vn -0.156621 0.390807 -0.907050
vn -0.156621 0.390807 -0.907050
vn 0.052824 0.802751 -0.593970
vn 0.052824 0.802751 -0.593970
vn 0.052824 0.802751 -0.593970
vn 0.678417 0.601314 -0.422104
vn 0.678417 0.601314 -0.422104
vn 0.678417 0.601314 -0.422104
vn 0.569213 0.755168 -0.325144
vn 0.569213 0.755168 -0.325144
vn 0.569213 0.755167 -0.325144
vn 0.448429 -0.056694 -0.892019
vn 0.448429 -0.056694 -0.892019
vn 0.448429 -0.056694 -0.892019
vn -0.130561 0.908432 -0.397120
vn -0.130561 0.908432 -0.397120
vn -0.130561 0.908433 -0.397120
vn -0.228183 0.962334 0.147803
vn -0.228183 0.962334 0.147803
vn -0.228183 0.962334 0.147803
vn -0.463334 0.439429 -0.769560
vn -0.463334 0.439429 -0.769560
vn -0.463334 0.439429 -0.769560
vn -0.121441 0.991214 0.052418
vn -0.121440 0.991214 0.052418
vn -0.121441 0.991214 0.052418
vn 0.695496 0.615311 -0.371049
vn 0.695496 0.615311 -0.371049
vn 0.695496 0.615311 -0.371049
vn -0.376920 0.334962 -0.863558
vn -0.376920 0.334962 -0.863558
vn -0.376920 0.334962 -0.863558
vn -0.466546 0.413217 -0.782040
vn -0.466546 0.413217 -0.782040
vn -0.466546 0.413217 -0.782040
vn 0.449326 0.134427 -0.883196
vn 0.449326 0.134427 -0.883196
vn 0.449326 0.134427 -0.883196
vn 0.720354 0.554297 -0.416948
vn 0.720354 0.554297 -0.416948
vn 0.720354 0.554297 -0.416948
vn 0.778002 0.337205 -0.530100
vn 0.778002 0.337205 -0.530100
vn 0.778002 0.337205 -0.530100
vn 0.101068 -0.158962 -0.982098
vn 0.101068 -0.158962 -0.982098
vn 0.101068 -0.158962 -0.982098
vn 0.095592 0.978801 0.181136
vn 0.095592 0.978801 0.181136
vn 0.095592 0.978801 0.181136
vn 0.031875 0.999445 0.009701
vn 0.031875 0.999445 0.009701
vn 0.031875 0.999445 0.009701
vn -0.013394 -0.999155 -0.038858
vn -0.013394 -0.999155 -0.038858
vn -0.013394 -0.999155 -0.038858
vn 0.647789 -0.511882 -0.564222
vn 0.647789 -0.511882 -0.564222
vn 0.647789 -0.511882 -0.564222
vn -0.389288 -0.026306 -0.920740
vn -0.389288 -0.026306 -0.920740
vn -0.389288 -0.026306 -0.920740
vn -0.394345 0.911688 0.115400
vn -0.394345 0.911688 0.115400
vn -0.394345 0.911688 0.115400
vn -0.521460 0.850875 0.063963
vn -0.521460 0.850875 0.063963
vn -0.521460 0.850875 0.063963
vn -0.829414 0.341601 -0.442019
vn -0.829414 0.341601 -0.442019
vn -0.829414 0.341601 -0.442019
vn 0.923845 -0.144142 -0.354589
vn 0.923845 -0.144142 -0.354589
vn 0.923845 -0.144142 -0.354589
vn 0.495870 -0.791832 -0.356531
vn 0.495870 -0.791833 -0.356531
vn 0.495870 -0.791832 -0.356531
vn 0.963161 -0.157145 -0.218236
vn 0.963161 -0.157145 -0.218236
vn 0.963161 -0.157145 -0.218236
vn 0.930612 0.211399 0.298785
vn 0.930612 0.211399 0.298785
vn 0.930612 0.211399 0.298785
vn 0.945986 0.133016 0.295665
vn 0.945986 0.133016 0.295665
vn 0.945986 0.133016 0.295665
vn -0.103382 0.994514 -0.015910
vn -0.103382 0.994514 -0.015910
vn -0.103382 0.994515 -0.015910
vn 0.736583 0.516893 0.436196
vn 0.736583 0.516893 0.436196
vn 0.736583 0.516893 0.436196
vn 0.095212 0.979590 0.177026
vn 0.095212 0.979590 0.177026
vn 0.095212 0.979590 0.177026
vn 0.013722 0.970186 0.241974
vn 0.013722 0.970186 0.241974
vn 0.013722 0.970186 0.241974
vn 0.925347 0.223118 0.306516
vn 0.925347 0.223118 0.306516
vn 0.925347 0.223118 0.306516
vn 0.826964 -0.561019 0.037270
vn 0.826964 -0.561019 0.037270
vn 0.826964 -0.561019 0.037270
vn -0.566795 -0.554976 -0.608888
vn -0.566795 -0.554976 -0.608888
vn -0.566795 -0.554977 -0.608888
vn 0.865536 0.280904 0.414656
vn 0.865536 0.280904 0.414656
vn 0.865536 0.280904 0.414656
vn -0.801957 -0.405117 -0.439029
vn -0.801956 -0.405117 -0.439029
vn -0.801957 -0.405117 -0.439029
vn -0.776821 0.625649 0.071501
vn -0.776821 0.625649 0.071501
vn -0.776821 0.625649 0.071501
vn -0.559295 0.797125 0.227555
vn -0.559295 0.797125 0.227555
vn -0.559295 0.797125 0.227555
vn -0.141676 -0.985122 0.097275
vn -0.141676 -0.985122 0.097275
vn -0.141676 -0.985122 0.097275
vn 0.072986 -0.957805 0.277998
vn 0.072986 -0.957805 0.277998
vn 0.072986 -0.957805 0.277998
vn 0.795692 -0.605225 0.024014
vn 0.795692 -0.605225 0.024014
vn 0.795692 -0.605225 0.024014
vn -0.924677 0.049679 -0.377497
vn -0.924677 0.049679 -0.377497
vn -0.924677 0.049679 -0.377497
vn 0.872364 -0.250537 0.419776
vn 0.872364 -0.250537 0.419776
vn 0.872364 -0.250537 0.419776
vn 0.310602 0.534283 0.786173
vn 0.310602 0.534283 0.786173
vn 0.310602 0.534283 0.786173
vn -0.864248 0.412116 0.288504
vn -0.864248 0.412116 0.288505
vn -0.864249 0.412116 0.288505
vn 0.678087 -0.479325 0.557177
vn 0.678087 -0.479325 0.557177
vn 0.678087 -0.479325 0.557177
vn -0.076717 0.742744 0.665167
vn -0.076717 0.742744 0.665167
vn -0.076717 0.742743 0.665167
vn -0.088840 0.736508 0.670570
vn -0.088840 0.736508 0.670570
vn -0.088840 0.736508 0.670570
vn -0.100998 0.744613 0.659811
vn -0.100998 0.744613 0.659811
vn -0.100998 0.744613 0.659811
vn -0.998534 -0.027884 -0.046405
vn -0.998533 -0.027884 -0.046405
vn -0.998534 -0.027884 -0.046405
vn 0.676786 -0.095045 0.730018
vn 0.676786 -0.095045 0.730018
vn 0.676786 -0.095045 0.730018
vn -0.285124 -0.905189 0.315178
vn -0.285124 -0.905189 0.315178
vn -0.285124 -0.905189 0.315178
vn -0.774389 0.467208 0.426661
vn -0.774388 0.467208 0.426661
vn -0.774389 0.467208 0.426661
vn -0.142163 -0.984667 0.101096
vn -0.142163 -0.984667 0.101096
vn -0.142163 -0.984667 0.101096
vn -0.872503 0.449954 0.190470
vn -0.872503 0.449954 0.190470
vn -0.872503 0.449954 0.190470
vn -0.401960 -0.889183 0.218588
vn -0.401960 -0.889183 0.218588
vn -0.401960 -0.889183 0.218588
vn -0.845061 0.419889 0.331006
vn -0.845061 0.419889 0.331006
vn -0.845061 0.419889 0.331006
vn -0.319515 -0.928743 0.188006
vn -0.319515 -0.928743 0.188006
vn -0.319515 -0.928743 0.188006
vn -0.951997 0.079424 0.295623
vn -0.951997 0.079424 0.295623
vn -0.951997 0.079424 0.295623
vn -0.787932 -0.219933 -0.575146
vn -0.787932 -0.219933 -0.575146
vn -0.787932 -0.219933 -0.575146
vn -0.804947 0.289720 0.517806
vn -0.804947 0.289720 0.517806
vn -0.804947 0.289720 0.517806
vn -0.060708 -0.893820 0.444298
vn -0.060708 -0.893820 0.444298
vn -0.060708 -0.893820 0.444298
vn 0.299789 -0.175506 0.937723
vn 0.299789 -0.175506 0.937723
vn 0.299789 -0.175506 0.937723
vn -0.940862 0.212698 0.263701
vn -0.940862 0.212698 0.263701
vn -0.940862 0.212698 0.263701
vn -0.789324 0.386187 0.477314
vn -0.789324 0.386187 0.477314
vn -0.789324 0.386187 0.477314
vn -0.400502 0.784895 0.472799
vn -0.400502 0.784895 0.472799
vn -0.400502 0.784895 0.472799
vn -0.543340 -0.773689 0.325863
vn -0.543340 -0.773689 0.325863
vn -0.543340 -0.773689 0.325863
vn -0.765154 -0.524199 0.373838
vn -0.765154 -0.524199 0.373838
vn -0.765154 -0.524199 0.373838
vn -0.765154 -0.524199 0.373838
vn -0.644770 -0.651870 0.399171
vn -0.644770 -0.651870 0.399171
vn -0.644770 -0.651870 0.399171
vn -0.644770 -0.651870 0.399171
vn -0.505919 -0.787911 0.351058
vn -0.505919 -0.787911 0.351058
vn -0.505919 -0.787911 0.351058
vn -0.505919 -0.787911 0.351058
vn 0.157196 -0.289281 0.944249
vn 0.157196 -0.289281 0.944249
vn 0.157196 -0.289281 0.944249
vn -0.600552 -0.706270 0.374859
vn -0.600552 -0.706270 0.374859
vn -0.600552 -0.706270 0.374859
vn -0.600552 -0.706270 0.374859
vn -0.694934 -0.509000 0.507922
vn -0.694934 -0.509000 0.507922
vn -0.694934 -0.509000 0.507922
vn -0.694934 -0.509000 0.507922
vn 0.467500 0.814049 -0.344628
vn 0.467500 0.814049 -0.344628
vn 0.467500 0.814049 -0.344628
vn 0.467500 0.814049 -0.344628
vn -0.398572 0.283708 0.872153
vn -0.398572 0.283708 0.872153
vn -0.398572 0.283708 0.872153
vn -0.403925 -0.888900 0.216106
vn -0.403925 -0.888900 0.216106
vn -0.403925 -0.888900 0.216106
vn -0.657745 0.152013 0.737742
vn -0.657745 0.152013 0.737742
vn -0.657745 0.152013 0.737742
vn -0.411516 -0.864881 0.287463
vn -0.411515 -0.864881 0.287463
vn -0.411516 -0.864881 0.287463
vn -0.675309 0.119999 0.727707
vn -0.675309 0.119999 0.727707
vn -0.675309 0.119999 0.727707
vn 0.673289 -0.573135 0.467117
vn 0.673289 -0.573135 0.467117
vn 0.673289 -0.573135 0.467117
vn -0.325543 -0.911900 0.249921
vn -0.325543 -0.911900 0.249921
vn -0.325543 -0.911900 0.249921
vn -0.330544 -0.909324 0.252727
vn -0.330544 -0.909324 0.252727
vn -0.330544 -0.909324 0.252727
vn 0.021726 -0.212166 0.976992
vn 0.021726 -0.212166 0.976992
vn 0.021726 -0.212166 0.976992
vn -0.057872 -0.082984 0.994869
vn -0.057872 -0.082984 0.994869
vn -0.057872 -0.082984 0.994869
vn -0.029672 -0.945699 0.323686
vn -0.029672 -0.945699 0.323686
vn -0.029672 -0.945699 0.323686
vn 0.156294 -0.284689 0.945793
vn 0.156294 -0.284689 0.945793
vn 0.156294 -0.284689 0.945793
vn -0.631080 -0.366190 0.683844
vn -0.631080 -0.366190 0.683844
vn -0.631080 -0.366190 0.683844
vn -0.368789 -0.908307 0.197415
vn -0.368789 -0.908307 0.197415
vn -0.368789 -0.908307 0.197415
vn -0.135392 -0.986389 0.093304
vn -0.135392 -0.986389 0.093304
vn -0.135392 -0.986389 0.093304
s off
f 2/1/1 4/2/2 1/3/3
f 1/3/4 4/2/5 7/4/6
f 2/1/7 3/5/8 4/2/9
f 3/5/10 5/6/11 4/2/12
f 5/6/13 7/4/14 4/2/15
f 1/3/16 12/7/17 2/1/18
f 1/3/19 13/8/20 12/7/21
f 6/9/22 3/5/23 2/1/24
f 7/4/25 5/6/26 9/10/27
f 9/10/28 19/11/29 7/4/30
f 5/6/31 11/12/32 9/10/33
f 9/10/34 17/13/35 19/11/36
f 13/8/37 1/3/38 7/4/39
f 5/6/40 3/5/41 16/14/42
f 5/6/43 16/14/44 11/12/45
f 3/5/46 6/9/47 8/15/48
f 12/7/49 10/16/50 2/1/51
f 2/1/52 10/16/53 6/9/54
f 14/17/55 3/5/56 8/15/57
f 7/4/58 19/11/59 13/8/60
f 29/18/61 17/13/62 9/10/63
f 8/15/64 18/19/65 14/17/66
f 8/15/67 6/9/68 15/20/69
f 3/5/70 14/17/71 16/14/72
f 11/12/73 28/21/74 9/10/75
f 28/21/76 29/18/77 9/10/78
f 11/12/79 16/14/80 30/22/81
f 6/9/82 10/16/83 15/20/84
f 18/19/85 8/15/86 15/20/87
f 15/20/88 10/16/89 20/23/90
f 10/16/91 21/24/92 20/23/93
f 10/16/94 12/7/95 21/24/96
f 19/11/97 17/13/98 29/18/99
f 12/7/100 13/8/101 22/25/102
f 13/8/103 19/11/104 23/26/105
f 19/11/106 29/18/107 23/26/108
f 22/25/109 13/8/110 23/26/111
f 24/27/112 15/20/113 20/23/114
f 25/28/115 16/14/116 14/17/117
f 22/25/118 21/24/119 12/7/120
f 33/29/121 16/14/122 25/28/123
f 30/22/124 28/21/125 11/12/126
f 28/21/127 31/30/128 29/18/129
f 18/19/130 26/31/131 14/17/132
f 26/31/133 25/28/134 14/17/135
f 18/19/136 15/20/137 24/27/138
f 33/29/139 30/22/140 16/14/141
f 24/27/142 20/23/143 21/24/144
f 43/32/145 22/25/146 23/26/147
f 28/21/148 30/22/149 32/33/150
f 27/34/151 24/27/152 21/24/153
f 31/30/154 45/35/155 29/18/156
f 29/18/157 45/35/158 23/26/159
f 45/35/160 43/32/161 23/26/162
f 32/33/163 30/22/164 33/29/165
f 21/24/166 22/25/167 27/34/168
f 25/28/169 26/31/170 33/29/171
f 35/36/172 31/30/173 28/21/174
f 51/37/175 26/31/176 18/19/177
f 34/38/178 28/21/179 32/33/180
f 33/29/181 48/39/182 32/33/183
f 34/38/184 35/36/185 28/21/186
f 33/29/187 26/31/188 48/39/189
f 34/38/190 32/33/191 46/40/192
f 34/38/193 46/40/194 36/41/195
f 34/38/196 49/42/197 35/36/198
f 18/19/199 24/27/200 27/34/201
f 43/32/202 27/34/203 22/25/204
f 36/41/205 37/43/206 34/38/207
f 38/44/208 34/38/209 37/43/210
f 38/44/211 49/42/212 34/38/213
f 46/40/214 44/45/215 39/46/216
f 36/41/217 46/40/218 39/46/219 40/47/220
f 37/43/221 36/41/222 40/47/223 41/48/224
f 38/44/225 37/43/226 41/48/227 49/42/228
f 52/49/229 27/34/230 43/32/231
f 39/46/232 44/45/233 42/50/234 40/47/235
f 40/47/236 42/50/237 49/42/238 41/48/239
f 42/50/240 44/45/241 47/51/242 49/42/243
f 31/30/244 50/52/245 45/35/246
f 48/39/247 46/40/248 32/33/249
f 35/36/250 50/52/251 31/30/252
f 46/40/253 47/51/254 44/45/255
f 35/36/256 49/42/257 50/52/258
f 51/37/259 18/19/260 27/34/261
f 46/40/262 48/39/263 49/42/264
f 46/40/265 49/42/266 47/51/267
f 50/52/268 43/32/269 45/35/270
f 50/52/271 52/49/272 43/32/273
f 49/42/274 48/39/275 26/31/276
f 51/37/277 27/34/278 52/49/279
f 50/52/280 49/42/281 52/49/282
f 52/49/283 49/42/284 26/31/285
f 26/31/286 51/37/287 52/49/288
