# This file uses centimeters as units for non-parametric coordinates.

v -0.153688 -0.100580 0.181580
v 0.048891 -0.100580 0.181580
v -0.050518 0.100580 0.181580
v 0.153688 0.100580 0.181580
v -0.153688 0.100580 -0.181581
v 0.033957 0.100580 -0.181581
v -0.075373 -0.100580 -0.181581
v 0.153688 -0.100580 -0.181581
v -0.307377 -0.050290 0.181580
v -0.307377 0.050290 0.181580
v 0.307379 -0.050290 0.181580
v 0.307379 0.050290 0.181580
v -0.307377 0.100580 0.090790
v -0.307377 0.100580 -0.090790
v 0.307379 0.100580 0.037926
v 0.307379 0.100580 -0.090790
v -0.307377 0.050290 -0.181581
v -0.307377 -0.050290 -0.181581
v 0.307379 0.050290 -0.181581
v 0.307379 -0.050290 -0.181581
v -0.307377 -0.100580 -0.042989
v -0.307377 -0.100580 0.090790
v 0.307379 -0.100580 -0.090790
v 0.307379 -0.100580 0.042114
vt 0.211923 0.303946
vt 0.211923 0.303946
vt 0.211923 0.303946
vt 0.211923 0.303946
vt 0.211923 0.303946
vt 0.211923 0.303946
vt 0.211923 0.303946
vt 0.211923 0.303946
vt 0.211923 0.303946
vt 0.211923 0.303946
vt 0.211923 0.303946
vt 0.211923 0.303946
vt 0.211923 0.303946
vt 0.211923 0.303946
vt 0.211923 0.303946
vt 0.211923 0.303946
vt 0.211923 0.303946
vt 0.211923 0.303946
vt 0.211923 0.303946
vt 0.211923 0.303946
vt 0.211923 0.303946
vt 0.211923 0.303946
vt 0.211923 0.303946
vt 0.211923 0.303946
vn -0.275190 -0.840992 0.465837
vn -0.275190 -0.840992 0.465837
vn -0.275190 -0.840992 0.465837
vn 0.180029 -0.925340 0.333669
vn 0.180029 -0.925340 0.333669
vn 0.180029 -0.925340 0.333669
vn -0.168811 0.862212 0.477591
vn -0.168811 0.862212 0.477591
vn -0.168811 0.862212 0.477591
vn 0.295086 0.901807 0.315703
vn 0.295086 0.901807 0.315703
vn 0.295086 0.901807 0.315703
vn -0.275190 0.840991 -0.465837
vn -0.275190 0.840991 -0.465837
vn -0.275190 0.840991 -0.465837
vn 0.000000 0.000000 1.000000
vn 0.000000 0.000000 1.000000
vn 0.000000 0.000000 1.000000
vn 0.000000 0.000000 1.000000
vn 0.000000 0.000000 1.000000
vn 0.000000 0.000000 1.000000
vn 0.000000 0.000000 1.000000
vn 0.000000 0.000000 1.000000
vn 0.158851 0.863659 -0.478393
vn 0.158851 0.863659 -0.478393
vn 0.158851 0.863659 -0.478393
vn -0.199660 -0.921099 -0.334234
vn -0.199660 -0.921099 -0.334234
vn -0.199660 -0.921099 -0.334234
vn 0.000000 1.000000 -0.000000
vn 0.000000 1.000000 -0.000000
vn 0.000000 1.000000 -0.000000
vn 0.000000 1.000000 -0.000000
vn 0.000000 1.000000 -0.000000
vn 0.000000 1.000000 -0.000000
vn 0.000000 1.000000 -0.000000
vn 0.000000 1.000000 -0.000000
vn 0.275186 -0.840992 -0.465837
vn 0.275186 -0.840992 -0.465837
vn 0.275186 -0.840992 -0.465837
vn -1.000000 0.000000 0.000000
vn -1.000000 0.000000 0.000000
vn -1.000000 0.000000 0.000000
vn -1.000000 0.000000 0.000000
vn -1.000000 0.000000 0.000000
vn -1.000000 0.000000 0.000000
vn -1.000000 0.000000 0.000000
vn -1.000000 0.000000 0.000000
vn 1.000000 0.000000 0.000000
vn 1.000000 0.000000 0.000000
vn 1.000000 0.000000 0.000000
vn 1.000000 0.000000 0.000000
vn 1.000000 0.000000 0.000000
vn 1.000000 0.000000 0.000000
vn 1.000000 0.000000 0.000000
vn 1.000000 0.000000 0.000000
vn 0.000000 -1.000000 -0.000000
vn 0.000000 -1.000000 -0.000000
vn 0.000000 -1.000000 -0.000000
vn 0.000000 -1.000000 -0.000000
vn 0.000000 -1.000000 -0.000000
vn 0.000000 -1.000000 -0.000000
vn 0.000000 -1.000000 -0.000000
vn 0.000000 -1.000000 -0.000000
vn 0.000000 0.000000 -1.000000
vn 0.000000 0.000000 -1.000000
vn 0.000000 0.000000 -1.000000
vn 0.000000 0.000000 -1.000000
vn 0.000000 0.000000 -1.000000
vn 0.000000 0.000000 -1.000000
vn 0.000000 0.000000 -1.000000
vn 0.000000 0.000000 -1.000000
s off
f 9/1/1 22/2/2 1/3/3
f 24/4/4 11/5/5 2/6/6
f 13/7/7 10/8/8 3/9/9
f 12/10/10 15/11/11 4/12/12
f 17/13/13 14/14/14 5/15/15
f 9/1/16 1/3/17 2/6/18 11/5/19 12/10/20 4/12/21 3/9/22 10/8/23
f 16/16/24 19/17/25 6/18/26
f 21/19/27 18/20/28 7/21/29
f 13/7/30 3/9/31 4/12/32 15/11/33 16/16/34 6/18/35 5/15/36 14/14/37
f 20/22/38 23/23/39 8/24/40
f 18/20/41 21/19/42 22/2/43 9/1/44 10/8/45 13/7/46 14/14/47 17/13/48
f 11/5/49 24/4/50 23/23/51 20/22/52 19/17/53 16/16/54 15/11/55 12/10/56
f 21/19/57 7/21/58 8/24/59 23/23/60 24/4/61 2/6/62 1/3/63 22/2/64
f 17/13/65 5/15/66 6/18/67 19/17/68 20/22/69 8/24/70 7/21/71 18/20/72
