# This file uses centimeters as units for non-parametric coordinates.

v 0.374052 0.073574 0.420702
v 0.665570 0.094806 0.048285
v 0.375317 0.104793 -0.586195
v 0.119907 0.064146 -0.771334
v -0.400727 0.189336 -0.622490
v -0.665568 0.088032 0.176601
v -0.305884 0.073574 0.487574
v -0.451518 1.432744 0.413996
v 0.454552 1.816665 0.484688
v 0.069389 2.261669 0.930555
v -0.085637 0.018966 -0.763172
v 0.200902 3.602419 2.139950
v -0.421342 0.003685 -0.528654
v 0.289293 0.000000 -0.599634
v -0.220593 0.004687 -0.038565
v 0.085326 3.343915 1.530512
v 0.200323 3.368147 1.569681
v 0.259126 3.267071 1.597982
v -0.057457 3.054245 1.271635
v -0.305516 2.118051 0.692759
v 0.047884 2.681822 0.594458
v -0.268727 2.249390 0.543514
v -0.321527 1.921242 0.617826
v -0.075700 2.357215 0.312078
v 0.257032 1.442729 0.408539
v -0.428759 0.996693 0.492998
v -0.272721 0.663789 0.382677
v -0.598348 0.430680 -0.200239
v -0.534503 0.293508 0.606981
v -0.083025 0.387517 -0.736614
v 0.169249 3.498783 2.051744
v -0.053237 2.850561 0.875597
v 0.228831 2.982391 1.035421
v 0.287165 2.978176 1.227667
v 0.311519 2.580386 0.733377
v 0.361277 2.419584 0.783184
v 0.227859 1.894570 0.609129
v 0.114089 2.357215 0.293413
v 0.042639 1.395387 0.526508
v -0.192739 1.444616 0.454054
v -0.402114 1.538557 0.495947
v 0.202768 2.176684 0.197783
v 0.419282 1.519046 0.049833
v -0.031268 1.674927 -0.210352
v 0.452463 1.263824 0.410730
v 0.321090 0.663789 0.324278
v 0.040096 0.563668 0.515270
v -0.309976 1.214194 -0.307116
v -0.069079 0.853942 -0.594820
v 0.216884 1.249063 -0.349718
v 0.050648 0.261883 0.622561
v -0.608377 0.345282 0.411989
v 0.656234 0.344539 0.287468
v 0.621552 0.293508 0.493284
v 0.045091 0.055799 0.566057
v -0.527683 0.061225 0.520445
v -0.633454 0.063551 -0.115572
v -0.508046 0.078467 -0.509359
v -0.288727 0.064778 -0.730925
v 0.598004 0.061225 0.409735
v 0.117022 2.716798 1.283056
v 0.101671 3.129229 1.174669
v -0.104515 2.900822 1.115404
v 0.278402 2.967556 1.088003
v -0.180900 2.178717 0.235846
v -0.409428 1.589693 0.166891
v 0.470169 1.537680 0.409430
v -0.643951 0.389505 0.009211
v -0.504585 0.518640 -0.363420
v 0.500051 0.710671 -0.199884
v 0.653920 0.434671 0.122961
vt 0.213665 0.279052
vt 0.213665 0.279052
vt 0.213665 0.279052
vt 0.213665 0.279052
vt 0.213665 0.279052
vt 0.213665 0.279052
vt 0.213665 0.279052
vt 0.213665 0.279052
vt 0.213665 0.279052
vt 0.112332 0.260198
vt 0.112332 0.260198
vt 0.112332 0.260198
vt 0.213665 0.279052
vt 0.213665 0.279052
vt 0.213665 0.279052
vt 0.213665 0.279052
vt 0.213665 0.279052
vt 0.213665 0.279052
vt 0.213665 0.279052
vt 0.213665 0.279052
vt 0.213665 0.279052
vt 0.112332 0.260198
vt 0.112332 0.260198
vt 0.112332 0.260198
vt 0.112332 0.260198
vt 0.112332 0.260198
vt 0.112332 0.260198
vt 0.213665 0.279052
vt 0.213665 0.279052
vt 0.213665 0.279052
vt 0.213665 0.279052
vt 0.112332 0.255056
vt 0.112332 0.255056
vt 0.112332 0.255056
vt 0.213665 0.279052
vt 0.213665 0.279052
vt 0.213665 0.279052
vt 0.213665 0.279052
vt 0.213665 0.279052
vt 0.213665 0.279052
vt 0.213665 0.279052
vt 0.213665 0.279052
vt 0.213665 0.279052
vt 0.112332 0.255056
vt 0.112332 0.255056
vt 0.112332 0.255056
vt 0.112332 0.255056
vt 0.112332 0.255056
vt 0.112332 0.255056
vt 0.112332 0.255056
vt 0.112332 0.255056
vt 0.112332 0.255056
vt 0.112332 0.255056
vt 0.112332 0.255056
vt 0.112332 0.255056
vt 0.112332 0.255056
vt 0.112332 0.255056
vt 0.112332 0.255056
vt 0.112332 0.255056
vt 0.112332 0.255056
vt 0.112332 0.255056
vt 0.112332 0.255056
vt 0.112332 0.255056
vt 0.112332 0.255056
vt 0.112332 0.255056
vt 0.112332 0.255056
vt 0.112332 0.255056
vt 0.112332 0.255056
vt 0.112332 0.255056
vt 0.112332 0.255056
vt 0.112332 0.235345
vt 0.112332 0.235345
vt 0.112332 0.235345
vt 0.112332 0.235345
vt 0.112332 0.235345
vt 0.112332 0.235345
vt 0.112332 0.235345
vt 0.112332 0.235345
vt 0.112332 0.235345
vt 0.112332 0.235345
vt 0.112332 0.235345
vt 0.112332 0.235345
vt 0.213665 0.279052
vt 0.213665 0.279052
vt 0.213665 0.279052
vt 0.213665 0.279052
vt 0.213665 0.279052
vt 0.213665 0.279052
vt 0.213665 0.279052
vt 0.213665 0.279052
vt 0.213665 0.279052
vt 0.213665 0.279052
vt 0.213665 0.279052
vt 0.213665 0.279052
vt 0.112332 0.235345
vt 0.112332 0.235345
vt 0.112332 0.235345
vt 0.112332 0.235345
vt 0.112332 0.235345
vt 0.112332 0.235345
vt 0.112332 0.235345
vt 0.112332 0.235345
vt 0.112332 0.235345
vt 0.112332 0.235345
vt 0.112332 0.235345
vt 0.112332 0.235345
vt 0.213665 0.279052
vt 0.213665 0.279052
vt 0.213665 0.279052
vt 0.213665 0.279052
vt 0.213665 0.279052
vt 0.112332 0.235345
vt 0.112332 0.235345
vt 0.112332 0.235345
vt 0.112332 0.235345
vt 0.112332 0.235345
vt 0.112332 0.235345
vt 0.112332 0.235345
vt 0.112332 0.235345
vt 0.112332 0.235345
vt 0.112332 0.235345
vt 0.112332 0.235345
vt 0.112332 0.235345
vt 0.112332 0.235345
vt 0.112332 0.235345
vt 0.112332 0.235345
vt 0.112332 0.235345
vt 0.112332 0.235345
vt 0.112332 0.235345
vt 0.112332 0.235345
vt 0.112332 0.235345
vt 0.112332 0.235345
vt 0.112332 0.235345
vt 0.112332 0.235345
vt 0.112332 0.235345
vt 0.112332 0.235345
vt 0.112332 0.235345
vt 0.112332 0.235345
vt 0.112332 0.235345
vt 0.112332 0.235345
vt 0.112332 0.235345
vt 0.112332 0.255056
vt 0.112332 0.255056
vt 0.112332 0.255056
vt 0.112332 0.255056
vt 0.112332 0.255056
vt 0.112332 0.255056
vt 0.112332 0.255056
vt 0.112332 0.255056
vt 0.112332 0.255056
vt 0.112332 0.255056
vt 0.112332 0.255056
vt 0.112332 0.255056
vt 0.112332 0.255056
vt 0.112332 0.255056
vt 0.112332 0.255056
vt 0.112332 0.255056
vt 0.112332 0.255056
vt 0.112332 0.255056
vt 0.112332 0.255056
vt 0.112332 0.255056
vt 0.112332 0.255056
vt 0.112332 0.255056
vt 0.112332 0.255056
vt 0.112332 0.255056
vt 0.112332 0.255056
vt 0.112332 0.255056
vt 0.112332 0.255056
vt 0.112332 0.255056
vt 0.112332 0.255056
vt 0.112332 0.255056
vt 0.112332 0.235345
vt 0.112332 0.235345
vt 0.112332 0.235345
vt 0.112332 0.235345
vt 0.112332 0.235345
vt 0.112332 0.235345
vt 0.112332 0.255056
vt 0.112332 0.255056
vt 0.112332 0.255056
vt 0.112332 0.255056
vt 0.112332 0.255056
vt 0.112332 0.255056
vt 0.112332 0.255056
vt 0.112332 0.255056
vt 0.112332 0.255056
vt 0.112332 0.255056
vt 0.112332 0.255056
vt 0.112332 0.255056
vt 0.112332 0.255056
vt 0.112332 0.255056
vt 0.112332 0.255056
vt 0.112332 0.255056
vt 0.112332 0.255056
vt 0.112332 0.255056
vt 0.112332 0.255056
vt 0.112332 0.255056
vt 0.112332 0.255056
vt 0.112332 0.255056
vt 0.112332 0.255056
vt 0.112332 0.255056
vt 0.112332 0.255056
vt 0.112332 0.255056
vt 0.112332 0.255056
vt 0.112332 0.255056
vt 0.112332 0.255056
vt 0.112332 0.255056
vt 0.112332 0.255056
vt 0.112332 0.255056
vt 0.112332 0.255056
vt 0.112332 0.255056
vt 0.112332 0.255056
vt 0.112332 0.255056
vt 0.112332 0.255056
vt 0.112332 0.255056
vt 0.112332 0.255056
vt 0.112332 0.255056
vt 0.112332 0.255056
vt 0.112332 0.255056
vt 0.112332 0.255056
vt 0.112332 0.255056
vt 0.112332 0.255056
vt 0.213665 0.279052
vt 0.213665 0.279052
vt 0.112332 0.255056
vt 0.112332 0.255056
vt 0.112332 0.255056
vt 0.112332 0.255056
vt 0.112332 0.255056
vt 0.112332 0.255056
vt 0.213665 0.279052
vt 0.213665 0.279052
vt 0.112332 0.255056
vt 0.112332 0.255056
vt 0.112332 0.255056
vt 0.112332 0.255056
vt 0.112332 0.255056
vt 0.112332 0.255056
vt 0.112332 0.255056
vt 0.112332 0.255056
vt 0.112332 0.255056
vt 0.213665 0.279052
vt 0.112332 0.260198
vt 0.112332 0.260198
vt 0.112332 0.260198
vt 0.112332 0.260198
vt 0.112332 0.260198
vt 0.112332 0.260198
vt 0.213665 0.279052
vt 0.213665 0.279052
vt 0.213665 0.279052
vt 0.213665 0.279052
vt 0.213665 0.279052
vt 0.112332 0.260198
vt 0.112332 0.260198
vt 0.112332 0.260198
vn 0.027231 -0.340778 0.939749
vn 0.027231 -0.340778 0.939749
vn 0.027231 -0.340778 0.939749
vn -0.140516 0.072152 -0.987446
vn -0.140516 0.072152 -0.987446
vn -0.140516 0.072152 -0.987446
vn -0.924223 -0.124754 0.360898
vn -0.924224 -0.124754 0.360898
vn -0.924223 -0.124754 0.360898
vn -0.223319 -0.252134 0.941572
vn -0.223319 -0.252134 0.941572
vn -0.223319 -0.252134 0.941572
vn -0.373649 0.116803 0.920187
vn -0.373649 0.116803 0.920187
vn -0.373649 0.116803 0.920187
vn -0.528652 0.285035 -0.799551
vn -0.528652 0.285035 -0.799551
vn -0.528652 0.285035 -0.799551
vn -0.799732 0.194591 -0.567947
vn -0.799732 0.194591 -0.567947
vn -0.799732 0.194591 -0.567947
vn -0.962384 0.029747 -0.270061
vn -0.962384 0.029747 -0.270061
vn -0.962384 0.029747 -0.270061
vn -0.962384 0.029747 -0.270061
vn -0.430531 0.181331 0.884173
vn -0.430531 0.181331 0.884173
vn -0.430531 0.181331 0.884173
vn 0.455393 0.312322 0.833710
vn 0.455393 0.312322 0.833710
vn 0.455393 0.312322 0.833710
vn -0.503474 -0.014237 0.863893
vn -0.503474 -0.014237 0.863893
vn -0.503474 -0.014237 0.863893
vn 0.960520 0.185056 0.207737
vn 0.960520 0.185056 0.207737
vn 0.960520 0.185056 0.207737
vn 0.199839 0.407983 -0.890850
vn 0.199839 0.407983 -0.890850
vn 0.199839 0.407983 -0.890850
vn 0.565229 -0.012873 0.824834
vn 0.565229 -0.012873 0.824833
vn 0.565229 -0.012873 0.824834
vn -0.117573 -0.116352 0.986224
vn -0.117573 -0.116352 0.986224
vn -0.117573 -0.116352 0.986224
vn 0.704948 0.368434 -0.606057
vn 0.704948 0.368434 -0.606057
vn 0.704948 0.368434 -0.606057
vn -0.872673 0.276733 -0.402319
vn -0.872673 0.276733 -0.402319
vn -0.872673 0.276733 -0.402319
vn -0.963035 0.210299 -0.168341
vn -0.963035 0.210299 -0.168341
vn -0.963035 0.210299 -0.168341
vn 0.238428 0.543467 -0.804857
vn 0.238428 0.543467 -0.804857
vn 0.238428 0.543467 -0.804857
vn -0.871396 0.027503 0.489809
vn -0.871396 0.027503 0.489809
vn -0.871396 0.027503 0.489809
vn 0.049568 -0.312555 0.948606
vn 0.049568 -0.312555 0.948606
vn 0.049568 -0.312555 0.948606
vn 0.350337 -0.361050 0.864238
vn 0.350337 -0.361050 0.864238
vn 0.350337 -0.361050 0.864238
vn 0.816761 0.368737 -0.443774
vn 0.816761 0.368737 -0.443774
vn 0.816761 0.368737 -0.443774
vn -0.342743 -0.364325 0.865907
vn -0.342743 -0.364325 0.865907
vn -0.342743 -0.364325 0.865907
vn 0.344617 -0.373149 0.861394
vn 0.344617 -0.373149 0.861394
vn 0.344617 -0.373149 0.861394
vn 0.573489 -0.385395 0.722897
vn 0.573489 -0.385395 0.722897
vn 0.573489 -0.385395 0.722897
vn 0.954632 0.241383 -0.174388
vn 0.954632 0.241384 -0.174388
vn 0.954632 0.241384 -0.174388
vn -0.465164 0.675149 -0.572534
vn -0.465164 0.675149 -0.572534
vn -0.465164 0.675149 -0.572534
vn -0.863135 0.424476 -0.273530
vn -0.863135 0.424476 -0.273530
vn -0.863135 0.424476 -0.273530
vn -0.291088 0.770472 -0.567134
vn -0.291088 0.770472 -0.567134
vn -0.291088 0.770472 -0.567134
vn -0.735359 -0.365181 0.570868
vn -0.735359 -0.365181 0.570868
vn -0.735359 -0.365181 0.570868
vn 0.697212 -0.483142 0.529594
vn 0.697212 -0.483142 0.529594
vn 0.697212 -0.483142 0.529594
vn 0.978370 0.192392 -0.076012
vn 0.978370 0.192392 -0.076012
vn 0.978370 0.192392 -0.076012
vn 0.404429 0.734332 -0.545155
vn 0.404430 0.734332 -0.545155
vn 0.404430 0.734332 -0.545155
vn 0.297354 -0.954195 -0.033066
vn 0.297354 -0.954195 -0.033066
vn 0.297354 -0.954195 -0.033066
vn 0.745559 -0.567138 -0.349995
vn 0.745559 -0.567138 -0.349995
vn 0.745559 -0.567138 -0.349995
vn -0.149453 -0.986548 0.066233
vn -0.149453 -0.986548 0.066233
vn -0.149453 -0.986548 0.066233
vn 0.075927 -0.987017 0.141537
vn 0.075927 -0.987017 0.141537
vn 0.075927 -0.987017 0.141537
vn 0.076206 -0.995803 0.050693
vn 0.076206 -0.995803 0.050693
vn 0.076206 -0.995803 0.050693
vn 0.870952 0.454199 -0.187473
vn 0.870952 0.454199 -0.187473
vn 0.870952 0.454199 -0.187473
vn -0.903060 0.429141 0.017895
vn -0.903060 0.429141 0.017895
vn -0.903060 0.429141 0.017895
vn -0.971449 0.218955 0.091355
vn -0.971449 0.218955 0.091355
vn -0.971449 0.218955 0.091355
vn -0.065365 0.923034 -0.379125
vn -0.065365 0.923034 -0.379125
vn -0.065365 0.923034 -0.379125
vn -0.076367 -0.990161 0.117260
vn -0.076367 -0.990161 0.117260
vn -0.076367 -0.990161 0.117260
vn 0.036474 -0.999251 -0.012898
vn 0.036474 -0.999251 -0.012898
vn 0.036474 -0.999251 -0.012898
vn -0.255485 -0.966433 0.027109
vn -0.255485 -0.966433 0.027109
vn -0.255485 -0.966433 0.027109
vn -0.102689 -0.993736 0.044095
vn -0.102689 -0.993736 0.044095
vn -0.102689 -0.993736 0.044095
vn -0.664172 -0.708563 -0.238356
vn -0.664172 -0.708563 -0.238356
vn -0.664172 -0.708563 -0.238356
vn -0.263220 -0.862123 -0.432965
vn -0.263220 -0.862123 -0.432965
vn -0.263220 -0.862123 -0.432965
vn -0.711287 -0.028153 -0.702338
vn -0.711287 -0.028153 -0.702338
vn -0.711287 -0.028153 -0.702338
vn -0.606936 -0.557579 -0.566334
vn -0.606936 -0.557579 -0.566334
vn -0.606936 -0.557579 -0.566334
vn 0.169027 -0.856948 -0.486898
vn 0.169027 -0.856948 -0.486898
vn 0.169027 -0.856948 -0.486898
vn 0.581040 -0.385012 -0.717048
vn 0.581040 -0.385012 -0.717048
vn 0.581040 -0.385012 -0.717048
vn -0.038793 -0.998885 -0.026909
vn -0.038793 -0.998885 -0.026909
vn -0.038793 -0.998885 -0.026909
vn 0.042973 -0.997952 0.047390
vn 0.042973 -0.997952 0.047390
vn 0.042973 -0.997952 0.047390
vn -0.043957 -0.978064 0.203616
vn -0.043957 -0.978064 0.203616
vn -0.043957 -0.978064 0.203616
vn 0.690891 -0.579228 0.432625
vn 0.690891 -0.579228 0.432625
vn 0.690891 -0.579228 0.432625
vn -0.587451 0.680700 -0.437662
vn -0.587451 0.680700 -0.437662
vn -0.587451 0.680700 -0.437662
vn -0.004402 0.856139 -0.516727
vn -0.004402 0.856139 -0.516727
vn -0.004402 0.856139 -0.516727
vn 0.868131 0.441615 -0.226550
vn 0.868131 0.441615 -0.226550
vn 0.868131 0.441615 -0.226550
vn 0.827736 -0.410300 0.382761
vn 0.827736 -0.410300 0.382761
vn 0.827736 -0.410300 0.382761
vn 0.818409 -0.429701 0.381528
vn 0.818409 -0.429701 0.381528
vn 0.818409 -0.429701 0.381528
vn -0.796238 -0.396225 0.457178
vn -0.796237 -0.396225 0.457178
vn -0.796237 -0.396225 0.457178
vn -0.734491 -0.360309 0.575066
vn -0.734491 -0.360309 0.575066
vn -0.734491 -0.360309 0.575066
vn -0.798187 0.532210 -0.282223
vn -0.798187 0.532210 -0.282223
vn -0.798187 0.532210 -0.282223
vn -0.573402 0.726064 -0.379528
vn -0.573402 0.726064 -0.379528
vn -0.573402 0.726064 -0.379528
vn 0.215140 0.763615 -0.608775
vn 0.215140 0.763615 -0.608775
vn 0.215140 0.763615 -0.608775
vn 0.556281 0.772399 -0.306514
vn 0.556281 0.772399 -0.306514
vn 0.556281 0.772399 -0.306514
vn -0.400723 -0.353488 0.845262
vn -0.400723 -0.353488 0.845262
vn -0.400723 -0.353488 0.845262
vn -0.966716 0.255498 -0.013453
vn -0.966716 0.255498 -0.013453
vn -0.966716 0.255498 -0.013453
vn -0.795191 0.500700 -0.342010
vn -0.795191 0.500700 -0.342010
vn -0.795191 0.500700 -0.342010
vn -0.643638 0.588367 -0.489444
vn -0.643638 0.588367 -0.489444
vn -0.643638 0.588367 -0.489444
vn 0.416846 0.662350 -0.622521
vn 0.416846 0.662350 -0.622521
vn 0.416846 0.662350 -0.622521
vn 0.565622 0.585482 -0.580761
vn 0.565622 0.585482 -0.580761
vn 0.565621 0.585482 -0.580761
vn 0.650375 0.537250 -0.537005
vn 0.650375 0.537250 -0.537005
vn 0.650375 0.537250 -0.537005
vn 0.689803 0.520213 -0.503537
vn 0.689803 0.520213 -0.503537
vn 0.689803 0.520213 -0.503537
vn 0.978801 0.190239 -0.075876
vn 0.978801 0.190239 -0.075876
vn 0.978801 0.190239 -0.075876
vn 0.585222 -0.455929 0.670555
vn 0.585222 -0.455929 0.670555
vn 0.585222 -0.455929 0.670555
vn 0.621427 -0.346852 0.702512
vn 0.621427 -0.346852 0.702512
vn 0.621427 -0.346852 0.702512
vn -0.387321 -0.379854 0.840056
vn -0.387321 -0.379854 0.840056
vn -0.387321 -0.379854 0.840056
vn -0.983238 0.129035 -0.128815
vn -0.983238 0.129035 -0.128815
vn -0.983238 0.129035 -0.128815
vn -0.072642 0.670193 -0.738624
vn -0.072642 0.670193 -0.738624
vn -0.072642 0.670193 -0.738624
vn 0.953720 0.238323 -0.183357
vn 0.953720 0.238323 -0.183357
vn 0.953720 0.238323 -0.183357
vn 0.933261 0.256626 -0.251331
vn 0.933261 0.256626 -0.251331
vn 0.933261 0.256626 -0.251331
vn -0.098494 -0.347080 0.932649
vn -0.098494 -0.347080 0.932649
vn -0.098494 -0.347080 0.932649
vn -0.982845 0.172764 0.064560
vn -0.982845 0.172764 0.064560
vn -0.982845 0.172764 0.064560
vn -0.865259 0.374691 -0.333067
vn -0.865259 0.374691 -0.333067
vn -0.865259 0.374691 -0.333067
vn 0.509999 -0.321297 0.797916
vn 0.509999 -0.321297 0.797916
vn 0.509999 -0.321297 0.797916
vn -0.966265 0.257546 -0.001008
vn -0.966265 0.257546 -0.001008
vn -0.966265 0.257546 -0.001008
vn -0.385263 0.545073 -0.744626
vn -0.385263 0.545073 -0.744626
vn -0.385262 0.545073 -0.744626
vn -0.078088 0.602883 -0.793999
vn -0.078088 0.602883 -0.793999
vn -0.078088 0.602883 -0.793999
vn 0.985058 0.094061 -0.144271
vn 0.985058 0.094061 -0.144271
vn 0.985058 0.094061 -0.144271
vn 0.490474 -0.053754 0.869797
vn 0.490473 -0.053754 0.869797
vn 0.490474 -0.053754 0.869797
vn -0.304373 -0.055748 0.950920
vn -0.304373 -0.055748 0.950920
vn -0.304373 -0.055748 0.950920
vn 0.384422 -0.123012 0.914925
vn 0.384422 -0.123012 0.914925
vn 0.384422 -0.123012 0.914925
vn 0.189840 -0.014677 0.981705
vn 0.189840 -0.014677 0.981705
vn 0.189840 -0.014677 0.981705
vn -0.878012 0.040578 0.476915
vn -0.878012 0.040578 0.476915
vn -0.878012 0.040578 0.476915
vn -0.979533 0.196897 -0.041789
vn -0.979533 0.196897 -0.041789
vn -0.979533 0.196897 -0.041789
vn -0.890982 0.262565 -0.370419
vn -0.890982 0.262565 -0.370419
vn -0.890982 0.262565 -0.370419
vn -0.808008 0.367407 -0.460582
vn -0.808008 0.367407 -0.460582
vn -0.808008 0.367407 -0.460582
vn -0.529578 0.468824 -0.706931
vn -0.529578 0.468824 -0.706931
vn -0.529578 0.468824 -0.706931
vn 0.369650 0.476453 -0.797716
vn 0.369650 0.476453 -0.797716
vn 0.369650 0.476453 -0.797716
vn 0.968709 0.199668 -0.147430
vn 0.968709 0.199668 -0.147430
vn 0.968709 0.199668 -0.147430
vn 0.752026 -0.045498 0.657562
vn 0.752026 -0.045498 0.657561
vn 0.752026 -0.045498 0.657561
vn 0.914001 -0.057186 0.401661
vn 0.914001 -0.057186 0.401661
vn 0.914001 -0.057186 0.401661
vn -0.130914 -0.130969 0.982705
vn -0.130914 -0.130969 0.982705
vn -0.130914 -0.130969 0.982705
vn -0.393275 -0.011220 0.919353
vn -0.393275 -0.011220 0.919353
vn -0.393275 -0.011220 0.919353
vn 0.622976 0.033002 0.781545
vn 0.622976 0.033002 0.781545
vn 0.622976 0.033002 0.781545
vn -0.897849 0.198707 0.392914
vn -0.897850 0.198707 0.392914
vn -0.897850 0.198707 0.392914
vn -0.678500 0.096525 0.728231
vn -0.678500 0.096525 0.728231
vn -0.678500 0.096525 0.728231
vn -0.383362 0.406121 -0.829518
vn -0.383362 0.406120 -0.829518
vn -0.383362 0.406121 -0.829518
vn 0.974336 0.202904 0.097467
vn 0.974336 0.202904 0.097467
vn 0.974336 0.202904 0.097467
vn 0.594531 0.181328 0.783360
vn 0.594531 0.181328 0.783360
vn 0.594531 0.181328 0.783360
vn -0.284254 0.312322 0.906452
vn -0.284254 0.312322 0.906452
vn -0.284254 0.312322 0.906452
vn 0.545755 0.116806 0.829764
vn 0.545755 0.116806 0.829764
vn 0.545755 0.116806 0.829764
vn -0.986253 0.142104 0.084326
vn -0.986253 0.142104 0.084326
vn -0.986253 0.142104 0.084326
vn -0.983729 0.135830 0.117592
vn -0.983729 0.135830 0.117592
vn -0.983729 0.135830 0.117592
vn -0.993870 0.010138 -0.110090
vn -0.993870 0.010138 -0.110090
vn -0.993870 0.010138 -0.110090
vn -0.890003 0.149780 -0.430652
vn -0.890003 0.149780 -0.430652
vn -0.890003 0.149780 -0.430652
vn -0.738757 0.257128 -0.622995
vn -0.738757 0.257128 -0.622995
vn -0.738757 0.257128 -0.622995
vn -0.472721 0.297149 -0.829601
vn -0.472721 0.297149 -0.829601
vn -0.472721 0.297149 -0.829601
vn 0.365141 0.285414 -0.886121
vn 0.365141 0.285414 -0.886121
vn 0.365141 0.285414 -0.886121
vn 0.709615 0.183936 -0.680157
vn 0.709615 0.183936 -0.680157
vn 0.709615 0.183936 -0.680157
vn 0.498691 0.390675 -0.773744
vn 0.498691 0.390675 -0.773744
vn 0.498691 0.390675 -0.773744
vn 0.782928 0.253700 -0.568031
vn 0.782928 0.253700 -0.568031
vn 0.782928 0.253700 -0.568031
vn 0.939065 0.183598 -0.290602
vn 0.939065 0.183598 -0.290602
vn 0.939065 0.183598 -0.290602
vn 0.913303 0.084950 -0.398322
vn 0.913303 0.084950 -0.398322
vn 0.913303 0.084950 -0.398322
vn 0.913303 0.084950 -0.398322
vn 0.999435 0.033335 0.004208
vn 0.999435 0.033335 0.004208
vn 0.999435 0.033335 0.004208
vn 0.402472 -0.252134 0.880025
vn 0.402472 -0.252134 0.880025
vn 0.402473 -0.252134 0.880025
vn 0.156364 -0.340780 0.927049
vn 0.156364 -0.340780 0.927049
vn 0.156364 -0.340780 0.927049
vn -0.937373 -0.145437 0.316512
vn -0.937373 -0.145437 0.316512
vn -0.937373 -0.145437 0.316512
vn -0.450283 0.272001 -0.850447
vn -0.450283 0.272001 -0.850447
vn -0.450283 0.272001 -0.850447
vn 0.275740 0.272027 -0.921938
vn 0.275740 0.272027 -0.921938
vn 0.275740 0.272027 -0.921938
vn -0.055403 0.072154 -0.995854
vn -0.055403 0.072154 -0.995854
vn -0.055403 0.072154 -0.995854
vn 0.977069 -0.127091 0.170836
vn 0.977069 -0.127091 0.170836
vn 0.977069 -0.127091 0.170836
vn 0.980842 -0.145874 0.129110
vn 0.980842 -0.145874 0.129110
vn 0.980842 -0.145874 0.129110
s off
f 1/1/1 60/2/2 54/3/3
f 11/4/4 59/5/5 30/6/6
f 6/7/7 56/8/8 52/9/9
f 7/10/10 55/11/11 51/12/12
f 1/1/13 54/3/14 46/13/15
f 49/14/16 59/5/17 48/15/18
f 5/16/19 58/17/20 69/18/21
f 58/17/22 57/19/23 68/20/24 28/21/25
f 7/22/26 51/23/27 27/24/28
f 47/25/29 51/26/30 46/27/31
f 46/13/32 54/3/33 45/28/34
f 54/3/35 53/29/36 45/28/37
f 50/30/38 49/14/39 44/31/40
f 47/32/41 46/33/42 39/34/43
f 46/13/44 45/28/45 25/35/46
f 43/36/47 50/30/48 42/37/49
f 48/15/50 69/18/51 66/38/52
f 28/21/53 68/20/54 66/38/55
f 42/37/56 44/31/57 38/39/58
f 8/40/59 41/41/60 23/42/61
f 41/41/62 40/43/63 23/42/64
f 25/44/65 9/45/66 37/46/67
f 43/47/68 42/48/69 35/49/70
f 40/50/71 39/51/72 20/52/73
f 37/53/74 9/54/75 36/55/76
f 37/56/77 36/57/78 10/58/79
f 36/59/80 35/60/81 64/61/82
f 21/62/83 24/63/84 32/64/85
f 65/65/86 63/66/87 32/67/88
f 21/68/89 32/69/90 62/70/91
f 10/71/92 61/72/93 63/73/94
f 10/74/95 18/75/96 61/76/97
f 34/77/98 64/78/99 18/79/100
f 64/80/101 62/81/102 17/82/103
f 2/83/104 60/84/105 14/85/106
f 3/86/107 2/83/108 14/85/109
f 6/87/110 57/88/111 13/89/112
f 7/90/113 56/91/114 15/92/115
f 1/93/116 55/94/117 15/92/118
f 18/95/119 17/96/120 12/97/121
f 31/98/122 16/99/123 19/100/124
f 12/101/125 16/102/126 31/103/127
f 12/104/128 17/105/129 16/106/130
f 15/92/131 55/94/132 7/90/133
f 15/92/134 13/89/135 11/107/136
f 13/89/137 56/91/138 6/87/139
f 15/92/140 56/91/141 13/89/142
f 13/89/143 57/88/144 58/108/145
f 13/89/146 59/109/147 11/107/148
f 59/109/149 58/108/150 5/110/151
f 13/89/152 58/108/153 59/109/154
f 4/111/155 14/85/156 11/107/157
f 4/111/158 3/86/159 14/85/160
f 14/85/161 15/92/162 11/107/163
f 14/85/164 60/84/165 15/92/166
f 15/92/167 60/84/168 1/93/169
f 12/112/170 31/113/171 18/114/172
f 16/115/173 62/116/174 19/117/175
f 17/118/176 62/119/177 16/120/178
f 64/121/179 17/122/180 18/123/181
f 34/124/182 18/125/183 10/126/184
f 61/127/185 18/128/186 31/129/187
f 19/130/188 61/131/189 31/132/190
f 63/133/191 61/134/192 19/135/193
f 19/136/194 32/137/195 63/138/196
f 62/139/197 32/140/198 19/141/199
f 62/142/200 33/143/201 21/144/202
f 33/145/203 62/146/204 64/147/205
f 63/148/206 20/149/207 10/150/208
f 20/151/209 63/152/210 22/153/211
f 63/154/212 65/155/213 22/156/214
f 32/157/215 24/158/216 65/159/217
f 33/160/218 38/161/219 21/162/220
f 42/163/221 38/164/222 33/165/223
f 33/166/224 35/167/225 42/168/226
f 35/169/227 33/170/228 64/171/229
f 36/172/230 64/173/231 34/174/232
f 10/175/233 36/176/234 34/177/235
f 39/178/236 37/179/237 10/180/238
f 20/181/239 39/182/240 10/183/241
f 20/184/242 22/185/243 23/186/244
f 21/187/245 38/188/246 24/189/247
f 9/190/248 35/191/249 36/192/250
f 9/193/251 43/194/252 35/195/253
f 20/196/254 23/197/255 40/198/256
f 22/199/257 66/200/258 23/201/259
f 22/202/260 65/203/261 66/204/262
f 37/205/263 39/206/264 25/207/265
f 23/42/266 66/38/267 8/40/268
f 24/208/269 44/209/270 65/210/271
f 38/211/272 44/212/273 24/213/274
f 67/214/275 43/215/276 9/216/277
f 25/217/278 39/218/279 46/219/280
f 27/220/281 39/221/282 40/222/283
f 40/43/284 26/223/285 27/224/286
f 26/223/287 40/43/288 41/41/289
f 41/41/290 8/40/291 26/223/292
f 8/40/293 66/38/294 68/20/295
f 66/38/296 69/18/297 28/21/298
f 48/225/299 66/226/300 65/227/301
f 44/228/302 48/229/303 65/230/304
f 50/30/305 44/31/306 42/37/307
f 71/231/308 43/36/309 67/232/310
f 71/231/311 67/232/312 45/28/313
f 45/233/314 67/234/315 9/235/316
f 25/236/317 45/237/318 9/238/319
f 27/239/320 47/240/321 39/241/322
f 26/223/323 29/242/324 27/224/325
f 26/223/326 52/9/327 29/242/328
f 8/40/329 52/9/330 26/223/331
f 49/14/332 48/15/333 44/31/334
f 45/28/335 53/29/336 71/231/337
f 46/243/338 51/244/339 1/245/340
f 27/246/341 51/247/342 47/248/343
f 27/224/344 29/242/345 7/249/346
f 6/7/347 52/9/348 8/40/349
f 68/20/350 6/7/351 8/40/352
f 6/7/353 68/20/354 57/19/355
f 28/21/356 69/18/357 58/17/358
f 5/16/359 69/18/360 48/15/361
f 48/15/362 59/5/363 5/16/364
f 4/250/365 49/14/366 50/30/367
f 50/30/368 70/251/369 4/250/370
f 4/250/371 70/251/372 3/252/373
f 70/251/374 50/30/375 43/36/376
f 71/231/377 70/251/378 43/36/379
f 70/251/380 71/231/381 2/253/382 3/252/383
f 71/231/384 53/29/385 2/253/386
f 51/254/387 55/255/388 1/256/389
f 29/242/390 56/8/391 7/249/392
f 52/9/393 56/8/394 29/242/395
f 30/6/396 59/5/397 49/14/398
f 4/250/399 30/6/400 49/14/401
f 30/6/402 4/250/403 11/4/404
f 53/29/405 60/2/406 2/253/407
f 54/3/408 60/2/409 53/29/410
