# This file uses centimeters as units for non-parametric coordinates.

v 0.005569 0.780068 -0.006299
v -0.006632 0.780068 -0.006299
v -0.012733 0.780068 0.004268
v -0.006632 0.780068 0.014836
v 0.005569 0.780068 0.014836
v 0.011671 0.780068 0.004268
v 0.145238 1.641096 -0.250667
v -0.145237 1.641096 -0.250667
v -0.290476 1.641096 0.000892
v -0.145237 1.641096 0.252451
v 0.145238 1.641096 0.252451
v 0.290476 1.641096 0.000892
v -0.000531 0.780037 0.004268
v 0.000000 1.800722 0.000892
v -0.108038 1.470513 0.161519
v -0.212089 1.470513 -0.018703
v -0.108038 1.470513 -0.198928
v 0.100067 1.470513 -0.198928
v 0.204119 1.470513 -0.018703
v 0.100067 1.470513 0.161519
v -0.089268 1.337583 0.140031
v -0.166397 1.337583 0.006442
v -0.089268 1.337583 -0.127149
v 0.064989 1.337583 -0.127149
v 0.142118 1.337583 0.006442
v 0.064989 1.337583 0.140031
v -0.052081 1.163309 0.118517
v -0.093519 1.129347 0.014055
v -0.050284 1.157156 -0.101873
v 0.068313 1.157156 -0.101873
v 0.143676 1.129347 0.014055
v 0.066516 1.163309 0.118517
v -0.056588 0.780402 0.051370
v -0.100142 0.780402 -0.024067
v -0.056588 0.780402 -0.099504
v 0.030517 0.780402 -0.099504
v 0.074071 0.780402 -0.024067
v 0.030517 0.780402 0.051370
v -0.145827 -0.060954 -0.251689
v 0.145828 -0.060954 -0.251689
v 0.291654 -0.060954 0.000892
v 0.145828 -0.060954 0.253472
v -0.145827 -0.060954 0.253472
v -0.291654 -0.060954 0.000892
v 0.000000 -0.220580 0.000892
v 0.110183 0.109629 0.165236
v 0.216379 0.109629 -0.018703
v 0.110183 0.109629 -0.202644
v -0.102212 0.109629 -0.202644
v -0.208409 0.109629 -0.018703
v -0.102212 0.109629 0.165236
v 0.089268 0.280212 0.140031
v 0.166397 0.280212 0.006442
v 0.089268 0.280212 -0.127149
v -0.064989 0.280212 -0.127149
v -0.142118 0.280212 0.006442
v -0.064989 0.280212 0.140031
v 0.092972 0.420987 0.114652
v 0.152272 0.420987 0.011944
v 0.074899 0.450796 -0.088653
v -0.045822 0.420614 -0.094071
v -0.105121 0.420614 0.008637
v -0.043699 0.450796 0.116763
v 0.067442 0.473329 0.104543
v 0.120934 0.473329 0.011892
v 0.067442 0.473329 -0.080760
v -0.039542 0.473329 -0.080760
v -0.093034 0.473329 0.011892
v -0.039542 0.473329 0.104543
v 0.076586 1.091533 0.101845
v -0.029066 1.091533 0.101845
v -0.081892 1.091533 0.010348
v -0.029066 1.091533 -0.081149
v 0.076586 1.091533 -0.081149
v 0.129412 1.091533 0.010348
v 0.129599 1.550280 0.217795
v -0.132906 1.550280 0.217795
v -0.264159 1.550280 -0.009541
v -0.132906 1.550280 -0.236878
v 0.129599 1.550280 -0.236878
v 0.260852 1.550280 -0.009541
v 0.143201 0.015048 0.237795
v 0.285018 0.015048 -0.007840
v 0.143201 0.015048 -0.253473
v -0.140433 0.015048 -0.253473
v -0.282251 0.015048 -0.007840
v -0.140433 0.015048 0.237795
v 0.055539 0.944635 0.064673
v -0.041357 0.944635 0.064673
v -0.089804 0.944635 -0.019241
v -0.041357 0.944635 -0.103154
v 0.055539 0.944635 -0.103154
v 0.103986 0.944635 -0.019241
v 0.051568 0.640689 0.101248
v 0.099643 0.640689 0.017980
v 0.051568 0.640689 -0.065289
v -0.044583 0.640689 -0.065289
v -0.092657 0.640689 0.017980
v -0.044583 0.640689 0.101248
vt 0.214591 0.281331
vt 0.214591 0.281331
vt 0.214591 0.281331
vt 0.214591 0.281331
vt 0.214591 0.281331
vt 0.214591 0.281331
vt 0.214591 0.281331
vt 0.214591 0.281331
vt 0.214591 0.281331
vt 0.214591 0.281331
vt 0.214591 0.281331
vt 0.214591 0.281331
vt 0.214591 0.281331
vt 0.214591 0.281331
vt 0.214591 0.281331
vt 0.214591 0.281331
vt 0.214591 0.281331
vt 0.214591 0.281331
vt 0.214591 0.281331
vt 0.214591 0.281331
vt 0.214591 0.281331
vt 0.214591 0.281331
vt 0.214591 0.281331
vt 0.214591 0.281331
vt 0.214591 0.281331
vt 0.214591 0.281331
vt 0.214591 0.281331
vt 0.214591 0.281331
vt 0.214591 0.281331
vt 0.214591 0.281331
vt 0.214591 0.281331
vt 0.214591 0.281331
vt 0.214591 0.281331
vt 0.214591 0.281331
vt 0.214591 0.281331
vt 0.214591 0.281331
vt 0.214591 0.281331
vt 0.214591 0.281331
vt 0.214591 0.281331
vt 0.214591 0.281331
vt 0.214591 0.281331
vt 0.214591 0.281331
vt 0.214591 0.281331
vt 0.214591 0.281331
vt 0.214591 0.281331
vt 0.214591 0.281331
vt 0.214591 0.281331
vt 0.214591 0.281331
vt 0.214591 0.281331
vt 0.214591 0.281331
vt 0.214591 0.281331
vt 0.214591 0.281331
vt 0.214591 0.281331
vt 0.214591 0.281331
vt 0.214591 0.281331
vt 0.214591 0.281331
vt 0.214591 0.281331
vt 0.214591 0.281331
vt 0.214591 0.281331
vt 0.214591 0.281331
vt 0.214591 0.281331
vt 0.214591 0.281331
vt 0.214591 0.281331
vt 0.214591 0.281331
vt 0.214591 0.281331
vt 0.214591 0.281331
vt 0.214591 0.281331
vt 0.214591 0.281331
vt 0.214591 0.281331
vt 0.214591 0.281331
vt 0.214591 0.281331
vt 0.214591 0.281331
vt 0.214591 0.281331
vt 0.214591 0.281331
vt 0.214591 0.281331
vt 0.214591 0.281331
vt 0.214591 0.281331
vt 0.214591 0.281331
vt 0.214591 0.281331
vt 0.214591 0.281331
vt 0.214591 0.281331
vt 0.214591 0.281331
vt 0.214591 0.281331
vt 0.214591 0.281331
vt 0.214591 0.281331
vt 0.214591 0.281331
vt 0.214591 0.281331
vt 0.214591 0.281331
vt 0.214591 0.281331
vt 0.214591 0.281331
vt 0.214591 0.281331
vt 0.214591 0.281331
vt 0.214591 0.281331
vt 0.214591 0.281331
vt 0.214591 0.281331
vt 0.214591 0.281331
vt 0.214591 0.281331
vt 0.214591 0.281331
vt 0.214591 0.281331
vt 0.214591 0.281331
vt 0.214591 0.281331
vt 0.214591 0.281331
vt 0.214591 0.281331
vt 0.214591 0.281331
vt 0.214591 0.281331
vt 0.214591 0.281331
vt 0.214591 0.281331
vt 0.214591 0.281331
vt 0.214591 0.281331
vt 0.214591 0.281331
vt 0.214591 0.281331
vt 0.214591 0.281331
vt 0.214591 0.281331
vt 0.214591 0.281331
vt 0.214591 0.281331
vt 0.214591 0.281331
vt 0.214591 0.281331
vt 0.214591 0.281331
vt 0.214591 0.281331
vt 0.214591 0.281331
vt 0.214591 0.281331
vt 0.214591 0.281331
vt 0.214591 0.281331
vt 0.214591 0.281331
vt 0.214591 0.281331
vt 0.214591 0.281331
vt 0.214591 0.281331
vt 0.214591 0.281331
vt 0.214591 0.281331
vt 0.214591 0.281331
vt 0.214591 0.281331
vt 0.214591 0.281331
vt 0.214591 0.281331
vn 0.000000 -0.999996 -0.002868
vn 0.000000 -0.999996 -0.002868
vn 0.000000 -0.999996 -0.002868
vn -0.002482 -0.999996 -0.001445
vn -0.002482 -0.999996 -0.001445
vn -0.002482 -0.999996 -0.001445
vn -0.002482 -0.999996 0.001437
vn -0.002482 -0.999996 0.001437
vn -0.002482 -0.999996 0.001437
vn 0.000000 -0.999996 0.002867
vn 0.000000 -0.999996 0.002867
vn 0.000000 -0.999996 0.002867
vn 0.002481 -0.999996 0.001430
vn 0.002481 -0.999996 0.001430
vn 0.002481 -0.999996 0.001430
vn 0.002481 -0.999996 -0.001437
vn 0.002481 -0.999996 -0.001437
vn 0.002481 -0.999996 -0.001437
vn 0.000000 0.844356 -0.535782
vn 0.000000 0.844356 -0.535782
vn 0.000000 0.844356 -0.535782
vn -0.464001 0.844356 -0.267892
vn -0.464001 0.844356 -0.267892
vn -0.464001 0.844356 -0.267892
vn -0.464001 0.844356 0.267892
vn -0.464001 0.844356 0.267892
vn -0.464001 0.844356 0.267892
vn 0.000000 0.844356 0.535782
vn 0.000000 0.844356 0.535782
vn 0.000000 0.844356 0.535782
vn 0.464001 0.844356 0.267891
vn 0.464001 0.844356 0.267891
vn 0.464001 0.844356 0.267891
vn 0.464001 0.844356 -0.267891
vn 0.464001 0.844356 -0.267891
vn 0.464001 0.844356 -0.267891
vn -0.735131 -0.528625 0.424427
vn -0.735131 -0.528625 0.424427
vn -0.735131 -0.528625 0.424427
vn -0.735131 -0.528625 0.424427
vn -0.772147 -0.452828 -0.445797
vn -0.772147 -0.452828 -0.445797
vn -0.772147 -0.452828 -0.445797
vn -0.772147 -0.452828 -0.445797
vn 0.000000 -0.429620 -0.903010
vn 0.000000 -0.429620 -0.903010
vn 0.000000 -0.429620 -0.903010
vn 0.000000 -0.429620 -0.903010
vn 0.756090 -0.487618 -0.436528
vn 0.756090 -0.487618 -0.436528
vn 0.756090 -0.487618 -0.436528
vn 0.756090 -0.487618 -0.436528
vn 0.718341 -0.558552 0.414736
vn 0.718341 -0.558552 0.414736
vn 0.718341 -0.558552 0.414736
vn 0.718341 -0.558552 0.414736
vn 0.000000 -0.576480 0.817111
vn 0.000000 -0.576480 0.817111
vn 0.000000 -0.576480 0.817111
vn 0.000000 -0.576480 0.817111
vn -0.848696 -0.199039 0.489999
vn -0.848696 -0.199039 0.489999
vn -0.848696 -0.199039 0.489999
vn -0.848696 -0.199039 0.489999
vn -0.806217 -0.365177 -0.465468
vn -0.806217 -0.365177 -0.465468
vn -0.806217 -0.365177 -0.465468
vn -0.806217 -0.365177 -0.465468
vn 0.000000 -0.475132 -0.879915
vn 0.000000 -0.475132 -0.879915
vn 0.000000 -0.475132 -0.879915
vn 0.000000 -0.475132 -0.879915
vn 0.775056 -0.446150 -0.447480
vn 0.775056 -0.446150 -0.447480
vn 0.775056 -0.446150 -0.447480
vn 0.775056 -0.446150 -0.447480
vn 0.827340 -0.295532 0.477671
vn 0.827340 -0.295532 0.477671
vn 0.827340 -0.295532 0.477671
vn 0.827340 -0.295532 0.477671
vn 0.000000 -0.159576 0.987186
vn 0.000000 -0.159576 0.987186
vn 0.000000 -0.159576 0.987186
vn 0.000000 -0.159576 0.987186
vn -0.848734 -0.260936 0.459959
vn -0.848734 -0.260936 0.459959
vn -0.848734 -0.260936 0.459959
vn -0.848734 -0.260936 0.459959
vn -0.851318 -0.282435 -0.442140
vn -0.851318 -0.282435 -0.442140
vn -0.851318 -0.282435 -0.442140
vn -0.851318 -0.282435 -0.442140
vn 0.000000 -0.138735 -0.990330
vn 0.000000 -0.138735 -0.990330
vn 0.000000 -0.138735 -0.990330
vn 0.000000 -0.138735 -0.990330
vn 0.851113 -0.033643 -0.523904
vn 0.851113 -0.033643 -0.523904
vn 0.851113 -0.033643 -0.523904
vn 0.851113 -0.033643 -0.523904
vn 0.838235 -0.013054 0.545153
vn 0.838235 -0.013054 0.545153
vn 0.838235 -0.013054 0.545153
vn 0.838235 -0.013054 0.545153
vn 0.000000 -0.122524 0.992466
vn 0.000000 -0.122524 0.992466
vn 0.000000 -0.122524 0.992466
vn 0.000000 -0.122524 0.992466
vn -0.865339 0.039786 0.499605
vn -0.865339 0.039786 0.499605
vn -0.865339 0.039786 0.499605
vn -0.865339 0.039786 0.499605
vn -0.863959 0.069039 -0.498808
vn -0.863959 0.069039 -0.498808
vn -0.863959 0.069039 -0.498808
vn -0.863959 0.069039 -0.498808
vn 0.000000 -0.022224 -0.999753
vn 0.000000 -0.022224 -0.999753
vn 0.000000 -0.022224 -0.999753
vn 0.000000 -0.022224 -0.999753
vn 0.857297 -0.141615 -0.494962
vn 0.857297 -0.141615 -0.494962
vn 0.857297 -0.141615 -0.494962
vn 0.857297 -0.141615 -0.494962
vn 0.853429 -0.169935 0.492728
vn 0.853429 -0.169935 0.492728
vn 0.853429 -0.169935 0.492728
vn 0.853429 -0.169935 0.492728
vn 0.000000 -0.080738 0.996735
vn 0.000000 -0.080738 0.996735
vn 0.000000 -0.080738 0.996735
vn 0.000000 -0.080738 0.996735
vn 0.000000 -0.845336 -0.534236
vn 0.000000 -0.845335 -0.534236
vn 0.000000 -0.845336 -0.534236
vn 0.462663 -0.845335 -0.267117
vn 0.462663 -0.845335 -0.267117
vn 0.462663 -0.845335 -0.267117
vn 0.462663 -0.845335 0.267117
vn 0.462663 -0.845335 0.267117
vn 0.462663 -0.845335 0.267117
vn 0.000000 -0.845335 0.534236
vn 0.000000 -0.845336 0.534236
vn 0.000000 -0.845336 0.534236
vn -0.462663 -0.845335 0.267119
vn -0.462663 -0.845335 0.267119
vn -0.462663 -0.845335 0.267119
vn -0.462663 -0.845335 -0.267119
vn -0.462663 -0.845335 -0.267119
vn -0.462663 -0.845335 -0.267119
vn 0.714172 0.565639 0.412325
vn 0.714172 0.565639 0.412325
vn 0.714172 0.565639 0.412325
vn 0.714172 0.565639 0.412325
vn 0.752047 0.495887 -0.434192
vn 0.752047 0.495886 -0.434192
vn 0.752047 0.495887 -0.434192
vn 0.752047 0.495887 -0.434192
vn 0.000000 0.473384 -0.880856
vn 0.000000 0.473384 -0.880856
vn 0.000000 0.473384 -0.880856
vn 0.000000 0.473384 -0.880856
vn -0.736472 0.526129 -0.425202
vn -0.736472 0.526129 -0.425202
vn -0.736472 0.526129 -0.425202
vn -0.736472 0.526129 -0.425202
vn -0.698296 0.591477 0.403161
vn -0.698296 0.591477 0.403161
vn -0.698296 0.591477 0.403161
vn -0.698296 0.591477 0.403161
vn 0.000000 0.608683 0.793414
vn 0.000000 0.608683 0.793414
vn 0.000000 0.608683 0.793414
vn 0.000000 0.608683 0.793414
vn 0.852319 0.177205 0.492087
vn 0.852319 0.177205 0.492087
vn 0.852319 0.177205 0.492087
vn 0.852319 0.177205 0.492088
vn 0.823024 0.311203 -0.475168
vn 0.823024 0.311203 -0.475168
vn 0.823024 0.311203 -0.475168
vn 0.823024 0.311203 -0.475168
vn 0.000000 0.404708 -0.914446
vn 0.000000 0.404708 -0.914446
vn 0.000000 0.404708 -0.914446
vn 0.000000 0.404708 -0.914446
vn -0.801220 0.379559 -0.462582
vn -0.801220 0.379559 -0.462582
vn -0.801220 0.379559 -0.462582
vn -0.801220 0.379559 -0.462582
vn -0.837573 0.254214 0.483577
vn -0.837573 0.254214 0.483577
vn -0.837573 0.254214 0.483577
vn -0.837573 0.254214 0.483577
vn 0.000000 0.146166 0.989260
vn 0.000000 0.146166 0.989260
vn 0.000000 0.146166 0.989260
vn 0.000000 0.146166 0.989260
vn 0.864064 0.067203 0.498876
vn 0.864064 0.067203 0.498876
vn 0.864064 0.067203 0.498876
vn 0.864064 0.067203 0.498876
vn 0.833844 0.151324 -0.530853
vn 0.833844 0.151324 -0.530853
vn 0.833844 0.151324 -0.530853
vn 0.833844 0.151324 -0.530853
vn -0.005426 0.224363 -0.974491
vn -0.005426 0.224363 -0.974491
vn -0.005426 0.224363 -0.974491
vn -0.005426 0.224363 -0.974491
vn -0.842865 0.229710 -0.486633
vn -0.842865 0.229710 -0.486633
vn -0.842865 0.229710 -0.486633
vn -0.842865 0.229710 -0.486633
vn -0.861438 0.193282 0.469646
vn -0.861438 0.193282 0.469646
vn -0.861438 0.193282 0.469646
vn -0.861438 0.193282 0.469646
vn 0.022799 0.152542 0.988034
vn 0.022799 0.152542 0.988034
vn 0.022799 0.152542 0.988034
vn 0.022799 0.152542 0.988034
vn 0.827427 0.295217 0.477715
vn 0.827427 0.295217 0.477715
vn 0.827427 0.295217 0.477715
vn 0.827427 0.295217 0.477715
vn 0.865998 0.008040 -0.499984
vn 0.865998 0.008040 -0.499984
vn 0.865998 0.008040 -0.499984
vn 0.865998 0.008040 -0.499984
vn 0.000000 -0.237866 -0.971298
vn 0.000000 -0.237866 -0.971298
vn 0.000000 -0.237866 -0.971298
vn 0.000000 -0.237866 -0.971298
vn -0.849716 -0.193158 -0.490584
vn -0.849716 -0.193158 -0.490584
vn -0.849716 -0.193158 -0.490584
vn -0.849716 -0.193158 -0.490584
vn -0.861372 0.103524 0.497313
vn -0.861372 0.103524 0.497313
vn -0.861372 0.103524 0.497313
vn -0.861372 0.103524 0.497313
vn 0.000000 0.336220 0.941784
vn 0.000000 0.336220 0.941784
vn 0.000000 0.336219 0.941784
vn 0.000000 0.336220 0.941784
vn 0.768672 0.460642 0.443793
vn 0.768672 0.460642 0.443793
vn 0.768672 0.460642 0.443793
vn 0.768672 0.460642 0.443793
vn 0.771177 0.447030 -0.453267
vn 0.771177 0.447030 -0.453267
vn 0.771177 0.447030 -0.453267
vn 0.771177 0.447030 -0.453267
vn -0.013021 0.271009 -0.962489
vn -0.013021 0.271009 -0.962489
vn -0.013021 0.271009 -0.962489
vn -0.013021 0.271009 -0.962489
vn -0.844096 0.223626 -0.487334
vn -0.844096 0.223626 -0.487334
vn -0.844096 0.223626 -0.487334
vn -0.844096 0.223625 -0.487334
vn -0.857746 0.239366 0.454945
vn -0.857746 0.239366 0.454945
vn -0.857746 0.239366 0.454945
vn -0.857746 0.239366 0.454945
vn 0.044621 0.297178 0.953779
vn 0.044621 0.297178 0.953779
vn 0.044621 0.297178 0.953779
vn 0.044621 0.297178 0.953779
vn 0.000000 -0.226252 0.974069
vn 0.000000 -0.226252 0.974069
vn 0.000000 -0.226252 0.974069
vn 0.000000 -0.226252 0.974069
vn -0.821397 -0.344212 0.454780
vn -0.821397 -0.344212 0.454780
vn -0.821397 -0.344212 0.454780
vn -0.821397 -0.344212 0.454780
vn -0.836398 -0.336734 -0.432490
vn -0.836398 -0.336734 -0.432490
vn -0.836398 -0.336734 -0.432490
vn -0.836398 -0.336734 -0.432490
vn 0.000000 -0.301147 -0.953578
vn 0.000000 -0.301147 -0.953578
vn 0.000000 -0.301147 -0.953578
vn 0.000000 -0.301147 -0.953578
vn 0.834470 -0.136182 -0.533961
vn 0.834470 -0.136183 -0.533961
vn 0.834470 -0.136182 -0.533961
vn 0.834470 -0.136182 -0.533961
vn 0.814560 -0.136037 0.563903
vn 0.814560 -0.136037 0.563902
vn 0.814560 -0.136037 0.563903
vn 0.814560 -0.136037 0.563903
vn 0.000000 -0.356525 0.934286
vn 0.000000 -0.356525 0.934286
vn 0.000000 -0.356525 0.934286
vn 0.000000 -0.356525 0.934286
vn -0.827565 -0.294697 0.477796
vn -0.827565 -0.294697 0.477796
vn -0.827565 -0.294697 0.477796
vn -0.827565 -0.294697 0.477796
vn -0.850252 -0.189986 -0.490894
vn -0.850252 -0.189986 -0.490894
vn -0.850252 -0.189986 -0.490894
vn -0.850252 -0.189986 -0.490894
vn 0.000000 -0.150118 -0.988668
vn 0.000000 -0.150118 -0.988668
vn 0.000000 -0.150118 -0.988668
vn 0.000000 -0.150118 -0.988668
vn 0.844894 -0.219558 -0.487799
vn 0.844894 -0.219558 -0.487799
vn 0.844894 -0.219558 -0.487799
vn 0.844894 -0.219558 -0.487799
vn 0.819947 -0.321845 0.473395
vn 0.819947 -0.321845 0.473395
vn 0.819947 -0.321845 0.473395
vn 0.819947 -0.321845 0.473395
vn 0.858460 0.131900 0.495630
vn 0.858460 0.131900 0.495631
vn 0.858460 0.131900 0.495630
vn 0.858460 0.131900 0.495630
vn 0.865882 0.018176 -0.499918
vn 0.865882 0.018176 -0.499918
vn 0.865882 0.018176 -0.499918
vn 0.865882 0.018176 -0.499918
vn 0.000000 -0.023477 -0.999724
vn 0.000000 -0.023477 -0.999724
vn 0.000000 -0.023477 -0.999724
vn 0.000000 -0.023477 -0.999724
vn -0.864956 0.049651 -0.499385
vn -0.864956 0.049651 -0.499385
vn -0.864956 0.049651 -0.499385
vn -0.864956 0.049651 -0.499385
vn -0.854527 0.162410 0.493362
vn -0.854527 0.162410 0.493362
vn -0.854527 0.162410 0.493362
vn -0.854527 0.162410 0.493362
vn 0.000000 0.202018 0.979382
vn 0.000000 0.202018 0.979382
vn 0.000000 0.202018 0.979382
vn 0.000000 0.202018 0.979382
vn 0.000000 -0.245314 0.969444
vn 0.000000 -0.245314 0.969444
vn 0.000000 -0.245314 0.969444
vn 0.000000 -0.245314 0.969444
vn -0.864762 -0.053987 0.499271
vn -0.864762 -0.053987 0.499271
vn -0.864762 -0.053987 0.499271
vn -0.864762 -0.053987 0.499271
vn -0.856773 0.145784 -0.494659
vn -0.856773 0.145784 -0.494659
vn -0.856773 0.145784 -0.494659
vn -0.856773 0.145784 -0.494659
vn 0.000000 0.148149 -0.988965
vn 0.000000 0.148149 -0.988965
vn 0.000000 0.148149 -0.988965
vn 0.000000 0.148149 -0.988965
vn 0.864980 -0.049121 -0.499397
vn 0.864980 -0.049121 -0.499397
vn 0.864980 -0.049121 -0.499397
vn 0.864980 -0.049121 -0.499397
vn 0.840048 -0.243088 0.485003
vn 0.840048 -0.243088 0.485003
vn 0.840048 -0.243088 0.485003
vn 0.840048 -0.243088 0.485003
vn 0.862387 0.091600 0.497894
vn 0.862387 0.091600 0.497894
vn 0.862387 0.091600 0.497894
vn 0.862387 0.091600 0.497894
vn 0.858982 0.127317 -0.495923
vn 0.858982 0.127317 -0.495923
vn 0.858982 0.127317 -0.495923
vn 0.858982 0.127317 -0.495923
vn 0.000000 0.092054 -0.995754
vn 0.000000 0.092054 -0.995754
vn 0.000000 0.092054 -0.995754
vn 0.000000 0.092054 -0.995754
vn -0.865854 0.020133 -0.499891
vn -0.865854 0.020133 -0.499891
vn -0.865854 0.020133 -0.499891
vn -0.865854 0.020133 -0.499891
vn -0.865913 -0.016236 0.499930
vn -0.865913 -0.016236 0.499930
vn -0.865913 -0.016236 0.499930
vn -0.865913 -0.016236 0.499930
vn 0.000000 0.019686 0.999806
vn 0.000000 0.019686 0.999806
vn 0.000000 0.019686 0.999806
vn 0.000000 0.019686 0.999806
s off
f 2/2/1 1/1/2 13/20/3
f 3/3/4 2/2/5 13/20/6
f 4/4/7 3/3/8 13/20/9
f 5/5/10 4/4/11 13/20/12
f 6/6/13 5/5/14 13/20/15
f 1/1/16 6/6/17 13/20/18
f 7/18/19 8/17/20 14/21/21
f 8/17/22 9/16/23 14/21/24
f 9/16/25 10/15/26 14/21/27
f 10/15/28 11/14/29 14/21/30
f 11/14/31 12/19/32 14/21/33
f 12/19/34 7/18/35 14/21/36
f 16/23/37 15/22/38 77/107/39 78/108/40
f 17/24/41 16/23/42 78/108/43 79/109/44
f 18/26/45 17/24/46 79/109/47 80/111/48
f 19/27/49 18/25/50 80/110/51 81/112/52
f 20/28/53 19/27/54 81/112/55 76/106/56
f 15/22/57 20/28/58 76/106/59 77/107/60
f 22/30/61 21/29/62 15/22/63 16/23/64
f 23/31/65 22/30/66 16/23/67 17/24/68
f 24/33/69 23/31/70 17/24/71 18/26/72
f 25/34/73 24/32/74 18/25/75 19/27/76
f 26/35/77 25/34/78 19/27/79 20/28/80
f 21/29/81 26/35/82 20/28/83 15/22/84
f 28/37/85 27/36/86 21/29/87 22/30/88
f 29/38/89 28/37/90 22/30/91 23/31/92
f 30/40/93 29/38/94 23/31/95 24/33/96
f 31/41/97 30/39/98 24/32/99 25/34/100
f 32/42/101 31/41/102 25/34/103 26/35/104
f 27/36/105 32/42/106 26/35/107 21/29/108
f 34/44/109 33/43/110 89/121/111 90/122/112
f 35/45/113 34/44/114 90/122/115 91/123/116
f 36/47/117 35/45/118 91/123/119 92/125/120
f 37/48/121 36/46/122 92/124/123 93/126/124
f 38/49/125 37/48/126 93/126/127 88/120/128
f 33/43/129 38/49/130 88/120/131 89/121/132
f 39/50/133 40/51/134 45/52/135
f 40/51/136 41/53/137 45/52/138
f 41/53/139 42/54/140 45/52/141
f 42/54/142 43/55/143 45/52/144
f 43/55/145 44/56/146 45/52/147
f 44/56/148 39/50/149 45/52/150
f 47/57/151 46/58/152 82/113/153 83/114/154
f 48/61/155 47/57/156 83/114/157 84/115/158
f 49/63/159 48/61/160 84/115/161 85/117/162
f 50/65/163 49/66/164 85/116/165 86/118/166
f 51/69/167 50/65/168 86/118/169 87/119/170
f 46/58/171 51/69/172 87/119/173 82/113/174
f 53/71/175 52/72/176 46/58/177 47/57/178
f 54/73/179 53/71/180 47/57/181 48/61/182
f 55/74/183 54/73/184 48/61/185 49/63/186
f 56/75/187 55/76/188 49/66/189 50/65/190
f 57/77/191 56/75/192 50/65/193 51/69/194
f 52/72/195 57/77/196 51/69/197 46/58/198
f 59/78/199 58/79/200 52/72/201 53/71/202
f 60/80/203 59/78/204 53/71/205 54/73/206
f 61/81/207 60/80/208 54/73/209 55/74/210
f 62/82/211 61/83/212 55/76/213 56/75/214
f 63/84/215 62/82/216 56/75/217 57/77/218
f 58/79/219 63/84/220 57/77/221 52/72/222
f 37/85/223 38/86/224 94/127/225 95/128/226
f 36/87/227 37/85/228 95/128/229 96/129/230
f 35/88/231 36/87/232 96/129/233 97/131/234
f 34/89/235 35/90/236 97/130/237 98/132/238
f 33/91/239 34/89/240 98/132/241 99/133/242
f 38/86/243 33/91/244 99/133/245 94/127/246
f 65/93/247 64/92/248 58/79/249 59/78/250
f 66/94/251 65/93/252 59/78/253 60/80/254
f 67/96/255 66/94/256 60/80/257 61/81/258
f 68/97/259 67/95/260 61/83/261 62/82/262
f 69/98/263 68/97/264 62/82/265 63/84/266
f 64/92/267 69/98/268 63/84/269 58/79/270
f 71/100/271 70/99/272 32/42/273 27/36/274
f 72/101/275 71/100/276 27/36/277 28/37/278
f 73/102/279 72/101/280 28/37/281 29/38/282
f 74/104/283 73/102/284 29/38/285 30/40/286
f 75/105/287 74/103/288 30/39/289 31/41/290
f 70/99/291 75/105/292 31/41/293 32/42/294
f 77/107/295 76/106/296 11/11/297 10/10/298
f 78/108/299 77/107/300 10/10/301 9/9/302
f 79/109/303 78/108/304 9/9/305 8/8/306
f 80/111/307 79/109/308 8/8/309 7/7/310
f 81/112/311 80/110/312 7/13/313 12/12/314
f 76/106/315 81/112/316 12/12/317 11/11/318
f 83/114/319 82/113/320 42/59/321 41/60/322
f 84/115/323 83/114/324 41/60/325 40/62/326
f 85/117/327 84/115/328 40/62/329 39/64/330
f 86/118/331 85/116/332 39/67/333 44/68/334
f 87/119/335 86/118/336 44/68/337 43/70/338
f 82/113/339 87/119/340 43/70/341 42/59/342
f 89/121/343 88/120/344 70/99/345 71/100/346
f 90/122/347 89/121/348 71/100/349 72/101/350
f 91/123/351 90/122/352 72/101/353 73/102/354
f 92/125/355 91/123/356 73/102/357 74/104/358
f 93/126/359 92/124/360 74/103/361 75/105/362
f 88/120/363 93/126/364 75/105/365 70/99/366
f 95/128/367 94/127/368 64/92/369 65/93/370
f 96/129/371 95/128/372 65/93/373 66/94/374
f 97/131/375 96/129/376 66/94/377 67/96/378
f 98/132/379 97/130/380 67/95/381 68/97/382
f 99/133/383 98/132/384 68/97/385 69/98/386
f 94/127/387 99/133/388 69/98/389 64/92/390
