# This file uses centimeters as units for non-parametric coordinates.

v -0.649117 0.803980 -0.874741
v -0.917171 0.177073 -0.886673
v -0.650562 -0.451809 -0.875397
v -0.005280 -0.714223 -0.846436
v 0.640495 -0.456498 -0.817810
v 0.908329 0.170340 -0.807343
v 0.641506 0.799152 -0.820129
v -0.003551 1.061635 -0.847595
v -0.676144 0.780720 0.730331
v -0.945999 0.143706 0.707718
v -0.671799 -0.493459 0.712387
v -0.014015 -0.757528 0.743103
v 0.641876 -0.493817 0.780365
v 0.911587 0.143171 0.800873
v 0.637260 0.780316 0.794098
v -0.020359 1.044406 0.765503
v 0.286125 1.148624 -0.570892
v 0.008270 1.260798 -0.581848
v 0.001831 1.258652 0.500977
v 0.283707 1.145812 0.511292
v -0.269161 1.149548 -0.593933
v -0.278271 1.145913 0.485962
v 0.154690 1.729145 -0.429962
v 0.042049 1.798157 -0.546432
v 0.043011 1.788139 0.476105
v 0.156490 1.721590 0.371567
v -0.072849 1.741303 -0.444839
v -0.073109 1.733025 0.355698
v 0.167107 1.979240 -0.023056
v 0.311993 1.159715 -0.032990
v 0.686333 0.825413 -0.021332
v 0.693069 -0.438272 -0.032715
v 0.042656 -0.699568 -0.064941
v -0.610451 -0.437408 -0.091675
v -0.616943 0.826400 -0.076599
v -0.246948 1.159976 -0.056183
v -0.061531 1.990827 -0.037674
v 0.057156 2.117056 -0.026840
v -0.934105 0.171266 -0.076614
v 0.952808 0.180065 -0.009857
v -0.595196 0.669947 0.928467
v -0.825054 0.128073 0.908920
v -0.071575 0.096363 0.693451
v -0.592323 -0.413950 0.913437
v -0.033146 -0.638601 0.940430
v 0.524807 -0.414295 0.973022
v 0.754654 0.127581 0.991058
v 0.521797 0.669592 0.984985
v -0.037319 0.894255 0.959534
v -0.577377 0.717381 -1.109558
v -0.811714 0.171274 -1.118011
v -0.037590 0.157802 -0.816376
v -0.580624 -0.376967 -1.106308
v -0.019249 -0.606139 -1.080505
v 0.543392 -0.382053 -1.056488
v 0.777584 0.164000 -1.049103
v 0.546280 0.712181 -1.061920
v -0.014904 0.941420 -1.086639
v 0.183025 1.530545 0.284821
v 0.024265 1.445118 0.362488
v -0.153450 1.466134 0.271454
v -0.157967 1.569226 -0.051971
v -0.154167 1.477440 -0.378906
v 0.021725 1.457912 -0.469147
v 0.178978 1.540432 -0.366669
v 0.177002 1.633172 -0.039764
vt 0.005470 0.353658
vt 0.005470 0.353658
vt 0.005470 0.353658
vt 0.005470 0.353658
vt 0.005470 0.353658
vt 0.005470 0.353658
vt 0.005470 0.353658
vt 0.005470 0.353658
vt 0.005470 0.353658
vt 0.005470 0.353658
vt 0.005470 0.353658
vt 0.005470 0.353658
vt 0.006397 0.330593
vt 0.006397 0.330593
vt 0.006397 0.330593
vt 0.006397 0.330593
vt 0.006397 0.330593
vt 0.006397 0.330593
vt 0.006397 0.330593
vt 0.006397 0.330593
vt 0.006397 0.330593
vt 0.006397 0.330593
vt 0.006397 0.330593
vt 0.006397 0.330593
vt 0.006397 0.330593
vt 0.006397 0.330593
vt 0.006397 0.330593
vt 0.006397 0.330593
vt 0.006397 0.330593
vt 0.006397 0.330593
vt 0.005470 0.353658
vt 0.005470 0.353658
vt 0.005470 0.353658
vt 0.005470 0.353658
vt 0.005470 0.353658
vt 0.005470 0.353658
vt 0.005470 0.353658
vt 0.005470 0.353658
vt 0.005470 0.353658
vt 0.005470 0.353658
vt 0.005470 0.353658
vt 0.005470 0.353658
vt 0.005470 0.353658
vt 0.005470 0.353658
vt 0.005470 0.353658
vt 0.005470 0.353658
vt 0.005470 0.353658
vt 0.005470 0.353658
vt 0.005470 0.353658
vt 0.005470 0.353658
vt 0.005470 0.353658
vt 0.005470 0.353658
vt 0.005470 0.353658
vt 0.005470 0.353658
vt 0.005470 0.353658
vt 0.005470 0.353658
vt 0.005470 0.353658
vt 0.005470 0.353658
vt 0.005470 0.353658
vt 0.005470 0.353658
vt 0.005470 0.353658
vt 0.005470 0.353658
vt 0.005470 0.353658
vt 0.005470 0.353658
vt 0.005470 0.353658
vt 0.005470 0.353658
vt 0.005470 0.353658
vt 0.005470 0.353658
vt 0.005470 0.353658
vt 0.005470 0.353658
vt 0.005470 0.353658
vt 0.005470 0.353658
vt 0.005470 0.353658
vt 0.005470 0.353658
vt 0.005470 0.353658
vt 0.005470 0.353658
vt 0.005470 0.353658
vt 0.005470 0.353658
vt 0.005470 0.353658
vt 0.005470 0.353658
vt 0.005470 0.353658
vt 0.005470 0.353658
vt 0.005470 0.353658
vt 0.005470 0.353658
vt 0.005470 0.353658
vt 0.005470 0.353658
vt 0.006397 0.330593
vt 0.006397 0.330593
vt 0.006397 0.330593
vt 0.006397 0.330593
vt 0.006397 0.330593
vt 0.006397 0.330593
vt 0.006397 0.330593
vt 0.006397 0.330593
vt 0.006397 0.330593
vt 0.006397 0.330593
vt 0.006397 0.330593
vt 0.006397 0.330593
vt 0.006397 0.330593
vt 0.006397 0.330593
vt 0.006397 0.330593
vt 0.006397 0.330593
vn -0.375739 -0.925933 0.038325
vn -0.375739 -0.925933 0.038325
vn -0.375739 -0.925933 0.038325
vn -0.375739 -0.925933 0.038325
vn 0.371901 -0.928262 -0.004377
vn 0.371901 -0.928262 -0.004377
vn 0.371901 -0.928262 -0.004377
vn 0.371901 -0.928262 -0.004377
vn 0.731685 0.570944 -0.372372
vn 0.731685 0.570944 -0.372372
vn 0.731685 0.570944 -0.372372
vn 0.731685 0.570944 -0.372372
vn -0.657544 0.650448 -0.380201
vn -0.657544 0.650448 -0.380201
vn -0.657544 0.650448 -0.380201
vn -0.657544 0.650448 -0.380201
vn 0.357430 -0.139079 -0.923526
vn 0.357430 -0.139079 -0.923526
vn 0.357430 -0.139079 -0.923526
vn 0.361849 0.132826 -0.922725
vn 0.361849 0.132826 -0.922725
vn 0.361849 0.132826 -0.922725
vn 0.175566 0.325454 -0.929116
vn 0.175566 0.325454 -0.929116
vn 0.175566 0.325454 -0.929116
vn -0.088660 0.323578 -0.942039
vn -0.088660 0.323578 -0.942039
vn -0.088660 0.323578 -0.942039
vn -0.273109 0.130022 -0.953156
vn -0.273109 0.130022 -0.953156
vn -0.273109 0.130022 -0.953156
vn -0.270990 -0.136623 -0.952837
vn -0.270990 -0.136623 -0.952837
vn -0.270990 -0.136623 -0.952837
vn -0.090184 -0.322382 -0.942304
vn -0.090184 -0.322382 -0.942304
vn -0.090184 -0.322382 -0.942304
vn 0.167668 -0.325764 -0.930465
vn 0.167668 -0.325764 -0.930465
vn 0.167668 -0.325764 -0.930465
vn 0.266211 -0.147287 0.952595
vn 0.266211 -0.147287 0.952595
vn 0.266211 -0.147287 0.952595
vn 0.277656 0.127153 0.952229
vn 0.277656 0.127153 0.952228
vn 0.277656 0.127153 0.952228
vn 0.083569 0.321347 0.943267
vn 0.083569 0.321347 0.943267
vn 0.083569 0.321347 0.943267
vn -0.177329 0.305145 0.935650
vn -0.177329 0.305145 0.935650
vn -0.177329 0.305145 0.935650
vn -0.340490 0.113358 0.933390
vn -0.340490 0.113358 0.933390
vn -0.340490 0.113358 0.933390
vn -0.331506 -0.131953 0.934180
vn -0.331506 -0.131953 0.934180
vn -0.331506 -0.131953 0.934180
vn -0.165476 -0.305593 0.937673
vn -0.165476 -0.305593 0.937673
vn -0.165476 -0.305593 0.937673
vn 0.075383 -0.318366 0.944966
vn 0.075383 -0.318366 0.944966
vn 0.075383 -0.318366 0.944966
vn 0.327515 0.747524 -0.577877
vn 0.327515 0.747524 -0.577877
vn 0.327515 0.747524 -0.577877
vn 0.327515 0.747524 -0.577877
vn 0.270544 0.738126 0.618042
vn 0.270544 0.738126 0.618042
vn 0.270544 0.738126 0.618042
vn 0.270544 0.738126 0.618042
vn 0.672877 0.737617 -0.056198
vn 0.672877 0.737617 -0.056198
vn 0.672877 0.737617 -0.056198
vn 0.672877 0.737617 -0.056198
vn -0.284990 0.773277 -0.566413
vn -0.284990 0.773277 -0.566413
vn -0.284990 0.773277 -0.566413
vn -0.284990 0.773277 -0.566413
vn -0.673254 0.739354 0.009229
vn -0.673254 0.739354 0.009229
vn -0.673254 0.739354 0.009229
vn -0.673254 0.739354 0.009229
vn -0.331267 0.746714 0.576784
vn -0.331267 0.746714 0.576784
vn -0.331267 0.746714 0.576784
vn -0.331267 0.746714 0.576784
vn 0.251077 0.489375 -0.835148
vn 0.251077 0.489375 -0.835148
vn 0.251077 0.489375 -0.835148
vn 0.251077 0.489375 -0.835148
vn 0.159643 0.546948 0.821804
vn 0.159643 0.546948 0.821804
vn 0.159643 0.546948 0.821804
vn 0.159643 0.546948 0.821804
vn 0.957598 0.281732 -0.060280
vn 0.957598 0.281732 -0.060280
vn 0.957598 0.281732 -0.060280
vn 0.957598 0.281732 -0.060280
vn -0.249202 0.555970 -0.792966
vn -0.249202 0.555970 -0.792966
vn -0.249202 0.555970 -0.792966
vn -0.249202 0.555970 -0.792966
vn -0.962844 0.269818 -0.011391
vn -0.962844 0.269818 -0.011391
vn -0.962844 0.269818 -0.011391
vn -0.962844 0.269818 -0.011391
vn -0.292703 0.602407 0.742584
vn -0.292703 0.602407 0.742584
vn -0.292703 0.602407 0.742584
vn -0.292703 0.602407 0.742584
vn 0.958002 0.279958 0.062094
vn 0.958002 0.279958 0.062094
vn 0.958002 0.279958 0.062094
vn 0.958002 0.279958 0.062094
vn 0.676418 0.733155 0.070297
vn 0.676418 0.733155 0.070297
vn 0.676418 0.733155 0.070297
vn 0.676418 0.733155 0.070297
vn 0.374443 -0.926389 -0.039948
vn 0.374443 -0.926389 -0.039948
vn 0.374443 -0.926389 -0.039948
vn 0.374443 -0.926389 -0.039948
vn -0.367453 -0.925446 -0.092350
vn -0.367453 -0.925446 -0.092350
vn -0.367453 -0.925446 -0.092350
vn -0.367453 -0.925446 -0.092350
vn -0.675004 0.737706 -0.012624
vn -0.675004 0.737706 -0.012624
vn -0.675004 0.737706 -0.012624
vn -0.675004 0.737706 -0.012624
vn -0.958917 0.283554 0.008682
vn -0.958917 0.283554 0.008682
vn -0.958917 0.283554 0.008682
vn -0.958917 0.283554 0.008682
vn -0.689142 0.615188 0.382919
vn -0.689142 0.615188 0.382919
vn -0.689142 0.615188 0.382919
vn -0.689142 0.615188 0.382919
vn 0.710343 0.580063 0.398672
vn 0.710343 0.580063 0.398672
vn 0.710343 0.580063 0.398672
vn 0.710343 0.580063 0.398672
vn -0.909712 0.415218 0.004331
vn -0.909712 0.415218 0.004331
vn -0.909712 0.415218 0.004331
vn -0.909712 0.415218 0.004331
vn -0.902465 -0.430486 0.015446
vn -0.902465 -0.430486 0.015446
vn -0.902465 -0.430486 0.015446
vn -0.902465 -0.430486 0.015446
vn -0.899914 -0.431316 -0.064200
vn -0.899914 -0.431316 -0.064200
vn -0.899914 -0.431316 -0.064200
vn -0.899914 -0.431316 -0.064200
vn -0.910097 0.413831 -0.021614
vn -0.910097 0.413831 -0.021614
vn -0.910097 0.413831 -0.021614
vn -0.910097 0.413831 -0.021614
vn 0.920108 -0.388517 -0.049565
vn 0.920108 -0.388517 -0.049565
vn 0.920108 -0.388517 -0.049565
vn 0.920108 -0.388517 -0.049565
vn 0.921194 0.384419 -0.060203
vn 0.921194 0.384419 -0.060203
vn 0.921194 0.384419 -0.060203
vn 0.921194 0.384419 -0.060203
vn 0.918769 0.388431 0.070600
vn 0.918769 0.388431 0.070600
vn 0.918769 0.388431 0.070600
vn 0.918769 0.388431 0.070600
vn 0.920606 -0.389322 0.030231
vn 0.920606 -0.389322 0.030231
vn 0.920606 -0.389322 0.030231
vn 0.920606 -0.389322 0.030231
vn -0.800339 0.321146 0.506283
vn -0.800339 0.321146 0.506283
vn -0.800339 0.321146 0.506283
vn -0.800339 0.321146 0.506283
vn -0.816174 -0.347275 0.461801
vn -0.816174 -0.347275 0.461801
vn -0.816174 -0.347275 0.461801
vn -0.816174 -0.347275 0.461801
vn -0.349651 -0.816392 0.459617
vn -0.349651 -0.816392 0.459617
vn -0.349651 -0.816392 0.459617
vn -0.349651 -0.816392 0.459617
vn 0.294590 -0.806180 0.513118
vn 0.294590 -0.806181 0.513118
vn 0.294590 -0.806180 0.513118
vn 0.294590 -0.806181 0.513118
vn 0.739727 -0.332594 0.584966
vn 0.739727 -0.332594 0.584966
vn 0.739727 -0.332594 0.584966
vn 0.739727 -0.332594 0.584966
vn 0.719144 0.316063 0.618819
vn 0.719144 0.316063 0.618819
vn 0.719144 0.316063 0.618819
vn 0.719144 0.316063 0.618819
vn 0.274338 0.749571 0.602396
vn 0.274338 0.749571 0.602396
vn 0.274338 0.749571 0.602396
vn 0.274338 0.749571 0.602396
vn -0.335373 0.758188 0.559175
vn -0.335373 0.758188 0.559175
vn -0.335373 0.758188 0.559175
vn -0.335373 0.758188 0.559175
vn -0.842695 0.367752 -0.393221
vn -0.842695 0.367752 -0.393221
vn -0.842695 0.367752 -0.393221
vn -0.842695 0.367752 -0.393221
vn -0.850269 -0.366871 -0.377423
vn -0.850269 -0.366871 -0.377423
vn -0.850269 -0.366871 -0.377423
vn -0.850269 -0.366871 -0.377423
vn -0.334219 -0.862668 -0.379607
vn -0.334219 -0.862668 -0.379607
vn -0.334219 -0.862668 -0.379607
vn -0.334219 -0.862668 -0.379607
vn 0.353406 -0.841784 -0.408048
vn 0.353406 -0.841784 -0.408048
vn 0.353406 -0.841784 -0.408048
vn 0.353406 -0.841784 -0.408048
vn 0.827258 -0.347365 -0.441568
vn 0.827258 -0.347365 -0.441568
vn 0.827258 -0.347365 -0.441568
vn 0.827258 -0.347365 -0.441568
vn 0.825330 0.339481 -0.451201
vn 0.825331 0.339481 -0.451201
vn 0.825331 0.339481 -0.451201
vn 0.825331 0.339481 -0.451201
vn 0.355943 0.826972 -0.435227
vn 0.355943 0.826972 -0.435227
vn 0.355943 0.826972 -0.435227
vn 0.355943 0.826972 -0.435227
vn -0.322528 0.851779 -0.412855
vn -0.322528 0.851778 -0.412854
vn -0.322528 0.851779 -0.412855
vn -0.322528 0.851779 -0.412855
vn 0.546449 -0.287179 0.786716
vn 0.546449 -0.287179 0.786716
vn 0.546449 -0.287179 0.786716
vn 0.546449 -0.287179 0.786716
vn -0.562314 -0.171102 0.809028
vn -0.562314 -0.171102 0.809028
vn -0.562314 -0.171102 0.809028
vn -0.562314 -0.171102 0.809028
vn -0.966555 0.232762 0.107670
vn -0.966555 0.232762 0.107670
vn -0.966555 0.232762 0.107670
vn -0.966555 0.232762 0.107670
vn -0.964706 0.242420 -0.102829
vn -0.964706 0.242420 -0.102829
vn -0.964706 0.242420 -0.102829
vn -0.964707 0.242420 -0.102829
vn -0.537786 -0.107751 -0.836167
vn -0.537786 -0.107751 -0.836167
vn -0.537786 -0.107751 -0.836167
vn -0.537786 -0.107751 -0.836167
vn 0.623641 -0.196415 -0.756632
vn 0.623641 -0.196415 -0.756632
vn 0.623641 -0.196415 -0.756632
vn 0.623642 -0.196415 -0.756632
vn 0.997300 0.060067 -0.042253
vn 0.997300 0.060067 -0.042253
vn 0.997300 0.060067 -0.042253
vn 0.997300 0.060067 -0.042253
vn 0.997488 0.060583 0.036718
vn 0.997488 0.060583 0.036718
vn 0.997488 0.060583 0.036718
vn 0.997488 0.060583 0.036718
s off
f 3/1/1 4/2/2 33/3/3 34/4/4
f 4/2/5 5/5/6 32/6/7 33/3/8
f 23/7/9 24/8/10 38/9/11 29/10/12
f 24/8/13 27/11/14 37/12/15 38/9/16
f 51/13/17 50/14/18 52/15/19
f 53/16/20 51/13/21 52/15/22
f 54/17/23 53/16/24 52/15/25
f 55/18/26 54/17/27 52/15/28
f 56/19/29 55/18/30 52/15/31
f 57/20/32 56/19/33 52/15/34
f 58/21/35 57/20/36 52/15/37
f 50/14/38 58/21/39 52/15/40
f 41/22/41 42/23/42 43/24/43
f 42/23/44 44/25/45 43/24/46
f 44/25/47 45/26/48 43/24/49
f 45/26/50 46/27/51 43/24/52
f 46/27/53 47/28/54 43/24/55
f 47/28/56 48/29/57 43/24/58
f 48/29/59 49/30/60 43/24/61
f 49/30/62 41/22/63 43/24/64
f 7/31/65 8/32/66 18/33/67 17/34/68
f 16/35/69 15/36/70 20/37/71 19/38/72
f 31/39/73 7/31/74 17/34/75 30/40/76
f 8/32/77 1/41/78 21/42/79 18/33/80
f 1/41/81 35/43/82 36/44/83 21/42/84
f 9/45/85 16/35/86 19/38/87 22/46/88
f 17/34/89 18/33/90 64/47/91 65/48/92
f 19/38/93 20/37/94 59/49/95 60/50/96
f 30/40/97 17/34/98 65/48/99 66/51/100
f 18/33/101 21/42/102 63/52/103 64/47/104
f 21/42/105 36/44/106 62/53/107 63/52/108
f 22/46/109 19/38/110 60/50/111 61/54/112
f 20/37/113 30/40/114 66/51/115 59/49/116
f 15/36/117 31/39/118 30/40/119 20/37/120
f 33/3/121 32/6/122 13/55/123 12/56/124
f 34/4/125 33/3/126 12/56/127 11/57/128
f 36/44/129 35/43/130 9/45/131 22/46/132
f 62/53/133 36/44/134 22/46/135 61/54/136
f 38/9/137 37/12/138 28/58/139 25/59/140
f 29/10/141 38/9/142 25/59/143 26/60/144
f 39/63/145 35/64/146 1/61/147 2/62/148
f 39/63/149 2/62/150 3/1/151 34/4/152
f 39/66/153 34/65/154 11/67/155 10/68/156
f 39/70/157 10/69/158 9/71/159 35/72/160
f 40/76/161 32/75/162 5/73/163 6/74/164
f 40/78/165 6/77/166 7/79/167 31/80/168
f 40/82/169 31/81/170 15/83/171 14/84/172
f 40/82/173 14/84/174 13/85/175 32/86/176
f 9/87/177 10/88/178 42/23/179 41/22/180
f 10/88/181 11/89/182 44/25/183 42/23/184
f 11/89/185 12/90/186 45/26/187 44/25/188
f 12/90/189 13/91/190 46/27/191 45/26/192
f 13/91/193 14/92/194 47/28/195 46/27/196
f 14/92/197 15/93/198 48/29/199 47/28/200
f 15/93/201 16/94/202 49/30/203 48/29/204
f 16/94/205 9/87/206 41/22/207 49/30/208
f 2/95/209 1/96/210 50/14/211 51/13/212
f 3/97/213 2/95/214 51/13/215 53/16/216
f 4/98/217 3/97/218 53/16/219 54/17/220
f 5/99/221 4/98/222 54/17/223 55/18/224
f 6/100/225 5/99/226 55/18/227 56/19/228
f 7/101/229 6/100/230 56/19/231 57/20/232
f 8/102/233 7/101/234 57/20/235 58/21/236
f 1/96/237 8/102/238 58/21/239 50/14/240
f 60/50/241 59/49/242 26/60/243 25/59/244
f 61/54/245 60/50/246 25/59/247 28/58/248
f 37/12/249 62/53/250 61/54/251 28/58/252
f 63/52/253 62/53/254 37/12/255 27/11/256
f 64/47/257 63/52/258 27/11/259 24/8/260
f 65/48/261 64/47/262 24/8/263 23/7/264
f 66/51/265 65/48/266 23/7/267 29/10/268
f 59/49/269 66/51/270 29/10/271 26/60/272
