# This file uses centimeters as units for non-parametric coordinates.

v 0.185364 -0.006083 0.000000
v 0.203056 0.991025 0.000000
v -0.203056 0.991025 0.000000
v -0.185364 -0.006083 0.000000
v 0.185364 0.161054 0.000000
v -0.185364 0.161054 0.000000
v -0.137985 0.195335 0.000000
v 0.137985 0.195335 0.000000
v -0.203056 0.897952 0.000000
v 0.203056 0.897952 0.000000
v 0.162689 0.862368 0.000000
v -0.162682 0.862368 0.000000
v 0.162689 0.768175 0.000000
v -0.162682 0.768175 0.000000
v 0.137985 0.745692 0.000000
v -0.137985 0.745692 0.000000
v 0.137985 0.048571 0.487206
v 0.137985 0.414279 0.487202
v -0.137985 0.414278 0.487202
v -0.137985 0.082813 0.487202
v 0.109665 0.108446 0.554642
v 0.109665 0.339457 0.554642
v -0.109665 0.324244 0.554646
v -0.109665 0.138271 0.554642
v -0.137985 -0.153537 1.664114
v -0.109665 -0.209753 1.654456
v -0.109665 -0.377571 1.684812
v -0.137985 -0.457709 1.678564
v -0.137985 -0.552991 1.688072
v -0.185364 -0.734142 1.598690
v 0.185364 -0.734142 1.598690
v 0.185364 -0.654201 1.638134
v 0.137985 -0.552991 1.688072
v 0.137985 -0.426306 1.655196
v 0.109665 -0.377914 1.697150
v 0.109665 -0.221974 1.726588
v 0.137985 -0.081759 1.737939
v 0.162689 -0.043576 1.756985
v 0.162689 0.038060 1.755679
v 0.203056 0.092941 1.735860
v 0.144142 0.165120 1.789775
v -0.203064 0.206806 1.609899
v -0.162682 0.110451 1.609252
v -0.162682 0.044085 1.576507
v -0.137985 0.005516 1.557475
v -0.203064 0.496952 1.110639
v -0.122841 0.226163 1.666347
v -0.185364 -0.489760 1.482224
v -0.185364 -0.674762 1.627987
v 0.185364 -0.516749 1.536922
v 0.137985 -0.125385 1.744631
v 0.137985 -0.163250 1.714768
v 0.203064 0.145711 1.733300
v 0.203056 0.199116 1.720874
v -0.096778 -0.038739 1.725944
v -0.094665 -0.000840 1.745959
v -0.098726 0.074255 1.759426
vt 0.212582 0.301431
vt 0.212582 0.301431
vt 0.212582 0.301431
vt 0.212582 0.301431
vt 0.212582 0.301431
vt 0.212582 0.301431
vt 0.212582 0.301431
vt 0.212582 0.301431
vt 0.212582 0.301431
vt 0.212582 0.301431
vt 0.212582 0.301431
vt 0.212582 0.301431
vt 0.212582 0.301431
vt 0.212582 0.301431
vt 0.212582 0.301431
vt 0.212582 0.301431
vt 0.212582 0.301431
vt 0.212582 0.301431
vt 0.212582 0.301431
vt 0.212582 0.301431
vt 0.212582 0.301431
vt 0.212582 0.301431
vt 0.212582 0.301431
vt 0.212582 0.301431
vt 0.212582 0.301431
vt 0.212582 0.301431
vt 0.212582 0.301431
vt 0.212582 0.301431
vt 0.212582 0.301431
vt 0.212582 0.301431
vt 0.212582 0.301431
vt 0.212582 0.301431
vt 0.212582 0.301431
vt 0.212582 0.301431
vt 0.212582 0.301431
vt 0.212582 0.301431
vt 0.212582 0.301431
vt 0.212582 0.301431
vt 0.212582 0.301431
vt 0.212582 0.301431
vt 0.212582 0.301431
vt 0.212582 0.301431
vt 0.212582 0.301431
vt 0.212582 0.301431
vt 0.212582 0.301431
vt 0.212582 0.301431
vt 0.212582 0.301431
vt 0.212582 0.301431
vt 0.212582 0.301431
vt 0.212582 0.301431
vt 0.212582 0.301431
vt 0.212582 0.301431
vt 0.212582 0.301431
vt 0.212582 0.301431
vt 0.212582 0.301431
vt 0.212582 0.301431
vt 0.212582 0.301431
vt 0.212582 0.301431
vt 0.212582 0.301431
vt 0.212582 0.301431
vt 0.212582 0.301431
vt 0.212582 0.301431
vt 0.212582 0.301431
vt 0.212582 0.301431
vt 0.212582 0.301431
vt 0.212582 0.301431
vt 0.212582 0.301431
vn 0.000000 0.000000 -1.000000
vn 0.000000 0.000000 -1.000000
vn 0.000000 0.000000 -1.000000
vn 0.000000 0.000000 -1.000000
vn 0.000000 0.000000 -1.000000
vn 0.000000 0.000000 -1.000000
vn 0.000000 0.000000 -1.000000
vn 0.000000 0.000000 -1.000000
vn 0.000000 0.000000 -1.000000
vn 0.000000 0.000000 -1.000000
vn 0.000000 0.000000 -1.000000
vn 0.000000 0.000000 -1.000000
vn 0.000000 0.000000 -1.000000
vn 0.000000 0.000000 -1.000000
vn 0.000000 0.000000 -1.000000
vn 0.000000 0.000000 -1.000000
vn 0.000000 0.000000 -1.000000
vn 0.000000 0.000000 -1.000000
vn 0.000000 0.000000 -1.000000
vn 0.000000 0.000000 -1.000000
vn 0.000000 0.000000 -1.000000
vn 0.000000 0.000000 -1.000000
vn 0.000000 0.000000 -1.000000
vn 0.000000 0.000000 -1.000000
vn 0.000000 0.000000 -1.000000
vn 0.000000 0.000000 -1.000000
vn 0.000000 0.000000 -1.000000
vn 0.000000 0.000000 -1.000000
vn 1.000000 0.000000 0.000000
vn 1.000000 0.000000 0.000000
vn 1.000000 0.000000 0.000000
vn 1.000000 0.000000 0.000000
vn -1.000000 0.000000 0.000000
vn -1.000000 0.000000 0.000000
vn -1.000000 0.000000 0.000000
vn -1.000000 0.000000 0.000000
vn 0.922000 0.000002 0.387190
vn 0.922000 0.000002 0.387190
vn 0.922000 0.000002 0.387190
vn 0.922000 0.000002 0.387190
vn -0.922008 -0.000003 0.387170
vn -0.922008 -0.000003 0.387170
vn -0.922008 -0.000003 0.387170
vn -0.922008 -0.000003 0.387170
vn -0.882851 -0.422751 -0.204589
vn -0.882851 -0.422751 -0.204589
vn -0.882851 -0.422751 -0.204589
vn -0.882851 -0.422751 -0.204589
vn -1.000000 0.000000 0.000000
vn -1.000000 0.000000 0.000000
vn -1.000000 0.000000 0.000000
vn -1.000000 0.000000 0.000000
vn -0.938489 0.314301 0.143016
vn -0.938489 0.314301 0.143016
vn -0.938489 0.314301 0.143016
vn -0.938489 0.314301 0.143016
vn -1.000000 0.000000 0.000000
vn -1.000000 0.000000 0.000000
vn -1.000000 0.000000 0.000000
vn -1.000000 0.000000 0.000000
vn -0.932730 0.223154 0.283226
vn -0.932730 0.223154 0.283226
vn -0.932730 0.223154 0.283226
vn 0.000000 -0.910070 -0.414455
vn 0.000000 -0.910070 -0.414455
vn 0.000000 -0.910070 -0.414455
vn 0.000000 -0.910070 -0.414455
vn 0.904073 0.253409 0.344146
vn 0.904073 0.253409 0.344146
vn 0.904073 0.253409 0.344146
vn 1.000000 0.000000 0.000000
vn 1.000000 0.000000 0.000000
vn 1.000000 0.000000 0.000000
vn 1.000000 0.000000 0.000000
vn 0.928817 0.342113 0.142329
vn 0.928817 0.342113 0.142329
vn 0.928817 0.342113 0.142329
vn 0.928817 0.342113 0.142329
vn 1.000000 0.000000 0.000000
vn 1.000000 0.000000 0.000000
vn 1.000000 0.000000 0.000000
vn 1.000000 0.000000 0.000000
vn 0.837060 -0.494258 -0.234606
vn 0.837060 -0.494258 -0.234606
vn 0.837060 -0.494258 -0.234606
vn 0.837060 -0.494258 -0.234606
vn 1.000000 -0.000000 0.000000
vn 1.000000 -0.000000 0.000000
vn 1.000000 -0.000000 0.000000
vn 1.000000 -0.000000 0.000000
vn 1.000000 -0.000000 0.000000
vn 0.786930 -0.558647 -0.262019
vn 0.786930 -0.558648 -0.262019
vn 0.786930 -0.558648 -0.262019
vn 0.786930 -0.558648 -0.262019
vn 1.000000 0.000000 0.000000
vn 1.000000 0.000000 0.000000
vn 1.000000 0.000000 0.000000
vn 1.000000 0.000000 0.000000
vn 0.673688 -0.669688 -0.312509
vn 0.673688 -0.669688 -0.312509
vn 0.673688 -0.669688 -0.312509
vn 0.673688 -0.669688 -0.312509
vn 1.000000 -0.000000 -0.000002
vn 1.000000 -0.000000 -0.000002
vn 1.000000 -0.000000 -0.000002
vn 1.000000 -0.000000 -0.000002
vn 1.000000 -0.000000 -0.000002
vn 0.019861 0.908580 0.417237
vn 0.019861 0.908581 0.417237
vn 0.019861 0.908580 0.417237
vn 0.019861 0.908580 0.417237
vn 0.019861 0.908580 0.417237
vn 0.019861 0.908580 0.417237
vn -1.000000 -0.000017 -0.000013
vn -1.000000 -0.000017 -0.000013
vn -1.000000 -0.000017 -0.000013
vn -1.000000 -0.000017 -0.000013
vn -0.831041 -0.507547 -0.227522
vn -0.831041 -0.507547 -0.227522
vn -0.831041 -0.507547 -0.227522
vn -0.831041 -0.507547 -0.227522
vn -1.000000 0.000000 0.000000
vn -1.000000 0.000000 0.000000
vn -1.000000 0.000000 0.000000
vn -1.000000 0.000000 0.000000
vn -0.788711 -0.556971 -0.260229
vn -0.788711 -0.556971 -0.260229
vn -0.788711 -0.556971 -0.260229
vn -0.788711 -0.556971 -0.260229
vn -1.000000 0.000000 0.000000
vn -1.000000 0.000000 0.000000
vn -1.000000 0.000000 0.000000
vn -1.000000 0.000000 0.000000
vn -0.490043 0.753670 0.437996
vn -0.490043 0.753670 0.437996
vn -0.490043 0.753670 0.437996
vn -0.512978 0.785323 0.346585
vn -0.512978 0.785323 0.346585
vn -0.512978 0.785323 0.346585
vn -0.512978 0.785323 0.346585
vn -1.000000 0.000000 0.000000
vn -1.000000 0.000000 0.000000
vn -1.000000 0.000000 0.000000
vn -1.000000 0.000000 0.000000
vn -1.000000 0.000000 0.000000
vn 1.000000 0.000000 0.000000
vn 1.000000 0.000000 0.000000
vn 1.000000 0.000000 0.000000
vn 1.000000 0.000000 0.000000
vn 1.000000 0.000000 0.000000
vn 0.530730 0.775134 0.342773
vn 0.530730 0.775134 0.342773
vn 0.530730 0.775134 0.342773
vn 0.530730 0.775134 0.342773
vn 0.709988 0.159689 0.685869
vn 0.709988 0.159689 0.685869
vn 0.709988 0.159689 0.685869
vn -0.523796 -0.225036 0.821582
vn -0.523796 -0.225036 0.821582
vn -0.523796 -0.225036 0.821582
vn -0.000003 -0.442471 0.896783
vn -0.000003 -0.442471 0.896783
vn -0.000003 -0.442471 0.896783
vn -0.000003 -0.442471 0.896783
vn 0.042831 -0.350825 0.935461
vn 0.042831 -0.350825 0.935461
vn 0.042831 -0.350825 0.935461
vn 0.042831 -0.350825 0.935461
vn -0.163677 -0.610905 0.774600
vn -0.163677 -0.610905 0.774600
vn -0.163677 -0.610905 0.774600
vn -0.189012 0.002788 0.981971
vn -0.189012 0.002788 0.981971
vn -0.189012 0.002788 0.981971
vn -0.189012 0.002788 0.981971
vn -0.927234 -0.140071 0.347301
vn -0.927234 -0.140071 0.347301
vn -0.927234 -0.140071 0.347301
vn -0.927234 -0.140071 0.347301
vn -0.908595 -0.368623 0.196396
vn -0.908596 -0.368623 0.196396
vn -0.908595 -0.368623 0.196396
vn -0.908596 -0.368623 0.196396
vn -0.239817 0.018243 0.970647
vn -0.239817 0.018243 0.970647
vn -0.239817 0.018243 0.970647
vn -0.239817 0.018243 0.970647
vn 0.000000 -0.201536 0.979481
vn 0.000000 -0.201536 0.979481
vn 0.000000 -0.201536 0.979481
vn 0.000000 -0.201536 0.979481
vn -0.000004 -0.442491 0.896773
vn -0.000004 -0.442491 0.896773
vn -0.000004 -0.442491 0.896773
vn -0.941653 0.187439 0.279565
vn -0.941653 0.187439 0.279565
vn -0.941653 0.187439 0.279565
vn 0.623794 -0.072169 0.778250
vn 0.623794 -0.072169 0.778250
vn 0.623794 -0.072169 0.778250
vn 0.623794 -0.072169 0.778250
vn -0.904911 0.108509 0.411536
vn -0.904911 0.108509 0.411536
vn -0.904911 0.108509 0.411536
vn 0.053301 0.250834 0.966562
vn 0.053301 0.250834 0.966562
vn 0.053301 0.250834 0.966562
vn -0.178953 -0.281552 0.942711
vn -0.178953 -0.281552 0.942711
vn -0.178953 -0.281552 0.942711
vn -0.178953 -0.281552 0.942711
vn -0.115474 -0.421166 0.899603
vn -0.115474 -0.421166 0.899603
vn -0.115474 -0.421166 0.899603
vn -0.115474 -0.421166 0.899603
vn -0.025852 -0.078000 0.996618
vn -0.025852 -0.078000 0.996618
vn -0.025852 -0.078000 0.996618
vn -0.025852 -0.078000 0.996618
vn -0.186569 0.175837 0.966578
vn -0.186569 0.175837 0.966578
vn -0.186569 0.175837 0.966578
vn -0.186569 0.175837 0.966578
s off
f 5/1/1 6/2/2 7/3/3 8/4/4
f 1/5/5 4/6/6 6/2/7 5/1/8
f 11/7/9 12/8/10 9/9/11 10/10/12
f 10/10/13 9/9/14 3/11/15 2/12/16
f 13/13/17 14/14/18 12/8/19 11/7/20
f 15/15/21 16/16/22 14/14/23 13/13/24
f 8/4/25 7/3/26 16/16/27 15/15/28
f 8/4/29 15/15/30 18/17/31 17/18/32
f 16/19/33 7/20/34 20/21/35 19/22/36
f 17/18/37 18/17/38 22/23/39 21/24/40
f 19/22/41 20/21/42 24/25/43 23/26/44
f 26/27/45 25/28/46 19/22/47 23/26/48
f 27/29/49 26/27/50 23/26/51 24/25/52
f 20/21/53 28/30/54 27/29/55 24/25/56
f 7/20/57 29/31/58 28/30/59 20/21/60
f 48/32/61 49/33/62 29/31/63
f 31/34/64 30/35/65 4/36/66 1/37/67
f 33/38/68 32/39/69 50/40/70
f 34/41/71 33/38/72 8/4/73 17/18/74
f 35/42/75 34/41/76 17/18/77 21/24/78
f 36/43/79 35/42/80 21/24/81 22/23/82
f 18/17/83 52/44/84 36/43/85 22/23/86
f 15/15/87 37/45/88 51/46/89 52/44/90 18/17/91
f 38/47/92 37/45/93 15/15/94 13/13/95
f 39/48/96 38/47/97 13/13/98 11/7/99
f 40/49/100 39/48/101 11/7/102 10/10/103
f 54/50/104 53/51/105 40/49/106 10/10/107 2/12/108
f 46/52/109 47/53/110 41/54/111 54/50/112 2/12/113 3/55/114
f 42/56/115 46/52/116 3/55/117 9/57/118
f 43/58/119 42/56/120 9/57/121 12/59/122
f 44/60/123 43/58/124 12/59/125 14/61/126
f 45/62/127 44/60/128 14/61/129 16/19/130
f 25/28/131 45/62/132 16/19/133 19/22/134
f 42/56/135 47/53/136 46/52/137
f 48/32/138 29/31/139 7/20/140 6/63/141
f 30/35/142 49/33/143 48/32/144 6/63/145 4/36/146
f 50/40/147 32/39/148 31/64/149 1/5/150 5/1/151
f 33/38/152 50/40/153 5/1/154 8/4/155
f 41/54/156 53/51/157 54/50/158
f 43/58/159 47/53/160 42/56/161
f 32/39/162 49/33/163 30/35/164 31/64/165
f 27/29/166 28/30/167 34/41/168 35/42/169
f 25/28/170 52/44/171 51/46/172
f 27/29/173 35/42/174 36/43/175 26/27/176
f 44/60/177 56/65/178 57/66/179 43/58/180
f 45/62/181 55/67/182 56/65/183 44/60/184
f 26/27/185 36/43/186 52/44/187 25/28/188
f 33/38/189 28/30/190 29/31/191 32/39/192
f 32/39/193 29/31/194 49/33/195
f 25/28/196 55/67/197 45/62/198
f 41/54/199 39/48/200 40/49/201 53/51/202
f 43/58/203 57/66/204 47/53/205
f 34/41/206 28/30/207 33/38/208
f 25/28/209 51/46/210 37/45/211 55/67/212
f 56/65/213 55/67/214 37/45/215 38/47/216
f 57/66/217 56/65/218 38/47/219 39/48/220
f 47/53/221 57/66/222 39/48/223 41/54/224
