# This file uses centimeters as units for non-parametric coordinates.

v 0.000000 0.000000 -0.000004
v 0.000000 5.000000 4.999998
v 5.000000 0.000000 -0.000004
v 4.999998 5.000000 4.999998
v 0.000000 5.000000 2.499998
v 4.999998 5.000000 2.499998
v 0.000000 2.500000 -0.000004
v 5.000000 2.500000 -0.000004
v 0.213177 0.161494 -0.000004
v 4.817299 0.132463 -0.000004
v 4.786819 2.500000 -0.000004
v 0.138424 2.500000 -0.000004
v 4.786818 5.000000 2.499998
v 4.786819 5.000000 4.796398
v 0.277094 5.000000 4.756102
v 0.213179 5.000000 2.499998
v 0.290966 0.444191 0.147717
v 4.661808 0.268682 0.149815
v 4.595818 2.525664 0.127876
v 0.290966 2.408205 0.127876
v 4.709032 4.872121 2.552965
v 4.709032 4.852748 4.451777
v 0.354881 4.850181 4.619427
v 0.251785 4.936532 2.526285
v 1.150116 1.106296 0.149815
v 3.937767 1.076802 0.149815
v 3.937767 2.447031 0.127876
v 1.062229 2.447031 0.127876
v 3.937769 4.872121 2.552965
v 3.937769 4.850181 3.949739
v 1.128443 4.972095 3.894876
v 1.062229 4.872121 2.552965
v 1.267662 1.231205 -0.016209
v 3.847599 1.163582 -0.016209
v 3.847599 2.504612 -0.013840
v 1.223309 2.504612 -0.013840
v 3.787632 5.013835 2.495365
v 3.847599 5.016202 3.875027
v 1.152397 5.016202 3.875027
v 1.177603 5.013835 2.495365
v 0.290966 4.870307 2.730766
v 0.290966 4.713775 2.394619
v 0.407021 4.872122 2.552965
v 1.062229 4.852466 3.566103
v 0.895172 4.850181 4.019184
v 1.217606 4.850181 3.986504
v 4.746445 4.922241 4.748104
v 4.492342 4.850181 4.703348
v 4.709030 2.740069 0.420914
v 4.760864 2.482326 0.042664
v 4.709030 2.155016 0.130768
v 0.234333 0.180809 0.040741
v 0.528934 0.232517 0.149815
v 1.692295 1.076802 0.149815
v 2.856670 1.076802 0.149815
v 2.264107 1.123543 0.060394
v 2.081127 0.931736 0.149815
v 0.000000 4.370339 1.870338
v 5.000000 4.358493 1.858490
v 0.248787 4.369879 1.869877
v 4.786819 4.358998 1.858997
v 0.434805 4.299341 1.980186
v 1.062229 4.298063 1.978909
v 3.866190 4.290151 1.970995
v 1.171774 4.375202 1.856739
v 3.757664 4.368010 1.849545
v 4.709030 4.288874 1.969719
v 0.000000 3.313523 0.813522
v 5.000000 3.576357 1.076355
v 0.163006 3.322092 0.822090
v 4.786819 3.565150 1.065147
v 0.290966 3.279053 0.959896
v 1.134983 3.307397 0.988243
v 3.937767 3.482951 1.163795
v 1.262634 3.371112 0.852654
v 3.823074 3.530794 1.012337
v 4.570862 3.511295 1.192139
v 1.543874 1.504319 0.150511
v 3.475461 1.450679 0.150511
v 3.608513 2.500428 0.128465
v 1.449808 2.398319 0.128465
v 3.559188 4.871531 2.554468
v 3.554461 4.849483 3.653169
v 1.439441 4.849483 3.692264
v 1.412214 4.871531 2.554468
v 1.407420 4.257314 1.974628
v 3.534536 4.250121 1.967434
v 1.482160 3.253223 0.970543
v 3.588342 3.412906 1.130226
vt 0.200041 0.278032
vt 0.200041 0.278032
vt 0.200041 0.278032
vt 0.200041 0.278032
vt 0.200041 0.278032
vt 0.200041 0.278032
vt 0.200041 0.278032
vt 0.200041 0.278032
vt 0.200041 0.278032
vt 0.200041 0.278032
vt 0.200041 0.278032
vt 0.200041 0.278032
vt 0.200041 0.278032
vt 0.200041 0.278032
vt 0.200041 0.278032
vt 0.200041 0.278032
vt 0.200041 0.278032
vt 0.200041 0.278032
vt 0.200041 0.278032
vt 0.200041 0.278032
vt 0.200041 0.278032
vt 0.200041 0.278032
vt 0.200041 0.278032
vt 0.200041 0.278032
vt 0.200041 0.278032
vt 0.200041 0.278032
vt 0.200041 0.278032
vt 0.200041 0.278032
vt 0.200041 0.278032
vt 0.200041 0.278032
vt 0.200041 0.278032
vt 0.200041 0.278032
vt 0.200041 0.278032
vt 0.200041 0.278032
vt 0.200041 0.278032
vt 0.200041 0.278032
vt 0.200041 0.278032
vt 0.200041 0.278032
vt 0.200041 0.278032
vt 0.200041 0.278032
vt 0.200041 0.278032
vt 0.200041 0.278032
vt 0.200041 0.278032
vt 0.200041 0.278032
vt 0.200041 0.278032
vt 0.200041 0.278032
vt 0.200041 0.278032
vt 0.200041 0.278032
vt 0.200041 0.278032
vt 0.200041 0.278032
vt 0.200041 0.278032
vt 0.200041 0.278032
vt 0.200041 0.278032
vt 0.200041 0.278032
vt 0.200041 0.278032
vt 0.200041 0.278032
vt 0.200041 0.278032
vt 0.200041 0.278032
vt 0.200041 0.278032
vt 0.200041 0.278032
vt 0.200041 0.278032
vt 0.200041 0.278032
vt 0.200041 0.278032
vt 0.200041 0.278032
vt 0.200041 0.278032
vt 0.200041 0.278032
vt 0.200041 0.278032
vt 0.200041 0.278032
vt 0.200041 0.278032
vt 0.200041 0.278032
vt 0.200041 0.278032
vt 0.200041 0.278032
vt 0.200041 0.278032
vt 0.200041 0.278032
vt 0.200041 0.278032
vt 0.200041 0.278032
vt 0.200041 0.278032
vt 0.197903 0.304397
vt 0.197903 0.304397
vt 0.197903 0.304397
vt 0.197903 0.304397
vt 0.197903 0.304397
vt 0.197903 0.304397
vt 0.197903 0.304397
vt 0.197903 0.304397
vt 0.197903 0.304397
vt 0.197903 0.304397
vt 0.197903 0.304397
vt 0.197903 0.304397
vt 0.197903 0.304397
vt 0.197903 0.304397
vt 0.197903 0.304397
vt 0.197903 0.304397
vt 0.197903 0.304397
vt 0.197903 0.304397
vt 0.197903 0.304397
vt 0.197903 0.304397
vt 0.197903 0.304397
vt 0.197903 0.304397
vt 0.197903 0.304397
vt 0.197903 0.304397
vt 0.197903 0.304397
vt 0.197903 0.304397
vt 0.197903 0.304397
vt 0.197903 0.304397
vt 0.197903 0.304397
vt 0.197903 0.304397
vt 0.197903 0.304397
vt 0.197903 0.304397
vt 0.197903 0.304397
vt 0.197903 0.304397
vt 0.197903 0.304397
vt 0.200041 0.278032
vt 0.200041 0.278032
vt 0.200041 0.278032
vt 0.200041 0.278032
vt 0.200041 0.278032
vt 0.200041 0.278032
vt 0.200041 0.278032
vt 0.200041 0.278032
vt 0.200041 0.278032
vt 0.200041 0.278032
vt 0.200041 0.278032
vt 0.200041 0.278032
vt 0.222199 0.294369
vt 0.222199 0.294369
vt 0.222199 0.294369
vt 0.222199 0.294369
vt 0.222199 0.294369
vt 0.222199 0.294369
vt 0.222199 0.294369
vt 0.222199 0.294369
vt 0.222199 0.294369
vt 0.222199 0.294369
vt 0.222199 0.294369
vt 0.222199 0.294369
vn 0.000299 0.022763 0.999741
vn 0.000299 0.022763 0.999741
vn 0.000299 0.022763 0.999741
vn 0.000299 0.022763 0.999741
vn -0.000181 -0.999806 -0.019711
vn -0.000181 -0.999806 -0.019711
vn -0.000181 -0.999806 -0.019711
vn -0.000181 -0.999806 -0.019711
vn 0.000068 -0.686591 0.727044
vn 0.000068 -0.686591 0.727044
vn 0.000068 -0.686591 0.727044
vn 0.000068 -0.686591 0.727044
vn 0.000000 0.000000 1.000000
vn 0.000000 0.000000 1.000000
vn 0.000000 0.000000 1.000000
vn 0.000000 0.000000 1.000000
vn 0.000000 0.000000 1.000000
vn 0.000000 0.000000 1.000000
vn 0.000000 0.000000 1.000000
vn 0.000000 0.000000 1.000000
vn 0.000000 0.000000 1.000000
vn 0.000000 0.000000 1.000000
vn 0.000000 0.000000 1.000000
vn 0.000000 0.000000 1.000000
vn 0.000000 -1.000000 0.000000
vn 0.000000 -1.000000 0.000000
vn 0.000000 -1.000000 0.000000
vn 0.000000 -1.000000 0.000000
vn 0.000000 -1.000000 0.000000
vn 0.000000 -1.000000 0.000000
vn 0.000000 -1.000000 0.000000
vn 0.000000 -1.000000 0.000000
vn 0.000000 -1.000000 0.000000
vn 0.000000 -1.000000 0.000000
vn 0.000000 -1.000000 0.000000
vn 0.000000 -1.000000 0.000000
vn 0.000001 -0.707107 0.707107
vn 0.000001 -0.707107 0.707107
vn 0.000001 -0.707107 0.707107
vn 0.000001 -0.707107 0.707107
vn -0.000002 -0.707107 0.707107
vn -0.000002 -0.707107 0.707107
vn -0.000002 -0.707107 0.707107
vn -0.000002 -0.707107 0.707107
vn 0.000667 -0.823230 0.567707
vn 0.000667 -0.823230 0.567707
vn 0.000667 -0.823230 0.567707
vn 0.000667 -0.823230 0.567707
vn 0.000667 -0.823230 0.567707
vn 0.770719 -0.000066 0.637175
vn 0.770719 -0.000066 0.637175
vn 0.770719 -0.000066 0.637175
vn 0.770719 -0.000066 0.637175
vn 0.770719 -0.000066 0.637175
vn -0.764846 -0.010009 0.644135
vn -0.764846 -0.010009 0.644135
vn -0.764846 -0.010009 0.644135
vn -0.764846 -0.010009 0.644135
vn -0.764846 -0.010009 0.644135
vn 0.235970 -0.952293 0.193536
vn 0.235970 -0.952293 0.193536
vn 0.235970 -0.952293 0.193536
vn 0.720628 -0.490252 0.490254
vn 0.720628 -0.490252 0.490254
vn 0.720628 -0.490252 0.490254
vn 0.720628 -0.490252 0.490254
vn 0.720628 -0.490252 0.490254
vn 0.720628 -0.490252 0.490254
vn 0.720628 -0.490252 0.490254
vn 0.720628 -0.490252 0.490254
vn 0.720628 -0.490252 0.490254
vn 0.000000 0.000000 1.000000
vn 0.000000 0.000000 1.000000
vn 0.000000 0.000000 1.000000
vn 0.006723 0.012292 0.999902
vn 0.006723 0.012292 0.999902
vn 0.006723 0.012292 0.999902
vn 0.006723 0.012292 0.999902
vn 0.006723 0.012292 0.999902
vn -0.006293 0.012329 0.999904
vn -0.006293 0.012329 0.999904
vn -0.006293 0.012329 0.999904
vn -0.006293 0.012329 0.999904
vn -0.338861 -0.912166 -0.230493
vn -0.338861 -0.912166 -0.230493
vn -0.338861 -0.912166 -0.230493
vn -0.350113 -0.521502 0.778111
vn -0.350113 -0.521502 0.778111
vn -0.350113 -0.521502 0.778111
vn 0.000001 -0.707107 0.707107
vn 0.000001 -0.707107 0.707107
vn 0.000001 -0.707107 0.707107
vn 0.000001 -0.707107 0.707107
vn 0.000001 -0.707107 0.707107
vn 0.017943 0.684570 0.728727
vn 0.017943 0.684569 0.728727
vn 0.017943 0.684569 0.728727
vn -0.862020 0.003658 0.506862
vn -0.862020 0.003658 0.506862
vn -0.862020 0.003658 0.506862
vn -0.862020 0.003658 0.506862
vn 0.728145 0.041956 0.684138
vn 0.728145 0.041956 0.684138
vn 0.728145 0.041956 0.684138
vn 0.728145 0.041956 0.684138
vn -0.790753 -0.612002 0.012765
vn -0.790753 -0.612002 0.012765
vn -0.790753 -0.612002 0.012765
vn -0.790753 -0.612002 0.012765
vn -0.004309 -0.491267 -0.870999
vn -0.004309 -0.491267 -0.870999
vn -0.004309 -0.491267 -0.870999
vn -0.004309 -0.491267 -0.870999
vn -0.004309 -0.491267 -0.870999
vn 0.830103 -0.557593 0.004357
vn 0.830103 -0.557593 0.004357
vn 0.830103 -0.557593 0.004357
vn 0.830103 -0.557593 0.004357
vn 0.830103 -0.557593 0.004357
vn 0.781773 -0.442800 0.439045
vn 0.781773 -0.442800 0.439045
vn 0.781773 -0.442800 0.439045
vn 0.781773 -0.442800 0.439045
vn -0.807361 -0.422006 0.412406
vn -0.807361 -0.422006 0.412406
vn -0.807361 -0.422006 0.412406
vn -0.807361 -0.422006 0.412406
vn -0.876582 -0.480648 0.024131
vn -0.876582 -0.480648 0.024131
vn -0.876582 -0.480648 0.024131
vn -0.876582 -0.480648 0.024131
vn -0.876582 -0.480648 0.024131
vn -0.743629 -0.528424 0.409614
vn -0.743629 -0.528424 0.409614
vn -0.743629 -0.528424 0.409614
vn -0.743629 -0.528424 0.409614
vn -0.743629 -0.528424 0.409614
vn -0.000000 -0.707106 0.707108
vn -0.000000 -0.707106 0.707108
vn -0.000000 -0.707106 0.707108
vn -0.000000 -0.707106 0.707108
vn -0.000000 -0.707106 0.707108
vn -0.008141 -0.999882 -0.013069
vn -0.008141 -0.999882 -0.013069
vn -0.008141 -0.999882 -0.013069
vn -0.008141 -0.999882 -0.013069
vn -0.008141 -0.999882 -0.013069
vn -0.008141 -0.999882 -0.013069
vn 0.533116 -0.823872 0.192413
vn 0.533116 -0.823872 0.192413
vn 0.533116 -0.823872 0.192413
vn -0.077918 -0.634764 -0.768768
vn -0.077918 -0.634764 -0.768768
vn -0.077918 -0.634764 -0.768768
vn -0.011319 -0.602283 0.798202
vn -0.011319 -0.602283 0.798202
vn -0.011319 -0.602283 0.798202
vn -0.011319 -0.602283 0.798202
vn -0.011319 -0.602283 0.798202
vn 0.000000 -1.000000 0.000000
vn 0.000000 -1.000000 0.000000
vn 0.000000 -1.000000 0.000000
vn 0.000000 -1.000000 0.000000
vn 0.000000 -1.000000 0.000000
vn 0.005744 -0.999905 -0.012535
vn 0.005744 -0.999905 -0.012535
vn 0.005744 -0.999905 -0.012535
vn 0.005744 -0.999905 -0.012535
vn 0.872071 -0.489374 -0.002342
vn 0.872071 -0.489374 -0.002342
vn 0.872071 -0.489374 -0.002342
vn 0.872071 -0.489374 -0.002342
vn 0.872071 -0.489374 -0.002342
vn 0.435303 -0.715106 0.546932
vn 0.435302 -0.715106 0.546932
vn 0.435303 -0.715106 0.546932
vn 0.422480 0.172604 0.889786
vn 0.422480 0.172604 0.889786
vn 0.422480 0.172604 0.889786
vn -0.282239 -0.308293 0.908459
vn -0.282239 -0.308293 0.908458
vn -0.282239 -0.308293 0.908459
vn 0.120423 0.322779 0.938782
vn 0.120423 0.322779 0.938782
vn 0.120423 0.322779 0.938782
vn 0.038223 0.778605 0.626349
vn 0.038223 0.778605 0.626349
vn 0.038223 0.778605 0.626349
vn 0.038223 0.778605 0.626349
vn 0.000000 0.886235 0.463236
vn 0.000000 0.886235 0.463236
vn 0.000000 0.886235 0.463236
vn 0.000000 0.886235 0.463236
vn 0.000000 0.000000 1.000000
vn 0.000000 0.000000 1.000000
vn 0.000000 0.000000 1.000000
vn 0.000000 0.000000 1.000000
vn -0.001380 0.000981 0.999999
vn -0.001380 0.000981 0.999999
vn -0.001380 0.000981 0.999999
vn -0.001380 0.000981 0.999999
vn -0.001380 0.000981 0.999999
vn 0.006389 -0.999969 -0.004702
vn 0.006389 -0.999969 -0.004702
vn 0.006389 -0.999969 -0.004702
vn -0.091925 0.491444 0.866044
vn -0.091925 0.491444 0.866044
vn -0.091925 0.491444 0.866044
vn 0.000000 -0.707104 0.707109
vn 0.000000 -0.707104 0.707109
vn 0.000000 -0.707104 0.707109
vn 0.000000 -0.707104 0.707109
vn 0.000004 -0.707107 0.707107
vn 0.000004 -0.707107 0.707107
vn 0.000004 -0.707107 0.707107
vn 0.000004 -0.707107 0.707107
vn 0.000003 -0.707107 0.707107
vn 0.000003 -0.707107 0.707107
vn 0.000003 -0.707107 0.707107
vn 0.000003 -0.707107 0.707107
vn -0.000000 -0.707107 0.707107
vn -0.000000 -0.707107 0.707107
vn -0.000000 -0.707107 0.707107
vn -0.000000 -0.707107 0.707107
vn 0.770783 -0.417774 0.480997
vn 0.770783 -0.417774 0.480997
vn 0.770783 -0.417774 0.480997
vn 0.770783 -0.417774 0.480997
vn -0.733929 -0.448974 0.509677
vn -0.733929 -0.448974 0.509677
vn -0.733929 -0.448974 0.509677
vn -0.733929 -0.448974 0.509677
vn -0.639864 -0.506719 0.577763
vn -0.639864 -0.506719 0.577763
vn -0.639864 -0.506719 0.577763
vn -0.639864 -0.506719 0.577763
vn -0.000001 -0.707107 0.707107
vn -0.000001 -0.707107 0.707107
vn -0.000001 -0.707107 0.707107
vn -0.000001 -0.707107 0.707107
vn 0.000002 -0.707107 0.707107
vn 0.000002 -0.707107 0.707107
vn 0.000002 -0.707107 0.707107
vn 0.000002 -0.707107 0.707107
vn 0.000000 -0.707107 0.707106
vn 0.000000 -0.707107 0.707106
vn 0.000000 -0.707107 0.707106
vn 0.000000 -0.707107 0.707106
vn -0.774850 -0.478101 0.413555
vn -0.774850 -0.478101 0.413555
vn -0.774850 -0.478101 0.413555
vn -0.774850 -0.478101 0.413555
vn 0.001005 -0.720400 0.693558
vn 0.001005 -0.720400 0.693558
vn 0.001005 -0.720400 0.693558
vn 0.001005 -0.720400 0.693558
vn 0.000002 -0.707108 0.707106
vn 0.000002 -0.707108 0.707106
vn 0.000002 -0.707108 0.707106
vn 0.000002 -0.707108 0.707106
vn 0.691943 -0.532457 0.487549
vn 0.691943 -0.532457 0.487549
vn 0.691943 -0.532457 0.487549
vn 0.691943 -0.532457 0.487549
vn -0.675399 -0.516415 0.526452
vn -0.675399 -0.516415 0.526452
vn -0.675399 -0.516415 0.526452
vn -0.675399 -0.516415 0.526452
vn -0.000001 -0.707106 0.707107
vn -0.000001 -0.707106 0.707107
vn -0.000001 -0.707106 0.707107
vn -0.000001 -0.707106 0.707107
vn -0.013793 -0.513155 0.858185
vn -0.013793 -0.513156 0.858185
vn -0.013793 -0.513156 0.858185
vn -0.013793 -0.513156 0.858185
vn 0.445811 -0.017855 0.894949
vn 0.445811 -0.017855 0.894949
vn 0.445811 -0.017855 0.894949
vn 0.445811 -0.017855 0.894949
vn -0.515893 -0.024637 0.856299
vn -0.515893 -0.024637 0.856299
vn -0.515893 -0.024637 0.856299
vn -0.515893 -0.024637 0.856299
vn 0.513855 -0.857683 -0.018264
vn 0.513855 -0.857683 -0.018264
vn 0.513855 -0.857683 -0.018264
vn 0.513855 -0.857683 -0.018264
vn 0.005168 -0.771750 0.635905
vn 0.005168 -0.771750 0.635905
vn 0.005168 -0.771750 0.635905
vn 0.005168 -0.771750 0.635905
vn -0.510771 -0.859694 -0.006311
vn -0.510771 -0.859694 -0.006311
vn -0.510771 -0.859694 -0.006311
vn -0.510771 -0.859694 -0.006311
vn -0.547945 -0.580827 0.601994
vn -0.547945 -0.580827 0.601994
vn -0.547945 -0.580827 0.601994
vn -0.547945 -0.580827 0.601994
vn 0.565424 -0.587539 0.578873
vn 0.565424 -0.587539 0.578873
vn 0.565424 -0.587539 0.578873
vn 0.565424 -0.587539 0.578873
vn -0.590607 -0.594437 0.545736
vn -0.590607 -0.594437 0.545736
vn -0.590607 -0.594437 0.545736
vn -0.590607 -0.594437 0.545736
vn 0.588434 -0.550394 0.592295
vn 0.588434 -0.550393 0.592295
vn 0.588434 -0.550393 0.592295
vn 0.588434 -0.550394 0.592295
vn -0.570424 -0.574557 0.586942
vn -0.570424 -0.574557 0.586942
vn -0.570424 -0.574557 0.586942
vn -0.570424 -0.574557 0.586942
vn 0.546567 -0.591122 0.593160
vn 0.546567 -0.591122 0.593160
vn 0.546567 -0.591122 0.593160
vn 0.546567 -0.591122 0.593160
s off
f 78/125/1 79/126/2 80/127/3 81/128/4
f 82/129/5 83/130/6 84/131/7 85/132/8
f 82/129/9 85/132/10 86/133/11 87/134/12
f 1/1/13 3/3/14 10/10/15 9/9/16
f 3/3/17 8/8/18 11/11/19 10/10/20
f 7/7/21 1/1/22 9/9/23 12/12/24
f 6/6/25 4/4/26 14/14/27 13/13/28
f 4/4/29 2/2/30 15/15/31 14/14/32
f 2/2/33 5/5/34 16/16/35 15/15/36
f 5/5/37 58/58/38 60/60/39 16/16/40
f 8/8/41 69/69/42 71/71/43 11/11/44
f 9/9/45 10/10/46 18/18/47 53/53/48 52/52/49
f 10/10/50 11/11/51 50/50/52 51/51/53 18/18/54
f 12/12/55 9/9/56 52/52/57 17/17/58 20/20/59
f 47/47/60 48/48/61 22/22/62
f 11/11/63 71/71/64 61/61/65 13/13/66 21/21/67 67/67/68 77/77/69 49/49/70 50/50/71
f 57/78/72 53/79/73 18/80/74
f 18/80/75 51/81/76 19/82/77 27/83/78 26/84/79
f 20/85/80 17/86/81 25/87/82 28/88/83
f 43/43/84 41/41/85 24/24/86
f 24/24/87 42/42/88 43/43/89
f 19/82/90 49/89/91 77/90/92 74/91/93 27/83/94
f 33/33/95 56/56/96 34/34/97
f 26/26/98 27/27/99 35/35/100 34/34/101
f 28/28/102 25/25/103 33/33/104 36/36/105
f 29/29/106 30/30/107 38/38/108 37/37/109
f 30/30/110 46/46/111 31/31/112 39/39/113 38/38/114
f 31/31/115 44/44/116 32/32/117 40/40/118 39/39/119
f 32/32/120 63/63/121 65/65/122 40/40/123
f 27/27/124 74/74/125 76/76/126 35/35/127
f 15/15/128 16/16/129 24/24/130 41/41/131 23/23/132
f 16/16/133 60/60/134 62/62/135 42/42/136 24/24/137
f 43/92/138 42/93/139 62/94/140 63/95/141 32/96/142
f 23/97/143 41/98/144 43/92/145 32/96/146 44/99/147 45/100/148
f 45/45/149 44/44/150 31/31/151
f 46/46/152 45/45/153 31/31/154
f 14/14/155 15/15/156 23/23/157 48/48/158 47/47/159
f 30/101/160 48/102/161 23/97/162 45/100/163 46/103/164
f 21/104/165 22/105/166 30/101/167 29/106/168
f 13/13/169 14/14/170 47/47/171 22/22/172 21/21/173
f 50/50/174 49/49/175 19/19/176
f 51/51/177 50/50/178 19/19/179
f 52/52/180 53/53/181 17/17/182
f 54/54/183 57/57/184 56/56/185
f 25/25/186 54/54/187 56/56/188 33/33/189
f 34/34/190 56/56/191 55/55/192 26/26/193
f 57/78/194 18/80/195 26/84/196 55/107/197
f 17/86/198 53/79/199 57/78/200 54/108/201 25/87/202
f 22/105/203 48/102/204 30/101/205
f 56/56/206 57/57/207 55/55/208
f 87/134/209 86/133/210 88/135/211 89/136/212
f 60/60/213 58/58/214 68/68/215 70/70/216
f 61/61/217 59/59/218 6/6/219 13/13/220
f 64/109/221 67/110/222 21/104/223 29/106/224
f 65/65/225 63/63/226 73/73/227 75/75/228
f 66/66/229 64/64/230 29/29/231 37/37/232
f 62/62/233 60/60/234 70/70/235 72/72/236
f 63/95/237 62/94/238 72/111/239 73/112/240
f 71/71/241 69/69/242 59/59/243 61/61/244
f 74/91/245 77/90/246 67/110/247 64/109/248
f 76/76/249 74/74/250 64/64/251 66/66/252
f 89/136/253 88/135/254 81/128/255 80/127/256
f 70/70/257 68/68/258 7/7/259 12/12/260
f 75/75/261 73/73/262 28/28/263 36/36/264
f 72/72/265 70/70/266 12/12/267 20/20/268
f 73/112/269 72/111/270 20/85/271 28/88/272
f 33/33/273 34/34/274 79/114/275 78/113/276
f 34/34/277 35/35/278 80/115/279 79/114/280
f 36/36/281 33/33/282 78/113/283 81/116/284
f 37/37/285 38/38/286 83/118/287 82/117/288
f 38/38/289 39/39/290 84/119/291 83/118/292
f 39/39/293 40/40/294 85/120/295 84/119/296
f 40/40/297 65/65/298 86/121/299 85/120/300
f 66/66/301 37/37/302 82/117/303 87/122/304
f 65/65/305 75/75/306 88/123/307 86/121/308
f 76/76/309 66/66/310 87/122/311 89/124/312
f 75/75/313 36/36/314 81/116/315 88/123/316
f 35/35/317 76/76/318 89/124/319 80/115/320
