# This file uses centimeters as units for non-parametric coordinates.

v -0.274244 0.766044 0.389556
v 0.265668 0.641644 0.413460
v 0.397101 0.430418 0.383287
v -0.178024 -0.444293 0.413749
v 0.106293 -0.345527 0.413578
v -0.338626 0.456510 0.413398
v 0.351335 0.135735 0.413835
v -0.351539 -0.549155 0.408014
v 0.413166 -0.549007 0.364279
v -0.067627 -0.789762 0.413761
v 0.411333 -0.371053 0.397927
v 0.216601 -0.769786 0.387416
v -0.386482 -0.766920 0.219304
v 0.403834 0.690518 0.229680
v 0.207000 -0.789750 0.310329
v -0.366920 -0.362369 0.394594
v -0.363106 0.063365 0.398392
v -0.387343 0.749643 0.387073
v -0.413847 0.530619 0.312970
v -0.412119 -0.615153 0.326623
v 0.377395 0.758053 0.190320
v -0.265272 0.782171 0.165419
v 0.412283 -0.771154 -0.003757
v 0.244999 0.788964 0.284518
v 0.401119 0.004036 -0.165401
v -0.413844 -0.074046 0.119541
v 0.413835 -0.370192 -0.094035
v 0.411834 -0.134080 -0.338101
v -0.413486 0.727866 0.041811
v -0.374317 0.776057 -0.244002
v 0.412607 0.783995 -0.192551
v 0.405627 -0.778253 -0.298996
v -0.413568 -0.210059 -0.139999
v 0.193661 -0.789757 -0.246006
v -0.205170 -0.789765 -0.258217
v 0.407129 0.664693 -0.407486
v -0.413834 -0.789137 -0.141212
v -0.191882 0.789611 -0.265730
v -0.151736 -0.087715 -0.377147
v -0.411119 0.747863 -0.348061
v 0.390559 0.303375 -0.374559
v -0.411118 -0.124669 -0.335081
v -0.314198 0.747983 -0.400469
v -0.407987 -0.322088 -0.374134
v 0.325300 -0.770693 -0.410507
v -0.382853 0.136790 -0.410230
v 0.362700 -0.043405 -0.412767
v -0.326005 -0.504266 -0.412742
v 0.130877 0.745045 -0.408075
v 0.165497 0.160422 -0.413260
v -0.140445 -0.187842 -0.407640
v -0.067622 -0.632859 -0.413424
vt 0.211594 0.300503
vt 0.211594 0.300503
vt 0.211594 0.280533
vt 0.211594 0.300503
vt 0.211594 0.300503
vt 0.211594 0.280533
vt 0.211594 0.300503
vt 0.211594 0.300503
vt 0.211594 0.280533
vt 0.211594 0.300503
vt 0.211594 0.280533
vt 0.211594 0.280533
vt 0.211594 0.300503
vt 0.211594 0.280533
vt 0.211594 0.300503
vt 0.211594 0.300503
vt 0.211594 0.300503
vt 0.211594 0.280533
vt 0.211594 0.280533
vt 0.211594 0.280533
vt 0.211594 0.300503
vt 0.211594 0.300503
vt 0.211594 0.300503
vt 0.211594 0.280533
vt 0.211594 0.300503
vt 0.211594 0.280533
vt 0.211594 0.300503
vt 0.211594 0.280533
vt 0.211594 0.280533
vt 0.211594 0.300503
vt 0.211594 0.300503
vt 0.211594 0.300503
vt 0.211594 0.280533
vt 0.211594 0.280533
vt 0.211594 0.280533
vt 0.211594 0.300503
vt 0.211594 0.280533
vt 0.211594 0.280533
vt 0.211594 0.280533
vt 0.211594 0.300503
vt 0.211594 0.300503
vt 0.211594 0.300503
vt 0.211594 0.300503
vt 0.211594 0.280533
vt 0.211594 0.300503
vt 0.211594 0.300503
vt 0.211594 0.280533
vt 0.211594 0.300503
vt 0.211594 0.300503
vt 0.211594 0.300503
vt 0.211594 0.280533
vt 0.211594 0.300503
vt 0.211594 0.280533
vt 0.211594 0.300503
vt 0.211594 0.280533
vt 0.211594 0.280533
vt 0.211594 0.280533
vt 0.211594 0.280533
vt 0.211594 0.280533
vt 0.211594 0.300503
vt 0.211594 0.280533
vt 0.211594 0.280533
vt 0.211594 0.280533
vt 0.211594 0.280533
vt 0.211594 0.300503
vt 0.211594 0.280533
vt 0.211594 0.280533
vt 0.211594 0.280533
vt 0.211594 0.280533
vt 0.211594 0.280533
vt 0.211594 0.280533
vt 0.211594 0.280533
vt 0.211594 0.280533
vt 0.211594 0.280533
vt 0.211594 0.280533
vt 0.211594 0.280533
vt 0.211594 0.280533
vt 0.211594 0.280533
vt 0.211594 0.280533
vt 0.211594 0.300503
vt 0.211594 0.280533
vt 0.211594 0.280533
vt 0.211594 0.280533
vt 0.211594 0.280533
vt 0.211594 0.280533
vt 0.211594 0.280533
vt 0.211594 0.280533
vt 0.211594 0.280533
vt 0.211594 0.300503
vt 0.211594 0.280533
vt 0.211594 0.280533
vt 0.211594 0.280533
vt 0.211594 0.300503
vt 0.211594 0.280533
vt 0.211594 0.280533
vt 0.211594 0.280533
vt 0.211594 0.280533
vt 0.211594 0.300503
vt 0.211594 0.280533
vt 0.211594 0.280533
vt 0.211594 0.280533
vt 0.211594 0.280533
vt 0.211594 0.280533
vt 0.211594 0.300503
vt 0.211594 0.280533
vt 0.211594 0.280533
vt 0.211594 0.280533
vt 0.211594 0.300503
vt 0.211594 0.280534
vt 0.211594 0.280534
vt 0.211594 0.280534
vt 0.211594 0.280533
vt 0.211594 0.280533
vt 0.211594 0.280533
vt 0.211594 0.280533
vt 0.211594 0.280533
vt 0.211594 0.280533
vt 0.211594 0.280533
vt 0.211594 0.280533
vt 0.211594 0.300503
vt 0.211594 0.280533
vt 0.211594 0.280533
vt 0.211594 0.280533
vt 0.211594 0.280533
vt 0.211594 0.280533
vt 0.211594 0.280533
vt 0.211594 0.280533
vt 0.211594 0.280533
vt 0.211594 0.280533
vt 0.211594 0.280533
vt 0.211594 0.300503
vt 0.211594 0.280533
vt 0.211594 0.280533
vt 0.211594 0.300503
vt 0.211594 0.280533
vt 0.211594 0.280533
vt 0.211594 0.280533
vt 0.211594 0.280533
vt 0.211594 0.280533
vt 0.211594 0.300503
vt 0.211594 0.280533
vt 0.211594 0.280533
vt 0.211594 0.280533
vt 0.211594 0.300503
vt 0.211594 0.280533
vt 0.211594 0.280533
vt 0.211594 0.280533
vt 0.211594 0.280533
vt 0.211594 0.280533
vt 0.211594 0.300503
vt 0.211594 0.280533
vt 0.211594 0.280533
vt 0.211594 0.280533
vt 0.211594 0.280533
vt 0.211594 0.280533
vt 0.211594 0.300503
vt 0.211594 0.280533
vt 0.211594 0.280533
vt 0.211594 0.300503
vt 0.211594 0.280533
vt 0.211594 0.280533
vt 0.211594 0.280533
vt 0.211594 0.300503
vt 0.211594 0.280533
vt 0.211594 0.280533
vt 0.211594 0.300503
vt 0.211594 0.280533
vt 0.211594 0.280533
vt 0.211594 0.300503
vt 0.211594 0.280533
vn -0.025220 0.081987 0.996314
vn -0.025220 0.081987 0.996314
vn -0.025220 0.081987 0.996314
vn -0.158211 -0.027822 0.987013
vn -0.158211 -0.027822 0.987013
vn -0.158211 -0.027822 0.987013
vn -0.000822 0.000602 1.000000
vn -0.000822 0.000602 0.999999
vn -0.000822 0.000602 1.000000
vn -0.000210 0.000352 1.000000
vn -0.000210 0.000352 1.000000
vn -0.000210 0.000352 1.000000
vn 0.000954 -0.001019 0.999999
vn 0.000954 -0.001019 0.999999
vn 0.000954 -0.001019 0.999999
vn 0.049092 -0.025528 0.998468
vn 0.049092 -0.025528 0.998468
vn 0.049092 -0.025528 0.998468
vn 0.000529 0.000205 1.000000
vn 0.000529 0.000205 1.000000
vn 0.000529 0.000205 1.000000
vn -0.072495 0.065534 0.995213
vn -0.072495 0.065534 0.995213
vn -0.072495 0.065534 0.995213
vn -0.027706 -0.008818 0.999577
vn -0.027706 -0.008818 0.999577
vn -0.027706 -0.008818 0.999577
vn 0.097173 -0.073622 0.992541
vn 0.097173 -0.073622 0.992541
vn 0.097173 -0.073622 0.992541
vn -0.034017 0.083785 0.995903
vn -0.034017 0.083785 0.995903
vn -0.034017 0.083785 0.995903
vn 0.049643 -0.019024 0.998586
vn 0.049643 -0.019024 0.998586
vn 0.049643 -0.019024 0.998586
vn -0.467533 -0.534870 0.703794
vn -0.467533 -0.534870 0.703794
vn -0.467533 -0.534870 0.703794
vn -0.827258 -0.087650 0.554943
vn -0.827258 -0.087650 0.554943
vn -0.827258 -0.087650 0.554943
vn 0.301799 0.051809 0.951963
vn 0.301799 0.051810 0.951963
vn 0.301799 0.051809 0.951963
vn -0.793512 -0.021646 0.608170
vn -0.793512 -0.021646 0.608170
vn -0.793512 -0.021646 0.608170
vn 0.090114 -0.966791 0.239155
vn 0.090114 -0.966791 0.239155
vn 0.090114 -0.966791 0.239155
vn 0.120134 0.663331 0.738620
vn 0.120134 0.663331 0.738620
vn 0.120134 0.663331 0.738620
vn -0.790847 0.025904 0.611466
vn -0.790847 0.025904 0.611466
vn -0.790847 0.025904 0.611466
vn -0.355260 -0.578965 0.733887
vn -0.355260 -0.578965 0.733887
vn -0.355260 -0.578965 0.733887
vn 0.305487 -0.173872 0.936187
vn 0.305487 -0.173872 0.936187
vn 0.305487 -0.173872 0.936187
vn -0.027242 -0.997000 -0.072446
vn -0.027242 -0.997000 -0.072446
vn -0.027242 -0.997000 -0.072446
vn 0.702387 0.348389 0.620708
vn 0.702387 0.348389 0.620708
vn 0.702387 0.348389 0.620708
vn 0.442359 0.024231 0.896510
vn 0.442359 0.024231 0.896510
vn 0.442359 0.024231 0.896510
vn -0.104289 -0.007937 0.994515
vn -0.104289 -0.007937 0.994515
vn -0.104289 -0.007937 0.994515
vn -0.975234 -0.067393 0.210659
vn -0.975234 -0.067393 0.210659
vn -0.975234 -0.067393 0.210659
vn -0.029741 0.997065 0.070553
vn -0.029741 0.997065 0.070553
vn -0.029741 0.997065 0.070553
vn 0.554792 0.590671 0.585930
vn 0.554792 0.590671 0.585930
vn 0.554791 0.590671 0.585930
vn 0.578314 0.567813 0.585783
vn 0.578314 0.567813 0.585783
vn 0.578314 0.567813 0.585783
vn 0.999943 0.009335 0.005101
vn 0.999943 0.009335 0.005101
vn 0.999943 0.009335 0.005101
vn 0.748652 -0.658444 0.077276
vn 0.748652 -0.658444 0.077276
vn 0.748652 -0.658444 0.077276
vn -0.984444 0.007253 0.175551
vn -0.984444 0.007253 0.175551
vn -0.984444 0.007253 0.175551
vn -0.144608 0.987335 0.065254
vn -0.144608 0.987335 0.065254
vn -0.144608 0.987335 0.065254
vn -0.992906 0.096779 0.069076
vn -0.992906 0.096779 0.069076
vn -0.992906 0.096779 0.069076
vn 0.999824 0.017637 -0.006384
vn 0.999824 0.017637 -0.006384
vn 0.999824 0.017637 -0.006384
vn -0.958368 0.099386 0.267680
vn -0.958368 0.099386 0.267680
vn -0.958368 0.099386 0.267680
vn 0.999993 -0.003882 -0.000056
vn 0.999993 -0.003882 -0.000056
vn 0.999993 -0.003882 -0.000056
vn -0.999999 0.000342 -0.001084
vn -0.999999 0.000342 -0.001084
vn -0.999999 0.000342 -0.001084
vn 0.654625 -0.647889 0.389496
vn 0.654625 -0.647889 0.389496
vn 0.654625 -0.647889 0.389496
vn -0.970238 -0.225784 0.087524
vn -0.970238 -0.225784 0.087524
vn -0.970238 -0.225784 0.087524
vn -0.999995 -0.002994 0.000507
vn -0.999995 -0.002994 0.000507
vn -0.999995 -0.002994 0.000507
vn -0.999698 -0.020005 -0.014261
vn -0.999698 -0.020005 -0.014261
vn -0.999698 -0.020005 -0.014261
vn -0.193987 0.980305 0.037028
vn -0.193987 0.980305 0.037028
vn -0.193987 0.980305 0.037028
vn -0.736487 0.676325 0.013106
vn -0.736487 0.676325 0.013106
vn -0.736487 0.676324 0.013106
vn -0.999999 0.000328 -0.001234
vn -0.999999 0.000328 -0.001234
vn -0.999999 0.000328 -0.001234
vn 0.999376 0.034937 0.005143
vn 0.999376 0.034937 0.005143
vn 0.999376 0.034937 0.005143
vn 0.087068 -0.996200 -0.002076
vn 0.087068 -0.996200 -0.002076
vn 0.087068 -0.996200 -0.002076
vn 0.030192 -0.997789 0.059200
vn 0.030192 -0.997790 0.059200
vn 0.030192 -0.997789 0.059200
vn 0.901684 0.417842 0.111239
vn 0.901684 0.417842 0.111239
vn 0.901684 0.417842 0.111239
vn 0.287386 0.953479 0.091035
vn 0.287386 0.953479 0.091035
vn 0.287386 0.953479 0.091035
vn 0.998755 0.039697 0.030216
vn 0.998755 0.039697 0.030216
vn 0.998755 0.039697 0.030216
vn -0.999926 0.012101 -0.000836
vn -0.999926 0.012101 -0.000836
vn -0.999927 0.012101 -0.000836
vn 0.999714 -0.014775 0.018802
vn 0.999714 -0.014775 0.018802
vn 0.999714 -0.014775 0.018802
vn -0.010055 0.999852 -0.013948
vn -0.010055 0.999852 -0.013948
vn -0.010055 0.999852 -0.013948
vn -0.666838 0.744421 0.034133
vn -0.666838 0.744421 0.034133
vn -0.666838 0.744421 0.034133
vn 0.059819 -0.997952 0.022649
vn 0.059819 -0.997952 0.022649
vn 0.059819 -0.997952 0.022649
vn -0.001425 -0.998882 0.047248
vn -0.001425 -0.998882 0.047248
vn -0.001425 -0.998882 0.047248
vn -0.073535 0.997282 0.004693
vn -0.073535 0.997282 0.004693
vn -0.073535 0.997282 0.004693
vn -0.038584 -0.999255 0.000937
vn -0.038584 -0.999255 0.000937
vn -0.038584 -0.999255 0.000937
vn 0.998201 -0.059477 0.007573
vn 0.998201 -0.059477 0.007573
vn 0.998201 -0.059477 0.007573
vn 0.007056 0.999805 0.018455
vn 0.007056 0.999805 0.018455
vn 0.007056 0.999805 0.018455
vn -0.992159 0.118594 0.039445
vn -0.992159 0.118594 0.039445
vn -0.992159 0.118594 0.039445
vn 0.999711 -0.008895 -0.022323
vn 0.999711 -0.008895 -0.022323
vn 0.999711 -0.008895 -0.022323
vn 0.921381 0.329406 -0.206276
vn 0.921381 0.329406 -0.206276
vn 0.921381 0.329406 -0.206276
vn -0.099061 0.968739 -0.227447
vn -0.099061 0.968739 -0.227447
vn -0.099061 0.968739 -0.227447
vn 0.065498 -0.914420 -0.399433
vn 0.065498 -0.914420 -0.399433
vn 0.065498 -0.914420 -0.399433
vn 0.999960 -0.007096 0.005459
vn 0.999960 -0.007096 0.005459
vn 0.999960 -0.007096 0.005459
vn -0.999981 0.001253 -0.006007
vn -0.999981 0.001253 -0.006007
vn -0.999981 0.001253 -0.006007
vn -0.699073 0.135009 -0.702189
vn -0.699073 0.135009 -0.702189
vn -0.699073 0.135009 -0.702189
vn -0.451155 0.800801 -0.393925
vn -0.451155 0.800801 -0.393925
vn -0.451155 0.800801 -0.393925
vn 0.999769 -0.010762 -0.018607
vn 0.999769 -0.010762 -0.018607
vn 0.999769 -0.010762 -0.018607
vn -0.405862 -0.561902 -0.720793
vn -0.405862 -0.561902 -0.720793
vn -0.405862 -0.561902 -0.720793
vn 0.031478 -0.995429 -0.090170
vn 0.031478 -0.995429 -0.090170
vn 0.031478 -0.995429 -0.090170
vn 0.987923 -0.063808 -0.141198
vn 0.987923 -0.063808 -0.141198
vn 0.987923 -0.063808 -0.141198
vn 0.036071 0.974107 -0.223193
vn 0.036071 0.974107 -0.223193
vn 0.036071 0.974107 -0.223193
vn 0.001242 0.955119 -0.296220
vn 0.001242 0.955119 -0.296220
vn 0.001242 0.955119 -0.296220
vn -0.988035 -0.030318 -0.151220
vn -0.988035 -0.030318 -0.151220
vn -0.988035 -0.030318 -0.151220
vn 0.809240 -0.043363 -0.585876
vn 0.809240 -0.043363 -0.585876
vn 0.809240 -0.043363 -0.585876
vn -0.810834 -0.253042 -0.527748
vn -0.810834 -0.253042 -0.527748
vn -0.810834 -0.253042 -0.527748
vn -0.273212 -0.544755 -0.792841
vn -0.273212 -0.544755 -0.792841
vn -0.273212 -0.544755 -0.792841
vn 0.989566 -0.057424 -0.132144
vn 0.989566 -0.057424 -0.132144
vn 0.989566 -0.057424 -0.132144
vn -0.109886 0.973411 -0.200989
vn -0.109886 0.973411 -0.200989
vn -0.109886 0.973411 -0.200989
vn -0.474636 0.067330 -0.877603
vn -0.474636 0.067330 -0.877603
vn -0.474636 0.067330 -0.877603
vn 0.106302 0.100455 -0.989247
vn 0.106302 0.100455 -0.989247
vn 0.106302 0.100455 -0.989247
vn 0.809530 -0.043449 -0.585469
vn 0.809530 -0.043449 -0.585469
vn 0.809530 -0.043449 -0.585469
vn 0.003463 -0.993659 -0.112385
vn 0.003463 -0.993659 -0.112385
vn 0.003463 -0.993659 -0.112385
vn -0.117916 -0.262514 -0.957696
vn -0.117916 -0.262514 -0.957696
vn -0.117916 -0.262514 -0.957696
vn -0.202344 -0.593313 -0.779126
vn -0.202344 -0.593313 -0.779126
vn -0.202344 -0.593313 -0.779126
vn 0.246689 0.844638 -0.475112
vn 0.246689 0.844638 -0.475112
vn 0.246689 0.844638 -0.475112
vn 0.141607 -0.000097 -0.989923
vn 0.141607 -0.000097 -0.989923
vn 0.141607 -0.000097 -0.989923
vn -0.184204 0.123746 -0.975067
vn -0.184204 0.123746 -0.975067
vn -0.184204 0.123746 -0.975067
vn 0.004796 0.009153 -0.999947
vn 0.004796 0.009153 -0.999947
vn 0.004796 0.009153 -0.999947
vn 0.229242 -0.098758 -0.968347
vn 0.229242 -0.098758 -0.968347
vn 0.229242 -0.098758 -0.968347
vn -0.017036 0.007859 -0.999824
vn -0.017036 0.007859 -0.999824
vn -0.017036 0.007859 -0.999824
vn -0.079538 -0.043255 -0.995893
vn -0.079538 -0.043255 -0.995893
vn -0.079538 -0.043255 -0.995893
vn -0.298257 0.247132 -0.921937
vn -0.298257 0.247132 -0.921938
vn -0.298257 0.247132 -0.921937
vn -0.007432 -0.009610 -0.999926
vn -0.007432 -0.009610 -0.999926
vn -0.007432 -0.009610 -0.999926
vn 0.004166 0.013680 -0.999898
vn 0.004166 0.013680 -0.999898
vn 0.004166 0.013680 -0.999898
vn -0.013297 0.010822 -0.999853
vn -0.013297 0.010822 -0.999853
vn -0.013297 0.010822 -0.999853
vn 0.006222 -0.003428 -0.999975
vn 0.006222 -0.003428 -0.999975
vn 0.006222 -0.003428 -0.999975
s off
f 1/1/1 6/2/2 2/150/3
f 4/4/4 6/2/5 17/5/6
f 7/169/7 2/150/8 4/4/9
f 2/150/10 6/2/11 4/4/12
f 5/7/13 7/169/14 4/4/15
f 7/169/16 5/7/17 11/156/18
f 5/7/19 4/4/20 10/163/21
f 4/4/22 16/10/23 8/166/24
f 4/4/25 8/166/26 10/163/27
f 11/156/28 10/163/29 12/159/30
f 1/1/31 18/13/32 6/2/33
f 5/7/34 10/163/35 11/156/36
f 8/167/37 13/122/38 10/162/39
f 18/13/40 19/15/41 6/2/42
f 2/149/43 7/170/44 3/153/45
f 8/165/46 16/158/47 20/145/48
f 15/125/49 12/12/50 10/164/51
f 2/151/52 24/133/53 1/168/54
f 17/5/55 6/2/56 19/15/57
f 8/11/58 20/146/59 13/121/60
f 11/155/61 12/160/62 9/143/63
f 15/18/64 10/9/65 13/123/66
f 2/148/67 3/154/68 14/115/69
f 3/152/70 7/6/71 11/157/72
f 16/10/73 4/4/74 17/5/75
f 19/15/76 26/22/77 17/5/78
f 22/23/79 1/1/80 24/134/81
f 2/3/82 21/136/83 24/132/84
f 21/135/85 2/147/86 14/116/87
f 27/25/88 11/8/89 9/144/90
f 9/142/91 12/161/92 15/126/93
f 17/5/94 26/22/95 16/10/96
f 22/23/97 18/13/98 1/1/99
f 18/13/100 29/131/101 19/15/102
f 3/16/103 11/8/104 25/27/105
f 16/10/106 26/22/107 20/17/108
f 27/25/109 9/144/110 23/140/111
f 19/15/112 29/131/113 26/22/114
f 15/127/115 23/139/116 9/20/117
f 20/17/118 37/104/119 13/120/120
f 26/22/121 33/30/122 20/17/123
f 20/17/124 33/30/125 44/93/126
f 30/32/127 18/13/128 22/23/129
f 18/141/130 30/112/131 29/130/132
f 26/22/133 29/131/134 33/30/135
f 25/27/136 11/8/137 27/25/138
f 15/128/139 34/101/140 23/138/141
f 37/105/142 35/85/143 13/119/144
f 21/24/145 14/117/146 31/78/147
f 21/137/148 31/79/149 24/19/150
f 28/36/151 25/27/152 27/25/153
f 44/93/154 37/104/155 20/17/156
f 25/27/157 14/21/158 3/16/159
f 31/80/160 22/23/161 24/134/162
f 30/113/163 40/97/164 29/26/165
f 32/107/166 23/28/167 34/102/168
f 34/99/169 13/14/170 35/86/171
f 38/89/172 30/32/173 22/23/174
f 13/124/175 34/100/176 15/129/177
f 31/35/178 14/118/179 36/72/180
f 31/80/181 38/89/182 22/23/183
f 46/41/184 42/42/185 33/30/186
f 27/25/187 23/140/188 32/108/189
f 28/36/190 47/43/191 25/27/192
f 38/90/193 40/96/194 30/114/195
f 42/77/196 39/66/197 33/111/198
f 36/40/199 14/21/200 25/27/201
f 29/131/202 40/98/203 33/30/204
f 33/110/205 39/67/206 51/62/207
f 44/92/208 33/109/209 51/63/210
f 28/36/211 27/25/212 32/108/213
f 35/84/214 37/106/215 48/56/216
f 45/59/217 32/38/218 34/103/219
f 47/43/220 41/48/221 25/27/222
f 49/75/223 38/88/224 31/81/225
f 49/76/226 43/68/227 38/39/228
f 40/98/229 46/41/230 33/30/231
f 45/60/232 28/36/233 32/108/234
f 37/29/235 44/94/236 48/55/237
f 48/57/238 52/51/239 35/83/240
f 41/48/241 36/40/242 25/27/243
f 43/69/244 40/95/245 38/91/246
f 40/37/247 43/70/248 46/71/249
f 50/52/250 41/48/251 47/43/252
f 47/43/253 28/36/254 45/60/255
f 45/58/256 34/33/257 35/87/258
f 46/41/259 39/65/260 42/42/261
f 35/34/262 52/53/263 45/47/264
f 36/73/265 49/74/266 31/82/267
f 43/50/268 39/65/269 46/41/270
f 44/31/271 51/45/272 48/46/273
f 49/49/274 36/40/275 50/52/276
f 50/52/277 36/40/278 41/48/279
f 49/49/280 50/52/281 43/50/282
f 43/50/283 50/52/284 39/65/285
f 50/64/286 51/61/287 39/44/288
f 50/52/289 47/43/290 51/45/291
f 51/45/292 52/54/293 48/46/294
f 51/45/295 47/43/296 52/54/297
f 47/43/298 45/60/299 52/54/300
