# This file uses centimeters as units for non-parametric coordinates.

v -0.354857 0.928787 0.022474
v -0.178862 0.812771 0.306967
v -0.245755 0.928646 0.195265
v -0.359855 0.261249 0.009140
v -0.168629 0.290136 0.316925
v -0.034616 0.188680 0.314819
v -0.224738 0.159658 0.231684
v -0.168776 -0.145138 0.317951
v -0.168238 -0.928749 0.318146
v 0.182423 0.696663 0.308010
v -0.359643 0.885330 0.009483
v -0.099352 0.927204 0.316795
v 0.180565 0.928883 0.307489
v 0.180565 -0.928883 0.307489
v -0.222916 0.928665 -0.127281
v -0.359797 -0.928757 0.008572
v -0.290261 0.783745 -0.122393
v -0.241179 -0.203193 -0.213730
v -0.359854 -0.551523 0.009138
v 0.193583 0.377359 0.301807
v 0.193583 0.145138 0.301807
v 0.193579 0.029027 0.301809
v 0.193583 -0.087083 0.301807
v 0.182423 -0.696659 0.308010
v -0.183500 -0.928883 -0.306062
v 0.193642 -0.827286 0.302150
v 0.314150 0.925293 0.069048
v -0.184023 0.624090 -0.308096
v -0.194304 -0.145138 -0.300483
v -0.194201 -0.812771 -0.300725
v 0.359634 0.478954 -0.009468
v 0.345547 -0.435413 -0.006625
v -0.184023 -0.275760 -0.308096
v -0.050926 -0.203193 -0.312210
v -0.132381 0.753242 -0.306473
v 0.029078 0.927490 -0.213177
v -0.049814 0.927139 -0.312041
v 0.019349 0.883339 -0.313049
v 0.327965 0.304484 0.054070
v 0.136882 0.928883 -0.315870
v 0.327290 0.043541 0.053488
v 0.177112 0.869827 -0.306216
v 0.315871 0.000000 -0.085537
v 0.354680 -0.319304 -0.022823
v 0.354680 -0.551523 -0.022823
v 0.359797 -0.928757 -0.008571
v 0.168774 0.551523 -0.317950
v 0.354680 0.783745 -0.022823
v 0.293491 0.319304 -0.121708
v 0.327240 0.217545 -0.058618
v 0.354680 -0.087083 -0.022823
v 0.168238 -0.928749 -0.318144
vt 0.211594 0.300503
vt 0.211594 0.280533
vt 0.211594 0.300503
vt 0.211594 0.300503
vt 0.211594 0.300503
vt 0.211594 0.300503
vt 0.211594 0.300503
vt 0.211594 0.280533
vt 0.211594 0.300503
vt 0.211594 0.300503
vt 0.211594 0.300503
vt 0.211594 0.300503
vt 0.211594 0.280533
vt 0.211594 0.300503
vt 0.211594 0.300503
vt 0.211594 0.300503
vt 0.211594 0.300503
vt 0.211594 0.300503
vt 0.211594 0.300503
vt 0.211594 0.300503
vt 0.211594 0.300503
vt 0.211594 0.300503
vt 0.211594 0.300503
vt 0.211594 0.300503
vt 0.211594 0.280534
vt 0.211594 0.300503
vt 0.211594 0.300503
vt 0.211594 0.300503
vt 0.211594 0.300503
vt 0.211594 0.300503
vt 0.211594 0.300503
vt 0.211594 0.300503
vt 0.211594 0.300503
vt 0.211594 0.300503
vt 0.211594 0.280533
vt 0.211594 0.280533
vt 0.211594 0.300503
vt 0.211594 0.300503
vt 0.211594 0.300503
vt 0.211594 0.300503
vt 0.211594 0.300503
vt 0.211594 0.300503
vt 0.211594 0.280533
vt 0.211594 0.280533
vt 0.211594 0.300503
vt 0.211594 0.300503
vt 0.211594 0.280533
vt 0.211594 0.300503
vt 0.211594 0.300503
vt 0.211594 0.300503
vt 0.211594 0.300503
vt 0.211594 0.300503
vt 0.211594 0.280533
vt 0.211594 0.280533
vt 0.211594 0.280533
vt 0.211594 0.280533
vt 0.211594 0.280533
vt 0.211594 0.300503
vt 0.211594 0.300503
vt 0.211594 0.280533
vt 0.211594 0.280533
vt 0.211594 0.280533
vt 0.211594 0.280533
vt 0.211594 0.300503
vt 0.211594 0.280533
vt 0.211594 0.280533
vt 0.211594 0.280533
vt 0.211594 0.280533
vt 0.211594 0.280533
vt 0.211594 0.280533
vt 0.211594 0.280533
vt 0.211594 0.300503
vt 0.211594 0.300503
vt 0.211594 0.280533
vt 0.211594 0.280533
vt 0.211594 0.300503
vt 0.211594 0.300503
vt 0.211594 0.280533
vt 0.211594 0.280533
vt 0.211594 0.280533
vt 0.211594 0.280533
vt 0.211594 0.280533
vt 0.211594 0.300503
vt 0.211594 0.280533
vt 0.211594 0.280533
vt 0.211594 0.300503
vt 0.211594 0.280533
vt 0.211594 0.280533
vn -0.595796 0.351963 0.721907
vn -0.595796 0.351963 0.721907
vn -0.595796 0.351963 0.721907
vn -0.843714 -0.066327 0.532680
vn -0.843714 -0.066327 0.532680
vn -0.843714 -0.066327 0.532680
vn -0.853505 0.009519 0.520998
vn -0.853505 0.009519 0.520998
vn -0.853505 0.009519 0.520998
vn -0.854575 0.000004 0.519328
vn -0.854575 0.000004 0.519328
vn -0.854575 0.000004 0.519328
vn -0.854743 0.000209 0.519051
vn -0.854743 0.000209 0.519051
vn -0.854743 0.000209 0.519051
vn -0.831255 -0.005684 0.555863
vn -0.831255 -0.005684 0.555863
vn -0.831255 -0.005684 0.555863
vn -0.854786 -0.000002 0.518981
vn -0.854786 -0.000002 0.518981
vn -0.854786 -0.000002 0.518981
vn -0.847270 -0.005234 0.531136
vn -0.847270 -0.005234 0.531136
vn -0.847270 -0.005234 0.531136
vn -0.850112 -0.000453 0.526603
vn -0.850111 -0.000453 0.526603
vn -0.850112 -0.000453 0.526603
vn -0.850366 -0.000919 0.526191
vn -0.850366 -0.000919 0.526191
vn -0.850366 -0.000919 0.526191
vn 0.019268 0.999750 -0.011348
vn 0.019268 0.999750 -0.011348
vn 0.019268 0.999750 -0.011348
vn -0.145320 0.016004 0.989255
vn -0.145320 0.016004 0.989255
vn -0.145320 0.016004 0.989255
vn -0.882661 0.000000 -0.470009
vn -0.882661 0.000000 -0.470009
vn -0.882661 0.000000 -0.470009
vn 0.028772 -0.002925 0.999582
vn 0.028772 -0.002925 0.999582
vn 0.028772 -0.002925 0.999582
vn -0.884815 0.000556 -0.465942
vn -0.884815 0.000556 -0.465942
vn -0.884815 0.000556 -0.465942
vn -0.416817 0.175883 0.891812
vn -0.416817 0.175883 0.891812
vn -0.416817 0.175883 0.891812
vn 0.019536 0.005055 0.999796
vn 0.019536 0.005055 0.999796
vn 0.019536 0.005055 0.999796
vn -0.307702 -0.424115 0.851731
vn -0.307702 -0.424115 0.851731
vn -0.307702 -0.424115 0.851731
vn 0.028715 0.000268 0.999588
vn 0.028715 0.000268 0.999588
vn 0.028715 0.000268 0.999588
vn -0.881686 0.000575 -0.471835
vn -0.881687 0.000575 -0.471835
vn -0.881686 0.000575 -0.471835
vn -0.880483 0.002506 -0.474072
vn -0.880483 0.002506 -0.474072
vn -0.880483 0.002506 -0.474072
vn -0.722375 0.269872 -0.636666
vn -0.722375 0.269872 -0.636666
vn -0.722375 0.269872 -0.636666
vn -0.719388 0.313395 -0.619891
vn -0.719388 0.313395 -0.619891
vn -0.719388 0.313395 -0.619891
vn 0.033212 0.002507 0.999445
vn 0.033212 0.002507 0.999445
vn 0.033212 0.002507 0.999445
vn 0.030536 -0.002485 0.999531
vn 0.030536 -0.002485 0.999531
vn 0.030536 -0.002485 0.999531
vn 0.003541 0.999991 0.002305
vn 0.003541 0.999991 0.002305
vn 0.003541 0.999991 0.002305
vn -0.005982 0.999982 0.000419
vn -0.005982 0.999982 0.000419
vn -0.005982 0.999982 0.000419
vn -0.870935 -0.057832 -0.487982
vn -0.870936 -0.057832 -0.487982
vn -0.870936 -0.057832 -0.487982
vn -0.864133 -0.027121 -0.502532
vn -0.864133 -0.027121 -0.502532
vn -0.864133 -0.027121 -0.502532
vn 0.000401 -1.000000 0.000625
vn 0.000401 -1.000000 0.000625
vn 0.000401 -1.000000 0.000625
vn -0.877988 0.006997 -0.478632
vn -0.877988 0.006997 -0.478632
vn -0.877988 0.006997 -0.478632
vn -0.702464 0.289053 -0.650379
vn -0.702464 0.289053 -0.650379
vn -0.702464 0.289053 -0.650379
vn 0.070841 -0.016898 0.997345
vn 0.070841 -0.016898 0.997344
vn 0.070841 -0.016898 0.997345
vn 0.056928 0.000000 0.998378
vn 0.056928 0.000000 0.998378
vn 0.056928 0.000000 0.998378
vn -0.870827 -0.007748 -0.491528
vn -0.870827 -0.007748 -0.491528
vn -0.870827 -0.007748 -0.491528
vn 0.056930 0.000015 0.998378
vn 0.056930 0.000015 0.998378
vn 0.056930 0.000015 0.998378
vn 0.056910 -0.000015 0.998379
vn 0.056910 -0.000015 0.998379
vn 0.056910 -0.000015 0.998379
vn -0.878284 0.010084 -0.478034
vn -0.878284 0.010084 -0.478034
vn -0.878284 0.010084 -0.478034
vn 0.067658 0.008913 0.997669
vn 0.067658 0.008913 0.997669
vn 0.067658 0.008913 0.997669
vn 0.026377 -0.001222 0.999651
vn 0.026377 -0.001222 0.999651
vn 0.026377 -0.001222 0.999651
vn 0.023877 0.999714 -0.001673
vn 0.023877 0.999714 -0.001673
vn 0.023877 0.999714 -0.001673
vn 0.413360 -0.005349 0.910552
vn 0.413360 -0.005349 0.910552
vn 0.413360 -0.005349 0.910552
vn -0.694717 0.300801 -0.653366
vn -0.694717 0.300801 -0.653366
vn -0.694717 0.300801 -0.653366
vn -0.695801 0.309620 -0.648071
vn -0.695801 0.309620 -0.648071
vn -0.695801 0.309620 -0.648071
vn 0.872439 0.008075 0.488656
vn 0.872439 0.008075 0.488656
vn 0.872440 0.008075 0.488656
vn -0.034314 0.042731 -0.998497
vn -0.034314 0.042731 -0.998497
vn -0.034314 0.042731 -0.998497
vn 0.879176 0.021481 0.476013
vn 0.879176 0.021481 0.476013
vn 0.879176 0.021481 0.476013
vn -0.023408 0.021921 -0.999486
vn -0.023408 0.021921 -0.999486
vn -0.023408 0.021921 -0.999486
vn 0.882308 0.000000 0.470673
vn 0.882308 0.000000 0.470673
vn 0.882308 0.000000 0.470673
vn 0.882317 -0.000021 0.470655
vn 0.882317 -0.000021 0.470655
vn 0.882317 -0.000021 0.470655
vn 0.880472 0.000021 0.474099
vn 0.880472 0.000021 0.474099
vn 0.880472 0.000021 0.474099
vn -0.332295 -0.690991 -0.641959
vn -0.332295 -0.690991 -0.641959
vn -0.332295 -0.690991 -0.641959
vn -0.023660 -0.013272 -0.999632
vn -0.023660 -0.013272 -0.999632
vn -0.023660 -0.013272 -0.999632
vn 0.891660 -0.011719 0.452554
vn 0.891660 -0.011719 0.452554
vn 0.891660 -0.011719 0.452554
vn -0.050241 -0.007008 -0.998713
vn -0.050241 -0.007008 -0.998713
vn -0.050241 -0.007008 -0.998713
vn 0.868110 0.052414 0.493596
vn 0.868110 0.052414 0.493596
vn 0.868110 0.052414 0.493596
vn -0.085024 -0.008725 -0.996341
vn -0.085024 -0.008725 -0.996341
vn -0.085024 -0.008725 -0.996341
vn -0.360223 0.621244 -0.695913
vn -0.360223 0.621244 -0.695913
vn -0.360223 0.621244 -0.695913
vn -0.000375 -1.000000 0.000257
vn -0.000375 -1.000000 0.000257
vn -0.000375 -1.000000 0.000257
vn 0.005283 0.999984 0.001820
vn 0.005283 0.999984 0.001820
vn 0.005283 0.999984 0.001820
vn -0.000010 -1.000000 -0.000404
vn -0.000010 -1.000000 -0.000404
vn -0.000010 -1.000000 -0.000404
vn -0.000001 -1.000000 -0.000024
vn -0.000001 -1.000000 -0.000024
vn -0.000001 -1.000000 -0.000024
vn 0.002714 0.999980 -0.005716
vn 0.002714 0.999980 -0.005716
vn 0.002714 0.999980 -0.005716
vn 0.866680 -0.085724 0.491444
vn 0.866680 -0.085724 0.491444
vn 0.866680 -0.085724 0.491444
vn -0.026786 -0.019284 -0.999455
vn -0.026786 -0.019284 -0.999455
vn -0.026786 -0.019284 -0.999455
vn -0.040373 -0.003423 -0.999179
vn -0.040373 -0.003423 -0.999179
vn -0.040373 -0.003423 -0.999179
vn -0.016121 0.999864 -0.003367
vn -0.016121 0.999864 -0.003367
vn -0.016121 0.999864 -0.003367
vn 0.488062 0.779710 -0.392235
vn 0.488062 0.779710 -0.392235
vn 0.488062 0.779710 -0.392235
vn 0.867641 0.023374 0.496641
vn 0.867641 0.023374 0.496641
vn 0.867641 0.023374 0.496641
vn -0.345638 0.870232 -0.351042
vn -0.345638 0.870232 -0.351042
vn -0.345638 0.870232 -0.351042
vn 0.890483 -0.039253 0.453321
vn 0.890483 -0.039253 0.453321
vn 0.890483 -0.039253 0.453321
vn 0.880549 -0.003337 0.473944
vn 0.880549 -0.003337 0.473944
vn 0.880549 -0.003337 0.473944
vn 0.803233 0.472190 -0.363115
vn 0.803233 0.472190 -0.363115
vn 0.803233 0.472190 -0.363115
vn 0.803233 0.472190 -0.363115
vn -0.027819 0.000495 -0.999613
vn -0.027819 0.000495 -0.999613
vn -0.027819 0.000495 -0.999613
vn 0.999987 -0.002578 -0.004447
vn 0.999987 -0.002578 -0.004447
vn 0.999987 -0.002578 -0.004447
vn 0.996717 -0.043649 -0.068195
vn 0.996717 -0.043649 -0.068195
vn 0.996717 -0.043649 -0.068195
vn 0.886609 -0.030140 0.461537
vn 0.886609 -0.030140 0.461537
vn 0.886609 -0.030140 0.461537
vn 0.893549 -0.007659 0.448900
vn 0.893549 -0.007659 0.448900
vn 0.893549 -0.007659 0.448900
vn -0.025300 0.003372 -0.999674
vn -0.025300 0.003372 -0.999674
vn -0.025300 0.003372 -0.999674
vn 0.882640 0.034888 0.468753
vn 0.882640 0.034888 0.468753
vn 0.882640 0.034888 0.468753
vn -0.026602 0.000140 -0.999646
vn -0.026602 0.000140 -0.999646
vn -0.026602 0.000140 -0.999646
vn 0.893409 0.007609 0.449179
vn 0.893409 0.007609 0.449179
vn 0.893409 0.007609 0.449179
vn 0.885431 0.029535 0.463831
vn 0.885431 0.029535 0.463831
vn 0.885431 0.029535 0.463831
vn 0.939812 0.296390 -0.170018
vn 0.939812 0.296390 -0.170018
vn 0.939812 0.296390 -0.170019
vn 0.941209 0.000000 0.337824
vn 0.941209 0.000000 0.337824
vn 0.941209 0.000000 0.337824
vn 0.272374 0.028320 -0.961775
vn 0.272374 0.028320 -0.961775
vn 0.272374 0.028320 -0.961775
vn 0.847039 -0.002594 -0.531525
vn 0.847039 -0.002594 -0.531525
vn 0.847039 -0.002594 -0.531525
vn 0.849375 -0.009315 -0.527707
vn 0.849375 -0.009315 -0.527707
vn 0.849375 -0.009315 -0.527707
vn 0.851883 0.015111 -0.523513
vn 0.851884 0.015111 -0.523513
vn 0.851884 0.015111 -0.523513
vn 0.946741 -0.247057 -0.206504
vn 0.946741 -0.247057 -0.206504
vn 0.946741 -0.247057 -0.206504
vn 0.961979 0.213216 -0.170689
vn 0.961979 0.213216 -0.170689
vn 0.961979 0.213216 -0.170689
vn 0.888551 0.010321 -0.458662
vn 0.888551 0.010321 -0.458662
vn 0.888551 0.010321 -0.458662
vn 0.842986 -0.001853 -0.537932
vn 0.842986 -0.001853 -0.537932
vn 0.842986 -0.001853 -0.537932
vn 0.844727 -0.000236 -0.535197
vn 0.844727 -0.000236 -0.535197
vn 0.844727 -0.000236 -0.535197
vn 0.850350 0.000000 -0.526218
vn 0.850350 0.000000 -0.526218
vn 0.850349 0.000000 -0.526218
vn 0.846192 -0.001050 -0.532877
vn 0.846192 -0.001050 -0.532877
vn 0.846192 -0.001050 -0.532877
vn 0.850349 0.000000 -0.526218
vn 0.850349 0.000000 -0.526218
vn 0.850349 0.000000 -0.526218
vn 0.871083 0.000000 0.491135
vn 0.871083 0.000000 0.491135
vn 0.871083 0.000000 0.491135
vn 0.850336 -0.008346 -0.526174
vn 0.850336 -0.008346 -0.526174
vn 0.850336 -0.008346 -0.526174
s off
f 12/85/1 3/2/2 2/84/3
f 3/86/4 1/4/5 11/5/6
f 2/3/7 3/86/8 11/5/9
f 2/3/10 11/5/11 4/6/12
f 2/3/13 4/6/14 7/7/15
f 2/3/16 7/7/17 5/83/18
f 7/7/19 4/6/20 19/9/21
f 7/7/22 19/9/23 8/10/24
f 8/10/25 19/9/26 9/11/27
f 19/9/28 16/12/29 9/11/30
f 12/1/31 1/4/32 3/86/33
f 2/3/34 5/83/35 12/1/36
f 4/6/37 18/77/38 19/9/39
f 10/14/40 12/1/41 5/83/42
f 4/6/43 11/5/44 17/15/45
f 6/81/46 7/88/47 8/80/48
f 10/14/49 5/83/50 6/16/51
f 5/8/52 7/87/53 6/82/54
f 9/11/55 24/17/56 8/10/57
f 16/12/58 19/9/59 30/18/60
f 18/77/61 4/6/62 29/19/63
f 11/5/64 1/4/65 15/20/66
f 15/20/67 17/15/68 11/5/69
f 13/21/70 12/1/71 10/14/72
f 24/17/73 9/11/74 14/22/75
f 12/1/76 15/20/77 1/4/78
f 13/21/79 40/23/80 12/1/81
f 16/12/82 30/18/83 25/24/84
f 19/9/85 18/77/86 33/76/87
f 52/26/88 16/12/89 25/24/90
f 4/6/91 28/27/92 29/19/93
f 17/15/94 35/28/95 28/27/96
f 10/14/97 6/16/98 20/29/99
f 6/16/100 21/30/101 20/29/102
f 4/6/103 17/15/104 28/27/105
f 6/16/106 22/31/107 21/30/108
f 6/16/109 23/32/110 22/31/111
f 19/9/112 33/76/113 30/18/114
f 6/16/115 24/17/116 23/32/117
f 6/16/118 8/10/119 24/17/120
f 13/21/121 27/33/122 40/23/123
f 26/34/124 24/17/125 14/22/126
f 15/20/127 37/73/128 17/15/129
f 17/15/130 37/73/131 35/28/132
f 27/33/133 13/21/134 10/14/135
f 30/18/136 52/26/137 25/24/138
f 31/64/139 10/14/140 20/29/141
f 28/27/142 35/28/143 47/37/144
f 31/64/145 20/29/146 21/30/147
f 22/31/148 31/64/149 21/30/150
f 41/38/151 22/31/152 23/32/153
f 18/13/154 29/79/155 34/74/156
f 30/18/157 33/76/158 34/39/159
f 32/40/160 23/32/161 24/17/162
f 30/18/163 34/39/164 52/26/165
f 26/34/166 32/40/167 24/17/168
f 29/19/169 28/27/170 34/39/171
f 18/78/172 34/75/173 33/25/174
f 14/22/175 9/11/176 16/12/177
f 36/41/178 15/20/179 12/1/180
f 46/42/181 14/22/182 16/12/183
f 46/42/184 16/12/185 52/26/186
f 36/41/187 37/73/188 15/20/189
f 46/42/190 26/34/191 14/22/192
f 37/73/193 38/72/194 35/28/195
f 47/37/196 35/28/197 38/72/198
f 40/23/199 36/41/200 12/1/201
f 38/71/202 37/35/203 36/68/204
f 22/31/205 39/59/206 31/64/207
f 36/69/208 40/70/209 38/43/210
f 27/33/211 10/14/212 48/45/213
f 39/59/214 22/31/215 41/38/216
f 48/45/217 42/46/218 40/23/219 27/33/220
f 34/39/221 28/27/222 47/37/223
f 50/56/224 39/44/225 41/65/226
f 43/55/227 50/47/228 41/66/229
f 44/49/230 41/38/231 23/32/232
f 32/40/233 44/49/234 23/32/235
f 38/72/236 40/23/237 47/37/238
f 48/45/239 10/14/240 31/64/241
f 34/39/242 47/37/243 52/26/244
f 45/50/245 32/40/246 26/34/247
f 45/50/248 26/34/249 46/42/250
f 51/53/251 43/54/252 41/67/253
f 44/49/254 51/51/255 41/38/256
f 40/23/257 42/46/258 47/37/259
f 42/46/260 48/45/261 47/37/262
f 47/37/263 48/45/264 31/64/265
f 47/37/266 31/64/267 49/52/268
f 49/63/269 31/36/270 39/60/271
f 49/62/272 39/61/273 50/57/274
f 49/52/275 50/58/276 43/48/277
f 49/52/278 43/48/279 47/37/280
f 52/26/281 47/37/282 43/48/283
f 43/48/284 51/51/285 44/49/286
f 52/26/287 43/48/288 45/50/289
f 43/48/290 44/49/291 45/50/292
f 44/49/293 32/40/294 45/50/295
f 45/50/296 46/42/297 52/26/298
