# This file uses centimeters as units for non-parametric coordinates.

v -0.097992 0.920555 0.296547
v 0.020386 0.926846 0.312248
v 0.190933 0.701855 0.311569
v 0.191780 0.101609 0.313698
v -0.000679 -0.037132 0.313499
v 0.192081 -0.222210 0.313736
v 0.192097 -0.424675 0.313828
v 0.191967 -0.929424 0.312874
v -0.168434 0.778152 0.312935
v 0.234451 -0.049029 0.238541
v 0.346378 -0.103750 0.049385
v -0.279091 0.852882 0.122658
v -0.168716 -0.392878 0.313934
v 0.345928 0.779026 0.049393
v 0.116898 0.927578 0.208023
v 0.331600 0.809422 0.069580
v -0.138809 0.930523 0.178452
v 0.106243 -0.929661 -0.275887
v 0.344044 -0.930454 0.049065
v -0.168274 -0.929317 0.313896
v -0.220482 0.925144 0.109055
v 0.275337 0.927242 0.027237
v -0.341583 -0.381975 0.017143
v -0.344460 -0.930634 0.005989
v -0.335114 0.778728 0.028084
v 0.268543 0.930641 -0.047112
v -0.348221 -0.144601 -0.004059
v -0.348259 -0.608395 -0.003983
v 0.347046 0.403727 -0.046799
v 0.348263 0.778824 -0.036324
v 0.192230 0.058180 -0.312935
v -0.306046 -0.929100 -0.077225
v 0.230263 0.927364 -0.249481
v -0.286980 0.832520 -0.110771
v 0.344254 -0.930641 -0.047043
v -0.348129 0.509315 -0.003983
v 0.204475 -0.242239 -0.294647
v -0.210594 0.926414 -0.238434
v -0.231827 0.768433 -0.206078
v -0.243614 0.425203 -0.184044
v 0.199165 -0.586681 -0.303650
v -0.215668 0.693195 -0.230537
v 0.094952 0.927135 -0.312592
v 0.211269 -0.929005 -0.282997
v 0.192173 0.875286 -0.312996
v -0.166611 0.864304 -0.312683
v -0.042229 0.746502 -0.312592
v -0.041588 0.392710 -0.312401
v -0.149055 0.241187 -0.313492
v -0.168411 -0.928905 -0.313148
v 0.182297 -0.392897 -0.313934
v 0.182365 -0.789452 -0.313934
vt 0.211594 0.277295
vt 0.211594 0.277295
vt 0.211594 0.300503
vt 0.211594 0.277295
vt 0.211594 0.300503
vt 0.211594 0.277295
vt 0.211594 0.300503
vt 0.211594 0.300503
vt 0.211594 0.300503
vt 0.211594 0.277295
vt 0.211594 0.300503
vt 0.211594 0.277295
vt 0.211594 0.277295
vt 0.211594 0.300503
vt 0.211594 0.300503
vt 0.211594 0.300503
vt 0.211594 0.277295
vt 0.211594 0.277295
vt 0.211594 0.300503
vt 0.211594 0.300503
vt 0.211594 0.300503
vt 0.211594 0.300503
vt 0.211594 0.277295
vt 0.211594 0.277295
vt 0.211594 0.300503
vt 0.211594 0.300503
vt 0.211594 0.300503
vt 0.211594 0.300503
vt 0.211594 0.300503
vt 0.211594 0.300503
vt 0.211594 0.300503
vt 0.211594 0.300503
vt 0.211594 0.300503
vt 0.211594 0.300503
vt 0.211594 0.277295
vt 0.211594 0.300503
vt 0.211594 0.277295
vt 0.211594 0.300503
vt 0.211594 0.277295
vt 0.211594 0.300503
vt 0.211594 0.300503
vt 0.211594 0.277295
vt 0.211594 0.300503
vt 0.211594 0.277295
vt 0.211594 0.277295
vt 0.211594 0.300503
vt 0.211594 0.300503
vt 0.211594 0.300503
vt 0.211594 0.300503
vt 0.211594 0.300503
vt 0.211594 0.277295
vt 0.211594 0.277295
vt 0.211594 0.277295
vt 0.211594 0.277295
vt 0.211594 0.277295
vt 0.211594 0.277295
vt 0.211594 0.277295
vt 0.211594 0.277295
vt 0.211594 0.277295
vt 0.211594 0.277295
vt 0.211594 0.277295
vt 0.211594 0.300503
vt 0.211594 0.277295
vt 0.211594 0.277295
vt 0.211594 0.300503
vt 0.211594 0.277295
vt 0.211594 0.277295
vt 0.211594 0.277295
vt 0.211594 0.277295
vt 0.211594 0.300503
vt 0.211594 0.277295
vt 0.211594 0.277295
vt 0.211594 0.300503
vt 0.211594 0.277295
vt 0.211594 0.300503
vt 0.211594 0.277295
vt 0.211594 0.277295
vt 0.211594 0.300503
vt 0.211594 0.277295
vt 0.211594 0.277295
vt 0.211594 0.277295
vt 0.211594 0.277295
vt 0.211594 0.277295
vt 0.211594 0.277295
vt 0.211594 0.277295
vt 0.211594 0.277295
vt 0.211594 0.277295
vt 0.211594 0.277295
vt 0.211594 0.277295
vt 0.211594 0.277295
vt 0.211594 0.300503
vt 0.211594 0.300503
vt 0.211594 0.277295
vt 0.211594 0.277295
vt 0.211594 0.300503
vt 0.211594 0.277295
vt 0.211594 0.277295
vt 0.211594 0.277295
vt 0.211594 0.277295
vt 0.211594 0.277295
vt 0.211594 0.277295
vt 0.211594 0.277295
vt 0.211594 0.277295
vt 0.211594 0.277295
vt 0.211594 0.277295
vt 0.211594 0.277295
vt 0.211594 0.277295
vt 0.211594 0.300503
vt 0.211594 0.277295
vt 0.211594 0.277295
vt 0.211594 0.277295
vt 0.211594 0.277295
vt 0.211594 0.277295
vt 0.211594 0.277295
vt 0.211594 0.277295
vt 0.211594 0.277295
vt 0.211594 0.277295
vt 0.211594 0.277295
vt 0.211594 0.277295
vt 0.211594 0.277295
vt 0.211594 0.300503
vt 0.211594 0.277295
vt 0.211594 0.277295
vt 0.211594 0.300503
vt 0.211594 0.277295
vt 0.211594 0.277295
vt 0.211594 0.277295
vt 0.211594 0.277295
vt 0.211594 0.277295
vt 0.211594 0.277295
vt 0.211594 0.277295
vt 0.211594 0.277295
vt 0.211594 0.277295
vt 0.211594 0.277295
vt 0.211594 0.277295
vt 0.211594 0.277295
vt 0.211594 0.300503
vt 0.211594 0.277295
vt 0.211594 0.277295
vt 0.211594 0.277295
vt 0.211594 0.300503
vt 0.211594 0.277295
vt 0.211594 0.277295
vt 0.211594 0.300503
vt 0.211594 0.277295
vt 0.211594 0.277295
vt 0.211594 0.300503
vt 0.211594 0.277295
vt 0.211594 0.277295
vt 0.211594 0.277295
vt 0.211594 0.277295
vt 0.211594 0.277295
vt 0.211594 0.277295
vt 0.211594 0.277295
vt 0.211594 0.277295
vt 0.211594 0.277295
vt 0.211594 0.277295
vt 0.211594 0.277295
vt 0.211594 0.277295
vt 0.211594 0.277295
vt 0.211594 0.277295
vt 0.211594 0.277295
vt 0.211594 0.300503
vt 0.211594 0.277295
vn 0.020397 -0.021324 0.999565
vn 0.020397 -0.021324 0.999565
vn 0.020397 -0.021324 0.999565
vn 0.003755 -0.000177 0.999993
vn 0.003755 -0.000177 0.999993
vn 0.003755 -0.000177 0.999993
vn 0.004546 0.003554 0.999983
vn 0.004546 0.003554 0.999983
vn 0.004546 0.003554 0.999983
vn -0.001353 0.000413 0.999999
vn -0.001353 0.000413 0.999999
vn -0.001353 0.000413 0.999999
vn 0.000805 0.000857 0.999999
vn 0.000805 0.000857 0.999999
vn 0.000805 0.000857 0.999999
vn -0.000818 0.000453 1.000000
vn -0.000818 0.000453 1.000000
vn -0.000818 0.000453 1.000000
vn 0.002814 -0.000094 0.999996
vn 0.002814 -0.000094 0.999996
vn 0.002814 -0.000094 0.999996
vn -0.005548 -0.001901 0.999983
vn -0.005548 -0.001901 0.999983
vn -0.005548 -0.001901 0.999983
vn 0.002834 -0.000082 0.999996
vn 0.002834 -0.000082 0.999996
vn 0.002834 -0.000082 0.999996
vn -0.566001 0.600390 0.564956
vn -0.566001 0.600390 0.564956
vn -0.566001 0.600390 0.564956
vn 0.265250 -0.369258 0.890669
vn 0.265250 -0.369257 0.890669
vn 0.265250 -0.369257 0.890669
vn 0.302621 0.316356 0.899077
vn 0.302621 0.316356 0.899077
vn 0.302621 0.316356 0.899077
vn 0.863587 0.000299 0.504200
vn 0.863587 0.000299 0.504200
vn 0.863587 0.000299 0.504200
vn -0.561043 0.617675 0.551098
vn -0.561043 0.617675 0.551098
vn -0.561043 0.617675 0.551098
vn -0.864125 -0.000765 0.503277
vn -0.864125 -0.000765 0.503277
vn -0.864125 -0.000765 0.503277
vn -0.000293 -1.000000 0.000402
vn -0.000293 -1.000000 0.000402
vn -0.000293 -1.000000 0.000402
vn -0.863059 0.007949 0.505041
vn -0.863059 0.007949 0.505040
vn -0.863059 0.007949 0.505041
vn 0.859033 -0.012003 0.511779
vn 0.859033 -0.012003 0.511779
vn 0.859033 -0.012003 0.511779
vn 0.040125 0.998989 -0.020283
vn 0.040125 0.998989 -0.020283
vn 0.040125 0.998989 -0.020283
vn 0.640510 0.483702 0.596473
vn 0.640510 0.483702 0.596473
vn 0.640510 0.483702 0.596473
vn 0.003509 -0.999991 0.002263
vn 0.003509 -0.999991 0.002263
vn 0.003509 -0.999991 0.002263
vn 0.852149 0.056096 0.520284
vn 0.852149 0.056096 0.520284
vn 0.852149 0.056096 0.520284
vn 0.860430 0.003023 0.509560
vn 0.860430 0.003023 0.509560
vn 0.860430 0.003023 0.509560
vn 0.861770 0.009388 0.507212
vn 0.861770 0.009388 0.507212
vn 0.861770 0.009388 0.507212
vn 0.009679 0.999826 0.015956
vn 0.009679 0.999826 0.015956
vn 0.009679 0.999826 0.015956
vn 0.863335 0.000439 0.504631
vn 0.863335 0.000439 0.504631
vn 0.863335 0.000439 0.504631
vn -0.005341 -0.999985 0.000829
vn -0.005341 -0.999985 0.000829
vn -0.005341 -0.999985 0.000829
vn 0.866351 -0.001174 0.499434
vn 0.866351 -0.001174 0.499434
vn 0.866351 -0.001174 0.499434
vn 0.659710 0.481190 0.577269
vn 0.659710 0.481190 0.577269
vn 0.659710 0.481190 0.577269
vn -0.555426 0.565272 0.609894
vn -0.555426 0.565272 0.609894
vn -0.555426 0.565272 0.609894
vn 0.009483 0.999799 0.017653
vn 0.009483 0.999799 0.017653
vn 0.009483 0.999799 0.017653
vn 0.625068 0.510664 0.590349
vn 0.625068 0.510664 0.590349
vn 0.625068 0.510664 0.590349
vn 0.865133 -0.002639 0.501536
vn 0.865133 -0.002639 0.501536
vn 0.865133 -0.002639 0.501536
vn 0.049097 0.997945 0.041177
vn 0.049097 0.997945 0.041177
vn 0.049097 0.997945 0.041177
vn -0.867942 0.005135 0.496639
vn -0.867942 0.005135 0.496639
vn -0.867942 0.005135 0.496639
vn -0.870622 0.000633 0.491952
vn -0.870622 0.000633 0.491952
vn -0.870622 0.000633 0.491952
vn -0.862964 -0.018412 0.504930
vn -0.862964 -0.018412 0.504930
vn -0.862964 -0.018412 0.504930
vn -0.869917 0.000067 0.493199
vn -0.869917 0.000067 0.493199
vn -0.869917 0.000067 0.493199
vn -0.026136 0.998568 -0.046672
vn -0.026136 0.998568 -0.046672
vn -0.026136 0.998568 -0.046672
vn -0.779041 0.626278 -0.029531
vn -0.779041 0.626278 -0.029531
vn -0.779041 0.626278 -0.029531
vn 0.900063 0.435473 0.015809
vn 0.900063 0.435473 0.015809
vn 0.900063 0.435473 0.015809
vn 0.910272 0.413326 0.023814
vn 0.910272 0.413326 0.023814
vn 0.910272 0.413326 0.023814
vn 0.999954 0.000509 0.009617
vn 0.999954 0.000509 0.009617
vn 0.999954 0.000509 0.009617
vn -0.863592 0.020838 0.503760
vn -0.863592 0.020838 0.503760
vn -0.863592 0.020838 0.503760
vn -0.878026 -0.018738 0.478245
vn -0.878026 -0.018738 0.478245
vn -0.878026 -0.018738 0.478245
vn 0.999994 -0.002823 0.002189
vn 0.999994 -0.002823 0.002189
vn 0.999994 -0.002823 0.002189
vn -0.779540 0.625734 -0.027842
vn -0.779540 0.625734 -0.027842
vn -0.779540 0.625734 -0.027842
vn -0.953915 0.000124 0.300078
vn -0.953915 0.000124 0.300078
vn -0.953915 0.000124 0.300078
vn 0.885514 0.460738 -0.059874
vn 0.885514 0.460738 -0.059874
vn 0.885514 0.460738 -0.059874
vn -0.951039 0.081442 -0.298147
vn -0.951039 0.081442 -0.298147
vn -0.951039 0.081442 -0.298147
vn -0.788844 0.614262 -0.020194
vn -0.788844 0.614262 -0.020194
vn -0.788844 0.614262 -0.020194
vn -0.864821 0.000173 -0.502080
vn -0.864821 0.000173 -0.502080
vn -0.864821 0.000173 -0.502080
vn -0.866411 -0.000010 -0.499332
vn -0.866411 -0.000010 -0.499332
vn -0.866411 -0.000010 -0.499332
vn 0.999989 -0.002091 -0.004096
vn 0.999989 -0.002091 -0.004096
vn 0.999989 -0.002091 -0.004096
vn -0.907500 -0.023676 -0.419385
vn -0.907500 -0.023676 -0.419385
vn -0.907500 -0.023676 -0.419385
vn 0.012551 -0.999878 -0.009288
vn 0.012551 -0.999878 -0.009288
vn 0.012551 -0.999878 -0.009288
vn 0.999621 -0.004005 0.027225
vn 0.999621 -0.004005 0.027225
vn 0.999621 -0.004005 0.027225
vn -0.014619 -0.999577 -0.025151
vn -0.014619 -0.999577 -0.025151
vn -0.014619 -0.999577 -0.025151
vn -0.014581 -0.999892 0.001911
vn -0.014581 -0.999892 0.001911
vn -0.014581 -0.999892 0.001911
vn -0.010170 0.999943 0.003370
vn -0.010170 0.999943 0.003370
vn -0.010170 0.999943 0.003370
vn 0.872515 0.010806 -0.488469
vn 0.872515 0.010806 -0.488469
vn 0.872515 0.010806 -0.488469
vn -0.865932 -0.001405 -0.500159
vn -0.865932 -0.001405 -0.500159
vn -0.865932 -0.001405 -0.500159
vn 0.876996 0.448214 -0.173153
vn 0.876996 0.448214 -0.173153
vn 0.876996 0.448214 -0.173153
vn -0.002465 -0.999994 -0.002274
vn -0.002465 -0.999994 -0.002274
vn -0.002465 -0.999994 -0.002274
vn -0.861936 0.012023 -0.506875
vn -0.861936 0.012023 -0.506875
vn -0.861936 0.012023 -0.506875
vn 0.861955 0.004276 -0.506967
vn 0.861955 0.004276 -0.506967
vn 0.861955 0.004276 -0.506967
vn -0.863756 0.000560 -0.503910
vn -0.863756 0.000560 -0.503910
vn -0.863756 0.000560 -0.503910
vn 0.869492 -0.001727 -0.493944
vn 0.869492 -0.001727 -0.493944
vn 0.869492 -0.001727 -0.493944
vn -0.857160 -0.016745 -0.514779
vn -0.857160 -0.016745 -0.514779
vn -0.857160 -0.016745 -0.514779
vn -0.864270 0.002867 -0.503020
vn -0.864270 0.002867 -0.503020
vn -0.864270 0.002867 -0.503020
vn 0.869515 -0.001687 -0.493904
vn 0.869515 -0.001687 -0.493904
vn 0.869515 -0.001687 -0.493904
vn -0.856816 0.009561 -0.515534
vn -0.856816 0.009561 -0.515534
vn -0.856816 0.009561 -0.515534
vn -0.544215 -0.087989 -0.834319
vn -0.544215 -0.087989 -0.834319
vn -0.544215 -0.087989 -0.834319
vn 0.867225 -0.000358 -0.497916
vn 0.867225 -0.000358 -0.497916
vn 0.867225 -0.000358 -0.497916
vn 0.006413 0.999828 -0.017407
vn 0.006413 0.999828 -0.017407
vn 0.006413 0.999828 -0.017407
vn 0.866702 -0.026314 -0.498132
vn 0.866702 -0.026314 -0.498132
vn 0.866702 -0.026314 -0.498132
vn -0.465882 0.336320 -0.818439
vn -0.465882 0.336320 -0.818439
vn -0.465882 0.336320 -0.818439
vn -0.468367 -0.495114 -0.731775
vn -0.468367 -0.495114 -0.731775
vn -0.468367 -0.495114 -0.731775
vn -0.465594 0.181587 -0.866169
vn -0.465594 0.181587 -0.866169
vn -0.465594 0.181587 -0.866169
vn -0.004800 0.999938 -0.010077
vn -0.004800 0.999938 -0.010077
vn -0.004800 0.999938 -0.010077
vn 0.864377 0.000018 -0.502845
vn 0.864377 0.000018 -0.502845
vn 0.864377 0.000018 -0.502845
vn 0.329592 0.623568 -0.708895
vn 0.329592 0.623568 -0.708895
vn 0.329592 0.623568 -0.708895
vn -0.864468 -0.000084 -0.502689
vn -0.864468 -0.000084 -0.502689
vn -0.864468 -0.000084 -0.502689
vn -0.168977 0.704437 -0.689359
vn -0.168977 0.704437 -0.689359
vn -0.168977 0.704437 -0.689359
vn -0.427338 -0.001268 -0.904091
vn -0.427338 -0.001268 -0.904091
vn -0.427338 -0.001268 -0.904091
vn -0.798499 0.013034 -0.601855
vn -0.798499 0.013034 -0.601855
vn -0.798499 0.013034 -0.601855
vn 0.708749 -0.014041 -0.705321
vn 0.708749 -0.014041 -0.705321
vn 0.708749 -0.014041 -0.705321
vn 0.611570 0.011245 -0.791111
vn 0.611570 0.011245 -0.791111
vn 0.611570 0.011245 -0.791111
vn 0.529196 -0.000795 -0.848499
vn 0.529196 -0.000795 -0.848499
vn 0.529196 -0.000795 -0.848499
vn -0.001053 0.005808 -0.999983
vn -0.001053 0.005808 -0.999983
vn -0.001053 0.005808 -0.999983
vn -0.000827 -0.001629 -0.999998
vn -0.000827 -0.001629 -0.999998
vn -0.000827 -0.001629 -0.999998
vn -0.001421 -0.000547 -0.999999
vn -0.001421 -0.000547 -0.999999
vn -0.001421 -0.000547 -0.999999
vn -0.002383 -0.000082 -0.999997
vn -0.002383 -0.000082 -0.999997
vn -0.002383 -0.000082 -0.999997
vn 0.003983 0.004366 -0.999983
vn 0.003983 0.004366 -0.999983
vn 0.003983 0.004366 -0.999983
vn -0.001844 -0.000266 -0.999998
vn -0.001844 -0.000266 -0.999998
vn -0.001844 -0.000266 -0.999998
vn 0.002800 0.002162 -0.999994
vn 0.002800 0.002162 -0.999994
vn 0.002800 0.002162 -0.999994
vn -0.002252 0.000000 -0.999998
vn -0.002252 0.000000 -0.999998
vn -0.002252 0.000000 -0.999997
vn 0.521411 0.000094 -0.853306
vn 0.521411 0.000094 -0.853306
vn 0.521411 0.000094 -0.853306
vn 0.163539 -0.052785 -0.985124
vn 0.163539 -0.052785 -0.985124
vn 0.163539 -0.052785 -0.985124
vn -0.001563 -0.001727 -0.999997
vn -0.001563 -0.001727 -0.999997
vn -0.001563 -0.001727 -0.999997
s off
f 2/145/1 1/158/2 9/157/3
f 3/137/4 2/144/5 9/3/6
f 3/137/7 9/3/8 4/5/9
f 4/5/10 9/3/11 5/163/12
f 5/163/13 9/3/14 13/7/15
f 6/8/16 5/163/17 7/9/18
f 5/163/19 13/7/20 8/141/21
f 7/9/22 5/163/23 8/141/24
f 8/141/25 13/7/26 20/11/27
f 1/159/28 12/132/29 9/156/30
f 4/151/31 5/164/32 10/153/33
f 10/152/34 5/6/35 6/161/36
f 7/9/37 11/14/38 6/8/39
f 1/160/40 17/129/41 12/131/42
f 13/7/43 23/16/44 20/11/45
f 18/56/46 8/140/47 20/142/48
f 25/120/49 9/155/50 12/133/51
f 4/150/52 10/154/53 11/149/54
f 2/146/55 17/128/56 1/2/57
f 2/1/58 3/138/59 15/136/60
f 24/110/61 18/55/62 20/143/63
f 16/21/64 3/137/65 14/22/66
f 3/137/67 4/5/68 14/22/69
f 10/13/70 6/162/71 11/148/72
f 15/19/73 17/15/74 2/147/75
f 4/5/76 11/14/77 14/22/78
f 18/57/79 19/107/80 8/10/81
f 7/9/82 8/141/83 19/108/84
f 15/135/85 3/139/86 22/123/87
f 21/115/88 12/12/89 17/130/90
f 26/26/91 17/15/92 15/19/93
f 3/4/94 16/126/95 22/122/96
f 7/9/97 19/108/98 11/14/99
f 26/26/100 15/19/101 22/124/102
f 20/11/103 28/27/104 24/20/105
f 9/3/106 27/28/107 13/7/108
f 9/3/109 25/121/110 36/29/111
f 9/3/112 36/29/113 27/28/114
f 26/26/115 21/25/116 17/15/117
f 21/116/118 25/119/119 12/134/120
f 16/127/121 30/103/122 22/24/123
f 16/21/124 14/22/125 30/30/126
f 29/31/127 14/22/128 11/14/129
f 13/7/130 27/28/131 23/16/132
f 20/11/133 23/16/134 28/27/135
f 11/14/136 19/108/137 35/32/138
f 21/117/139 34/114/140 25/18/141
f 27/28/142 28/27/143 23/16/144
f 30/104/145 26/102/146 22/125/147
f 25/121/148 34/33/149 36/29/150
f 34/113/151 21/118/152 38/112/153
f 27/28/154 36/29/155 40/91/156
f 28/27/157 27/28/158 32/36/159
f 29/31/160 11/14/161 35/32/162
f 24/20/163 28/27/164 32/36/165
f 18/58/166 44/71/167 19/23/168
f 29/31/169 30/30/170 14/22/171
f 32/98/172 18/54/173 24/111/174
f 44/72/175 35/106/176 19/109/177
f 26/26/178 38/34/179 21/25/180
f 45/38/181 30/30/182 29/31/183
f 34/33/184 39/95/185 36/29/186
f 26/101/187 30/105/188 33/100/189
f 32/99/190 50/66/191 18/53/192
f 34/33/193 38/34/194 39/95/195
f 37/78/196 31/43/197 29/31/198
f 27/28/199 50/65/200 32/36/201
f 35/32/202 41/75/203 29/31/204
f 36/29/205 39/95/206 42/92/207
f 40/91/208 36/29/209 42/92/210
f 44/73/211 41/75/212 35/32/213
f 39/95/214 38/34/215 46/46/216
f 40/90/217 42/93/218 48/87/219
f 29/31/220 41/75/221 37/78/222
f 33/40/223 43/48/224 26/26/225
f 45/38/226 33/40/227 30/30/228
f 40/89/229 48/88/230 49/81/231
f 39/39/232 46/97/233 47/83/234
f 39/96/235 47/84/236 42/45/237
f 43/48/238 38/34/239 26/26/240
f 31/43/241 45/38/242 29/31/243
f 45/38/244 43/48/245 33/40/246
f 27/28/247 40/91/248 50/65/249
f 43/48/250 46/46/251 38/34/252
f 42/94/253 47/85/254 48/86/255
f 40/35/256 49/82/257 50/64/258
f 51/69/259 31/80/260 37/79/261
f 51/68/262 37/42/263 41/76/264
f 52/60/265 41/44/266 44/74/267
f 43/48/268 45/38/269 46/46/270
f 46/46/271 45/38/272 47/50/273
f 47/50/274 45/38/275 48/47/276
f 48/47/277 45/38/278 31/43/279
f 31/43/280 49/49/281 48/47/282
f 50/41/283 49/49/284 51/70/285
f 49/49/286 31/43/287 51/70/288
f 51/70/289 52/62/290 50/41/291
f 52/61/292 51/51/293 41/77/294
f 18/59/295 52/52/296 44/37/297
f 50/67/298 52/63/299 18/17/300
