# This file uses centimeters as units for non-parametric coordinates.

v 1.061913 0.000000 0.307495
v 0.465607 0.091283 0.636572
v -0.546825 0.279625 0.475565
v 0.209188 0.217537 -0.098261
v 1.094696 0.000000 0.007992
v 0.783276 0.000000 -1.035776
v 1.080366 0.000000 -0.436626
v -1.094697 0.000000 -0.365704
v 0.287404 0.177482 -0.790462
v 0.070633 0.000000 -1.089485
v -0.712479 0.091655 0.928711
v -0.515210 0.000000 1.089485
v -0.012436 0.312786 0.638847
v 1.019872 0.000000 0.663490
v -0.717998 0.296383 0.194117
v -0.408025 0.329811 0.450687
v -0.505098 0.305463 0.274174
v -0.587296 0.334856 0.098389
v 0.329212 0.276430 -0.214514
v -0.759215 0.254628 -0.266762
v 0.926250 0.107363 -0.410355
v -0.813513 0.000000 1.009426
v 0.790520 0.114792 0.555817
v -0.160009 0.000000 -1.067125
v 0.271390 0.000000 1.010492
v -0.916158 0.032821 0.551308
v -0.399829 0.099290 0.971289
v -0.267220 0.285533 0.692606
v 0.340870 0.064402 0.885593
v 0.858356 0.106511 0.638699
v 0.657585 0.000000 0.997311
v -1.036343 0.000000 0.109167
v -0.656936 0.101754 0.741819
v -0.394535 0.241908 0.637043
v 0.951440 0.000000 0.839119
v 0.032323 0.305296 0.382149
v 0.166397 0.275914 0.452410
v 0.571953 0.191759 0.395060
v 0.742710 0.205667 0.441555
v 0.510283 0.252423 0.131441
v 0.623229 0.287819 -0.057409
v 0.829791 0.224614 -0.036362
v 0.073231 0.248797 -0.331224
v -0.210443 0.245570 -0.256674
v -0.298484 0.334577 -0.555374
v -0.124980 0.282358 -0.438480
v 0.507077 0.259657 -0.270132
v 0.550092 0.244966 -0.439873
v -1.014836 0.000000 -0.648481
v -0.607334 0.308785 -0.331699
v -0.274154 0.290350 -0.689810
v -0.582876 0.109659 -0.760302
v 0.713679 0.114720 -0.541956
v -0.862145 0.000000 -0.918571
v 0.149515 0.131278 -0.936800
v 0.502316 0.098264 -0.709988
v 1.010297 0.000000 -0.787045
v -0.664641 0.000000 -1.045893
v 0.032792 0.125332 0.946402
v -0.950141 0.000000 0.725868
vt 0.035601 0.355257
vt 0.035602 0.355257
vt 0.035599 0.355257
vt 0.035599 0.355257
vt 0.035600 0.355257
vt 0.035600 0.355257
vt 0.035601 0.355257
vt 0.035601 0.355257
vt 0.035601 0.355257
vt 0.035600 0.355257
vt 0.035600 0.355257
vt 0.035599 0.355257
vt 0.035601 0.355257
vt 0.035601 0.355257
vt 0.035599 0.355257
vt 0.035602 0.355257
vt 0.035600 0.355257
vt 0.035599 0.355257
vt 0.035600 0.355257
vt 0.035600 0.355257
vt 0.035600 0.355257
vt 0.035601 0.355257
vt 0.035598 0.355257
vt 0.035599 0.355257
vt 0.035599 0.355257
vt 0.035600 0.355257
vt 0.035601 0.355257
vt 0.035600 0.355257
vt 0.035600 0.355257
vt 0.035600 0.355257
vt 0.035602 0.355257
vt 0.035600 0.355257
vt 0.035601 0.355257
vt 0.035600 0.355257
vt 0.035600 0.355257
vt 0.035598 0.355257
vt 0.035600 0.355257
vt 0.035602 0.355257
vt 0.035599 0.355257
vt 0.035599 0.355257
vt 0.035597 0.355257
vt 0.035602 0.355257
vt 0.035601 0.355257
vt 0.035598 0.355257
vt 0.035600 0.355257
vt 0.035603 0.355257
vt 0.035602 0.355257
vt 0.035601 0.355257
vt 0.035599 0.355257
vt 0.035602 0.355257
vt 0.035601 0.355257
vt 0.035599 0.355257
vt 0.035599 0.355257
vt 0.035601 0.355257
vt 0.035599 0.355257
vt 0.035598 0.355257
vt 0.035598 0.355257
vt 0.035600 0.355257
vt 0.035601 0.355257
vt 0.035598 0.355257
vn -0.529786 0.808804 0.255270
vn -0.529786 0.808804 0.255270
vn -0.529786 0.808804 0.255270
vn -0.171248 0.750690 0.638075
vn -0.171248 0.750690 0.638075
vn -0.171248 0.750690 0.638075
vn 0.068282 0.730075 0.679947
vn 0.068282 0.730075 0.679947
vn 0.068282 0.730075 0.679947
vn 0.265429 0.788800 0.554385
vn 0.265429 0.788800 0.554385
vn 0.265429 0.788800 0.554385
vn 0.015878 0.885064 0.465199
vn 0.015878 0.885064 0.465199
vn 0.015878 0.885064 0.465199
vn -0.422487 0.902148 0.087374
vn -0.422487 0.902148 0.087374
vn -0.422487 0.902148 0.087374
vn -0.243262 0.969757 -0.019891
vn -0.243262 0.969757 -0.019891
vn -0.243262 0.969757 -0.019891
vn 0.317302 0.937182 0.144945
vn 0.317302 0.937182 0.144945
vn 0.317302 0.937182 0.144945
vn -0.327390 0.866799 0.376131
vn -0.327390 0.866800 0.376131
vn -0.327390 0.866799 0.376131
vn -0.327390 0.866799 0.376131
vn -0.271689 0.848361 0.454389
vn -0.271689 0.848361 0.454389
vn -0.271689 0.848361 0.454389
vn 0.020957 0.486532 0.873411
vn 0.020957 0.486532 0.873412
vn 0.020957 0.486532 0.873411
vn -0.032809 0.919464 0.391803
vn -0.032809 0.919464 0.391803
vn -0.032809 0.919464 0.391803
vn -0.475445 0.372351 0.797061
vn -0.475445 0.372351 0.797062
vn -0.475445 0.372351 0.797061
vn 0.230562 0.948355 0.217861
vn 0.230562 0.948355 0.217861
vn 0.230562 0.948355 0.217861
vn 0.379199 0.813856 0.440280
vn 0.379199 0.813856 0.440280
vn 0.379199 0.813856 0.440280
vn 0.136966 0.975196 0.173876
vn 0.136966 0.975196 0.173876
vn 0.136966 0.975196 0.173876
vn -0.008094 0.968380 0.249350
vn -0.008094 0.968380 0.249350
vn -0.008094 0.968380 0.249350
vn -0.138396 0.967861 0.209981
vn -0.138396 0.967861 0.209981
vn -0.138396 0.967861 0.209981
vn 0.206101 0.900527 0.382850
vn 0.206101 0.900527 0.382850
vn 0.206101 0.900527 0.382850
vn -0.488897 0.869661 0.068337
vn -0.488897 0.869661 0.068337
vn -0.488896 0.869661 0.068337
vn -0.450090 0.794632 0.407406
vn -0.450089 0.794632 0.407406
vn -0.450089 0.794632 0.407406
vn -0.238360 0.871592 0.428382
vn -0.238360 0.871592 0.428382
vn -0.238360 0.871592 0.428382
vn -0.059362 0.975237 0.213047
vn -0.059362 0.975237 0.213047
vn -0.059362 0.975237 0.213047
vn 0.093203 0.989948 -0.106377
vn 0.093203 0.989948 -0.106377
vn 0.093203 0.989948 -0.106377
vn 0.017943 0.854927 0.518438
vn 0.017943 0.854927 0.518438
vn 0.017943 0.854927 0.518438
vn -0.162464 0.934347 0.317178
vn -0.162464 0.934347 0.317178
vn -0.162464 0.934347 0.317178
vn 0.090531 0.797547 0.596426
vn 0.090531 0.797547 0.596426
vn 0.090531 0.797547 0.596426
vn 0.517456 0.831618 0.201621
vn 0.517456 0.831618 0.201621
vn 0.517456 0.831618 0.201621
vn 0.549729 0.746256 -0.375367
vn 0.549729 0.746256 -0.375367
vn 0.549729 0.746256 -0.375367
vn 0.427931 0.902398 0.050536
vn 0.427931 0.902398 0.050536
vn 0.427931 0.902398 0.050536
vn -0.481081 0.807774 0.340680
vn -0.481081 0.807774 0.340680
vn -0.481081 0.807774 0.340680
vn -0.467918 0.815007 0.341783
vn -0.467918 0.815007 0.341783
vn -0.467918 0.815007 0.341783
vn 0.031117 0.987681 -0.153354
vn 0.031117 0.987681 -0.153354
vn 0.031117 0.987681 -0.153354
vn 0.090156 0.968315 0.232892
vn 0.090156 0.968315 0.232892
vn 0.090156 0.968315 0.232892
vn 0.411042 0.884850 0.219283
vn 0.411042 0.884850 0.219283
vn 0.411042 0.884850 0.219283
vn 0.242352 0.853283 0.461707
vn 0.242352 0.853283 0.461707
vn 0.242352 0.853283 0.461707
vn 0.223086 0.960082 0.168747
vn 0.223086 0.960082 0.168747
vn 0.223086 0.960082 0.168747
vn 0.604895 0.726942 0.325051
vn 0.604895 0.726942 0.325051
vn 0.604895 0.726942 0.325051
vn -0.694288 0.706679 0.136267
vn -0.694288 0.706679 0.136267
vn -0.694288 0.706679 0.136267
vn -0.083516 0.990443 0.109764
vn -0.083516 0.990443 0.109764
vn -0.083516 0.990443 0.109764
vn -0.123900 0.967658 0.219742
vn -0.123900 0.967658 0.219742
vn -0.123900 0.967658 0.219742
vn -0.331268 0.942090 0.052228
vn -0.331268 0.942090 0.052228
vn -0.331268 0.942090 0.052228
vn 0.089902 0.994004 -0.062246
vn 0.089902 0.994004 -0.062246
vn 0.089902 0.994004 -0.062246
vn 0.033956 0.985289 -0.167487
vn 0.033956 0.985289 -0.167487
vn 0.033956 0.985289 -0.167487
vn 0.263918 0.963806 0.037752
vn 0.263918 0.963806 0.037752
vn 0.263918 0.963806 0.037752
vn 0.254344 0.963598 -0.082388
vn 0.254344 0.963598 -0.082388
vn 0.254344 0.963598 -0.082388
vn -0.032821 0.993621 -0.107886
vn -0.032821 0.993621 -0.107886
vn -0.032821 0.993621 -0.107886
vn -0.264840 0.942463 0.204017
vn -0.264840 0.942463 0.204016
vn -0.264840 0.942463 0.204016
vn 0.050070 0.975803 0.212840
vn 0.050070 0.975803 0.212840
vn 0.050070 0.975803 0.212840
vn -0.103880 0.986972 0.122860
vn -0.103879 0.986972 0.122860
vn -0.103879 0.986972 0.122860
vn -0.131391 0.972638 0.191604
vn -0.131391 0.972638 0.191604
vn -0.131391 0.972638 0.191604
vn 0.283079 0.954917 0.089438
vn 0.283079 0.954917 0.089438
vn 0.283079 0.954917 0.089438
vn 0.625764 0.766528 0.144409
vn 0.625764 0.766528 0.144409
vn 0.625764 0.766528 0.144409
vn 0.558631 0.827159 0.061148
vn 0.558631 0.827159 0.061148
vn 0.558631 0.827159 0.061148
vn -0.355338 0.933247 -0.052772
vn -0.355338 0.933247 -0.052772
vn -0.355338 0.933247 -0.052772
vn -0.311016 0.949429 -0.043062
vn -0.311016 0.949429 -0.043062
vn -0.311016 0.949429 -0.043062
vn -0.122145 0.991021 -0.054383
vn -0.122145 0.991021 -0.054383
vn -0.122145 0.991021 -0.054383
vn 0.046482 0.974605 0.219054
vn 0.046482 0.974605 0.219054
vn 0.046482 0.974605 0.219054
vn 0.020555 0.992419 0.121171
vn 0.020555 0.992419 0.121171
vn 0.020555 0.992419 0.121171
vn -0.217240 0.942687 0.253275
vn -0.217240 0.942687 0.253275
vn -0.217240 0.942687 0.253275
vn 0.306910 0.907217 -0.287686
vn 0.306910 0.907217 -0.287686
vn 0.306910 0.907217 -0.287686
vn 0.292999 0.918120 -0.266847
vn 0.292999 0.918120 -0.266847
vn 0.292999 0.918120 -0.266847
vn 0.044598 0.986906 -0.155006
vn 0.044598 0.986906 -0.155006
vn 0.044598 0.986906 -0.155006
vn 0.187367 0.950067 -0.249532
vn 0.187367 0.950067 -0.249532
vn 0.187367 0.950067 -0.249532
vn 0.651856 0.755229 -0.068649
vn 0.651856 0.755229 -0.068649
vn 0.651856 0.755229 -0.068649
vn -0.616924 0.783363 0.075811
vn -0.616924 0.783363 0.075811
vn -0.616924 0.783363 0.075811
vn -0.680612 0.732624 -0.005505
vn -0.680612 0.732624 -0.005505
vn -0.680612 0.732624 -0.005505
vn -0.476260 0.782978 -0.400151
vn -0.476260 0.782978 -0.400152
vn -0.476260 0.782978 -0.400152
vn -0.454054 0.797844 -0.396584
vn -0.454054 0.797845 -0.396584
vn -0.454054 0.797844 -0.396584
vn 0.370471 0.914382 0.163273
vn 0.370471 0.914382 0.163273
vn 0.370471 0.914382 0.163273
vn 0.120113 0.960552 0.250823
vn 0.120113 0.960552 0.250823
vn 0.120113 0.960552 0.250823
vn 0.054551 0.977247 0.204969
vn 0.054551 0.977247 0.204969
vn 0.054551 0.977247 0.204969
vn 0.072664 0.995055 -0.067708
vn 0.072664 0.995056 -0.067708
vn 0.072664 0.995055 -0.067708
vn -0.030168 0.985468 -0.167158
vn -0.030168 0.985468 -0.167158
vn -0.030168 0.985468 -0.167158
vn 0.657841 0.746201 0.102122
vn 0.657841 0.746201 0.102122
vn 0.657841 0.746202 0.102122
vn 0.375975 0.816145 -0.438806
vn 0.375975 0.816145 -0.438806
vn 0.375975 0.816145 -0.438805
vn 0.390590 0.705413 -0.591466
vn 0.390590 0.705413 -0.591466
vn 0.390590 0.705413 -0.591466
vn 0.569403 0.821854 -0.018352
vn 0.569403 0.821854 -0.018352
vn 0.569403 0.821854 -0.018352
vn -0.263427 0.961807 -0.074396
vn -0.263427 0.961806 -0.074396
vn -0.263427 0.961806 -0.074396
vn -0.325535 0.879110 -0.348128
vn -0.325535 0.879110 -0.348128
vn -0.325535 0.879110 -0.348128
vn -0.390765 0.826072 -0.406087
vn -0.390765 0.826072 -0.406087
vn -0.390765 0.826072 -0.406087
vn -0.275720 0.719678 -0.637214
vn -0.275720 0.719678 -0.637214
vn -0.275720 0.719678 -0.637214
vn 0.052689 0.938559 0.341074
vn 0.052689 0.938559 0.341074
vn 0.052689 0.938559 0.341074
vn 0.139119 0.947869 -0.286690
vn 0.139119 0.947869 -0.286690
vn 0.139119 0.947869 -0.286690
vn 0.139135 0.947877 -0.286655
vn 0.139135 0.947877 -0.286655
vn 0.139135 0.947877 -0.286655
vn 0.465050 0.607002 -0.644420
vn 0.465050 0.607002 -0.644420
vn 0.465050 0.607002 -0.644420
vn -0.281417 0.946305 -0.159094
vn -0.281417 0.946305 -0.159094
vn -0.281417 0.946305 -0.159094
vn -0.194965 0.933018 -0.302434
vn -0.194965 0.933018 -0.302434
vn -0.194964 0.933018 -0.302434
vn 0.112677 0.912109 -0.394158
vn 0.112677 0.912109 -0.394158
vn 0.112677 0.912109 -0.394158
vn -0.069305 0.780366 -0.621470
vn -0.069305 0.780366 -0.621470
vn -0.069305 0.780366 -0.621470
vn -0.061301 0.772273 -0.632326
vn -0.061301 0.772273 -0.632326
vn -0.061301 0.772273 -0.632326
vn 0.040042 0.846235 -0.531303
vn 0.040042 0.846235 -0.531303
vn 0.040042 0.846235 -0.531303
vn 0.342023 0.939621 0.011551
vn 0.342023 0.939621 0.011551
vn 0.342023 0.939621 0.011551
vn 0.142692 0.951468 -0.272669
vn 0.142691 0.951468 -0.272668
vn 0.142692 0.951468 -0.272669
vn 0.165591 0.974545 -0.151137
vn 0.165591 0.974545 -0.151137
vn 0.165591 0.974545 -0.151137
vn 0.314398 0.947207 -0.062867
vn 0.314398 0.947207 -0.062867
vn 0.314398 0.947207 -0.062867
vn -0.014924 0.934865 -0.354690
vn -0.014924 0.934865 -0.354690
vn -0.014924 0.934865 -0.354690
vn 0.574825 0.449702 -0.683626
vn 0.574825 0.449702 -0.683626
vn 0.574825 0.449702 -0.683626
s off
f 60/1/1 22/2/2 11/3/3
f 12/4/4 11/3/5 22/2/6
f 25/5/7 27/6/8 12/4/9
f 25/5/10 29/7/11 59/8/12
f 25/5/13 31/9/14 29/7/15
f 26/10/16 60/1/17 11/3/18
f 33/11/19 26/10/20 11/3/21
f 11/3/22 12/4/23 33/11/24
f 12/4/25 27/6/26 34/12/27 33/11/28
f 3/13/29 33/11/30 34/12/31
f 25/5/32 59/8/33 27/6/34
f 34/12/35 27/6/36 59/8/37
f 34/12/38 59/8/39 28/14/40
f 29/7/41 2/15/42 59/8/43
f 2/15/44 13/16/45 59/8/46
f 31/9/47 2/15/48 29/7/49
f 23/17/50 2/15/51 31/9/52
f 23/17/53 31/9/54 30/18/55
f 31/9/56 35/19/57 30/18/58
f 60/1/59 26/10/60 32/20/61
f 16/21/62 34/12/63 28/14/64
f 3/13/65 34/12/66 16/21/67
f 16/21/68 28/14/69 13/16/70
f 16/21/71 13/16/72 37/22/73
f 28/14/74 59/8/75 13/16/76
f 39/23/77 38/24/78 2/15/79
f 39/23/80 2/15/81 23/17/82
f 35/19/83 14/25/84 30/18/85
f 14/25/86 23/17/87 30/18/88
f 23/17/89 14/25/90 1/26/91
f 3/13/92 15/27/93 33/11/94
f 26/10/95 33/11/96 15/27/97
f 36/28/98 17/29/99 16/21/100
f 37/22/101 36/28/102 16/21/103
f 2/15/104 37/22/105 13/16/106
f 2/15/107 38/24/108 37/22/109
f 37/22/110 38/24/111 40/30/112
f 23/17/113 1/26/114 39/23/115
f 15/27/116 32/20/117 26/10/118
f 3/13/119 17/29/120 15/27/121
f 15/27/122 17/29/123 18/31/124
f 3/13/125 16/21/126 17/29/127
f 44/32/128 17/29/129 4/33/130
f 4/33/131 17/29/132 36/28/133
f 17/29/134 44/32/135 18/31/136
f 4/33/137 36/28/138 37/22/139
f 4/33/140 37/22/141 40/30/142
f 40/30/143 19/34/144 4/33/145
f 38/24/146 41/35/147 40/30/148
f 19/34/149 40/30/150 41/35/151
f 38/24/152 39/23/153 41/35/154
f 42/36/155 41/35/156 39/23/157
f 39/23/158 5/37/159 42/36/160
f 39/23/161 1/26/162 5/37/163
f 15/27/164 50/38/165 20/39/166
f 18/31/167 50/38/168 15/27/169
f 45/40/170 50/38/171 18/31/172
f 46/41/173 44/32/174 43/42/175
f 44/32/176 4/33/177 43/42/178
f 19/34/179 43/42/180 4/33/181
f 41/35/182 42/36/183 47/43/184
f 53/44/185 47/43/186 42/36/187
f 47/43/188 19/34/189 41/35/190
f 53/44/191 42/36/192 21/45/193
f 5/37/194 21/45/195 42/36/196
f 32/20/197 20/39/198 8/46/199
f 15/27/200 20/39/201 32/20/202
f 8/46/203 20/39/204 52/47/205
f 20/39/206 50/38/207 52/47/208
f 18/31/209 44/32/210 45/40/211
f 44/32/212 46/41/213 45/40/214
f 48/48/215 46/41/216 43/42/217
f 48/48/218 19/34/219 47/43/220
f 48/48/221 43/42/222 19/34/223
f 47/43/224 53/44/225 48/48/226
f 48/48/227 53/44/228 9/49/229
f 7/50/230 53/44/231 21/45/232
f 7/50/233 21/45/234 5/37/235
f 52/47/236 49/51/237 8/46/238
f 51/52/239 50/38/240 45/40/241
f 52/47/242 50/38/243 51/52/244
f 24/53/245 52/47/246 51/52/247
f 48/48/248 45/40/249 46/41/250
f 48/48/251 9/49/252 45/40/253
f 9/49/254 51/52/255 45/40/256
f 53/44/257 56/54/258 9/49/259
f 49/51/260 52/47/261 54/55/262
f 58/56/263 54/55/264 52/47/265
f 51/52/266 9/49/267 55/57/268
f 51/52/269 55/57/270 24/53/271
f 10/58/272 24/53/273 55/57/274
f 6/59/275 10/58/276 9/49/277
f 6/59/278 9/49/279 56/54/280
f 53/44/281 57/60/282 56/54/283
f 6/59/284 56/54/285 57/60/286
f 57/60/287 53/44/288 7/50/289
f 52/47/290 24/53/291 58/56/292
f 9/49/293 10/58/294 55/57/295
