# This file uses centimeters as units for non-parametric coordinates.

v -0.582565 0.000000 2.284581
v 0.000000 0.000000 0.000000
v 2.269508 -0.000000 -1.031540
v -0.552197 0.126660 -0.494707
v -0.949741 0.149117 1.026608
v -0.535648 0.225678 -1.228242
v 2.828915 -0.000000 -1.660880
v 0.431454 0.947525 -2.153813
v -2.057529 0.383902 -1.287188
v 1.905594 0.000000 -2.480585
v 1.240303 0.509394 -2.334140
v -1.699261 1.456009 -1.930278
v -1.637287 1.218198 -1.436046
v -1.380016 1.193020 -1.714875
v -0.516438 1.000917 -2.002798
v -1.186134 1.044026 -1.670125
v -0.368382 0.704105 -1.754867
v -0.722031 0.491909 -1.382316
v 2.673153 0.000000 -2.230147
v -1.739143 0.000000 2.467921
v -0.268154 0.512854 -1.552561
v 0.891598 0.314079 -1.559917
v -0.112671 0.039170 -0.914100
v -0.310257 0.112330 -0.269810
v -0.192612 0.000000 1.365285
v -0.842651 0.059830 -2.440854
v -2.034004 0.176368 0.708892
v -2.023151 0.537167 -1.179302
v -2.108906 0.230789 1.308902
v 1.339912 0.552252 -2.212322
v -1.896957 0.911728 -1.198355
v -2.044998 0.000000 1.861760
v -1.790863 0.674167 1.054662
v -0.730003 1.139510 -2.165276
v -1.889847 0.699662 -0.669678
v -1.908245 0.851709 0.538787
v 0.267036 0.985386 -2.083393
v -1.513634 0.641699 -0.647369
v -1.668701 0.860198 0.317079
v -1.465717 0.465206 1.047003
v 1.981533 0.630760 -2.258305
v 1.275673 0.534649 -1.884467
v -0.443913 0.809814 -1.828695
v -0.934258 0.658899 -1.473176
v -1.207054 0.500811 -0.647570
v -1.489246 0.301959 1.561085
v -1.270618 0.272352 1.110867
v 1.941414 0.212047 -1.825290
v 0.869823 0.480555 -1.751856
v 0.543915 0.393212 -1.367736
v -1.192001 0.000000 2.628026
v -0.858570 0.372534 -0.696433
v -1.135101 0.182872 1.119468
v -0.871765 0.232604 0.140137
v 0.763336 0.269149 -1.179106
v -0.297264 0.139747 -1.094334
v 0.918957 0.126563 -1.080945
v -0.619545 0.333845 -0.761365
v 1.269676 -0.000000 -0.722172
v -0.817234 0.565831 -2.401181
v -1.731823 1.088159 -2.041162
v -1.774750 0.789335 -2.163832
v -1.781086 0.450199 -2.203260
v -1.808582 0.333073 -2.274623
v -0.953690 0.509397 -0.778914
v -1.007675 0.618810 -0.836392
v -1.129074 0.668515 -1.065141
v -1.306217 0.810683 -1.282978
vt 0.235013 0.278699
vt 0.235013 0.278699
vt 0.235013 0.278699
vt 0.235013 0.278699
vt 0.235013 0.278699
vt 0.235013 0.278699
vt 0.235013 0.278699
vt 0.235013 0.278699
vt 0.235013 0.278699
vt 0.235013 0.278699
vt 0.235013 0.278699
vt 0.235013 0.278699
vt 0.235013 0.278699
vt 0.235013 0.278699
vt 0.235013 0.278699
vt 0.235013 0.278699
vt 0.235013 0.278699
vt 0.235013 0.278699
vt 0.235013 0.278699
vt 0.235013 0.278699
vt 0.235013 0.278699
vt 0.235013 0.278699
vt 0.235013 0.278699
vt 0.235013 0.278699
vt 0.235013 0.278699
vt 0.235013 0.278699
vt 0.235013 0.278699
vt 0.235013 0.278699
vt 0.235013 0.278699
vt 0.235013 0.278699
vt 0.235013 0.278699
vt 0.235013 0.278699
vt 0.235013 0.278699
vt 0.235013 0.278699
vt 0.235013 0.278699
vt 0.235013 0.278699
vt 0.235013 0.278699
vt 0.235013 0.278699
vt 0.235013 0.278699
vt 0.235013 0.278699
vt 0.235013 0.278699
vt 0.235013 0.278699
vt 0.235013 0.278699
vt 0.235013 0.278699
vt 0.235013 0.278699
vt 0.235013 0.278699
vt 0.235013 0.278699
vt 0.235013 0.278699
vt 0.235013 0.278699
vt 0.235013 0.278699
vt 0.235013 0.278699
vt 0.235013 0.278699
vt 0.235013 0.278699
vt 0.235013 0.278699
vt 0.235013 0.278699
vt 0.235013 0.278699
vt 0.235013 0.278699
vt 0.235013 0.278699
vt 0.235013 0.278699
vt 0.235013 0.278699
vt 0.235013 0.278699
vt 0.235013 0.278699
vt 0.235013 0.278699
vt 0.235013 0.278699
vt 0.235013 0.278699
vt 0.235013 0.278699
vt 0.235013 0.278699
vt 0.235013 0.278699
vn 0.022752 0.998941 0.040001
vn 0.022752 0.998941 0.040001
vn 0.022752 0.998941 0.040001
vn 0.496850 0.867482 -0.024779
vn 0.496850 0.867482 -0.024779
vn 0.496850 0.867482 -0.024779
vn 0.074010 0.619038 0.781866
vn 0.074010 0.619038 0.781866
vn 0.074010 0.619038 0.781866
vn 0.527875 0.839993 0.125543
vn 0.527875 0.839993 0.125543
vn 0.527875 0.839993 0.125543
vn 0.231790 0.966366 0.111400
vn 0.231790 0.966366 0.111400
vn 0.231790 0.966366 0.111400
vn 0.201042 0.965639 0.164690
vn 0.201042 0.965639 0.164690
vn 0.201042 0.965639 0.164690
vn 0.716249 0.649350 0.255601
vn 0.716249 0.649350 0.255601
vn 0.716249 0.649350 0.255601
vn 0.082740 0.970805 0.225146
vn 0.082740 0.970805 0.225146
vn 0.082740 0.970806 0.225146
vn 0.363703 0.567511 0.738682
vn 0.363703 0.567511 0.738682
vn 0.363703 0.567511 0.738682
vn -0.054432 0.712005 0.700062
vn -0.054432 0.712005 0.700062
vn -0.054432 0.712005 0.700062
vn 0.165599 0.921943 0.350139
vn 0.165599 0.921943 0.350139
vn 0.165599 0.921943 0.350139
vn 0.230078 0.747940 0.622616
vn 0.230078 0.747940 0.622616
vn 0.230078 0.747940 0.622616
vn 0.821766 0.432857 0.370588
vn 0.821766 0.432857 0.370588
vn 0.821766 0.432857 0.370588
vn 0.650561 0.728830 0.213486
vn 0.650561 0.728830 0.213486
vn 0.650561 0.728830 0.213486
vn 0.110198 0.620820 0.776170
vn 0.110198 0.620820 0.776170
vn 0.110198 0.620820 0.776170
vn 0.193019 0.547668 0.814127
vn 0.193019 0.547668 0.814127
vn 0.193019 0.547668 0.814127
vn 0.514685 0.592030 0.620161
vn 0.514685 0.592030 0.620161
vn 0.514685 0.592030 0.620161
vn 0.523748 0.804713 0.279508
vn 0.523748 0.804713 0.279508
vn 0.523748 0.804713 0.279508
vn 0.219080 0.936860 0.272577
vn 0.219080 0.936860 0.272577
vn 0.219080 0.936860 0.272577
vn -0.267684 0.929526 -0.253626
vn -0.267684 0.929526 -0.253627
vn -0.267684 0.929526 -0.253626
vn 0.386606 0.837806 0.385510
vn 0.386606 0.837806 0.385510
vn 0.386606 0.837806 0.385510
vn 0.158154 0.979986 -0.120892
vn 0.158154 0.979986 -0.120892
vn 0.158154 0.979986 -0.120892
vn 0.090607 0.810708 0.578397
vn 0.090607 0.810708 0.578397
vn 0.090607 0.810708 0.578397
vn 0.076367 0.805926 0.587071
vn 0.076367 0.805926 0.587071
vn 0.076367 0.805926 0.587071
vn 0.379952 0.806084 0.453724
vn 0.379952 0.806084 0.453724
vn 0.379952 0.806084 0.453724
vn -0.671607 0.658867 0.338877
vn -0.671607 0.658867 0.338878
vn -0.671607 0.658867 0.338878
vn -0.673327 0.651387 0.349752
vn -0.673327 0.651387 0.349752
vn -0.673327 0.651387 0.349752
vn -0.596206 0.742319 0.305781
vn -0.596206 0.742319 0.305781
vn -0.596206 0.742319 0.305781
vn -0.935857 0.322522 0.141959
vn -0.935857 0.322522 0.141959
vn -0.935857 0.322522 0.141959
vn -0.897464 0.367288 -0.244248
vn -0.897464 0.367288 -0.244248
vn -0.897465 0.367288 -0.244248
vn -0.897464 0.367288 -0.244248
vn 0.010254 0.288627 -0.957387
vn 0.010254 0.288627 -0.957387
vn 0.010254 0.288627 -0.957387
vn -0.958675 0.214460 -0.186949
vn -0.958675 0.214460 -0.186949
vn -0.958675 0.214460 -0.186949
vn -0.971310 0.045290 -0.233466
vn -0.971310 0.045290 -0.233466
vn -0.971310 0.045290 -0.233466
vn -0.961732 0.153539 -0.226930
vn -0.961732 0.153539 -0.226930
vn -0.961732 0.153539 -0.226930
vn -0.947781 0.318338 -0.019275
vn -0.947781 0.318338 -0.019275
vn -0.947781 0.318338 -0.019275
vn -0.979835 0.197218 0.032053
vn -0.979835 0.197218 0.032053
vn -0.979836 0.197218 0.032053
vn -0.830189 0.556055 0.039856
vn -0.830189 0.556055 0.039856
vn -0.830189 0.556056 0.039856
vn -0.918208 -0.388054 -0.079427
vn -0.918208 -0.388054 -0.079427
vn -0.918208 -0.388054 -0.079427
vn 0.092385 0.056921 -0.994095
vn 0.092385 0.056921 -0.994095
vn 0.092385 0.056921 -0.994095
vn 0.256688 0.561418 -0.786716
vn 0.256688 0.561418 -0.786716
vn 0.256688 0.561418 -0.786716
vn -0.134390 0.964040 -0.229275
vn -0.134390 0.964040 -0.229275
vn -0.134390 0.964040 -0.229275
vn 0.053310 0.265033 -0.962765
vn 0.053310 0.265033 -0.962765
vn 0.053310 0.265033 -0.962765
vn 0.228625 0.844619 -0.484096
vn 0.228625 0.844619 -0.484096
vn 0.228625 0.844619 -0.484096
vn -0.500372 0.754011 0.425552
vn -0.500372 0.754011 0.425552
vn -0.500372 0.754011 0.425552
vn -0.966007 0.254262 -0.046698
vn -0.966007 0.254262 -0.046698
vn -0.966007 0.254262 -0.046698
vn -0.621501 0.686385 0.377640
vn -0.621501 0.686385 0.377640
vn -0.621501 0.686385 0.377640
vn 0.384268 0.914801 0.124409
vn 0.384268 0.914801 0.124408
vn 0.384268 0.914801 0.124409
vn 0.162757 0.975993 -0.144738
vn 0.162757 0.975993 -0.144738
vn 0.162757 0.975993 -0.144738
vn 0.359338 0.888456 0.285521
vn 0.359338 0.888456 0.285521
vn 0.359338 0.888456 0.285521
vn 0.340251 0.807582 0.481706
vn 0.340251 0.807582 0.481706
vn 0.340251 0.807582 0.481706
vn 0.450070 0.825430 0.340738
vn 0.450070 0.825430 0.340738
vn 0.450070 0.825430 0.340738
vn 0.718320 0.662890 0.211172
vn 0.718320 0.662890 0.211172
vn 0.718320 0.662890 0.211172
vn 0.358564 0.779524 0.513590
vn 0.358564 0.779524 0.513590
vn 0.358564 0.779524 0.513590
vn 0.361236 0.699179 0.616974
vn 0.361236 0.699179 0.616974
vn 0.361236 0.699179 0.616974
vn 0.349893 0.656126 0.668635
vn 0.349893 0.656126 0.668635
vn 0.349893 0.656126 0.668635
vn 0.223267 0.889402 0.398894
vn 0.223267 0.889402 0.398894
vn 0.223267 0.889402 0.398894
vn 0.522403 0.802277 0.288871
vn 0.522403 0.802277 0.288871
vn 0.522403 0.802277 0.288871
vn 0.268793 0.679859 0.682307
vn 0.268793 0.679859 0.682307
vn 0.268793 0.679859 0.682307
vn -0.119287 0.992409 0.029909
vn -0.119287 0.992409 0.029909
vn -0.119287 0.992409 0.029909
vn 0.135813 0.699944 0.701166
vn 0.135813 0.699944 0.701166
vn 0.135813 0.699944 0.701166
vn 0.095130 0.572337 0.814482
vn 0.095130 0.572337 0.814482
vn 0.095130 0.572337 0.814482
vn 0.132718 0.694556 0.707091
vn 0.132718 0.694556 0.707091
vn 0.132718 0.694556 0.707091
vn 0.352906 0.691992 0.629765
vn 0.352906 0.691992 0.629765
vn 0.352906 0.691992 0.629765
vn 0.321783 0.589386 0.741000
vn 0.321783 0.589386 0.741000
vn 0.321783 0.589386 0.741000
vn -0.235405 0.916289 0.324037
vn -0.235405 0.916289 0.324037
vn -0.235405 0.916289 0.324037
vn 0.413531 0.900060 -0.137422
vn 0.413531 0.900060 -0.137422
vn 0.413531 0.900060 -0.137422
vn 0.745794 0.656648 0.112272
vn 0.745794 0.656648 0.112272
vn 0.745794 0.656648 0.112272
vn 0.634376 0.727922 0.260187
vn 0.634376 0.727922 0.260187
vn 0.634376 0.727922 0.260187
vn 0.462453 0.695103 0.550427
vn 0.462453 0.695103 0.550427
vn 0.462453 0.695103 0.550427
vn 0.271294 0.702678 0.657756
vn 0.271294 0.702678 0.657756
vn 0.271294 0.702678 0.657756
vn 0.197512 0.759341 0.619992
vn 0.197512 0.759341 0.619992
vn 0.197512 0.759341 0.619992
vn 0.334004 0.645864 0.686514
vn 0.334004 0.645864 0.686514
vn 0.334004 0.645864 0.686514
vn 0.358742 0.923912 0.133004
vn 0.358742 0.923912 0.133004
vn 0.358742 0.923912 0.133004
vn 0.535725 0.827509 0.168011
vn 0.535725 0.827509 0.168011
vn 0.535725 0.827509 0.168011
vn 0.504515 0.796195 0.333975
vn 0.504515 0.796195 0.333975
vn 0.504515 0.796195 0.333975
vn 0.000000 1.000000 0.000000
vn 0.000000 1.000000 0.000000
vn 0.000000 1.000000 0.000000
vn 0.333380 0.936084 0.112269
vn 0.333380 0.936084 0.112269
vn 0.333380 0.936084 0.112269
vn 0.177843 0.919744 0.349918
vn 0.177843 0.919744 0.349918
vn 0.177843 0.919744 0.349918
vn 0.330294 0.917987 0.219556
vn 0.330295 0.917987 0.219556
vn 0.330295 0.917988 0.219556
vn -0.002679 0.834053 0.551678
vn -0.002679 0.834053 0.551678
vn -0.002679 0.834053 0.551678
vn 0.253089 0.611183 0.749934
vn 0.253089 0.611183 0.749934
vn 0.253089 0.611183 0.749934
vn 0.101201 0.973040 -0.207250
vn 0.101201 0.973040 -0.207250
vn 0.101201 0.973040 -0.207250
vn 0.412897 0.897216 0.156587
vn 0.412897 0.897216 0.156587
vn 0.412897 0.897216 0.156587
vn 0.296493 0.919656 0.257535
vn 0.296493 0.919656 0.257535
vn 0.296493 0.919656 0.257535
vn 0.017842 0.993485 0.112558
vn 0.017842 0.993485 0.112558
vn 0.017842 0.993485 0.112558
vn 0.000000 1.000000 0.000000
vn 0.000000 1.000000 0.000000
vn 0.000000 1.000000 0.000000
vn -0.072582 0.775660 0.626964
vn -0.072582 0.775660 0.626964
vn -0.072582 0.775660 0.626964
vn -0.044405 0.776067 0.629085
vn -0.044405 0.776067 0.629085
vn -0.044405 0.776067 0.629085
vn 0.403196 0.904775 -0.137166
vn 0.403196 0.904775 -0.137166
vn 0.403196 0.904775 -0.137166
vn 0.749919 0.600623 0.277262
vn 0.749919 0.600623 0.277262
vn 0.749919 0.600623 0.277262
vn 0.058592 0.998282 0.000575
vn 0.058592 0.998282 0.000575
vn 0.058592 0.998282 0.000575
vn 0.183561 0.981006 0.062708
vn 0.183561 0.981006 0.062708
vn 0.183561 0.981006 0.062708
vn 0.306637 0.950843 0.043260
vn 0.306637 0.950843 0.043260
vn 0.306637 0.950843 0.043260
vn 0.136929 0.988877 0.058083
vn 0.136929 0.988877 0.058083
vn 0.136929 0.988877 0.058083
vn 0.547901 0.789126 0.277644
vn 0.547900 0.789125 0.277644
vn 0.547901 0.789125 0.277644
vn -0.060390 0.844047 0.532859
vn -0.060390 0.844047 0.532859
vn -0.060390 0.844047 0.532859
vn 0.547303 0.722221 0.422913
vn 0.547303 0.722221 0.422913
vn 0.547303 0.722221 0.422913
vn 0.045151 0.742637 0.668170
vn 0.045151 0.742637 0.668170
vn 0.045151 0.742637 0.668170
vn 0.019516 0.997818 0.063075
vn 0.019516 0.997818 0.063075
vn 0.019516 0.997818 0.063075
vn 0.341866 0.939747 -0.001869
vn 0.341866 0.939747 -0.001869
vn 0.341866 0.939747 -0.001869
vn 0.126843 0.989201 -0.073427
vn 0.126843 0.989201 -0.073427
vn 0.126843 0.989201 -0.073427
vn 0.050549 0.373245 -0.926355
vn 0.050549 0.373245 -0.926355
vn 0.050549 0.373245 -0.926355
vn -0.012696 0.078792 -0.996810
vn -0.012696 0.078792 -0.996810
vn -0.012696 0.078792 -0.996810
vn -0.132377 0.296794 -0.945722
vn -0.132377 0.296794 -0.945722
vn -0.132377 0.296794 -0.945722
vn -0.133206 0.393672 -0.909548
vn -0.133206 0.393672 -0.909548
vn -0.133206 0.393672 -0.909549
vn -0.133206 0.393672 -0.909549
vn -0.211537 0.098955 -0.972348
vn -0.211537 0.098955 -0.972348
vn -0.211537 0.098955 -0.972348
vn -0.211537 0.098955 -0.972348
vn 0.000209 0.520277 -0.853998
vn 0.000209 0.520277 -0.853998
vn 0.000209 0.520277 -0.853998
vn 0.714873 0.650869 0.255592
vn 0.714873 0.650869 0.255592
vn 0.714873 0.650869 0.255592
vn 0.660241 0.730208 0.175722
vn 0.660241 0.730208 0.175722
vn 0.660241 0.730208 0.175722
vn 0.660241 0.730208 0.175722
vn 0.589336 0.763751 0.263378
vn 0.589336 0.763751 0.263378
vn 0.589336 0.763751 0.263378
vn 0.589336 0.763751 0.263378
vn 0.234579 0.798683 0.554146
vn 0.234579 0.798683 0.554146
vn 0.234579 0.798684 0.554146
vn 0.234579 0.798683 0.554146
vn 0.584071 0.654722 0.479792
vn 0.584071 0.654722 0.479792
vn 0.584071 0.654722 0.479792
s off
f 2/2/1 59/59/2 23/23/3
f 58/58/4 23/23/5 56/56/6
f 23/23/7 57/57/8 55/55/9
f 5/5/10 4/4/11 54/54/12
f 5/5/13 54/54/14 53/53/15
f 54/54/16 58/58/17 52/52/18
f 52/52/19 6/6/20 18/18/21
f 57/57/22 3/3/23 48/48/24
f 45/45/25 65/65/26 66/66/27
f 21/21/28 50/50/29 17/17/30
f 17/17/31 50/50/32 49/49/33
f 22/22/34 48/48/35 49/49/36
f 20/20/37 47/47/38 46/46/39
f 40/40/40 47/47/41 39/39/42
f 17/17/43 49/49/44 43/43/45
f 49/49/46 48/48/47 42/42/48
f 48/48/49 19/19/50 41/41/51
f 46/46/52 40/40/53 33/33/54
f 33/33/55 39/39/56 36/36/57
f 39/39/58 38/38/59 36/36/60
f 20/20/61 46/46/62 33/33/63
f 36/36/64 38/38/65 35/35/66
f 35/35/67 38/38/68 13/13/69
f 15/15/70 37/37/71 34/34/72
f 8/8/73 37/37/74 30/30/75
f 20/20/76 33/33/77 32/32/78
f 32/32/79 36/36/80 29/29/81
f 35/35/82 13/13/83 31/31/84
f 35/35/85 31/31/86 28/28/87
f 9/9/88 28/28/89 63/63/90 64/64/91
f 34/34/92 11/11/93 10/10/94
f 61/61/95 62/62/96 28/28/97
f 62/62/98 63/63/99 28/28/100
f 28/28/101 12/12/102 61/61/103
f 28/28/104 31/31/105 12/12/106
f 27/27/107 28/28/108 9/9/109
f 28/28/110 29/29/111 35/35/112
f 27/27/113 29/29/114 28/28/115
f 19/19/116 11/11/117 41/41/118
f 10/10/119 11/11/120 19/19/121
f 11/11/122 30/30/123 41/41/124
f 30/30/125 34/34/126 8/8/127
f 11/11/128 34/34/129 30/30/130
f 12/12/131 31/31/132 13/13/133
f 29/29/134 36/36/135 35/35/136
f 33/33/137 36/36/138 32/32/139
f 30/30/140 37/37/141 42/42/142
f 34/34/143 37/37/144 8/8/145
f 34/34/146 12/12/147 15/15/148
f 12/12/149 14/14/150 15/15/151
f 12/12/152 13/13/153 14/14/154
f 13/13/155 45/45/156 68/68/157
f 13/13/158 38/38/159 45/45/160
f 14/14/161 43/43/162 15/15/163
f 14/14/164 16/16/165 43/43/166
f 45/45/167 67/67/168 68/68/169
f 40/40/170 39/39/171 33/33/172
f 41/41/173 42/42/174 48/48/175
f 30/30/176 42/42/177 41/41/178
f 42/42/179 15/15/180 49/49/181
f 37/37/182 15/15/183 42/42/184
f 15/15/185 43/43/186 49/49/187
f 43/43/188 16/16/189 17/17/190
f 16/16/191 44/44/192 17/17/193
f 45/45/194 66/66/195 67/67/196
f 38/38/197 39/39/198 45/45/199
f 47/47/200 45/45/201 39/39/202
f 40/40/203 46/46/204 47/47/205
f 49/49/206 50/50/207 22/22/208
f 18/18/209 17/17/210 44/44/211
f 17/17/212 18/18/213 21/21/214
f 52/52/215 65/65/216 45/45/217
f 45/45/218 47/47/219 52/52/220
f 53/53/221 52/52/222 47/47/223
f 47/47/224 20/20/225 53/53/226
f 19/19/227 3/3/228 7/7/229
f 48/48/230 3/3/231 19/19/232
f 48/48/233 22/22/234 57/57/235
f 55/55/236 22/22/237 50/50/238
f 50/50/239 21/21/240 55/55/241
f 18/18/242 6/6/243 21/21/244
f 52/52/245 58/58/246 6/6/247
f 52/52/248 53/53/249 54/54/250
f 53/53/251 20/20/252 5/5/253
f 20/20/254 1/1/255 5/5/256
f 51/51/257 1/1/258 20/20/259
f 56/56/260 21/21/261 6/6/262
f 56/56/263 55/55/264 21/21/265
f 58/58/266 56/56/267 6/6/268
f 4/4/269 58/58/270 54/54/271
f 24/24/272 4/4/273 5/5/274
f 1/1/275 24/24/276 5/5/277
f 24/24/278 25/25/279 2/2/280
f 1/1/281 25/25/282 24/24/283
f 55/55/284 57/57/285 22/22/286
f 55/55/287 56/56/288 23/23/289
f 58/58/290 4/4/291 23/23/292
f 57/57/293 23/23/294 3/3/295
f 23/23/296 59/59/297 3/3/298
f 23/23/299 24/24/300 2/2/301
f 4/4/302 24/24/303 23/23/304
f 10/10/305 60/60/306 34/34/307
f 26/26/308 60/60/309 10/10/310
f 61/61/311 12/12/312 34/34/313
f 34/34/314 60/60/315 62/62/316 61/61/317
f 26/26/318 63/63/319 62/62/320 60/60/321
f 64/64/322 63/63/323 26/26/324
f 52/52/325 18/18/326 65/65/327
f 66/66/328 65/65/329 18/18/330 44/44/331
f 67/67/332 66/66/333 44/44/334 16/16/335
f 68/68/336 67/67/337 16/16/338 14/14/339
f 13/13/340 68/68/341 14/14/342
