# This file uses centimeters as units for non-parametric coordinates.

v 0.249817 0.890158 -0.181502
v 0.095417 0.890158 -0.293670
v -0.095417 0.890158 -0.293670
v -0.249817 0.890158 -0.181502
v -0.308783 0.890158 0.000003
v -0.249817 0.890158 0.181495
v -0.095417 0.890158 0.293672
v 0.095417 0.890158 0.293672
v 0.249817 0.890158 0.181495
v 0.308783 0.890158 0.000003
v 0.249817 3.630696 -0.181502
v 0.095417 3.630696 -0.293670
v -0.095417 3.630696 -0.293670
v -0.249817 3.630696 -0.181502
v -0.308783 3.630696 0.000003
v -0.249817 3.630696 0.181495
v -0.095417 3.630696 0.293672
v 0.095417 3.630696 0.293672
v 0.249817 3.630696 0.181495
v 0.308783 3.630696 0.000003
v 0.309763 0.824031 -0.225058
v 0.118320 0.824031 -0.364147
v -0.118320 0.824031 -0.364147
v -0.309755 0.824031 -0.225058
v -0.382885 0.824031 0.000003
v -0.309755 0.824031 0.225054
v -0.118320 0.824031 0.364142
v 0.118320 0.824031 0.364142
v 0.309763 0.824031 0.225054
v 0.382885 0.824031 0.000003
v 0.309763 0.281907 -0.225058
v 0.118320 0.281907 -0.364147
v -0.118320 0.281907 -0.364147
v -0.309755 0.281907 -0.225058
v -0.382885 0.281907 0.000003
v -0.309755 0.281907 0.225054
v -0.118320 0.281907 0.364142
v 0.118320 0.281907 0.364142
v 0.309763 0.281907 0.225054
v 0.382885 0.281907 0.000003
v 0.416412 0.202275 -0.302544
v 0.159058 0.202275 -0.489524
v -0.159058 0.202275 -0.489524
v -0.416412 0.202275 -0.302544
v -0.514719 0.202275 0.000003
v -0.416412 0.202275 0.302544
v -0.159058 0.202275 0.489528
v 0.159058 0.202275 0.489528
v 0.416412 0.202275 0.302544
v 0.514719 0.202275 0.000003
v 0.416412 0.000000 -0.302544
v 0.159058 0.000000 -0.489524
v 0.000000 0.000000 0.000003
v -0.159058 0.000000 -0.489524
v -0.416412 0.000000 -0.302544
v -0.514719 0.000000 0.000003
v -0.416412 0.000000 0.302544
v -0.159058 0.000000 0.489528
v 0.159058 0.000000 0.489528
v 0.416412 0.000000 0.302544
v 0.514719 0.000000 0.000003
v 0.307178 3.705431 -0.223180
v 0.117332 3.705431 -0.361105
v -0.117332 3.705431 -0.361105
v -0.307178 3.705431 -0.223180
v -0.379692 3.705431 0.000003
v -0.307178 3.705431 0.223171
v -0.117332 3.705431 0.361107
v 0.117332 3.705431 0.361107
v 0.307178 3.705431 0.223171
v 0.379692 3.705431 0.000003
v 0.307178 3.950902 -0.223180
v 0.117332 3.950902 -0.361105
v 0.000000 3.950902 0.000003
v -0.117332 3.950902 -0.361105
v -0.307178 3.950902 -0.223180
v -0.379692 3.950902 0.000003
v -0.307178 3.950902 0.223171
v -0.117332 3.950902 0.361107
v 0.117332 3.950902 0.361107
v 0.307178 3.950902 0.223171
v 0.379692 3.950902 0.000003
vt 0.198962 0.303024
vt 0.198962 0.303024
vt 0.198962 0.303024
vt 0.198962 0.303024
vt 0.198962 0.303024
vt 0.198962 0.303024
vt 0.198962 0.303024
vt 0.198962 0.303024
vt 0.198962 0.303024
vt 0.198962 0.303024
vt 0.198962 0.303024
vt 0.198962 0.303024
vt 0.198962 0.303024
vt 0.198962 0.303024
vt 0.198962 0.303024
vt 0.198962 0.303024
vt 0.198962 0.303024
vt 0.198962 0.303024
vt 0.198962 0.303024
vt 0.198962 0.303024
vt 0.198962 0.303024
vt 0.198962 0.303024
vt 0.198962 0.303024
vt 0.198962 0.303024
vt 0.198962 0.303024
vt 0.198962 0.303024
vt 0.198962 0.303024
vt 0.198962 0.303024
vt 0.198962 0.303024
vt 0.198962 0.303024
vt 0.198962 0.303024
vt 0.198962 0.303024
vt 0.198962 0.303024
vt 0.198962 0.303024
vt 0.198962 0.303024
vt 0.198962 0.303024
vt 0.198962 0.303024
vt 0.198962 0.303024
vt 0.198962 0.303024
vt 0.198962 0.303024
vt 0.198962 0.303024
vt 0.198962 0.303024
vt 0.198962 0.303024
vt 0.198962 0.303024
vt 0.198962 0.303024
vt 0.198962 0.303024
vt 0.198962 0.303024
vt 0.198962 0.303024
vt 0.198962 0.303024
vt 0.198962 0.303024
vt 0.198962 0.303024
vt 0.198962 0.303024
vt 0.198962 0.303024
vt 0.198962 0.303024
vt 0.198962 0.303024
vt 0.198962 0.303024
vt 0.198962 0.303024
vt 0.198962 0.303024
vt 0.198962 0.303024
vt 0.198962 0.303024
vt 0.198962 0.303024
vt 0.198962 0.303024
vt 0.198962 0.303024
vt 0.198962 0.303024
vt 0.198962 0.303024
vt 0.198962 0.303024
vt 0.198962 0.303024
vt 0.198962 0.303024
vt 0.198962 0.303024
vt 0.198962 0.303024
vt 0.198962 0.303024
vt 0.198962 0.303024
vt 0.198962 0.303024
vt 0.198962 0.303024
vt 0.198962 0.303024
vt 0.198962 0.303024
vt 0.198962 0.303024
vt 0.198962 0.303024
vt 0.198962 0.303024
vt 0.198962 0.303024
vt 0.198962 0.303024
vt 0.198962 0.303024
vn 0.587752 0.000000 -0.809041
vn 0.587752 0.000000 -0.809041
vn 0.587752 0.000000 -0.809041
vn 0.587752 0.000000 -0.809041
vn 0.000000 0.000000 -1.000000
vn 0.000000 0.000000 -1.000000
vn 0.000000 0.000000 -1.000000
vn 0.000000 0.000000 -1.000000
vn -0.587752 0.000000 -0.809041
vn -0.587752 0.000000 -0.809041
vn -0.587752 0.000000 -0.809041
vn -0.587752 0.000000 -0.809041
vn -0.951070 0.000000 -0.308975
vn -0.951070 0.000000 -0.308975
vn -0.951070 0.000000 -0.308975
vn -0.951070 0.000000 -0.308975
vn -0.951064 0.000000 0.308995
vn -0.951064 0.000000 0.308995
vn -0.951064 0.000000 0.308995
vn -0.951064 0.000000 0.308995
vn -0.587781 0.000000 0.809020
vn -0.587781 0.000000 0.809020
vn -0.587781 0.000000 0.809020
vn -0.587781 0.000000 0.809020
vn 0.000000 0.000000 1.000000
vn 0.000000 0.000000 1.000000
vn 0.000000 0.000000 1.000000
vn 0.000000 0.000000 1.000000
vn 0.587781 0.000000 0.809020
vn 0.587781 0.000000 0.809020
vn 0.587781 0.000000 0.809020
vn 0.587781 0.000000 0.809020
vn 0.951064 0.000000 0.308995
vn 0.951064 0.000000 0.308995
vn 0.951064 0.000000 0.308995
vn 0.951064 0.000000 0.308995
vn 0.951070 0.000000 -0.308975
vn 0.951070 0.000000 -0.308975
vn 0.951070 0.000000 -0.308975
vn 0.951070 0.000000 -0.308975
vn 0.000000 -1.000000 0.000000
vn 0.000000 -1.000000 0.000000
vn 0.000000 -1.000000 0.000000
vn 0.000000 -1.000000 0.000000
vn 0.000000 -1.000000 0.000000
vn 0.000000 -1.000000 0.000000
vn 0.000000 -1.000000 0.000000
vn 0.000000 -1.000000 0.000000
vn 0.000000 -1.000000 0.000000
vn 0.000000 -1.000000 0.000000
vn 0.000000 -1.000000 0.000000
vn 0.000000 -1.000000 0.000000
vn 0.000000 -1.000000 0.000000
vn 0.000000 -1.000000 0.000000
vn 0.000000 -1.000000 0.000000
vn 0.000000 -1.000000 0.000000
vn 0.000000 -1.000000 0.000000
vn 0.000000 -1.000000 0.000000
vn 0.000000 -1.000000 0.000000
vn 0.000000 -1.000000 0.000000
vn 0.000000 -1.000000 0.000000
vn 0.000000 -1.000000 0.000000
vn 0.000000 -1.000000 0.000000
vn 0.000000 -1.000000 0.000000
vn 0.000000 -1.000000 0.000000
vn 0.000000 -1.000000 0.000000
vn 0.000000 -1.000000 0.000000
vn 0.000000 -1.000000 0.000000
vn 0.000000 -1.000000 0.000000
vn 0.000000 -1.000000 0.000000
vn 0.000000 1.000000 0.000001
vn 0.000000 1.000000 0.000001
vn 0.000000 1.000000 -0.000000
vn 0.000000 1.000000 0.000001
vn 0.000000 1.000000 0.000001
vn 0.000000 1.000000 -0.000000
vn 0.000000 1.000000 0.000001
vn 0.000000 1.000000 -0.000001
vn 0.000000 1.000000 -0.000000
vn 0.000000 1.000000 -0.000001
vn 0.000000 1.000000 -0.000001
vn 0.000000 1.000000 -0.000000
vn 0.000000 1.000000 -0.000001
vn 0.000000 1.000000 -0.000001
vn 0.000000 1.000000 -0.000000
vn 0.000000 1.000000 -0.000001
vn 0.000000 1.000000 -0.000001
vn 0.000000 1.000000 -0.000000
vn 0.000000 1.000000 -0.000001
vn 0.000000 1.000000 -0.000001
vn 0.000000 1.000000 -0.000000
vn 0.000000 1.000000 -0.000001
vn 0.000000 1.000000 0.000001
vn 0.000000 1.000000 -0.000000
vn 0.000000 1.000000 0.000001
vn 0.000000 1.000000 0.000001
vn 0.000000 1.000000 -0.000000
vn 0.000000 1.000000 0.000001
vn 0.000000 1.000000 0.000001
vn 0.000000 1.000000 -0.000000
vn 0.402179 0.729249 -0.553578
vn 0.402178 0.729249 -0.553578
vn 0.402178 0.729249 -0.553578
vn 0.402178 0.729249 -0.553578
vn 0.000000 0.729251 -0.684246
vn 0.000000 0.729251 -0.684246
vn 0.000000 0.729251 -0.684246
vn 0.000000 0.729251 -0.684246
vn -0.402191 0.729238 -0.553583
vn -0.402191 0.729238 -0.553583
vn -0.402191 0.729238 -0.553583
vn -0.402191 0.729238 -0.553583
vn -0.650792 0.729219 -0.211446
vn -0.650792 0.729219 -0.211446
vn -0.650792 0.729219 -0.211446
vn -0.650792 0.729219 -0.211446
vn -0.650786 0.729221 0.211456
vn -0.650786 0.729221 0.211456
vn -0.650786 0.729221 0.211456
vn -0.650786 0.729221 0.211456
vn -0.402205 0.729230 0.553584
vn -0.402205 0.729230 0.553584
vn -0.402205 0.729230 0.553584
vn -0.402205 0.729230 0.553584
vn 0.000000 0.729219 0.684281
vn 0.000000 0.729219 0.684281
vn 0.000000 0.729218 0.684281
vn 0.000000 0.729218 0.684281
vn 0.402192 0.729240 0.553579
vn 0.402192 0.729240 0.553579
vn 0.402192 0.729240 0.553579
vn 0.402192 0.729240 0.553579
vn 0.650772 0.729239 0.211439
vn 0.650772 0.729239 0.211439
vn 0.650772 0.729239 0.211439
vn 0.650772 0.729239 0.211439
vn 0.650778 0.729237 -0.211429
vn 0.650778 0.729237 -0.211429
vn 0.650778 0.729237 -0.211429
vn 0.650778 0.729237 -0.211429
vn 0.587778 0.000000 -0.809022
vn 0.587778 0.000000 -0.809022
vn 0.587778 0.000000 -0.809022
vn 0.587778 0.000000 -0.809022
vn 0.000000 0.000000 -1.000000
vn 0.000000 0.000000 -1.000000
vn 0.000000 0.000000 -1.000000
vn 0.000000 0.000000 -1.000000
vn -0.587794 0.000000 -0.809011
vn -0.587794 0.000000 -0.809011
vn -0.587794 0.000000 -0.809011
vn -0.587794 0.000000 -0.809011
vn -0.951053 0.000000 -0.309028
vn -0.951053 0.000000 -0.309028
vn -0.951053 0.000000 -0.309028
vn -0.951053 0.000000 -0.309028
vn -0.951049 0.000000 0.309041
vn -0.951049 0.000000 0.309041
vn -0.951049 0.000000 0.309041
vn -0.951049 0.000000 0.309041
vn -0.587793 0.000000 0.809012
vn -0.587793 0.000000 0.809012
vn -0.587793 0.000000 0.809012
vn -0.587793 0.000000 0.809012
vn 0.000000 0.000000 1.000000
vn 0.000000 0.000000 1.000000
vn 0.000000 0.000000 1.000000
vn 0.000000 0.000000 1.000000
vn 0.587777 0.000000 0.809023
vn 0.587777 0.000000 0.809023
vn 0.587777 0.000000 0.809023
vn 0.587777 0.000000 0.809023
vn 0.951058 0.000000 0.309011
vn 0.951058 0.000000 0.309011
vn 0.951058 0.000000 0.309011
vn 0.951058 0.000000 0.309011
vn 0.951062 0.000000 -0.308999
vn 0.951062 0.000000 -0.308999
vn 0.951062 0.000000 -0.308999
vn 0.951062 0.000000 -0.308999
vn 0.315135 0.844128 -0.433749
vn 0.315135 0.844128 -0.433749
vn 0.315135 0.844128 -0.433749
vn 0.315135 0.844128 -0.433749
vn 0.000000 0.844131 -0.536137
vn 0.000000 0.844131 -0.536137
vn 0.000000 0.844131 -0.536137
vn 0.000000 0.844131 -0.536137
vn -0.315134 0.844132 -0.433740
vn -0.315134 0.844132 -0.433740
vn -0.315134 0.844132 -0.433741
vn -0.315134 0.844132 -0.433740
vn -0.509883 0.844139 -0.165677
vn -0.509883 0.844139 -0.165677
vn -0.509883 0.844139 -0.165677
vn -0.509883 0.844139 -0.165677
vn -0.509879 0.844140 0.165681
vn -0.509879 0.844140 0.165681
vn -0.509879 0.844140 0.165681
vn -0.509879 0.844140 0.165681
vn -0.315128 0.844142 0.433726
vn -0.315128 0.844142 0.433726
vn -0.315128 0.844142 0.433726
vn -0.315128 0.844142 0.433726
vn 0.000000 0.844147 0.536111
vn 0.000000 0.844147 0.536111
vn 0.000000 0.844148 0.536111
vn 0.000000 0.844148 0.536111
vn 0.315128 0.844138 0.433734
vn 0.315128 0.844138 0.433734
vn 0.315128 0.844138 0.433734
vn 0.315128 0.844138 0.433734
vn 0.509892 0.844133 0.165678
vn 0.509892 0.844133 0.165678
vn 0.509892 0.844133 0.165678
vn 0.509892 0.844133 0.165678
vn 0.509895 0.844132 -0.165674
vn 0.509895 0.844132 -0.165674
vn 0.509895 0.844132 -0.165674
vn 0.509895 0.844132 -0.165674
vn 0.587787 0.000000 -0.809016
vn 0.587787 0.000000 -0.809016
vn 0.587787 0.000000 -0.809016
vn 0.587787 0.000000 -0.809016
vn 0.000000 0.000000 -1.000000
vn 0.000000 0.000000 -1.000000
vn 0.000000 0.000000 -1.000000
vn 0.000000 0.000000 -1.000000
vn -0.587787 0.000000 -0.809016
vn -0.587787 0.000000 -0.809016
vn -0.587787 0.000000 -0.809016
vn -0.587787 0.000000 -0.809016
vn -0.951054 0.000000 -0.309026
vn -0.951054 0.000000 -0.309026
vn -0.951054 0.000000 -0.309026
vn -0.951054 0.000000 -0.309026
vn -0.951052 0.000000 0.309032
vn -0.951052 0.000000 0.309032
vn -0.951052 0.000000 0.309032
vn -0.951052 0.000000 0.309032
vn -0.587795 0.000000 0.809010
vn -0.587795 0.000000 0.809010
vn -0.587795 0.000000 0.809010
vn -0.587795 0.000000 0.809010
vn 0.000000 0.000000 1.000000
vn 0.000000 0.000000 1.000000
vn 0.000000 0.000000 1.000000
vn 0.000000 0.000000 1.000000
vn 0.587795 0.000000 0.809010
vn 0.587795 0.000000 0.809010
vn 0.587795 0.000000 0.809010
vn 0.587795 0.000000 0.809010
vn 0.951052 0.000000 0.309032
vn 0.951052 0.000000 0.309032
vn 0.951052 0.000000 0.309032
vn 0.951052 0.000000 0.309032
vn 0.951054 0.000000 -0.309026
vn 0.951054 0.000000 -0.309026
vn 0.951054 0.000000 -0.309026
vn 0.951054 0.000000 -0.309026
vn 0.436371 -0.669924 -0.600651
vn 0.436371 -0.669924 -0.600651
vn 0.436371 -0.669924 -0.600651
vn 0.436371 -0.669924 -0.600651
vn 0.000000 -0.669920 -0.742433
vn 0.000000 -0.669920 -0.742433
vn 0.000000 -0.669920 -0.742433
vn 0.000000 -0.669920 -0.742433
vn -0.436371 -0.669923 -0.600652
vn -0.436371 -0.669923 -0.600652
vn -0.436371 -0.669923 -0.600652
vn -0.436371 -0.669923 -0.600652
vn -0.706098 -0.669924 -0.229406
vn -0.706098 -0.669924 -0.229406
vn -0.706098 -0.669924 -0.229406
vn -0.706098 -0.669924 -0.229406
vn -0.706095 -0.669922 0.229421
vn -0.706095 -0.669922 0.229420
vn -0.706095 -0.669922 0.229420
vn -0.706095 -0.669922 0.229421
vn -0.436395 -0.669920 0.600639
vn -0.436395 -0.669920 0.600639
vn -0.436395 -0.669920 0.600639
vn -0.436395 -0.669920 0.600639
vn 0.000000 -0.669920 0.742433
vn 0.000000 -0.669920 0.742433
vn 0.000000 -0.669920 0.742433
vn 0.000000 -0.669920 0.742433
vn 0.436395 -0.669919 0.600640
vn 0.436395 -0.669919 0.600640
vn 0.436395 -0.669919 0.600640
vn 0.436395 -0.669919 0.600640
vn 0.706095 -0.669922 0.229421
vn 0.706095 -0.669922 0.229420
vn 0.706095 -0.669922 0.229420
vn 0.706095 -0.669922 0.229420
vn 0.706098 -0.669924 -0.229406
vn 0.706098 -0.669924 -0.229406
vn 0.706098 -0.669924 -0.229406
vn 0.706098 -0.669924 -0.229406
vn 0.587769 0.000000 -0.809029
vn 0.587769 0.000000 -0.809029
vn 0.587769 0.000000 -0.809029
vn 0.587769 0.000000 -0.809029
vn 0.000000 0.000000 -1.000000
vn 0.000000 0.000000 -1.000000
vn 0.000000 0.000000 -1.000000
vn 0.000000 0.000000 -1.000000
vn -0.587769 0.000000 -0.809029
vn -0.587769 0.000000 -0.809029
vn -0.587769 0.000000 -0.809029
vn -0.587769 0.000000 -0.809029
vn -0.951060 0.000000 -0.309006
vn -0.951060 0.000000 -0.309006
vn -0.951060 0.000000 -0.309006
vn -0.951060 0.000000 -0.309006
vn -0.951054 0.000000 0.309024
vn -0.951054 0.000000 0.309024
vn -0.951054 0.000000 0.309024
vn -0.951054 0.000000 0.309024
vn -0.587799 0.000000 0.809007
vn -0.587799 0.000000 0.809007
vn -0.587799 0.000000 0.809007
vn -0.587799 0.000000 0.809007
vn 0.000000 0.000000 1.000000
vn 0.000000 0.000000 1.000000
vn 0.000000 0.000000 1.000000
vn 0.000000 0.000000 1.000000
vn 0.587799 0.000000 0.809007
vn 0.587799 0.000000 0.809007
vn 0.587799 0.000000 0.809007
vn 0.587799 0.000000 0.809007
vn 0.951054 0.000000 0.309024
vn 0.951054 0.000000 0.309024
vn 0.951054 0.000000 0.309024
vn 0.951054 0.000000 0.309024
vn 0.951060 0.000000 -0.309006
vn 0.951060 0.000000 -0.309006
vn 0.951060 0.000000 -0.309006
vn 0.951060 0.000000 -0.309006
s off
f 1/1/1 2/2/2 12/3/3 11/4/4
f 2/2/5 3/5/6 13/6/7 12/3/8
f 3/5/9 4/7/10 14/8/11 13/6/12
f 4/7/13 5/9/14 15/10/15 14/8/16
f 5/9/17 6/11/18 16/12/19 15/10/20
f 6/11/21 7/13/22 17/14/23 16/12/24
f 7/13/25 8/15/26 18/16/27 17/14/28
f 8/15/29 9/17/30 19/18/31 18/16/32
f 9/17/33 10/19/34 20/20/35 19/18/36
f 10/19/37 1/1/38 11/4/39 20/20/40
f 52/21/41 51/22/42 53/23/43
f 54/24/44 52/21/45 53/23/46
f 55/25/47 54/24/48 53/23/49
f 56/26/50 55/25/51 53/23/52
f 57/27/53 56/26/54 53/23/55
f 58/28/56 57/27/57 53/23/58
f 59/29/59 58/28/60 53/23/61
f 60/30/62 59/29/63 53/23/64
f 61/31/65 60/30/66 53/23/67
f 51/22/68 61/31/69 53/23/70
f 72/32/71 73/33/72 74/34/73
f 73/33/74 75/35/75 74/34/76
f 75/35/77 76/36/78 74/34/79
f 76/36/80 77/37/81 74/34/82
f 77/37/83 78/38/84 74/34/85
f 78/38/86 79/39/87 74/34/88
f 79/39/89 80/40/90 74/34/91
f 80/40/92 81/41/93 74/34/94
f 81/41/95 82/42/96 74/34/97
f 82/42/98 72/32/99 74/34/100
f 2/2/101 1/1/102 21/43/103 22/44/104
f 3/5/105 2/2/106 22/44/107 23/45/108
f 4/7/109 3/5/110 23/45/111 24/46/112
f 5/9/113 4/7/114 24/46/115 25/47/116
f 6/11/117 5/9/118 25/47/119 26/48/120
f 7/13/121 6/11/122 26/48/123 27/49/124
f 8/15/125 7/13/126 27/49/127 28/50/128
f 9/17/129 8/15/130 28/50/131 29/51/132
f 10/19/133 9/17/134 29/51/135 30/52/136
f 1/1/137 10/19/138 30/52/139 21/43/140
f 22/44/141 21/43/142 31/53/143 32/54/144
f 23/45/145 22/44/146 32/54/147 33/55/148
f 24/46/149 23/45/150 33/55/151 34/56/152
f 25/47/153 24/46/154 34/56/155 35/57/156
f 26/48/157 25/47/158 35/57/159 36/58/160
f 27/49/161 26/48/162 36/58/163 37/59/164
f 28/50/165 27/49/166 37/59/167 38/60/168
f 29/51/169 28/50/170 38/60/171 39/61/172
f 30/52/173 29/51/174 39/61/175 40/62/176
f 21/43/177 30/52/178 40/62/179 31/53/180
f 32/54/181 31/53/182 41/63/183 42/64/184
f 33/55/185 32/54/186 42/64/187 43/65/188
f 34/56/189 33/55/190 43/65/191 44/66/192
f 35/57/193 34/56/194 44/66/195 45/67/196
f 36/58/197 35/57/198 45/67/199 46/68/200
f 37/59/201 36/58/202 46/68/203 47/69/204
f 38/60/205 37/59/206 47/69/207 48/70/208
f 39/61/209 38/60/210 48/70/211 49/71/212
f 40/62/213 39/61/214 49/71/215 50/72/216
f 31/53/217 40/62/218 50/72/219 41/63/220
f 42/64/221 41/63/222 51/22/223 52/21/224
f 43/65/225 42/64/226 52/21/227 54/24/228
f 44/66/229 43/65/230 54/24/231 55/25/232
f 45/67/233 44/66/234 55/25/235 56/26/236
f 46/68/237 45/67/238 56/26/239 57/27/240
f 47/69/241 46/68/242 57/27/243 58/28/244
f 48/70/245 47/69/246 58/28/247 59/29/248
f 49/71/249 48/70/250 59/29/251 60/30/252
f 50/72/253 49/71/254 60/30/255 61/31/256
f 41/63/257 50/72/258 61/31/259 51/22/260
f 11/4/261 12/3/262 63/73/263 62/74/264
f 12/3/265 13/6/266 64/75/267 63/73/268
f 13/6/269 14/8/270 65/76/271 64/75/272
f 14/8/273 15/10/274 66/77/275 65/76/276
f 15/10/277 16/12/278 67/78/279 66/77/280
f 16/12/281 17/14/282 68/79/283 67/78/284
f 17/14/285 18/16/286 69/80/287 68/79/288
f 18/16/289 19/18/290 70/81/291 69/80/292
f 19/18/293 20/20/294 71/82/295 70/81/296
f 20/20/297 11/4/298 62/74/299 71/82/300
f 62/74/301 63/73/302 73/33/303 72/32/304
f 63/73/305 64/75/306 75/35/307 73/33/308
f 64/75/309 65/76/310 76/36/311 75/35/312
f 65/76/313 66/77/314 77/37/315 76/36/316
f 66/77/317 67/78/318 78/38/319 77/37/320
f 67/78/321 68/79/322 79/39/323 78/38/324
f 68/79/325 69/80/326 80/40/327 79/39/328
f 69/80/329 70/81/330 81/41/331 80/40/332
f 70/81/333 71/82/334 82/42/335 81/41/336
f 71/82/337 62/74/338 72/32/339 82/42/340
