# This file uses centimeters as units for non-parametric coordinates.

v -0.313480 0.317203 -0.072561
v -0.254498 0.305290 -0.250392
v -0.377428 0.154863 -0.004442
v -0.042389 0.678021 -0.088697
v -0.368139 0.048894 -0.149148
v 0.096076 0.613949 -0.172907
v -0.290202 0.186626 0.180543
v -0.042871 0.120234 -0.416832
v -0.151126 -0.079192 -0.384587
v -0.379050 -0.278762 -0.054772
v -0.098379 0.456023 0.254189
v 0.051513 0.220837 -0.382406
v 0.122308 0.412393 -0.287324
v 0.051358 0.688815 0.087531
v 0.139009 0.670215 -0.042062
v 0.221976 0.499217 0.123717
v 0.063829 -0.040954 -0.441948
v -0.369936 -0.313127 -0.187809
v -0.126061 0.169216 0.352857
v 0.247232 0.508291 0.080307
v 0.160729 -0.145641 -0.409304
v -0.174721 -0.432342 -0.369869
v -0.106034 -0.032216 0.405578
v 0.289746 -0.003704 -0.293112
v 0.106557 -0.272192 -0.444791
v -0.199169 -0.125781 0.332829
v -0.305791 -0.428582 0.061200
v 0.281911 -0.227954 0.259080
v 0.174343 0.067584 0.356720
v 0.041564 -0.235047 0.444792
v -0.199651 -0.508096 0.232042
v -0.218567 -0.578648 -0.194320
v 0.004440 -0.640556 -0.250080
v 0.379050 0.012274 -0.078558
v -0.206727 -0.562862 0.144772
v 0.353108 -0.086006 -0.217248
v 0.024308 -0.411119 0.390562
v -0.084992 -0.626637 0.117922
v -0.052685 -0.669498 0.073815
v 0.218446 -0.566284 -0.194909
v -0.056666 -0.682344 -0.158592
v 0.040972 -0.688815 -0.081360
v 0.020659 -0.630665 0.141066
v 0.206155 -0.631389 -0.040792
v 0.064166 -0.602355 0.190034
v 0.303876 -0.427449 0.177708
v 0.114099 -0.579942 0.231224
v 0.257017 -0.546194 0.140575
vt 0.211594 0.300503
vt 0.211594 0.300503
vt 0.211594 0.300503
vt 0.211594 0.300503
vt 0.211594 0.300503
vt 0.211594 0.300503
vt 0.211594 0.300503
vt 0.211594 0.300503
vt 0.211594 0.300503
vt 0.211594 0.300503
vt 0.211594 0.300503
vt 0.211594 0.300503
vt 0.211594 0.300503
vt 0.211594 0.300503
vt 0.211594 0.300503
vt 0.211594 0.300503
vt 0.211594 0.300503
vt 0.211594 0.300503
vt 0.211594 0.300503
vt 0.211594 0.300503
vt 0.211594 0.300503
vt 0.211594 0.300503
vt 0.211594 0.300503
vt 0.211594 0.300503
vt 0.211594 0.300503
vt 0.211594 0.300503
vt 0.211594 0.300503
vt 0.211594 0.300503
vt 0.211594 0.300503
vt 0.211594 0.300503
vt 0.211594 0.300503
vt 0.211594 0.300503
vt 0.211594 0.300503
vt 0.211594 0.300503
vt 0.211594 0.300503
vt 0.211594 0.300503
vt 0.211594 0.300503
vt 0.211594 0.300503
vt 0.211594 0.300503
vt 0.211594 0.300503
vt 0.211594 0.300503
vt 0.211594 0.300503
vt 0.211594 0.300503
vt 0.211594 0.300503
vt 0.211594 0.300503
vt 0.211594 0.300503
vt 0.211594 0.300503
vt 0.211594 0.300503
vn -0.770544 0.565804 -0.293476
vn -0.770544 0.565804 -0.293476
vn -0.770544 0.565804 -0.293476
vn -0.906665 0.275814 -0.319196
vn -0.906665 0.275814 -0.319196
vn -0.906665 0.275814 -0.319196
vn -0.264640 0.506573 -0.820579
vn -0.264640 0.506573 -0.820579
vn -0.264640 0.506573 -0.820579
vn -0.931868 0.261591 -0.251382
vn -0.931868 0.261591 -0.251382
vn -0.931868 0.261591 -0.251382
vn -0.751041 0.073796 -0.656118
vn -0.751041 0.073796 -0.656119
vn -0.751041 0.073796 -0.656118
vn -0.831419 0.458941 0.313235
vn -0.831419 0.458941 0.313235
vn -0.831419 0.458941 0.313235
vn -0.997261 0.012198 -0.072947
vn -0.997261 0.012198 -0.072947
vn -0.997261 0.012198 -0.072947
vn -0.900371 -0.046842 0.432594
vn -0.900371 -0.046842 0.432594
vn -0.900371 -0.046842 0.432594
vn -0.809924 0.487574 0.326031
vn -0.809923 0.487574 0.326031
vn -0.809923 0.487574 0.326031
vn -0.701726 0.059139 -0.709988
vn -0.701726 0.059139 -0.709988
vn -0.701726 0.059139 -0.709988
vn -0.767458 0.588032 0.255396
vn -0.767458 0.588032 0.255396
vn -0.767458 0.588032 0.255396
vn -0.997355 0.012594 -0.071582
vn -0.997355 0.012594 -0.071582
vn -0.997355 0.012594 -0.071582
vn 0.149229 0.889665 -0.431540
vn 0.149229 0.889665 -0.431540
vn 0.149229 0.889665 -0.431540
vn -0.526485 0.150501 -0.836758
vn -0.526485 0.150501 -0.836758
vn -0.526485 0.150501 -0.836758
vn -0.676183 0.297181 0.674137
vn -0.676183 0.297181 0.674137
vn -0.676183 0.297181 0.674137
vn -0.676491 0.663670 0.319221
vn -0.676491 0.663670 0.319221
vn -0.676491 0.663670 0.319221
vn -0.224329 0.497253 -0.838102
vn -0.224329 0.497253 -0.838102
vn -0.224329 0.497253 -0.838102
vn -0.124097 0.477592 -0.869773
vn -0.124096 0.477592 -0.869774
vn -0.124097 0.477592 -0.869773
vn -0.233486 0.477790 -0.846877
vn -0.233486 0.477790 -0.846877
vn -0.233486 0.477790 -0.846877
vn 0.291463 0.425775 0.856601
vn 0.291463 0.425775 0.856601
vn 0.291463 0.425775 0.856601
vn -0.254793 -0.018013 -0.966828
vn -0.254793 -0.018013 -0.966828
vn -0.254793 -0.018013 -0.966828
vn 0.067614 0.993006 -0.096787
vn 0.067614 0.993006 -0.096787
vn 0.067614 0.993006 -0.096787
vn 0.112716 0.225401 -0.967724
vn 0.112716 0.225401 -0.967724
vn 0.112716 0.225401 -0.967724
vn 0.835249 0.349627 -0.424407
vn 0.835249 0.349627 -0.424407
vn 0.835249 0.349627 -0.424407
vn 0.644630 0.685938 0.337550
vn 0.644630 0.685938 0.337550
vn 0.644630 0.685939 0.337550
vn 0.602831 0.634748 0.483414
vn 0.602831 0.634748 0.483414
vn 0.602831 0.634748 0.483414
vn -0.881029 -0.068477 0.468079
vn -0.881029 -0.068477 0.468079
vn -0.881029 -0.068477 0.468079
vn 0.511066 0.213416 -0.832626
vn 0.511066 0.213416 -0.832626
vn 0.511066 0.213416 -0.832626
vn -0.677186 0.014584 -0.735667
vn -0.677186 0.014584 -0.735667
vn -0.677186 0.014584 -0.735667
vn 0.513190 0.213943 -0.831182
vn 0.513190 0.213943 -0.831182
vn 0.513190 0.213943 -0.831182
vn -0.711418 0.129413 0.690750
vn -0.711418 0.129413 0.690750
vn -0.711418 0.129413 0.690750
vn -0.910465 -0.411253 0.043856
vn -0.910465 -0.411253 0.043856
vn -0.910465 -0.411253 0.043856
vn -0.743283 -0.410786 -0.528002
vn -0.743283 -0.410786 -0.528002
vn -0.743283 -0.410786 -0.528002
vn -0.868793 -0.495142 -0.005775
vn -0.868793 -0.495142 -0.005775
vn -0.868793 -0.495142 -0.005775
vn -0.239978 -0.032414 -0.970237
vn -0.239978 -0.032414 -0.970237
vn -0.239978 -0.032414 -0.970237
vn 0.876165 0.301216 -0.376303
vn 0.876165 0.301216 -0.376303
vn 0.876165 0.301216 -0.376303
vn -0.683441 0.120494 0.719993
vn -0.683441 0.120494 0.719993
vn -0.683441 0.120494 0.719993
vn 0.399371 0.085017 -0.912839
vn 0.399371 0.085017 -0.912839
vn 0.399371 0.085017 -0.912839
vn -0.253880 -0.023337 -0.966954
vn -0.253880 -0.023337 -0.966954
vn -0.253880 -0.023337 -0.966954
vn 0.517043 0.219567 -0.827319
vn 0.517043 0.219567 -0.827319
vn 0.517043 0.219567 -0.827319
vn -0.905271 -0.058684 0.420761
vn -0.905271 -0.058684 0.420761
vn -0.905271 -0.058684 0.420762
vn 0.290340 0.429554 0.855094
vn 0.290340 0.429554 0.855094
vn 0.290340 0.429554 0.855094
vn 0.855534 0.349581 -0.381909
vn 0.855534 0.349581 -0.381909
vn 0.855534 0.349581 -0.381909
vn 0.836867 0.166073 0.521606
vn 0.836867 0.166073 0.521606
vn 0.836867 0.166073 0.521606
vn -0.349812 -0.674836 -0.649790
vn -0.349812 -0.674836 -0.649790
vn -0.349812 -0.674836 -0.649790
vn 0.094653 0.315666 0.944138
vn 0.094653 0.315666 0.944138
vn 0.094653 0.315666 0.944138
vn 0.717079 -0.085551 -0.691722
vn 0.717079 -0.085551 -0.691722
vn 0.717079 -0.085551 -0.691722
vn 0.719521 -0.115998 -0.684714
vn 0.719521 -0.115998 -0.684714
vn 0.719521 -0.115998 -0.684714
vn -0.845956 -0.418108 0.330975
vn -0.845956 -0.418108 0.330975
vn -0.845956 -0.418108 0.330975
vn -0.867840 -0.125630 0.480697
vn -0.867841 -0.125630 0.480697
vn -0.867841 -0.125630 0.480697
vn -0.819580 -0.570303 0.055167
vn -0.819580 -0.570303 0.055167
vn -0.819580 -0.570303 0.055167
vn 0.071977 0.249460 0.965706
vn 0.071977 0.249460 0.965706
vn 0.071977 0.249460 0.965706
vn 0.104460 0.261524 0.959528
vn 0.104460 0.261524 0.959528
vn 0.104460 0.261524 0.959528
vn 0.866808 0.159396 0.472480
vn 0.866808 0.159396 0.472480
vn 0.866808 0.159396 0.472480
vn 0.855404 0.349702 -0.382089
vn 0.855404 0.349702 -0.382089
vn 0.855404 0.349702 -0.382089
vn -0.447158 -0.227483 0.865044
vn -0.447158 -0.227483 0.865044
vn -0.447158 -0.227483 0.865044
vn 0.036122 -0.474819 -0.879342
vn 0.036122 -0.474819 -0.879342
vn 0.036122 -0.474819 -0.879342
vn -0.301594 -0.796387 0.524222
vn -0.301594 -0.796387 0.524222
vn -0.301594 -0.796387 0.524222
vn -0.504075 -0.206634 0.838577
vn -0.504075 -0.206634 0.838577
vn -0.504075 -0.206634 0.838577
vn -0.550027 -0.833131 0.057990
vn -0.550027 -0.833131 0.057990
vn -0.550027 -0.833131 0.057990
vn -0.349085 -0.742150 -0.572147
vn -0.349085 -0.742150 -0.572147
vn -0.349085 -0.742150 -0.572147
vn -0.507666 -0.207772 0.836126
vn -0.507666 -0.207772 0.836126
vn -0.507666 -0.207772 0.836126
vn 0.924197 0.130670 0.358865
vn 0.924197 0.130670 0.358865
vn 0.924197 0.130670 0.358865
vn 0.868095 0.313726 -0.384692
vn 0.868095 0.313726 -0.384692
vn 0.868095 0.313726 -0.384692
vn -0.547179 -0.835171 0.055537
vn -0.547179 -0.835171 0.055537
vn -0.547179 -0.835171 0.055537
vn -0.289343 -0.783700 0.549632
vn -0.289343 -0.783700 0.549632
vn -0.289343 -0.783700 0.549632
vn -0.132639 -0.751007 0.646835
vn -0.132639 -0.751007 0.646835
vn -0.132639 -0.751007 0.646835
vn -0.110637 -0.992240 0.056741
vn -0.110637 -0.992240 0.056741
vn -0.110637 -0.992240 0.056741
vn 0.845693 -0.231048 0.481062
vn 0.845693 -0.231048 0.481062
vn 0.845693 -0.231048 0.481062
vn 0.749839 -0.238940 -0.616968
vn 0.749839 -0.238940 -0.616968
vn 0.749839 -0.238940 -0.616968
vn 0.961713 -0.271416 -0.037960
vn 0.961713 -0.271416 -0.037960
vn 0.961713 -0.271416 -0.037960
vn 0.376767 -0.512358 -0.771710
vn 0.376767 -0.512358 -0.771710
vn 0.376767 -0.512358 -0.771710
vn 0.180426 -0.934647 -0.306401
vn 0.180426 -0.934647 -0.306401
vn 0.180426 -0.934647 -0.306402
vn -0.165483 -0.765100 0.622284
vn -0.165483 -0.765100 0.622284
vn -0.165483 -0.765100 0.622284
vn 0.248976 -0.931211 0.266189
vn 0.248976 -0.931211 0.266189
vn 0.248976 -0.931211 0.266189
vn 0.507010 -0.098370 0.856309
vn 0.507010 -0.098370 0.856309
vn 0.507010 -0.098370 0.856309
vn -0.198287 -0.728688 0.655511
vn -0.198287 -0.728688 0.655511
vn -0.198287 -0.728688 0.655511
vn 0.384636 -0.860907 -0.333009
vn 0.384636 -0.860907 -0.333009
vn 0.384636 -0.860907 -0.333009
vn -0.160770 -0.785848 0.597156
vn -0.160770 -0.785848 0.597156
vn -0.160770 -0.785848 0.597156
vn 0.965806 -0.259247 0.003057
vn 0.965806 -0.259247 0.003057
vn 0.965806 -0.259247 0.003057
vn -0.211284 -0.727969 0.652243
vn -0.211284 -0.727969 0.652243
vn -0.211284 -0.727969 0.652243
vn 0.962019 -0.005405 0.272930
vn 0.962019 -0.005405 0.272930
vn 0.962019 -0.005405 0.272930
vn 0.947938 -0.264990 -0.176619
vn 0.947938 -0.264990 -0.176619
vn 0.947938 -0.264990 -0.176619
vn -0.086822 -0.827106 0.555299
vn -0.086822 -0.827106 0.555299
vn -0.086822 -0.827106 0.555299
vn 0.248704 -0.931285 0.266184
vn 0.248704 -0.931285 0.266184
vn 0.248704 -0.931285 0.266184
vn 0.381221 -0.863735 -0.329594
vn 0.381221 -0.863735 -0.329594
vn 0.381221 -0.863735 -0.329594
vn 0.610337 -0.347324 0.711938
vn 0.610337 -0.347324 0.711938
vn 0.610337 -0.347324 0.711938
vn 0.467854 -0.289146 0.835169
vn 0.467854 -0.289147 0.835169
vn 0.467854 -0.289146 0.835169
vn 0.552821 -0.439532 0.707955
vn 0.552821 -0.439532 0.707955
vn 0.552821 -0.439532 0.707955
vn 0.258469 -0.929455 0.263262
vn 0.258469 -0.929455 0.263262
vn 0.258469 -0.929455 0.263262
vn 0.935826 -0.336679 -0.104291
vn 0.935826 -0.336679 -0.104291
vn 0.935826 -0.336679 -0.104291
vn 0.394210 -0.869418 0.297845
vn 0.394210 -0.869418 0.297845
vn 0.394210 -0.869418 0.297845
s off
f 4/1/1 2/2/2 1/3/3
f 2/2/4 5/4/5 1/3/6
f 6/5/7 2/2/8 4/1/9
f 1/3/10 5/4/11 3/6/12
f 2/2/13 18/7/14 5/4/15
f 7/8/16 1/3/17 3/6/18
f 3/6/19 5/4/20 10/9/21
f 7/8/22 3/6/23 10/9/24
f 1/3/25 7/8/26 11/10/27
f 18/7/28 2/2/29 9/11/30
f 1/3/31 11/10/32 4/1/33
f 5/4/34 18/7/35 10/9/36
f 6/5/37 4/1/38 15/12/39
f 9/11/40 2/2/41 8/13/42
f 11/10/43 7/8/44 19/14/45
f 4/1/46 11/10/47 14/15/48
f 2/2/49 12/16/50 8/13/51
f 12/16/52 6/5/53 13/17/54
f 2/2/55 6/5/56 12/16/57
f 14/15/58 11/10/59 16/18/60
f 17/19/61 9/11/62 8/13/63
f 15/12/64 4/1/65 14/15/66
f 8/13/67 12/16/68 17/19/69
f 6/5/70 15/12/71 13/17/72
f 15/12/73 14/15/74 20/20/75
f 14/15/76 16/18/77 20/20/78
f 10/9/79 27/21/80 7/8/81
f 12/16/82 21/22/83 17/19/84
f 18/7/85 9/11/86 22/23/87
f 12/16/88 24/24/89 21/22/90
f 26/25/91 19/14/92 7/8/93
f 10/9/94 18/7/95 27/21/96
f 32/26/97 18/7/98 22/23/99
f 18/7/100 32/26/101 27/21/102
f 17/19/103 25/27/104 22/23/105
f 13/17/106 15/12/107 20/20/108
f 19/14/109 26/25/110 23/28/111
f 21/22/112 25/27/113 17/19/114
f 9/11/115 17/19/116 22/23/117
f 13/17/118 24/24/119 12/16/120
f 27/21/121 26/25/122 7/8/123
f 11/10/124 29/29/125 16/18/126
f 13/17/127 20/20/128 24/24/129
f 20/20/130 16/18/131 28/30/132
f 33/31/133 32/26/134 22/23/135
f 19/14/136 29/29/137 11/10/138
f 24/24/139 36/32/140 21/22/141
f 36/32/142 25/27/143 21/22/144
f 27/21/145 35/33/146 31/34/147
f 27/21/148 31/34/149 26/25/150
f 27/21/151 32/26/152 35/33/153
f 30/35/154 29/29/155 19/14/156
f 23/28/157 30/35/158 19/14/159
f 29/29/160 28/30/161 16/18/162
f 20/20/163 34/36/164 24/24/165
f 26/25/166 31/34/167 23/28/168
f 33/31/169 22/23/170 25/27/171
f 35/33/172 38/37/173 31/34/174
f 23/28/175 31/34/176 37/38/177
f 39/39/178 35/33/179 32/26/180
f 33/31/181 41/40/182 32/26/183
f 30/35/184 23/28/185 37/38/186
f 28/30/187 34/36/188 20/20/189
f 34/36/190 36/32/191 24/24/192
f 32/26/193 41/40/194 39/39/195
f 39/39/196 38/37/197 35/33/198
f 31/34/199 38/37/200 37/38/201
f 41/40/202 42/41/203 39/39/204
f 37/38/205 29/29/206 30/35/207
f 36/32/208 40/42/209 25/27/210
f 44/43/211 40/42/212 36/32/213
f 25/27/214 40/42/215 33/31/216
f 41/40/217 33/31/218 42/41/219
f 38/37/220 39/39/221 43/44/222
f 39/39/223 42/41/224 43/44/225
f 37/38/226 28/30/227 29/29/228
f 37/38/229 38/37/230 45/45/231
f 44/43/232 33/31/233 40/42/234
f 38/37/235 43/44/236 45/45/237
f 34/36/238 44/43/239 36/32/240
f 47/46/241 37/38/242 45/45/243
f 28/30/244 46/47/245 34/36/246
f 46/47/247 44/43/248 34/36/249
f 47/46/250 45/45/251 43/44/252
f 47/46/253 43/44/254 42/41/255
f 42/41/256 33/31/257 44/43/258
f 37/38/259 47/46/260 28/30/261
f 46/47/262 28/30/263 47/46/264
f 48/48/265 46/47/266 47/46/267
f 42/41/268 44/43/269 47/46/270
f 44/43/271 46/47/272 48/48/273
f 44/43/274 48/48/275 47/46/276
