# This file uses centimeters as units for non-parametric coordinates.

v -0.369450 0.000000 0.369451
v 0.369450 0.000000 0.369451
v -0.243134 5.000000 0.243134
v 0.243134 5.000000 0.243134
v -0.243134 5.000000 -0.243134
v 0.243134 5.000000 -0.243134
v -0.369450 0.000000 -0.369451
v 0.369450 0.000000 -0.369451
v -0.369450 1.293287 0.369451
v 0.298885 1.385721 0.298886
v 0.369450 1.293287 -0.369451
v -0.313507 1.366571 -0.313506
v 0.243134 1.458748 -0.243134
v 0.243134 1.458750 0.243134
v -0.243134 1.458750 0.243134
v -0.243134 1.458748 -0.243134
v 0.118267 1.293287 0.369451
v 0.369450 1.186228 0.369451
v 0.369450 1.293287 0.053202
v -0.369450 1.188761 -0.369451
v -0.369450 1.293287 -0.211714
v -0.059628 1.293287 -0.369451
v -0.369450 0.433250 0.369451
v -0.369450 0.911751 0.369451
v -0.369450 0.710730 0.264853
v -0.298836 0.717335 0.369451
v 0.369450 0.985804 -0.369451
v 0.369450 0.623850 -0.369451
v 0.369450 0.776102 -0.292265
v 0.259933 0.819586 -0.369451
v 0.369450 0.087887 0.369451
v 0.369450 0.259218 0.369451
v 0.295357 0.154268 0.369451
v 0.369450 0.186489 0.245688
v -0.243134 2.134216 0.243134
v -0.243134 3.522425 0.243134
v -0.243134 2.999828 0.128803
v -0.086578 3.008743 0.243134
v 0.243134 4.486805 -0.243134
v 0.243134 3.092922 -0.243134
v 0.243134 3.666073 -0.136048
v 0.022076 3.807888 -0.243134
v 0.243134 1.623550 0.243134
v 0.243134 2.106306 0.243134
v 0.162739 1.871399 0.243134
v 0.243134 1.900269 0.078032
v -0.243134 2.558764 -0.243134
v -0.243134 2.190710 -0.243134
v -0.163727 2.345734 -0.243134
v -0.243134 2.386559 -0.153304
vt 0.199326 0.303043
vt 0.199326 0.303043
vt 0.038799 0.301323
vt 0.038799 0.301323
vt 0.038799 0.301323
vt 0.038799 0.301323
vt 0.199326 0.303043
vt 0.199326 0.303043
vt 0.199326 0.303043
vt 0.199326 0.303043
vt 0.199326 0.303043
vt 0.038799 0.301323
vt 0.199326 0.303043
vt 0.038799 0.301323
vt 0.199326 0.303043
vt 0.199313 0.278965
vt 0.199313 0.278965
vt 0.199313 0.278965
vt 0.199313 0.278965
vt 0.199313 0.278965
vt 0.199313 0.278965
vt 0.199313 0.278965
vt 0.199313 0.278965
vt 0.038799 0.301323
vt 0.038799 0.301323
vt 0.199313 0.278965
vt 0.199326 0.303043
vt 0.199326 0.303043
vt 0.199326 0.303043
vt 0.199313 0.278965
vt 0.199313 0.278965
vt 0.199326 0.303043
vt 0.199326 0.303043
vt 0.199326 0.303043
vt 0.199313 0.278965
vt 0.199326 0.303043
vt 0.199326 0.303043
vt 0.199326 0.303043
vt 0.199313 0.278965
vt 0.199326 0.303043
vt 0.199326 0.303043
vt 0.199313 0.278965
vt 0.199326 0.303043
vt 0.199326 0.303043
vt 0.199313 0.278965
vt 0.199326 0.303043
vt 0.199326 0.303043
vt 0.199313 0.278965
vt 0.199313 0.278965
vt 0.199326 0.303043
vt 0.199313 0.278965
vt 0.199313 0.278965
vt 0.199313 0.278965
vt 0.199313 0.278965
vt 0.199313 0.278965
vt 0.199313 0.278965
vt 0.199326 0.303043
vt 0.199313 0.278965
vt 0.199326 0.303043
vt 0.199313 0.278965
vt 0.199313 0.278965
vt 0.199313 0.278965
vt 0.199313 0.278965
vt 0.199313 0.278965
vt 0.199326 0.303043
vt 0.199313 0.278965
vt 0.199313 0.278965
vt 0.199326 0.303043
vt 0.199326 0.303043
vt 0.199313 0.278965
vt 0.199313 0.278965
vt 0.199313 0.278965
vt 0.199313 0.278965
vt 0.199313 0.278965
vt 0.199313 0.278965
vt 0.199313 0.278965
vt 0.199313 0.278965
vt 0.199313 0.278965
vt 0.199313 0.278965
vt 0.199313 0.278965
vt 0.199313 0.278965
vt 0.199326 0.303043
vt 0.199326 0.303043
vt 0.199313 0.278965
vt 0.199313 0.278965
vt 0.199313 0.278965
vt 0.199313 0.278965
vt 0.199313 0.278965
vt 0.199313 0.278965
vt 0.199313 0.278965
vt 0.038799 0.301323
vt 0.038799 0.278965
vt 0.038799 0.301323
vt 0.038799 0.301323
vt 0.038799 0.278965
vt 0.038799 0.301323
vt 0.038799 0.301323
vt 0.038799 0.301323
vt 0.038799 0.301323
vt 0.038799 0.278965
vt 0.038799 0.301323
vt 0.038799 0.301323
vt 0.038799 0.278965
vt 0.038799 0.301323
vt 0.038799 0.301323
vt 0.038799 0.301323
vt 0.038799 0.278965
vt 0.038799 0.278965
vt 0.038799 0.278965
vt 0.038799 0.278965
vt 0.038799 0.278965
vt 0.038799 0.301323
vt 0.038799 0.278965
vt 0.038799 0.278965
vt 0.038799 0.278965
vt 0.038799 0.278965
vt 0.038799 0.278965
vt 0.038799 0.301323
vt 0.038799 0.278965
vt 0.038799 0.278965
vt 0.038799 0.278965
vt 0.038799 0.278965
vt 0.038799 0.278965
vt 0.038799 0.301323
vt 0.038799 0.278965
vt 0.038799 0.278965
vt 0.038799 0.278965
vt 0.038799 0.278965
vt 0.038799 0.278965
vt 0.038799 0.301323
vt 0.038799 0.278965
vt 0.038799 0.278965
vt 0.038799 0.278965
vt 0.038799 0.278965
vn 0.000000 1.000000 0.000000
vn 0.000000 1.000000 0.000000
vn 0.000000 1.000000 0.000000
vn 0.000000 1.000000 0.000000
vn 0.000000 -1.000000 0.000000
vn 0.000000 -1.000000 0.000000
vn 0.000000 -1.000000 0.000000
vn 0.000000 -1.000000 0.000000
vn 0.161723 0.379434 0.910975
vn 0.161723 0.379434 0.910975
vn 0.161723 0.379434 0.910975
vn 0.920584 0.369922 0.125230
vn 0.920584 0.369922 0.125230
vn 0.920584 0.369922 0.125230
vn -0.111322 0.329963 -0.937407
vn -0.111322 0.329963 -0.937407
vn -0.111322 0.329963 -0.937407
vn -0.902630 0.358790 -0.237757
vn -0.902630 0.358790 -0.237757
vn -0.902630 0.358790 -0.237757
vn 1.000000 -0.000000 0.000000
vn 1.000000 -0.000000 0.000000
vn 1.000000 -0.000000 0.000000
vn 1.000000 -0.000000 0.000000
vn -0.000000 0.000000 1.000000
vn -0.000000 0.000000 1.000000
vn -0.000000 0.000000 1.000000
vn -0.000000 0.000000 1.000000
vn -1.000000 -0.000000 0.000000
vn -1.000000 -0.000000 0.000000
vn -1.000000 -0.000000 0.000000
vn -1.000000 -0.000000 0.000000
vn 0.000000 0.000000 -1.000000
vn 0.000000 0.000000 -1.000000
vn 0.000000 0.000000 -1.000000
vn 0.000000 0.000000 -1.000000
vn -0.000001 0.606803 0.794852
vn -0.000001 0.606803 0.794852
vn -0.000001 0.606803 0.794852
vn -0.000001 0.606803 0.794852
vn -0.000001 0.606803 0.794852
vn -0.000000 -0.000000 1.000000
vn -0.000000 -0.000000 1.000000
vn -0.000000 -0.000000 1.000000
vn -0.000000 -0.000000 1.000000
vn 1.000000 0.000000 0.000000
vn 1.000000 0.000000 0.000000
vn 1.000000 0.000000 0.000000
vn 1.000000 0.000000 0.000000
vn 0.794851 0.606804 -0.000002
vn 0.794851 0.606804 -0.000002
vn 0.794851 0.606804 -0.000002
vn 0.794851 0.606804 -0.000002
vn 0.794851 0.606804 -0.000002
vn -1.000000 0.000000 0.000000
vn -1.000000 0.000000 0.000000
vn -1.000000 0.000000 0.000000
vn -1.000000 0.000000 0.000000
vn -0.794852 0.606803 0.000002
vn -0.794852 0.606803 0.000002
vn -0.794852 0.606803 0.000002
vn -0.794852 0.606804 0.000002
vn -0.794852 0.606803 0.000002
vn 0.000001 0.606809 -0.794848
vn 0.000001 0.606809 -0.794848
vn 0.000001 0.606809 -0.794848
vn 0.000001 0.606809 -0.794848
vn 0.000001 0.606809 -0.794848
vn 0.000000 0.000000 -1.000000
vn 0.000000 0.000000 -1.000000
vn 0.000000 0.000000 -1.000000
vn 0.000000 0.000000 -1.000000
vn -0.785875 -0.285437 0.548566
vn -0.785876 -0.285437 0.548566
vn -0.785875 -0.285437 0.548566
vn -0.817425 0.203184 0.539010
vn -0.817425 0.203184 0.539010
vn -0.817425 0.203184 0.539010
vn 0.628559 0.351685 -0.693708
vn 0.628559 0.351685 -0.693708
vn 0.628559 0.351685 -0.693708
vn 0.773701 -0.546219 0.320985
vn 0.773701 -0.546219 0.320985
vn 0.773701 -0.546219 0.320985
vn 0.573860 0.640524 0.510307
vn 0.573860 0.640524 0.510307
vn 0.573860 0.640524 0.510307
vn 1.000000 -0.000000 0.000000
vn 1.000000 -0.000000 0.000000
vn 1.000000 -0.000000 0.000000
vn 1.000000 -0.000000 0.000000
vn 1.000000 -0.000000 0.000000
vn 1.000000 0.000000 0.000000
vn 1.000000 0.000000 0.000000
vn 1.000000 0.000000 0.000000
vn 1.000000 0.000000 0.000000
vn 1.000000 0.000000 0.000000
vn 1.000000 0.000000 0.000000
vn 1.000000 0.000000 0.000000
vn 1.000000 0.000000 0.000000
vn 0.000000 -0.000001 1.000000
vn 0.000000 -0.000001 1.000000
vn 0.000000 -0.000001 1.000000
vn 0.000000 -0.000001 1.000000
vn -0.000000 0.000000 1.000000
vn -0.000000 0.000000 1.000000
vn -0.000000 0.000000 1.000000
vn -0.000000 0.000000 1.000000
vn 0.000000 0.000000 1.000000
vn 0.000000 0.000000 1.000000
vn 0.000000 0.000000 1.000000
vn 0.000000 0.000000 1.000000
vn 0.000000 0.000000 1.000000
vn -1.000000 0.000000 0.000000
vn -1.000000 0.000000 0.000000
vn -1.000000 0.000000 0.000000
vn -1.000000 0.000000 0.000000
vn -1.000000 -0.000000 0.000000
vn -1.000000 -0.000000 0.000000
vn -1.000000 -0.000000 0.000000
vn -1.000000 -0.000000 0.000000
vn -0.000000 0.000000 -1.000000
vn -0.000000 0.000000 -1.000000
vn -0.000000 0.000000 -1.000000
vn -0.000000 0.000000 -1.000000
vn 0.000000 0.000000 -1.000000
vn 0.000000 0.000000 -1.000000
vn 0.000000 0.000000 -1.000000
vn 0.000000 0.000000 -1.000000
vn 0.464322 -0.305928 -0.831152
vn 0.464322 -0.305928 -0.831152
vn 0.464322 -0.305928 -0.831152
vn -0.590379 0.105688 0.800176
vn -0.590380 0.105688 0.800176
vn -0.590379 0.105688 0.800176
vn -0.574148 -0.174984 0.799834
vn -0.574148 -0.174984 0.799834
vn -0.574148 -0.174984 0.799835
vn 0.510704 0.157903 -0.845132
vn 0.510704 0.157903 -0.845132
vn 0.510704 0.157903 -0.845132
vn 0.369270 -0.120236 -0.921511
vn 0.369270 -0.120236 -0.921511
vn 0.369270 -0.120236 -0.921511
vn 0.844918 0.274067 0.459349
vn 0.844918 0.274067 0.459349
vn 0.844918 0.274067 0.459349
vn 0.877213 -0.300218 0.374655
vn 0.877213 -0.300218 0.374655
vn 0.877213 -0.300218 0.374655
vn -0.631256 0.323344 -0.704957
vn -0.631256 0.323344 -0.704957
vn -0.631256 0.323344 -0.704957
vn -0.778607 -0.290225 -0.556364
vn -0.778607 -0.290225 -0.556364
vn -0.778607 -0.290225 -0.556364
vn -1.000000 -0.000000 0.000000
vn -1.000000 -0.000000 0.000000
vn -1.000000 -0.000000 0.000000
vn -1.000000 -0.000000 0.000000
vn -1.000000 0.000000 0.000000
vn -1.000000 0.000000 0.000000
vn -1.000000 0.000000 0.000000
vn -1.000000 0.000000 0.000000
vn -1.000000 0.000000 0.000000
vn -1.000000 0.000000 0.000000
vn -1.000000 0.000000 0.000000
vn -1.000000 0.000000 0.000000
vn 0.000000 0.000000 -1.000000
vn 0.000000 0.000000 -1.000000
vn 0.000000 0.000000 -1.000000
vn 0.000000 0.000000 -1.000000
vn -0.000000 0.000000 -1.000000
vn -0.000000 0.000000 -1.000000
vn -0.000000 0.000000 -1.000000
vn -0.000000 0.000000 -1.000000
vn 0.000000 0.000000 -1.000000
vn 0.000000 0.000000 -1.000000
vn 0.000000 0.000000 -1.000000
vn 0.000000 0.000000 -1.000000
vn 1.000000 0.000000 0.000000
vn 1.000000 0.000000 0.000000
vn 1.000000 0.000000 0.000000
vn 1.000000 0.000000 0.000000
vn 1.000000 0.000000 0.000000
vn 1.000000 0.000000 0.000000
vn 1.000000 0.000000 0.000000
vn 1.000000 0.000000 0.000000
vn 1.000000 0.000000 0.000000
vn 1.000000 0.000000 0.000000
vn 1.000000 0.000000 0.000000
vn 1.000000 0.000000 0.000000
vn 0.000000 0.000000 1.000000
vn 0.000000 0.000000 1.000000
vn 0.000000 0.000000 1.000000
vn 0.000000 0.000000 1.000000
vn 0.000000 0.000000 1.000000
vn 0.000000 0.000000 1.000000
vn 0.000000 0.000000 1.000000
vn 0.000000 0.000000 1.000000
vn 0.000000 0.000000 1.000000
vn 0.000000 0.000000 1.000000
vn 0.000000 0.000000 1.000000
vn 0.000000 0.000000 1.000000
s off
f 3/133/1 4/131/2 6/132/3 5/134/4
f 7/7/5 8/8/6 2/10/7 1/9/8
f 17/81/9 18/76/10 10/16/11
f 18/77/12 19/78/13 10/86/14
f 12/73/15 22/67/16 20/31/17
f 20/30/18 21/70/19 12/72/20
f 14/12/21 13/14/22 46/102/23 43/99/24
f 15/24/25 45/101/26 38/94/27 35/91/28
f 16/25/29 15/24/30 50/106/31 48/104/32
f 5/6/33 42/98/34 49/105/35 47/112/36
f 9/75/37 17/80/38 10/84/39 14/23/40 15/87/41
f 1/1/42 33/46/43 26/37/44 23/34/45
f 2/2/46 8/11/47 34/47/48 31/44/49
f 10/85/50 19/79/51 11/18/52 13/22/53 14/88/54
f 7/13/55 25/36/56 21/32/57 20/68/58
f 12/19/59 21/71/60 9/74/61 15/26/62 16/89/63
f 16/90/64 13/21/65 11/17/66 22/66/67 12/20/68
f 7/7/69 30/43/70 28/40/71 8/8/72
f 25/60/73 26/63/74 24/35/75
f 23/64/76 26/62/77 25/61/78
f 30/49/79 29/42/80 28/58/81
f 32/45/82 33/52/83 34/55/84
f 34/54/85 33/53/86 31/56/87
f 34/47/88 29/50/89 19/29/90 18/28/91 32/57/92
f 34/47/93 8/11/94 28/41/95 29/50/96
f 19/29/97 29/50/98 27/59/99 11/83/100
f 1/1/101 2/2/102 31/44/103 33/46/104
f 26/37/105 17/27/106 9/15/107 24/65/108
f 26/37/109 33/46/110 32/57/111 18/28/112 17/27/113
f 7/13/114 1/1/115 23/34/116 25/36/117
f 21/32/118 25/36/119 24/65/120 9/15/121
f 30/43/122 22/33/123 11/82/124 27/38/125
f 20/69/126 22/33/127 30/43/128 7/7/129
f 27/39/130 29/51/131 30/48/132
f 38/125/133 37/128/134 35/129/135
f 36/92/136 37/127/137 38/126/138
f 42/119/139 41/122/140 40/123/141
f 39/95/142 41/121/143 42/120/144
f 43/117/145 46/113/146 45/116/147
f 45/115/148 46/114/149 44/100/150
f 50/107/151 49/110/152 48/111/153
f 47/103/154 49/109/155 50/108/156
f 50/106/157 37/93/158 5/6/159 47/112/160
f 50/106/161 15/24/162 35/91/163 37/93/164
f 5/6/165 37/93/166 36/130/167 3/3/168
f 5/6/169 6/5/170 39/124/171 42/98/172
f 49/105/173 13/14/174 16/25/175 48/104/176
f 49/105/177 42/98/178 40/96/179 13/14/180
f 46/102/181 41/97/182 4/4/183 44/118/184
f 46/102/185 13/14/186 40/96/187 41/97/188
f 4/4/189 41/97/190 39/124/191 6/5/192
f 15/24/193 14/12/194 43/99/195 45/101/196
f 38/94/197 4/4/198 3/3/199 36/130/200
f 38/94/201 45/101/202 44/118/203 4/4/204
