# This file uses centimeters as units for non-parametric coordinates.

v -0.307379 -0.100580 0.181581
v 0.307377 -0.100580 0.181581
v -0.307379 0.100580 0.181581
v -0.307379 0.100580 -0.181580
v 0.307377 0.100580 -0.181580
v 0.307377 -0.100580 -0.181580
v 0.004517 0.100580 0.181581
v 0.307377 0.050290 0.181581
v 0.307377 0.100580 0.090791
v -0.153688 -0.100580 -0.181580
v -0.307379 -0.050290 -0.181580
v -0.307379 -0.100580 -0.090789
vt 0.211923 0.303946
vt 0.211923 0.303946
vt 0.211923 0.303946
vt 0.211923 0.303946
vt 0.211923 0.303946
vt 0.211923 0.303946
vt 0.211923 0.303946
vt 0.211923 0.303946
vt 0.211923 0.303946
vt 0.211923 0.303946
vt 0.211923 0.303946
vt 0.211923 0.303946
vn 0.143747 0.865681 0.479513
vn 0.143747 0.865681 0.479513
vn 0.143747 0.865681 0.479513
vn -0.275187 -0.840993 -0.465835
vn -0.275187 -0.840993 -0.465835
vn -0.275187 -0.840993 -0.465835
vn 1.000000 -0.000000 0.000000
vn 1.000000 -0.000000 0.000000
vn 1.000000 -0.000000 0.000000
vn 1.000000 -0.000000 0.000000
vn 1.000000 -0.000000 0.000000
vn 0.000000 1.000000 0.000000
vn 0.000000 1.000000 0.000000
vn 0.000000 1.000000 0.000000
vn 0.000000 1.000000 0.000000
vn 0.000000 1.000000 0.000000
vn 0.000000 0.000000 1.000000
vn 0.000000 0.000000 1.000000
vn 0.000000 0.000000 1.000000
vn 0.000000 0.000000 1.000000
vn 0.000000 0.000000 1.000000
vn -0.000000 0.000000 -1.000000
vn -0.000000 0.000000 -1.000000
vn -0.000000 0.000000 -1.000000
vn -0.000000 0.000000 -1.000000
vn -0.000000 0.000000 -1.000000
vn 0.000000 -1.000000 0.000000
vn 0.000000 -1.000000 0.000000
vn 0.000000 -1.000000 0.000000
vn 0.000000 -1.000000 0.000000
vn 0.000000 -1.000000 0.000000
vn -1.000000 0.000000 0.000000
vn -1.000000 0.000000 0.000000
vn -1.000000 0.000000 0.000000
vn -1.000000 0.000000 0.000000
vn -1.000000 0.000000 0.000000
s off
f 8/1/1 9/2/2 7/3/3
f 12/4/4 11/5/5 10/6/6
f 2/7/7 6/8/8 5/9/9 9/2/10 8/1/11
f 3/10/12 7/3/13 9/2/14 5/9/15 4/11/16
f 1/12/17 2/7/18 8/1/19 7/3/20 3/10/21
f 4/11/22 5/9/23 6/8/24 10/6/25 11/5/26
f 12/4/27 10/6/28 6/8/29 2/7/30 1/12/31
f 11/5/32 12/4/33 1/12/34 3/10/35 4/11/36
