# This file uses centimeters as units for non-parametric coordinates.

v 0.271641 -0.036749 -0.271656
v -0.000004 -0.036749 -0.384171
v -0.271652 -0.036749 -0.271656
v -0.384171 -0.036749 0.000000
v -0.271652 -0.036749 0.271648
v -0.000004 -0.036749 0.384148
v 0.271641 -0.036749 0.271648
v 0.384159 -0.036749 0.000000
v 0.240032 0.285231 -0.238823
v 0.030968 0.285231 -0.325420
v -0.178108 0.285231 -0.238823
v -0.264706 0.285231 -0.029751
v -0.178108 0.285231 0.179321
v 0.030968 0.285231 0.265911
v 0.240032 0.285231 0.179321
v 0.326637 0.285231 -0.029751
v 0.349499 0.615714 -0.217945
v 0.180038 0.800727 -0.230328
v -0.055874 0.779991 -0.138351
v -0.079014 0.800308 0.073013
v -0.044178 0.630101 0.212551
v 0.141727 0.550977 0.277271
v 0.268242 0.420626 0.210075
v 0.442780 0.601029 -0.006237
v 0.646091 0.869128 0.117233
v 0.581146 1.061209 0.166698
v 0.437195 1.139636 0.295876
v 0.298546 1.058462 0.429096
v 0.246429 0.865236 0.488331
v 0.311375 0.673155 0.438873
v 0.455326 0.594726 0.309708
v 0.593975 0.675901 0.176479
v 0.914467 0.704044 0.505081
v 0.901806 0.846261 0.624512
v 0.764702 0.921664 0.725346
v 0.583458 0.886084 0.748505
v 0.464252 0.760361 0.680428
v 0.476913 0.618144 0.560997
v 0.614014 0.542739 0.460167
v 0.795261 0.578319 0.437000
v 0.826797 0.263366 0.827328
v 0.829830 0.360271 0.952724
v 0.743336 0.484084 1.000797
v 0.617973 0.562281 0.943417
v 0.527187 0.549053 0.814152
v 0.524155 0.452148 0.688770
v 0.610645 0.328335 0.640682
v 0.736012 0.250136 0.698078
v 0.446934 0.060154 0.931515
v 0.399311 0.139801 1.033413
v 0.349663 0.268093 1.041744
v 0.327061 0.369889 0.951618
v 0.344769 0.385548 0.815842
v 0.392387 0.305903 0.713940
v 0.442036 0.177611 0.705608
v 0.464634 0.075814 0.795742
v -0.249645 0.268267 0.616909
v -0.290562 0.331115 0.666397
v -0.266350 0.410366 0.701138
v -0.191185 0.459598 0.700794
v -0.109085 0.449963 0.665562
v -0.068161 0.387116 0.616066
v -0.092365 0.307866 0.581310
v -0.167545 0.258637 0.581665
v -0.154789 0.716128 0.470013
v -0.023468 0.313540 0.906490
v -0.040466 0.210371 0.961239
v -0.021152 0.088816 0.936069
v 0.023178 0.020071 0.845695
v 0.066528 0.044414 0.743080
v 0.083542 0.147585 0.688305
v 0.064220 0.269139 0.713493
v 0.019901 0.337879 0.803867
v 0.239441 -0.133379 -0.239456
v -0.000004 -0.133379 -0.338634
v -0.239452 -0.133379 -0.239456
v -0.338634 -0.133379 0.000000
v -0.239452 -0.133379 0.239445
v -0.000004 -0.133379 0.338615
v 0.239441 -0.133379 0.239445
v 0.338619 -0.133379 0.000000
v -0.000004 -0.133379 -0.000008
vt 0.006241 0.326875
vt 0.006241 0.326875
vt 0.006241 0.326875
vt 0.006241 0.326875
vt 0.006241 0.326875
vt 0.006241 0.326875
vt 0.006241 0.326875
vt 0.006241 0.326875
vt 0.006241 0.326875
vt 0.006241 0.326875
vt 0.006241 0.326875
vt 0.006241 0.326875
vt 0.006241 0.326875
vt 0.006241 0.326875
vt 0.006241 0.326875
vt 0.006241 0.326875
vt 0.006241 0.326875
vt 0.006241 0.326875
vt 0.006241 0.326875
vt 0.006241 0.326875
vt 0.006241 0.326875
vt 0.006241 0.326875
vt 0.006241 0.326875
vt 0.006241 0.326875
vt 0.006241 0.326875
vt 0.006241 0.326875
vt 0.006241 0.326875
vt 0.006241 0.326875
vt 0.006241 0.326875
vt 0.006241 0.326875
vt 0.006241 0.326875
vt 0.006241 0.326875
vt 0.006241 0.326875
vt 0.004660 0.347432
vt 0.004660 0.347432
vt 0.004660 0.347432
vt 0.004660 0.347432
vt 0.004660 0.347432
vt 0.004660 0.347432
vt 0.004660 0.347432
vt 0.004660 0.347432
vt 0.004660 0.347432
vt 0.004660 0.347432
vt 0.004660 0.347432
vt 0.004660 0.347432
vt 0.004660 0.347432
vt 0.004660 0.347432
vt 0.004660 0.347432
vt 0.004660 0.347432
vt 0.004660 0.347432
vt 0.004660 0.347432
vt 0.004660 0.347432
vt 0.004660 0.347432
vt 0.004660 0.347432
vt 0.004660 0.347432
vt 0.004660 0.347432
vt 0.004660 0.347432
vt 0.004660 0.347432
vt 0.004660 0.347432
vt 0.004660 0.347432
vt 0.004660 0.347432
vt 0.004660 0.347432
vt 0.004660 0.347432
vt 0.004660 0.347432
vt 0.004660 0.347432
vt 0.004660 0.347432
vt 0.004660 0.347432
vt 0.004660 0.347432
vt 0.004660 0.347432
vt 0.004660 0.347432
vt 0.004660 0.347432
vt 0.004660 0.347432
vt 0.004660 0.347432
vt 0.004660 0.347432
vt 0.004660 0.347432
vt 0.004660 0.347432
vt 0.004660 0.347432
vt 0.004660 0.347432
vt 0.004660 0.347432
vt 0.004660 0.347432
vt 0.004660 0.347432
vt 0.004660 0.347432
vt 0.004660 0.347432
vt 0.004660 0.347432
vt 0.004660 0.347432
vt 0.004660 0.347432
vt 0.004660 0.347432
vt 0.004660 0.347432
vt 0.004660 0.347432
vt 0.004660 0.347432
vt 0.004660 0.347432
vt 0.004660 0.347432
vt 0.004660 0.347432
vt 0.004660 0.347432
vt 0.004660 0.347432
vt 0.004660 0.347432
vt 0.004660 0.347432
vt 0.004660 0.347432
vt 0.004660 0.347432
vt 0.004660 0.347432
vt 0.004660 0.347432
vt 0.004660 0.347432
vt 0.004660 0.347432
vt 0.004660 0.347432
vt 0.004660 0.347432
vt 0.004660 0.347432
vt 0.004660 0.347432
vt 0.004660 0.347432
vt 0.004660 0.347432
vt 0.004660 0.347432
vt 0.004660 0.347432
vt 0.004660 0.347432
vt 0.004660 0.347432
vt 0.004660 0.347432
vt 0.004660 0.347432
vt 0.004660 0.347432
vt 0.004660 0.347432
vt 0.004660 0.347432
vt 0.004660 0.347432
vt 0.004660 0.347432
vt 0.004660 0.347432
vt 0.004660 0.347432
vt 0.004660 0.347432
vt 0.004660 0.347432
vt 0.004660 0.347432
vt 0.004660 0.347432
vt 0.004660 0.347432
vt 0.004660 0.347432
vt 0.004660 0.347432
vt 0.004660 0.347432
vt 0.004660 0.347432
vt 0.004660 0.347432
vt 0.004660 0.347432
vt 0.004660 0.347432
vt 0.004660 0.347432
vt 0.004660 0.347432
vt 0.004660 0.347432
vt 0.004660 0.347432
vt 0.004660 0.347432
vt 0.004660 0.347432
vt 0.004660 0.347432
vt 0.004660 0.347432
vt 0.004660 0.347432
vt 0.004660 0.347432
vt 0.004660 0.347432
vt 0.004660 0.347432
vt 0.004660 0.347432
vt 0.004660 0.347432
vt 0.004660 0.347432
vt 0.004660 0.347432
vt 0.004660 0.347432
vt 0.004660 0.347432
vt 0.004660 0.347432
vt 0.004660 0.347432
vt 0.004660 0.347432
vt 0.004660 0.347432
vt 0.004660 0.347432
vt 0.004660 0.347432
vt 0.004660 0.347432
vt 0.004660 0.347432
vt 0.004660 0.347432
vt 0.004660 0.347432
vt 0.004660 0.347432
vt 0.004660 0.347432
vt 0.004660 0.347432
vt 0.004660 0.347432
vt 0.004660 0.347432
vt 0.004660 0.347432
vt 0.004660 0.347432
vt 0.004660 0.347432
vt 0.004660 0.347432
vt 0.004660 0.347432
vt 0.004660 0.347432
vt 0.004660 0.347432
vt 0.004660 0.347432
vt 0.004660 0.347432
vt 0.004660 0.347432
vt 0.004660 0.347432
vt 0.004660 0.347432
vt 0.004660 0.347432
vt 0.004660 0.347432
vt 0.004660 0.347432
vt 0.004660 0.347432
vt 0.004660 0.347432
vt 0.004660 0.347432
vt 0.004660 0.347432
vt 0.004660 0.347432
vt 0.004660 0.347432
vt 0.004660 0.347432
vt 0.004660 0.347432
vt 0.004660 0.347432
vt 0.004660 0.347432
vt 0.004660 0.347432
vt 0.004660 0.347432
vt 0.004660 0.347432
vt 0.004660 0.347432
vt 0.004660 0.347432
vt 0.004660 0.347432
vt 0.004660 0.347432
vt 0.004660 0.347432
vt 0.004660 0.347432
vt 0.004660 0.347432
vt 0.004660 0.347432
vt 0.004660 0.347432
vt 0.004660 0.347432
vt 0.004660 0.347432
vt 0.004660 0.347432
vt 0.004660 0.347432
vt 0.004660 0.347432
vt 0.004660 0.347432
vt 0.004660 0.347432
vt 0.004660 0.347432
vt 0.004660 0.347432
vt 0.004660 0.347432
vt 0.004660 0.347432
vt 0.004660 0.347432
vt 0.004660 0.347432
vt 0.004660 0.347432
vt 0.004660 0.347432
vt 0.004660 0.347432
vt 0.004660 0.347432
vt 0.004660 0.347432
vt 0.004660 0.347432
vt 0.004660 0.347432
vt 0.004660 0.347432
vt 0.004660 0.347432
vt 0.004660 0.347432
vt 0.004660 0.347432
vt 0.004660 0.347432
vt 0.004660 0.347432
vt 0.004660 0.347432
vt 0.004660 0.347432
vt 0.004660 0.347432
vn 0.379397 0.130643 -0.915964
vn 0.379397 0.130643 -0.915964
vn 0.379397 0.130643 -0.915964
vn 0.379397 0.130643 -0.915964
vn -0.374842 0.201186 -0.904996
vn -0.374842 0.201186 -0.904996
vn -0.374842 0.201186 -0.904996
vn -0.374842 0.201186 -0.904996
vn -0.883094 0.293860 -0.365774
vn -0.883094 0.293860 -0.365774
vn -0.883094 0.293860 -0.365774
vn -0.883094 0.293860 -0.365774
vn -0.864162 0.353702 0.357938
vn -0.864162 0.353702 0.357938
vn -0.864161 0.353702 0.357938
vn -0.864161 0.353702 0.357938
vn -0.358138 0.352013 0.864768
vn -0.358138 0.352013 0.864768
vn -0.358138 0.352013 0.864768
vn -0.358138 0.352013 0.864768
vn 0.366251 0.289522 0.884329
vn 0.366251 0.289522 0.884329
vn 0.366251 0.289522 0.884329
vn 0.366251 0.289522 0.884329
vn 0.905863 0.196513 0.375225
vn 0.905863 0.196513 0.375225
vn 0.905863 0.196513 0.375225
vn 0.905863 0.196513 0.375225
vn 0.916205 0.128628 -0.379503
vn 0.916205 0.128628 -0.379503
vn 0.916205 0.128628 -0.379503
vn 0.916205 0.128628 -0.379503
vn 0.274485 0.047772 -0.960404
vn 0.274485 0.047772 -0.960404
vn 0.274485 0.047772 -0.960404
vn 0.274485 0.047772 -0.960404
vn -0.369328 0.271243 -0.888833
vn -0.369328 0.271243 -0.888833
vn -0.369328 0.271243 -0.888833
vn -0.369328 0.271243 -0.888833
vn -0.909906 0.328446 -0.253365
vn -0.909906 0.328446 -0.253365
vn -0.909906 0.328446 -0.253365
vn -0.909906 0.328446 -0.253365
vn -0.867674 0.255007 0.426747
vn -0.867674 0.255007 0.426747
vn -0.867674 0.255007 0.426747
vn -0.867674 0.255007 0.426747
vn -0.344645 0.069747 0.936138
vn -0.344645 0.069747 0.936138
vn -0.344645 0.069747 0.936139
vn -0.344645 0.069747 0.936138
vn 0.337398 -0.213150 0.916913
vn 0.337398 -0.213150 0.916913
vn 0.337398 -0.213150 0.916913
vn 0.337398 -0.213150 0.916913
vn 0.861492 -0.322768 0.391984
vn 0.861492 -0.322768 0.391984
vn 0.861492 -0.322768 0.391984
vn 0.861492 -0.322768 0.391984
vn 0.879042 -0.280379 -0.385581
vn 0.879042 -0.280379 -0.385581
vn 0.879042 -0.280379 -0.385581
vn 0.879042 -0.280379 -0.385581
vn 0.511857 0.393282 -0.763761
vn 0.511857 0.393282 -0.763761
vn 0.511857 0.393282 -0.763761
vn 0.511857 0.393282 -0.763761
vn -0.149879 0.862950 -0.482550
vn -0.149879 0.862950 -0.482550
vn -0.149879 0.862950 -0.482550
vn -0.149879 0.862950 -0.482550
vn -0.518458 0.849997 -0.093310
vn -0.518458 0.849997 -0.093310
vn -0.518458 0.849997 -0.093310
vn -0.518458 0.849997 -0.093310
vn -0.766141 0.336045 0.547815
vn -0.766141 0.336045 0.547815
vn -0.766141 0.336045 0.547815
vn -0.766141 0.336045 0.547815
vn -0.462617 -0.382897 0.799610
vn -0.462616 -0.382896 0.799610
vn -0.462617 -0.382897 0.799610
vn -0.462617 -0.382897 0.799610
vn 0.017396 -0.672957 0.739477
vn 0.017396 -0.672957 0.739477
vn 0.017396 -0.672957 0.739477
vn 0.017396 -0.672957 0.739477
vn 0.613776 -0.788461 -0.040103
vn 0.613776 -0.788461 -0.040103
vn 0.613776 -0.788461 -0.040103
vn 0.613776 -0.788461 -0.040103
vn 0.802519 -0.408189 -0.435139
vn 0.802519 -0.408189 -0.435139
vn 0.802519 -0.408189 -0.435139
vn 0.802519 -0.408189 -0.435139
vn 0.827748 0.393997 -0.399499
vn 0.827748 0.393997 -0.399499
vn 0.827748 0.393997 -0.399499
vn 0.827748 0.393997 -0.399499
vn 0.509137 0.859380 0.047378
vn 0.509137 0.859380 0.047378
vn 0.509137 0.859380 0.047378
vn 0.509137 0.859380 0.047378
vn -0.067760 0.860940 0.504174
vn -0.067760 0.860940 0.504174
vn -0.067760 0.860940 0.504174
vn -0.067760 0.860940 0.504174
vn -0.594676 0.298734 0.746404
vn -0.594676 0.298734 0.746404
vn -0.594676 0.298734 0.746404
vn -0.594676 0.298734 0.746404
vn -0.670550 -0.452620 0.587791
vn -0.670550 -0.452620 0.587791
vn -0.670550 -0.452620 0.587791
vn -0.670550 -0.452620 0.587791
vn -0.399987 -0.908756 0.119049
vn -0.399987 -0.908756 0.119049
vn -0.399987 -0.908756 0.119049
vn -0.399987 -0.908756 0.119049
vn 0.117319 -0.895769 -0.428758
vn 0.117319 -0.895769 -0.428758
vn 0.117319 -0.895769 -0.428758
vn 0.117319 -0.895769 -0.428758
vn 0.685317 -0.350428 -0.638390
vn 0.685317 -0.350428 -0.638390
vn 0.685317 -0.350428 -0.638390
vn 0.685317 -0.350428 -0.638390
vn 0.988920 -0.084879 0.121793
vn 0.988920 -0.084879 0.121793
vn 0.988920 -0.084879 0.121793
vn 0.988920 -0.084879 0.121793
vn 0.710109 0.333531 0.620083
vn 0.710109 0.333531 0.620083
vn 0.710109 0.333531 0.620083
vn 0.710109 0.333531 0.620083
vn -0.021954 0.525171 0.850714
vn -0.021954 0.525171 0.850714
vn -0.021954 0.525171 0.850713
vn -0.021954 0.525171 0.850714
vn -0.745116 0.245212 0.620221
vn -0.745116 0.245212 0.620221
vn -0.745116 0.245212 0.620221
vn -0.745116 0.245212 0.620221
vn -0.972320 -0.185114 0.142571
vn -0.972320 -0.185114 0.142571
vn -0.972320 -0.185114 0.142571
vn -0.972320 -0.185114 0.142571
vn -0.739963 -0.472964 -0.478289
vn -0.739963 -0.472964 -0.478289
vn -0.739963 -0.472964 -0.478289
vn -0.739962 -0.472964 -0.478289
vn -0.001136 -0.631152 -0.775658
vn -0.001136 -0.631152 -0.775658
vn -0.001136 -0.631152 -0.775658
vn -0.001136 -0.631152 -0.775658
vn 0.747304 -0.486328 -0.452794
vn 0.747304 -0.486328 -0.452794
vn 0.747304 -0.486328 -0.452794
vn 0.747304 -0.486328 -0.452794
vn 0.474579 -0.647610 0.596134
vn 0.474579 -0.647610 0.596134
vn 0.474579 -0.647610 0.596134
vn 0.474579 -0.647610 0.596134
vn 0.201396 -0.109028 0.973423
vn 0.201396 -0.109028 0.973423
vn 0.201396 -0.109028 0.973423
vn 0.201396 -0.109028 0.973423
vn -0.234365 0.493662 0.837479
vn -0.234365 0.493662 0.837479
vn -0.234365 0.493662 0.837479
vn -0.234365 0.493662 0.837479
vn -0.589963 0.789352 0.169906
vn -0.589963 0.789352 0.169906
vn -0.589963 0.789352 0.169906
vn -0.589963 0.789352 0.169906
vn -0.605994 0.566226 -0.558713
vn -0.605994 0.566226 -0.558713
vn -0.605994 0.566226 -0.558713
vn -0.605994 0.566226 -0.558713
vn -0.321489 0.038134 -0.946145
vn -0.321489 0.038134 -0.946145
vn -0.321489 0.038134 -0.946145
vn -0.321489 0.038134 -0.946145
vn 0.119475 -0.568775 -0.813770
vn 0.119475 -0.568774 -0.813770
vn 0.119475 -0.568775 -0.813770
vn 0.119475 -0.568775 -0.813770
vn 0.464915 -0.874811 -0.136232
vn 0.464916 -0.874811 -0.136232
vn 0.464916 -0.874811 -0.136232
vn 0.464915 -0.874811 -0.136232
vn -0.043221 -0.800801 0.597368
vn -0.043221 -0.800801 0.597368
vn -0.414971 -0.802824 0.428105
vn -0.351249 -0.812666 0.464972
vn -0.187514 -0.181203 0.965403
vn -0.187514 -0.181203 0.965403
vn -0.516604 -0.182084 0.836640
vn -0.417380 -0.184320 0.889843
vn -0.221616 0.558796 0.799146
vn -0.221616 0.558796 0.799146
vn -0.312971 0.545166 0.777717
vn -0.278857 0.550881 0.786619
vn -0.161208 0.979227 0.122990
vn -0.161208 0.979227 0.122990
vn 0.018445 0.973537 0.227783
vn -0.008703 0.977111 0.212552
vn -0.087236 0.768041 -0.634432
vn -0.087236 0.768041 -0.634432
vn 0.152761 0.814345 -0.559917
vn 0.261610 0.817825 -0.512564
vn 0.012348 0.136307 -0.990590
vn 0.012348 0.136307 -0.990590
vn 0.158072 0.156643 -0.974924
vn 0.297785 0.173274 -0.938776
vn 0.121436 -0.570803 -0.812058
vn 0.121436 -0.570803 -0.812058
vn 0.138268 -0.535814 -0.832938
vn 0.148587 -0.513558 -0.845092
vn 0.108775 -0.984532 -0.137349
vn 0.108775 -0.984532 -0.137349
vn -0.089634 -0.959171 -0.268246
vn -0.105529 -0.954706 -0.278208
vn -0.790534 -0.033142 -0.611520
vn -0.790534 -0.033142 -0.611520
vn -0.790534 -0.033142 -0.611521
vn -0.949332 0.310712 -0.047179
vn -0.949332 0.310712 -0.047179
vn -0.949332 0.310712 -0.047179
vn -0.416274 0.640043 0.645802
vn -0.416274 0.640043 0.645802
vn -0.416274 0.640043 0.645802
vn 0.375952 0.589700 0.714782
vn 0.375952 0.589700 0.714782
vn 0.375952 0.589700 0.714782
vn 0.890267 0.358882 0.280407
vn 0.890267 0.358882 0.280407
vn 0.890267 0.358882 0.280407
vn 0.840413 -0.019150 -0.541608
vn 0.840413 -0.019150 -0.541608
vn 0.840413 -0.019150 -0.541608
vn 0.151545 -0.238343 -0.959285
vn 0.151545 -0.238342 -0.959285
vn 0.151545 -0.238342 -0.959285
vn -0.406312 -0.205933 -0.890226
vn -0.406312 -0.205933 -0.890226
vn -0.406313 -0.205933 -0.890226
vn -0.278857 0.550881 0.786619
vn -0.312971 0.545166 0.777717
vn -0.419606 0.522152 0.742488
vn -0.419606 0.522152 0.742488
vn -0.417380 -0.184320 0.889843
vn -0.516604 -0.182084 0.836640
vn -0.784122 -0.159788 0.599684
vn -0.784122 -0.159788 0.599684
vn -0.351249 -0.812666 0.464972
vn -0.414971 -0.802824 0.428105
vn -0.740033 -0.652543 0.162905
vn -0.740034 -0.652543 0.162905
vn -0.105529 -0.954706 -0.278208
vn -0.089634 -0.959171 -0.268246
vn -0.393133 -0.805347 -0.443692
vn -0.393133 -0.805347 -0.443692
vn 0.148587 -0.513558 -0.845092
vn 0.138268 -0.535814 -0.832938
vn 0.184459 -0.431098 -0.883250
vn 0.184459 -0.431098 -0.883249
vn 0.297785 0.173274 -0.938776
vn 0.158072 0.156643 -0.974924
vn 0.660433 0.199998 -0.723761
vn 0.660433 0.199998 -0.723761
vn 0.261610 0.817825 -0.512564
vn 0.152761 0.814345 -0.559917
vn 0.733575 0.657594 -0.171576
vn 0.733575 0.657594 -0.171576
vn -0.008703 0.977111 0.212552
vn 0.018445 0.973537 0.227783
vn 0.315727 0.869397 0.380086
vn 0.315727 0.869397 0.380086
vn 0.350861 -0.399183 -0.847083
vn 0.350861 -0.399183 -0.847083
vn 0.350861 -0.399183 -0.847083
vn 0.350861 -0.399183 -0.847083
vn -0.350857 -0.399183 -0.847085
vn -0.350857 -0.399183 -0.847085
vn -0.350857 -0.399183 -0.847085
vn -0.350857 -0.399183 -0.847085
vn -0.847084 -0.399183 -0.350858
vn -0.847084 -0.399183 -0.350858
vn -0.847084 -0.399183 -0.350858
vn -0.847084 -0.399183 -0.350858
vn -0.847077 -0.399189 0.350869
vn -0.847077 -0.399189 0.350869
vn -0.847077 -0.399189 0.350869
vn -0.847077 -0.399189 0.350869
vn -0.350824 -0.399183 0.847098
vn -0.350824 -0.399183 0.847098
vn -0.350824 -0.399183 0.847098
vn -0.350824 -0.399183 0.847098
vn 0.350829 -0.399183 0.847096
vn 0.350829 -0.399183 0.847096
vn 0.350829 -0.399183 0.847096
vn 0.350829 -0.399183 0.847096
vn 0.847073 -0.399203 0.350861
vn 0.847073 -0.399203 0.350861
vn 0.847073 -0.399203 0.350861
vn 0.847073 -0.399203 0.350861
vn 0.847080 -0.399197 -0.350851
vn 0.847080 -0.399197 -0.350851
vn 0.847080 -0.399197 -0.350851
vn 0.847080 -0.399197 -0.350851
vn 0.000000 -1.000000 0.000000
vn 0.000000 -1.000000 0.000000
vn 0.000000 -1.000000 0.000000
vn 0.000000 -1.000000 0.000000
vn 0.000000 -1.000000 0.000000
vn 0.000000 -1.000000 0.000000
vn 0.000000 -1.000000 0.000000
vn 0.000000 -1.000000 0.000000
vn 0.000000 -1.000000 0.000000
vn 0.000000 -1.000000 0.000000
vn 0.000000 -1.000000 0.000000
vn 0.000000 -1.000000 0.000000
vn 0.000000 -1.000000 0.000000
vn 0.000000 -1.000000 0.000000
vn 0.000000 -1.000000 0.000000
vn 0.000000 -1.000000 0.000000
vn 0.000000 -1.000000 0.000000
vn 0.000000 -1.000000 0.000000
vn 0.000000 -1.000000 0.000000
vn 0.000000 -1.000000 0.000000
vn 0.000000 -1.000000 0.000000
vn 0.000000 -1.000000 0.000000
vn 0.000000 -1.000000 0.000000
vn 0.000000 -1.000000 0.000000
s off
f 1/1/1 2/2/2 10/3/3 9/4/4
f 2/2/5 3/5/6 11/6/7 10/3/8
f 3/5/9 4/7/10 12/8/11 11/6/12
f 4/7/13 5/9/14 13/10/15 12/8/16
f 5/9/17 6/11/18 14/12/19 13/10/20
f 6/11/21 7/13/22 15/14/23 14/12/24
f 7/13/25 8/15/26 16/16/27 15/14/28
f 8/15/29 1/1/30 9/4/31 16/16/32
f 9/4/33 10/3/34 18/17/35 17/18/36
f 10/3/37 11/6/38 19/19/39 18/17/40
f 11/6/41 12/8/42 20/20/43 19/19/44
f 12/8/45 13/10/46 21/21/47 20/20/48
f 13/10/49 14/12/50 22/22/51 21/21/52
f 14/12/53 15/14/54 23/23/55 22/22/56
f 15/14/57 16/16/58 24/24/59 23/23/60
f 16/16/61 9/4/62 17/18/63 24/24/64
f 17/51/65 18/52/66 26/53/67 25/54/68
f 18/55/69 19/56/70 27/57/71 26/58/72
f 19/59/73 20/60/74 28/61/75 27/62/76
f 20/63/77 21/64/78 29/65/79 28/66/80
f 21/67/81 22/68/82 30/69/83 29/70/84
f 22/71/85 23/72/86 31/73/87 30/74/88
f 23/75/89 24/76/90 32/77/91 31/78/92
f 24/79/93 17/80/94 25/81/95 32/82/96
f 25/83/97 26/84/98 34/85/99 33/86/100
f 26/87/101 27/88/102 35/89/103 34/90/104
f 27/91/105 28/92/106 36/93/107 35/94/108
f 28/95/109 29/96/110 37/97/111 36/98/112
f 29/99/113 30/100/114 38/101/115 37/102/116
f 30/103/117 31/104/118 39/105/119 38/106/120
f 31/107/121 32/108/122 40/109/123 39/110/124
f 32/111/125 25/112/126 33/113/127 40/114/128
f 33/115/129 34/116/130 42/117/131 41/118/132
f 34/119/133 35/120/134 43/121/135 42/122/136
f 35/123/137 36/124/138 44/125/139 43/126/140
f 36/127/141 37/128/142 45/129/143 44/130/144
f 37/131/145 38/132/146 46/133/147 45/134/148
f 38/135/149 39/136/150 47/137/151 46/138/152
f 39/139/153 40/140/154 48/141/155 47/142/156
f 40/143/157 33/144/158 41/145/159 48/146/160
f 41/147/161 42/148/162 50/149/163 49/150/164
f 42/151/165 43/152/166 51/153/167 50/154/168
f 43/155/169 44/156/170 52/157/171 51/158/172
f 44/159/173 45/160/174 53/161/175 52/162/176
f 45/163/177 46/164/178 54/165/179 53/166/180
f 46/167/181 47/168/182 55/169/183 54/170/184
f 47/171/185 48/172/186 56/173/187 55/174/188
f 48/175/189 41/176/190 49/177/191 56/178/192
f 49/179/193 50/180/194 68/45/195 69/42/196
f 50/183/197 51/184/198 67/47/199 68/44/200
f 51/187/201 52/188/202 66/49/203 67/46/204
f 52/191/205 53/192/206 73/35/207 66/48/208
f 53/195/209 54/196/210 72/37/211 73/34/212
f 54/199/213 55/200/214 71/39/215 72/36/216
f 55/203/217 56/204/218 70/41/219 71/38/220
f 56/207/221 49/208/222 69/43/223 70/40/224
f 57/211/225 58/212/226 65/213/227
f 58/214/228 59/215/229 65/216/230
f 59/217/231 60/218/232 65/219/233
f 60/220/234 61/221/235 65/222/236
f 61/223/237 62/224/238 65/225/239
f 62/226/240 63/227/241 65/228/242
f 63/229/243 64/230/244 65/231/245
f 64/232/246 57/233/247 65/50/248
f 67/46/249 66/49/250 60/189/251 59/190/252
f 68/44/253 67/47/254 59/185/255 58/186/256
f 69/42/257 68/45/258 58/181/259 57/182/260
f 70/40/261 69/43/262 57/209/263 64/210/264
f 71/38/265 70/41/266 64/205/267 63/206/268
f 72/36/269 71/39/270 63/201/271 62/202/272
f 73/34/273 72/37/274 62/197/275 61/198/276
f 66/48/277 73/35/278 61/193/279 60/194/280
f 2/2/281 1/1/282 74/25/283 75/26/284
f 3/5/285 2/2/286 75/26/287 76/27/288
f 4/7/289 3/5/290 76/27/291 77/28/292
f 5/9/293 4/7/294 77/28/295 78/29/296
f 6/11/297 5/9/298 78/29/299 79/30/300
f 7/13/301 6/11/302 79/30/303 80/31/304
f 8/15/305 7/13/306 80/31/307 81/32/308
f 1/1/309 8/15/310 81/32/311 74/25/312
f 75/26/313 74/25/314 82/33/315
f 76/27/316 75/26/317 82/33/318
f 77/28/319 76/27/320 82/33/321
f 78/29/322 77/28/323 82/33/324
f 79/30/325 78/29/326 82/33/327
f 80/31/328 79/30/329 82/33/330
f 81/32/331 80/31/332 82/33/333
f 74/25/334 81/32/335 82/33/336
