# This file uses centimeters as units for non-parametric coordinates.

v -6.179909 0.000000 -0.700891
v 0.000000 0.000000 0.000000
v 8.314018 0.000000 -0.736461
v -0.303787 0.281806 -1.729607
v -3.543144 0.331771 -2.736450
v 1.305023 0.476169 -2.781854
v 10.703423 0.000000 -2.503681
v 4.542686 2.108151 -5.059198
v -1.327759 0.687024 -6.381010
v 7.691353 0.000000 -5.724468
v 6.007050 1.214451 -5.485542
v 0.421562 2.260562 -5.612885
v 0.104813 2.018241 -5.248600
v 1.270668 2.150277 -4.666599
v 2.801643 2.375148 -4.634062
v 0.953941 1.930572 -4.364929
v 2.729591 1.866567 -3.873420
v 1.189163 1.162984 -3.299036
v 9.490456 0.000000 -4.870766
v -7.629288 0.000000 -4.046022
v 2.634621 1.102605 -3.285630
v 5.531288 0.698795 -2.927460
v 1.536652 0.087149 -1.685254
v -0.290604 0.249924 -1.444402
v -3.692955 0.000000 -0.195387
v 3.002472 0.128713 -6.260330
v -4.004227 0.392402 -6.262770
v -1.461761 0.992792 -6.073902
v -5.208336 0.513482 -6.113317
v 6.134911 1.599079 -5.047104
v -1.196648 1.615955 -5.842588
v -6.461823 0.000000 -5.467121
v -4.344559 1.499957 -5.241192
v 2.879189 2.156350 -5.579969
v -2.085815 1.503984 -5.656788
v -3.513687 1.562687 -5.592537
v 4.247597 2.192389 -4.700026
v -1.002281 1.346854 -4.496555
v -2.091042 1.463093 -4.393766
v -4.046448 1.035038 -4.230391
v 7.806244 1.403379 -5.006054
v 5.914978 1.794376 -4.250811
v 2.694992 2.069241 -4.185005
v 1.257545 1.716464 -3.737163
v -0.093521 1.152995 -3.697086
v -5.261833 0.671829 -4.033949
v -4.011894 0.605956 -3.686354
v 7.569908 0.471784 -3.618879
v 5.520073 1.316220 -3.748130
v 4.106697 0.770539 -3.289318
v -8.269592 0.000000 -1.575434
v -0.348663 0.871939 -3.259377
v -3.910301 0.406873 -3.289318
v -1.749863 0.649876 -2.763098
v 3.967148 0.432946 -2.798491
v 1.364380 0.144793 -2.261596
v 6.264954 0.281590 -2.259338
v -0.074799 0.696737 -2.659052
v 4.586243 0.000000 -0.269282
vt 0.235013 0.278699
vt 0.235013 0.278699
vt 0.235013 0.278699
vt 0.235013 0.278699
vt 0.235013 0.278699
vt 0.235013 0.278699
vt 0.235013 0.278699
vt 0.235013 0.278699
vt 0.235013 0.278699
vt 0.235013 0.278699
vt 0.235013 0.278699
vt 0.235013 0.278699
vt 0.235013 0.278699
vt 0.235013 0.278699
vt 0.235013 0.278699
vt 0.235013 0.278699
vt 0.235013 0.278699
vt 0.235013 0.278699
vt 0.235013 0.278699
vt 0.235013 0.278699
vt 0.235013 0.278699
vt 0.235013 0.278699
vt 0.235013 0.278699
vt 0.235013 0.278699
vt 0.235013 0.278699
vt 0.235013 0.278699
vt 0.235013 0.278699
vt 0.235013 0.278699
vt 0.235013 0.278699
vt 0.235013 0.278699
vt 0.235013 0.278699
vt 0.235013 0.278699
vt 0.235013 0.278699
vt 0.235013 0.278699
vt 0.235013 0.278699
vt 0.235013 0.278699
vt 0.235013 0.278699
vt 0.235013 0.278699
vt 0.235013 0.278699
vt 0.235013 0.278699
vt 0.235013 0.278699
vt 0.235013 0.278699
vt 0.235013 0.278699
vt 0.235013 0.278699
vt 0.235013 0.278699
vt 0.235013 0.278699
vt 0.235013 0.278699
vt 0.235013 0.278699
vt 0.235013 0.278699
vt 0.235013 0.278699
vt 0.235013 0.278699
vt 0.235013 0.278699
vt 0.235013 0.278699
vt 0.235013 0.278699
vt 0.235013 0.278699
vt 0.235013 0.278699
vt 0.235013 0.278699
vt 0.235013 0.278699
vt 0.235013 0.278699
vn 0.003203 0.998506 0.054556
vn 0.003203 0.998506 0.054556
vn 0.003203 0.998506 0.054556
vn 0.361616 0.932209 -0.014852
vn 0.361616 0.932209 -0.014852
vn 0.361616 0.932209 -0.014852
vn -0.004442 0.957686 0.287781
vn -0.004442 0.957686 0.287781
vn -0.004442 0.957686 0.287781
vn -0.143568 0.851588 0.504169
vn -0.143568 0.851588 0.504169
vn -0.143568 0.851588 0.504169
vn -0.166084 0.956406 0.240215
vn -0.166084 0.956406 0.240215
vn -0.166084 0.956406 0.240215
vn -0.045229 0.953234 0.298830
vn -0.045229 0.953234 0.298830
vn -0.045229 0.953234 0.298830
vn -0.090813 0.589234 0.802843
vn -0.090813 0.589234 0.802843
vn -0.090813 0.589234 0.802843
vn 0.019280 0.987466 0.156648
vn 0.019280 0.987466 0.156648
vn 0.019280 0.987466 0.156648
vn -0.236753 0.620833 0.747338
vn -0.236753 0.620833 0.747338
vn -0.236753 0.620833 0.747338
vn 0.135861 0.593475 0.793303
vn 0.135861 0.593475 0.793303
vn 0.135861 0.593475 0.793303
vn 0.067460 0.533929 0.842834
vn 0.067460 0.533929 0.842834
vn 0.067460 0.533929 0.842834
vn 0.280501 0.768857 0.574611
vn 0.280501 0.768857 0.574611
vn 0.280501 0.768857 0.574611
vn -0.179774 0.619774 0.763912
vn -0.179774 0.619774 0.763912
vn -0.179774 0.619774 0.763912
vn -0.118113 0.776020 0.619550
vn -0.118113 0.776020 0.619550
vn -0.118113 0.776020 0.619550
vn 0.141328 0.836954 0.528710
vn 0.141328 0.836954 0.528710
vn 0.141328 0.836954 0.528710
vn 0.208470 0.621622 0.755067
vn 0.208470 0.621622 0.755067
vn 0.208470 0.621622 0.755067
vn 0.514227 0.668880 0.536815
vn 0.514227 0.668880 0.536815
vn 0.514227 0.668880 0.536815
vn -0.186541 0.870519 0.455411
vn -0.186541 0.870519 0.455411
vn -0.186541 0.870519 0.455411
vn -0.026694 0.993101 0.114186
vn -0.026694 0.993101 0.114186
vn -0.026694 0.993101 0.114186
vn 0.102439 0.993975 -0.038990
vn 0.102439 0.993975 -0.038990
vn 0.102439 0.993975 -0.038990
vn -0.250848 0.876581 0.410708
vn -0.250848 0.876581 0.410708
vn -0.250848 0.876581 0.410708
vn 0.045062 0.994681 0.092626
vn 0.045062 0.994681 0.092626
vn 0.045062 0.994681 0.092626
vn -0.277839 0.882696 0.379016
vn -0.277839 0.882696 0.379016
vn -0.277840 0.882696 0.379016
vn 0.112793 0.970049 -0.215135
vn 0.112793 0.970049 -0.215135
vn 0.112793 0.970049 -0.215135
vn 0.304246 0.952221 0.026634
vn 0.304246 0.952221 0.026634
vn 0.304246 0.952221 0.026634
vn -0.498011 0.764591 -0.409127
vn -0.498011 0.764591 -0.409127
vn -0.498011 0.764591 -0.409127
vn -0.464257 0.858320 -0.218521
vn -0.464257 0.858320 -0.218521
vn -0.464257 0.858320 -0.218521
vn -0.174172 0.949394 -0.261371
vn -0.174171 0.949394 -0.261371
vn -0.174171 0.949394 -0.261371
vn -0.236117 0.424848 -0.873930
vn -0.236117 0.424848 -0.873930
vn -0.236117 0.424848 -0.873930
vn 0.112739 0.728296 -0.675925
vn 0.112739 0.728296 -0.675925
vn 0.112739 0.728296 -0.675925
vn 0.140689 0.375358 -0.916140
vn 0.140689 0.375358 -0.916140
vn 0.140689 0.375358 -0.916140
vn 0.058683 0.196544 -0.978737
vn 0.058683 0.196544 -0.978737
vn 0.058683 0.196544 -0.978737
vn 0.101561 0.681149 -0.725067
vn 0.101561 0.681149 -0.725067
vn 0.101561 0.681148 -0.725067
vn 0.025782 0.307588 -0.951170
vn 0.025782 0.307588 -0.951171
vn 0.025782 0.307588 -0.951171
vn -0.006670 0.350477 -0.936548
vn -0.006670 0.350477 -0.936548
vn -0.006670 0.350477 -0.936548
vn -0.106958 0.680862 -0.724560
vn -0.106958 0.680862 -0.724560
vn -0.106958 0.680862 -0.724560
vn -0.065842 0.581354 -0.810983
vn -0.065842 0.581354 -0.810983
vn -0.065842 0.581354 -0.810983
vn -0.055797 0.506884 -0.860206
vn -0.055797 0.506884 -0.860206
vn -0.055797 0.506884 -0.860206
vn 0.234263 0.189214 -0.953582
vn 0.234263 0.189214 -0.953582
vn 0.234263 0.189214 -0.953582
vn 0.339294 0.611235 -0.715033
vn 0.339294 0.611235 -0.715033
vn 0.339294 0.611235 -0.715033
vn 0.102328 0.732801 -0.672705
vn 0.102328 0.732801 -0.672705
vn 0.102328 0.732801 -0.672705
vn 0.230450 0.704839 -0.670891
vn 0.230450 0.704839 -0.670891
vn 0.230450 0.704839 -0.670891
vn 0.230442 0.697197 -0.678832
vn 0.230442 0.697197 -0.678832
vn 0.230442 0.697197 -0.678832
vn -0.388773 0.886331 0.251542
vn -0.388773 0.886331 0.251542
vn -0.388773 0.886331 0.251542
vn -0.020340 0.470676 -0.882072
vn -0.020340 0.470676 -0.882072
vn -0.020340 0.470676 -0.882072
vn -0.349288 0.601283 -0.718650
vn -0.349288 0.601283 -0.718650
vn -0.349288 0.601283 -0.718650
vn 0.269454 0.949873 -0.158542
vn 0.269454 0.949873 -0.158542
vn 0.269454 0.949873 -0.158542
vn 0.080070 0.983075 -0.164780
vn 0.080070 0.983075 -0.164780
vn 0.080070 0.983075 -0.164780
vn 0.044275 0.974111 -0.221692
vn 0.044275 0.974111 -0.221692
vn 0.044275 0.974111 -0.221692
vn -0.146023 0.959024 0.242796
vn -0.146023 0.959024 0.242796
vn -0.146023 0.959024 0.242796
vn -0.277459 0.893498 0.353098
vn -0.277459 0.893498 0.353098
vn -0.277459 0.893498 0.353098
vn -0.311563 0.846283 0.432126
vn -0.311563 0.846283 0.432126
vn -0.311563 0.846283 0.432126
vn -0.215437 0.864316 0.454471
vn -0.215437 0.864316 0.454471
vn -0.215437 0.864316 0.454471
vn -0.133821 0.833523 0.536033
vn -0.133821 0.833523 0.536033
vn -0.133821 0.833523 0.536033
vn -0.119931 0.858202 0.499106
vn -0.119931 0.858201 0.499106
vn -0.119931 0.858202 0.499106
vn -0.639134 0.760069 -0.117485
vn -0.639134 0.760069 -0.117485
vn -0.639134 0.760069 -0.117485
vn -0.154898 0.879407 0.450167
vn -0.154898 0.879407 0.450167
vn -0.154898 0.879407 0.450167
vn 0.376202 0.738244 0.559882
vn 0.376202 0.738244 0.559882
vn 0.376202 0.738244 0.559882
vn 0.118793 0.971433 -0.205441
vn 0.118793 0.971433 -0.205441
vn 0.118793 0.971433 -0.205441
vn 0.044712 0.706061 0.706738
vn 0.044712 0.706061 0.706738
vn 0.044712 0.706061 0.706738
vn 0.133176 0.933540 0.332817
vn 0.133176 0.933540 0.332817
vn 0.133176 0.933540 0.332817
vn 0.125303 0.805844 0.578719
vn 0.125303 0.805844 0.578719
vn 0.125303 0.805844 0.578719
vn -0.122669 0.825656 0.550677
vn -0.122669 0.825656 0.550677
vn -0.122669 0.825656 0.550677
vn -0.062995 0.934883 0.349321
vn -0.062995 0.934883 0.349321
vn -0.062995 0.934883 0.349321
vn -0.333479 0.831239 0.444785
vn -0.333479 0.831239 0.444785
vn -0.333479 0.831239 0.444785
vn 0.115615 0.987404 0.108010
vn 0.115615 0.987404 0.108010
vn 0.115615 0.987404 0.108010
vn -0.104624 0.761950 0.639129
vn -0.104624 0.761950 0.639129
vn -0.104624 0.761950 0.639129
vn -0.131341 0.774303 0.619035
vn -0.131341 0.774303 0.619035
vn -0.131341 0.774303 0.619035
vn -0.112043 0.793333 0.598389
vn -0.112043 0.793333 0.598389
vn -0.112043 0.793333 0.598389
vn 0.009413 0.619921 0.784608
vn 0.009413 0.619921 0.784608
vn 0.009413 0.619921 0.784608
vn 0.018049 0.608284 0.793515
vn 0.018049 0.608284 0.793515
vn 0.018049 0.608284 0.793515
vn -0.152479 0.869651 0.469529
vn -0.152479 0.869651 0.469529
vn -0.152479 0.869651 0.469529
vn -0.119521 0.865651 0.486172
vn -0.119521 0.865651 0.486172
vn -0.119521 0.865651 0.486172
vn -0.118224 0.875199 0.469095
vn -0.118224 0.875199 0.469095
vn -0.118224 0.875199 0.469095
vn -0.191140 0.856969 0.478612
vn -0.191140 0.856969 0.478612
vn -0.191140 0.856969 0.478612
vn 0.000000 1.000000 -0.000000
vn 0.000000 1.000000 -0.000000
vn 0.000000 1.000000 -0.000000
vn 0.287775 0.954191 0.081888
vn 0.287775 0.954191 0.081888
vn 0.287775 0.954191 0.081888
vn 0.215901 0.916962 0.335511
vn 0.215901 0.916962 0.335511
vn 0.215901 0.916962 0.335511
vn -0.096568 0.832682 0.545267
vn -0.096568 0.832682 0.545267
vn -0.096568 0.832682 0.545267
vn 0.178824 0.786170 0.591573
vn 0.178824 0.786170 0.591573
vn 0.178824 0.786170 0.591573
vn 0.017809 0.603361 0.797269
vn 0.017809 0.603361 0.797269
vn 0.017809 0.603361 0.797269
vn 0.172142 0.963971 0.202800
vn 0.172142 0.963971 0.202800
vn 0.172142 0.963971 0.202800
vn -0.129731 0.988626 0.076084
vn -0.129731 0.988626 0.076084
vn -0.129731 0.988626 0.076084
vn -0.152246 0.960818 0.231624
vn -0.152246 0.960818 0.231624
vn -0.152246 0.960818 0.231624
vn -0.093793 0.994762 0.040639
vn -0.093793 0.994762 0.040639
vn -0.093793 0.994762 0.040639
vn 0.000000 1.000000 -0.000000
vn 0.000000 1.000000 -0.000000
vn 0.000000 1.000000 -0.000000
vn -0.180657 0.820092 0.542966
vn -0.180657 0.820092 0.542966
vn -0.180657 0.820092 0.542966
vn 0.075149 0.680058 0.729297
vn 0.075149 0.680058 0.729297
vn 0.075149 0.680058 0.729297
vn 0.179820 0.838858 0.513792
vn 0.179820 0.838858 0.513792
vn 0.179820 0.838858 0.513792
vn -0.050287 0.916536 0.396779
vn -0.050287 0.916536 0.396779
vn -0.050287 0.916536 0.396779
vn -0.019475 0.993522 0.111962
vn -0.019475 0.993522 0.111962
vn -0.019475 0.993522 0.111962
vn -0.025910 0.991432 0.128029
vn -0.025910 0.991432 0.128029
vn -0.025910 0.991432 0.128029
vn -0.009114 0.985008 0.172269
vn -0.009114 0.985008 0.172269
vn -0.009114 0.985008 0.172269
vn -0.025955 0.991475 0.127690
vn -0.025955 0.991475 0.127690
vn -0.025955 0.991475 0.127690
vn -0.086844 0.799372 0.594527
vn -0.086844 0.799372 0.594527
vn -0.086844 0.799372 0.594527
vn -0.083891 0.988734 0.123966
vn -0.083891 0.988734 0.123966
vn -0.083891 0.988734 0.123966
vn 0.085176 0.901840 0.423592
vn 0.085176 0.901840 0.423592
vn 0.085176 0.901840 0.423592
vn -0.015717 0.979216 0.202211
vn -0.015717 0.979216 0.202211
vn -0.015717 0.979216 0.202211
vn 0.006067 0.998809 0.048408
vn 0.006067 0.998809 0.048408
vn 0.006067 0.998809 0.048408
vn 0.107154 0.983083 0.148543
vn 0.107154 0.983083 0.148543
vn 0.107154 0.983083 0.148543
vn 0.102066 0.989130 0.105853
vn 0.102066 0.989130 0.105853
vn 0.102066 0.989130 0.105853
s off
f 2/2/1 59/59/2 23/23/3
f 58/58/4 23/23/5 56/56/6
f 23/23/7 57/57/8 55/55/9
f 5/5/10 4/4/11 54/54/12
f 5/5/13 54/54/14 53/53/15
f 54/54/16 58/58/17 52/52/18
f 52/52/19 6/6/20 18/18/21
f 57/57/22 3/3/23 48/48/24
f 45/45/25 18/18/26 44/44/27
f 21/21/28 50/50/29 17/17/30
f 17/17/31 50/50/32 49/49/33
f 22/22/34 48/48/35 49/49/36
f 20/20/37 47/47/38 46/46/39
f 40/40/40 47/47/41 39/39/42
f 17/17/43 49/49/44 43/43/45
f 49/49/46 48/48/47 42/42/48
f 48/48/49 19/19/50 41/41/51
f 46/46/52 40/40/53 33/33/54
f 33/33/55 39/39/56 36/36/57
f 39/39/58 38/38/59 36/36/60
f 20/20/61 46/46/62 33/33/63
f 36/36/64 38/38/65 35/35/66
f 35/35/67 38/38/68 13/13/69
f 15/15/70 37/37/71 34/34/72
f 8/8/73 37/37/74 30/30/75
f 20/20/76 33/33/77 32/32/78
f 32/32/79 36/36/80 29/29/81
f 35/35/82 13/13/83 31/31/84
f 35/35/85 31/31/86 28/28/87
f 9/9/88 28/28/89 26/26/90
f 34/34/91 11/11/92 10/10/93
f 10/10/94 28/28/95 34/34/96
f 26/26/97 28/28/98 10/10/99
f 28/28/100 12/12/101 34/34/102
f 28/28/103 31/31/104 12/12/105
f 27/27/106 28/28/107 9/9/108
f 28/28/109 29/29/110 35/35/111
f 27/27/112 29/29/113 28/28/114
f 19/19/115 11/11/116 41/41/117
f 10/10/118 11/11/119 19/19/120
f 11/11/121 30/30/122 41/41/123
f 30/30/124 34/34/125 8/8/126
f 11/11/127 34/34/128 30/30/129
f 12/12/130 31/31/131 13/13/132
f 29/29/133 36/36/134 35/35/135
f 33/33/136 36/36/137 32/32/138
f 30/30/139 37/37/140 42/42/141
f 34/34/142 37/37/143 8/8/144
f 34/34/145 12/12/146 15/15/147
f 12/12/148 14/14/149 15/15/150
f 12/12/151 13/13/152 14/14/153
f 13/13/154 45/45/155 14/14/156
f 13/13/157 38/38/158 45/45/159
f 14/14/160 43/43/161 15/15/162
f 14/14/163 16/16/164 43/43/165
f 45/45/166 16/16/167 14/14/168
f 40/40/169 39/39/170 33/33/171
f 41/41/172 42/42/173 48/48/174
f 30/30/175 42/42/176 41/41/177
f 42/42/178 15/15/179 49/49/180
f 37/37/181 15/15/182 42/42/183
f 15/15/184 43/43/185 49/49/186
f 43/43/187 16/16/188 17/17/189
f 16/16/190 44/44/191 17/17/192
f 45/45/193 44/44/194 16/16/195
f 38/38/196 39/39/197 45/45/198
f 47/47/199 45/45/200 39/39/201
f 40/40/202 46/46/203 47/47/204
f 49/49/205 50/50/206 22/22/207
f 18/18/208 17/17/209 44/44/210
f 17/17/211 18/18/212 21/21/213
f 52/52/214 18/18/215 45/45/216
f 45/45/217 47/47/218 52/52/219
f 53/53/220 52/52/221 47/47/222
f 47/47/223 20/20/224 53/53/225
f 19/19/226 3/3/227 7/7/228
f 48/48/229 3/3/230 19/19/231
f 48/48/232 22/22/233 57/57/234
f 55/55/235 22/22/236 50/50/237
f 50/50/238 21/21/239 55/55/240
f 18/18/241 6/6/242 21/21/243
f 52/52/244 58/58/245 6/6/246
f 52/52/247 53/53/248 54/54/249
f 53/53/250 20/20/251 5/5/252
f 20/20/253 1/1/254 5/5/255
f 51/51/256 1/1/257 20/20/258
f 56/56/259 21/21/260 6/6/261
f 56/56/262 55/55/263 21/21/264
f 58/58/265 56/56/266 6/6/267
f 4/4/268 58/58/269 54/54/270
f 24/24/271 4/4/272 5/5/273
f 1/1/274 24/24/275 5/5/276
f 24/24/277 25/25/278 2/2/279
f 1/1/280 25/25/281 24/24/282
f 55/55/283 57/57/284 22/22/285
f 55/55/286 56/56/287 23/23/288
f 58/58/289 4/4/290 23/23/291
f 57/57/292 23/23/293 3/3/294
f 23/23/295 59/59/296 3/3/297
f 23/23/298 24/24/299 2/2/300
f 4/4/301 24/24/302 23/23/303
