# This file uses centimeters as units for non-parametric coordinates.

v -0.006256 0.019740 0.121178
v 0.066284 0.010183 0.091728
v 0.086273 0.037415 0.066904
v 0.012878 -0.094345 0.077038
v -0.005096 0.084222 0.083429
v 0.095184 -0.032447 0.062996
v -0.011780 0.117336 0.009311
v -0.080811 0.076904 0.037941
v 0.042145 0.108221 -0.026433
v 0.112244 -0.026755 -0.027549
v 0.054047 -0.102453 -0.032145
v -0.108246 -0.008386 0.050291
v -0.083527 0.064960 -0.043587
v -0.054810 -0.076130 -0.073149
v -0.022552 0.006081 -0.119991
v 0.079742 0.023599 -0.085571
v -0.083313 -0.000877 -0.082981
vt 0.211594 0.300503
vt 0.211594 0.300503
vt 0.211594 0.300503
vt 0.211594 0.300503
vt 0.211594 0.300503
vt 0.211594 0.300503
vt 0.211594 0.300503
vt 0.211594 0.300503
vt 0.211594 0.300503
vt 0.211594 0.300503
vt 0.211594 0.300503
vt 0.211594 0.300503
vt 0.211594 0.300503
vt 0.211594 0.300503
vt 0.211594 0.300503
vt 0.211594 0.300503
vt 0.211594 0.300503
vn 0.382699 0.458841 0.801877
vn 0.382699 0.458841 0.801877
vn 0.382699 0.458841 0.801877
vn 0.382699 0.458841 0.801877
vn 0.326258 -0.292999 0.898725
vn 0.326258 -0.292999 0.898725
vn 0.326258 -0.292999 0.898725
vn -0.451997 -0.386800 0.803794
vn -0.451997 -0.386800 0.803794
vn -0.451996 -0.386800 0.803794
vn -0.593696 0.414460 0.689745
vn -0.593696 0.414460 0.689745
vn -0.593696 0.414460 0.689745
vn 0.387905 -0.319684 0.864484
vn 0.387905 -0.319684 0.864484
vn 0.387905 -0.319684 0.864484
vn 0.606783 -0.742428 0.283926
vn 0.606783 -0.742428 0.283926
vn 0.606783 -0.742428 0.283926
vn 0.745556 0.057958 0.663918
vn 0.745556 0.057958 0.663918
vn 0.745556 0.057958 0.663918
vn -0.513924 0.282594 0.809952
vn -0.513924 0.282594 0.809952
vn -0.513924 0.282594 0.809952
vn -0.328458 0.850980 0.409815
vn -0.328458 0.850980 0.409815
vn -0.328458 0.850980 0.409815
vn 0.477135 0.817611 0.322265
vn 0.477135 0.817611 0.322265
vn 0.477135 0.817611 0.322265
vn -0.595142 -0.784768 0.173046
vn -0.595142 -0.784768 0.173046
vn -0.595142 -0.784768 0.173046
vn 0.784794 -0.610004 0.109517
vn 0.784794 -0.610004 0.109517
vn 0.784794 -0.610004 0.109517
vn 0.975014 0.113691 0.190846
vn 0.975014 0.113691 0.190846
vn 0.975014 0.113691 0.190846
vn 0.413748 0.808789 0.417939
vn 0.413748 0.808789 0.417939
vn 0.413748 0.808789 0.417939
vn -0.909434 -0.369412 -0.190955
vn -0.909434 -0.369412 -0.190955
vn -0.909434 -0.369412 -0.190955
vn -0.534679 0.838503 -0.105028
vn -0.534679 0.838503 -0.105028
vn -0.534679 0.838503 -0.105028
vn -0.952425 0.304500 -0.012880
vn -0.952425 0.304500 -0.012880
vn -0.952425 0.304500 -0.012880
vn -0.229885 -0.973111 -0.014415
vn -0.229885 -0.973111 -0.014415
vn -0.229885 -0.973111 -0.014415
vn 0.889390 0.450290 -0.078895
vn 0.889390 0.450290 -0.078895
vn 0.889390 0.450290 -0.078895
vn -0.978759 0.102919 -0.177309
vn -0.978759 0.102919 -0.177309
vn -0.978759 0.102919 -0.177309
vn 0.592701 -0.413718 -0.691045
vn 0.592701 -0.413718 -0.691045
vn 0.592701 -0.413718 -0.691045
vn 0.179525 -0.539252 -0.822787
vn 0.179525 -0.539252 -0.822787
vn 0.179525 -0.539252 -0.822787
vn 0.877145 0.473436 -0.080468
vn 0.877145 0.473436 -0.080468
vn 0.877145 0.473436 -0.080468
vn -0.077328 0.758931 -0.646563
vn -0.077328 0.758931 -0.646563
vn -0.077328 0.758931 -0.646563
vn 0.353213 -0.425205 -0.833332
vn 0.353213 -0.425205 -0.833332
vn 0.353213 -0.425205 -0.833332
vn -0.281016 0.738930 -0.612383
vn -0.281016 0.738930 -0.612383
vn -0.281016 0.738930 -0.612383
vn -0.473850 -0.288199 -0.832110
vn -0.473850 -0.288199 -0.832110
vn -0.473850 -0.288199 -0.832110
vn -0.502903 0.442605 -0.742421
vn -0.502903 0.442605 -0.742421
vn -0.502903 0.442605 -0.742421
vn 0.156276 0.611498 -0.775660
vn 0.156276 0.611498 -0.775660
vn 0.156276 0.611498 -0.775660
s off
f 1/1/1 2/2/2 3/3/3 5/4/4
f 2/2/5 1/1/6 4/5/7
f 4/5/8 1/1/9 12/6/10
f 1/1/11 5/4/12 12/6/13
f 2/2/14 4/5/15 6/7/16
f 11/8/17 6/7/18 4/5/19
f 2/2/20 6/7/21 3/3/22
f 12/6/23 5/4/24 8/9/25
f 5/4/26 7/10/27 8/9/28
f 5/4/29 3/3/30 7/10/31
f 14/11/32 4/5/33 12/6/34
f 6/7/35 11/8/36 10/12/37
f 3/3/38 6/7/39 10/12/40
f 9/13/41 7/10/42 3/3/43
f 12/6/44 17/14/45 14/11/46
f 13/15/47 8/9/48 7/10/49
f 8/9/50 13/15/51 12/6/52
f 11/8/53 4/5/54 14/11/55
f 3/3/56 16/16/57 9/13/58
f 12/6/59 13/15/60 17/14/61
f 11/8/62 16/16/63 10/12/64
f 15/17/65 11/8/66 14/11/67
f 10/12/68 16/16/69 3/3/70
f 15/17/71 13/15/72 7/10/73
f 15/17/74 16/16/75 11/8/76
f 9/13/77 15/17/78 7/10/79
f 14/11/80 17/14/81 15/17/82
f 17/14/83 13/15/84 15/17/85
f 15/17/86 9/13/87 16/16/88
