# This file uses centimeters as units for non-parametric coordinates.

v 0.411482 0.626706 0.189819
v -0.296914 0.466176 0.411460
v 0.105784 0.691051 0.412998
v -0.129208 -0.234378 0.413769
v 0.201447 -0.274616 0.332679
v 0.337573 -0.204679 0.220611
v -0.168124 0.789762 0.181055
v -0.283538 -0.010061 0.411790
v -0.413843 0.024680 0.229532
v -0.404315 0.412634 0.295553
v 0.413843 -0.148080 0.177716
v 0.413843 -0.160420 0.067276
v 0.017116 -0.387936 0.119221
v 0.410664 0.736080 -0.068385
v 0.297249 0.789572 -0.155121
v -0.410593 0.577385 0.055194
v -0.370489 -0.189989 0.070665
v 0.413760 -0.061702 -0.230090
v 0.356592 -0.171924 -0.208244
v -0.117075 0.787527 -0.263021
v 0.282987 0.562951 -0.409228
v 0.298229 -0.201876 -0.249287
v -0.413843 0.444241 -0.190898
v 0.296128 -0.011080 -0.410958
v -0.042183 0.567641 -0.413844
v -0.087588 -0.200822 -0.388106
v 0.186751 -0.168325 -0.409136
v -0.413843 -0.098720 -0.191069
v 0.007498 -0.297146 -0.271182
v 0.228750 -0.239891 -0.302179
vt 0.211594 0.300503
vt 0.211594 0.300503
vt 0.211594 0.300503
vt 0.211594 0.300503
vt 0.211594 0.300503
vt 0.211594 0.300503
vt 0.211594 0.300503
vt 0.211594 0.300503
vt 0.211594 0.300503
vt 0.211594 0.300503
vt 0.211594 0.300503
vt 0.211594 0.300503
vt 0.211594 0.300503
vt 0.211594 0.300503
vt 0.211594 0.300503
vt 0.211594 0.300503
vt 0.211594 0.300503
vt 0.211594 0.300503
vt 0.211594 0.300503
vt 0.211594 0.300503
vt 0.211594 0.300503
vt 0.211594 0.300503
vt 0.211594 0.300503
vt 0.211594 0.300503
vt 0.211594 0.300503
vt 0.211594 0.300503
vt 0.211594 0.300503
vt 0.211594 0.300503
vt 0.211594 0.300503
vt 0.211594 0.300503
vn -0.355490 0.631887 0.688727
vn -0.355490 0.631887 0.688727
vn -0.355490 0.631887 0.688727
vn -0.728739 -0.019993 0.684499
vn -0.728739 -0.019993 0.684499
vn -0.728739 -0.019993 0.684499
vn -0.012317 0.000347 0.999924
vn -0.012317 0.000347 0.999924
vn -0.012317 0.000347 0.999924
vn -0.004993 0.002100 0.999985
vn -0.004993 0.002100 0.999985
vn -0.004993 0.002100 0.999985
vn 0.231134 -0.057882 0.971199
vn 0.231134 -0.057882 0.971199
vn 0.231134 -0.057882 0.971199
vn 0.635950 -0.001189 0.771729
vn 0.635950 -0.001189 0.771729
vn 0.635950 -0.001189 0.771729
vn 0.006214 -0.885446 0.464700
vn 0.006214 -0.885446 0.464700
vn 0.006214 -0.885446 0.464700
vn 0.431080 0.831336 0.350785
vn 0.431080 0.831336 0.350785
vn 0.431080 0.831336 0.350785
vn -0.716855 0.570602 0.400665
vn -0.716855 0.570602 0.400665
vn -0.716855 0.570603 0.400665
vn 0.485279 -0.873226 0.044517
vn 0.485279 -0.873226 0.044517
vn 0.485279 -0.873226 0.044517
vn 0.176323 0.963426 0.201793
vn 0.176323 0.963426 0.201793
vn 0.176323 0.963426 0.201793
vn -0.712087 0.570299 0.409501
vn -0.712087 0.570299 0.409501
vn -0.712087 0.570299 0.409501
vn -0.817948 -0.076934 0.570126
vn -0.817948 -0.076934 0.570125
vn -0.817948 -0.076934 0.570126
vn 0.517322 -0.049632 0.854350
vn 0.517322 -0.049632 0.854350
vn 0.517322 -0.049632 0.854350
vn -0.736401 -0.502651 0.452830
vn -0.736401 -0.502651 0.452830
vn -0.736401 -0.502651 0.452830
vn -0.465405 -0.858275 0.216248
vn -0.465405 -0.858274 0.216248
vn -0.465405 -0.858274 0.216248
vn -0.999099 0.017998 0.038430
vn -0.999099 0.017998 0.038430
vn -0.999099 0.017998 0.038430
vn 0.588120 -0.010841 0.808701
vn 0.588120 -0.010841 0.808701
vn 0.588120 -0.010841 0.808701
vn -0.753369 -0.482669 0.446616
vn -0.753369 -0.482669 0.446616
vn -0.753369 -0.482669 0.446616
vn 0.999995 0.003040 0.000440
vn 0.999995 0.003040 0.000440
vn 0.999995 0.003040 0.000440
vn 1.000000 0.000628 -0.000070
vn 1.000000 0.000628 -0.000070
vn 1.000000 0.000628 -0.000070
vn 0.624673 -0.776057 0.086713
vn 0.624673 -0.776057 0.086713
vn 0.624673 -0.776057 0.086713
vn 0.437034 -0.898466 -0.041953
vn 0.437034 -0.898466 -0.041953
vn 0.437034 -0.898466 -0.041953
vn 0.999990 0.004165 -0.001405
vn 0.999990 0.004165 -0.001405
vn 0.999990 0.004165 -0.001405
vn -0.999927 0.008582 0.008565
vn -0.999927 0.008582 0.008565
vn -0.999927 0.008582 0.008565
vn -0.426624 -0.883184 -0.194879
vn -0.426624 -0.883184 -0.194879
vn -0.426624 -0.883184 -0.194879
vn -0.634096 0.769435 -0.076765
vn -0.634096 0.769435 -0.076765
vn -0.634096 0.769435 -0.076765
vn -0.965710 -0.249123 0.073090
vn -0.965710 -0.249123 0.073090
vn -0.965710 -0.249123 0.073090
vn 0.213557 0.931293 0.295105
vn 0.213557 0.931293 0.295105
vn 0.213557 0.931293 0.295105
vn 0.491925 -0.868135 -0.065972
vn 0.491925 -0.868135 -0.065972
vn 0.491925 -0.868135 -0.065972
vn -1.000000 0.000000 0.000000
vn -1.000000 0.000000 0.000000
vn -1.000000 0.000000 0.000000
vn -0.003520 0.999979 -0.005438
vn -0.003520 0.999979 -0.005438
vn -0.003520 0.999979 -0.005438
vn 0.863100 -0.479239 -0.159336
vn 0.863100 -0.479239 -0.159336
vn 0.863100 -0.479239 -0.159336
vn 0.656281 0.544439 -0.522381
vn 0.656281 0.544439 -0.522381
vn 0.656281 0.544439 -0.522381
vn 0.918967 0.081758 -0.385766
vn 0.918967 0.081758 -0.385766
vn 0.918967 0.081758 -0.385766
vn -0.449912 -0.863822 -0.226698
vn -0.449911 -0.863822 -0.226698
vn -0.449911 -0.863822 -0.226698
vn 0.168613 0.730913 -0.661314
vn 0.168613 0.730913 -0.661314
vn 0.168613 0.730913 -0.661314
vn -0.751007 0.584847 -0.306501
vn -0.751007 0.584847 -0.306501
vn -0.751007 0.584847 -0.306501
vn 0.656508 -0.459129 -0.598496
vn 0.656508 -0.459129 -0.598496
vn 0.656508 -0.459129 -0.598496
vn 0.507165 -0.860534 -0.047598
vn 0.507165 -0.860534 -0.047598
vn 0.507165 -0.860534 -0.047598
vn -0.563658 0.328008 -0.758089
vn -0.563659 0.328008 -0.758089
vn -0.563658 0.328008 -0.758089
vn 0.019882 0.570128 -0.821315
vn 0.019882 0.570128 -0.821316
vn 0.019882 0.570128 -0.821316
vn 0.840778 0.020877 -0.540977
vn 0.840778 0.020877 -0.540977
vn 0.840778 0.020877 -0.540977
vn 0.014242 0.003339 -0.999893
vn 0.014242 0.003339 -0.999893
vn 0.014242 0.003339 -0.999893
vn -0.514827 0.001706 -0.857293
vn -0.514827 0.001706 -0.857293
vn -0.514827 0.001706 -0.857293
vn -0.072974 -0.029077 -0.996910
vn -0.072974 -0.029077 -0.996910
vn -0.072974 -0.029077 -0.996910
vn 0.671705 -0.473826 -0.569475
vn 0.671705 -0.473826 -0.569475
vn 0.671705 -0.473826 -0.569475
vn -0.005158 -0.008002 -0.999955
vn -0.005158 -0.008002 -0.999955
vn -0.005158 -0.008002 -0.999955
vn 0.039320 -0.755296 -0.654203
vn 0.039320 -0.755296 -0.654203
vn 0.039320 -0.755296 -0.654203
vn -0.452756 -0.832986 -0.318035
vn -0.452756 -0.832986 -0.318035
vn -0.452756 -0.832986 -0.318035
vn 0.671526 -0.475661 -0.568155
vn 0.671526 -0.475661 -0.568155
vn 0.671526 -0.475661 -0.568155
vn -0.516910 0.000269 -0.856040
vn -0.516910 0.000269 -0.856040
vn -0.516910 0.000269 -0.856040
vn 0.683536 -0.453560 -0.571893
vn 0.683536 -0.453560 -0.571893
vn 0.683536 -0.453560 -0.571893
vn 0.125317 -0.801113 -0.585246
vn 0.125317 -0.801113 -0.585246
vn 0.125317 -0.801113 -0.585246
vn 0.214198 -0.950225 -0.226256
vn 0.214198 -0.950225 -0.226256
vn 0.214198 -0.950225 -0.226256
vn 0.507124 -0.860555 -0.047641
vn 0.507124 -0.860555 -0.047641
vn 0.507124 -0.860555 -0.047641
s off
f 3/1/1 7/2/2 2/3/3
f 2/3/4 10/4/5 8/5/6
f 4/6/7 2/3/8 8/5/9
f 3/1/10 2/3/11 4/6/12
f 3/1/13 4/6/14 5/7/15
f 3/1/16 5/7/17 6/8/18
f 13/9/19 5/7/20 4/6/21
f 1/10/22 14/11/23 3/1/24
f 2/3/25 7/2/26 10/4/27
f 13/9/28 6/8/29 5/7/30
f 14/11/31 7/2/32 3/1/33
f 7/2/34 16/12/35 10/4/36
f 10/4/37 9/13/38 8/5/39
f 3/1/40 6/8/41 11/14/42
f 4/6/43 8/5/44 17/15/45
f 4/6/46 17/15/47 13/9/48
f 10/4/49 16/12/50 9/13/51
f 1/10/52 3/1/53 11/14/54
f 8/5/55 9/13/56 17/15/57
f 18/16/58 1/10/59 11/14/60
f 18/16/61 11/14/62 12/17/63
f 12/17/64 11/14/65 6/8/66
f 22/18/67 12/17/68 6/8/69
f 18/16/70 14/11/71 1/10/72
f 16/12/73 23/19/74 9/13/75
f 17/15/76 29/20/77 13/9/78
f 7/2/79 20/21/80 16/12/81
f 28/22/82 17/15/83 9/13/84
f 15/23/85 7/2/86 14/11/87
f 12/17/88 22/18/89 19/24/90
f 9/13/91 23/19/92 28/22/93
f 15/23/94 20/21/95 7/2/96
f 18/16/97 12/17/98 19/24/99
f 15/23/100 14/11/101 21/25/102
f 21/25/103 14/11/104 18/16/105
f 17/15/106 28/22/107 29/20/108
f 21/25/109 20/21/110 15/23/111
f 20/21/112 23/19/113 16/12/114
f 18/16/115 19/24/116 22/18/117
f 13/9/118 22/18/119 6/8/120
f 25/26/121 23/19/122 20/21/123
f 20/21/124 21/25/125 25/26/126
f 21/25/127 18/16/128 24/27/129
f 25/26/130 21/25/131 24/27/132
f 23/19/133 25/26/134 26/28/135
f 25/26/136 27/29/137 26/28/138
f 24/27/139 18/16/140 27/29/141
f 25/26/142 24/27/143 27/29/144
f 26/28/145 27/29/146 29/20/147
f 26/28/148 29/20/149 28/22/150
f 27/29/151 18/16/152 22/18/153
f 23/19/154 26/28/155 28/22/156
f 27/29/157 22/18/158 30/30/159
f 29/20/160 27/29/161 30/30/162
f 29/20/163 30/30/164 13/9/165
f 30/30/166 22/18/167 13/9/168
