# This file uses centimeters as units for non-parametric coordinates.

v 0.023900 0.828212 -0.041397
v -0.023901 0.828212 -0.041397
v -0.047802 0.828212 0.000001
v -0.023901 0.828212 0.041398
v 0.023900 0.828212 0.041398
v 0.047802 0.828212 0.000001
v 0.167185 -0.020585 -0.289572
v -0.167184 -0.020585 -0.289572
v -0.334369 -0.020585 0.000001
v -0.167184 -0.020585 0.289573
v 0.167185 -0.020585 0.289573
v 0.334368 -0.020585 0.000001
v 0.000000 0.845966 0.000001
v 0.000000 -0.220580 0.000001
v -0.104415 0.210302 0.152839
v -0.205827 0.219452 -0.022028
v -0.103924 0.210302 -0.195870
v 0.097545 0.220235 -0.196994
v 0.199831 0.226790 -0.022138
v 0.097491 0.210302 0.152908
v -0.082607 0.380501 0.123624
v -0.153982 0.381284 0.000001
v -0.082125 0.371351 -0.122901
v 0.059856 0.371351 -0.123038
v 0.130966 0.371351 0.000001
v 0.059856 0.371351 0.123038
v -0.062549 0.503060 0.096946
v -0.121821 0.503060 -0.005819
v -0.062840 0.512993 -0.109099
v 0.056090 0.503060 -0.108537
v 0.116028 0.512209 -0.005852
v 0.056132 0.503060 0.096969
v -0.049544 0.624184 0.062784
v -0.093186 0.615034 -0.013420
v -0.049321 0.615034 -0.089332
v 0.038499 0.624967 -0.089696
v 0.082240 0.615034 -0.013426
v 0.038387 0.615034 0.062576
v -0.036166 0.729192 0.062641
v -0.072332 0.729192 0.000001
v -0.036166 0.729192 -0.062640
v 0.036166 0.729192 -0.062640
v 0.072331 0.729192 0.000001
v 0.036227 0.738342 0.062745
v -0.160738 0.066761 0.267719
v 0.158094 0.066761 0.267742
v 0.317490 0.066761 -0.008383
v 0.157954 0.066761 -0.284263
v -0.160598 0.066761 -0.284243
v -0.319892 0.066761 -0.008379
v 0.067775 0.341506 0.143745
v 0.148219 0.341506 0.004728
v 0.067857 0.341506 -0.134462
v -0.092707 0.341506 -0.134233
v -0.173825 0.351440 0.004746
v -0.093162 0.350656 0.144378
v 0.065175 0.473841 0.107816
v 0.135798 0.482991 -0.013539
v 0.065027 0.473841 -0.134470
v -0.075108 0.483774 -0.135176
v -0.144649 0.473841 -0.013457
v -0.074851 0.473841 0.107764
v 0.059176 0.584346 0.070900
v 0.112632 0.584346 -0.021917
v 0.059294 0.594279 -0.115026
v -0.047941 0.584346 -0.114566
v -0.101575 0.584346 -0.021934
v -0.048245 0.593496 0.071209
v 0.036662 0.707495 0.088786
v 0.084605 0.698345 0.005486
v 0.036599 0.698345 -0.077661
v -0.059377 0.698345 -0.077617
v -0.107303 0.698345 0.005480
v -0.059348 0.698345 0.088538
v 0.114510 0.186170 0.183547
v 0.233643 0.202658 -0.020505
v 0.114510 0.196103 -0.224312
v -0.120350 0.186170 -0.223162
v -0.239045 0.195320 -0.020411
v -0.120917 0.186170 0.183467
vt 0.211398 0.301126
vt 0.211398 0.301126
vt 0.211398 0.301126
vt 0.211398 0.301126
vt 0.211398 0.301126
vt 0.211398 0.301126
vt 0.212874 0.278000
vt 0.212874 0.278000
vt 0.212874 0.278000
vt 0.212874 0.278000
vt 0.212874 0.278000
vt 0.212874 0.278000
vt 0.212874 0.278000
vt 0.212874 0.278000
vt 0.212874 0.278000
vt 0.212874 0.278000
vt 0.212874 0.278000
vt 0.212874 0.278000
vt 0.212874 0.278000
vt 0.212874 0.278000
vt 0.212874 0.278000
vt 0.212874 0.278000
vt 0.212874 0.278000
vt 0.212874 0.278000
vt 0.212874 0.278000
vt 0.212874 0.278000
vt 0.211398 0.301126
vt 0.212874 0.278000
vt 0.212874 0.277999
vt 0.212874 0.277999
vt 0.212874 0.277999
vt 0.212874 0.277999
vt 0.212874 0.277999
vt 0.212874 0.277999
vt 0.212874 0.277999
vt 0.212874 0.277999
vt 0.212874 0.277999
vt 0.212874 0.277999
vt 0.211398 0.301126
vt 0.212874 0.277999
vt 0.212874 0.277999
vt 0.212874 0.277999
vt 0.212874 0.277999
vt 0.212874 0.277999
vt 0.212874 0.277999
vt 0.211398 0.301126
vt 0.212874 0.277999
vt 0.212874 0.277999
vt 0.212874 0.277999
vt 0.212874 0.278000
vt 0.212874 0.278000
vt 0.212874 0.278000
vt 0.211398 0.301126
vt 0.212874 0.278000
vt 0.212874 0.278000
vt 0.212874 0.278000
vt 0.211398 0.301126
vt 0.212874 0.278000
vt 0.212874 0.278000
vt 0.212874 0.278000
vt 0.212874 0.278000
vt 0.212874 0.278000
vt 0.212874 0.278000
vt 0.212874 0.278000
vt 0.212874 0.278000
vt 0.212874 0.278000
vt 0.212874 0.278000
vt 0.212874 0.278000
vt 0.212874 0.278000
vt 0.212874 0.278000
vt 0.211398 0.301126
vt 0.212874 0.278000
vt 0.212874 0.278000
vt 0.212874 0.278000
vt 0.212874 0.278000
vt 0.212874 0.278000
vt 0.212874 0.278000
vt 0.211398 0.301126
vt 0.212874 0.277999
vt 0.212874 0.277999
vt 0.212874 0.277999
vt 0.212874 0.277999
vt 0.212874 0.277999
vt 0.212874 0.277999
vt 0.211398 0.301126
vt 0.212874 0.278000
vt 0.212874 0.278000
vt 0.212874 0.278000
vt 0.212874 0.278000
vt 0.212874 0.278000
vt 0.212874 0.278000
vt 0.211398 0.301126
vt 0.212874 0.278000
vt 0.212874 0.278000
vt 0.212874 0.278000
vt 0.212874 0.278000
vt 0.212874 0.278000
vt 0.212874 0.278000
vt 0.212874 0.277999
vt 0.212874 0.277999
vt 0.212874 0.277999
vt 0.212874 0.277999
vt 0.212874 0.277999
vt 0.212874 0.277999
vt 0.212874 0.277999
vt 0.211398 0.301126
vt 0.211398 0.301126
vt 0.211398 0.301126
vt 0.212874 0.278000
vt 0.211398 0.301126
vt 0.211398 0.301126
vt 0.211398 0.301126
vt 0.211398 0.301126
vt 0.211398 0.301126
vt 0.211398 0.301126
vt 0.211398 0.301126
vt 0.211398 0.301126
vt 0.211398 0.301126
vt 0.211398 0.301126
vt 0.211398 0.301126
vt 0.212874 0.278000
vt 0.211398 0.301126
vt 0.211398 0.301126
vt 0.211398 0.301126
vt 0.211398 0.301126
vt 0.211398 0.301126
vt 0.211398 0.301126
vt 0.211398 0.301126
vt 0.211398 0.301126
vt 0.211398 0.301126
vt 0.211398 0.301126
vt 0.211398 0.301126
vt 0.212874 0.277999
vt 0.211398 0.301126
vt 0.211398 0.301126
vt 0.211398 0.301126
vt 0.211398 0.301126
vt 0.211398 0.301126
vt 0.211398 0.301126
vt 0.211398 0.301126
vt 0.211398 0.301126
vt 0.211398 0.301126
vt 0.211398 0.301126
vt 0.211398 0.301126
vt 0.212874 0.278000
vt 0.211398 0.301126
vt 0.211398 0.301126
vt 0.211398 0.301126
vt 0.211398 0.301126
vt 0.211398 0.301126
vt 0.211398 0.301126
vt 0.211398 0.301126
vt 0.211398 0.301126
vt 0.211398 0.301126
vt 0.211398 0.301126
vt 0.211398 0.301126
vt 0.212874 0.278000
vt 0.211398 0.301126
vt 0.211398 0.301126
vt 0.211398 0.301126
vt 0.211398 0.301126
vt 0.211398 0.301126
vt 0.211398 0.301126
vt 0.211398 0.301126
vt 0.211398 0.301126
vt 0.211398 0.301126
vt 0.211398 0.301126
vt 0.211398 0.301126
vt 0.211398 0.301126
vt 0.211398 0.301126
vt 0.211398 0.301126
vt 0.211398 0.301126
vt 0.212874 0.278000
vt 0.211398 0.301126
vt 0.211398 0.301126
vt 0.211398 0.301126
vt 0.211398 0.301126
vt 0.211398 0.301126
vt 0.211398 0.301126
vt 0.211398 0.301126
vt 0.211398 0.301126
vt 0.211398 0.301126
vt 0.211398 0.301126
vt 0.211398 0.301126
vt 0.212874 0.277999
vt 0.211398 0.301126
vt 0.211398 0.301126
vt 0.211398 0.301126
vt 0.211398 0.301126
vt 0.211398 0.301126
vt 0.211398 0.301126
vt 0.211398 0.301126
vt 0.211398 0.301126
vt 0.211398 0.301126
vt 0.211398 0.301126
vt 0.211398 0.301126
vt 0.212874 0.277999
vt 0.211398 0.301126
vt 0.211398 0.301126
vt 0.211398 0.301126
vt 0.211398 0.301126
vt 0.211398 0.301126
vt 0.211398 0.301126
vt 0.211398 0.301126
vt 0.211398 0.301126
vt 0.211398 0.301126
vt 0.211398 0.301126
vt 0.211398 0.301126
vt 0.211398 0.301126
vt 0.211398 0.301126
vt 0.211398 0.301126
vt 0.211398 0.301126
vt 0.211890 0.305063
vt 0.211890 0.305063
vt 0.211890 0.305063
vt 0.211890 0.305063
vt 0.211890 0.305063
vt 0.211890 0.305063
vt 0.211890 0.305063
vt 0.211890 0.305063
vt 0.211890 0.305063
vt 0.211890 0.305063
vt 0.211890 0.305063
vt 0.211890 0.305063
vn 0.000000 0.209759 -0.977753
vn 0.000000 0.209759 -0.977753
vn 0.000000 0.209759 -0.977753
vn 0.000000 0.209759 -0.977753
vn -0.846758 0.209765 -0.488877
vn -0.846757 0.209765 -0.488877
vn -0.846758 0.209765 -0.488877
vn -0.846757 0.209765 -0.488877
vn -0.846750 0.209765 0.488890
vn -0.846750 0.209765 0.488890
vn -0.846750 0.209765 0.488890
vn -0.846750 0.209765 0.488890
vn -0.017593 0.219918 0.975360
vn -0.017593 0.219918 0.975360
vn -0.017593 0.219918 0.975360
vn -0.017593 0.219918 0.975360
vn 0.853475 0.219926 0.472454
vn 0.853475 0.219926 0.472454
vn 0.853475 0.219926 0.472454
vn 0.853475 0.219926 0.472454
vn 0.846758 0.209765 -0.488876
vn 0.846758 0.209765 -0.488876
vn 0.846758 0.209765 -0.488876
vn 0.846758 0.209765 -0.488876
vn 0.000000 0.919049 -0.394143
vn 0.000000 0.919049 -0.394143
vn 0.000000 0.919049 -0.394143
vn -0.341338 0.919048 -0.197077
vn -0.341338 0.919048 -0.197077
vn -0.341338 0.919048 -0.197077
vn -0.341337 0.919046 0.197086
vn -0.341337 0.919046 0.197086
vn -0.341337 0.919046 0.197086
vn 0.000000 0.919042 0.394159
vn 0.000000 0.919042 0.394159
vn 0.000000 0.919042 0.394159
vn 0.341344 0.919043 0.197090
vn 0.341344 0.919043 0.197090
vn 0.341344 0.919043 0.197090
vn 0.341345 0.919045 -0.197081
vn 0.341345 0.919045 -0.197081
vn 0.341345 0.919044 -0.197081
vn 0.000000 -0.822829 -0.568289
vn 0.000000 -0.822829 -0.568289
vn 0.000000 -0.822829 -0.568289
vn -0.492155 -0.822828 -0.284144
vn -0.492154 -0.822828 -0.284144
vn -0.492154 -0.822828 -0.284144
vn -0.492154 -0.822828 0.284146
vn -0.492154 -0.822828 0.284146
vn -0.492154 -0.822828 0.284146
vn 0.000000 -0.822827 0.568292
vn 0.000000 -0.822827 0.568292
vn 0.000000 -0.822827 0.568292
vn 0.492155 -0.822827 0.284145
vn 0.492155 -0.822827 0.284145
vn 0.492155 -0.822827 0.284145
vn 0.492156 -0.822828 -0.284143
vn 0.492156 -0.822828 -0.284143
vn 0.492156 -0.822828 -0.284143
vn -0.529374 0.775377 0.344316
vn -0.711367 0.560022 0.424655
vn -0.715246 0.553842 0.426242
vn -0.529374 0.775377 0.344316
vn -0.548931 0.755205 -0.358246
vn -0.743644 0.499520 -0.444380
vn -0.744270 0.498364 -0.444631
vn -0.548931 0.755205 -0.358246
vn -0.037534 0.748590 -0.661970
vn -0.013091 0.477408 -0.878584
vn -0.012894 0.475066 -0.879856
vn -0.037534 0.748590 -0.661970
vn 0.548052 0.761153 -0.346821
vn 0.751243 0.487436 -0.445017
vn 0.749820 0.490204 -0.444376
vn 0.548052 0.761153 -0.346821
vn 0.508654 0.779777 0.364993
vn 0.708039 0.556885 0.434235
vn 0.703190 0.564099 0.432801
vn 0.508654 0.779777 0.364993
vn -0.000211 0.785538 0.618813
vn -0.000159 0.603761 0.797166
vn -0.000159 0.603212 0.797581
vn -0.000211 0.785538 0.618813
vn -0.722968 0.547949 0.420797
vn -0.722968 0.547949 0.420797
vn -0.722968 0.547949 0.420797
vn -0.722968 0.547949 0.420796
vn -0.760335 0.440275 -0.477544
vn -0.760335 0.440275 -0.477544
vn -0.760335 0.440275 -0.477544
vn -0.760335 0.440275 -0.477544
vn -0.001131 0.356285 -0.934377
vn -0.001131 0.356285 -0.934377
vn -0.001131 0.356285 -0.934377
vn -0.001131 0.356285 -0.934377
vn 0.797651 0.389184 -0.460748
vn 0.797651 0.389184 -0.460748
vn 0.797651 0.389184 -0.460748
vn 0.797651 0.389184 -0.460748
vn 0.749340 0.500683 0.433366
vn 0.749340 0.500683 0.433366
vn 0.749340 0.500683 0.433366
vn 0.749340 0.500683 0.433366
vn 0.037618 0.568974 0.821495
vn 0.037618 0.568974 0.821495
vn 0.037618 0.568974 0.821495
vn 0.037618 0.568974 0.821495
vn -0.759817 0.480599 0.437838
vn -0.759817 0.480599 0.437838
vn -0.759817 0.480599 0.437838
vn -0.759817 0.480599 0.437838
vn -0.702487 0.621724 -0.346369
vn -0.702487 0.621724 -0.346369
vn -0.702487 0.621724 -0.346369
vn -0.702487 0.621724 -0.346369
vn 0.054435 0.662119 -0.747419
vn 0.054435 0.662119 -0.747419
vn 0.054435 0.662119 -0.747419
vn 0.054435 0.662119 -0.747419
vn 0.676668 0.587641 -0.443620
vn 0.676668 0.587641 -0.443620
vn 0.676668 0.587641 -0.443620
vn 0.676668 0.587641 -0.443620
vn 0.774168 0.407894 0.484031
vn 0.774168 0.407894 0.484031
vn 0.774168 0.407894 0.484031
vn 0.774168 0.407894 0.484031
vn -0.000270 0.347640 0.937628
vn -0.000270 0.347640 0.937628
vn -0.000270 0.347640 0.937628
vn -0.000270 0.347640 0.937628
vn -0.868085 0.099568 0.486329
vn -0.868085 0.099568 0.486329
vn -0.868085 0.099568 0.486329
vn -0.868085 0.099568 0.486329
vn -0.810709 0.350445 -0.468977
vn -0.810709 0.350445 -0.468977
vn -0.810709 0.350445 -0.468977
vn -0.810709 0.350445 -0.468977
vn -0.066454 0.620032 -0.781757
vn -0.066454 0.620032 -0.781757
vn -0.066454 0.620032 -0.781757
vn -0.066454 0.620032 -0.781757
vn 0.650148 0.702176 -0.290270
vn 0.650148 0.702176 -0.290271
vn 0.650148 0.702176 -0.290271
vn 0.650147 0.702176 -0.290270
vn 0.702727 0.584898 0.405056
vn 0.702727 0.584898 0.405056
vn 0.702727 0.584898 0.405056
vn 0.702727 0.584898 0.405056
vn 0.028075 0.272537 0.961736
vn 0.028075 0.272537 0.961736
vn 0.028075 0.272537 0.961736
vn 0.028075 0.272537 0.961735
vn -0.591139 0.730798 0.341305
vn -0.591139 0.730798 0.341305
vn -0.591139 0.730798 0.341305
vn -0.591139 0.730798 0.341305
vn -0.645797 0.666406 -0.372624
vn -0.645797 0.666406 -0.372625
vn -0.645797 0.666406 -0.372624
vn -0.645797 0.666406 -0.372624
vn -0.000234 0.437350 -0.899291
vn -0.000234 0.437350 -0.899291
vn -0.000234 0.437350 -0.899291
vn -0.000234 0.437350 -0.899291
vn 0.839039 0.247687 -0.484422
vn 0.839039 0.247687 -0.484422
vn 0.839039 0.247687 -0.484422
vn 0.839039 0.247687 -0.484422
vn 0.819848 0.385313 0.423536
vn 0.819848 0.385313 0.423536
vn 0.819848 0.385313 0.423536
vn 0.819848 0.385313 0.423536
vn -0.073066 0.657934 0.749523
vn -0.073066 0.657934 0.749523
vn -0.073066 0.657934 0.749523
vn -0.073066 0.657934 0.749523
vn -0.000034 0.242591 0.970129
vn -0.000034 0.242591 0.970129
vn -0.000034 0.242591 0.970129
vn -0.000034 0.242591 0.970129
vn 0.846656 0.210403 0.488779
vn 0.846656 0.210403 0.488779
vn 0.846656 0.210403 0.488779
vn 0.846656 0.210403 0.488779
vn 0.859628 0.119736 -0.496692
vn 0.859628 0.119736 -0.496692
vn 0.859628 0.119736 -0.496692
vn 0.859628 0.119736 -0.496692
vn -0.000032 0.060787 -0.998151
vn -0.000032 0.060787 -0.998151
vn -0.000032 0.060787 -0.998151
vn -0.000032 0.060787 -0.998151
vn -0.862073 0.095250 -0.497753
vn -0.862073 0.095250 -0.497753
vn -0.862073 0.095250 -0.497753
vn -0.862073 0.095250 -0.497753
vn -0.850933 0.186875 0.490908
vn -0.850933 0.186875 0.490908
vn -0.850933 0.186875 0.490908
vn -0.850933 0.186875 0.490908
vn 0.833532 0.239822 0.497704
vn 0.833532 0.239822 0.497705
vn 0.833532 0.239822 0.497705
vn 0.833532 0.239822 0.497705
vn 0.772354 0.439728 -0.458376
vn 0.772354 0.439728 -0.458376
vn 0.772354 0.439728 -0.458376
vn 0.772354 0.439728 -0.458376
vn -0.015436 0.440360 -0.897689
vn -0.015436 0.440360 -0.897689
vn -0.015436 0.440360 -0.897689
vn -0.015436 0.440360 -0.897689
vn -0.815212 0.300232 -0.495267
vn -0.815212 0.300232 -0.495267
vn -0.815212 0.300232 -0.495267
vn -0.815212 0.300232 -0.495267
vn -0.859433 0.102823 0.500802
vn -0.859433 0.102823 0.500802
vn -0.859433 0.102823 0.500802
vn -0.859433 0.102823 0.500802
vn 0.003191 0.064975 0.997882
vn 0.003191 0.064975 0.997882
vn 0.003191 0.064975 0.997882
vn 0.003191 0.064975 0.997882
vn 0.864319 0.026484 0.502246
vn 0.864319 0.026484 0.502246
vn 0.864319 0.026484 0.502246
vn 0.864319 0.026484 0.502246
vn 0.861860 -0.098288 -0.497531
vn 0.861860 -0.098288 -0.497531
vn 0.861860 -0.098288 -0.497531
vn 0.861860 -0.098288 -0.497531
vn -0.001855 -0.109546 -0.993980
vn -0.001855 -0.109546 -0.993980
vn -0.001855 -0.109546 -0.993980
vn -0.001855 -0.109546 -0.993980
vn -0.865753 0.006231 -0.500432
vn -0.865753 0.006231 -0.500432
vn -0.865753 0.006231 -0.500432
vn -0.865753 0.006231 -0.500432
vn -0.855420 0.156506 0.493723
vn -0.855420 0.156506 0.493723
vn -0.855420 0.156506 0.493723
vn -0.855420 0.156506 0.493723
vn 0.006930 0.156299 0.987685
vn 0.006930 0.156299 0.987686
vn 0.006930 0.156299 0.987685
vn 0.006930 0.156299 0.987685
vn 0.853934 0.139628 0.501299
vn 0.853934 0.139628 0.501299
vn 0.853934 0.139628 0.501299
vn 0.853934 0.139628 0.501299
vn 0.863456 -0.067997 -0.499821
vn 0.863455 -0.067997 -0.499821
vn 0.863455 -0.067997 -0.499821
vn 0.863456 -0.067997 -0.499821
vn 0.000454 -0.073390 -0.997303
vn 0.000454 -0.073390 -0.997303
vn 0.000454 -0.073390 -0.997303
vn 0.000454 -0.073390 -0.997303
vn -0.862504 0.129420 -0.489222
vn -0.862504 0.129420 -0.489222
vn -0.862504 0.129420 -0.489222
vn -0.862504 0.129420 -0.489222
vn -0.837309 0.282540 0.468065
vn -0.837309 0.282540 0.468065
vn -0.837309 0.282540 0.468065
vn -0.837309 0.282540 0.468065
vn 0.012851 0.287614 0.957660
vn 0.012851 0.287614 0.957660
vn 0.012851 0.287614 0.957660
vn 0.012851 0.287614 0.957660
vn 0.855617 -0.131620 0.500595
vn 0.855617 -0.131620 0.500595
vn 0.855617 -0.131620 0.500595
vn 0.855617 -0.131620 0.500595
vn 0.865362 0.094632 -0.492132
vn 0.865362 0.094632 -0.492132
vn 0.865362 0.094632 -0.492132
vn 0.865362 0.094632 -0.492132
vn -0.010253 0.149090 -0.988770
vn -0.010253 0.149090 -0.988771
vn -0.010253 0.149090 -0.988770
vn -0.010253 0.149090 -0.988771
vn -0.865562 -0.033762 -0.499662
vn -0.865562 -0.033762 -0.499662
vn -0.865562 -0.033762 -0.499662
vn -0.865562 -0.033762 -0.499662
vn -0.829076 -0.265483 0.492088
vn -0.829076 -0.265483 0.492088
vn -0.829076 -0.265483 0.492088
vn -0.829076 -0.265483 0.492088
vn -0.000208 -0.297731 0.954650
vn -0.000208 -0.297731 0.954650
vn -0.000208 -0.297731 0.954650
vn -0.000208 -0.297731 0.954650
vn 0.708039 0.556885 0.434235
vn 0.726403 0.528376 0.439498
vn 0.726403 0.528376 0.439498
vn 0.703190 0.564099 0.432801
vn 0.749820 0.490204 -0.444376
vn 0.751243 0.487436 -0.445017
vn 0.769142 0.450806 -0.452983
vn 0.769142 0.450806 -0.452983
vn -0.012894 0.475066 -0.879856
vn -0.013091 0.477408 -0.878584
vn -0.009754 0.437397 -0.899216
vn -0.009754 0.437397 -0.899216
vn -0.744270 0.498364 -0.444631
vn -0.743644 0.499520 -0.444380
vn -0.763025 0.462036 -0.452012
vn -0.763025 0.462036 -0.452012
vn -0.715246 0.553842 0.426242
vn -0.711367 0.560022 0.424655
vn -0.732700 0.524800 0.433284
vn -0.732700 0.524800 0.433284
vn -0.000159 0.603212 0.797581
vn -0.000159 0.603761 0.797166
vn -0.000152 0.576386 0.817177
vn -0.000152 0.576386 0.817177
s off
f 1/7/1 42/61/2 41/59/3 2/8/4
f 2/8/5 41/59/6 40/58/7 3/9/8
f 3/9/9 40/58/10 39/157/11 4/10/12
f 4/10/13 39/157/14 44/63/15 5/11/16
f 5/11/17 44/63/18 43/62/19 6/12/20
f 6/12/21 43/62/22 42/60/23 1/13/24
f 2/211/25 13/205/26 1/1/27
f 3/210/28 13/204/29 2/2/30
f 4/209/31 13/203/32 3/3/33
f 5/208/34 13/202/35 4/4/36
f 6/207/37 13/27/38 5/5/39
f 1/212/40 13/206/41 6/6/42
f 7/25/43 14/28/44 8/24/45
f 8/24/46 14/28/47 9/23/48
f 9/23/49 14/28/50 10/22/51
f 10/22/52 14/28/53 11/21/54
f 11/21/55 14/28/56 12/26/57
f 12/26/58 14/28/59 7/25/60
f 16/213/61 79/214/62 80/215/63 15/216/64
f 17/217/65 78/218/66 79/214/67 16/213/68
f 18/219/69 77/220/70 78/218/71 17/217/72
f 19/221/73 76/222/74 77/220/75 18/219/76
f 20/223/77 75/224/78 76/222/79 19/221/80
f 15/216/81 80/215/82 75/224/83 20/223/84
f 22/200/85 55/147/86 56/142/87 21/193/88
f 23/198/89 54/149/90 55/146/91 22/201/92
f 24/196/93 53/151/94 54/148/95 23/199/96
f 25/194/97 52/153/98 53/150/99 24/39/100
f 26/190/101 51/144/102 52/152/103 25/195/104
f 21/192/105 56/143/106 51/71/107 26/191/108
f 28/188/109 61/135/110 62/130/111 27/181/112
f 29/186/113 60/137/114 61/134/115 28/189/116
f 30/184/117 59/139/118 60/136/119 29/187/120
f 31/182/121 58/141/122 59/138/123 30/46/124
f 32/178/125 57/132/126 58/140/127 31/183/128
f 27/180/129 62/131/130 57/78/131 32/179/132
f 34/176/133 67/123/134 68/118/135 33/169/136
f 35/174/137 66/125/138 67/122/139 34/177/140
f 36/172/141 65/127/142 66/124/143 35/175/144
f 37/170/145 64/129/146 65/126/147 36/53/148
f 38/166/149 63/120/150 64/128/151 37/171/152
f 33/168/153 68/119/154 63/85/155 38/167/156
f 40/164/157 73/111/158 74/106/159 39/156/160
f 41/162/161 72/113/162 73/110/163 40/165/164
f 42/160/165 71/115/166 72/112/167 41/163/168
f 43/158/169 70/117/170 71/114/171 42/161/172
f 44/154/173 69/108/174 70/116/175 43/159/176
f 39/57/177 74/107/178 69/92/179 44/155/180
f 45/64/181 10/17/182 11/18/183 46/65/184
f 47/66/185 46/65/186 11/18/187 12/19/188
f 48/68/189 47/66/190 12/19/191 7/20/192
f 49/69/193 48/67/194 7/14/195 8/15/196
f 50/70/197 49/69/198 8/15/199 9/16/200
f 45/64/201 50/70/202 9/16/203 10/17/204
f 51/145/205 20/35/206 19/34/207 52/72/208
f 53/74/209 52/72/210 19/34/211 18/32/212
f 54/75/213 53/73/214 18/33/215 17/31/216
f 55/76/217 54/75/218 17/31/219 16/30/220
f 56/77/221 55/76/222 16/30/223 15/29/224
f 51/145/225 56/77/226 15/29/227 20/35/228
f 57/133/229 26/42/230 25/41/231 58/79/232
f 59/81/233 58/79/234 25/41/235 24/197/236
f 60/82/237 59/80/238 24/40/239 23/38/240
f 61/83/241 60/82/242 23/38/243 22/37/244
f 62/84/245 61/83/246 22/37/247 21/36/248
f 57/133/249 62/84/250 21/36/251 26/42/252
f 63/121/253 32/49/254 31/48/255 64/86/256
f 65/88/257 64/86/258 31/48/259 30/185/260
f 66/89/261 65/87/262 30/47/263 29/45/264
f 67/90/265 66/89/266 29/45/267 28/44/268
f 68/91/269 67/90/270 28/44/271 27/43/272
f 63/121/273 68/91/274 27/43/275 32/49/276
f 69/109/277 38/56/278 37/55/279 70/93/280
f 71/95/281 70/93/282 37/55/283 36/173/284
f 72/96/285 71/94/286 36/54/287 35/52/288
f 73/97/289 72/96/290 35/52/291 34/51/292
f 74/98/293 73/97/294 34/51/295 33/50/296
f 69/109/297 74/98/298 33/50/299 38/56/300
f 75/99/301 46/65/302 47/66/303 76/100/304
f 77/102/305 76/100/306 47/66/307 48/68/308
f 78/103/309 77/101/310 48/67/311 49/69/312
f 79/104/313 78/103/314 49/69/315 50/70/316
f 80/105/317 79/104/318 50/70/319 45/64/320
f 75/99/321 80/105/322 45/64/323 46/65/324
