# This file uses centimeters as units for non-parametric coordinates.

v -0.302093 -0.065036 0.201821
v 0.302090 -0.065036 0.201821
v -0.302093 -0.065036 -0.201823
v 0.302090 -0.065036 -0.201823
v 0.000000 0.065037 -0.182547
v 0.000000 -0.065036 -0.201823
v 0.000000 -0.065036 0.201821
v 0.000000 0.065037 0.175660
v -0.095580 0.065037 0.201821
v -0.130935 0.065037 -0.201823
v -0.302093 0.032518 0.201821
v 0.302090 0.032518 0.201821
v -0.276397 0.065037 0.100910
v -0.276397 0.065037 -0.100912
v 0.302090 0.065037 0.100910
v 0.275093 0.065037 0.000861
v -0.302093 0.032518 -0.201823
v 0.302090 0.032518 -0.201823
v 0.226566 0.065037 -0.201823
v 0.226566 0.065037 0.201821
v -0.302093 0.012496 0.201821
v 0.302090 0.011979 0.201821
v 0.000000 0.012237 -0.201823
v 0.000000 0.012237 0.201820
v -0.302088 0.012496 -0.201823
v 0.302090 0.011979 -0.201823
vt 0.211923 0.303946
vt 0.211923 0.303946
vt 0.211923 0.303946
vt 0.211923 0.303946
vt 0.211923 0.303946
vt 0.211923 0.303946
vt 0.211923 0.303946
vt 0.211923 0.303946
vt 0.211923 0.303946
vt 0.211923 0.303946
vt 0.211923 0.303946
vt 0.211923 0.303946
vt 0.211923 0.303946
vt 0.211923 0.303946
vt 0.211923 0.303946
vt 0.211923 0.303946
vt 0.211923 0.303946
vt 0.211923 0.303946
vt 0.211923 0.303946
vt 0.211923 0.303946
vt 0.211923 0.303946
vt 0.211923 0.303946
vt 0.211923 0.303946
vt 0.211923 0.303946
vt 0.211923 0.303946
vt 0.211923 0.303946
vt 0.211923 0.303946
vt 0.211923 0.303946
vt 0.211923 0.303946
vt 0.211923 0.303946
vt 0.211923 0.303946
vt 0.211923 0.303946
vt 0.211923 0.303946
vt 0.211923 0.303946
vt 0.211923 0.303946
vt 0.211923 0.303946
vt 0.211923 0.303946
vt 0.211923 0.303946
vn 0.000000 -1.000000 0.000000
vn 0.000000 -1.000000 0.000000
vn 0.000000 -1.000000 0.000000
vn 0.000000 -1.000000 0.000000
vn -0.149836 0.951560 0.268483
vn -0.149836 0.951560 0.268483
vn -0.149836 0.951560 0.268483
vn 0.000000 -1.000000 0.000000
vn 0.000000 -1.000000 0.000000
vn 0.000000 -1.000000 0.000000
vn 0.000000 -1.000000 0.000000
vn 0.379210 0.880712 0.283807
vn 0.379210 0.880712 0.283806
vn 0.379210 0.880712 0.283806
vn 0.000002 0.000006 1.000000
vn 0.000002 0.000006 1.000000
vn 0.000002 0.000006 1.000000
vn 0.000002 0.000006 1.000000
vn -0.180241 0.948688 -0.259815
vn -0.180241 0.948688 -0.259815
vn -0.180241 0.948688 -0.259815
vn -0.045826 0.196626 0.979407
vn -0.045826 0.196626 0.979407
vn -0.045826 0.196626 0.979407
vn -0.045826 0.196626 0.979407
vn -0.045826 0.196626 0.979407
vn 0.393710 0.914389 -0.094262
vn 0.393710 0.914389 -0.094262
vn 0.393710 0.914389 -0.094262
vn 0.000000 1.000000 -0.000000
vn 0.000000 1.000000 -0.000000
vn 0.000000 1.000000 -0.000000
vn 0.000000 1.000000 -0.000000
vn 0.000000 1.000000 -0.000000
vn 0.000000 1.000000 -0.000000
vn 0.038557 0.095615 -0.994671
vn 0.038557 0.095615 -0.994672
vn 0.038557 0.095615 -0.994671
vn 0.038557 0.095615 -0.994671
vn 0.038557 0.095615 -0.994671
vn -1.000000 0.000031 -0.000006
vn -1.000000 0.000031 -0.000006
vn -1.000000 0.000031 -0.000006
vn -1.000000 0.000031 -0.000006
vn 0.000000 1.000000 0.000000
vn 0.000000 1.000000 0.000000
vn 0.000000 1.000000 0.000000
vn 0.000000 1.000000 0.000000
vn 0.000000 1.000000 0.000000
vn 0.000000 1.000000 0.000000
vn 1.000000 0.000000 0.000000
vn 1.000000 0.000000 0.000000
vn 1.000000 0.000000 0.000000
vn 1.000000 0.000000 0.000000
vn -0.034084 0.146258 -0.988659
vn -0.034084 0.146258 -0.988659
vn -0.034084 0.146258 -0.988659
vn -0.034084 0.146258 -0.988659
vn -0.034084 0.146258 -0.988659
vn 0.054665 0.098943 0.993591
vn 0.054665 0.098943 0.993590
vn 0.054665 0.098943 0.993591
vn 0.054665 0.098943 0.993591
vn 0.054665 0.098943 0.993591
vn -0.000002 0.000006 1.000000
vn -0.000002 0.000006 1.000000
vn -0.000002 0.000006 1.000000
vn -0.000002 0.000006 1.000000
vn 0.000000 0.000000 -1.000000
vn 0.000000 0.000000 -1.000000
vn 0.000000 0.000000 -1.000000
vn 0.000000 0.000000 -1.000000
vn -0.917371 0.398033 -0.000002
vn -0.917371 0.398033 -0.000002
vn -0.917371 0.398033 -0.000002
vn -0.917371 0.398033 -0.000002
vn -0.917371 0.398033 -0.000002
vn -0.917371 0.398033 -0.000002
vn 0.970284 0.240587 -0.025843
vn 0.970284 0.240587 -0.025843
vn 0.970284 0.240587 -0.025843
vn 0.970284 0.240587 -0.025843
vn 0.970284 0.240587 -0.025843
vn 0.970284 0.240587 -0.025843
vn 0.000000 0.000000 -1.000000
vn 0.000000 0.000000 -1.000000
vn 0.000000 0.000000 -1.000000
vn 0.000000 0.000000 -1.000000
s off
f 3/1/1 6/2/2 7/3/3 1/4/4
f 13/36/5 11/37/6 9/38/7
f 7/3/8 6/2/9 4/8/10 2/9/11
f 20/10/12 12/35/13 15/33/14
f 1/4/15 7/3/16 24/13/17 21/14/18
f 17/30/19 14/16/20 10/32/21
f 8/18/22 24/13/23 22/19/24 12/11/25 20/34/26
f 19/20/27 16/29/28 18/27/29
f 13/5/30 9/7/31 8/18/32 5/23/33 10/17/34 14/31/35
f 17/15/36 10/17/37 5/23/38 23/24/39 25/25/40
f 3/1/41 1/4/42 21/14/43 25/25/44
f 5/23/45 8/18/46 20/34/47 15/12/48 16/21/49 19/28/50
f 2/9/51 4/8/52 26/26/53 22/19/54
f 5/23/55 19/28/56 18/22/57 26/26/58 23/24/59
f 21/14/60 24/13/61 8/18/62 9/7/63 11/6/64
f 22/19/65 24/13/66 7/3/67 2/9/68
f 25/25/69 23/24/70 6/2/71 3/1/72
f 25/25/73 21/14/74 11/6/75 13/5/76 14/31/77 17/15/78
f 22/19/79 26/26/80 18/22/81 16/21/82 15/12/83 12/11/84
f 23/24/85 26/26/86 4/8/87 6/2/88
