# This file uses centimeters as units for non-parametric coordinates.

v 5.000000 -0.000000 5.000000
v 0.000000 0.000000 5.000000
v 5.000000 -0.000000 0.000000
v 0.000000 0.000000 0.000000
v 4.753536 -0.000000 4.753536
v 0.246464 -0.000000 4.753536
v 0.246464 -0.000000 0.246464
v 4.753536 -0.000000 0.246464
v 4.656331 -0.149819 4.656330
v 0.351572 -0.149819 4.404738
v 0.343669 -0.149819 0.343670
v 4.644311 -0.149819 0.631678
v 4.042858 -0.149819 4.042857
v 0.957142 -0.149819 4.042857
v 1.021343 -0.030691 1.021343
v 4.042858 -0.149819 0.957143
v 3.954661 0.000000 3.954660
v 1.045339 0.000000 3.954660
v 1.045339 0.000000 1.045340
v 3.954661 0.000000 1.045340
v 5.000000 -0.000000 3.381516
v 4.688956 -0.000000 3.264272
v 4.591751 -0.149819 3.229997
v 3.905020 -0.149819 3.098266
v 3.816824 0.000000 3.067166
v 1.093720 0.000000 3.014772
v 1.048523 -0.040323 3.024451
v 0.389166 -0.149819 3.207986
v 0.246464 -0.000000 3.294610
v 0.000000 0.000000 3.381516
v 0.000000 0.000000 1.452817
v 0.246464 -0.000000 1.556054
v 0.343669 -0.149819 1.596771
v 0.814378 -0.149819 1.949403
v 0.993303 0.000000 1.904703
v 3.954661 0.000000 1.890683
v 4.096090 -0.149819 1.831442
v 4.603100 -0.149819 1.619069
v 4.753536 -0.000000 1.556054
v 5.000000 -0.000000 1.452817
v 2.386375 -0.000000 0.000000
v 2.397577 -0.000000 0.246464
v 2.403318 -0.149819 0.372786
v 2.428554 -0.149819 0.928027
v 2.433886 0.000000 1.045340
v 2.433886 0.000000 3.954660
v 2.394143 -0.149819 4.088553
v 2.571154 -0.149819 4.547915
v 2.533064 -0.000000 4.707378
v 2.386375 -0.000000 5.000000
v 0.286326 -0.061438 4.713674
v 0.550150 -0.149819 4.646280
v 0.957142 -0.149819 3.519064
v 0.783582 -0.149819 3.094125
v 0.880709 -0.149819 2.457984
v 4.341312 -0.149819 0.347741
v 4.724276 -0.045098 0.275724
v 0.927448 -0.149819 1.163530
v 1.103699 -0.149819 0.954243
v 0.836329 -0.149819 0.836329
v 2.436352 -0.149819 1.928159
v 2.436352 -0.149819 2.981374
v 1.178615 -0.149819 2.983111
v 1.084374 -0.149819 1.941318
v 2.436352 -0.149819 3.865190
v 1.260455 -0.149819 3.737944
v 2.436352 -0.149819 1.134810
v 1.260455 -0.149819 1.262056
v 3.863590 -0.149819 1.928159
v 3.736344 -0.149819 1.262056
v 3.734231 -0.149819 3.032282
v 3.736344 -0.149819 3.737944
vt 0.199329 0.278745
vt 0.199329 0.278745
vt 0.199329 0.278745
vt 0.199329 0.278745
vt 0.199329 0.278745
vt 0.199329 0.278745
vt 0.199329 0.278745
vt 0.199329 0.278745
vt 0.199329 0.278745
vt 0.199329 0.278745
vt 0.199329 0.278745
vt 0.199329 0.278745
vt 0.199329 0.278745
vt 0.199329 0.278745
vt 0.199329 0.278745
vt 0.199329 0.278745
vt 0.199329 0.278745
vt 0.199329 0.278745
vt 0.199329 0.278745
vt 0.199329 0.278745
vt 0.199329 0.278745
vt 0.199329 0.278745
vt 0.199329 0.278745
vt 0.199329 0.278745
vt 0.199329 0.278745
vt 0.199329 0.278745
vt 0.199329 0.278745
vt 0.199329 0.278745
vt 0.199329 0.278745
vt 0.199329 0.278745
vt 0.199329 0.278745
vt 0.199329 0.278745
vt 0.199329 0.278745
vt 0.199329 0.278745
vt 0.199329 0.278745
vt 0.199329 0.278745
vt 0.199329 0.278745
vt 0.199329 0.278745
vt 0.199329 0.278745
vt 0.199329 0.278745
vt 0.199329 0.278745
vt 0.199329 0.278745
vt 0.199329 0.278745
vt 0.199329 0.278745
vt 0.199329 0.278745
vt 0.222199 0.295108
vt 0.222199 0.295108
vt 0.199329 0.278745
vt 0.199329 0.278745
vt 0.199329 0.278745
vt 0.199329 0.278745
vt 0.199329 0.278745
vt 0.199329 0.278745
vt 0.199329 0.278745
vt 0.199329 0.278745
vt 0.199329 0.278745
vt 0.199329 0.278745
vt 0.199329 0.278745
vt 0.199329 0.278745
vt 0.199329 0.278745
vt 0.199329 0.278745
vt 0.199329 0.278745
vt 0.200754 0.303684
vt 0.200754 0.303684
vt 0.200754 0.303684
vt 0.200754 0.303684
vt 0.200754 0.303684
vt 0.200754 0.303684
vt 0.200754 0.303684
vt 0.200754 0.303684
vt 0.200754 0.303684
vt 0.200754 0.303684
vt 0.200754 0.303684
vt 0.200754 0.303684
vt 0.200754 0.303684
vt 0.200754 0.303684
vt 0.200754 0.303684
vt 0.200754 0.303684
vt 0.200754 0.303684
vt 0.200754 0.303684
vt 0.200754 0.303684
vt 0.200754 0.303684
vt 0.200754 0.303684
vt 0.200754 0.303684
vt 0.200754 0.303684
vt 0.200754 0.303684
vt 0.200754 0.303684
vt 0.200754 0.303684
vt 0.199329 0.278745
vt 0.199329 0.278745
vt 0.199329 0.278745
vt 0.199329 0.278745
vt 0.199329 0.278745
vt 0.199329 0.278745
vt 0.199329 0.278745
vt 0.199329 0.278745
vt 0.199329 0.278745
vt 0.199329 0.278745
vt 0.222199 0.295108
vt 0.222199 0.295108
vt 0.222199 0.295108
vt 0.222199 0.295108
vt 0.222199 0.295108
vt 0.222199 0.295108
vt 0.222199 0.295108
vt 0.222199 0.295108
vt 0.222199 0.295108
vt 0.222199 0.295108
vn 0.000000 -1.000000 -0.000000
vn 0.000000 -1.000000 -0.000000
vn 0.000000 -1.000000 0.000000
vn 0.000000 -1.000000 0.000000
vn -0.000000 -1.000000 0.000000
vn -0.000000 -1.000000 0.000000
vn -0.000000 -1.000000 -0.000000
vn -0.000000 -1.000000 -0.000000
vn -0.000000 -1.000000 -0.000000
vn -0.000000 -1.000000 0.000000
vn -0.000000 -1.000000 -0.000000
vn -0.000000 -1.000000 -0.000000
vn -0.000000 -1.000000 -0.000000
vn -0.000000 -1.000000 -0.000000
vn -0.000000 -1.000000 -0.000000
vn -0.000000 -1.000000 -0.000000
vn -0.000000 -1.000000 0.000000
vn -0.000000 -1.000000 0.000000
vn -0.000000 -1.000000 -0.000000
vn -0.000000 -1.000000 0.000000
vn 0.015031 -0.663230 0.748265
vn 0.014708 -0.663733 0.747825
vn -0.260622 -0.941364 0.214265
vn -0.780188 -0.625536 0.003340
vn -0.780472 -0.625187 -0.002243
vn -0.809588 -0.586973 0.005444
vn -0.801167 -0.598401 0.006935
vn 0.005549 -0.596708 -0.802439
vn 0.000361 -0.598175 -0.801365
vn 0.000167 -0.598230 -0.801324
vn 0.005549 -0.596708 -0.802439
vn 0.770613 -0.637087 0.016608
vn 0.770079 -0.637748 0.016001
vn 0.810952 -0.585024 -0.010202
vn 0.801727 -0.597681 -0.003429
vn 0.379159 -0.925250 -0.012291
vn 0.030408 -0.999533 -0.003002
vn 0.008817 -0.999960 0.001346
vn 0.000000 -1.000000 0.000000
vn 0.000000 -1.000000 0.000000
vn 0.000000 -1.000000 0.000000
vn -0.003186 -0.999969 0.007224
vn -0.001378 -0.999994 0.003125
vn 0.000000 -1.000000 -0.000000
vn 0.000000 -1.000000 -0.000000
vn 0.000000 -1.000000 0.000000
vn 0.000000 -1.000000 0.000000
vn -0.001509 -0.597635 -0.801767
vn 0.001538 -0.597928 -0.801548
vn 0.012949 -0.598974 -0.800663
vn 0.012949 -0.598974 -0.800663
vn 0.006241 -0.569839 0.821733
vn 0.006241 -0.569839 0.821733
vn -0.001029 -0.568384 0.822763
vn -0.001275 -0.568334 0.822797
vn 0.006241 -0.569839 0.821733
vn -0.793487 -0.605131 -0.064762
vn -0.792455 -0.608691 -0.038862
vn -0.840178 -0.542306 0.002162
vn -0.830270 -0.556829 -0.024378
vn -0.000000 -1.000000 0.000000
vn -0.000000 -1.000000 -0.000000
vn -0.000000 -1.000000 -0.000000
vn -0.000000 -1.000000 -0.000000
vn 0.801727 -0.597681 -0.003429
vn 0.810952 -0.585024 -0.010202
vn 0.845735 -0.532286 -0.037466
vn 0.845735 -0.532286 -0.037466
vn 0.000000 -1.000000 0.000000
vn 0.000000 -1.000000 0.000000
vn 0.000000 -1.000000 0.000000
vn 0.000000 -1.000000 0.000000
vn -0.830270 -0.556829 -0.024378
vn -0.840178 -0.542306 0.002162
vn -0.876299 -0.463372 0.131857
vn -0.876299 -0.463372 0.131857
vn 0.000000 -1.000000 -0.000000
vn 0.000000 -1.000000 0.000000
vn 0.000000 -1.000000 0.000000
vn 0.000000 -1.000000 0.000000
vn -0.000000 -1.000000 0.000000
vn -0.000000 -1.000000 0.000000
vn -0.000000 -1.000000 -0.000000
vn -0.000000 -1.000000 0.000000
vn -0.000000 -1.000000 -0.000000
vn -0.000000 -1.000000 -0.000000
vn -0.000000 -1.000000 0.000000
vn -0.000000 -1.000000 0.000000
vn -0.801167 -0.598401 0.006935
vn -0.809588 -0.586973 0.005444
vn -0.838897 -0.544291 0.000000
vn -0.838897 -0.544291 0.000000
vn 0.000000 -1.000000 0.000000
vn 0.000000 -1.000000 -0.000000
vn 0.000000 -1.000000 -0.000000
vn 0.007667 -0.999968 -0.002135
vn 0.011256 -0.999932 -0.003135
vn 0.698793 -0.715308 0.004826
vn 0.690360 -0.723372 -0.011703
vn 0.729791 -0.679951 0.071219
vn 0.729791 -0.679951 0.071219
vn 0.729791 -0.679951 0.071219
vn 0.000000 -1.000000 0.000000
vn 0.000000 -1.000000 -0.000000
vn 0.000000 -1.000000 0.000000
vn 0.000000 -1.000000 0.000000
vn -0.787666 -0.615620 0.024382
vn -0.792455 -0.608691 -0.038862
vn -0.793487 -0.605131 -0.064762
vn -0.787666 -0.615620 0.024382
vn -0.000000 -1.000000 0.000000
vn -0.000000 -1.000000 0.000000
vn -0.000000 -1.000000 0.000000
vn -0.000000 -1.000000 0.000000
vn -0.000000 -1.000000 -0.000000
vn -0.000000 -1.000000 -0.000000
vn -0.000000 -1.000000 -0.000000
vn -0.000000 -1.000000 -0.000000
vn 0.007225 -0.626436 -0.779439
vn 0.011430 -0.635635 -0.771905
vn 0.216076 -0.948759 -0.230582
vn -0.001275 -0.568334 0.822797
vn -0.001029 -0.568384 0.822763
vn -0.007649 -0.567031 0.823661
vn -0.007649 -0.567031 0.823661
vn 0.000000 -1.000000 -0.000000
vn 0.000000 -1.000000 -0.000000
vn 0.000000 -1.000000 0.000000
vn 0.000000 -1.000000 0.000000
vn 0.000000 -1.000000 -0.000000
vn 0.000000 -1.000000 -0.000000
vn 0.000000 -1.000000 -0.000000
vn 0.000000 -1.000000 -0.000000
vn 0.000000 -1.000000 0.000000
vn 0.000000 -1.000000 0.000000
vn 0.000000 -1.000000 -0.000000
vn 0.000000 -1.000000 -0.000000
vn -0.011569 -0.596629 -0.802434
vn 0.001538 -0.597928 -0.801548
vn -0.001509 -0.597635 -0.801767
vn -0.011569 -0.596629 -0.802434
vn 0.000000 -1.000000 0.000000
vn 0.000000 -1.000000 -0.000000
vn 0.000000 -1.000000 -0.000000
vn 0.000000 -1.000000 0.000000
vn -0.027350 -0.647191 0.761837
vn 0.002363 -0.646894 0.762576
vn -0.003487 -0.646998 0.762484
vn -0.027350 -0.647191 0.761837
vn -0.000000 -1.000000 0.000000
vn -0.000000 -1.000000 0.000000
vn -0.000000 -1.000000 0.000000
vn -0.000000 -1.000000 0.000000
vn -0.780891 -0.624560 -0.011558
vn -0.780472 -0.625187 -0.002243
vn -0.780188 -0.625536 0.003340
vn -0.780891 -0.624560 -0.011558
vn -0.780891 -0.624560 -0.011558
vn 0.008358 -0.999959 -0.003414
vn 0.030408 -0.999533 -0.003002
vn 0.379159 -0.925250 -0.012291
vn 0.000000 -1.000000 -0.000000
vn 0.000000 -1.000000 -0.000000
vn 0.000000 -1.000000 -0.000000
vn 0.000000 -1.000000 -0.000000
vn -0.003487 -0.646998 0.762484
vn 0.002363 -0.646894 0.762576
vn 0.025811 -0.646256 0.762684
vn 0.014708 -0.663733 0.747825
vn 0.015031 -0.663230 0.748265
vn 0.000000 -1.000000 -0.000000
vn 0.000000 -1.000000 0.000000
vn 0.000000 -1.000000 -0.000000
vn 0.030408 -0.999533 -0.003002
vn 0.008358 -0.999959 -0.003414
vn 0.008817 -0.999960 0.001346
vn 0.030408 -0.999533 -0.003002
vn 0.000000 -1.000000 -0.000000
vn 0.000000 -1.000000 -0.000000
vn 0.000000 -1.000000 0.000000
vn 0.721868 -0.691193 -0.034043
vn 0.734201 -0.678390 -0.027113
vn 0.660396 -0.747973 -0.066435
vn 0.690360 -0.723372 -0.011703
vn 0.698793 -0.715308 0.004826
vn 0.811117 -0.584528 0.020380
vn 0.811117 -0.584528 0.020380
vn 0.734201 -0.678390 -0.027113
vn 0.721868 -0.691193 -0.034043
vn 0.811117 -0.584528 0.020380
vn 0.000000 -1.000000 -0.000000
vn 0.000000 -1.000000 -0.000000
vn 0.000000 -1.000000 -0.000000
vn 0.000000 -1.000000 -0.000000
vn 0.000000 -1.000000 0.000000
vn 0.000000 -1.000000 0.000000
vn 0.000000 -1.000000 0.000000
vn 0.000167 -0.598230 -0.801324
vn 0.000361 -0.598175 -0.801365
vn -0.004790 -0.599615 -0.800274
vn 0.011430 -0.635635 -0.771905
vn 0.007225 -0.626436 -0.779439
vn 0.768714 -0.639429 0.014457
vn 0.770079 -0.637748 0.016001
vn 0.770613 -0.637087 0.016608
vn 0.768714 -0.639429 0.014457
vn 0.768714 -0.639429 0.014457
vn -0.001378 -0.999994 0.003125
vn -0.003186 -0.999969 0.007224
vn -0.315964 -0.621984 0.716452
vn 0.011256 -0.999932 -0.003135
vn 0.007667 -0.999968 -0.002135
vn 0.654669 -0.733601 -0.182312
vn 0.000000 -1.000000 0.000000
vn 0.000000 -1.000000 0.000000
vn 0.000000 -1.000000 0.000000
vn 0.000000 -1.000000 0.000000
vn 0.000000 -1.000000 0.000000
vn 0.000000 -1.000000 0.000000
vn 0.000000 -1.000000 -0.000000
vn -0.860247 -0.503904 0.077819
vn -0.860247 -0.503904 0.077819
vn -0.860247 -0.503904 0.077819
vn -0.860247 -0.503904 0.077819
vn -0.034066 -0.726288 0.686546
vn -0.034066 -0.726288 0.686546
vn -0.034066 -0.726288 0.686546
vn -0.034066 -0.726288 0.686546
vn -0.700841 -0.713183 0.013837
vn -0.700841 -0.713183 0.013837
vn -0.700841 -0.713183 0.013837
vn -0.700841 -0.713183 0.013837
vn -0.653992 -0.750262 -0.096961
vn -0.653992 -0.750262 -0.096961
vn -0.653992 -0.750262 -0.096961
vn -0.653992 -0.750262 -0.096961
vn -0.034066 -0.726287 -0.686547
vn -0.034066 -0.726287 -0.686547
vn -0.034066 -0.726287 -0.686547
vn -0.034066 -0.726287 -0.686547
vn 0.031028 -0.725211 -0.687827
vn 0.031028 -0.725211 -0.687827
vn 0.031028 -0.725211 -0.687827
vn 0.031028 -0.725211 -0.687827
vn 0.670280 -0.739960 -0.056429
vn 0.670280 -0.739960 -0.056429
vn 0.670280 -0.739960 -0.056429
vn 0.670280 -0.739960 -0.056429
vn 0.861153 -0.498233 0.100893
vn 0.861153 -0.498233 0.100893
vn 0.861153 -0.498233 0.100893
vn 0.861153 -0.498233 0.100893
vn 0.031028 -0.725211 0.687827
vn 0.031028 -0.725211 0.687827
vn 0.031028 -0.725211 0.687827
vn 0.031028 -0.725211 0.687827
vn 0.730587 -0.679797 -0.064179
vn 0.730587 -0.679797 -0.064179
vn 0.730587 -0.679797 -0.064179
vn 0.730587 -0.679797 -0.064179
s off
f 61/46/1 62/47/2 63/99/3 64/100/4
f 49/51/5 50/52/6 2/2/7 6/6/8
f 29/29/9 30/30/10 31/31/11 32/32/12
f 4/4/13 41/41/14 42/42/15 7/7/16
f 39/39/17 40/40/18 21/21/19 22/22/20
f 52/54/21 51/53/22 10/10/23
f 28/28/24 29/29/25 32/32/26 33/33/27
f 7/7/28 42/42/29 43/43/30 11/11/31
f 38/38/32 39/39/33 22/22/34 23/23/35
f 27/27/36 54/56/37 55/57/38
f 11/63/39 43/64/40 44/65/41 59/66/42 60/67/43
f 37/68/44 38/69/45 23/70/46 24/71/47
f 46/48/48 47/49/49 14/14/50 18/18/51
f 15/15/52 59/61/53 44/44/54 45/45/55 19/19/56
f 36/36/57 37/37/58 24/24/59 25/25/60
f 22/22/61 21/21/62 1/1/63 5/5/64
f 23/23/65 22/22/66 5/5/67 9/9/68
f 24/71/69 23/70/70 9/72/71 13/73/72
f 25/25/73 24/24/74 13/13/75 17/17/76
f 62/47/77 65/101/78 66/102/79 63/99/80
f 2/2/81 30/30/82 29/29/83 6/6/84
f 32/32/85 31/31/86 4/4/87 7/7/88
f 33/33/89 32/32/90 7/7/91 11/11/92
f 34/74/93 33/75/94 11/63/95 60/67/96 58/76/97
f 35/35/98 34/34/99 58/60/100 15/15/101 19/19/102
f 67/103/103 61/46/104 64/100/105 68/104/106
f 16/16/107 37/37/108 36/36/109 20/20/110
f 3/3/111 40/40/112 39/39/113 8/8/114
f 42/42/115 41/41/116 3/3/117 8/8/118
f 56/58/119 57/59/120 12/12/121
f 45/45/122 44/44/123 16/16/124 20/20/125
f 69/105/126 61/46/127 67/103/128 70/106/129
f 71/107/130 62/47/131 61/46/132 69/105/133
f 72/108/134 65/101/135 62/47/136 71/107/137
f 13/13/138 47/49/139 46/48/140 17/17/141
f 9/72/142 48/77/143 47/78/144 13/73/145
f 5/5/146 49/51/147 48/50/148 9/9/149
f 1/1/150 50/52/151 49/51/152 5/5/153
f 6/6/154 29/29/155 28/28/156 10/10/157 51/53/158
f 53/55/159 54/56/160 27/27/161
f 47/78/162 48/77/163 52/79/164 14/80/165
f 48/50/166 49/51/167 6/6/168 51/53/169 52/54/170
f 14/80/171 10/81/172 28/82/173 54/83/174 53/84/175
f 55/85/176 54/83/177 28/82/178 33/75/179 34/74/180
f 26/26/181 27/27/182 55/57/183 34/34/184 35/35/185
f 14/14/186 53/55/187 27/27/188 26/26/189 18/18/190
f 12/86/191 38/69/192 37/68/193 16/87/194
f 16/87/195 56/88/196 12/86/197
f 43/43/198 42/42/199 8/8/200 57/59/201 56/58/202
f 8/8/203 39/39/204 38/38/205 12/12/206 57/59/207
f 60/62/208 59/61/209 15/15/210
f 58/60/211 60/62/212 15/15/213
f 44/65/214 43/64/215 56/88/216 16/87/217
f 52/79/218 10/81/219 14/80/220
f 26/26/221 35/35/222 64/90/223 63/89/224
f 46/48/225 18/18/226 66/92/227 65/91/228
f 18/18/229 26/26/230 63/89/231 66/92/232
f 35/35/233 19/19/234 68/93/235 64/90/236
f 19/19/237 45/45/238 67/94/239 68/93/240
f 45/45/241 20/20/242 70/95/243 67/94/244
f 20/20/245 36/36/246 69/96/247 70/95/248
f 36/36/249 25/25/250 71/97/251 69/96/252
f 17/17/253 46/48/254 65/91/255 72/98/256
f 25/25/257 17/17/258 72/98/259 71/97/260
