# This file uses centimeters as units for non-parametric coordinates.

v -0.187531 0.000000 -0.187531
v -0.187531 0.000000 0.187531
v -0.182159 1.013663 0.182163
v 0.158710 1.013663 -0.169022
v 0.181091 1.013663 0.164135
v 0.187531 0.000000 -0.187531
v 0.187531 0.000000 0.187531
v -0.182159 0.145620 -0.182163
v -0.182159 0.145620 0.182163
v 0.182159 0.145620 0.182163
v 0.182159 0.858974 0.182163
v -0.182159 0.858974 0.182163
v -0.182159 0.858974 -0.182163
v 0.182159 0.858974 -0.182163
v -0.129475 0.773400 0.129471
v -0.129475 0.773400 -0.129471
v 0.129467 0.773400 -0.129471
v 0.129467 0.773400 0.129471
v 0.129467 0.231194 -0.129471
v -0.129475 0.231194 -0.129471
v -0.129475 0.231194 0.129471
v 0.129467 0.231194 0.129471
v -0.127007 1.013663 -0.127010
v -0.121361 1.013663 0.119427
v 0.127007 1.013663 0.127007
v 0.127007 1.013663 -0.127010
v -0.082626 1.108693 -0.000004
v 0.000000 1.108693 0.082626
v 0.082626 1.106644 -0.000004
v 0.000000 1.106644 -0.082630
v -0.182163 1.013663 -0.091080
v -0.091084 1.013663 -0.182163
v -0.182159 0.974991 -0.182163
v 0.182159 0.109215 -0.182163
v 0.182163 0.145620 -0.091080
v 0.091080 0.145620 -0.182159
v 0.105873 0.509776 -0.113926
v -0.109890 0.509776 0.110561
v -0.129471 0.419691 -0.129471
v 0.129467 0.572765 0.129471
v -0.129471 0.700138 -0.129471
v 0.129467 0.398873 0.129471
v -0.075253 0.629370 -0.121563
v 0.121559 0.509776 0.060780
v 0.096394 0.509776 0.121563
v -0.121563 0.629370 -0.082142
v -0.124184 1.013663 -0.003792
v 0.002823 1.013663 0.123219
v 0.127007 1.013663 -0.000004
v 0.000000 1.013663 -0.127010
v 0.000000 1.106644 -0.082630
v -0.082626 1.108693 -0.000004
v 0.000000 1.108693 0.082626
v 0.082626 1.106644 -0.000004
v -0.083008 1.107878 -0.001091
v -0.083332 1.107077 -0.000065
vt 0.200237 0.302679
vt 0.200237 0.302679
vt 0.200237 0.302679
vt 0.200237 0.302679
vt 0.200237 0.302679
vt 0.200237 0.302679
vt 0.200237 0.302679
vt 0.200237 0.302679
vt 0.200237 0.302679
vt 0.200237 0.302679
vt 0.200237 0.302679
vt 0.200237 0.302679
vt 0.200237 0.302679
vt 0.200237 0.302679
vt 0.200237 0.302679
vt 0.200237 0.302679
vt 0.200237 0.302679
vt 0.200237 0.302679
vt 0.200237 0.302679
vt 0.200237 0.302679
vt 0.200237 0.302679
vt 0.200237 0.302679
vt 0.200237 0.302679
vt 0.200237 0.302679
vt 0.200237 0.302679
vt 0.200237 0.302679
vt 0.200237 0.302679
vt 0.200237 0.302679
vt 0.200237 0.302679
vt 0.200237 0.302679
vt 0.200237 0.302679
vt 0.200237 0.302679
vt 0.200237 0.302679
vt 0.200237 0.302679
vt 0.200237 0.302679
vt 0.200237 0.302679
vt 0.200237 0.302679
vt 0.200237 0.302679
vt 0.200237 0.302679
vt 0.200237 0.302679
vt 0.200237 0.302679
vt 0.200237 0.302679
vt 0.200237 0.302679
vt 0.200237 0.302679
vt 0.200237 0.302679
vt 0.200237 0.302679
vt 0.200237 0.302679
vt 0.200237 0.302679
vt 0.200237 0.302679
vt 0.200237 0.302679
vt 0.200237 0.302679
vt 0.200237 0.302679
vt 0.200237 0.302679
vt 0.200237 0.302679
vt 0.200237 0.302679
vt 0.200237 0.302679
vt 0.200237 0.302679
vt 0.200237 0.302679
vt 0.200237 0.302679
vt 0.200237 0.302679
vt 0.200237 0.302679
vt 0.200237 0.302679
vt 0.200237 0.302679
vt 0.200237 0.302679
vt 0.200237 0.302679
vt 0.200237 0.302679
vt 0.200237 0.302679
vt 0.200237 0.302679
vt 0.200237 0.302679
vt 0.200237 0.302679
vt 0.200237 0.302679
vt 0.200237 0.302679
vt 0.200237 0.302679
vt 0.200237 0.302679
vn 0.012393 0.999846 -0.012393
vn 0.012393 0.999846 -0.012393
vn 0.012393 0.999846 -0.012393
vn 0.012393 0.999846 -0.012393
vn 0.000000 -1.000000 0.000000
vn 0.000000 -1.000000 0.000000
vn 0.000000 -1.000000 0.000000
vn 0.000000 -1.000000 0.000000
vn -0.560295 -0.502816 -0.658214
vn -0.560295 -0.502817 -0.658214
vn -0.560295 -0.502817 -0.658214
vn -0.999320 0.036859 0.000000
vn -0.999320 0.036859 0.000000
vn -0.999321 0.036859 0.000000
vn -0.999321 0.036859 0.000000
vn 0.000000 0.036833 0.999322
vn 0.000000 0.036833 0.999322
vn 0.000000 0.036833 0.999322
vn 0.000000 0.036833 0.999322
vn 0.024729 0.058241 0.997996
vn 0.024729 0.058241 0.997996
vn 0.024729 0.058241 0.997996
vn 0.024729 0.058241 0.997996
vn 0.000000 1.000000 0.000004
vn 0.000000 1.000000 0.000004
vn 0.000000 1.000000 0.000004
vn 0.996405 0.078456 -0.031973
vn 0.996405 0.078456 -0.031973
vn 0.996405 0.078456 -0.031973
vn 0.996405 0.078456 -0.031973
vn -0.851552 -0.524270 0.000000
vn -0.851552 -0.524270 0.000000
vn -0.851552 -0.524270 0.000000
vn -0.851552 -0.524270 0.000000
vn 0.851518 -0.524325 0.000000
vn 0.851518 -0.524325 0.000000
vn 0.851518 -0.524325 0.000000
vn 0.851518 -0.524325 0.000000
vn 0.000000 -0.524325 0.851518
vn 0.000000 -0.524325 0.851518
vn 0.000000 -0.524325 0.851518
vn 0.000000 -0.524325 0.851518
vn 0.000000 -0.524325 -0.851518
vn 0.000000 -0.524325 -0.851518
vn 0.000000 -0.524325 -0.851518
vn 0.000000 -0.524325 -0.851518
vn -0.851552 0.524270 0.000000
vn -0.851552 0.524270 0.000000
vn -0.851552 0.524270 0.000000
vn -0.851552 0.524270 0.000000
vn 0.000000 0.524325 0.851518
vn 0.000000 0.524325 0.851518
vn 0.000000 0.524325 0.851518
vn 0.000000 0.524325 0.851518
vn 0.702205 0.117372 -0.702234
vn 0.702205 0.117372 -0.702234
vn 0.702205 0.117372 -0.702234
vn 0.000000 1.000000 -0.000002
vn 0.000000 1.000000 -0.000002
vn 0.000000 1.000000 -0.000002
vn 0.000000 1.000000 0.000000
vn 0.000000 1.000000 0.000000
vn 0.000000 1.000000 0.000000
vn -0.465129 0.760026 0.453890
vn -0.465129 0.760026 0.453890
vn -0.465129 0.760026 0.453890
vn -0.465129 0.760026 0.453890
vn -0.028049 0.391960 0.919555
vn -0.028049 0.391960 0.919555
vn -0.028049 0.391959 0.919555
vn 0.430429 0.793386 -0.430429
vn 0.430429 0.793386 -0.430429
vn 0.430429 0.793386 -0.430429
vn 0.000000 0.430752 -0.902470
vn 0.000000 0.430752 -0.902470
vn 0.000000 0.000000 -0.000000
vn 0.000000 0.000000 -0.000000
vn -1.000000 -0.000013 0.000001
vn -1.000000 -0.000013 0.000001
vn -1.000000 -0.000013 0.000001
vn -1.000000 -0.000013 0.000001
vn -1.000000 -0.000013 0.000001
vn 0.000000 1.000000 0.000001
vn 0.000000 1.000000 0.000001
vn 0.000000 1.000000 0.000001
vn 0.000000 1.000000 -0.000003
vn 0.000000 1.000000 -0.000003
vn 0.000000 1.000000 -0.000003
vn 0.019243 0.033990 -0.999237
vn 0.019243 0.033990 -0.999237
vn 0.019243 0.033990 -0.999237
vn 0.019243 0.033990 -0.999237
vn 0.019243 0.033990 -0.999237
vn 0.999273 0.038087 -0.001875
vn 0.999273 0.038087 -0.001875
vn 0.999273 0.038087 -0.001875
vn 0.999273 0.038087 -0.001875
vn 0.999273 0.038087 -0.001875
vn 0.001876 0.038086 -0.999273
vn 0.001876 0.038086 -0.999273
vn 0.001876 0.038086 -0.999273
vn 0.001876 0.038086 -0.999273
vn 0.001876 0.038086 -0.999273
vn 0.000006 0.524309 -0.851528
vn 0.000006 0.524309 -0.851528
vn 0.000006 0.524309 -0.851528
vn 0.000006 0.524309 -0.851528
vn 0.851508 0.524341 0.000006
vn 0.851508 0.524341 0.000006
vn 0.851508 0.524341 0.000006
vn 0.851508 0.524341 0.000006
vn -0.364028 0.857309 -0.364013
vn -0.364028 0.857309 -0.364013
vn -0.364028 0.857309 -0.364013
vn 0.347948 0.870548 -0.347962
vn 0.347948 0.870548 -0.347962
vn 0.347948 0.870548 -0.347962
vn 0.815304 -0.470467 0.337552
vn 0.815304 -0.470467 0.337552
vn 0.815304 -0.470467 0.337552
vn -0.997834 -0.064274 0.013976
vn -0.997834 -0.064274 0.013976
vn -0.997834 -0.064274 0.013976
vn -0.997834 -0.064274 0.013976
vn -0.997835 -0.064274 0.013976
vn 0.007975 -0.054832 -0.998464
vn 0.007975 -0.054832 -0.998464
vn 0.007975 -0.054832 -0.998464
vn 0.007975 -0.054832 -0.998464
vn 0.007975 -0.054832 -0.998464
vn 0.033992 0.031300 -0.998932
vn 0.033992 0.031300 -0.998932
vn 0.033992 0.031300 -0.998932
vn 0.033992 0.031300 -0.998932
vn 0.033992 0.031300 -0.998932
vn -0.998381 0.036916 0.043270
vn -0.998381 0.036916 0.043270
vn -0.998381 0.036916 0.043270
vn -0.998381 0.036916 0.043270
vn -0.998381 0.036916 0.043270
vn 0.997757 -0.049953 -0.044566
vn 0.997757 -0.049953 -0.044566
vn 0.997757 -0.049953 -0.044566
vn 0.997757 -0.049953 -0.044566
vn 0.997757 -0.049953 -0.044566
vn -0.034646 -0.047595 0.998266
vn -0.034646 -0.047595 0.998266
vn -0.034646 -0.047595 0.998266
vn -0.034646 -0.047595 0.998266
vn -0.034646 -0.047595 0.998266
vn -0.032438 0.045536 0.998436
vn -0.032438 0.045536 0.998436
vn -0.032438 0.045536 0.998436
vn -0.032438 0.045536 0.998436
vn -0.032438 0.045536 0.998436
vn 0.997906 0.048366 -0.042954
vn 0.997906 0.048366 -0.042954
vn 0.997906 0.048366 -0.042954
vn 0.997906 0.048366 -0.042954
vn 0.997906 0.048367 -0.042954
vn -0.636052 0.192649 -0.747211
vn -0.636052 0.192649 -0.747211
vn -0.636052 0.192649 -0.747211
vn 0.884288 0.289819 0.366113
vn 0.884288 0.289819 0.366113
vn 0.884288 0.289819 0.366113
vn 0.000000 1.000000 -0.000000
vn 0.000000 1.000000 -0.000000
vn 0.000000 1.000000 -0.000000
vn 0.000000 1.000000 0.000000
vn 0.000000 1.000000 0.000000
vn 0.000000 1.000000 0.000000
vn 0.000000 1.000000 -0.000007
vn 0.000000 1.000000 -0.000007
vn 0.000000 1.000000 -0.000007
vn 0.000000 1.000000 0.000000
vn 0.000000 1.000000 0.000000
vn 0.000000 1.000000 0.000000
vn 0.000000 1.000000 0.000000
vn 0.000000 1.000000 0.000000
vn 0.000000 1.000000 0.000000
vn 0.000000 1.000000 0.000000
vn 0.000000 1.000000 0.000000
vn 0.000000 1.000000 0.000000
vn 0.000000 1.000000 0.000000
vn 0.000000 1.000000 0.000000
vn 0.000000 1.000000 0.000000
vn 0.000000 1.000000 0.000002
vn 0.000000 1.000000 0.000002
vn 0.000000 1.000000 0.000002
vn -0.423563 0.790075 -0.443145
vn -0.423563 0.790074 -0.443145
vn -0.423563 0.790075 -0.443145
vn -0.423563 0.790075 -0.443145
vn 0.000000 0.000000 0.000000
vn 0.000000 0.000000 0.000000
vn 0.000000 0.000000 0.000000
vn -0.916430 0.399580 0.022197
vn -0.916430 0.399580 0.022197
vn -0.916430 0.399580 0.022197
vn 0.000000 0.000000 0.000000
vn 0.000000 0.000000 0.000000
vn 0.000000 0.000000 0.000000
vn -0.028078 0.391958 0.919555
vn -0.028078 0.391958 0.919555
vn -0.000000 0.000000 0.000000
vn -0.000000 0.000000 0.000000
vn 0.000000 0.000000 0.000000
vn 0.000000 0.000000 0.000000
vn 0.000000 0.000000 0.000000
vn 0.902470 0.430753 0.000000
vn 0.902470 0.430753 0.000000
vn 0.000000 0.000000 0.000000
vn 0.000000 0.000000 0.000000
vn 0.000000 0.000000 0.000000
vn 0.000000 0.000000 0.000000
vn 0.000000 0.000000 0.000000
vn 0.443153 0.790077 0.423549
vn 0.443153 0.790077 0.423549
vn 0.443153 0.790077 0.423549
vn 0.000000 0.000000 0.000000
vn 0.000000 0.000000 0.000000
vn 0.000000 0.000000 0.000000
vn -0.916330 0.399873 0.021004
vn -0.916330 0.399873 0.021004
vn -0.916330 0.399873 0.021004
vn -0.916330 0.399873 0.021004
vn -0.916324 0.399887 0.020992
vn -0.916324 0.399887 0.020992
vn -0.916324 0.399887 0.020992
vn 0.000000 0.430752 -0.902470
vn 0.000000 0.430752 -0.902470
vn 0.000000 0.430752 -0.902470
vn 0.902470 0.430753 0.000000
vn 0.902470 0.430753 0.000000
vn 0.902470 0.430753 0.000000
s off
f 51/69/1 52/70/2 53/71/3 54/72/4
f 6/13/5 7/14/6 2/15/7 1/16/8
f 46/64/9 41/58/10 43/61/11
f 1/21/12 2/22/13 9/23/14 8/24/15
f 2/22/16 7/25/17 10/26/18 9/23/19
f 12/27/20 11/28/21 5/29/22 3/30/23
f 23/31/24 32/32/25 31/33/26
f 4/34/27 5/35/28 11/36/29 14/37/30
f 12/27/31 13/38/32 16/2/33 15/1/34
f 14/37/35 11/36/36 18/10/37 17/9/38
f 11/28/39 12/27/40 15/1/41 18/17/42
f 13/38/43 14/39/44 17/19/45 16/2/46
f 8/24/47 9/23/48 21/4/49 20/3/50
f 9/23/51 10/26/52 22/18/53 21/4/54
f 19/12/55 35/40/56 36/41/57
f 3/30/58 48/66/59 24/43/60
f 5/35/61 49/67/62 25/42/63
f 52/70/64 56/74/65 24/43/66 28/6/67
f 53/71/68 48/66/69 25/42/70
f 54/72/71 26/44/72 30/8/73
f 26/44/74 50/68/75 51/69/76 30/8/77
f 13/38/78 12/27/79 3/30/80 31/33/81 33/45/82
f 23/31/83 31/33/84 47/65/85
f 4/34/86 50/68/87 26/44/88
f 14/39/89 13/38/90 33/45/91 32/32/92 4/47/93
f 34/48/94 35/40/95 10/49/96 7/14/97 6/13/98
f 6/50/99 1/21/100 8/24/101 36/41/102 34/51/103
f 19/20/104 36/41/105 8/24/106 20/3/107
f 10/49/108 35/40/109 19/12/110 22/11/111
f 31/33/112 32/32/113 33/45/114
f 36/41/115 35/40/116 34/51/117
f 44/62/118 40/57/119 45/63/120
f 15/1/121 16/2/122 41/58/123 46/64/124 38/54/125
f 16/2/126 17/19/127 37/52/128 43/61/129 41/58/130
f 39/55/131 43/61/132 37/52/133 19/20/134 20/3/135
f 38/54/136 46/64/137 39/55/138 20/3/139 21/4/140
f 17/9/141 18/10/142 40/56/143 44/62/144 37/53/145
f 18/17/146 15/1/147 38/54/148 45/63/149 40/57/150
f 42/60/151 45/63/152 38/54/153 21/4/154 22/18/155
f 37/53/156 44/62/157 42/59/158 22/11/159 19/12/160
f 46/64/161 43/61/162 39/55/163
f 44/62/164 45/63/165 42/59/166
f 47/65/167 3/30/168 24/43/169
f 47/65/170 31/33/171 3/30/172
f 48/66/173 5/35/174 25/42/175
f 3/30/176 5/35/177 48/66/178
f 49/67/179 4/34/180 26/44/181
f 5/35/182 4/34/183 49/67/184
f 50/68/185 32/46/186 23/31/187
f 4/34/188 32/46/189 50/68/190
f 51/69/191 23/31/192 55/73/193 27/5/194
f 27/5/195 52/70/196 51/69/197
f 55/73/198 56/74/199 52/70/200
f 53/71/201 52/70/202 28/6/203
f 24/43/204 48/66/205 53/71/206 28/6/207
f 54/72/208 53/71/209 29/7/210
f 25/42/211 49/67/212 54/72/213 29/7/214
f 51/69/215 54/72/216 30/8/217
f 53/71/218 25/42/219 29/7/220
f 55/73/221 52/70/222 27/5/223
f 23/31/224 47/65/225 56/74/226 55/73/227
f 24/43/228 56/74/229 47/65/230
f 51/69/231 50/68/232 23/31/233
f 54/72/234 49/67/235 26/44/236
