# This file uses centimeters as units for non-parametric coordinates.

v 0.038892 0.000000 -0.067362
v -0.038891 -0.000000 -0.067362
v -0.077783 -0.000000 -0.000000
v -0.038892 -0.000000 0.067362
v 0.038892 0.000000 0.067362
v 0.077783 0.000000 -0.000000
v 0.013904 0.223708 -0.024082
v -0.013904 0.223708 -0.024082
v -0.027808 0.223708 -0.000000
v -0.013904 0.223708 0.024082
v 0.013904 0.223708 0.024082
v 0.027808 0.223708 -0.000000
v 0.000000 0.000000 -0.000000
v -0.047628 0.034531 -0.082495
v -0.095257 0.034531 -0.000000
v -0.047629 0.034531 0.082495
v 0.047629 0.034531 0.082495
v 0.095257 0.034531 -0.000000
v 0.047629 0.034531 -0.082495
v 0.027808 0.168593 -0.000000
v 0.013904 0.168593 0.024082
v -0.013904 0.168593 0.024082
v -0.027808 0.168593 -0.000000
v -0.013904 0.168593 -0.024082
v 0.013904 0.168593 -0.024082
v 0.016622 0.230823 -0.028790
v -0.016622 0.230823 -0.028790
v -0.033244 0.230823 -0.000000
v -0.016622 0.230823 0.028790
v 0.016622 0.230823 0.028790
v 0.033244 0.230823 -0.000000
v 0.016622 0.238263 -0.028790
v -0.016622 0.238263 -0.028790
v -0.033244 0.238263 -0.000000
v -0.016622 0.238263 0.028790
v 0.016622 0.238263 0.028790
v 0.033244 0.238263 -0.000000
v 0.012142 0.238263 -0.021031
v -0.012142 0.238263 -0.021031
v -0.024284 0.238263 -0.000000
v -0.012142 0.238263 0.021031
v 0.012142 0.238263 0.021031
v 0.024284 0.238263 -0.000000
v 0.012142 0.276216 -0.021031
v -0.012142 0.276216 -0.021031
v 0.000000 0.268075 -0.000000
v -0.024284 0.271022 -0.000000
v -0.012145 0.263587 0.021031
v 0.012139 0.263587 0.021031
v 0.024284 0.277285 -0.000000
v -0.028587 0.110225 -0.049514
v -0.057173 0.110225 -0.000000
v -0.028587 0.110225 0.049514
v 0.028587 0.110225 0.049514
v 0.057174 0.110225 -0.000000
v 0.028587 0.110225 -0.049514
v 0.024051 0.128255 0.041658
v 0.032680 0.093954 0.056603
v -0.011771 0.127274 0.042085
v -0.013614 0.110225 0.049514
v -0.015657 0.091324 0.057749
v 0.041102 0.128133 0.012231
v 0.048642 0.110225 0.014777
v 0.055664 0.093547 0.017149
v -0.047628 0.009364 -0.082495
v -0.095257 0.009364 -0.000000
v -0.047629 0.009364 0.082495
v 0.047629 0.009365 0.082495
v 0.095257 0.009365 -0.000000
v 0.047629 0.009365 -0.082495
vt 0.441552 0.313644
vt 0.441552 0.313644
vt 0.441552 0.313644
vt 0.441552 0.313644
vt 0.441552 0.313644
vt 0.441552 0.313644
vt 0.441552 0.313644
vt 0.441552 0.313644
vt 0.441552 0.313644
vt 0.441552 0.313644
vt 0.441552 0.313644
vt 0.441552 0.313644
vt 0.441552 0.313644
vt 0.439843 0.362652
vt 0.439843 0.362652
vt 0.439843 0.362652
vt 0.439843 0.362652
vt 0.439843 0.362652
vt 0.439843 0.362652
vt 0.439843 0.362652
vt 0.439843 0.362652
vt 0.439843 0.362652
vt 0.439843 0.362652
vt 0.439843 0.362652
vt 0.439843 0.362652
vt 0.439843 0.362652
vt 0.441552 0.313644
vt 0.026126 0.322192
vt 0.441552 0.313644
vt 0.441552 0.313644
vt 0.439975 0.309575
vt 0.441552 0.313644
vt 0.441552 0.313644
vt 0.439843 0.362652
vt 0.439843 0.362652
vt 0.439843 0.362652
vt 0.439843 0.362652
vt 0.439843 0.362652
vt 0.439843 0.362652
vt 0.439843 0.362652
vt 0.439843 0.362652
vt 0.439843 0.362652
vt 0.439843 0.362652
vt 0.439843 0.362652
vt 0.439843 0.362652
vt 0.439843 0.362652
vt 0.439843 0.362652
vt 0.439843 0.362652
vt 0.439843 0.362652
vt 0.439843 0.362652
vt 0.439843 0.362652
vt 0.439843 0.362652
vt 0.439843 0.362652
vt 0.439843 0.362652
vt 0.439843 0.362652
vt 0.439843 0.362652
vt 0.439843 0.362652
vt 0.439843 0.362652
vt 0.439843 0.362652
vt 0.439843 0.362652
vt 0.026126 0.322192
vt 0.026126 0.322192
vt 0.026126 0.322192
vt 0.026126 0.322192
vt 0.026126 0.322192
vt 0.026126 0.322192
vt 0.439843 0.362652
vt 0.439843 0.362652
vt 0.439843 0.362652
vt 0.036383 0.353534
vt 0.439843 0.362652
vt 0.026126 0.322192
vt 0.026126 0.322192
vt 0.026126 0.322192
vt 0.026126 0.322192
vt 0.026126 0.322192
vt 0.026126 0.322192
vt 0.439843 0.362652
vt 0.441552 0.313644
vt 0.036383 0.353534
vt 0.439975 0.364626
vt 0.439975 0.309575
vt 0.439975 0.364626
vt 0.036383 0.353534
vt 0.439975 0.364626
vt 0.439843 0.362652
vt 0.036383 0.353534
vt 0.036383 0.353534
vt 0.036383 0.353534
vt 0.441552 0.313644
vt 0.439843 0.362652
vt 0.036383 0.353534
vt 0.036383 0.353534
vt 0.036383 0.353534
vt 0.441552 0.313644
vt 0.439975 0.309575
vt 0.439975 0.309575
vt 0.439975 0.309575
vt 0.439975 0.309575
vt 0.439975 0.364626
vt 0.439975 0.364626
vt 0.439975 0.364626
vt 0.441552 0.313644
vt 0.441552 0.313644
vt 0.441552 0.313644
vt 0.441552 0.313644
vt 0.441552 0.313644
vt 0.441552 0.313644
vn 0.000000 0.399445 -0.916757
vn 0.000000 0.399445 -0.916757
vn 0.000000 0.399445 -0.916757
vn 0.000000 0.399445 -0.916757
vn -0.793936 0.399444 -0.458377
vn -0.793936 0.399444 -0.458377
vn -0.793936 0.399444 -0.458377
vn -0.793936 0.399444 -0.458377
vn -0.793936 0.399444 0.458377
vn -0.793936 0.399444 0.458377
vn -0.793936 0.399444 0.458377
vn -0.793936 0.399444 0.458377
vn 0.000000 0.399446 0.916757
vn 0.000000 0.399446 0.916757
vn 0.000000 0.399446 0.916757
vn 0.000000 0.399446 0.916757
vn 0.793937 0.399446 0.458375
vn 0.793937 0.399446 0.458375
vn 0.793937 0.399446 0.458375
vn 0.793935 0.399446 -0.458378
vn 0.793935 0.399446 -0.458378
vn 0.793935 0.399446 -0.458378
vn 0.793935 0.399446 -0.458378
vn 0.000002 -1.000000 0.000001
vn 0.000002 -1.000000 0.000001
vn 0.000002 -1.000000 0.000001
vn 0.000002 -1.000000 0.000001
vn 0.000002 -1.000000 0.000001
vn 0.000002 -1.000000 0.000001
vn 0.000002 -1.000000 -0.000001
vn 0.000002 -1.000000 -0.000001
vn 0.000002 -1.000000 -0.000001
vn 0.000002 -1.000000 -0.000001
vn 0.000002 -1.000000 -0.000001
vn 0.000002 -1.000000 -0.000001
vn 0.000000 -1.000000 0.000000
vn 0.000000 -1.000000 0.000000
vn 0.000000 -1.000000 0.000000
vn 0.000000 -1.000000 0.000000
vn 0.000000 -1.000000 0.000000
vn 0.000000 -1.000000 0.000000
vn -0.000000 0.932573 0.360982
vn -0.000000 0.932573 0.360982
vn -0.000000 0.932573 0.360982
vn 0.114895 0.946930 0.300204
vn 0.114895 0.946930 0.300204
vn 0.114895 0.946930 0.300204
vn 0.115947 0.955603 0.270885
vn 0.115947 0.955603 0.270885
vn 0.115947 0.955603 0.270885
vn -0.000000 0.977980 0.208701
vn -0.000000 0.977980 0.208701
vn -0.000000 0.977979 0.208701
vn -0.328766 0.866878 0.374748
vn -0.328766 0.866877 0.374748
vn -0.328766 0.866878 0.374748
vn -0.350303 0.923674 0.155289
vn -0.350303 0.923674 0.155289
vn -0.350303 0.923674 0.155289
vn -0.866025 0.000000 -0.500001
vn -0.866025 0.000000 -0.500001
vn -0.866025 0.000000 -0.500001
vn -0.866025 0.000000 -0.500001
vn -0.866026 0.000000 0.499999
vn -0.866026 0.000000 0.499999
vn -0.866026 0.000000 0.499999
vn -0.866026 0.000000 0.499999
vn -0.000001 0.000000 1.000000
vn -0.000001 0.000000 1.000000
vn -0.000001 0.000000 1.000000
vn -0.000001 0.000000 1.000000
vn 0.866026 0.000000 0.499999
vn 0.866026 0.000000 0.499999
vn 0.866026 0.000000 0.499999
vn 0.866026 0.000000 0.499999
vn 0.866026 0.000000 -0.500000
vn 0.866026 0.000000 -0.500000
vn 0.866026 0.000000 -0.500000
vn 0.866026 0.000000 -0.500000
vn 0.000000 0.000000 -1.000000
vn 0.000000 0.000000 -1.000000
vn 0.000000 0.000000 -1.000000
vn 0.000000 0.000000 -1.000000
vn 0.866025 0.000000 0.500001
vn 0.866025 0.000000 0.500001
vn 0.866025 0.000000 0.500001
vn 0.866025 0.000000 0.500001
vn -0.000002 0.000000 1.000000
vn -0.000002 0.000000 1.000000
vn -0.000002 0.000000 1.000000
vn -0.000002 0.000000 1.000000
vn -0.866023 0.000000 0.500003
vn -0.866023 0.000000 0.500003
vn -0.866023 0.000000 0.500003
vn -0.866023 0.000000 0.500003
vn -0.866024 -0.000000 -0.500003
vn -0.866024 -0.000000 -0.500003
vn -0.866024 -0.000000 -0.500003
vn -0.866024 -0.000000 -0.500003
vn 0.000001 -0.000000 -1.000000
vn 0.000001 -0.000000 -1.000000
vn 0.000001 -0.000000 -1.000000
vn 0.000001 -0.000000 -1.000000
vn 0.866025 0.000000 -0.500001
vn 0.866025 0.000000 -0.500001
vn 0.866025 0.000000 -0.500001
vn 0.866025 0.000000 -0.500001
vn 0.000001 -0.551845 -0.833947
vn 0.000001 -0.551845 -0.833947
vn 0.000001 -0.551845 -0.833947
vn 0.000001 -0.551845 -0.833947
vn -0.722223 -0.551842 -0.416971
vn -0.722223 -0.551842 -0.416971
vn -0.722223 -0.551842 -0.416971
vn -0.722223 -0.551842 -0.416971
vn -0.722222 -0.551842 0.416972
vn -0.722222 -0.551842 0.416972
vn -0.722222 -0.551842 0.416972
vn -0.722222 -0.551842 0.416972
vn -0.000001 -0.551844 0.833947
vn -0.000001 -0.551844 0.833947
vn -0.000001 -0.551844 0.833947
vn -0.000001 -0.551844 0.833947
vn 0.722218 -0.551848 0.416970
vn 0.722218 -0.551848 0.416970
vn 0.722218 -0.551848 0.416970
vn 0.722218 -0.551848 0.416970
vn 0.722218 -0.551848 -0.416970
vn 0.722218 -0.551848 -0.416971
vn 0.722218 -0.551848 -0.416971
vn 0.722218 -0.551848 -0.416971
vn 0.000001 0.000000 -1.000000
vn 0.000001 0.000000 -1.000000
vn 0.000001 0.000000 -1.000000
vn 0.000001 0.000000 -1.000000
vn -0.866031 0.000000 -0.499991
vn -0.866031 0.000000 -0.499991
vn -0.866031 0.000000 -0.499991
vn -0.866031 0.000000 -0.499991
vn -0.866030 0.000000 0.499992
vn -0.866030 0.000000 0.499992
vn -0.866030 0.000000 0.499992
vn -0.866030 0.000000 0.499992
vn -0.000001 0.000000 1.000000
vn -0.000001 0.000000 1.000000
vn -0.000001 0.000000 1.000000
vn -0.000001 0.000000 1.000000
vn 0.866027 0.000000 0.499997
vn 0.866027 0.000000 0.499997
vn 0.866027 0.000000 0.499997
vn 0.866027 0.000000 0.499997
vn 0.866027 0.000000 -0.499997
vn 0.866027 0.000000 -0.499997
vn 0.866027 0.000000 -0.499997
vn 0.866027 0.000000 -0.499997
vn 0.000000 1.000000 0.000001
vn 0.000000 1.000000 0.000001
vn 0.000000 1.000000 0.000001
vn 0.000000 1.000000 0.000001
vn 0.000000 1.000000 0.000001
vn 0.000000 1.000000 0.000001
vn 0.000000 1.000000 0.000001
vn 0.000000 1.000000 0.000001
vn 0.000000 1.000000 0.000000
vn 0.000000 1.000000 0.000000
vn 0.000000 1.000000 0.000000
vn 0.000000 1.000000 0.000000
vn 0.000000 1.000000 0.000001
vn 0.000000 1.000000 0.000001
vn 0.000000 1.000000 0.000001
vn 0.000000 1.000000 0.000001
vn 0.000000 1.000000 -0.000001
vn 0.000000 1.000000 -0.000001
vn 0.000000 1.000000 -0.000001
vn 0.000000 1.000000 -0.000001
vn 0.000000 1.000000 0.000002
vn 0.000000 1.000000 0.000002
vn 0.000000 1.000000 0.000002
vn 0.000000 1.000000 0.000002
vn 0.000001 -0.000001 -1.000000
vn 0.000001 -0.000001 -1.000000
vn 0.000001 -0.000001 -1.000000
vn 0.000001 -0.000001 -1.000000
vn -0.866027 -0.000000 -0.499997
vn -0.866027 -0.000000 -0.499997
vn -0.866027 -0.000000 -0.499997
vn -0.866027 -0.000000 -0.499997
vn -0.866061 -0.000051 0.499939
vn -0.866061 -0.000051 0.499939
vn -0.866061 -0.000051 0.499939
vn -0.866061 -0.000051 0.499939
vn -0.000001 -0.000000 1.000000
vn -0.000001 -0.000000 1.000000
vn -0.000001 -0.000000 1.000000
vn -0.000001 -0.000000 1.000000
vn 0.865990 0.000045 0.500062
vn 0.865989 0.000045 0.500062
vn 0.865989 0.000045 0.500062
vn 0.865990 0.000045 0.500062
vn 0.866026 -0.000000 -0.500000
vn 0.866026 -0.000000 -0.500000
vn 0.866026 -0.000000 -0.500000
vn 0.866025 -0.000000 -0.500000
vn -0.793936 0.399445 -0.458378
vn -0.793935 0.399445 -0.458378
vn -0.793936 0.399445 -0.458378
vn -0.793935 0.399445 -0.458378
vn -0.793936 0.399446 0.458377
vn -0.793936 0.399446 0.458377
vn -0.793936 0.399446 0.458377
vn -0.793936 0.399446 0.458377
vn -0.000001 0.399446 0.916757
vn -0.000001 0.399446 0.916757
vn -0.000001 0.399446 0.916757
vn -0.000001 0.399446 0.916757
vn 0.793939 0.399440 0.458376
vn 0.793939 0.399440 0.458376
vn 0.793939 0.399440 0.458376
vn 0.793936 0.399444 -0.458378
vn 0.793936 0.399444 -0.458378
vn 0.793936 0.399444 -0.458378
vn 0.793936 0.399444 -0.458378
vn 0.000000 0.399443 -0.916758
vn 0.000000 0.399443 -0.916758
vn 0.000000 0.399443 -0.916758
vn 0.000000 0.399443 -0.916758
vn 0.000000 0.399444 0.916758
vn 0.000000 0.399444 0.916758
vn 0.000000 0.399444 0.916758
vn 0.000000 0.399444 0.916758
vn 0.793937 0.399444 0.458376
vn 0.793937 0.399444 0.458376
vn 0.793937 0.399444 0.458376
vn -0.000003 0.399444 0.916758
vn -0.000003 0.399444 0.916758
vn -0.000003 0.399444 0.916758
vn 0.793935 0.399444 0.458380
vn 0.793935 0.399444 0.458380
vn 0.793935 0.399444 0.458380
vn -0.000005 0.399446 0.916757
vn -0.000005 0.399446 0.916757
vn -0.000005 0.399446 0.916757
vn 0.000000 0.399442 0.916758
vn 0.000000 0.399442 0.916759
vn 0.000000 0.399442 0.916759
vn 0.000000 0.399446 0.916757
vn 0.000000 0.399446 0.916757
vn 0.000000 0.399446 0.916757
vn -0.000001 0.399443 0.916758
vn -0.000001 0.399443 0.916758
vn -0.000001 0.399443 0.916758
vn -0.000001 0.399443 0.916758
vn 0.793934 0.399446 0.458379
vn 0.793934 0.399446 0.458379
vn 0.793934 0.399446 0.458379
vn 0.793934 0.399446 0.458379
vn 0.793935 0.399446 0.458379
vn 0.793935 0.399446 0.458378
vn 0.793935 0.399446 0.458378
vn 0.793935 0.399446 0.458379
vn 0.793937 0.399442 0.458378
vn 0.793937 0.399442 0.458378
vn 0.793937 0.399442 0.458378
vn 0.793937 0.399442 0.458378
vn 0.793936 0.399444 0.458378
vn 0.793936 0.399444 0.458378
vn 0.793936 0.399444 0.458378
vn 0.793936 0.399444 0.458378
vn -0.455719 -0.850349 -0.263110
vn -0.455719 -0.850349 -0.263110
vn -0.455719 -0.850349 -0.263110
vn -0.455719 -0.850349 -0.263110
vn -0.455719 -0.850350 0.263108
vn -0.455719 -0.850350 0.263108
vn -0.455719 -0.850350 0.263108
vn -0.455719 -0.850350 0.263108
vn 0.000001 -0.850349 0.526219
vn 0.000001 -0.850349 0.526219
vn 0.000001 -0.850349 0.526219
vn 0.000001 -0.850349 0.526219
vn 0.455719 -0.850349 0.263109
vn 0.455719 -0.850349 0.263109
vn 0.455719 -0.850349 0.263109
vn 0.455719 -0.850349 0.263109
vn 0.455719 -0.850349 -0.263109
vn 0.455719 -0.850350 -0.263109
vn 0.455719 -0.850349 -0.263109
vn 0.455719 -0.850349 -0.263109
vn 0.000001 -0.850349 -0.526219
vn 0.000001 -0.850349 -0.526219
vn 0.000001 -0.850349 -0.526219
vn 0.000001 -0.850349 -0.526219
s off
f 56/34/1 51/67/2 24/40/3 25/42/4
f 51/67/5 52/68/6 23/39/7 24/40/8
f 23/39/9 52/68/10 53/69/11 22/38/12
f 22/38/13 59/86/14 57/78/15 21/37/16
f 20/36/17 62/91/18 55/71/19
f 25/41/20 20/36/21 55/71/22 56/35/23
f 2/1/24 1/2/25 13/3/26
f 3/4/27 2/1/28 13/3/29
f 4/5/30 3/4/31 13/3/32
f 5/6/33 4/5/34 13/3/35
f 6/7/36 5/6/37 13/3/38
f 1/2/39 6/7/40 13/3/41
f 44/28/42 45/61/43 46/62/44
f 45/61/45 47/63/46 46/62/47
f 47/63/48 48/64/49 46/62/50
f 48/64/51 49/65/52 46/62/53
f 49/65/54 50/66/55 46/62/56
f 50/66/57 44/28/58 46/62/59
f 65/103/60 66/104/61 15/8/62 14/9/63
f 66/104/64 67/105/65 16/10/66 15/8/67
f 67/105/68 68/106/69 17/11/70 16/10/71
f 68/106/72 69/107/73 18/12/74 17/11/75
f 69/107/76 70/108/77 19/13/78 18/12/79
f 70/108/80 65/103/81 14/9/82 19/13/83
f 21/37/84 20/36/85 12/19/86 11/18/87
f 22/38/88 21/37/89 11/18/90 10/17/91
f 23/39/92 22/38/93 10/17/94 9/16/95
f 24/40/96 23/39/97 9/16/98 8/15/99
f 25/42/100 24/40/101 8/15/102 7/14/103
f 20/36/104 25/41/105 7/20/106 12/19/107
f 7/25/108 8/24/109 27/44/110 26/43/111
f 8/24/112 9/23/113 28/45/114 27/44/115
f 9/23/116 10/22/117 29/46/118 28/45/119
f 10/22/120 11/21/121 30/47/122 29/46/123
f 11/21/124 12/26/125 31/48/126 30/47/127
f 12/26/128 7/25/129 26/43/130 31/48/131
f 26/43/132 27/44/133 33/50/134 32/49/135
f 27/44/136 28/45/137 34/51/138 33/50/139
f 28/45/140 29/46/141 35/52/142 34/51/143
f 29/46/144 30/47/145 36/53/146 35/52/147
f 30/47/148 31/48/149 37/54/150 36/53/151
f 31/48/152 26/43/153 32/49/154 37/54/155
f 32/49/156 33/50/157 39/56/158 38/55/159
f 33/50/160 34/51/161 40/57/162 39/56/163
f 34/51/164 35/52/165 41/58/166 40/57/167
f 35/52/168 36/53/169 42/59/170 41/58/171
f 36/53/172 37/54/173 43/60/174 42/59/175
f 37/54/176 32/49/177 38/55/178 43/60/179
f 38/72/180 39/73/181 45/61/182 44/28/183
f 39/73/184 40/74/185 47/63/186 45/61/187
f 40/74/188 41/75/189 48/64/190 47/63/191
f 41/75/192 42/76/193 49/65/194 48/64/195
f 42/76/196 43/77/197 50/66/198 49/65/199
f 43/77/200 38/72/201 44/28/202 50/66/203
f 14/9/204 15/8/205 52/27/206 51/29/207
f 53/30/208 52/27/209 15/8/210 16/10/211
f 60/88/212 61/89/213 58/70/214 54/80/215
f 63/31/216 64/82/217 55/96/218
f 19/13/219 56/33/220 55/32/221 18/12/222
f 19/13/223 14/9/224 51/29/225 56/33/226
f 59/87/227 60/88/228 54/80/229 57/84/230
f 62/81/231 63/83/232 55/85/233
f 16/10/234 61/90/235 53/30/236
f 64/95/237 18/12/238 55/32/239
f 53/69/240 59/86/241 22/38/242
f 53/100/243 60/101/244 59/102/245
f 53/97/246 61/98/247 60/99/248
f 16/10/249 17/11/250 58/79/251 61/90/252
f 57/78/253 62/91/254 20/36/255 21/37/256
f 54/80/257 63/93/258 62/92/259 57/84/260
f 58/70/261 64/94/262 63/93/263 54/80/264
f 17/11/265 18/12/266 64/95/267 58/79/268
f 2/1/269 3/4/270 66/104/271 65/103/272
f 3/4/273 4/5/274 67/105/275 66/104/276
f 4/5/277 5/6/278 68/106/279 67/105/280
f 5/6/281 6/7/282 69/107/283 68/106/284
f 6/7/285 1/2/286 70/108/287 69/107/288
f 1/2/289 2/1/290 65/103/291 70/108/292
