# This file uses centimeters as units for non-parametric coordinates.

v 0.012309 0.000000 -0.022260
v -0.012309 0.000000 -0.022260
v -0.024618 0.000000 -0.000940
v -0.012309 0.000000 0.020379
v 0.012309 0.000000 0.020379
v 0.024618 0.000000 -0.000940
v 0.016042 0.259914 -0.028726
v -0.016042 0.259914 -0.028726
v -0.032084 0.259914 -0.000940
v -0.016042 0.259914 0.026845
v 0.016042 0.259914 0.026845
v 0.032084 0.259914 -0.000940
v 0.000000 0.000000 -0.000940
v -0.016042 0.018161 -0.028726
v -0.032084 0.018161 -0.000940
v -0.016042 0.018161 0.026845
v 0.016042 0.018161 0.026845
v 0.032084 0.018161 -0.000940
v 0.016042 0.018161 -0.028726
v 0.029160 0.213065 -0.000940
v 0.014580 0.213065 0.024314
v -0.014580 0.213065 0.024314
v -0.029161 0.213065 -0.000940
v -0.014580 0.213065 -0.026194
v 0.014580 0.213065 -0.026194
v 0.018967 0.264633 -0.033792
v -0.018967 0.264633 -0.033792
v -0.037934 0.264633 -0.000940
v -0.018967 0.264633 0.031911
v 0.018967 0.264633 0.031911
v 0.037934 0.264633 -0.000940
v 0.018967 0.279405 -0.033792
v -0.018967 0.279405 -0.033792
v -0.037934 0.279405 -0.000940
v -0.018967 0.279405 0.031911
v 0.018967 0.279405 0.031911
v 0.037934 0.279405 -0.000940
v 0.015609 0.283055 -0.027976
v -0.015609 0.283055 -0.027976
v -0.031218 0.283055 -0.000940
v -0.015609 0.283055 0.026096
v 0.015609 0.283055 0.026096
v 0.031218 0.283055 -0.000940
v 0.016970 0.314940 -0.030333
v -0.016970 0.314940 -0.030333
v 0.000000 0.309277 -0.000940
v -0.033940 0.314940 -0.000940
v -0.016970 0.309277 0.028452
v 0.015187 0.304175 0.033792
v 0.032157 0.304175 0.004399
vt 0.455704 0.313993
vt 0.455704 0.313993
vt 0.455704 0.313993
vt 0.455704 0.313993
vt 0.455704 0.313993
vt 0.455704 0.313993
vt 0.455704 0.313993
vt 0.455704 0.313993
vt 0.455704 0.313993
vt 0.455704 0.313993
vt 0.455704 0.313993
vt 0.455704 0.313993
vt 0.455704 0.313993
vt 0.051943 0.327025
vt 0.051943 0.327025
vt 0.051943 0.327025
vt 0.051943 0.327025
vt 0.051943 0.327025
vt 0.051943 0.327025
vt 0.051943 0.327025
vt 0.454609 0.362584
vt 0.454609 0.362584
vt 0.454609 0.362584
vt 0.454609 0.362584
vt 0.454609 0.362584
vt 0.454609 0.362584
vt 0.455704 0.313993
vt 0.454609 0.362584
vt 0.455704 0.313993
vt 0.455704 0.313993
vt 0.455704 0.313993
vt 0.455704 0.313993
vt 0.455704 0.313993
vt 0.455704 0.313993
vt 0.455704 0.313993
vt 0.455704 0.313993
vt 0.455704 0.313993
vt 0.455704 0.313993
vt 0.455704 0.313993
vt 0.455704 0.313993
vt 0.455704 0.313993
vt 0.455704 0.313993
vt 0.454609 0.362584
vt 0.454609 0.362584
vt 0.454609 0.362584
vt 0.454609 0.362584
vt 0.454609 0.362584
vt 0.454609 0.362584
vt 0.454609 0.362584
vt 0.454609 0.362584
vt 0.454609 0.362584
vt 0.454609 0.362584
vt 0.454609 0.362584
vt 0.454609 0.362584
vt 0.454609 0.362584
vt 0.454609 0.362584
vt 0.454609 0.362584
vt 0.454609 0.362584
vt 0.454609 0.362584
vt 0.454609 0.362584
vt 0.454609 0.362584
vt 0.454609 0.362584
vt 0.454609 0.362584
vt 0.454609 0.362584
vt 0.454609 0.362584
vt 0.051943 0.327025
vt 0.051943 0.327025
vt 0.051943 0.327025
vt 0.051943 0.327025
vt 0.051943 0.327025
vt 0.051943 0.327025
vn 0.000000 -0.013115 -0.999914
vn 0.000000 -0.013115 -0.999914
vn 0.000000 -0.000156 -1.000000
vn 0.000000 -0.000156 -1.000000
vn -0.865951 -0.013115 -0.499957
vn -0.865951 -0.013115 -0.499957
vn -0.866026 -0.000156 -0.500000
vn -0.866025 -0.000156 -0.500000
vn -0.865951 -0.013115 0.499957
vn -0.865951 -0.013115 0.499956
vn -0.866026 -0.000156 0.499999
vn -0.866026 -0.000156 0.499999
vn 0.000000 -0.013114 0.999914
vn 0.000000 -0.013114 0.999914
vn 0.000000 -0.000156 1.000000
vn 0.000000 -0.000156 1.000000
vn 0.865951 -0.013115 0.499956
vn 0.865951 -0.013115 0.499957
vn 0.866026 -0.000156 0.499999
vn 0.866026 -0.000156 0.499999
vn 0.865952 -0.013115 -0.499955
vn 0.865952 -0.013114 -0.499955
vn 0.866026 -0.000156 -0.499998
vn 0.866026 -0.000156 -0.499998
vn 0.000000 -1.000000 0.000000
vn 0.000000 -1.000000 0.000000
vn 0.000000 -1.000000 0.000000
vn 0.000000 -1.000000 0.000000
vn 0.000000 -1.000000 0.000000
vn 0.000000 -1.000000 0.000000
vn 0.000000 -1.000000 0.000000
vn 0.000000 -1.000000 0.000000
vn 0.000000 -1.000000 0.000000
vn 0.000000 -1.000000 0.000000
vn 0.000000 -1.000000 0.000000
vn 0.000000 -1.000000 0.000000
vn 0.000000 -1.000000 0.000000
vn 0.000000 -1.000000 0.000000
vn 0.000000 -1.000000 0.000000
vn 0.000000 -1.000000 0.000000
vn 0.000000 -1.000000 0.000000
vn 0.000000 -1.000000 0.000000
vn 0.053446 0.974354 0.218580
vn 0.082288 0.986364 0.142528
vn 0.120693 0.982992 0.138417
vn 0.082288 0.986364 0.142528
vn 0.163839 0.981942 0.094593
vn 0.120693 0.982992 0.138417
vn 0.163839 0.981942 0.094593
vn 0.152416 0.984391 0.087998
vn 0.120693 0.982992 0.138417
vn 0.152416 0.984391 0.087998
vn 0.142808 0.986310 0.082452
vn 0.120693 0.982992 0.138417
vn 0.142808 0.986310 0.082452
vn 0.129015 0.978903 0.158443
vn 0.120693 0.982992 0.138417
vn 0.129015 0.978903 0.158443
vn 0.053446 0.974354 0.218580
vn 0.120693 0.982992 0.138417
vn -0.815857 -0.335416 -0.471035
vn -0.815857 -0.335416 -0.471035
vn -0.865951 -0.013115 -0.499957
vn -0.865951 -0.013115 -0.499957
vn -0.815856 -0.335416 0.471035
vn -0.815857 -0.335416 0.471035
vn -0.865951 -0.013115 0.499956
vn -0.865951 -0.013115 0.499957
vn 0.000000 -0.335415 0.942070
vn 0.000000 -0.335415 0.942071
vn 0.000000 -0.013114 0.999914
vn 0.000000 -0.013114 0.999914
vn 0.815857 -0.335415 0.471035
vn 0.815857 -0.335414 0.471035
vn 0.865951 -0.013115 0.499957
vn 0.865951 -0.013115 0.499956
vn 0.815858 -0.335414 -0.471034
vn 0.815858 -0.335414 -0.471034
vn 0.865952 -0.013114 -0.499955
vn 0.865952 -0.013115 -0.499955
vn 0.000000 -0.335415 -0.942071
vn 0.000000 -0.335415 -0.942071
vn 0.000000 -0.013115 -0.999914
vn 0.000000 -0.013115 -0.999914
vn 0.866026 -0.000156 0.499999
vn 0.866026 -0.000156 0.499999
vn 0.864764 -0.053964 0.499271
vn 0.864764 -0.053964 0.499271
vn 0.000000 -0.000156 1.000000
vn 0.000000 -0.000156 1.000000
vn 0.000000 -0.053964 0.998543
vn 0.000000 -0.053964 0.998543
vn -0.866026 -0.000156 0.499999
vn -0.866026 -0.000156 0.499999
vn -0.864764 -0.053964 0.499271
vn -0.864764 -0.053964 0.499271
vn -0.866025 -0.000156 -0.500000
vn -0.866026 -0.000156 -0.500000
vn -0.864764 -0.053964 -0.499271
vn -0.864764 -0.053964 -0.499271
vn 0.000000 -0.000156 -1.000000
vn 0.000000 -0.000156 -1.000000
vn 0.000000 -0.053964 -0.998543
vn 0.000000 -0.053964 -0.998543
vn 0.866026 -0.000156 -0.499998
vn 0.866026 -0.000156 -0.499998
vn 0.864764 -0.053964 -0.499270
vn 0.864765 -0.053964 -0.499270
vn 0.000000 -0.731711 -0.681615
vn 0.000000 -0.731711 -0.681615
vn 0.000000 -0.731711 -0.681615
vn 0.000000 -0.731712 -0.681615
vn -0.590295 -0.731711 -0.340809
vn -0.590295 -0.731711 -0.340809
vn -0.590295 -0.731711 -0.340809
vn -0.590295 -0.731711 -0.340809
vn -0.590295 -0.731712 0.340807
vn -0.590295 -0.731712 0.340807
vn -0.590295 -0.731712 0.340807
vn -0.590295 -0.731712 0.340807
vn 0.000000 -0.731712 0.681614
vn 0.000000 -0.731712 0.681614
vn 0.000000 -0.731712 0.681614
vn 0.000000 -0.731712 0.681614
vn 0.590289 -0.731718 0.340805
vn 0.590289 -0.731718 0.340805
vn 0.590289 -0.731718 0.340805
vn 0.590289 -0.731718 0.340805
vn 0.590290 -0.731717 -0.340804
vn 0.590290 -0.731717 -0.340804
vn 0.590290 -0.731717 -0.340804
vn 0.590290 -0.731717 -0.340804
vn 0.000000 0.000000 -1.000000
vn 0.000000 0.000000 -1.000000
vn 0.000000 0.000000 -1.000000
vn 0.000000 0.000000 -1.000000
vn -0.866025 0.000000 -0.500000
vn -0.866025 0.000000 -0.500000
vn -0.866025 0.000000 -0.500000
vn -0.866025 0.000000 -0.500000
vn -0.866026 0.000000 0.499999
vn -0.866026 0.000000 0.499999
vn -0.866026 0.000000 0.499999
vn -0.866026 0.000000 0.499999
vn 0.000000 0.000000 1.000000
vn 0.000000 0.000000 1.000000
vn 0.000000 0.000000 1.000000
vn 0.000000 0.000000 1.000000
vn 0.866025 0.000000 0.500001
vn 0.866025 0.000000 0.500001
vn 0.866025 0.000000 0.500001
vn 0.866025 0.000000 0.500001
vn 0.866025 0.000000 -0.500001
vn 0.866025 0.000000 -0.500001
vn 0.866025 0.000000 -0.500001
vn 0.866025 0.000000 -0.500001
vn 0.000000 0.846974 -0.531634
vn 0.000000 0.846974 -0.531634
vn 0.000000 0.846974 -0.531634
vn 0.000000 0.846974 -0.531634
vn -0.460410 0.846973 -0.265818
vn -0.460410 0.846973 -0.265818
vn -0.460410 0.846973 -0.265818
vn -0.460410 0.846973 -0.265818
vn -0.460409 0.846974 0.265817
vn -0.460409 0.846974 0.265817
vn -0.460409 0.846974 0.265817
vn -0.460409 0.846974 0.265817
vn 0.000000 0.846975 0.531633
vn 0.000000 0.846975 0.531633
vn 0.000000 0.846975 0.531633
vn 0.000000 0.846975 0.531633
vn 0.460408 0.846974 0.265819
vn 0.460408 0.846974 0.265819
vn 0.460408 0.846974 0.265819
vn 0.460408 0.846974 0.265819
vn 0.460407 0.846975 -0.265818
vn 0.460407 0.846975 -0.265818
vn 0.460407 0.846975 -0.265818
vn 0.460407 0.846975 -0.265818
vn 0.000000 -0.073717 -0.997279
vn 0.000000 -0.073717 -0.997279
vn 0.000000 -0.073717 -0.997279
vn 0.000000 -0.073717 -0.997279
vn -0.863669 -0.073717 -0.498640
vn -0.863669 -0.073717 -0.498639
vn -0.863669 -0.073717 -0.498640
vn -0.863669 -0.073717 -0.498640
vn -0.866682 -0.080854 0.492265
vn -0.866682 -0.080854 0.492265
vn -0.866682 -0.080854 0.492265
vn -0.866682 -0.080854 0.492265
vn -0.098873 -0.210263 0.972632
vn -0.098873 -0.210263 0.972632
vn -0.098873 -0.210263 0.972632
vn -0.098873 -0.210263 0.972632
vn 0.854484 -0.162707 0.493338
vn 0.854484 -0.162707 0.493338
vn 0.854484 -0.162707 0.493338
vn 0.854485 -0.162707 0.493338
vn 0.893904 -0.013571 -0.448053
vn 0.893904 -0.013571 -0.448053
vn 0.893904 -0.013571 -0.448053
vn 0.893904 -0.013571 -0.448053
s off
f 19/35/1 14/29/2 24/40/3 25/42/4
f 14/29/5 15/30/6 23/39/7 24/40/8
f 15/30/9 16/31/10 22/38/11 23/39/12
f 16/31/13 17/32/14 21/37/15 22/38/16
f 17/32/17 18/33/18 20/36/19 21/37/20
f 18/33/21 19/34/22 25/41/23 20/36/24
f 2/2/25 1/1/26 13/27/27
f 3/3/28 2/2/29 13/27/30
f 4/4/31 3/3/32 13/27/33
f 5/5/34 4/4/35 13/27/36
f 6/6/37 5/5/38 13/27/39
f 1/1/40 6/6/41 13/27/42
f 44/14/43 45/15/44 46/16/45
f 45/15/46 47/17/47 46/16/48
f 47/17/49 48/18/50 46/16/51
f 48/18/52 49/19/53 46/16/54
f 49/19/55 50/20/56 46/16/57
f 50/20/58 44/14/59 46/16/60
f 2/8/61 3/9/62 15/30/63 14/29/64
f 3/9/65 4/10/66 16/31/67 15/30/68
f 4/10/69 5/11/70 17/32/71 16/31/72
f 5/11/73 6/12/74 18/33/75 17/32/76
f 6/12/77 1/13/78 19/34/79 18/33/80
f 1/7/81 2/8/82 14/29/83 19/35/84
f 21/21/85 20/22/86 12/23/87 11/24/88
f 22/25/89 21/21/90 11/24/91 10/26/92
f 23/28/93 22/25/94 10/26/95 9/43/96
f 24/44/97 23/28/98 9/43/99 8/45/100
f 25/46/101 24/44/102 8/45/103 7/47/104
f 20/22/105 25/46/106 7/47/107 12/23/108
f 7/47/109 8/45/110 27/48/111 26/49/112
f 8/45/113 9/43/114 28/50/115 27/48/116
f 9/43/117 10/26/118 29/51/119 28/50/120
f 10/26/121 11/24/122 30/52/123 29/51/124
f 11/24/125 12/23/126 31/53/127 30/52/128
f 12/23/129 7/47/130 26/49/131 31/53/132
f 26/49/133 27/48/134 33/54/135 32/55/136
f 27/48/137 28/50/138 34/56/139 33/54/140
f 28/50/141 29/51/142 35/57/143 34/56/144
f 29/51/145 30/52/146 36/58/147 35/57/148
f 30/52/149 31/53/150 37/59/151 36/58/152
f 31/53/153 26/49/154 32/55/155 37/59/156
f 32/55/157 33/54/158 39/60/159 38/61/160
f 33/54/161 34/56/162 40/62/163 39/60/164
f 34/56/165 35/57/166 41/63/167 40/62/168
f 35/57/169 36/58/170 42/64/171 41/63/172
f 36/58/173 37/59/174 43/65/175 42/64/176
f 37/59/177 32/55/178 38/61/179 43/65/180
f 38/66/181 39/67/182 45/15/183 44/14/184
f 39/67/185 40/68/186 47/17/187 45/15/188
f 40/68/189 41/69/190 48/18/191 47/17/192
f 41/69/193 42/70/194 49/19/195 48/18/196
f 42/70/197 43/71/198 50/20/199 49/19/200
f 43/71/201 38/66/202 44/14/203 50/20/204
