# This file uses centimeters as units for non-parametric coordinates.

v 0.011471 0.075106 -0.037762
v -0.037762 0.075106 0.011471
v -0.062378 -0.015657 0.036087
v -0.037762 -0.106418 0.011471
v 0.011471 -0.106418 -0.037762
v 0.036087 -0.015657 -0.062378
v 0.037766 0.075106 -0.011467
v -0.011467 0.075106 0.037766
v -0.036083 -0.015657 0.062382
v -0.011467 -0.106418 0.037766
v 0.037766 -0.106418 -0.011467
v 0.062382 -0.015657 -0.036083
v 0.039059 -0.831528 0.017864
v -0.014286 -0.831528 -0.035061
v -0.014286 -0.964276 -0.035061
v 0.039059 -0.964276 0.017864
v 0.018749 -0.831528 0.038334
v -0.034595 -0.831528 -0.014584
v -0.034595 -0.964276 -0.014584
v 0.018749 -0.964276 0.038334
v -0.015297 -0.752696 0.035793
v 0.044586 -0.752696 -0.024570
v 0.044579 -0.885445 -0.024555
v -0.015297 -0.885445 0.035793
v -0.035763 -0.752696 0.015484
v 0.024117 -0.752696 -0.044872
v 0.024109 -0.885445 -0.044865
v -0.035763 -0.885445 0.015484
v -0.015297 -0.435358 0.035793
v 0.036247 -0.435358 -0.016163
v 0.036232 -0.568108 -0.016148
v -0.015297 -0.568108 0.035793
v -0.035763 -0.435358 0.015484
v 0.015778 -0.435358 -0.036465
v 0.015766 -0.568108 -0.036457
v -0.035763 -0.568108 0.015484
v -0.022148 -0.594028 0.042698
v 0.036247 -0.594028 -0.016163
v 0.036232 -0.726777 -0.016148
v -0.022148 -0.726777 0.042698
v -0.042614 -0.594028 0.022396
v 0.015778 -0.594028 -0.036465
v 0.015766 -0.726777 -0.036457
v -0.042614 -0.726777 0.022396
v 0.039059 -0.514694 0.017864
v -0.014286 -0.514694 -0.035061
v -0.014286 -0.647441 -0.035061
v 0.039059 -0.647441 0.017864
v 0.018749 -0.514694 0.038334
v -0.034595 -0.514694 -0.014584
v -0.034595 -0.647441 -0.014584
v 0.018749 -0.647441 0.038334
v 0.039059 -0.356026 0.017864
v -0.018265 -0.356026 -0.039013
v -0.018265 -0.488773 -0.039013
v 0.039059 -0.488773 0.017864
v 0.018749 -0.356026 0.038334
v -0.038574 -0.356026 -0.018536
v -0.038574 -0.488773 -0.018536
v 0.018749 -0.488773 0.038334
v 0.035076 -0.673362 0.013912
v -0.018265 -0.673362 -0.039013
v -0.018265 -0.806112 -0.039013
v 0.035076 -0.806112 0.013912
v 0.014767 -0.673362 0.034382
v -0.038574 -0.673362 -0.018536
v -0.038574 -0.806112 -0.018536
v 0.014767 -0.806112 0.034382
v -0.015297 -0.279158 0.035793
v 0.044586 -0.279158 -0.024570
v 0.044579 -0.411907 -0.024555
v -0.015297 -0.411907 0.035793
v -0.035763 -0.279158 0.015484
v 0.024117 -0.279158 -0.044872
v 0.024109 -0.411907 -0.044865
v -0.035763 -0.411907 0.015484
v -0.022148 -0.120490 0.042698
v 0.036247 -0.120490 -0.016163
v 0.036232 -0.253239 -0.016148
v -0.022148 -0.253239 0.042698
v -0.042614 -0.120490 0.022396
v 0.015778 -0.120490 -0.036465
v 0.015766 -0.253239 -0.036457
v -0.042614 -0.253239 0.022396
v 0.035076 -0.041155 0.013912
v -0.014286 -0.041155 -0.035061
v -0.014286 -0.173903 -0.035061
v 0.035076 -0.173903 0.013912
v 0.014767 -0.041155 0.034382
v -0.034595 -0.041155 -0.014584
v -0.034595 -0.173903 -0.014584
v 0.014767 -0.173903 0.034382
v 0.035076 -0.199824 0.013912
v -0.018265 -0.199824 -0.039013
v -0.018265 -0.332574 -0.039013
v 0.035076 -0.332574 0.013912
v 0.014767 -0.199824 0.034382
v -0.038574 -0.199824 -0.018536
v -0.038574 -0.332574 -0.018536
v 0.014767 -0.332574 0.034382
vt 0.429667 0.049817
vt 0.429667 0.049817
vt 0.429667 0.049817
vt 0.429667 0.049817
vt 0.429667 0.049817
vt 0.429667 0.049817
vt 0.429667 0.049817
vt 0.429667 0.049817
vt 0.429667 0.049817
vt 0.429667 0.049817
vt 0.429667 0.049817
vt 0.429667 0.049817
vt 0.429667 0.049817
vt 0.429667 0.049817
vt 0.429667 0.049817
vt 0.429667 0.049817
vt 0.429667 0.049817
vt 0.429667 0.049817
vt 0.429667 0.049817
vt 0.429667 0.049817
vt 0.429667 0.049817
vt 0.429667 0.049817
vt 0.429667 0.049817
vt 0.429667 0.049817
vt 0.442424 0.081738
vt 0.429417 0.081738
vt 0.422914 0.068066
vt 0.429417 0.054393
vt 0.442424 0.054393
vt 0.448927 0.068066
vt 0.448927 0.068066
vt 0.442424 0.081738
vt 0.429417 0.081738
vt 0.422914 0.068066
vt 0.429417 0.054393
vt 0.442424 0.054393
vt 0.425209 0.049817
vt 0.425209 0.049817
vt 0.425209 0.049817
vt 0.425209 0.049817
vt 0.425209 0.049817
vt 0.425209 0.049817
vt 0.425209 0.049817
vt 0.425209 0.049817
vt 0.425209 0.049817
vt 0.425209 0.049817
vt 0.425209 0.049817
vt 0.425209 0.049817
vt 0.425209 0.049817
vt 0.425209 0.049817
vt 0.425209 0.049817
vt 0.425209 0.049817
vt 0.447122 0.081738
vt 0.424779 0.081738
vt 0.424779 0.054393
vt 0.447122 0.054393
vt 0.447122 0.054393
vt 0.447122 0.081738
vt 0.424779 0.081738
vt 0.424779 0.054393
vt 0.465475 0.049817
vt 0.465475 0.049817
vt 0.465475 0.049817
vt 0.465475 0.049817
vt 0.465475 0.049817
vt 0.465475 0.049817
vt 0.465475 0.049817
vt 0.465475 0.049817
vt 0.465475 0.049817
vt 0.465475 0.049817
vt 0.465475 0.049817
vt 0.465475 0.049817
vt 0.465475 0.049817
vt 0.465475 0.049817
vt 0.465475 0.049817
vt 0.465475 0.049817
vt 0.465045 0.054394
vt 0.487387 0.054394
vt 0.487389 0.081738
vt 0.465047 0.081738
vt 0.487389 0.054394
vt 0.487387 0.081738
vt 0.465045 0.081738
vt 0.465045 0.054394
vt 0.425209 0.049817
vt 0.425209 0.049817
vt 0.425209 0.049817
vt 0.425209 0.049817
vt 0.425209 0.049817
vt 0.425209 0.049817
vt 0.425209 0.049817
vt 0.425209 0.049817
vt 0.425209 0.049817
vt 0.425209 0.049817
vt 0.425209 0.049817
vt 0.425209 0.049817
vt 0.425209 0.049817
vt 0.425209 0.049817
vt 0.425209 0.049817
vt 0.425209 0.049817
vt 0.424779 0.054394
vt 0.447121 0.054394
vt 0.447122 0.081738
vt 0.424779 0.081738
vt 0.447122 0.054393
vt 0.447121 0.081738
vt 0.424779 0.081738
vt 0.424779 0.054393
vt 0.465475 0.049817
vt 0.465475 0.049817
vt 0.465475 0.049817
vt 0.465475 0.049817
vt 0.465475 0.049817
vt 0.465475 0.049817
vt 0.465475 0.049817
vt 0.465475 0.049817
vt 0.465475 0.049817
vt 0.465475 0.049817
vt 0.465475 0.049817
vt 0.465475 0.049817
vt 0.465475 0.049817
vt 0.465475 0.049817
vt 0.465475 0.049817
vt 0.465475 0.049817
vt 0.465045 0.054394
vt 0.487387 0.054394
vt 0.487389 0.081738
vt 0.465047 0.081738
vt 0.487246 0.054393
vt 0.487246 0.081738
vt 0.464903 0.081738
vt 0.464905 0.054393
vt 0.425209 0.049817
vt 0.425209 0.049817
vt 0.425209 0.049817
vt 0.425209 0.049817
vt 0.425209 0.049817
vt 0.425209 0.049817
vt 0.425209 0.049817
vt 0.425209 0.049817
vt 0.425209 0.049817
vt 0.425209 0.049817
vt 0.425209 0.049817
vt 0.425209 0.049817
vt 0.425209 0.049817
vt 0.425209 0.049817
vt 0.425209 0.049817
vt 0.425209 0.049817
vt 0.447122 0.081738
vt 0.424779 0.081738
vt 0.424779 0.054393
vt 0.447122 0.054393
vt 0.447122 0.054393
vt 0.447122 0.081738
vt 0.424779 0.081738
vt 0.424779 0.054393
vt 0.465475 0.049817
vt 0.465475 0.049817
vt 0.465475 0.049817
vt 0.465475 0.049817
vt 0.465475 0.049817
vt 0.465475 0.049817
vt 0.465475 0.049817
vt 0.465475 0.049817
vt 0.465475 0.049817
vt 0.465475 0.049817
vt 0.465475 0.049817
vt 0.465475 0.049817
vt 0.465475 0.049817
vt 0.465475 0.049817
vt 0.465475 0.049817
vt 0.465475 0.049817
vt 0.487389 0.081738
vt 0.465045 0.081738
vt 0.465045 0.054393
vt 0.487389 0.054393
vt 0.487389 0.054393
vt 0.487389 0.081738
vt 0.465045 0.081738
vt 0.465045 0.054393
vt 0.425209 0.049817
vt 0.425209 0.049817
vt 0.425209 0.049817
vt 0.425209 0.049817
vt 0.425209 0.049817
vt 0.425209 0.049817
vt 0.425209 0.049817
vt 0.425209 0.049817
vt 0.425209 0.049817
vt 0.425209 0.049817
vt 0.425209 0.049817
vt 0.425209 0.049817
vt 0.425209 0.049817
vt 0.425209 0.049817
vt 0.425209 0.049817
vt 0.425209 0.049817
vt 0.447122 0.081738
vt 0.424779 0.081738
vt 0.424779 0.054393
vt 0.447122 0.054393
vt 0.447122 0.054393
vt 0.447122 0.081738
vt 0.424779 0.081738
vt 0.424779 0.054393
vt 0.425209 0.049817
vt 0.425209 0.049817
vt 0.425209 0.049817
vt 0.425209 0.049817
vt 0.425209 0.049817
vt 0.425209 0.049817
vt 0.425209 0.049817
vt 0.425209 0.049817
vt 0.425209 0.049817
vt 0.425209 0.049817
vt 0.425209 0.049817
vt 0.425209 0.049817
vt 0.425209 0.049817
vt 0.425209 0.049817
vt 0.425209 0.049817
vt 0.425209 0.049817
vt 0.424779 0.054394
vt 0.447121 0.054394
vt 0.447122 0.081738
vt 0.424781 0.081738
vt 0.447122 0.054394
vt 0.447121 0.081738
vt 0.424779 0.081738
vt 0.424779 0.054394
vt 0.425209 0.049817
vt 0.425209 0.049817
vt 0.425209 0.049817
vt 0.425209 0.049817
vt 0.425209 0.049817
vt 0.425209 0.049817
vt 0.425209 0.049817
vt 0.425209 0.049817
vt 0.425209 0.049817
vt 0.425209 0.049817
vt 0.425209 0.049817
vt 0.425209 0.049817
vt 0.425209 0.049817
vt 0.425209 0.049817
vt 0.425209 0.049817
vt 0.425209 0.049817
vt 0.424779 0.054394
vt 0.447121 0.054394
vt 0.447122 0.081738
vt 0.424781 0.081738
vt 0.446980 0.054393
vt 0.446980 0.081738
vt 0.424636 0.081738
vt 0.424638 0.054393
vt 0.465475 0.049817
vt 0.465475 0.049817
vt 0.465475 0.049817
vt 0.465475 0.049817
vt 0.465475 0.049817
vt 0.465475 0.049817
vt 0.465475 0.049817
vt 0.465475 0.049817
vt 0.465475 0.049817
vt 0.465475 0.049817
vt 0.465475 0.049817
vt 0.465475 0.049817
vt 0.465475 0.049817
vt 0.465475 0.049817
vt 0.465475 0.049817
vt 0.465475 0.049817
vt 0.487389 0.081738
vt 0.465045 0.081738
vt 0.465045 0.054393
vt 0.487389 0.054393
vt 0.487389 0.054393
vt 0.487389 0.081738
vt 0.465045 0.081738
vt 0.465045 0.054393
vt 0.425209 0.049817
vt 0.425209 0.049817
vt 0.425209 0.049817
vt 0.425209 0.049817
vt 0.425209 0.049817
vt 0.425209 0.049817
vt 0.425209 0.049817
vt 0.425209 0.049817
vt 0.425209 0.049817
vt 0.425209 0.049817
vt 0.425209 0.049817
vt 0.425209 0.049817
vt 0.425209 0.049817
vt 0.425209 0.049817
vt 0.425209 0.049817
vt 0.425209 0.049817
vt 0.447122 0.081738
vt 0.424779 0.081738
vt 0.424779 0.054393
vt 0.447122 0.054393
vt 0.447122 0.054393
vt 0.447122 0.081738
vt 0.424779 0.081738
vt 0.424779 0.054393
vn 0.000000 1.000000 0.000000
vn 0.000000 1.000000 0.000000
vn 0.000000 1.000000 0.000000
vn 0.000000 1.000000 0.000000
vn -0.660209 0.358117 0.660209
vn -0.660209 0.358117 0.660209
vn -0.660209 0.358117 0.660209
vn -0.660209 0.358117 0.660209
vn -0.660207 -0.358124 0.660207
vn -0.660207 -0.358124 0.660207
vn -0.660207 -0.358124 0.660207
vn -0.660207 -0.358124 0.660207
vn 0.000000 -1.000000 -0.000000
vn 0.000000 -1.000000 -0.000000
vn 0.000000 -1.000000 -0.000000
vn 0.000000 -1.000000 -0.000000
vn 0.660207 -0.358124 -0.660207
vn 0.660207 -0.358124 -0.660207
vn 0.660207 -0.358124 -0.660207
vn 0.660207 -0.358124 -0.660207
vn 0.660209 0.358117 -0.660209
vn 0.660209 0.358117 -0.660209
vn 0.660209 0.358117 -0.660209
vn 0.660209 0.358117 -0.660209
vn -0.707107 0.000000 -0.707107
vn -0.707107 0.000000 -0.707107
vn -0.707107 0.000000 -0.707107
vn -0.707107 0.000000 -0.707107
vn -0.707107 0.000000 -0.707107
vn -0.707107 0.000000 -0.707107
vn 0.707107 0.000000 0.707107
vn 0.707107 0.000000 0.707107
vn 0.707107 0.000000 0.707107
vn 0.707107 0.000000 0.707107
vn 0.707107 0.000000 0.707107
vn 0.707107 0.000000 0.707107
vn 0.000000 1.000000 0.000000
vn 0.000000 1.000000 0.000000
vn 0.000000 1.000000 0.000000
vn 0.000000 1.000000 0.000000
vn -0.710011 0.000000 -0.704191
vn -0.710011 0.000000 -0.704191
vn -0.710011 0.000000 -0.704191
vn -0.710011 0.000000 -0.704191
vn 0.000000 -1.000000 0.000000
vn 0.000000 -1.000000 0.000000
vn 0.000000 -1.000000 0.000000
vn 0.000000 -1.000000 0.000000
vn 0.709880 0.000000 0.704323
vn 0.709880 0.000000 0.704323
vn 0.709880 0.000000 0.704323
vn 0.709880 0.000000 0.704323
vn 0.704309 0.000000 -0.709893
vn 0.704309 0.000000 -0.709893
vn 0.704309 0.000000 -0.709893
vn 0.704309 0.000000 -0.709893
vn -0.704258 0.000000 0.709944
vn -0.704258 0.000000 0.709944
vn -0.704258 0.000000 0.709944
vn -0.704258 0.000000 0.709944
vn 0.000000 1.000000 0.000000
vn 0.000000 1.000000 0.000000
vn 0.000000 1.000000 0.000000
vn 0.000000 1.000000 0.000000
vn 0.704257 -0.000102 -0.709946
vn 0.704256 -0.000102 -0.709946
vn 0.704256 -0.000102 -0.709946
vn 0.704256 -0.000102 -0.709946
vn 0.000000 -1.000000 0.000000
vn 0.000000 -1.000000 0.000000
vn 0.000000 -1.000000 0.000000
vn 0.000000 -1.000000 0.000000
vn -0.704389 0.000000 0.709814
vn -0.704389 0.000000 0.709814
vn -0.704389 0.000000 0.709814
vn -0.704389 0.000000 0.709814
vn 0.709906 0.000020 0.704297
vn 0.709906 0.000020 0.704297
vn 0.709906 0.000020 0.704297
vn 0.709906 0.000020 0.704297
vn -0.709906 0.000000 -0.704297
vn -0.709906 0.000000 -0.704297
vn -0.709906 0.000000 -0.704297
vn -0.709906 0.000000 -0.704297
vn 0.000000 1.000000 -0.000000
vn 0.000000 1.000000 -0.000000
vn 0.000000 1.000000 -0.000000
vn 0.000000 1.000000 -0.000000
vn 0.704290 -0.000132 -0.709913
vn 0.704290 -0.000132 -0.709913
vn 0.704290 -0.000132 -0.709913
vn 0.704290 -0.000132 -0.709913
vn 0.000000 -1.000000 0.000001
vn 0.000000 -1.000000 0.000001
vn 0.000000 -1.000000 0.000001
vn 0.000000 -1.000000 0.000001
vn -0.704389 0.000000 0.709814
vn -0.704389 0.000000 0.709814
vn -0.704389 0.000000 0.709814
vn -0.704389 0.000000 0.709814
vn 0.709916 -0.000000 0.704286
vn 0.709916 -0.000000 0.704286
vn 0.709916 -0.000000 0.704286
vn 0.709916 -0.000000 0.704286
vn -0.709903 0.000010 -0.704299
vn -0.709903 0.000010 -0.704299
vn -0.709903 0.000010 -0.704299
vn -0.709903 0.000010 -0.704299
vn 0.000000 1.000000 -0.000001
vn 0.000000 1.000000 -0.000001
vn 0.000000 1.000000 -0.000001
vn 0.000000 1.000000 -0.000001
vn 0.704289 -0.000132 -0.709913
vn 0.704289 -0.000132 -0.709913
vn 0.704289 -0.000132 -0.709913
vn 0.704289 -0.000132 -0.709913
vn 0.000000 -1.000000 0.000000
vn 0.000000 -1.000000 0.000000
vn 0.000000 -1.000000 0.000000
vn 0.000000 -1.000000 0.000000
vn -0.704256 0.000000 0.709946
vn -0.704256 0.000000 0.709946
vn -0.704256 0.000000 0.709946
vn -0.704256 0.000000 0.709946
vn 0.709908 -0.000000 0.704294
vn 0.709908 -0.000000 0.704294
vn 0.709908 -0.000000 0.704294
vn 0.709908 -0.000000 0.704294
vn -0.709942 0.000010 -0.704260
vn -0.709942 0.000010 -0.704260
vn -0.709942 0.000010 -0.704260
vn -0.709942 0.000010 -0.704260
vn 0.000000 1.000000 0.000000
vn 0.000000 1.000000 0.000000
vn 0.000000 1.000000 0.000000
vn 0.000000 1.000000 0.000000
vn -0.710011 0.000000 -0.704191
vn -0.710011 0.000000 -0.704191
vn -0.710011 0.000000 -0.704191
vn -0.710011 0.000000 -0.704191
vn 0.000000 -1.000000 -0.000000
vn 0.000000 -1.000000 -0.000000
vn 0.000000 -1.000000 -0.000000
vn 0.000000 -1.000000 -0.000000
vn 0.709879 0.000000 0.704323
vn 0.709879 0.000000 0.704323
vn 0.709879 0.000000 0.704323
vn 0.709879 0.000000 0.704323
vn 0.704309 0.000000 -0.709893
vn 0.704309 0.000000 -0.709893
vn 0.704309 0.000000 -0.709893
vn 0.704309 0.000000 -0.709893
vn -0.704258 0.000000 0.709944
vn -0.704258 0.000000 0.709944
vn -0.704258 0.000000 0.709944
vn -0.704258 0.000000 0.709944
vn 0.000000 1.000000 0.000000
vn 0.000000 1.000000 0.000000
vn 0.000000 1.000000 0.000000
vn 0.000000 1.000000 0.000000
vn -0.710011 0.000000 -0.704191
vn -0.710011 0.000000 -0.704191
vn -0.710011 0.000000 -0.704191
vn -0.710011 0.000000 -0.704191
vn 0.000000 -1.000000 -0.000000
vn 0.000000 -1.000000 -0.000000
vn 0.000000 -1.000000 -0.000000
vn 0.000000 -1.000000 -0.000000
vn 0.709879 0.000000 0.704323
vn 0.709879 0.000000 0.704323
vn 0.709879 0.000000 0.704323
vn 0.709879 0.000000 0.704323
vn 0.704338 0.000000 -0.709865
vn 0.704338 0.000000 -0.709865
vn 0.704338 0.000000 -0.709865
vn 0.704338 0.000000 -0.709865
vn -0.704290 0.000000 0.709912
vn -0.704290 0.000000 0.709912
vn -0.704290 0.000000 0.709912
vn -0.704290 0.000000 0.709912
vn 0.000000 1.000000 0.000000
vn 0.000000 1.000000 0.000000
vn 0.000000 1.000000 0.000000
vn 0.000000 1.000000 0.000000
vn -0.710011 0.000000 -0.704191
vn -0.710011 0.000000 -0.704191
vn -0.710011 0.000000 -0.704191
vn -0.710011 0.000000 -0.704191
vn 0.000000 -1.000000 0.000000
vn 0.000000 -1.000000 0.000000
vn 0.000000 -1.000000 0.000000
vn 0.000000 -1.000000 0.000000
vn 0.709879 0.000000 0.704323
vn 0.709879 0.000000 0.704323
vn 0.709879 0.000000 0.704323
vn 0.709879 0.000000 0.704323
vn 0.704335 0.000000 -0.709868
vn 0.704335 0.000000 -0.709868
vn 0.704335 0.000000 -0.709868
vn 0.704335 0.000000 -0.709868
vn -0.704284 0.000000 0.709919
vn -0.704284 0.000000 0.709919
vn -0.704284 0.000000 0.709919
vn -0.704284 0.000000 0.709919
vn 0.000000 1.000000 -0.000000
vn 0.000000 1.000000 -0.000000
vn 0.000000 1.000000 -0.000000
vn 0.000000 1.000000 -0.000000
vn 0.704257 -0.000102 -0.709946
vn 0.704257 -0.000102 -0.709946
vn 0.704257 -0.000102 -0.709946
vn 0.704257 -0.000102 -0.709946
vn 0.000000 -1.000000 0.000000
vn 0.000000 -1.000000 0.000000
vn 0.000000 -1.000000 0.000000
vn 0.000000 -1.000000 0.000000
vn -0.704389 0.000000 0.709814
vn -0.704389 0.000000 0.709814
vn -0.704389 0.000000 0.709814
vn -0.704389 0.000000 0.709814
vn 0.709906 0.000020 0.704297
vn 0.709906 0.000020 0.704297
vn 0.709906 0.000020 0.704297
vn 0.709906 0.000020 0.704297
vn -0.709906 0.000000 -0.704297
vn -0.709906 0.000000 -0.704297
vn -0.709906 0.000000 -0.704297
vn -0.709906 0.000000 -0.704297
vn 0.000000 1.000000 0.000000
vn 0.000000 1.000000 0.000000
vn 0.000000 1.000000 0.000000
vn 0.000000 1.000000 0.000000
vn 0.704290 -0.000132 -0.709913
vn 0.704290 -0.000132 -0.709913
vn 0.704290 -0.000132 -0.709913
vn 0.704290 -0.000132 -0.709913
vn 0.000000 -1.000000 -0.000000
vn 0.000000 -1.000000 -0.000000
vn 0.000000 -1.000000 -0.000000
vn 0.000000 -1.000000 -0.000000
vn -0.704256 0.000000 0.709946
vn -0.704256 0.000000 0.709946
vn -0.704256 0.000000 0.709946
vn -0.704256 0.000000 0.709946
vn 0.709908 -0.000000 0.704294
vn 0.709908 -0.000000 0.704294
vn 0.709908 -0.000000 0.704294
vn 0.709908 -0.000000 0.704294
vn -0.709942 0.000010 -0.704260
vn -0.709942 0.000010 -0.704260
vn -0.709942 0.000010 -0.704260
vn -0.709942 0.000010 -0.704260
vn 0.000000 1.000000 0.000000
vn 0.000000 1.000000 0.000000
vn 0.000000 1.000000 0.000000
vn 0.000000 1.000000 0.000000
vn -0.710011 0.000000 -0.704191
vn -0.710011 0.000000 -0.704191
vn -0.710011 0.000000 -0.704191
vn -0.710011 0.000000 -0.704191
vn 0.000000 -1.000000 -0.000000
vn 0.000000 -1.000000 -0.000000
vn 0.000000 -1.000000 -0.000000
vn 0.000000 -1.000000 -0.000000
vn 0.709879 0.000000 0.704323
vn 0.709879 0.000000 0.704323
vn 0.709879 0.000000 0.704323
vn 0.709879 0.000000 0.704323
vn 0.704303 0.000000 -0.709899
vn 0.704303 0.000000 -0.709899
vn 0.704303 0.000000 -0.709899
vn 0.704303 0.000000 -0.709899
vn -0.704248 0.000000 0.709954
vn -0.704248 0.000000 0.709954
vn -0.704248 0.000000 0.709954
vn -0.704248 0.000000 0.709954
vn 0.000000 1.000000 0.000000
vn 0.000000 1.000000 0.000000
vn 0.000000 1.000000 0.000000
vn 0.000000 1.000000 0.000000
vn -0.710011 0.000000 -0.704191
vn -0.710011 0.000000 -0.704191
vn -0.710011 0.000000 -0.704191
vn -0.710011 0.000000 -0.704191
vn 0.000000 -1.000000 0.000000
vn 0.000000 -1.000000 0.000000
vn 0.000000 -1.000000 0.000000
vn 0.000000 -1.000000 0.000000
vn 0.709879 0.000000 0.704323
vn 0.709879 0.000000 0.704323
vn 0.709879 0.000000 0.704323
vn 0.709879 0.000000 0.704323
vn 0.704335 0.000000 -0.709868
vn 0.704335 0.000000 -0.709868
vn 0.704335 0.000000 -0.709868
vn 0.704335 0.000000 -0.709868
vn -0.704283 0.000000 0.709919
vn -0.704283 0.000000 0.709919
vn -0.704283 0.000000 0.709919
vn -0.704283 0.000000 0.709919
s off
f 1/1/1 2/2/2 8/3/3 7/4/4
f 2/5/5 3/6/6 9/7/7 8/8/8
f 3/9/9 4/10/10 10/11/11 9/12/12
f 4/13/13 5/14/14 11/15/15 10/16/16
f 5/17/17 6/18/18 12/19/19 11/20/20
f 6/21/21 1/22/22 7/23/23 12/24/24
f 5/25/25 4/26/26 3/27/27 2/28/28 1/29/29 6/30/30
f 12/31/31 7/32/32 8/33/33 9/34/34 10/35/35 11/36/36
f 13/37/37 14/38/38 18/39/39 17/40/40
f 18/41/41 14/42/42 15/43/43 19/44/44
f 15/45/45 16/46/46 20/47/47 19/48/48
f 20/49/49 16/50/50 13/51/51 17/52/52
f 16/53/53 15/54/54 14/55/55 13/56/56
f 20/57/57 17/58/58 18/59/59 19/60/60
f 21/61/61 22/62/62 26/63/63 25/64/64
f 26/65/65 22/66/66 23/67/67 27/68/68
f 23/69/69 24/70/70 28/71/71 27/72/72
f 28/73/73 24/74/74 21/75/75 25/76/76
f 24/77/77 23/78/78 22/79/79 21/80/80
f 28/81/81 25/82/82 26/83/83 27/84/84
f 29/85/85 30/86/86 34/87/87 33/88/88
f 34/89/89 30/90/90 31/91/91 35/92/92
f 31/93/93 32/94/94 36/95/95 35/96/96
f 36/97/97 32/98/98 29/99/99 33/100/100
f 32/101/101 31/102/102 30/103/103 29/104/104
f 36/105/105 33/106/106 34/107/107 35/108/108
f 37/109/109 38/110/110 42/111/111 41/112/112
f 42/113/113 38/114/114 39/115/115 43/116/116
f 39/117/117 40/118/118 44/119/119 43/120/120
f 44/121/121 40/122/122 37/123/123 41/124/124
f 40/125/125 39/126/126 38/127/127 37/128/128
f 44/129/129 41/130/130 42/131/131 43/132/132
f 45/133/133 46/134/134 50/135/135 49/136/136
f 50/137/137 46/138/138 47/139/139 51/140/140
f 47/141/141 48/142/142 52/143/143 51/144/144
f 52/145/145 48/146/146 45/147/147 49/148/148
f 48/149/149 47/150/150 46/151/151 45/152/152
f 52/153/153 49/154/154 50/155/155 51/156/156
f 53/157/157 54/158/158 58/159/159 57/160/160
f 58/161/161 54/162/162 55/163/163 59/164/164
f 55/165/165 56/166/166 60/167/167 59/168/168
f 60/169/169 56/170/170 53/171/171 57/172/172
f 56/173/173 55/174/174 54/175/175 53/176/176
f 60/177/177 57/178/178 58/179/179 59/180/180
f 61/181/181 62/182/182 66/183/183 65/184/184
f 66/185/185 62/186/186 63/187/187 67/188/188
f 63/189/189 64/190/190 68/191/191 67/192/192
f 68/193/193 64/194/194 61/195/195 65/196/196
f 64/197/197 63/198/198 62/199/199 61/200/200
f 68/201/201 65/202/202 66/203/203 67/204/204
f 69/205/205 70/206/206 74/207/207 73/208/208
f 74/209/209 70/210/210 71/211/211 75/212/212
f 71/213/213 72/214/214 76/215/215 75/216/216
f 76/217/217 72/218/218 69/219/219 73/220/220
f 72/221/221 71/222/222 70/223/223 69/224/224
f 76/225/225 73/226/226 74/227/227 75/228/228
f 77/229/229 78/230/230 82/231/231 81/232/232
f 82/233/233 78/234/234 79/235/235 83/236/236
f 79/237/237 80/238/238 84/239/239 83/240/240
f 84/241/241 80/242/242 77/243/243 81/244/244
f 80/245/245 79/246/246 78/247/247 77/248/248
f 84/249/249 81/250/250 82/251/251 83/252/252
f 85/253/253 86/254/254 90/255/255 89/256/256
f 90/257/257 86/258/258 87/259/259 91/260/260
f 87/261/261 88/262/262 92/263/263 91/264/264
f 92/265/265 88/266/266 85/267/267 89/268/268
f 88/269/269 87/270/270 86/271/271 85/272/272
f 92/273/273 89/274/274 90/275/275 91/276/276
f 93/277/277 94/278/278 98/279/279 97/280/280
f 98/281/281 94/282/282 95/283/283 99/284/284
f 95/285/285 96/286/286 100/287/287 99/288/288
f 100/289/289 96/290/290 93/291/291 97/292/292
f 96/293/293 95/294/294 94/295/295 93/296/296
f 100/297/297 97/298/298 98/299/299 99/300/300
