# This file uses centimeters as units for non-parametric coordinates.

v 0.063380 0.230207 -0.015282
v 0.061240 0.276089 -0.011372
v 0.076024 0.276089 -0.018768
v 0.061240 0.276089 -0.026157
v 0.063380 0.230207 -0.022434
v 0.070537 0.230207 -0.018860
v -0.033471 0.228123 0.077709
v -0.035882 0.262276 0.075428
v -0.033357 0.262276 0.087467
v -0.025243 0.262276 0.078224
v -0.028321 0.228123 0.079060
v -0.032250 0.228123 0.083538
v -0.057229 0.299151 -0.034744
v -0.059537 0.348634 -0.030529
v -0.043595 0.348634 -0.038506
v -0.059537 0.348634 -0.046471
v -0.057229 0.299151 -0.042465
v -0.049512 0.299151 -0.038609
v -0.007620 0.112649 -0.114628
v -0.095521 0.148105 -0.114628
v -0.139472 0.112649 -0.038506
v -0.095521 0.148105 0.037620
v -0.007620 0.112649 0.037620
v 0.036340 0.148105 -0.038506
v -0.021430 0.339005 -0.090706
v -0.081708 0.339005 -0.090706
v -0.111848 0.339005 -0.038506
v -0.081708 0.312559 0.013699
v -0.021430 0.312559 0.013699
v 0.008716 0.312559 -0.038506
v -0.051568 0.310595 -0.038506
v 0.026685 0.054839 -0.174046
v -0.129823 0.054839 -0.174046
v -0.051568 -0.003883 -0.038506
v -0.208074 0.054839 -0.038506
v -0.129823 0.054839 0.097038
v 0.026685 0.054839 0.097038
v 0.104945 0.054839 -0.038506
v -0.168939 0.054839 -0.073761
v 0.104699 0.122526 -0.087267
v 0.026500 0.139923 -0.087267
v -0.012601 0.139923 -0.019542
v 0.026500 0.122526 0.048178
v 0.104699 0.122526 0.048178
v 0.143800 0.139923 -0.019542
v 0.095738 0.267730 -0.071747
v 0.035460 0.267730 -0.071747
v 0.005321 0.267730 -0.019543
v 0.035460 0.267730 0.032658
v 0.095738 0.228535 0.032658
v 0.125878 0.228535 -0.019543
v 0.065600 0.239319 -0.019543
v 0.136836 0.054839 -0.142937
v -0.005639 0.054839 -0.142937
v 0.065600 -0.003883 -0.019543
v -0.076882 0.054839 -0.019543
v -0.005639 0.054839 0.103844
v 0.136836 0.054839 0.103844
v 0.208074 0.054839 -0.019543
v 0.143546 0.054839 0.061947
v 0.003201 0.119348 0.021240
v -0.067119 0.119348 0.021240
v -0.102289 0.095213 0.082153
v -0.067119 0.119348 0.143044
v 0.003201 0.095213 0.143044
v 0.038368 0.119348 0.082153
v -0.008454 0.264431 0.041428
v -0.055465 0.264431 0.041428
v -0.078977 0.232497 0.082150
v -0.055465 0.232497 0.122856
v -0.008454 0.232497 0.122856
v 0.015056 0.264431 0.082150
v -0.031960 0.236021 0.082150
v 0.035677 0.054839 -0.044006
v -0.109982 0.054839 -0.044006
v -0.031960 -0.003883 0.082150
v -0.144584 0.054839 0.069913
v -0.109982 0.054839 0.208294
v 0.035677 0.054839 0.208294
v 0.108517 0.054839 0.082152
vt 0.109221 0.010735
vt 0.109221 0.010735
vt 0.109221 0.010735
vt 0.109221 0.010735
vt 0.109221 0.010735
vt 0.109221 0.010735
vt 0.109221 0.010735
vt 0.109221 0.010735
vt 0.109221 0.010735
vt 0.109221 0.010735
vt 0.109221 0.010735
vt 0.109221 0.010735
vt 0.109221 0.010735
vt 0.109221 0.010735
vt 0.109221 0.010735
vt 0.109221 0.010735
vt 0.109221 0.010735
vt 0.109221 0.010735
vt 0.109221 0.010735
vt 0.109221 0.010735
vt 0.109221 0.010735
vt 0.109221 0.010735
vt 0.109221 0.010735
vt 0.109221 0.010735
vt 0.109221 0.010735
vt 0.109221 0.010735
vt 0.109221 0.010735
vt 0.040926 0.108546
vt 0.040926 0.113488
vt 0.040926 0.153428
vt 0.040926 0.153428
vt 0.040605 0.108546
vt 0.040605 0.153428
vt 0.040284 0.113488
vt 0.040284 0.148052
vt 0.040284 0.108546
vt 0.040284 0.148052
vt 0.040605 0.113488
vt 0.040605 0.148052
vt 0.041439 0.095661
vt 0.041439 0.095661
vt 0.040605 0.084513
vt 0.040605 0.095661
vt 0.040822 0.095661
vt 0.039771 0.095661
vt 0.039771 0.095661
vt 0.040605 0.095661
vt 0.040605 0.147653
vt 0.040958 0.126436
vt 0.040958 0.129888
vt 0.040958 0.153428
vt 0.040958 0.153428
vt 0.040605 0.129888
vt 0.040605 0.153428
vt 0.040252 0.126436
vt 0.040252 0.153428
vt 0.040252 0.126436
vt 0.040252 0.143339
vt 0.040605 0.129888
vt 0.040605 0.143339
vt 0.041439 0.098629
vt 0.041439 0.098629
vt 0.040605 0.084513
vt 0.040605 0.098629
vt 0.039771 0.098629
vt 0.039771 0.098629
vt 0.040054 0.098629
vt 0.040605 0.098629
vt 0.040605 0.146115
vt 0.040975 0.114575
vt 0.040975 0.114575
vt 0.040975 0.153428
vt 0.040975 0.153428
vt 0.040605 0.110370
vt 0.040605 0.145106
vt 0.040236 0.114575
vt 0.040236 0.145106
vt 0.040236 0.110370
vt 0.040236 0.145106
vt 0.040605 0.114575
vt 0.040605 0.153428
vt 0.041439 0.098805
vt 0.041439 0.098805
vt 0.040605 0.084513
vt 0.040686 0.098805
vt 0.039771 0.098805
vt 0.039771 0.098805
vt 0.040605 0.098805
vt 0.040605 0.146024
vn 0.446686 -0.055236 0.892984
vn 0.446686 -0.055236 0.892984
vn 0.446686 -0.055236 0.892984
vn 0.446686 -0.055236 0.892984
vn 0.000000 1.000000 0.000000
vn 0.000000 1.000000 0.000000
vn 0.000000 1.000000 0.000000
vn 0.446400 -0.051639 -0.893343
vn 0.446400 -0.051639 -0.893343
vn 0.446400 -0.051639 -0.893343
vn 0.446400 -0.051639 -0.893343
vn -0.998914 -0.046592 0.000000
vn -0.998914 -0.046592 0.000000
vn -0.998914 -0.046592 0.000000
vn -0.998914 -0.046592 0.000000
vn -0.977227 -0.055261 0.204875
vn -0.977227 -0.055261 0.204875
vn -0.977227 -0.055261 0.204875
vn -0.977227 -0.055261 0.204875
vn 0.000000 1.000000 0.000000
vn 0.000000 1.000000 0.000000
vn 0.000000 1.000000 0.000000
vn 0.750581 -0.051508 0.658768
vn 0.750581 -0.051508 0.658768
vn 0.750581 -0.051508 0.658768
vn 0.750581 -0.051508 0.658768
vn 0.253735 -0.046563 -0.966152
vn 0.253735 -0.046563 -0.966152
vn 0.253735 -0.046563 -0.966152
vn 0.253735 -0.046563 -0.966152
vn 0.446876 -0.055255 0.892888
vn 0.446876 -0.055255 0.892888
vn 0.446876 -0.055255 0.892888
vn 0.446876 -0.055255 0.892888
vn 0.000000 1.000000 0.000000
vn 0.000000 1.000000 0.000000
vn 0.000000 1.000000 0.000000
vn 0.446390 -0.051504 -0.893355
vn 0.446390 -0.051504 -0.893355
vn 0.446390 -0.051504 -0.893355
vn 0.446390 -0.051504 -0.893355
vn -0.998914 -0.046590 0.000000
vn -0.998914 -0.046590 0.000000
vn -0.998914 -0.046590 0.000000
vn -0.998914 -0.046590 0.000000
vn 0.000000 0.000000 -1.000000
vn 0.000000 0.000000 -1.000000
vn 0.000000 0.000000 -1.000000
vn 0.000000 0.000000 -1.000000
vn -0.866011 0.000000 -0.500026
vn -0.866011 0.000000 -0.500026
vn -0.866011 0.000000 -0.500026
vn -0.866011 0.000000 -0.500026
vn -0.866027 0.000000 0.499998
vn -0.866027 0.000000 0.499998
vn -0.866027 0.000000 0.499998
vn -0.866026 0.000000 0.499998
vn 0.000000 0.000000 1.000000
vn 0.000000 0.000000 1.000000
vn 0.000000 0.000000 1.000000
vn 0.000000 0.000000 1.000000
vn 0.865985 0.000000 0.500069
vn 0.865985 0.000000 0.500069
vn 0.865985 0.000000 0.500069
vn 0.865985 0.000000 0.500069
vn 0.865970 0.000000 -0.500097
vn 0.865970 0.000000 -0.500097
vn 0.865970 0.000000 -0.500097
vn 0.865970 0.000000 -0.500097
vn 0.000000 -0.927001 -0.375058
vn 0.000000 -0.927001 -0.375058
vn 0.000000 -0.927001 -0.375058
vn -0.310428 -0.885942 -0.344588
vn -0.310428 -0.885942 -0.344588
vn -0.310428 -0.885942 -0.344588
vn -0.324815 -0.927001 0.187519
vn -0.324815 -0.927001 0.187519
vn -0.324815 -0.927001 0.187519
vn 0.000000 -0.927005 0.375049
vn 0.000000 -0.927005 0.375049
vn 0.000000 -0.927005 0.375049
vn 0.324800 -0.927004 0.187533
vn 0.324800 -0.927004 0.187533
vn 0.324800 -0.927004 0.187533
vn 0.324800 -0.927003 -0.187539
vn 0.324800 -0.927003 -0.187539
vn 0.324800 -0.927003 -0.187539
vn 0.000000 0.878338 0.478040
vn 0.000000 0.878338 0.478040
vn 0.000000 0.878338 0.478040
vn 0.413972 0.878348 0.239023
vn 0.413972 0.878348 0.239023
vn 0.413972 0.878348 0.239023
vn 0.417052 0.884883 0.207483
vn 0.417052 0.884883 0.207483
vn 0.417052 0.884883 0.207483
vn 0.000000 0.999293 -0.037606
vn 0.000000 0.999293 -0.037606
vn 0.000000 0.999293 -0.037606
vn -0.032566 0.999293 -0.018806
vn -0.032566 0.999293 -0.018806
vn -0.032566 0.999293 -0.018806
vn -0.028837 0.884869 0.464946
vn -0.028837 0.884869 0.464946
vn -0.028837 0.884869 0.464946
vn 0.082815 0.738388 -0.669272
vn 0.082815 0.738388 -0.669272
vn 0.082815 0.738388 -0.669272
vn 0.082815 0.738388 -0.669272
vn -0.714735 0.693632 -0.089601
vn -0.714735 0.693632 -0.089601
vn -0.714735 0.693632 -0.089601
vn -0.621033 0.738372 0.262915
vn -0.621033 0.738372 0.262915
vn -0.621033 0.738372 0.262915
vn -0.621033 0.738372 0.262915
vn 0.082815 0.738388 0.669272
vn 0.082815 0.738388 0.669272
vn 0.082815 0.738388 0.669272
vn 0.082815 0.738388 0.669272
vn 0.538195 0.738380 0.406377
vn 0.538195 0.738380 0.406377
vn 0.538195 0.738380 0.406377
vn 0.538195 0.738380 0.406377
vn 0.538187 0.738379 -0.406389
vn 0.538187 0.738379 -0.406389
vn 0.538187 0.738379 -0.406389
vn 0.538187 0.738379 -0.406389
vn -0.707583 0.650503 -0.275992
vn -0.707583 0.650503 -0.275992
vn -0.707583 0.650503 -0.275992
vn -0.469474 0.712750 -0.521135
vn -0.469474 0.712750 -0.521135
vn -0.469474 0.712750 -0.521135
vn -0.381544 -0.912292 -0.148821
vn -0.381544 -0.912292 -0.148821
vn -0.381544 -0.912292 -0.148821
vn 0.000000 0.000000 -1.000000
vn 0.000000 0.000000 -1.000000
vn 0.000000 0.000000 -1.000000
vn 0.000000 0.000000 -1.000000
vn -0.866027 0.000000 -0.499998
vn -0.866027 0.000000 -0.499998
vn -0.866027 0.000000 -0.499998
vn -0.866027 0.000000 -0.499998
vn -0.866011 0.000000 0.500026
vn -0.866011 0.000000 0.500025
vn -0.866011 0.000000 0.500026
vn -0.866011 0.000000 0.500026
vn 0.000000 0.000000 1.000000
vn 0.000000 0.000000 1.000000
vn 0.000000 0.000000 1.000000
vn 0.000000 0.000000 1.000000
vn 0.866011 0.000000 0.500026
vn 0.866011 0.000000 0.500026
vn 0.866011 0.000000 0.500026
vn 0.866011 0.000000 0.500026
vn 0.866027 0.000000 -0.499998
vn 0.866027 0.000000 -0.499998
vn 0.866026 0.000000 -0.499998
vn 0.866026 0.000000 -0.499998
vn 0.000000 -0.913821 -0.406118
vn 0.000000 -0.913821 -0.406118
vn 0.000000 -0.913820 -0.406118
vn -0.351709 -0.913819 -0.203064
vn -0.351709 -0.913819 -0.203064
vn -0.351709 -0.913819 -0.203064
vn -0.351708 -0.913817 0.203076
vn -0.351708 -0.913817 0.203076
vn -0.351708 -0.913817 0.203076
vn 0.000000 -0.913811 0.406139
vn 0.000000 -0.913811 0.406139
vn 0.000000 -0.913811 0.406139
vn 0.514404 -0.853581 0.082385
vn 0.514404 -0.853581 0.082385
vn 0.514404 -0.853581 0.082385
vn 0.351730 -0.913812 -0.203060
vn 0.351730 -0.913812 -0.203060
vn 0.351730 -0.913812 -0.203060
vn 0.000000 0.878353 0.478013
vn 0.000000 0.878353 0.478013
vn 0.000000 0.878353 0.478013
vn 0.413973 0.878352 0.239006
vn 0.413973 0.878352 0.239006
vn 0.413973 0.878352 0.239006
vn 0.413972 0.878348 -0.239023
vn 0.413972 0.878348 -0.239023
vn 0.413972 0.878348 -0.239023
vn 0.539742 0.830085 -0.140137
vn 0.539742 0.830085 -0.140137
vn 0.539742 0.830085 -0.140137
vn 0.175204 0.979321 0.101161
vn 0.175204 0.979321 0.101161
vn 0.175204 0.979321 0.101161
vn 0.148506 0.830094 0.537485
vn 0.148506 0.830094 0.537485
vn 0.148506 0.830094 0.537485
vn 0.034851 0.526915 -0.849203
vn 0.034851 0.526916 -0.849203
vn 0.034851 0.526916 -0.849203
vn 0.034851 0.526915 -0.849203
vn -0.747113 0.505725 -0.431352
vn -0.747113 0.505725 -0.431352
vn -0.747113 0.505725 -0.431352
vn -0.747113 0.505725 -0.431352
vn -0.717996 0.526905 0.454811
vn -0.717996 0.526905 0.454811
vn -0.717996 0.526905 0.454811
vn -0.717996 0.526905 0.454811
vn 0.000000 0.550237 0.835008
vn 0.000000 0.550237 0.835008
vn 0.000000 0.550237 0.835008
vn 0.000000 0.550237 0.835008
vn 0.713112 0.459208 0.529716
vn 0.713112 0.459208 0.529716
vn 0.713112 0.459208 0.529716
vn 0.718029 0.526890 -0.454776
vn 0.718029 0.526890 -0.454776
vn 0.718029 0.526890 -0.454776
vn 0.718029 0.526890 -0.454776
vn 0.890228 0.432627 0.142576
vn 0.890228 0.432627 0.142576
vn 0.890228 0.432627 0.142576
vn 0.692518 0.468730 0.548371
vn 0.692518 0.468730 0.548371
vn 0.692518 0.468730 0.548371
vn 0.345509 -0.897648 0.273591
vn 0.345508 -0.897648 0.273591
vn 0.345509 -0.897648 0.273591
vn 0.000000 0.000000 -1.000000
vn 0.000000 0.000000 -1.000000
vn 0.000000 0.000000 -1.000000
vn 0.000000 0.000000 -1.000000
vn -0.866015 0.000000 -0.500018
vn -0.866015 0.000000 -0.500017
vn -0.866015 0.000000 -0.500018
vn -0.866015 0.000000 -0.500018
vn -0.865934 0.000000 0.500158
vn -0.865934 0.000000 0.500158
vn -0.865934 0.000000 0.500158
vn -0.865934 0.000000 0.500158
vn 0.000000 0.000000 1.000000
vn 0.000000 0.000000 1.000000
vn 0.000000 0.000000 1.000000
vn 0.000000 0.000000 1.000000
vn 0.865952 0.000000 0.500128
vn 0.865952 0.000000 0.500128
vn 0.865952 0.000000 0.500128
vn 0.865952 0.000000 0.500128
vn 0.866033 0.000000 -0.499987
vn 0.866033 0.000000 -0.499987
vn 0.866033 0.000000 -0.499987
vn 0.866033 0.000000 -0.499987
vn 0.000000 -0.858733 -0.512424
vn 0.000000 -0.858733 -0.512424
vn 0.000000 -0.858733 -0.512424
vn -0.552819 -0.816209 -0.167912
vn -0.552819 -0.816209 -0.167912
vn -0.552819 -0.816209 -0.167912
vn -0.578829 -0.802502 0.144735
vn -0.578829 -0.802502 0.144735
vn -0.578829 -0.802502 0.144735
vn 0.000000 -0.858705 0.512471
vn 0.000000 -0.858705 0.512471
vn 0.000000 -0.858705 0.512471
vn 0.443778 -0.858716 0.256257
vn 0.443777 -0.858716 0.256257
vn 0.443778 -0.858716 0.256257
vn 0.443781 -0.858723 -0.256227
vn 0.443781 -0.858723 -0.256227
vn 0.443781 -0.858723 -0.256227
vn 0.000000 0.820130 0.572177
vn 0.000000 0.820130 0.572177
vn 0.000000 0.820130 0.572177
vn -0.060110 0.802033 0.594247
vn -0.060110 0.802033 0.594247
vn -0.060110 0.802033 0.594247
vn -0.074668 0.996275 0.043127
vn -0.074668 0.996275 0.043127
vn -0.074668 0.996275 0.043127
vn 0.000000 0.996274 0.086241
vn 0.000000 0.996274 0.086241
vn 0.000000 0.996274 0.086241
vn -0.484610 0.801979 0.349261
vn -0.484610 0.801979 0.349261
vn -0.484610 0.801979 0.349261
vn -0.495560 0.820101 0.286102
vn -0.495560 0.820101 0.286102
vn -0.495560 0.820101 0.286102
vn 0.000000 0.645780 -0.763524
vn 0.000000 0.645780 -0.763524
vn 0.000000 0.645780 -0.763524
vn 0.000000 0.645780 -0.763524
vn -0.778724 0.583459 -0.230574
vn -0.778724 0.583459 -0.230574
vn -0.778724 0.583459 -0.230574
vn -0.778724 0.583459 -0.230574
vn -0.805193 0.552994 0.214152
vn -0.805194 0.552994 0.214152
vn -0.805194 0.552994 0.214152
vn -0.805194 0.552994 0.214152
vn 0.073402 0.696572 0.713722
vn 0.073402 0.696572 0.713722
vn 0.073402 0.696572 0.713722
vn 0.073402 0.696572 0.713722
vn 0.581377 0.696554 0.420491
vn 0.581377 0.696554 0.420491
vn 0.581377 0.696554 0.420491
vn 0.581377 0.696554 0.420491
vn 0.661226 0.645783 -0.381765
vn 0.661225 0.645783 -0.381765
vn 0.661226 0.645783 -0.381765
vn 0.661225 0.645783 -0.381765
s off
f 1/1/1 6/2/2 3/3/3 2/4/4
f 2/4/5 3/3/6 4/5/7
f 4/5/8 3/3/9 6/6/10 5/7/11
f 5/8/12 1/1/13 2/4/14 4/9/15
f 7/10/16 12/11/17 9/12/18 8/13/19
f 8/13/20 9/12/21 10/14/22
f 10/14/23 9/12/24 12/15/25 11/16/26
f 11/17/27 7/10/28 8/13/29 10/18/30
f 13/19/31 18/20/32 15/21/33 14/22/34
f 14/22/35 15/21/36 16/23/37
f 16/23/38 15/21/39 18/24/40 17/25/41
f 17/26/42 13/19/43 14/22/44 16/27/45
f 19/28/46 20/29/47 26/30/48 25/31/49
f 20/29/50 21/32/51 27/33/52 26/30/53
f 21/32/54 22/34/55 28/35/56 27/33/57
f 22/34/58 23/36/59 29/37/60 28/35/61
f 23/36/62 24/38/63 30/39/64 29/37/65
f 24/38/66 19/28/67 25/31/68 30/39/69
f 33/40/70 32/41/71 34/42/72
f 35/43/73 39/44/74 34/42/75
f 36/45/76 35/43/77 34/42/78
f 37/46/79 36/45/80 34/42/81
f 38/47/82 37/46/83 34/42/84
f 32/41/85 38/47/86 34/42/87
f 25/31/88 26/30/89 31/48/90
f 26/30/91 27/33/92 31/48/93
f 27/33/94 28/35/95 31/48/96
f 28/35/97 29/37/98 31/48/99
f 29/37/100 30/39/101 31/48/102
f 30/39/103 25/31/104 31/48/105
f 20/29/106 19/28/107 32/41/108 33/40/109
f 21/32/110 20/29/111 39/44/112
f 22/34/113 21/32/114 35/43/115 36/45/116
f 23/36/117 22/34/118 36/45/119 37/46/120
f 24/38/121 23/36/122 37/46/123 38/47/124
f 19/28/125 24/38/126 38/47/127 32/41/128
f 39/44/129 20/29/130 33/40/131
f 21/32/132 39/44/133 35/43/134
f 34/42/135 39/44/136 33/40/137
f 40/49/138 41/50/139 47/51/140 46/52/141
f 41/50/142 42/53/143 48/54/144 47/51/145
f 42/53/146 43/55/147 49/56/148 48/54/149
f 43/55/150 44/57/151 50/58/152 49/56/153
f 44/57/154 45/59/155 51/60/156 50/58/157
f 45/59/158 40/49/159 46/52/160 51/60/161
f 54/61/162 53/62/163 55/63/164
f 56/64/165 54/61/166 55/63/167
f 57/65/168 56/64/169 55/63/170
f 58/66/171 57/65/172 55/63/173
f 55/63/174 60/67/175 58/66/176
f 53/62/177 59/68/178 55/63/179
f 46/52/180 47/51/181 52/69/182
f 47/51/183 48/54/184 52/69/185
f 48/54/186 49/56/187 52/69/188
f 49/56/189 50/58/190 52/69/191
f 50/58/192 51/60/193 52/69/194
f 51/60/195 46/52/196 52/69/197
f 41/50/198 40/49/199 53/62/200 54/61/201
f 42/53/202 41/50/203 54/61/204 56/64/205
f 43/55/206 42/53/207 56/64/208 57/65/209
f 44/57/210 43/55/211 57/65/212 58/66/213
f 45/59/214 44/57/215 60/67/216
f 40/49/217 45/59/218 59/68/219 53/62/220
f 60/67/221 44/57/222 58/66/223
f 45/59/224 60/67/225 59/68/226
f 59/68/227 60/67/228 55/63/229
f 61/70/230 62/71/231 68/72/232 67/73/233
f 62/71/234 63/74/235 69/75/236 68/72/237
f 63/74/238 64/76/239 70/77/240 69/75/241
f 64/76/242 65/78/243 71/79/244 70/77/245
f 65/78/246 66/80/247 72/81/248 71/79/249
f 66/80/250 61/70/251 67/73/252 72/81/253
f 75/82/254 74/83/255 76/84/256
f 77/85/257 75/82/258 76/84/259
f 78/86/260 77/85/261 76/84/262
f 79/87/263 78/86/264 76/84/265
f 80/88/266 79/87/267 76/84/268
f 74/83/269 80/88/270 76/84/271
f 67/73/272 68/72/273 73/89/274
f 68/72/275 69/75/276 73/89/277
f 69/75/278 70/77/279 73/89/280
f 70/77/281 71/79/282 73/89/283
f 71/79/284 72/81/285 73/89/286
f 72/81/287 67/73/288 73/89/289
f 62/71/290 61/70/291 74/83/292 75/82/293
f 63/74/294 62/71/295 75/82/296 77/85/297
f 64/76/298 63/74/299 77/85/300 78/86/301
f 65/78/302 64/76/303 78/86/304 79/87/305
f 66/80/306 65/78/307 79/87/308 80/88/309
f 61/70/310 66/80/311 80/88/312 74/83/313
