# This file uses centimeters as units for non-parametric coordinates.

v 0.071894 0.000000 -0.073585
v -0.000407 0.000000 -0.103533
v -0.072708 0.000000 -0.073585
v -0.102656 0.000000 -0.001283
v -0.072708 0.000000 0.071017
v -0.000407 0.000000 0.100966
v 0.066326 0.003841 0.070812
v 0.101842 0.000000 -0.001283
v 0.113052 0.052352 -0.114742
v -0.004969 0.068507 -0.167063
v -0.113866 0.052352 -0.114742
v -0.160862 0.052352 -0.001283
v -0.114786 0.040592 0.112340
v -0.000407 0.052352 0.159172
v 0.113052 0.052352 0.112175
v 0.160862 0.039220 -0.001428
v -0.000407 0.000000 -0.001283
v 0.165711 0.678883 -0.166027
v -0.000655 0.686371 -0.234938
v -0.167021 0.678883 -0.166027
v -0.235932 0.686371 0.000340
v -0.167021 0.678883 0.166706
v -0.000655 0.686371 0.235617
v 0.165711 0.678883 0.166706
v 0.234622 0.686371 0.000340
v 0.095373 0.797159 -0.095688
v -0.000655 0.808293 -0.135466
v -0.096683 0.797159 -0.095688
v -0.136459 0.808293 0.000340
v -0.096683 0.797159 0.096367
v -0.000655 0.808293 0.136143
v 0.095373 0.797159 0.096367
v 0.135149 0.808293 0.000340
v 0.123948 0.924003 -0.122747
v -0.000655 0.936694 -0.169432
v -0.119587 0.936444 -0.122852
v -0.170858 0.936694 0.000771
v -0.121006 0.936694 0.121120
v 0.000023 0.923295 0.176266
v 0.119696 0.936694 0.121120
v 0.169548 0.936694 0.000771
v 0.099558 0.954331 -0.098192
v -0.000655 0.965684 -0.135296
v -0.095796 0.965460 -0.098287
v -0.137000 0.965684 0.001049
v -0.097065 0.965684 0.097458
v -0.000049 0.953698 0.142128
v 0.095755 0.965684 0.097458
v 0.135690 0.965684 0.001049
v 0.076543 0.804666 -0.076860
v -0.000655 0.804666 -0.108835
v -0.077853 0.804666 -0.076860
v -0.109829 0.804666 0.000340
v -0.077853 0.804666 0.077538
v -0.000655 0.804666 0.109514
v 0.076543 0.804666 0.077538
v 0.108519 0.804666 0.000340
v 0.128138 0.415907 -0.128453
v -0.000655 0.415907 -0.181800
v -0.000655 0.086053 0.000340
v -0.129448 0.415907 -0.128453
v -0.182796 0.415907 0.000340
v -0.129448 0.415907 0.129132
v -0.000655 0.415907 0.182477
v 0.128138 0.415907 0.129132
v 0.181485 0.415907 0.000340
v 0.178517 0.484103 0.179443
v -0.000610 0.484103 0.253639
v -0.181116 0.472342 0.179691
v -0.253934 0.484103 0.000316
v -0.179737 0.484103 -0.178811
v -0.003250 0.501792 -0.253640
v 0.178517 0.484103 -0.178811
v 0.253934 0.470971 0.000100
v 0.156526 0.268088 -0.157447
v 0.222680 0.253988 -0.000568
v 0.156526 0.268088 0.156699
v -0.000546 0.268088 0.221760
v -0.158853 0.255461 0.156919
v -0.222680 0.268088 -0.000373
v -0.157618 0.268088 -0.157447
v -0.004412 0.286257 -0.225706
vt 0.023462 0.304063
vt 0.023462 0.304063
vt 0.023462 0.304063
vt 0.023462 0.304063
vt 0.023462 0.304063
vt 0.023462 0.304063
vt 0.023462 0.304063
vt 0.023462 0.304063
vt 0.023462 0.304063
vt 0.023462 0.304063
vt 0.023462 0.304063
vt 0.023462 0.304063
vt 0.023462 0.304063
vt 0.023462 0.304063
vt 0.023462 0.304063
vt 0.023462 0.304063
vt 0.023462 0.304063
vt 0.023462 0.304063
vt 0.023462 0.304063
vt 0.023462 0.304063
vt 0.023462 0.304063
vt 0.023462 0.304063
vt 0.023462 0.304063
vt 0.023462 0.304063
vt 0.023462 0.304063
vt 0.023462 0.304063
vt 0.023462 0.304063
vt 0.023462 0.304063
vt 0.023462 0.304063
vt 0.023462 0.304063
vt 0.023462 0.304063
vt 0.023462 0.304063
vt 0.023462 0.304063
vt 0.023462 0.304063
vt 0.023462 0.304063
vt 0.023462 0.304063
vt 0.023462 0.304063
vt 0.023462 0.304063
vt 0.023462 0.304063
vt 0.023462 0.304063
vt 0.023462 0.304063
vt 0.023462 0.304063
vt 0.023462 0.304063
vt 0.023462 0.304063
vt 0.023462 0.304063
vt 0.023462 0.304063
vt 0.023462 0.304063
vt 0.023462 0.304063
vt 0.023462 0.304063
vt 0.023462 0.304063
vt 0.023462 0.304063
vt 0.023462 0.304063
vt 0.023462 0.304063
vt 0.023462 0.304063
vt 0.023462 0.304063
vt 0.023462 0.304063
vt 0.023462 0.304063
vt 0.023462 0.304063
vt 0.023462 0.304063
vt 0.023462 0.304063
vt 0.023462 0.304063
vt 0.023462 0.304063
vt 0.023462 0.304063
vt 0.023462 0.304063
vt 0.023462 0.304063
vt 0.023462 0.304063
vt 0.023462 0.304063
vt 0.023462 0.304063
vt 0.023462 0.304063
vt 0.023462 0.304063
vt 0.023462 0.304063
vt 0.023462 0.304063
vt 0.023462 0.304063
vt 0.023462 0.304063
vt 0.023462 0.304063
vt 0.023462 0.304063
vt 0.023462 0.304063
vt 0.023462 0.304063
vt 0.023462 0.304063
vt 0.023462 0.304063
vt 0.023462 0.304063
vt 0.023462 0.304063
vt 0.023462 0.304063
vt 0.023462 0.304063
vt 0.023462 0.304063
vt 0.023462 0.304063
vt 0.023462 0.304063
vt 0.023462 0.304063
vt 0.023462 0.304063
vt 0.023462 0.304063
vt 0.023462 0.304063
vt 0.023462 0.304063
vn 0.243251 -0.676099 -0.695499
vn 0.243251 -0.676099 -0.695499
vn 0.243251 -0.676099 -0.695499
vn 0.243251 -0.676099 -0.695499
vn -0.249111 -0.686211 -0.683416
vn -0.249111 -0.686211 -0.683416
vn -0.249111 -0.686211 -0.683416
vn -0.249111 -0.686211 -0.683416
vn -0.644463 -0.716525 -0.266946
vn -0.644463 -0.716525 -0.266946
vn -0.644463 -0.716525 -0.266946
vn -0.644463 -0.716525 -0.266946
vn -0.618563 -0.758534 0.204951
vn -0.618563 -0.758535 0.204951
vn -0.618563 -0.758535 0.204951
vn -0.618563 -0.758534 0.204951
vn -0.207106 -0.757170 0.619517
vn -0.207105 -0.757170 0.619516
vn -0.207105 -0.757170 0.619516
vn -0.207106 -0.757170 0.619517
vn 0.279250 -0.736988 0.615523
vn 0.279250 -0.736988 0.615523
vn 0.279250 -0.736988 0.615523
vn 0.279250 -0.736988 0.615523
vn 0.532210 -0.787505 0.310787
vn 0.532210 -0.787505 0.310787
vn 0.532210 -0.787505 0.310787
vn 0.532210 -0.787505 0.310787
vn 0.575527 -0.762698 -0.295060
vn 0.575527 -0.762698 -0.295060
vn 0.575527 -0.762698 -0.295060
vn 0.575527 -0.762698 -0.295060
vn 0.000000 -1.000000 0.000000
vn 0.000000 -1.000000 0.000000
vn 0.000000 -1.000000 0.000000
vn 0.000000 -1.000000 0.000000
vn 0.000000 -1.000000 0.000000
vn 0.000000 -1.000000 0.000000
vn 0.000000 -1.000000 0.000000
vn 0.000000 -1.000000 0.000000
vn 0.000000 -1.000000 0.000000
vn 0.000000 -1.000000 0.000000
vn 0.000000 -1.000000 0.000000
vn 0.000000 -1.000000 0.000000
vn 0.000000 -1.000000 0.000000
vn 0.000000 -1.000000 0.000000
vn 0.000000 -1.000000 0.000000
vn 0.057459 -0.998348 0.000000
vn 0.057459 -0.998348 0.000000
vn 0.057459 -0.998348 0.000000
vn 0.000000 -0.998584 0.053198
vn 0.000000 -0.998584 0.053198
vn 0.000000 -0.998584 0.053198
vn 0.000000 -1.000000 0.000000
vn 0.000000 -1.000000 0.000000
vn 0.000000 -1.000000 0.000000
vn -0.340886 0.454432 0.822975
vn -0.340886 0.454432 0.822975
vn -0.340886 0.454432 0.822975
vn 0.340886 0.454432 0.822975
vn 0.340886 0.454432 0.822975
vn 0.340886 0.454432 0.822975
vn 0.822975 0.454433 0.340886
vn 0.822975 0.454433 0.340886
vn 0.822975 0.454433 0.340886
vn 0.822973 0.454433 -0.340888
vn 0.822974 0.454433 -0.340888
vn 0.822974 0.454433 -0.340888
vn 0.340876 0.454430 -0.822980
vn 0.340876 0.454430 -0.822980
vn 0.340876 0.454430 -0.822980
vn -0.340876 0.454430 -0.822980
vn -0.340876 0.454430 -0.822980
vn -0.340876 0.454430 -0.822980
vn -0.822973 0.454433 -0.340888
vn -0.822973 0.454433 -0.340888
vn -0.822974 0.454433 -0.340888
vn -0.822975 0.454433 0.340886
vn -0.822975 0.454433 0.340886
vn -0.822975 0.454433 0.340886
vn 0.340458 0.607223 -0.717892
vn 0.340458 0.607223 -0.717892
vn 0.340458 0.607223 -0.717892
vn 0.340458 0.607223 -0.717892
vn -0.340458 0.607223 -0.717892
vn -0.340458 0.607223 -0.717892
vn -0.340458 0.607223 -0.717892
vn -0.340458 0.607223 -0.717892
vn -0.717893 0.607223 -0.340455
vn -0.717893 0.607224 -0.340456
vn -0.717893 0.607224 -0.340455
vn -0.717893 0.607224 -0.340456
vn -0.717893 0.607224 0.340455
vn -0.717893 0.607224 0.340455
vn -0.717893 0.607224 0.340455
vn -0.717893 0.607224 0.340455
vn -0.340452 0.607226 0.717891
vn -0.340452 0.607226 0.717891
vn -0.340453 0.607226 0.717891
vn -0.340453 0.607226 0.717891
vn 0.340452 0.607226 0.717891
vn 0.340452 0.607226 0.717891
vn 0.340452 0.607226 0.717891
vn 0.340452 0.607226 0.717892
vn 0.717893 0.607224 0.340456
vn 0.717893 0.607224 0.340456
vn 0.717893 0.607224 0.340455
vn 0.717893 0.607224 0.340456
vn 0.717893 0.607224 -0.340455
vn 0.717893 0.607224 -0.340455
vn 0.717893 0.607224 -0.340455
vn 0.717893 0.607224 -0.340455
vn 0.328952 -0.254268 -0.909472
vn 0.328952 -0.254268 -0.909472
vn 0.328952 -0.254268 -0.909472
vn 0.328952 -0.254268 -0.909472
vn -0.351341 -0.236908 -0.905778
vn -0.351341 -0.236908 -0.905778
vn -0.351341 -0.236908 -0.905778
vn -0.351341 -0.236908 -0.905778
vn -0.903263 -0.229560 -0.362517
vn -0.903263 -0.229560 -0.362517
vn -0.903263 -0.229560 -0.362517
vn -0.903263 -0.229560 -0.362517
vn -0.902853 -0.231904 0.362046
vn -0.902853 -0.231904 0.362046
vn -0.902853 -0.231904 0.362046
vn -0.902853 -0.231904 0.362046
vn -0.389039 -0.261298 0.883387
vn -0.389039 -0.261298 0.883387
vn -0.389039 -0.261298 0.883387
vn -0.389039 -0.261298 0.883387
vn 0.390895 -0.263200 0.882002
vn 0.390895 -0.263200 0.882002
vn 0.390895 -0.263200 0.882002
vn 0.390895 -0.263200 0.882002
vn 0.902853 -0.231904 0.362046
vn 0.902853 -0.231904 0.362046
vn 0.902853 -0.231904 0.362046
vn 0.902853 -0.231904 0.362046
vn 0.909506 -0.258364 -0.325649
vn 0.909506 -0.258364 -0.325649
vn 0.909506 -0.258364 -0.325649
vn 0.909506 -0.258364 -0.325649
vn 0.305792 0.730226 -0.610951
vn 0.305792 0.730226 -0.610951
vn 0.305792 0.730226 -0.610951
vn 0.305792 0.730226 -0.610951
vn -0.626352 0.734425 -0.261348
vn -0.626352 0.734426 -0.261348
vn -0.626352 0.734426 -0.261348
vn -0.626352 0.734425 -0.261348
vn -0.629150 0.732294 0.260607
vn -0.629150 0.732294 0.260607
vn -0.629150 0.732294 0.260607
vn -0.629150 0.732294 0.260607
vn -0.215572 0.724155 0.655079
vn -0.215572 0.724155 0.655079
vn -0.215572 0.724155 0.655079
vn -0.215572 0.724155 0.655079
vn 0.217620 0.724487 0.654034
vn 0.217620 0.724487 0.654034
vn 0.217620 0.724487 0.654034
vn 0.217620 0.724487 0.654034
vn 0.629150 0.732294 0.260606
vn 0.629150 0.732294 0.260606
vn 0.629150 0.732294 0.260606
vn 0.629150 0.732294 0.260606
vn 0.613172 0.729243 -0.303685
vn 0.613172 0.729244 -0.303685
vn 0.613172 0.729243 -0.303685
vn 0.613172 0.729244 -0.303685
vn -0.348362 0.167675 0.922241
vn -0.348362 0.167675 0.922241
vn -0.348362 0.167675 0.922241
vn -0.348362 0.167675 0.922241
vn 0.913059 0.152351 0.378303
vn 0.913059 0.152351 0.378303
vn 0.913059 0.152351 0.378303
vn 0.913059 0.152351 0.378303
vn 0.912617 0.155661 -0.378021
vn 0.912617 0.155661 -0.378021
vn 0.912617 0.155661 -0.378021
vn 0.912617 0.155661 -0.378021
vn 0.406534 0.176291 -0.896466
vn 0.406534 0.176291 -0.896466
vn 0.406534 0.176291 -0.896466
vn 0.406534 0.176291 -0.896466
vn -0.408883 0.177800 -0.895099
vn -0.408883 0.177800 -0.895099
vn -0.408883 0.177800 -0.895099
vn -0.408883 0.177800 -0.895099
vn -0.912617 0.155661 -0.378021
vn -0.912617 0.155661 -0.378021
vn -0.912617 0.155661 -0.378021
vn -0.912617 0.155661 -0.378021
vn -0.922681 0.171952 0.345098
vn -0.922681 0.171952 0.345098
vn -0.922681 0.171952 0.345098
vn -0.922681 0.171952 0.345098
vn -0.377050 -0.170849 0.910299
vn -0.377050 -0.170849 0.910299
vn -0.377050 -0.170849 0.910299
vn -0.377050 -0.170849 0.910299
vn 0.377050 -0.170849 0.910299
vn 0.377050 -0.170849 0.910299
vn 0.377050 -0.170849 0.910299
vn 0.377050 -0.170849 0.910299
vn 0.910297 -0.170852 0.377052
vn 0.910297 -0.170852 0.377052
vn 0.910297 -0.170852 0.377052
vn 0.910297 -0.170852 0.377052
vn 0.910295 -0.170853 -0.377057
vn 0.910295 -0.170853 -0.377057
vn 0.910295 -0.170853 -0.377057
vn 0.910295 -0.170853 -0.377057
vn 0.377050 -0.170849 -0.910299
vn 0.377050 -0.170849 -0.910299
vn 0.377050 -0.170849 -0.910299
vn 0.377050 -0.170849 -0.910299
vn -0.377050 -0.170849 -0.910299
vn -0.377050 -0.170849 -0.910299
vn -0.377050 -0.170849 -0.910299
vn -0.377050 -0.170849 -0.910299
vn -0.910295 -0.170853 -0.377057
vn -0.910295 -0.170853 -0.377057
vn -0.910295 -0.170853 -0.377057
vn -0.910295 -0.170853 -0.377057
vn -0.910297 -0.170852 0.377052
vn -0.910298 -0.170852 0.377052
vn -0.910298 -0.170852 0.377052
vn -0.910297 -0.170852 0.377052
vn -0.903081 -0.258310 0.343104
vn -0.903081 -0.258310 0.343104
vn -0.903081 -0.258310 0.343104
vn -0.903081 -0.258310 0.343104
vn -0.893469 -0.254458 -0.370086
vn -0.893469 -0.254458 -0.370086
vn -0.893469 -0.254458 -0.370086
vn -0.893469 -0.254458 -0.370086
vn -0.378257 -0.246316 -0.892328
vn -0.378257 -0.246316 -0.892328
vn -0.378257 -0.246316 -0.892328
vn -0.378257 -0.246316 -0.892328
vn 0.358730 -0.246900 -0.900196
vn 0.358730 -0.246900 -0.900196
vn 0.358730 -0.246900 -0.900196
vn 0.358730 -0.246900 -0.900196
vn 0.881667 -0.254273 -0.397502
vn 0.881667 -0.254273 -0.397502
vn 0.881667 -0.254273 -0.397502
vn 0.881667 -0.254273 -0.397502
vn 0.881182 -0.257328 0.396612
vn 0.881182 -0.257328 0.396612
vn 0.881182 -0.257328 0.396612
vn 0.881182 -0.257328 0.396612
vn -0.345964 -0.259887 0.901536
vn -0.345964 -0.259887 0.901536
vn -0.345964 -0.259887 0.901536
vn -0.345964 -0.259887 0.901536
vn 0.369661 -0.258672 0.892435
vn 0.369661 -0.258672 0.892435
vn 0.369661 -0.258672 0.892435
vn 0.369661 -0.258672 0.892435
vn 0.366837 0.156901 0.916959
vn 0.366837 0.156901 0.916959
vn 0.366837 0.156901 0.916959
vn 0.366837 0.156901 0.916959
vn -0.247075 0.737450 -0.628587
vn -0.247075 0.737450 -0.628587
vn -0.247075 0.737450 -0.628587
vn -0.247075 0.737450 -0.628587
vn 0.382886 0.083664 0.919999
vn 0.382886 0.083664 0.919999
vn 0.382886 0.083664 0.919999
vn 0.382886 0.083664 0.919999
vn -0.383436 0.082945 0.919835
vn -0.383436 0.082945 0.919835
vn -0.383436 0.082945 0.919835
vn -0.383436 0.082945 0.919835
vn -0.920320 0.084367 0.381960
vn -0.920320 0.084367 0.381960
vn -0.920320 0.084367 0.381960
vn -0.920320 0.084367 0.381960
vn -0.920010 0.083526 -0.382891
vn -0.920010 0.083526 -0.382891
vn -0.920010 0.083526 -0.382891
vn -0.920010 0.083526 -0.382891
vn -0.390735 0.091789 -0.915915
vn -0.390735 0.091789 -0.915915
vn -0.390735 0.091789 -0.915915
vn -0.390735 0.091789 -0.915915
vn 0.385549 0.086620 -0.918613
vn 0.385549 0.086620 -0.918613
vn 0.385549 0.086620 -0.918613
vn 0.385549 0.086620 -0.918613
vn 0.919851 0.084189 -0.383128
vn 0.919851 0.084189 -0.383128
vn 0.919851 0.084189 -0.383128
vn 0.919851 0.084189 -0.383128
vn 0.920056 0.083702 0.382742
vn 0.920056 0.083702 0.382742
vn 0.920056 0.083702 0.382742
vn 0.920056 0.083702 0.382742
vn 0.909709 -0.130703 -0.394139
vn 0.909709 -0.130703 -0.394139
vn 0.909709 -0.130703 -0.394139
vn 0.909709 -0.130703 -0.394139
vn 0.909692 -0.133131 0.393366
vn 0.909692 -0.133131 0.393366
vn 0.909692 -0.133131 0.393366
vn 0.909692 -0.133131 0.393366
vn 0.379179 -0.134985 0.915425
vn 0.379179 -0.134985 0.915425
vn 0.379179 -0.134985 0.915425
vn 0.379179 -0.134985 0.915425
vn -0.367243 -0.135119 0.920258
vn -0.367243 -0.135119 0.920258
vn -0.367243 -0.135120 0.920258
vn -0.367243 -0.135119 0.920258
vn -0.921608 -0.133683 0.364373
vn -0.921608 -0.133683 0.364373
vn -0.921608 -0.133683 0.364373
vn -0.921608 -0.133683 0.364373
vn -0.915881 -0.131301 -0.379370
vn -0.915881 -0.131301 -0.379370
vn -0.915882 -0.131301 -0.379370
vn -0.915881 -0.131301 -0.379370
vn -0.383790 -0.123181 -0.915168
vn -0.383790 -0.123181 -0.915168
vn -0.383790 -0.123181 -0.915168
vn -0.383790 -0.123181 -0.915168
vn 0.371100 -0.125020 -0.920138
vn 0.371100 -0.125020 -0.920138
vn 0.371100 -0.125020 -0.920138
vn 0.371100 -0.125020 -0.920138
s off
f 9/4/1 1/1/2 2/2/3 10/3/4
f 10/3/5 2/2/6 3/5/7 11/6/8
f 11/6/9 3/5/10 4/7/11 12/8/12
f 12/8/13 4/7/14 5/9/15 13/10/16
f 13/10/17 5/9/18 6/11/19 14/12/20
f 14/12/21 6/11/22 7/13/23 15/14/24
f 15/14/25 7/13/26 8/15/27 16/16/28
f 16/16/29 8/15/30 1/1/31 9/4/32
f 2/2/33 1/1/34 17/17/35
f 3/5/36 2/2/37 17/17/38
f 4/7/39 3/5/40 17/17/41
f 5/9/42 4/7/43 17/17/44
f 6/11/45 5/9/46 17/17/47
f 7/13/48 6/11/49 17/17/50
f 8/15/51 7/13/52 17/17/53
f 1/1/54 8/15/55 17/17/56
f 58/25/57 59/24/58 60/32/59
f 59/24/60 61/23/61 60/32/62
f 61/23/63 62/22/64 60/32/65
f 62/22/66 63/21/67 60/32/68
f 63/21/69 64/20/70 60/32/71
f 64/20/72 65/19/73 60/32/74
f 65/19/75 66/18/76 60/32/77
f 66/18/78 58/25/79 60/32/80
f 26/41/81 18/33/82 19/34/83 27/42/84
f 27/42/85 19/34/86 20/35/87 28/43/88
f 28/43/89 20/35/90 21/36/91 29/44/92
f 29/44/93 21/36/94 22/37/95 30/45/96
f 30/45/97 22/37/98 23/38/99 31/46/100
f 31/46/101 23/38/102 24/39/103 32/47/104
f 32/47/105 24/39/106 25/40/107 33/48/108
f 33/48/109 25/40/110 18/33/111 26/41/112
f 34/49/113 26/41/114 27/42/115 35/50/116
f 35/50/117 27/42/118 28/43/119 36/51/120
f 36/51/121 28/43/122 29/44/123 37/52/124
f 37/52/125 29/44/126 30/45/127 38/53/128
f 38/53/129 30/45/130 31/46/131 39/54/132
f 39/54/133 31/46/134 32/47/135 40/55/136
f 40/55/137 32/47/138 33/48/139 41/56/140
f 41/56/141 33/48/142 26/41/143 34/49/144
f 42/57/145 34/49/146 35/50/147 43/58/148
f 44/59/149 36/51/150 37/52/151 45/60/152
f 45/60/153 37/52/154 38/53/155 46/61/156
f 46/61/157 38/53/158 39/54/159 47/62/160
f 47/62/161 39/54/162 40/55/163 48/63/164
f 48/63/165 40/55/166 41/56/167 49/64/168
f 49/64/169 41/56/170 34/49/171 42/57/172
f 50/65/173 42/57/174 43/58/175 51/66/176
f 52/67/177 44/59/178 45/60/179 53/68/180
f 53/68/181 45/60/182 46/61/183 54/69/184
f 54/69/185 46/61/186 47/62/187 55/70/188
f 55/70/189 47/62/190 48/63/191 56/31/192
f 56/31/193 48/63/194 49/64/195 57/26/196
f 57/26/197 49/64/198 42/57/199 50/65/200
f 59/24/201 58/25/202 50/65/203 51/66/204
f 61/23/205 59/24/206 51/66/207 52/67/208
f 62/22/209 61/23/210 52/67/211 53/68/212
f 63/21/213 62/22/214 53/68/215 54/69/216
f 64/20/217 63/21/218 54/69/219 55/70/220
f 65/19/221 64/20/222 55/70/223 56/31/224
f 66/18/225 65/19/226 56/31/227 57/26/228
f 58/25/229 66/18/230 57/26/231 50/65/232
f 79/89/233 80/90/234 12/30/235 13/71/236
f 80/90/237 81/91/238 11/29/239 12/30/240
f 81/91/241 82/92/242 10/28/243 11/29/244
f 82/92/245 75/85/246 9/27/247 10/28/248
f 75/85/249 76/86/250 16/74/251 9/27/252
f 76/86/253 77/87/254 15/73/255 16/74/256
f 78/88/257 79/89/258 13/71/259 14/72/260
f 14/72/261 15/73/262 77/87/263 78/88/264
f 51/66/265 43/58/266 44/59/267 52/67/268
f 35/50/269 36/75/270 44/76/271 43/58/272
f 68/78/273 67/77/274 24/39/275 23/38/276
f 23/38/277 22/37/278 69/79/279 68/78/280
f 22/37/281 21/36/282 70/80/283 69/79/284
f 21/36/285 20/35/286 71/81/287 70/80/288
f 20/35/289 19/34/290 72/82/291 71/81/292
f 19/34/293 18/33/294 73/83/295 72/82/296
f 18/33/297 25/40/298 74/84/299 73/83/300
f 25/40/301 24/39/302 67/77/303 74/84/304
f 73/83/305 74/84/306 76/86/307 75/85/308
f 74/84/309 67/77/310 77/87/311 76/86/312
f 78/88/313 77/87/314 67/77/315 68/78/316
f 68/78/317 69/79/318 79/89/319 78/88/320
f 69/79/321 70/80/322 80/90/323 79/89/324
f 70/80/325 71/81/326 81/91/327 80/90/328
f 71/81/329 72/82/330 82/92/331 81/91/332
f 72/82/333 73/83/334 75/85/335 82/92/336
