# This file uses centimeters as units for non-parametric coordinates.

v 0.009768 0.032716 -0.013716
v -0.010136 0.032716 -0.013716
v -0.037155 -0.008383 -0.013716
v -0.023514 -0.032126 -0.013716
v 0.022836 -0.032716 -0.013716
v 0.037155 -0.007793 -0.013716
v 0.008918 0.029700 0.003390
v -0.009286 0.029700 0.003390
v -0.034825 -0.008383 0.003390
v -0.022349 -0.030099 0.003390
v 0.021613 -0.030588 0.003390
v 0.034710 -0.007793 0.003390
v 0.004886 0.014398 0.013716
v -0.005254 0.014398 0.013716
v -0.000184 -0.002598 0.013716
v -0.018714 -0.007000 0.013716
v -0.013300 -0.016424 0.013716
v 0.011844 -0.017263 0.013716
v 0.018316 -0.006000 0.013716
v 0.005892 0.019733 -0.022638
v -0.006113 0.019733 -0.022638
v 0.022410 -0.004701 -0.022638
v 0.013774 -0.019733 -0.022638
v -0.014182 -0.019377 -0.022638
v -0.022410 -0.005056 -0.022638
v -0.000224 -0.000610 -0.022638
vt 0.052504 0.152127
vt 0.052504 0.152127
vt 0.052504 0.152127
vt 0.052504 0.152127
vt 0.052504 0.152127
vt 0.052504 0.152127
vt 0.052504 0.152127
vt 0.052504 0.152127
vt 0.052504 0.152127
vt 0.052504 0.152127
vt 0.052504 0.152127
vt 0.052504 0.152127
vt 0.052504 0.152127
vt 0.052504 0.152127
vt 0.052504 0.152127
vt 0.052504 0.152127
vt 0.052504 0.152127
vt 0.052504 0.152127
vt 0.052504 0.152127
vt 0.052504 0.152127
vt 0.052504 0.152127
vt 0.052504 0.152127
vt 0.052504 0.152127
vt 0.052504 0.152127
vt 0.052504 0.152127
vt 0.052504 0.152127
vt 0.052504 0.152127
vt 0.052504 0.152127
vt 0.052504 0.152127
vt 0.052504 0.152127
vt 0.052504 0.152127
vt 0.052504 0.152127
vt 0.052504 0.152127
vt 0.052504 0.152127
vt 0.052504 0.152127
vt 0.052504 0.152127
vt 0.052504 0.152127
vt 0.052504 0.152127
vt 0.052504 0.152127
vt 0.052504 0.152127
vt 0.052504 0.152127
vt 0.052504 0.152127
vt 0.052504 0.152127
vt 0.052504 0.152127
vt 0.052504 0.152127
vt 0.052504 0.152127
vt 0.052504 0.152127
vt 0.052504 0.152127
vt 0.052504 0.152127
vt 0.052504 0.152127
vt 0.052504 0.152127
vt 0.052504 0.152127
vt 0.052504 0.152127
vt 0.052504 0.152127
vt 0.052504 0.152127
vt 0.052504 0.152127
vt 0.052504 0.152127
vt 0.052504 0.152127
vt 0.052504 0.152127
vt 0.052504 0.152127
vt 0.052504 0.152127
vt 0.052504 0.152127
vt 0.052504 0.152127
vt 0.052504 0.152127
vt 0.052504 0.152127
vt 0.052504 0.152127
vt 0.052504 0.152127
vt 0.052504 0.152127
vt 0.052504 0.152127
vt 0.052504 0.152127
vt 0.052504 0.152127
vt 0.052504 0.152127
vt 0.052504 0.152127
vn 0.000000 0.984810 0.173633
vn 0.000000 0.984811 0.173633
vn 0.000000 0.984811 0.173633
vn 0.000000 0.984811 0.173633
vn -0.826609 0.548674 0.125201
vn -0.826609 0.548674 0.125201
vn -0.826609 0.548674 0.125201
vn -0.826609 0.548674 0.125201
vn -0.861089 -0.494740 0.117298
vn -0.861089 -0.494740 0.117298
vn -0.861089 -0.494740 0.117298
vn -0.861089 -0.494740 0.117298
vn -0.011859 -0.992633 0.120575
vn -0.011859 -0.992633 0.120575
vn -0.011859 -0.992633 0.120575
vn -0.011859 -0.992633 0.120575
vn 0.860489 -0.494391 0.123035
vn 0.860489 -0.494391 0.123035
vn 0.860488 -0.494391 0.123035
vn 0.860488 -0.494391 0.123035
vn 0.819437 0.558651 0.128190
vn 0.819437 0.558651 0.128190
vn 0.819437 0.558651 0.128190
vn 0.819437 0.558651 0.128190
vn 0.000000 0.000000 1.000000
vn 0.000000 0.000000 1.000000
vn 0.000000 0.000000 1.000000
vn 0.000000 0.000000 1.000000
vn 0.000000 0.000000 1.000000
vn 0.000000 0.000000 1.000000
vn -0.000000 0.000000 1.000000
vn -0.000000 0.000000 1.000000
vn -0.000000 0.000000 1.000000
vn 0.000000 0.000000 1.000000
vn 0.000000 0.000000 1.000000
vn 0.000000 0.000000 1.000000
vn 0.000000 0.000000 1.000000
vn 0.000000 0.000000 1.000000
vn 0.000000 0.000000 1.000000
vn 0.000000 0.000000 1.000000
vn 0.000000 0.000000 1.000000
vn 0.000000 0.000000 1.000000
vn 0.000000 0.559372 0.828917
vn 0.000000 0.559372 0.828917
vn 0.000000 0.559372 0.828917
vn 0.000000 0.559372 0.828917
vn -0.539296 0.353594 0.764285
vn -0.539296 0.353594 0.764285
vn -0.539296 0.353594 0.764285
vn -0.539296 0.353594 0.764285
vn -0.499349 -0.286904 0.817519
vn -0.499349 -0.286904 0.817519
vn -0.499349 -0.286904 0.817519
vn -0.499349 -0.286904 0.817519
vn -0.011681 -0.607725 0.794062
vn -0.011681 -0.607725 0.794062
vn -0.011681 -0.607725 0.794062
vn -0.011681 -0.607725 0.794062
vn 0.489269 -0.281111 0.825586
vn 0.489269 -0.281111 0.825586
vn 0.489269 -0.281111 0.825586
vn 0.489269 -0.281111 0.825586
vn 0.533756 0.361606 0.764425
vn 0.533756 0.361606 0.764425
vn 0.533756 0.361606 0.764425
vn 0.533756 0.361606 0.764425
vn 0.000002 -0.000002 -1.000000
vn -0.000002 -0.000002 -1.000000
vn -0.000000 -0.000000 -1.000000
vn 0.000000 0.566374 -0.824148
vn 0.000000 0.566374 -0.824148
vn 0.000000 0.566374 -0.824148
vn 0.000000 0.566374 -0.824148
vn 0.536952 0.363014 -0.761514
vn 0.536952 0.363014 -0.761514
vn 0.536952 0.363014 -0.761514
vn 0.536952 0.363014 -0.761514
vn 0.458399 -0.263369 -0.848827
vn 0.458399 -0.263369 -0.848827
vn 0.458399 -0.263369 -0.848827
vn 0.458399 -0.263369 -0.848827
vn -0.007251 -0.569792 -0.821757
vn -0.007251 -0.569792 -0.821757
vn -0.007251 -0.569792 -0.821757
vn -0.007251 -0.569792 -0.821757
vn -0.455723 -0.261833 -0.850741
vn -0.455723 -0.261834 -0.850741
vn -0.455723 -0.261834 -0.850741
vn -0.455723 -0.261834 -0.850741
vn -0.541287 0.355851 -0.761826
vn -0.541287 0.355851 -0.761826
vn -0.541287 0.355851 -0.761826
vn -0.541287 0.355851 -0.761826
vn 0.000003 -0.000000 -1.000000
vn -0.000000 -0.000000 -1.000000
vn 0.000001 0.000002 -1.000000
vn -0.000000 -0.000000 -1.000000
vn -0.000003 -0.000000 -1.000000
vn -0.000001 0.000002 -1.000000
vn 0.000001 0.000002 -1.000000
vn -0.000000 -0.000000 -1.000000
vn -0.000001 0.000002 -1.000000
vn 0.000002 -0.000002 -1.000000
vn -0.000000 -0.000000 -1.000000
vn 0.000003 -0.000000 -1.000000
vn -0.000000 -0.000000 -1.000000
vn -0.000002 -0.000002 -1.000000
vn -0.000003 -0.000000 -1.000000
s off
f 1/1/1 2/2/2 8/3/3 7/4/4
f 2/5/5 3/6/6 9/7/7 8/8/8
f 3/9/9 4/10/10 10/11/11 9/12/12
f 4/13/13 5/14/14 11/15/15 10/16/16
f 5/17/17 6/18/18 12/19/19 11/20/20
f 6/21/21 1/22/22 7/23/23 12/24/24
f 13/25/25 14/26/26 15/27/27
f 14/28/28 16/29/29 15/30/30
f 16/31/31 17/32/32 15/33/33
f 17/34/34 18/35/35 15/36/36
f 18/37/37 19/38/38 15/39/39
f 19/40/40 13/41/41 15/42/42
f 8/44/43 14/55/44 13/56/45 7/43/46
f 9/46/47 16/57/48 14/58/49 8/45/50
f 10/48/51 17/59/52 16/60/53 9/47/54
f 11/50/55 18/61/56 17/62/57 10/49/58
f 12/52/59 19/63/60 18/64/61 11/51/62
f 7/54/63 13/65/64 19/66/65 12/53/66
f 21/67/67 20/68/68 26/73/69
f 2/2/70 1/22/71 20/68/72 21/67/73
f 1/22/74 6/18/75 22/69/76 20/68/77
f 6/18/78 5/14/79 23/70/80 22/69/81
f 5/14/82 4/10/83 24/71/84 23/70/85
f 4/10/86 3/6/87 25/72/88 24/71/89
f 3/6/90 2/2/91 21/67/92 25/72/93
f 25/72/94 26/73/95 24/71/96
f 26/73/97 22/69/98 23/70/99
f 24/71/100 26/73/101 23/70/102
f 21/67/103 26/73/104 25/72/105
f 26/73/106 20/68/107 22/69/108
