# This file uses centimeters as units for non-parametric coordinates.

v 0.101408 0.371373 -0.008847
v 0.044542 0.113741 -0.025186
v 0.033898 0.134505 0.023075
v -0.030586 -0.000982 0.030606
v 0.062297 0.553666 0.045989
v -0.030796 0.389667 0.085719
v -0.016380 0.540456 0.072224
v 0.028434 0.205044 -0.059357
v 0.010590 0.612067 0.039353
v -0.043662 0.592939 -0.016210
v -0.125648 0.383328 0.004866
v -0.055241 0.085322 -0.054790
v 0.036306 0.439637 -0.064061
v -0.082280 0.143527 -0.002260
v -0.107634 0.362029 -0.085719
vt 0.052504 0.152127
vt 0.052504 0.152127
vt 0.052504 0.152127
vt 0.052504 0.152127
vt 0.052504 0.152127
vt 0.052504 0.152127
vt 0.052504 0.152127
vt 0.052504 0.152127
vt 0.052504 0.152127
vt 0.052504 0.152127
vt 0.052504 0.152127
vt 0.052504 0.152127
vt 0.052504 0.152127
vt 0.052504 0.152127
vt 0.052504 0.152127
vn 0.927104 -0.223705 0.300723
vn 0.927104 -0.223705 0.300723
vn 0.927104 -0.223705 0.300723
vn 0.654792 -0.085418 0.750967
vn 0.654792 -0.085418 0.750967
vn 0.654792 -0.085418 0.750967
vn 0.851990 -0.385825 0.353910
vn 0.851990 -0.385825 0.353910
vn 0.851990 -0.385825 0.353910
vn 0.786683 0.326409 -0.524011
vn 0.786683 0.326409 -0.524011
vn 0.786683 0.326409 -0.524011
vn 0.326573 -0.073640 0.942299
vn 0.326573 -0.073640 0.942299
vn 0.326573 -0.073640 0.942299
vn 0.692330 -0.001617 0.721579
vn 0.692330 -0.001617 0.721579
vn 0.692330 -0.001617 0.721579
vn 0.613695 0.471391 -0.633379
vn 0.613695 0.471391 -0.633379
vn 0.613695 0.471391 -0.633379
vn 0.249671 0.324714 0.912264
vn 0.249671 0.324714 0.912264
vn 0.249671 0.324714 0.912264
vn 0.735210 -0.119966 -0.667139
vn 0.735210 -0.119966 -0.667139
vn 0.735210 -0.119966 -0.667139
vn 0.378333 -0.129113 0.916621
vn 0.378333 -0.129113 0.916621
vn 0.378333 -0.129113 0.916621
vn 0.623790 -0.036586 -0.780735
vn 0.623790 -0.036586 -0.780735
vn 0.623790 -0.036586 -0.780735
vn 0.379589 -0.593656 -0.709566
vn 0.379589 -0.593656 -0.709566
vn 0.379589 -0.593656 -0.709566
vn -0.013310 0.291600 -0.956448
vn -0.013310 0.291600 -0.956448
vn -0.013310 0.291600 -0.956448
vn -0.714590 -0.098102 0.692631
vn -0.714590 -0.098102 0.692631
vn -0.714590 -0.098102 0.692631
vn 0.344629 -0.275099 -0.897525
vn 0.344629 -0.275099 -0.897525
vn 0.344629 -0.275099 -0.897525
vn 0.531892 0.492478 -0.688881
vn 0.531892 0.492478 -0.688881
vn 0.531892 0.492478 -0.688881
vn -0.648267 0.129135 0.750383
vn -0.648267 0.129134 0.750383
vn -0.648267 0.129134 0.750383
vn -0.699803 0.498437 0.511700
vn -0.699803 0.498437 0.511700
vn -0.699803 0.498437 0.511700
vn -0.931391 -0.353208 -0.088062
vn -0.931391 -0.353208 -0.088062
vn -0.931391 -0.353208 -0.088062
vn -0.807896 0.362701 0.464491
vn -0.807896 0.362701 0.464491
vn -0.807896 0.362701 0.464491
vn -0.027179 -0.019128 -0.999448
vn -0.027179 -0.019128 -0.999448
vn -0.027179 -0.019128 -0.999448
vn -0.637180 -0.137766 0.758302
vn -0.637180 -0.137766 0.758302
vn -0.637180 -0.137766 0.758302
vn 0.187290 -0.074020 -0.979512
vn 0.187290 -0.074020 -0.979512
vn 0.187290 -0.074020 -0.979512
vn -0.908274 0.329314 -0.258053
vn -0.908274 0.329314 -0.258053
vn -0.908274 0.329314 -0.258053
vn -0.944120 -0.207399 -0.256169
vn -0.944120 -0.207399 -0.256169
vn -0.944120 -0.207399 -0.256169
vn -0.973204 -0.171453 -0.153223
vn -0.973204 -0.171453 -0.153223
vn -0.973204 -0.171453 -0.153223
s off
f 3/1/1 2/2/2 1/3/3
f 5/4/4 3/1/5 1/3/6
f 2/2/7 3/1/8 4/5/9
f 13/6/10 5/4/11 1/3/12
f 5/4/13 7/7/14 3/1/15
f 3/1/16 7/7/17 6/8/18
f 5/4/19 13/6/20 9/9/21
f 5/4/22 9/9/23 7/7/24
f 1/3/25 2/2/26 8/10/27
f 3/1/28 6/8/29 4/5/30
f 13/6/31 1/3/32 8/10/33
f 4/5/34 12/11/35 2/2/36
f 15/12/37 10/13/38 13/6/39
f 14/14/40 4/5/41 6/8/42
f 12/11/43 8/10/44 2/2/45
f 10/13/46 9/9/47 13/6/48
f 6/8/49 7/7/50 11/15/51
f 9/9/52 10/13/53 7/7/54
f 4/5/55 14/14/56 12/11/57
f 10/13/58 11/15/59 7/7/60
f 13/6/61 8/10/62 12/11/63
f 11/15/64 14/14/65 6/8/66
f 13/6/67 12/11/68 15/12/69
f 11/15/70 10/13/71 15/12/72
f 12/11/73 14/14/74 15/12/75
f 14/14/76 11/15/77 15/12/78
