# This file uses centimeters as units for non-parametric coordinates.

v 0.126076 0.083650 -0.126072
v -0.040737 -0.035556 -0.202972
v -0.126076 0.083650 -0.126072
v -0.206181 -0.016222 -0.025112
v -0.126076 0.083650 0.126072
v 0.023487 -0.053473 0.190647
v 0.126076 0.083650 0.126072
v 0.211063 -0.003144 -0.025417
v 0.144081 0.914287 -0.144073
v 0.000004 0.946539 -0.203754
v -0.144077 0.921072 -0.144073
v -0.203751 0.946539 0.000000
v -0.144077 0.804156 0.144081
v 0.000004 0.832466 0.203754
v 0.144081 0.801869 0.144081
v 0.203758 0.839816 0.000000
v -0.004345 1.276323 0.009083
v -0.100887 1.133836 0.111473
v -0.014820 1.169149 0.110794
v 0.064026 1.195715 0.068802
v 0.108974 1.155910 0.016975
v 0.001923 1.136939 0.166695
v 0.092529 1.156311 0.122360
v 0.145096 1.037932 0.000698
v 0.114143 1.075338 -0.096474
v -0.002834 1.086855 -0.138775
v -0.110500 1.081742 -0.110497
v 0.126854 1.056205 -0.130138
v -0.001572 1.078853 -0.175381
v -0.008163 1.156009 -0.081314
v -0.102180 1.200189 -0.063107
v -0.129124 1.208380 0.008892
v -0.077843 1.190129 0.078175
v -0.081451 1.219176 0.028458
v -0.056744 1.219207 -0.031162
v 0.061760 1.154817 -0.046059
v -0.071796 0.868281 -0.180492
v -0.179550 0.903796 -0.073872
v -0.175446 0.924426 0.083496
v -0.076225 0.902291 0.178364
v 0.075294 0.851130 0.189964
v 0.178997 0.903015 0.074875
v 0.180237 0.932610 -0.072170
v 0.081600 0.840702 -0.176426
v -0.144081 -1.092575 0.144073
v -0.000004 -1.108944 0.203754
v 0.144077 -1.096018 0.144073
v 0.203751 -1.108944 0.000000
v 0.144077 -1.064708 -0.144081
v -0.000004 -1.079076 -0.203754
v -0.144081 -1.064708 -0.144081
v -0.203758 -1.083968 0.000000
v 0.004345 -1.276323 -0.009083
v 0.100887 -1.204005 -0.111473
v 0.014820 -1.221928 -0.110794
v -0.064026 -1.235411 -0.068802
v -0.108974 -1.215208 -0.016975
v -0.001923 -1.205580 -0.166695
v -0.092529 -1.215412 -0.122360
v -0.163834 -1.157151 0.005642
v -0.114143 -1.174315 0.096474
v 0.002834 -1.180160 0.138775
v 0.110500 -1.177565 0.110497
v -0.126854 -1.164604 0.130138
v 0.001572 -1.176099 0.175381
v 0.008163 -1.215259 0.081314
v 0.102180 -1.237682 0.063107
v 0.129124 -1.241839 -0.008892
v 0.077843 -1.232576 -0.078175
v 0.081451 -1.247319 -0.028458
v 0.056744 -1.247334 0.031162
v -0.061760 -1.214654 0.046059
v 0.069622 -1.069506 0.174915
v 0.174133 -1.086988 0.071507
v 0.170151 -1.097144 -0.081123
v 0.073921 -1.086247 -0.173138
v -0.078369 -1.102750 -0.171295
v -0.173618 -1.086604 -0.072762
v -0.174820 -1.101172 0.069859
v -0.079151 -1.055929 0.170971
vt 0.004660 0.280228
vt 0.004660 0.280228
vt 0.004660 0.280228
vt 0.004660 0.280228
vt 0.004660 0.280228
vt 0.004660 0.280228
vt 0.004660 0.280228
vt 0.004660 0.280228
vt 0.004660 0.280228
vt 0.004660 0.280228
vt 0.004660 0.280228
vt 0.004660 0.280228
vt 0.004660 0.280228
vt 0.004660 0.280228
vt 0.004660 0.280228
vt 0.004660 0.280228
vt 0.004660 0.280228
vt 0.004660 0.280228
vt 0.001498 0.302366
vt 0.001498 0.302366
vt 0.005451 0.330828
vt 0.005451 0.330828
vt 0.005451 0.330828
vt 0.005451 0.330828
vt 0.005451 0.330828
vt 0.005451 0.330828
vt 0.005451 0.330828
vt 0.005451 0.330828
vt 0.005451 0.330828
vt 0.001498 0.302366
vt 0.005451 0.330828
vt 0.005451 0.330828
vt 0.005451 0.330828
vt 0.005451 0.330828
vt 0.005451 0.330828
vt 0.005451 0.330828
vt 0.005451 0.330828
vt 0.005451 0.330828
vt 0.005451 0.330828
vt 0.005451 0.330828
vt 0.005451 0.330828
vt 0.005451 0.330828
vt 0.005451 0.330828
vt 0.005451 0.330828
vt 0.005451 0.330828
vt 0.005451 0.330828
vt 0.005451 0.330828
vt 0.004660 0.280228
vt 0.005451 0.330828
vt 0.004660 0.280228
vt 0.005451 0.330828
vt 0.004660 0.280228
vt 0.005451 0.330828
vt 0.004660 0.280228
vt 0.005451 0.330828
vt 0.004660 0.280228
vt 0.005451 0.330828
vt 0.004660 0.280228
vt 0.005451 0.330828
vt 0.004660 0.280228
vt 0.005451 0.330828
vt 0.004660 0.280228
vt 0.004660 0.280228
vt 0.004660 0.280228
vt 0.004660 0.280228
vt 0.004660 0.280228
vt 0.004660 0.280228
vt 0.004660 0.280228
vt 0.004660 0.280228
vt 0.004660 0.280228
vt 0.004660 0.280228
vt 0.004660 0.280228
vt 0.004660 0.280228
vt 0.004660 0.280228
vt 0.004660 0.280228
vt 0.004660 0.280228
vt 0.004660 0.280228
vt 0.004660 0.280228
vt 0.004660 0.280228
vt 0.004660 0.280228
vt 0.004660 0.280228
vt 0.004660 0.280228
vt 0.004660 0.280228
vt 0.004660 0.280228
vt 0.004660 0.280228
vt 0.004660 0.280228
vt 0.005451 0.330828
vt 0.005451 0.330828
vt 0.005451 0.330828
vt 0.001498 0.302366
vt 0.001498 0.302366
vt 0.005451 0.330828
vt 0.001498 0.302366
vt 0.005451 0.330828
vt 0.005451 0.330828
vt 0.005451 0.330828
vt 0.001498 0.302366
vt 0.005451 0.330828
vt 0.005451 0.330828
vt 0.005451 0.330828
vt 0.005451 0.330828
vt 0.005451 0.330828
vt 0.005451 0.330828
vt 0.005451 0.330828
vt 0.005451 0.330828
vt 0.001498 0.302366
vt 0.005451 0.330828
vt 0.001498 0.302366
vt 0.005451 0.330828
vt 0.005451 0.330828
vt 0.005451 0.330828
vt 0.005451 0.330828
vt 0.005451 0.330828
vt 0.005451 0.330828
vt 0.004660 0.280228
vt 0.004660 0.280228
vt 0.005451 0.330828
vt 0.005451 0.330828
vt 0.005451 0.330828
vt 0.005451 0.330828
vt 0.005451 0.330828
vt 0.005451 0.330828
vt 0.005451 0.330828
vt 0.005451 0.330828
vt 0.001498 0.302366
vt 0.005451 0.330828
vt 0.001498 0.302366
vt 0.001498 0.302366
vt 0.005451 0.330828
vt 0.001498 0.302366
vt 0.001498 0.302366
vt 0.001498 0.302366
vt 0.001498 0.302366
vt 0.005451 0.330828
vt 0.001498 0.302366
vt 0.001498 0.302366
vt 0.001498 0.302366
vt 0.001498 0.302366
vt 0.001498 0.302366
vt 0.001498 0.302366
vt 0.005451 0.330828
vt 0.001498 0.302366
vt 0.005451 0.330828
vt 0.001498 0.302366
vt 0.001498 0.302366
vt 0.001498 0.302366
vt 0.001498 0.302366
vt 0.001498 0.302366
vt 0.001498 0.302366
vt 0.001498 0.302366
vt 0.005451 0.330828
vt 0.001498 0.302366
vt 0.001498 0.302366
vt 0.001498 0.302366
vt 0.001498 0.302366
vt 0.001498 0.302366
vt 0.001498 0.302366
vt 0.001498 0.302366
vt 0.001498 0.302366
vt 0.001498 0.302366
vt 0.001498 0.302366
vt 0.001498 0.302366
vt 0.001498 0.302366
vt 0.001498 0.302366
vt 0.001498 0.302366
vt 0.001498 0.302366
vt 0.001498 0.302366
vt 0.001498 0.302366
vt 0.001498 0.302366
vt 0.001498 0.302366
vt 0.005451 0.330828
vt 0.001498 0.302366
vt 0.005451 0.330828
vt 0.001498 0.302366
vt 0.001498 0.302366
vt 0.001498 0.302366
vt 0.001498 0.302366
vt 0.001498 0.302366
vt 0.001498 0.302366
vt 0.001498 0.302366
vt 0.005451 0.330828
vt 0.001498 0.302366
vt 0.001498 0.302366
vt 0.001498 0.302366
vn 0.486765 -0.029472 -0.873036
vn 0.486765 -0.029472 -0.873036
vn 0.486765 -0.029472 -0.873036
vn -0.320532 0.012543 -0.947155
vn -0.320532 0.012543 -0.947155
vn -0.320532 0.012543 -0.947155
vn -0.889271 -0.028928 -0.456466
vn -0.889271 -0.028928 -0.456466
vn -0.889271 -0.028928 -0.456466
vn -0.947522 -0.005946 0.319634
vn -0.947522 -0.005946 0.319634
vn -0.947522 -0.005946 0.319634
vn -0.412218 -0.033057 0.910485
vn -0.412218 -0.033057 0.910485
vn -0.412218 -0.033057 0.910485
vn 0.182481 -0.009709 0.983162
vn 0.182481 -0.009709 0.983162
vn 0.182481 -0.009709 0.983162
vn 0.910963 -0.033147 0.411154
vn 0.910963 -0.033147 0.411154
vn 0.910963 -0.033147 0.411154
vn 0.956887 0.017036 -0.289961
vn 0.956887 0.017036 -0.289961
vn 0.956887 0.017036 -0.289961
vn 0.384384 0.546708 -0.743881
vn 0.384384 0.546708 -0.743881
vn 0.384384 0.546708 -0.743881
vn 0.193760 0.696898 -0.690500
vn 0.193760 0.696898 -0.690500
vn 0.193760 0.696898 -0.690500
vn -0.226156 0.962715 -0.148434
vn -0.226156 0.962715 -0.148434
vn -0.226156 0.962715 -0.148434
vn -0.226156 0.962715 -0.148434
vn -0.378249 0.787063 0.487298
vn -0.378249 0.787063 0.487298
vn -0.378249 0.787063 0.487298
vn -0.224542 0.562577 0.795668
vn -0.224542 0.562577 0.795668
vn -0.224542 0.562577 0.795668
vn 0.159293 0.671353 0.723817
vn 0.159293 0.671353 0.723817
vn 0.159293 0.671353 0.723817
vn 0.721383 0.685389 0.099240
vn 0.721383 0.685389 0.099240
vn 0.721383 0.685389 0.099240
vn 0.648440 0.577746 -0.495716
vn 0.648440 0.577746 -0.495716
vn 0.648440 0.577746 -0.495716
vn -0.315100 0.778435 0.542910
vn -0.315100 0.778435 0.542910
vn -0.315100 0.778435 0.542910
vn 0.043375 0.844148 0.534353
vn 0.043375 0.844148 0.534353
vn 0.043375 0.844148 0.534353
vn 0.043375 0.844148 0.534353
vn 0.727511 0.677066 0.110948
vn 0.727511 0.677066 0.110948
vn 0.727511 0.677066 0.110948
vn -0.468389 0.198805 0.860865
vn -0.468389 0.198805 0.860865
vn -0.468389 0.198805 0.860865
vn 0.401949 0.176341 0.898522
vn 0.401949 0.176341 0.898522
vn 0.401949 0.176341 0.898521
vn 0.944264 0.294930 0.146227
vn 0.944264 0.294930 0.146227
vn 0.944264 0.294930 0.146227
vn 0.807244 0.589443 -0.030227
vn 0.807244 0.589443 -0.030227
vn 0.807244 0.589443 -0.030227
vn 0.238197 0.920990 -0.308285
vn 0.238197 0.920990 -0.308285
vn 0.238197 0.920990 -0.308285
vn 0.238197 0.920990 -0.308285
vn -0.102800 0.971008 -0.215814
vn -0.102800 0.971008 -0.215814
vn -0.102800 0.971008 -0.215814
vn 0.928077 0.364008 -0.078560
vn 0.928077 0.364008 -0.078560
vn 0.928077 0.364008 -0.078560
vn 0.349323 0.126072 -0.928482
vn 0.349323 0.126072 -0.928482
vn 0.349323 0.126072 -0.928482
vn -0.499061 0.186975 -0.846155
vn -0.499061 0.186975 -0.846155
vn -0.499061 0.186975 -0.846155
vn -0.105684 0.486425 -0.867307
vn -0.105684 0.486425 -0.867307
vn -0.105684 0.486425 -0.867307
vn -0.105684 0.486425 -0.867307
vn -0.884006 0.245214 -0.397999
vn -0.884006 0.245214 -0.397999
vn -0.884006 0.245214 -0.397999
vn -0.884006 0.245214 -0.397999
vn -0.831638 0.314657 0.457569
vn -0.831638 0.314657 0.457569
vn -0.831638 0.314657 0.457569
vn -0.831638 0.314657 0.457569
vn -0.443343 0.759551 0.475951
vn -0.443343 0.759551 0.475951
vn -0.443343 0.759551 0.475951
vn -0.616292 0.745081 -0.255026
vn -0.616292 0.745081 -0.255026
vn -0.616292 0.745081 -0.255026
vn -0.042106 0.601007 -0.798134
vn -0.042106 0.601007 -0.798134
vn -0.042106 0.601007 -0.798134
vn -0.138953 0.688812 0.711498
vn -0.138953 0.688812 0.711498
vn -0.138953 0.688812 0.711498
vn 0.829592 0.472391 -0.297696
vn 0.829592 0.472391 -0.297696
vn 0.829592 0.472391 -0.297696
vn 0.829592 0.472391 -0.297696
vn 0.332493 0.635116 -0.697191
vn 0.332493 0.635116 -0.697191
vn 0.332493 0.635116 -0.697191
vn 0.332493 0.635116 -0.697191
vn -0.466605 -0.029033 -0.883989
vn -0.466605 -0.029033 -0.883989
vn -0.466605 -0.029033 -0.883989
vn -0.673059 -0.004734 -0.739574
vn -0.673059 -0.004734 -0.739573
vn -0.673059 -0.004734 -0.739574
vn -0.948410 0.010659 -0.316868
vn -0.948410 0.010659 -0.316868
vn -0.948410 0.010659 -0.316868
vn -0.778116 -0.010761 -0.628029
vn -0.778116 -0.010761 -0.628029
vn -0.778116 -0.010761 -0.628029
vn -0.912778 -0.032981 0.407123
vn -0.912778 -0.032981 0.407123
vn -0.912778 -0.032981 0.407123
vn -0.875810 -0.027024 0.481899
vn -0.875810 -0.027024 0.481899
vn -0.875810 -0.027024 0.481899
vn -0.334676 -0.022809 0.942057
vn -0.334676 -0.022809 0.942057
vn -0.334676 -0.022809 0.942057
vn -0.420974 -0.032269 0.906498
vn -0.420974 -0.032269 0.906498
vn -0.420974 -0.032269 0.906498
vn 0.537315 -0.034600 0.842672
vn 0.537315 -0.034600 0.842672
vn 0.537314 -0.034600 0.842672
vn 0.562337 -0.031582 0.826305
vn 0.562337 -0.031582 0.826305
vn 0.562337 -0.031582 0.826305
vn 0.949109 -0.001271 0.314944
vn 0.949109 -0.001271 0.314944
vn 0.949109 -0.001271 0.314944
vn 0.865761 -0.024686 0.499848
vn 0.865761 -0.024686 0.499848
vn 0.865761 -0.024686 0.499848
vn 0.895983 -0.029026 -0.443138
vn 0.895983 -0.029026 -0.443138
vn 0.895983 -0.029026 -0.443138
vn 0.760912 -0.007350 -0.648813
vn 0.760912 -0.007350 -0.648813
vn 0.760912 -0.007350 -0.648813
vn 0.302016 -0.013288 -0.953210
vn 0.302016 -0.013288 -0.953210
vn 0.302016 -0.013288 -0.953210
vn 0.438341 -0.033988 -0.898166
vn 0.438341 -0.033988 -0.898166
vn 0.438341 -0.033988 -0.898166
vn 0.957590 0.283360 0.052241
vn 0.957590 0.283360 0.052241
vn 0.957590 0.283360 0.052241
vn 0.866980 0.151848 -0.474645
vn 0.866980 0.151848 -0.474645
vn 0.866980 0.151848 -0.474645
vn 0.329013 0.131756 -0.935089
vn 0.329013 0.131756 -0.935089
vn 0.329013 0.131756 -0.935089
vn 0.519456 0.185076 -0.834214
vn 0.519456 0.185076 -0.834214
vn 0.519456 0.185076 -0.834214
vn -0.474495 0.179163 -0.861832
vn -0.474495 0.179163 -0.861832
vn -0.474495 0.179163 -0.861832
vn -0.282047 0.252378 -0.925611
vn -0.282047 0.252378 -0.925611
vn -0.282047 0.252378 -0.925611
vn -0.885318 0.264880 -0.382165
vn -0.885318 0.264880 -0.382165
vn -0.885318 0.264880 -0.382165
vn -0.862699 0.260595 -0.433405
vn -0.862699 0.260595 -0.433405
vn -0.862699 0.260595 -0.433405
vn -0.897225 0.243201 0.368566
vn -0.897225 0.243201 0.368566
vn -0.897225 0.243201 0.368566
vn -0.709210 0.160803 0.686414
vn -0.709210 0.160803 0.686413
vn -0.709210 0.160803 0.686414
vn -0.616873 0.157094 0.771226
vn -0.616873 0.157094 0.771226
vn -0.616873 0.157094 0.771226
vn -0.213621 0.119363 0.969597
vn -0.213621 0.119363 0.969597
vn -0.213621 0.119363 0.969597
vn 0.150390 0.118518 0.981497
vn 0.150390 0.118518 0.981497
vn 0.150390 0.118518 0.981497
vn 0.615753 0.137108 0.775918
vn 0.615753 0.137108 0.775919
vn 0.615753 0.137108 0.775918
vn 0.776644 0.150446 0.611711
vn 0.776644 0.150446 0.611711
vn 0.776644 0.150446 0.611711
vn 0.956151 0.282578 0.076974
vn 0.956151 0.282578 0.076974
vn 0.956151 0.282577 0.076974
vn 0.956151 0.282577 0.076974
vn -0.392289 0.020079 0.919623
vn -0.392289 0.020079 0.919623
vn -0.392289 0.020079 0.919623
vn 0.381223 0.002996 0.924478
vn 0.381223 0.002996 0.924478
vn 0.381223 0.002996 0.924478
vn 0.922825 0.019953 0.384701
vn 0.922825 0.019953 0.384701
vn 0.922825 0.019953 0.384701
vn 0.923016 -0.014941 -0.384470
vn 0.923016 -0.014941 -0.384470
vn 0.923016 -0.014941 -0.384470
vn 0.377208 0.020434 -0.925903
vn 0.377208 0.020434 -0.925903
vn 0.377208 0.020434 -0.925903
vn -0.378999 -0.014101 -0.925290
vn -0.378999 -0.014101 -0.925290
vn -0.378999 -0.014101 -0.925290
vn -0.925909 0.020433 -0.377195
vn -0.925909 0.020433 -0.377194
vn -0.925909 0.020433 -0.377194
vn -0.923243 0.006940 0.384155
vn -0.923243 0.006940 0.384155
vn -0.923243 0.006940 0.384155
vn -0.281737 -0.789521 0.545235
vn -0.281737 -0.789521 0.545235
vn -0.281737 -0.789521 0.545235
vn -0.125080 -0.886379 0.445743
vn -0.125080 -0.886379 0.445743
vn -0.125080 -0.886379 0.445743
vn 0.118034 -0.989983 0.077471
vn 0.118034 -0.989983 0.077471
vn 0.118034 -0.989983 0.077471
vn 0.118034 -0.989983 0.077471
vn 0.226642 -0.929183 -0.291981
vn 0.226642 -0.929183 -0.291981
vn 0.226642 -0.929183 -0.291981
vn 0.162381 -0.801590 -0.575401
vn 0.162381 -0.801590 -0.575401
vn 0.162381 -0.801590 -0.575401
vn -0.105058 -0.872395 -0.477378
vn -0.105058 -0.872395 -0.477378
vn -0.105058 -0.872395 -0.477378
vn -0.470194 -0.880190 -0.064684
vn -0.470194 -0.880190 -0.064684
vn -0.470194 -0.880190 -0.064684
vn -0.462937 -0.812676 0.353904
vn -0.462937 -0.812676 0.353904
vn -0.462937 -0.812676 0.353904
vn 0.190136 -0.925487 -0.327600
vn 0.190136 -0.925487 -0.327600
vn 0.190136 -0.925487 -0.327600
vn -0.024821 -0.951777 -0.305785
vn -0.024821 -0.951777 -0.305785
vn -0.024821 -0.951777 -0.305785
vn -0.024821 -0.951777 -0.305785
vn -0.477513 -0.875602 -0.072821
vn -0.477513 -0.875602 -0.072821
vn -0.477513 -0.875602 -0.072821
vn 0.450434 -0.331050 -0.829166
vn 0.450434 -0.331050 -0.829166
vn 0.450434 -0.331050 -0.829166
vn -0.386705 -0.326080 -0.862630
vn -0.386705 -0.326080 -0.862630
vn -0.386705 -0.326080 -0.862630
vn -0.861059 -0.490691 -0.133418
vn -0.861059 -0.490691 -0.133418
vn -0.861059 -0.490691 -0.133418
vn -0.457229 -0.885486 0.082802
vn -0.457229 -0.885486 0.082802
vn -0.457229 -0.885486 0.082802
vn -0.128343 -0.977720 0.166106
vn -0.128343 -0.977720 0.166106
vn -0.128343 -0.977720 0.166106
vn -0.128343 -0.977720 0.166106
vn 0.053320 -0.992284 0.111937
vn 0.053320 -0.992284 0.111937
vn 0.053320 -0.992284 0.111937
vn -0.869148 -0.436747 0.232021
vn -0.869148 -0.436747 0.232021
vn -0.869148 -0.436747 0.232021
vn -0.341379 -0.195581 0.919352
vn -0.341379 -0.195581 0.919352
vn -0.341379 -0.195581 0.919352
vn 0.484235 -0.305562 0.819846
vn 0.484235 -0.305562 0.819846
vn 0.484235 -0.305562 0.819846
vn 0.081491 -0.738998 0.668761
vn 0.081491 -0.738998 0.668761
vn 0.081491 -0.738998 0.668761
vn 0.081491 -0.738998 0.668761
vn 0.835500 -0.418764 0.355776
vn 0.835500 -0.418764 0.355776
vn 0.835500 -0.418764 0.355776
vn 0.835500 -0.418764 0.355776
vn 0.753286 -0.522133 -0.399921
vn 0.753286 -0.522133 -0.399921
vn 0.753286 -0.522133 -0.399921
vn 0.753286 -0.522133 -0.399921
vn 0.271693 -0.917120 -0.291675
vn 0.271693 -0.917120 -0.291674
vn 0.271693 -0.917120 -0.291674
vn 0.382212 -0.910439 0.158160
vn 0.382212 -0.910439 0.158160
vn 0.382212 -0.910439 0.158160
vn 0.029472 -0.828868 0.558668
vn 0.029472 -0.828868 0.558668
vn 0.029472 -0.828868 0.558668
vn 0.090308 -0.882049 -0.462422
vn 0.090308 -0.882049 -0.462422
vn 0.090308 -0.882049 -0.462422
vn -0.550172 -0.793258 0.260868
vn -0.550172 -0.793258 0.260868
vn -0.550172 -0.793258 0.260868
vn -0.550172 -0.793258 0.260868
vn -0.226100 -0.850945 0.474100
vn -0.226100 -0.850945 0.474100
vn -0.226100 -0.850945 0.474100
vn -0.226100 -0.850945 0.474100
vn 0.388689 0.019988 0.921152
vn 0.388689 0.019988 0.921152
vn 0.388689 0.019988 0.921152
vn 0.522563 0.010528 0.852535
vn 0.522563 0.010528 0.852536
vn 0.522563 0.010528 0.852536
vn 0.924173 0.002668 0.381965
vn 0.924173 0.002668 0.381965
vn 0.924173 0.002668 0.381964
vn 0.875307 0.013402 0.483381
vn 0.875307 0.013402 0.483381
vn 0.875307 0.013402 0.483381
vn 0.927382 0.020396 -0.373560
vn 0.927382 0.020396 -0.373560
vn 0.927382 0.020396 -0.373560
vn 0.765802 0.004106 -0.643064
vn 0.765802 0.004106 -0.643064
vn 0.765802 0.004106 -0.643064
vn 0.383892 0.015677 -0.923245
vn 0.383892 0.015677 -0.923245
vn 0.383892 0.015677 -0.923245
vn 0.407614 0.018558 -0.912966
vn 0.407614 0.018558 -0.912966
vn 0.407614 0.018558 -0.912966
vn -0.372448 0.020390 -0.927829
vn -0.372448 0.020390 -0.927829
vn -0.372448 0.020390 -0.927829
vn -0.668280 0.001484 -0.743909
vn -0.668280 0.001484 -0.743909
vn -0.668280 0.001484 -0.743909
vn -0.923960 -0.011088 -0.382329
vn -0.923960 -0.011088 -0.382329
vn -0.923960 -0.011088 -0.382329
vn -0.785138 0.003685 -0.619310
vn -0.785138 0.003685 -0.619310
vn -0.785138 0.003685 -0.619310
vn -0.924520 0.019977 0.380609
vn -0.924520 0.019977 0.380610
vn -0.924520 0.019977 0.380610
vn -0.887507 0.014661 0.460560
vn -0.887507 0.014661 0.460560
vn -0.887507 0.014661 0.460560
vn -0.371261 0.019791 0.928318
vn -0.371261 0.019791 0.928318
vn -0.371261 0.019791 0.928318
vn -0.380189 0.020777 0.924675
vn -0.380189 0.020777 0.924676
vn -0.380189 0.020777 0.924675
vn -0.858915 -0.449685 0.245050
vn -0.858915 -0.449685 0.245050
vn -0.858915 -0.449684 0.245050
vn -0.873368 -0.285261 0.394784
vn -0.873368 -0.285261 0.394784
vn -0.873368 -0.285261 0.394784
vn -0.251884 -0.241546 0.937129
vn -0.251884 -0.241545 0.937129
vn -0.251884 -0.241545 0.937129
vn -0.544144 -0.337334 0.768188
vn -0.544144 -0.337334 0.768188
vn -0.544144 -0.337334 0.768188
vn 0.512785 -0.323897 0.795073
vn 0.512785 -0.323897 0.795073
vn 0.512785 -0.323897 0.795073
vn 0.203731 -0.443310 0.872909
vn 0.203731 -0.443310 0.872909
vn 0.203731 -0.443310 0.872909
vn 0.837409 -0.463850 0.289119
vn 0.837409 -0.463850 0.289119
vn 0.837409 -0.463850 0.289119
vn 0.762349 -0.458646 0.456583
vn 0.762349 -0.458646 0.456583
vn 0.762349 -0.458646 0.456583
vn 0.810926 -0.428728 -0.398234
vn 0.810926 -0.428728 -0.398234
vn 0.810926 -0.428728 -0.398234
vn 0.780851 -0.361394 -0.509574
vn 0.780851 -0.361394 -0.509574
vn 0.780851 -0.361394 -0.509574
vn 0.446243 -0.332824 -0.830720
vn 0.446243 -0.332823 -0.830720
vn 0.446243 -0.332824 -0.830720
vn 0.346227 -0.268583 -0.898883
vn 0.346227 -0.268583 -0.898883
vn 0.346227 -0.268583 -0.898883
vn -0.299947 -0.264001 -0.916698
vn -0.299947 -0.264001 -0.916698
vn -0.299947 -0.264001 -0.916698
vn -0.504588 -0.289821 -0.813262
vn -0.504588 -0.289821 -0.813262
vn -0.504588 -0.289821 -0.813262
vn -0.824286 -0.346501 -0.447760
vn -0.824286 -0.346501 -0.447760
vn -0.824286 -0.346501 -0.447760
vn -0.776475 -0.513546 -0.365181
vn -0.776475 -0.513546 -0.365181
vn -0.776475 -0.513546 -0.365181
vn -0.776475 -0.513546 -0.365181
s off
f 1/1/1 44/62/2 9/10/3
f 2/2/4 37/48/5 10/11/6
f 3/3/7 38/50/8 11/12/9
f 4/4/10 39/52/11 12/13/12
f 5/5/13 40/54/14 13/14/15
f 6/6/16 41/56/17 14/15/18
f 7/7/19 42/58/20 15/16/21
f 8/8/22 43/60/23 16/17/24
f 36/46/25 30/21/26 17/22/27
f 30/157/28 31/163/29 35/156/30
f 31/164/31 32/161/32 34/159/33 35/155/34
f 32/162/35 33/160/36 34/158/37
f 18/28/38 19/29/39 33/27/40
f 19/29/41 20/181/42 17/22/43
f 20/181/44 21/31/45 17/22/46
f 21/31/47 36/46/48 17/22/49
f 18/180/50 22/178/51 19/184/52
f 22/179/53 23/175/54 20/30/55 19/183/56
f 23/176/57 21/177/58 20/182/59
f 18/28/60 40/53/61 22/33/62
f 22/33/63 41/55/64 23/34/65
f 23/34/66 42/57/67 21/31/68
f 24/170/69 28/168/70 25/19/71
f 28/169/72 29/165/73 26/20/74 25/174/75
f 29/166/76 27/167/77 26/172/78
f 24/32/79 43/59/80 28/39/81
f 28/39/82 44/61/83 29/40/84
f 29/40/85 37/47/86 27/41/87
f 26/171/88 27/41/89 31/23/90 30/21/91
f 27/41/92 38/49/93 32/25/94 31/23/95
f 32/25/96 39/51/97 18/28/98 33/27/99
f 34/26/100 33/27/101 17/22/102
f 35/24/103 34/26/104 17/22/105
f 30/21/106 35/24/107 17/22/108
f 33/27/109 19/29/110 17/22/111
f 24/32/112 25/173/113 36/46/114 21/31/115
f 25/173/116 26/171/117 30/21/118 36/46/119
f 37/48/120 3/3/121 11/12/122
f 2/2/123 3/3/124 37/48/125
f 38/50/126 4/4/127 12/13/128
f 3/3/129 4/4/130 38/50/131
f 39/52/132 5/5/133 13/14/134
f 4/4/135 5/5/136 39/52/137
f 40/54/138 6/6/139 14/15/140
f 5/5/141 6/6/142 40/54/143
f 41/56/144 7/7/145 15/16/146
f 6/6/147 7/7/148 41/56/149
f 42/58/150 8/8/151 16/17/152
f 7/7/153 8/8/154 42/58/155
f 43/60/156 1/9/157 9/18/158
f 8/8/159 1/9/160 43/60/161
f 44/62/162 2/2/163 10/11/164
f 1/1/165 2/2/166 44/62/167
f 16/38/168 43/59/169 24/32/170
f 28/39/171 43/59/172 9/42/173
f 9/42/174 44/61/175 28/39/176
f 29/40/177 44/61/178 10/43/179
f 10/43/180 37/47/181 29/40/182
f 27/41/183 37/47/184 11/44/185
f 11/44/186 38/49/187 27/41/188
f 32/25/189 38/49/190 12/45/191
f 12/45/192 39/51/193 32/25/194
f 18/28/195 39/51/196 13/35/197
f 13/35/198 40/53/199 18/28/200
f 22/33/201 40/53/202 14/36/203
f 14/36/204 41/55/205 22/33/206
f 23/34/207 41/55/208 15/37/209
f 15/37/210 42/57/211 23/34/212
f 21/31/213 42/57/214 16/38/215 24/32/216
f 5/63/217 45/65/218 80/64/219
f 6/66/220 46/68/221 73/67/222
f 7/69/223 47/71/224 74/70/225
f 8/72/226 48/74/227 75/73/228
f 1/75/229 49/77/230 76/76/231
f 2/78/232 50/80/233 77/79/234
f 3/81/235 51/83/236 78/82/237
f 4/84/238 52/86/239 79/85/240
f 72/87/241 53/89/242 66/88/243
f 66/127/244 71/91/245 67/133/246
f 67/90/247 71/125/248 70/93/249 68/132/250
f 68/131/251 70/128/252 69/130/253
f 54/95/254 69/94/255 55/96/256
f 55/96/257 53/89/258 56/151/259
f 56/151/260 53/89/261 57/98/262
f 57/98/263 53/89/264 72/87/265
f 54/150/266 55/153/267 58/149/268
f 58/148/269 55/154/270 56/152/271 59/146/272
f 59/145/273 56/97/274 57/147/275
f 54/95/276 58/99/277 76/101/278
f 58/99/279 59/100/280 77/102/281
f 59/100/282 57/98/283 78/103/284
f 60/140/285 61/144/286 64/139/287
f 64/138/288 61/106/289 62/142/290 65/136/291
f 65/135/292 62/108/293 63/137/294
f 60/104/295 64/105/296 79/110/297
f 64/105/298 65/107/299 80/111/300
f 65/107/301 63/109/302 73/112/303
f 62/141/304 66/88/305 67/134/306 63/109/307
f 63/109/308 67/134/309 68/92/310 74/113/311
f 68/92/312 69/94/313 54/95/314 75/114/315
f 70/129/316 53/89/317 69/94/318
f 71/126/319 53/89/320 70/129/321
f 66/88/322 53/89/323 71/126/324
f 69/94/325 53/89/326 55/96/327
f 60/104/328 57/98/329 72/87/330 61/143/331
f 61/143/332 72/87/333 66/88/334 62/141/335
f 73/67/336 47/71/337 7/69/338
f 6/66/339 73/67/340 7/69/341
f 74/70/342 48/74/343 8/72/344
f 7/69/345 74/70/346 8/72/347
f 75/73/348 49/77/349 1/75/350
f 8/72/351 75/73/352 1/75/353
f 76/76/354 50/80/355 2/78/356
f 1/75/357 76/76/358 2/78/359
f 77/79/360 51/83/361 3/81/362
f 2/78/363 77/79/364 3/81/365
f 78/82/366 52/86/367 4/84/368
f 3/81/369 78/82/370 4/84/371
f 79/85/372 45/116/373 5/115/374
f 4/84/375 79/85/376 5/115/377
f 80/64/378 46/68/379 6/66/380
f 5/63/381 80/64/382 6/66/383
f 52/117/384 60/104/385 79/110/386
f 64/105/387 45/118/388 79/110/389
f 45/118/390 64/105/391 80/111/392
f 65/107/393 46/119/394 80/111/395
f 46/119/396 65/107/397 73/112/398
f 63/109/399 47/120/400 73/112/401
f 47/120/402 63/109/403 74/113/404
f 68/92/405 48/121/406 74/113/407
f 48/121/408 68/92/409 75/114/410
f 54/95/411 49/122/412 75/114/413
f 49/122/414 54/95/415 76/101/416
f 58/99/417 50/123/418 76/101/419
f 50/123/420 58/99/421 77/102/422
f 59/100/423 51/124/424 77/102/425
f 51/124/426 59/100/427 78/103/428
f 57/98/429 60/104/430 52/117/431 78/103/432
