# This file uses centimeters as units for non-parametric coordinates.

v 0.115741 0.000000 -0.116058
v -0.000655 0.000000 -0.164270
v -0.117052 0.000000 -0.116058
v -0.165265 0.000000 0.000341
v -0.117052 0.000000 0.116737
v -0.000655 0.000000 0.164949
v 0.106779 0.003841 0.116407
v 0.163955 0.000000 0.000341
v 0.182001 0.104849 -0.182316
v -0.007999 0.121003 -0.266546
v -0.183311 0.104849 -0.182316
v -0.258970 0.104849 0.000341
v -0.184793 0.093088 0.183260
v -0.000655 0.104849 0.258656
v 0.182001 0.104849 0.182997
v 0.258970 0.091717 0.000107
v -0.000655 0.000000 0.000341
v 0.165711 0.425636 -0.166029
v -0.000655 0.454850 -0.234936
v -0.167022 0.425636 -0.166029
v -0.235933 0.454850 0.000341
v -0.167022 0.425636 0.166706
v -0.000655 0.454850 0.235617
v 0.165711 0.425636 0.166706
v 0.234622 0.454850 0.000341
v 0.095373 0.565638 -0.095688
v -0.000655 0.576773 -0.135464
v -0.096683 0.565638 -0.095688
v -0.136459 0.576773 0.000341
v -0.096683 0.565638 0.096369
v -0.000655 0.576773 0.136145
v 0.095373 0.565638 0.096369
v 0.135149 0.576773 0.000341
v 0.144195 0.631881 -0.143248
v -0.000655 0.643233 -0.197519
v -0.157345 0.641601 -0.126711
v -0.198514 0.643233 0.000341
v -0.140563 0.643233 0.140247
v 0.000133 0.631247 0.204351
v 0.139252 0.643233 0.140247
v 0.197204 0.643233 0.000341
v 0.129573 0.668466 -0.128628
v -0.000655 0.679818 -0.176842
v -0.142724 0.678186 -0.112089
v -0.177836 0.679818 0.000341
v -0.125941 0.679818 0.125624
v 0.000133 0.667832 0.183674
v 0.124630 0.679818 0.125624
v 0.176526 0.679818 0.000341
v 0.076542 0.573145 -0.076859
v -0.000655 0.573145 -0.108835
v -0.077853 0.573145 -0.076859
v -0.109830 0.573145 0.000341
v -0.077853 0.573145 0.077538
v -0.000655 0.573145 0.109512
v 0.076542 0.573145 0.077538
v 0.108520 0.573145 0.000341
v 0.137455 0.255955 -0.137770
v -0.000655 0.255955 -0.194977
v -0.000655 0.063597 0.000341
v -0.138765 0.255955 -0.137770
v -0.195972 0.255955 0.000341
v -0.138765 0.255955 0.138447
v -0.000655 0.255955 0.195654
v 0.137455 0.255955 0.138447
v 0.194662 0.255955 0.000341
v -0.106226 0.652790 -0.122639
v -0.043657 0.673667 -0.161463
v -0.048826 0.637082 -0.179998
v -0.121319 0.635227 -0.137732
v 0.191662 0.279849 0.192656
v -0.000655 0.314492 0.272318
v -0.194454 0.268089 0.192923
v -0.272633 0.314492 0.000341
v -0.192973 0.279849 -0.191978
v -0.003490 0.332181 -0.272318
v 0.191662 0.279849 -0.191978
v 0.272633 0.301360 0.000107
v -0.000663 0.372803 0.256712
v -0.191398 0.326541 0.190657
v -0.257032 0.372803 0.000345
v -0.190875 0.330689 -0.189884
v -0.001616 0.378748 -0.256251
v 0.189574 0.330689 -0.189884
v 0.256146 0.368389 0.000264
v 0.189574 0.330689 0.190567
v -0.000655 0.245707 0.267929
v -0.191351 0.211883 0.189819
v -0.268245 0.245707 0.000341
v -0.189870 0.223644 -0.188875
v -0.004939 0.262904 -0.270464
v 0.188560 0.223644 -0.188875
v 0.268245 0.232576 0.000107
v 0.188560 0.223644 0.189554
vt 0.023462 0.304063
vt 0.023462 0.304063
vt 0.023462 0.304063
vt 0.023462 0.304063
vt 0.023462 0.304063
vt 0.023462 0.304063
vt 0.023462 0.304063
vt 0.023462 0.304063
vt 0.023462 0.304063
vt 0.023462 0.304063
vt 0.023462 0.304063
vt 0.023462 0.304063
vt 0.023462 0.304063
vt 0.023462 0.304063
vt 0.023462 0.304063
vt 0.023462 0.304063
vt 0.023462 0.304063
vt 0.023462 0.304063
vt 0.023462 0.304063
vt 0.023462 0.304063
vt 0.023462 0.304063
vt 0.023462 0.304063
vt 0.023462 0.304063
vt 0.023462 0.304063
vt 0.023462 0.304063
vt 0.023462 0.304063
vt 0.023462 0.304063
vt 0.023462 0.304063
vt 0.023462 0.304063
vt 0.023462 0.304063
vt 0.023462 0.304063
vt 0.023462 0.304063
vt 0.023462 0.304063
vt 0.023462 0.304063
vt 0.023462 0.304063
vt 0.023462 0.304063
vt 0.023462 0.304063
vt 0.023462 0.304063
vt 0.023462 0.304063
vt 0.023462 0.304063
vt 0.023462 0.304063
vt 0.023462 0.304063
vt 0.023462 0.304063
vt 0.023462 0.304063
vt 0.023462 0.304063
vt 0.023462 0.304063
vt 0.023462 0.304063
vt 0.023462 0.304063
vt 0.023462 0.304063
vt 0.023462 0.304063
vt 0.023462 0.304063
vt 0.023462 0.304063
vt 0.023462 0.304063
vt 0.023462 0.304063
vt 0.023462 0.304063
vt 0.023462 0.304063
vt 0.023462 0.304063
vt 0.023462 0.304063
vt 0.023462 0.304063
vt 0.023462 0.304063
vt 0.023462 0.304063
vt 0.023462 0.304063
vt 0.023462 0.304063
vt 0.023462 0.304063
vt 0.023462 0.304063
vt 0.023462 0.304063
vt 0.023462 0.304063
vt 0.023462 0.304063
vt 0.023462 0.304063
vt 0.023462 0.304063
vt 0.023462 0.304063
vt 0.023462 0.304063
vt 0.023462 0.304063
vt 0.023462 0.304063
vt 0.023462 0.304063
vt 0.023462 0.304063
vt 0.023462 0.304063
vt 0.023462 0.304063
vt 0.023462 0.304063
vt 0.023462 0.304063
vt 0.023462 0.304063
vt 0.023462 0.304063
vt 0.023462 0.304063
vt 0.023462 0.304063
vt 0.023462 0.304063
vt 0.023462 0.304063
vt 0.023462 0.304063
vt 0.023462 0.304063
vt 0.023462 0.304063
vt 0.023462 0.304063
vt 0.023462 0.304063
vt 0.023462 0.304063
vt 0.023462 0.304063
vt 0.023462 0.304063
vt 0.023462 0.304063
vt 0.023462 0.304063
vt 0.023462 0.304063
vt 0.023462 0.304063
vt 0.023462 0.304063
vt 0.023462 0.304063
vt 0.023462 0.304063
vt 0.023462 0.304063
vt 0.023462 0.304063
vt 0.023462 0.304063
vt 0.023462 0.304063
vt 0.023462 0.304063
vt 0.023462 0.304063
vt 0.023462 0.304063
vt 0.145686 0.417646
vt 0.145686 0.417646
vt 0.145686 0.417646
vt 0.145686 0.417646
vt 0.145686 0.417646
vt 0.145686 0.417646
vt 0.145686 0.417646
vt 0.145686 0.417646
vt 0.145686 0.417646
vt 0.145686 0.417646
vt 0.145686 0.417646
vt 0.145686 0.417646
vt 0.145686 0.417646
vt 0.145686 0.417646
vt 0.145686 0.417646
vt 0.145686 0.417646
vt 0.145686 0.417646
vt 0.145686 0.417646
vt 0.145686 0.417646
vt 0.145686 0.417646
vt 0.145686 0.417646
vt 0.145686 0.417646
vt 0.145686 0.417646
vt 0.145686 0.417646
vt 0.145686 0.417646
vt 0.145686 0.417646
vt 0.145686 0.417646
vt 0.145686 0.417646
vt 0.145686 0.417646
vt 0.145686 0.417646
vt 0.145686 0.417646
vt 0.145686 0.417646
vn 0.283568 -0.619923 -0.731631
vn 0.283568 -0.619923 -0.731631
vn 0.283568 -0.619923 -0.731631
vn 0.283568 -0.619923 -0.731631
vn -0.291364 -0.631285 -0.718740
vn -0.291364 -0.631285 -0.718740
vn -0.291364 -0.631285 -0.718740
vn -0.291364 -0.631285 -0.718740
vn -0.712417 -0.636698 -0.295089
vn -0.712417 -0.636698 -0.295089
vn -0.712417 -0.636698 -0.295089
vn -0.712417 -0.636698 -0.295089
vn -0.703047 -0.661321 0.261494
vn -0.703047 -0.661321 0.261494
vn -0.703047 -0.661321 0.261494
vn -0.703047 -0.661321 0.261494
vn -0.263594 -0.659826 0.703668
vn -0.263594 -0.659826 0.703668
vn -0.263594 -0.659826 0.703668
vn -0.263594 -0.659826 0.703668
vn 0.305706 -0.652000 0.693859
vn 0.305706 -0.652000 0.693859
vn 0.305706 -0.652000 0.693859
vn 0.305706 -0.652000 0.693859
vn 0.648297 -0.686225 0.329858
vn 0.648297 -0.686225 0.329858
vn 0.648297 -0.686225 0.329858
vn 0.648297 -0.686225 0.329858
vn 0.679279 -0.663446 -0.313719
vn 0.679279 -0.663446 -0.313719
vn 0.679279 -0.663446 -0.313719
vn 0.679279 -0.663446 -0.313719
vn 0.000000 -1.000000 0.000000
vn 0.000000 -1.000000 0.000000
vn 0.000000 -1.000000 0.000000
vn 0.000000 -1.000000 0.000000
vn 0.000000 -1.000000 0.000000
vn 0.000000 -1.000000 0.000000
vn 0.000000 -1.000000 0.000000
vn 0.000000 -1.000000 0.000000
vn 0.000000 -1.000000 0.000000
vn 0.000000 -1.000000 0.000000
vn 0.000000 -1.000000 0.000000
vn 0.000000 -1.000000 0.000000
vn 0.000000 -1.000000 0.000000
vn 0.000000 -1.000000 0.000000
vn 0.000000 -1.000000 0.000000
vn 0.035729 -0.999362 0.000000
vn 0.035729 -0.999362 0.000000
vn 0.035729 -0.999362 0.000000
vn 0.000000 -0.999453 0.033074
vn 0.000000 -0.999453 0.033074
vn 0.000000 -0.999453 0.033074
vn 0.000000 -1.000000 0.000000
vn 0.000000 -1.000000 0.000000
vn 0.000000 -1.000000 0.000000
vn -0.279099 0.684174 0.673803
vn -0.279099 0.684174 0.673803
vn -0.279099 0.684174 0.673803
vn 0.279098 0.684174 0.673803
vn 0.279098 0.684174 0.673803
vn 0.279098 0.684174 0.673803
vn 0.673806 0.684172 0.279096
vn 0.673806 0.684172 0.279096
vn 0.673806 0.684172 0.279096
vn 0.673803 0.684170 -0.279107
vn 0.673803 0.684170 -0.279107
vn 0.673803 0.684170 -0.279107
vn 0.279102 0.684163 -0.673812
vn 0.279102 0.684163 -0.673812
vn 0.279102 0.684163 -0.673812
vn -0.279103 0.684163 -0.673812
vn -0.279103 0.684163 -0.673812
vn -0.279103 0.684163 -0.673812
vn -0.673804 0.684169 -0.279108
vn -0.673804 0.684169 -0.279108
vn -0.673804 0.684169 -0.279108
vn -0.673806 0.684171 0.279098
vn -0.673806 0.684171 0.279098
vn -0.673806 0.684171 0.279098
vn 0.387345 0.572517 -0.722626
vn 0.387345 0.572517 -0.722626
vn 0.387345 0.572518 -0.722626
vn 0.387345 0.572518 -0.722626
vn -0.387344 0.572518 -0.722625
vn -0.387344 0.572518 -0.722625
vn -0.387344 0.572518 -0.722625
vn -0.387344 0.572518 -0.722625
vn -0.722623 0.572518 -0.387348
vn -0.722623 0.572518 -0.387348
vn -0.722623 0.572518 -0.387348
vn -0.722623 0.572518 -0.387348
vn -0.722621 0.572514 0.387358
vn -0.722621 0.572514 0.387358
vn -0.722621 0.572514 0.387358
vn -0.722621 0.572514 0.387358
vn -0.387354 0.572511 0.722626
vn -0.387354 0.572511 0.722626
vn -0.387354 0.572511 0.722626
vn -0.387354 0.572511 0.722626
vn 0.387354 0.572510 0.722626
vn 0.387354 0.572510 0.722626
vn 0.387354 0.572510 0.722626
vn 0.387354 0.572510 0.722626
vn 0.722622 0.572513 0.387359
vn 0.722622 0.572513 0.387359
vn 0.722622 0.572513 0.387359
vn 0.722622 0.572513 0.387359
vn 0.722624 0.572517 -0.387349
vn 0.722624 0.572517 -0.387349
vn 0.722624 0.572517 -0.387349
vn 0.722624 0.572517 -0.387349
vn 0.215789 -0.667813 -0.712363
vn 0.215789 -0.667813 -0.712363
vn 0.215789 -0.667813 -0.712363
vn 0.215789 -0.667813 -0.712363
vn -0.270557 -0.647062 -0.712818
vn -0.270557 -0.647062 -0.712818
vn -0.270557 -0.647062 -0.712818
vn -0.270557 -0.647062 -0.712818
vn -0.270557 -0.647062 -0.712818
vn -0.683841 -0.668286 -0.292841
vn -0.683841 -0.668286 -0.292841
vn -0.683841 -0.668286 -0.292841
vn -0.683841 -0.668286 -0.292841
vn -0.683841 -0.668286 -0.292841
vn -0.732973 -0.622535 0.274228
vn -0.732973 -0.622535 0.274228
vn -0.732973 -0.622535 0.274228
vn -0.732973 -0.622535 0.274228
vn -0.299502 -0.672282 0.677005
vn -0.299502 -0.672282 0.677004
vn -0.299502 -0.672282 0.677004
vn -0.299502 -0.672282 0.677004
vn 0.300482 -0.674198 0.674661
vn 0.300482 -0.674198 0.674661
vn 0.300482 -0.674198 0.674661
vn 0.300482 -0.674198 0.674661
vn 0.732974 -0.622533 0.274230
vn 0.732974 -0.622533 0.274230
vn 0.732974 -0.622533 0.274230
vn 0.732974 -0.622533 0.274230
vn 0.711075 -0.670254 -0.212442
vn 0.711075 -0.670254 -0.212443
vn 0.711075 -0.670254 -0.212443
vn 0.711075 -0.670254 -0.212443
vn 0.342772 0.462851 -0.817482
vn 0.342772 0.462851 -0.817482
vn 0.342772 0.462851 -0.817482
vn 0.342772 0.462851 -0.817482
vn -0.843319 0.461777 -0.274911
vn -0.843319 0.461777 -0.274911
vn -0.843319 0.461777 -0.274911
vn -0.843319 0.461777 -0.274911
vn -0.818943 0.462885 0.339221
vn -0.818942 0.462885 0.339221
vn -0.818943 0.462885 0.339221
vn -0.818943 0.462885 0.339221
vn -0.334322 0.462883 0.820956
vn -0.334322 0.462883 0.820956
vn -0.334322 0.462883 0.820956
vn -0.334322 0.462883 0.820956
vn 0.337682 0.462888 0.819576
vn 0.337682 0.462888 0.819576
vn 0.337682 0.462888 0.819576
vn 0.337682 0.462888 0.819576
vn 0.818942 0.462883 0.339224
vn 0.818942 0.462883 0.339224
vn 0.818942 0.462883 0.339224
vn 0.818942 0.462883 0.339224
vn 0.819062 0.462869 -0.338952
vn 0.819062 0.462869 -0.338952
vn 0.819062 0.462869 -0.338952
vn 0.819062 0.462869 -0.338952
vn -0.276825 0.542841 0.792901
vn -0.276825 0.542841 0.792901
vn -0.276825 0.542841 0.792901
vn -0.276825 0.542841 0.792901
vn 0.771483 0.549705 0.320371
vn 0.771483 0.549705 0.320371
vn 0.771483 0.549705 0.320371
vn 0.771483 0.549705 0.320371
vn 0.771483 0.549705 0.320371
vn 0.796058 0.507504 -0.329746
vn 0.796058 0.507504 -0.329746
vn 0.796058 0.507504 -0.329746
vn 0.796058 0.507504 -0.329746
vn 0.366338 0.544247 -0.754713
vn 0.366338 0.544247 -0.754713
vn 0.366338 0.544247 -0.754713
vn 0.366338 0.544247 -0.754713
vn -0.368275 0.546168 -0.752379
vn -0.368275 0.546168 -0.752379
vn -0.368275 0.546168 -0.752379
vn -0.368275 0.546168 -0.752379
vn -0.796056 0.507504 -0.329749
vn -0.796056 0.507504 -0.329749
vn -0.796056 0.507504 -0.329749
vn -0.796056 0.507504 -0.329749
vn -0.792594 0.545007 0.273427
vn -0.792594 0.545007 0.273427
vn -0.792594 0.545007 0.273427
vn -0.792594 0.545007 0.273427
vn -0.371181 -0.243361 0.896103
vn -0.371181 -0.243361 0.896103
vn -0.371181 -0.243361 0.896103
vn -0.371181 -0.243361 0.896103
vn 0.371179 -0.243361 0.896104
vn 0.371179 -0.243361 0.896104
vn 0.371179 -0.243361 0.896103
vn 0.371179 -0.243361 0.896103
vn 0.896105 -0.243363 0.371173
vn 0.896105 -0.243363 0.371173
vn 0.896105 -0.243363 0.371173
vn 0.896105 -0.243363 0.371173
vn 0.896100 -0.243362 -0.371187
vn 0.896100 -0.243362 -0.371187
vn 0.896100 -0.243362 -0.371187
vn 0.896100 -0.243362 -0.371187
vn 0.371173 -0.243359 -0.896107
vn 0.371173 -0.243359 -0.896107
vn 0.371173 -0.243359 -0.896107
vn 0.371173 -0.243359 -0.896107
vn -0.371174 -0.243359 -0.896106
vn -0.371174 -0.243359 -0.896106
vn -0.371174 -0.243359 -0.896106
vn -0.371174 -0.243359 -0.896106
vn -0.896099 -0.243362 -0.371191
vn -0.896099 -0.243362 -0.371191
vn -0.896099 -0.243362 -0.371191
vn -0.896099 -0.243362 -0.371191
vn -0.896104 -0.243363 0.371177
vn -0.896104 -0.243363 0.371177
vn -0.896104 -0.243363 0.371177
vn -0.896104 -0.243363 0.371177
vn -0.927423 -0.065851 0.368171
vn -0.927423 -0.065851 0.368171
vn -0.927423 -0.065851 0.368171
vn -0.927423 -0.065851 0.368171
vn -0.923250 -0.065858 -0.378513
vn -0.923250 -0.065858 -0.378513
vn -0.923250 -0.065858 -0.378513
vn -0.923250 -0.065858 -0.378513
vn -0.412406 -0.042106 -0.910027
vn -0.412406 -0.042106 -0.910027
vn -0.412406 -0.042106 -0.910027
vn -0.412406 -0.042106 -0.910027
vn 0.390092 -0.051340 -0.919343
vn 0.390092 -0.051340 -0.919343
vn 0.390092 -0.051340 -0.919343
vn 0.390092 -0.051340 -0.919343
vn 0.919125 -0.065860 -0.388423
vn 0.919125 -0.065860 -0.388423
vn 0.919125 -0.065860 -0.388423
vn 0.919125 -0.065860 -0.388423
vn 0.919474 -0.065857 0.387596
vn 0.919474 -0.065857 0.387596
vn 0.919474 -0.065857 0.387596
vn 0.919474 -0.065857 0.387596
vn -0.371289 -0.065853 0.926179
vn -0.371289 -0.065853 0.926179
vn -0.371289 -0.065853 0.926179
vn -0.371289 -0.065853 0.926179
vn 0.378515 -0.065851 0.923250
vn 0.378515 -0.065851 0.923250
vn 0.378515 -0.065851 0.923250
vn 0.378515 -0.065851 0.923250
vn 0.289240 0.542499 0.788692
vn 0.289240 0.542499 0.788692
vn 0.289240 0.542499 0.788692
vn 0.289240 0.542499 0.788692
vn 0.289240 0.542499 0.788692
vn -0.355598 0.460879 -0.813105
vn -0.355598 0.460879 -0.813105
vn -0.355598 0.460879 -0.813105
vn -0.355598 0.460879 -0.813105
vn -0.039836 0.497417 -0.866596
vn -0.039836 0.497417 -0.866596
vn -0.039836 0.497417 -0.866596
vn -0.039836 0.497417 -0.866597
vn -0.487591 0.584965 -0.648129
vn -0.487591 0.584965 -0.648129
vn -0.487591 0.584965 -0.648129
vn -0.487591 0.584965 -0.648129
vn 0.378869 0.155175 0.912348
vn 0.378869 0.155175 0.912348
vn 0.378869 0.155175 0.912348
vn 0.378869 0.155175 0.912348
vn -0.381140 0.149585 0.912336
vn -0.381140 0.149585 0.912336
vn -0.381140 0.149585 0.912336
vn -0.381141 0.149585 0.912336
vn -0.912335 0.153134 0.379731
vn -0.912335 0.153134 0.379731
vn -0.912335 0.153134 0.379731
vn -0.912335 0.153134 0.379731
vn -0.912329 0.155215 -0.378898
vn -0.912329 0.155215 -0.378898
vn -0.912329 0.155215 -0.378898
vn -0.912329 0.155215 -0.378898
vn -0.397038 0.183848 -0.899200
vn -0.397038 0.183848 -0.899200
vn -0.397038 0.183848 -0.899200
vn -0.397038 0.183848 -0.899200
vn 0.388092 0.169757 -0.905852
vn 0.388093 0.169757 -0.905852
vn 0.388093 0.169757 -0.905852
vn 0.388092 0.169757 -0.905852
vn 0.914083 0.151245 -0.376268
vn 0.914083 0.151245 -0.376268
vn 0.914083 0.151245 -0.376268
vn 0.914083 0.151245 -0.376268
vn 0.914490 0.150276 0.375667
vn 0.914490 0.150276 0.375667
vn 0.914490 0.150276 0.375667
vn 0.914490 0.150276 0.375667
vn -0.389928 0.271320 0.879967
vn -0.389928 0.271320 0.879967
vn -0.389928 0.271320 0.879967
vn -0.389928 0.271320 0.879967
vn -0.879817 0.272386 0.389523
vn -0.879817 0.272386 0.389523
vn -0.879817 0.272386 0.389523
vn -0.879817 0.272386 0.389523
vn -0.879375 0.275657 -0.388216
vn -0.879375 0.275657 -0.388216
vn -0.879375 0.275657 -0.388216
vn -0.879375 0.275657 -0.388216
vn -0.394475 0.287688 -0.872711
vn -0.394475 0.287688 -0.872711
vn -0.394475 0.287688 -0.872711
vn -0.394475 0.287688 -0.872711
vn 0.392333 0.283597 -0.875013
vn 0.392333 0.283597 -0.875013
vn 0.392333 0.283597 -0.875013
vn 0.392333 0.283597 -0.875013
vn 0.881642 0.271500 -0.385999
vn 0.881642 0.271500 -0.385999
vn 0.881642 0.271500 -0.385999
vn 0.881642 0.271500 -0.385999
vn 0.881802 0.271202 0.385842
vn 0.881802 0.271202 0.385842
vn 0.881802 0.271202 0.385842
vn 0.881802 0.271202 0.385842
vn 0.388189 0.275681 0.879380
vn 0.388189 0.275681 0.879380
vn 0.388189 0.275681 0.879380
vn 0.388189 0.275681 0.879380
vn -0.366679 -0.064734 0.928093
vn -0.366679 -0.064734 0.928093
vn -0.366679 -0.064734 0.928093
vn -0.366679 -0.064734 0.928093
vn -0.929303 -0.064722 0.363603
vn -0.929303 -0.064722 0.363603
vn -0.929303 -0.064722 0.363603
vn -0.929303 -0.064722 0.363603
vn -0.925308 -0.064736 -0.373649
vn -0.925308 -0.064736 -0.373649
vn -0.925308 -0.064736 -0.373649
vn -0.925308 -0.064736 -0.373649
vn -0.388042 -0.041489 -0.920707
vn -0.388042 -0.041489 -0.920707
vn -0.388042 -0.041489 -0.920707
vn -0.388042 -0.041489 -0.920707
vn 0.374018 -0.050150 -0.926064
vn 0.374018 -0.050150 -0.926064
vn 0.374018 -0.050150 -0.926064
vn 0.374018 -0.050150 -0.926064
vn 0.921364 -0.064733 -0.383272
vn 0.921364 -0.064733 -0.383272
vn 0.921364 -0.064733 -0.383272
vn 0.921364 -0.064733 -0.383272
vn 0.921694 -0.064727 0.382479
vn 0.921694 -0.064727 0.382479
vn 0.921694 -0.064727 0.382479
vn 0.921694 -0.064727 0.382479
vn 0.373658 -0.064726 0.925306
vn 0.373658 -0.064726 0.925306
vn 0.373658 -0.064726 0.925306
vn 0.373658 -0.064726 0.925306
s off
f 9/4/1 1/1/2 2/2/3 10/3/4
f 10/3/5 2/2/6 3/5/7 11/6/8
f 11/6/9 3/5/10 4/7/11 12/8/12
f 12/8/13 4/7/14 5/9/15 13/10/16
f 13/10/17 5/9/18 6/11/19 14/12/20
f 14/12/21 6/11/22 7/13/23 15/14/24
f 15/14/25 7/13/26 8/15/27 16/16/28
f 16/16/29 8/15/30 1/1/31 9/4/32
f 2/2/33 1/1/34 17/17/35
f 3/5/36 2/2/37 17/17/38
f 4/7/39 3/5/40 17/17/41
f 5/9/42 4/7/43 17/17/44
f 6/11/45 5/9/46 17/17/47
f 7/13/48 6/11/49 17/17/50
f 8/15/51 7/13/52 17/17/53
f 1/1/54 8/15/55 17/17/56
f 58/25/57 59/24/58 60/32/59
f 59/24/60 61/23/61 60/32/62
f 61/23/63 62/22/64 60/32/65
f 62/22/66 63/21/67 60/32/68
f 63/21/69 64/20/70 60/32/71
f 64/20/72 65/19/73 60/32/74
f 65/19/75 66/18/76 60/32/77
f 66/18/78 58/25/79 60/32/80
f 26/41/81 18/33/82 19/34/83 27/42/84
f 27/42/85 19/34/86 20/35/87 28/43/88
f 28/43/89 20/35/90 21/36/91 29/44/92
f 29/44/93 21/36/94 22/37/95 30/45/96
f 30/45/97 22/37/98 23/38/99 31/46/100
f 31/46/101 23/38/102 24/39/103 32/47/104
f 32/47/105 24/39/106 25/40/107 33/48/108
f 33/48/109 25/40/110 18/33/111 26/41/112
f 34/49/113 26/41/114 27/42/115 35/50/116
f 35/50/117 27/42/118 28/43/119 70/78/120 69/77/121
f 36/51/122 70/78/123 28/43/124 29/44/125 37/52/126
f 37/52/127 29/44/128 30/45/129 38/53/130
f 38/53/131 30/45/132 31/46/133 39/54/134
f 39/54/135 31/46/136 32/47/137 40/55/138
f 40/55/139 32/47/140 33/48/141 41/56/142
f 41/56/143 33/48/144 26/41/145 34/49/146
f 42/57/147 34/49/148 35/50/149 43/58/150
f 44/59/151 36/51/152 37/52/153 45/60/154
f 45/60/155 37/52/156 38/53/157 46/61/158
f 46/61/159 38/53/160 39/54/161 47/62/162
f 47/62/163 39/54/164 40/55/165 48/63/166
f 48/63/167 40/55/168 41/56/169 49/64/170
f 49/64/171 41/56/172 34/49/173 42/57/174
f 50/65/175 42/57/176 43/58/177 51/66/178
f 52/67/179 67/75/180 44/59/181 45/60/182 53/68/183
f 53/68/184 45/60/185 46/61/186 54/69/187
f 54/69/188 46/61/189 47/62/190 55/70/191
f 55/70/192 47/62/193 48/63/194 56/31/195
f 56/31/196 48/63/197 49/64/198 57/26/199
f 57/26/200 49/64/201 42/57/202 50/65/203
f 59/24/204 58/25/205 50/65/206 51/66/207
f 61/23/208 59/24/209 51/66/210 52/67/211
f 62/22/212 61/23/213 52/67/214 53/68/215
f 63/21/216 62/22/217 53/68/218 54/69/219
f 64/20/220 63/21/221 54/69/222 55/70/223
f 65/19/224 64/20/225 55/70/226 56/31/227
f 66/18/228 65/19/229 56/31/230 57/26/231
f 58/25/232 66/18/233 57/26/234 50/65/235
f 88/102/236 89/103/237 12/30/238 13/71/239
f 89/103/240 90/104/241 11/29/242 12/30/243
f 90/104/244 91/105/245 10/28/246 11/29/247
f 91/105/248 92/106/249 9/27/250 10/28/251
f 92/106/252 93/107/253 16/74/254 9/27/255
f 93/107/256 94/108/257 15/73/258 16/74/259
f 87/101/260 88/102/261 13/71/262 14/72/263
f 14/72/264 15/73/265 94/108/266 87/101/267
f 51/66/268 43/58/269 68/76/270 67/75/271 52/67/272
f 43/58/273 35/50/274 69/77/275 68/76/276
f 70/79/277 36/80/278 44/81/279 67/82/280
f 69/83/281 70/79/282 67/82/283 68/84/284
f 72/86/285 71/85/286 86/100/287 79/93/288
f 79/93/289 80/94/290 73/87/291 72/86/292
f 80/94/293 81/95/294 74/88/295 73/87/296
f 81/95/297 82/96/298 75/89/299 74/88/300
f 82/96/301 83/97/302 76/90/303 75/89/304
f 83/97/305 84/98/306 77/91/307 76/90/308
f 84/98/309 85/99/310 78/92/311 77/91/312
f 85/99/313 86/100/314 71/85/315 78/92/316
f 23/109/317 22/110/318 80/111/319 79/112/320
f 22/110/321 21/113/322 81/114/323 80/111/324
f 21/113/325 20/115/326 82/116/327 81/114/328
f 20/115/329 19/117/330 83/118/331 82/116/332
f 19/117/333 18/119/334 84/120/335 83/118/336
f 18/119/337 25/121/338 85/122/339 84/120/340
f 25/121/341 24/123/342 86/124/343 85/122/344
f 79/112/345 86/124/346 24/123/347 23/109/348
f 72/125/349 73/126/350 88/127/351 87/128/352
f 73/126/353 74/129/354 89/130/355 88/127/356
f 74/129/357 75/131/358 90/132/359 89/130/360
f 75/131/361 76/133/362 91/134/363 90/132/364
f 76/133/365 77/135/366 92/136/367 91/134/368
f 77/135/369 78/137/370 93/138/371 92/136/372
f 78/137/373 71/139/374 94/140/375 93/138/376
f 87/128/377 94/140/378 71/139/379 72/125/380
