# This file uses centimeters as units for non-parametric coordinates.

v 0.539518 0.100929 -0.311491
v 0.311491 0.100929 -0.539518
v 0.312129 1.890312 -0.540624
v 0.540624 1.890312 -0.312129
v 0.000000 0.100929 -0.622982
v 0.000000 1.890312 -0.624259
v -0.311491 0.100929 -0.539518
v -0.312129 1.890312 -0.540624
v -0.539518 0.100929 -0.311491
v -0.540624 1.890312 -0.312129
v -0.622982 0.100929 -0.000000
v -0.624259 1.890312 -0.000000
v -0.539518 0.100929 0.311491
v -0.540624 1.890312 0.312129
v -0.311491 0.100929 0.539518
v -0.312129 1.890312 0.540624
v 0.000000 0.100929 0.622982
v -0.000000 1.890312 0.624258
v 0.311491 0.100929 0.539518
v 0.312129 1.890312 0.540624
v 0.539518 0.100929 0.311491
v 0.540624 1.890312 0.312129
v 0.622982 0.100929 -0.000000
v 0.624259 1.890312 -0.000000
v 0.164042 2.379210 -0.094710
v 0.094709 2.379210 -0.164042
v -0.000000 2.380617 -0.000000
v -0.000000 2.379210 -0.189419
v -0.094709 2.379210 -0.164042
v -0.164042 2.379210 -0.094710
v -0.189419 2.379210 -0.000000
v -0.164042 2.379210 0.094709
v -0.094709 2.379210 0.164042
v -0.000000 2.379210 0.189419
v 0.094709 2.379210 0.164042
v 0.164042 2.379210 0.094709
v 0.189419 2.379210 -0.000000
v 0.282074 2.112203 -0.488566
v 0.488566 2.112203 -0.282074
v 0.000000 2.112203 -0.564147
v -0.282074 2.112203 -0.488566
v -0.488566 2.112203 -0.282074
v -0.564147 2.112203 -0.000000
v -0.488566 2.112203 0.282073
v -0.282074 2.112203 0.488566
v -0.000000 2.112203 0.564147
v 0.282074 2.112203 0.488566
v 0.488566 2.112203 0.282073
v 0.564147 2.112203 -0.000000
v 0.189051 2.295349 -0.327446
v 0.327445 2.295349 -0.189051
v 0.000000 2.295349 -0.378101
v -0.189051 2.295349 -0.327446
v -0.327445 2.295349 -0.189051
v -0.378101 2.295349 -0.000000
v -0.327445 2.295349 0.189050
v -0.189051 2.295349 0.327445
v -0.000000 2.295349 0.378101
v 0.189051 2.295349 0.327445
v 0.327445 2.295349 0.189050
v 0.378101 2.295349 -0.000000
vt 0.101202 0.297686
vt 0.101202 0.297686
vt 0.101202 0.297686
vt 0.101202 0.297686
vt 0.101202 0.297686
vt 0.101202 0.297686
vt 0.101202 0.297686
vt 0.101202 0.297686
vt 0.101202 0.297686
vt 0.101202 0.297686
vt 0.101202 0.297686
vt 0.101202 0.297686
vt 0.101202 0.297686
vt 0.101202 0.297686
vt 0.101202 0.297686
vt 0.101202 0.297686
vt 0.101202 0.297686
vt 0.101202 0.297686
vt 0.101202 0.297686
vt 0.101202 0.297686
vt 0.101202 0.297686
vt 0.101202 0.297686
vt 0.101202 0.297686
vt 0.101202 0.297686
vt 0.101202 0.297686
vt 0.101202 0.297686
vt 0.101202 0.297686
vt 0.101202 0.297686
vt 0.101202 0.297686
vt 0.101202 0.297686
vt 0.101202 0.297686
vt 0.101202 0.297686
vt 0.101202 0.297686
vt 0.101202 0.297686
vt 0.101202 0.297686
vt 0.101202 0.297686
vt 0.101202 0.297686
vt 0.101202 0.297686
vt 0.101202 0.297686
vt 0.101202 0.297686
vt 0.101202 0.297686
vt 0.101202 0.297686
vt 0.101202 0.297686
vt 0.101202 0.297686
vt 0.101202 0.297686
vt 0.101202 0.297686
vt 0.101202 0.297686
vt 0.101202 0.297686
vt 0.101202 0.297686
vt 0.101202 0.297686
vt 0.101202 0.297686
vt 0.101202 0.297686
vt 0.101202 0.297686
vt 0.101202 0.297686
vt 0.101202 0.297686
vt 0.101202 0.297686
vt 0.101202 0.297686
vt 0.101202 0.297686
vt 0.101202 0.297686
vt 0.101202 0.297686
vt 0.101202 0.297686
vt 0.101202 0.297686
vt 0.101202 0.297686
vt 0.101202 0.297686
vt 0.101202 0.297686
vt 0.101202 0.297686
vt 0.101202 0.297686
vt 0.101202 0.297686
vt 0.101202 0.297686
vt 0.101202 0.297686
vt 0.101202 0.297686
vt 0.101202 0.297686
vt 0.101202 0.297686
vt 0.101202 0.297686
vt 0.101202 0.297686
vn 0.707107 -0.000689 -0.707106
vn 0.707107 -0.000689 -0.707106
vn 0.707107 -0.000689 -0.707106
vn 0.707107 -0.000689 -0.707106
vn 0.258819 -0.000689 -0.965926
vn 0.258819 -0.000689 -0.965926
vn 0.258819 -0.000689 -0.965926
vn 0.258819 -0.000689 -0.965925
vn -0.258819 -0.000689 -0.965926
vn -0.258819 -0.000689 -0.965926
vn -0.258819 -0.000689 -0.965925
vn -0.258819 -0.000689 -0.965926
vn -0.707107 -0.000689 -0.707106
vn -0.707107 -0.000689 -0.707106
vn -0.707107 -0.000689 -0.707106
vn -0.707107 -0.000689 -0.707106
vn -0.965925 -0.000689 -0.258819
vn -0.965926 -0.000689 -0.258819
vn -0.965926 -0.000689 -0.258819
vn -0.965925 -0.000689 -0.258819
vn -0.965926 -0.000689 0.258819
vn -0.965926 -0.000689 0.258819
vn -0.965926 -0.000689 0.258819
vn -0.965926 -0.000689 0.258819
vn -0.707107 -0.000689 0.707106
vn -0.707107 -0.000689 0.707106
vn -0.707107 -0.000689 0.707106
vn -0.707107 -0.000689 0.707106
vn -0.258818 -0.000689 0.965926
vn -0.258818 -0.000689 0.965926
vn -0.258818 -0.000689 0.965926
vn -0.258818 -0.000689 0.965926
vn 0.258818 -0.000689 0.965926
vn 0.258818 -0.000689 0.965926
vn 0.258818 -0.000689 0.965926
vn 0.258818 -0.000689 0.965926
vn 0.707107 -0.000689 0.707106
vn 0.707107 -0.000689 0.707106
vn 0.707107 -0.000689 0.707106
vn 0.707107 -0.000689 0.707106
vn 0.965926 -0.000689 0.258819
vn 0.965926 -0.000689 0.258819
vn 0.965926 -0.000689 0.258819
vn 0.965926 -0.000689 0.258819
vn 0.965926 -0.000689 -0.258819
vn 0.965925 -0.000689 -0.258819
vn 0.965925 -0.000689 -0.258819
vn 0.965926 -0.000689 -0.258819
vn 0.006433 0.999972 -0.003714
vn 0.003714 0.999972 -0.006434
vn 0.000000 1.000000 0.000000
vn 0.003714 0.999972 -0.006434
vn 0.000000 0.999972 -0.007429
vn 0.000000 1.000000 0.000000
vn 0.000000 0.999972 -0.007429
vn -0.003714 0.999972 -0.006434
vn 0.000000 1.000000 0.000000
vn -0.003714 0.999972 -0.006434
vn -0.006433 0.999972 -0.003714
vn 0.000000 1.000000 0.000000
vn -0.006433 0.999972 -0.003714
vn -0.007429 0.999972 0.000002
vn 0.000000 1.000000 0.000000
vn -0.007429 0.999972 0.000002
vn -0.006433 0.999972 0.003716
vn 0.000000 1.000000 0.000000
vn -0.006433 0.999972 0.003716
vn -0.003714 0.999972 0.006434
vn 0.000000 1.000000 0.000000
vn -0.003714 0.999972 0.006434
vn 0.000000 0.999972 0.007429
vn 0.000000 1.000000 0.000000
vn 0.000000 0.999972 0.007429
vn 0.003714 0.999972 0.006433
vn 0.000000 1.000000 0.000000
vn 0.003714 0.999972 0.006433
vn 0.006433 0.999972 0.003715
vn 0.000000 1.000000 0.000000
vn 0.006433 0.999972 0.003715
vn 0.007429 0.999972 0.000002
vn 0.000000 1.000000 0.000000
vn 0.007429 0.999972 0.000002
vn 0.006433 0.999972 -0.003714
vn 0.000000 1.000000 0.000000
vn 0.684074 0.253151 -0.684074
vn 0.684074 0.253151 -0.684074
vn 0.684074 0.253151 -0.684074
vn 0.684074 0.253151 -0.684074
vn 0.250389 0.253152 -0.934462
vn 0.250389 0.253152 -0.934462
vn 0.250389 0.253152 -0.934462
vn 0.250389 0.253152 -0.934462
vn -0.250389 0.253152 -0.934462
vn -0.250389 0.253152 -0.934462
vn -0.250389 0.253152 -0.934462
vn -0.250389 0.253152 -0.934462
vn -0.684074 0.253151 -0.684074
vn -0.684074 0.253151 -0.684074
vn -0.684074 0.253151 -0.684074
vn -0.684074 0.253151 -0.684074
vn -0.934462 0.253152 -0.250389
vn -0.934462 0.253152 -0.250389
vn -0.934462 0.253152 -0.250389
vn -0.934462 0.253152 -0.250389
vn -0.934462 0.253152 0.250389
vn -0.934462 0.253152 0.250389
vn -0.934462 0.253152 0.250389
vn -0.934462 0.253152 0.250389
vn -0.684074 0.253151 0.684074
vn -0.684074 0.253151 0.684074
vn -0.684074 0.253151 0.684074
vn -0.684074 0.253151 0.684074
vn -0.250388 0.253151 0.934463
vn -0.250388 0.253151 0.934463
vn -0.250388 0.253151 0.934463
vn -0.250388 0.253151 0.934463
vn 0.250388 0.253151 0.934463
vn 0.250388 0.253151 0.934463
vn 0.250388 0.253151 0.934463
vn 0.250388 0.253151 0.934463
vn 0.684074 0.253151 0.684074
vn 0.684074 0.253151 0.684074
vn 0.684074 0.253151 0.684074
vn 0.684074 0.253151 0.684074
vn 0.934462 0.253152 0.250389
vn 0.934462 0.253152 0.250389
vn 0.934462 0.253152 0.250389
vn 0.934462 0.253152 0.250389
vn 0.934462 0.253152 -0.250389
vn 0.934462 0.253152 -0.250389
vn 0.934462 0.253152 -0.250389
vn 0.934462 0.253152 -0.250389
vn 0.504718 0.700372 -0.504717
vn 0.504718 0.700372 -0.504717
vn 0.504718 0.700372 -0.504717
vn 0.504718 0.700372 -0.504717
vn 0.184739 0.700372 -0.689457
vn 0.184739 0.700372 -0.689457
vn 0.184739 0.700372 -0.689457
vn 0.184739 0.700372 -0.689457
vn -0.184739 0.700372 -0.689457
vn -0.184739 0.700372 -0.689457
vn -0.184739 0.700372 -0.689457
vn -0.184739 0.700372 -0.689457
vn -0.504718 0.700372 -0.504717
vn -0.504718 0.700372 -0.504717
vn -0.504718 0.700372 -0.504717
vn -0.504718 0.700372 -0.504717
vn -0.689457 0.700372 -0.184740
vn -0.689457 0.700372 -0.184740
vn -0.689457 0.700372 -0.184740
vn -0.689457 0.700372 -0.184740
vn -0.689457 0.700372 0.184739
vn -0.689457 0.700372 0.184739
vn -0.689457 0.700372 0.184739
vn -0.689457 0.700372 0.184739
vn -0.504718 0.700372 0.504717
vn -0.504718 0.700372 0.504717
vn -0.504718 0.700372 0.504717
vn -0.504718 0.700372 0.504717
vn -0.184739 0.700372 0.689457
vn -0.184739 0.700372 0.689457
vn -0.184739 0.700372 0.689457
vn -0.184739 0.700372 0.689457
vn 0.184739 0.700372 0.689457
vn 0.184739 0.700372 0.689457
vn 0.184739 0.700372 0.689457
vn 0.184739 0.700372 0.689457
vn 0.504718 0.700372 0.504717
vn 0.504718 0.700372 0.504717
vn 0.504718 0.700372 0.504717
vn 0.504718 0.700372 0.504717
vn 0.689457 0.700372 0.184739
vn 0.689457 0.700372 0.184739
vn 0.689457 0.700372 0.184739
vn 0.689457 0.700372 0.184739
vn 0.689457 0.700372 -0.184740
vn 0.689457 0.700372 -0.184740
vn 0.689457 0.700372 -0.184740
vn 0.689457 0.700372 -0.184740
vn 0.295576 0.908443 -0.295577
vn 0.295576 0.908443 -0.295577
vn 0.295576 0.908443 -0.295577
vn 0.295576 0.908443 -0.295577
vn 0.108188 0.908444 -0.403765
vn 0.108188 0.908444 -0.403765
vn 0.108188 0.908443 -0.403765
vn 0.108188 0.908444 -0.403765
vn -0.108188 0.908443 -0.403765
vn -0.108188 0.908443 -0.403765
vn -0.108188 0.908444 -0.403765
vn -0.108188 0.908443 -0.403765
vn -0.295576 0.908444 -0.295576
vn -0.295576 0.908444 -0.295576
vn -0.295576 0.908444 -0.295576
vn -0.295576 0.908444 -0.295576
vn -0.403764 0.908444 -0.108189
vn -0.403764 0.908444 -0.108189
vn -0.403764 0.908444 -0.108189
vn -0.403764 0.908444 -0.108189
vn -0.403764 0.908444 0.108189
vn -0.403764 0.908444 0.108189
vn -0.403764 0.908444 0.108189
vn -0.403764 0.908444 0.108189
vn -0.295576 0.908443 0.295577
vn -0.295576 0.908443 0.295577
vn -0.295576 0.908443 0.295577
vn -0.295576 0.908443 0.295577
vn -0.108188 0.908443 0.403765
vn -0.108188 0.908443 0.403765
vn -0.108188 0.908443 0.403765
vn -0.108188 0.908443 0.403765
vn 0.108188 0.908443 0.403765
vn 0.108188 0.908443 0.403765
vn 0.108188 0.908443 0.403765
vn 0.108188 0.908443 0.403765
vn 0.295576 0.908444 0.295575
vn 0.295576 0.908444 0.295575
vn 0.295576 0.908444 0.295575
vn 0.295576 0.908444 0.295575
vn 0.403764 0.908444 0.108189
vn 0.403764 0.908444 0.108189
vn 0.403764 0.908444 0.108189
vn 0.403764 0.908444 0.108189
vn 0.403764 0.908444 -0.108189
vn 0.403764 0.908444 -0.108189
vn 0.403764 0.908444 -0.108189
vn 0.403764 0.908444 -0.108189
s off
f 1/63/1 2/64/2 3/2/3 4/1/4
f 2/64/5 5/65/6 6/3/7 3/2/8
f 5/65/9 7/66/10 8/4/11 6/3/12
f 7/66/13 9/67/14 10/5/15 8/4/16
f 9/67/17 11/68/18 12/6/19 10/5/20
f 11/68/21 13/69/22 14/7/23 12/6/24
f 13/69/25 15/70/26 16/8/27 14/7/28
f 15/70/29 17/71/30 18/9/31 16/8/32
f 17/71/33 19/72/34 20/10/35 18/9/36
f 19/72/37 21/73/38 22/11/39 20/10/40
f 21/73/41 23/74/42 24/12/43 22/11/44
f 23/74/45 1/75/46 4/13/47 24/12/48
f 25/51/49 26/52/50 27/26/51
f 26/52/52 28/53/53 27/26/54
f 28/53/55 29/54/56 27/26/57
f 29/54/58 30/55/59 27/26/60
f 30/55/61 31/56/62 27/26/63
f 31/56/64 32/57/65 27/26/66
f 32/57/67 33/58/68 27/26/69
f 33/58/70 34/59/71 27/26/72
f 34/59/73 35/60/74 27/26/75
f 35/60/76 36/61/77 27/26/78
f 36/61/79 37/62/80 27/26/81
f 37/62/82 25/51/83 27/26/84
f 4/24/85 3/23/86 38/28/87 39/27/88
f 3/23/89 6/22/90 40/29/91 38/28/92
f 6/22/93 8/21/94 41/30/95 40/29/96
f 8/21/97 10/20/98 42/31/99 41/30/100
f 10/20/101 12/19/102 43/32/103 42/31/104
f 12/19/105 14/18/106 44/33/107 43/32/108
f 14/18/109 16/17/110 45/34/111 44/33/112
f 16/17/113 18/16/114 46/35/115 45/34/116
f 18/16/117 20/15/118 47/36/119 46/35/120
f 20/15/121 22/14/122 48/37/123 47/36/124
f 22/14/125 24/25/126 49/38/127 48/37/128
f 24/25/129 4/24/130 39/27/131 49/38/132
f 39/27/133 38/28/134 50/40/135 51/39/136
f 38/28/137 40/29/138 52/41/139 50/40/140
f 40/29/141 41/30/142 53/42/143 52/41/144
f 41/30/145 42/31/146 54/43/147 53/42/148
f 42/31/149 43/32/150 55/44/151 54/43/152
f 43/32/153 44/33/154 56/45/155 55/44/156
f 44/33/157 45/34/158 57/46/159 56/45/160
f 45/34/161 46/35/162 58/47/163 57/46/164
f 46/35/165 47/36/166 59/48/167 58/47/168
f 47/36/169 48/37/170 60/49/171 59/48/172
f 48/37/173 49/38/174 61/50/175 60/49/176
f 49/38/177 39/27/178 51/39/179 61/50/180
f 51/39/181 50/40/182 26/52/183 25/51/184
f 50/40/185 52/41/186 28/53/187 26/52/188
f 52/41/189 53/42/190 29/54/191 28/53/192
f 53/42/193 54/43/194 30/55/195 29/54/196
f 54/43/197 55/44/198 31/56/199 30/55/200
f 55/44/201 56/45/202 32/57/203 31/56/204
f 56/45/205 57/46/206 33/58/207 32/57/208
f 57/46/209 58/47/210 34/59/211 33/58/212
f 58/47/213 59/48/214 35/60/215 34/59/216
f 59/48/217 60/49/218 36/61/219 35/60/220
f 60/49/221 61/50/222 37/62/223 36/61/224
f 61/50/225 51/39/226 25/51/227 37/62/228
