# This file uses centimeters as units for non-parametric coordinates.

v 0.115741 0.000000 -0.116058
v -0.000655 0.000000 -0.164270
v -0.117052 0.000000 -0.116058
v -0.165265 0.000000 0.000340
v -0.117052 0.000000 0.116735
v -0.000655 0.000000 0.164949
v 0.106779 0.003841 0.116405
v 0.163954 0.000000 0.000340
v 0.182001 0.104849 -0.182318
v -0.007999 0.121003 -0.266546
v -0.183311 0.104849 -0.182318
v -0.258970 0.104849 0.000340
v -0.184792 0.093088 0.183262
v -0.000655 0.104849 0.258656
v 0.182001 0.104849 0.182995
v 0.258970 0.091717 0.000107
v -0.000655 0.000000 0.000340
v 0.165711 0.447363 -0.166027
v -0.000655 0.454850 -0.234938
v -0.167021 0.447363 -0.166027
v -0.235933 0.454850 0.000340
v -0.167021 0.447363 0.166706
v -0.000655 0.454850 0.235617
v 0.165711 0.447363 0.166706
v 0.234622 0.454850 0.000340
v 0.095373 0.565638 -0.095688
v -0.000655 0.576773 -0.135466
v -0.096683 0.565638 -0.095688
v -0.136459 0.576773 0.000340
v -0.096683 0.565638 0.096367
v -0.000655 0.576773 0.136143
v 0.095373 0.565638 0.096367
v 0.135149 0.576773 0.000340
v 0.144195 0.631881 -0.143248
v -0.000655 0.643233 -0.197519
v -0.157345 0.641601 -0.126712
v -0.198514 0.643233 0.000340
v -0.140562 0.643233 0.140247
v 0.000133 0.631247 0.204351
v 0.139252 0.643233 0.140247
v 0.197204 0.643233 0.000340
v 0.129573 0.668466 -0.128626
v -0.000655 0.679818 -0.176842
v -0.142723 0.678186 -0.112089
v -0.177836 0.679818 0.000340
v -0.125941 0.679818 0.125624
v 0.000133 0.667832 0.183674
v 0.124630 0.679818 0.125624
v 0.176526 0.679818 0.000340
v 0.076543 0.573145 -0.076860
v -0.000655 0.573145 -0.108835
v -0.077853 0.573145 -0.076860
v -0.109829 0.573145 0.000340
v -0.077853 0.573145 0.077538
v -0.000655 0.573145 0.109514
v 0.076543 0.573145 0.077538
v 0.108519 0.573145 0.000340
v 0.137455 0.255955 -0.137770
v -0.000655 0.255955 -0.194977
v -0.000655 0.063597 0.000340
v -0.138765 0.255955 -0.137770
v -0.195972 0.255955 0.000340
v -0.138765 0.255955 0.138449
v -0.000655 0.255955 0.195654
v 0.137455 0.255955 0.138449
v 0.194661 0.255955 0.000340
v -0.106226 0.652790 -0.122639
v -0.043656 0.673667 -0.161465
v -0.048826 0.637082 -0.180000
v -0.121319 0.635227 -0.137732
v 0.191662 0.279849 0.192658
v -0.000655 0.279849 0.272318
v -0.194453 0.268089 0.192923
v -0.272633 0.279849 0.000340
v -0.192973 0.279849 -0.191979
v -0.003490 0.297539 -0.272318
v 0.191662 0.279849 -0.191979
v 0.272633 0.266718 0.000107
vt 0.023462 0.304063
vt 0.023462 0.304063
vt 0.023462 0.304063
vt 0.023462 0.304063
vt 0.023462 0.304063
vt 0.023462 0.304063
vt 0.023462 0.304063
vt 0.023462 0.304063
vt 0.023462 0.304063
vt 0.023462 0.304063
vt 0.023462 0.304063
vt 0.023462 0.304063
vt 0.023462 0.304063
vt 0.023462 0.304063
vt 0.023462 0.304063
vt 0.023462 0.304063
vt 0.023462 0.304063
vt 0.023462 0.304063
vt 0.023462 0.304063
vt 0.023462 0.304063
vt 0.023462 0.304063
vt 0.023462 0.304063
vt 0.023462 0.304063
vt 0.023462 0.304063
vt 0.023462 0.304063
vt 0.023462 0.304063
vt 0.023462 0.304063
vt 0.023462 0.304063
vt 0.023462 0.304063
vt 0.023462 0.304063
vt 0.023462 0.304063
vt 0.023462 0.304063
vt 0.023462 0.304063
vt 0.023462 0.304063
vt 0.023462 0.304063
vt 0.023462 0.304063
vt 0.023462 0.304063
vt 0.023462 0.304063
vt 0.023462 0.304063
vt 0.023462 0.304063
vt 0.023462 0.304063
vt 0.023462 0.304063
vt 0.023462 0.304063
vt 0.023462 0.304063
vt 0.023462 0.304063
vt 0.023462 0.304063
vt 0.023462 0.304063
vt 0.023462 0.304063
vt 0.023462 0.304063
vt 0.023462 0.304063
vt 0.023462 0.304063
vt 0.023462 0.304063
vt 0.023462 0.304063
vt 0.023462 0.304063
vt 0.023462 0.304063
vt 0.023462 0.304063
vt 0.023462 0.304063
vt 0.023462 0.304063
vt 0.023462 0.304063
vt 0.023462 0.304063
vt 0.023462 0.304063
vt 0.023462 0.304063
vt 0.023462 0.304063
vt 0.023462 0.304063
vt 0.023462 0.304063
vt 0.023462 0.304063
vt 0.023462 0.304063
vt 0.023462 0.304063
vt 0.023462 0.304063
vt 0.023462 0.304063
vt 0.023462 0.304063
vt 0.023462 0.304063
vt 0.023462 0.304063
vt 0.023462 0.304063
vt 0.023462 0.304063
vt 0.023462 0.304063
vt 0.023462 0.304063
vt 0.023462 0.304063
vt 0.023462 0.304063
vt 0.023462 0.304063
vt 0.023462 0.304063
vt 0.023462 0.304063
vt 0.023462 0.304063
vt 0.023462 0.304063
vt 0.023462 0.304063
vt 0.023462 0.304063
vt 0.023462 0.304063
vt 0.023462 0.304063
vt 0.023462 0.304063
vt 0.023462 0.304063
vt 0.023462 0.304063
vt 0.023462 0.304063
vn 0.283563 -0.619927 -0.731630
vn 0.283563 -0.619927 -0.731630
vn 0.283563 -0.619927 -0.731630
vn 0.283563 -0.619927 -0.731630
vn -0.291358 -0.631288 -0.718739
vn -0.291358 -0.631288 -0.718739
vn -0.291358 -0.631288 -0.718739
vn -0.291358 -0.631288 -0.718739
vn -0.712414 -0.636701 -0.295090
vn -0.712414 -0.636701 -0.295090
vn -0.712414 -0.636701 -0.295090
vn -0.712414 -0.636701 -0.295090
vn -0.703046 -0.661324 0.261491
vn -0.703046 -0.661324 0.261491
vn -0.703046 -0.661324 0.261491
vn -0.703046 -0.661324 0.261491
vn -0.263591 -0.659833 0.703662
vn -0.263591 -0.659833 0.703662
vn -0.263591 -0.659833 0.703662
vn -0.263591 -0.659833 0.703662
vn 0.305713 -0.652000 0.693855
vn 0.305713 -0.652000 0.693855
vn 0.305713 -0.652000 0.693855
vn 0.305713 -0.652000 0.693855
vn 0.648294 -0.686228 0.329859
vn 0.648294 -0.686228 0.329859
vn 0.648294 -0.686228 0.329859
vn 0.648294 -0.686228 0.329859
vn 0.679278 -0.663448 -0.313718
vn 0.679278 -0.663448 -0.313718
vn 0.679278 -0.663448 -0.313718
vn 0.679278 -0.663448 -0.313718
vn 0.000000 -1.000000 0.000000
vn 0.000000 -1.000000 0.000000
vn 0.000000 -1.000000 0.000000
vn 0.000000 -1.000000 0.000000
vn 0.000000 -1.000000 0.000000
vn 0.000000 -1.000000 0.000000
vn 0.000000 -1.000000 0.000000
vn 0.000000 -1.000000 0.000000
vn 0.000000 -1.000000 0.000000
vn 0.000000 -1.000000 0.000000
vn 0.000000 -1.000000 0.000000
vn 0.000000 -1.000000 0.000000
vn 0.000000 -1.000000 0.000000
vn 0.000000 -1.000000 0.000000
vn 0.000000 -1.000000 0.000000
vn 0.035729 -0.999362 0.000000
vn 0.035729 -0.999362 0.000000
vn 0.035729 -0.999362 0.000000
vn 0.000000 -0.999453 0.033074
vn 0.000000 -0.999453 0.033074
vn 0.000000 -0.999453 0.033074
vn 0.000000 -1.000000 0.000000
vn 0.000000 -1.000000 0.000000
vn 0.000000 -1.000000 0.000000
vn -0.279100 0.684170 0.673806
vn -0.279100 0.684170 0.673806
vn -0.279100 0.684170 0.673806
vn 0.279100 0.684170 0.673806
vn 0.279100 0.684170 0.673806
vn 0.279100 0.684170 0.673806
vn 0.673806 0.684171 0.279099
vn 0.673806 0.684171 0.279099
vn 0.673806 0.684171 0.279099
vn 0.673806 0.684171 -0.279099
vn 0.673806 0.684171 -0.279099
vn 0.673806 0.684171 -0.279099
vn 0.279093 0.684168 -0.673811
vn 0.279093 0.684168 -0.673811
vn 0.279093 0.684168 -0.673811
vn -0.279093 0.684168 -0.673811
vn -0.279093 0.684168 -0.673811
vn -0.279093 0.684168 -0.673811
vn -0.673806 0.684171 -0.279099
vn -0.673806 0.684171 -0.279099
vn -0.673806 0.684171 -0.279099
vn -0.673806 0.684171 0.279099
vn -0.673806 0.684171 0.279099
vn -0.673806 0.684171 0.279099
vn 0.340457 0.607222 -0.717893
vn 0.340457 0.607222 -0.717893
vn 0.340457 0.607222 -0.717893
vn 0.340457 0.607222 -0.717893
vn -0.340457 0.607223 -0.717892
vn -0.340457 0.607223 -0.717892
vn -0.340457 0.607223 -0.717892
vn -0.340457 0.607223 -0.717892
vn -0.717892 0.607225 -0.340455
vn -0.717892 0.607225 -0.340455
vn -0.717892 0.607225 -0.340455
vn -0.717892 0.607225 -0.340455
vn -0.717892 0.607225 0.340455
vn -0.717892 0.607225 0.340455
vn -0.717892 0.607225 0.340455
vn -0.717892 0.607225 0.340455
vn -0.340452 0.607226 0.717892
vn -0.340452 0.607226 0.717892
vn -0.340452 0.607226 0.717892
vn -0.340452 0.607226 0.717892
vn 0.340452 0.607226 0.717892
vn 0.340452 0.607226 0.717892
vn 0.340452 0.607226 0.717892
vn 0.340452 0.607226 0.717892
vn 0.717893 0.607224 0.340455
vn 0.717893 0.607224 0.340455
vn 0.717893 0.607224 0.340455
vn 0.717893 0.607224 0.340455
vn 0.717893 0.607224 -0.340455
vn 0.717893 0.607224 -0.340455
vn 0.717893 0.607224 -0.340455
vn 0.717893 0.607224 -0.340455
vn 0.215797 -0.667807 -0.712366
vn 0.215797 -0.667807 -0.712366
vn 0.215797 -0.667807 -0.712366
vn 0.215797 -0.667807 -0.712366
vn -0.270563 -0.647062 -0.712816
vn -0.270563 -0.647062 -0.712816
vn -0.270563 -0.647062 -0.712816
vn -0.270563 -0.647062 -0.712816
vn -0.270563 -0.647062 -0.712816
vn -0.683837 -0.668288 -0.292845
vn -0.683837 -0.668288 -0.292845
vn -0.683837 -0.668288 -0.292845
vn -0.683837 -0.668288 -0.292845
vn -0.683837 -0.668288 -0.292845
vn -0.732973 -0.622536 0.274227
vn -0.732973 -0.622536 0.274227
vn -0.732973 -0.622535 0.274227
vn -0.732973 -0.622535 0.274227
vn -0.299500 -0.672292 0.676996
vn -0.299500 -0.672292 0.676996
vn -0.299500 -0.672292 0.676996
vn -0.299500 -0.672292 0.676996
vn 0.300479 -0.674209 0.674652
vn 0.300479 -0.674209 0.674652
vn 0.300479 -0.674209 0.674651
vn 0.300479 -0.674209 0.674652
vn 0.732973 -0.622535 0.274228
vn 0.732973 -0.622535 0.274228
vn 0.732973 -0.622535 0.274228
vn 0.732973 -0.622535 0.274228
vn 0.711074 -0.670254 -0.212446
vn 0.711074 -0.670254 -0.212446
vn 0.711074 -0.670254 -0.212446
vn 0.711074 -0.670254 -0.212446
vn 0.342775 0.462868 -0.817470
vn 0.342775 0.462868 -0.817471
vn 0.342775 0.462868 -0.817470
vn 0.342775 0.462868 -0.817470
vn -0.843313 0.461785 -0.274913
vn -0.843313 0.461785 -0.274913
vn -0.843313 0.461785 -0.274913
vn -0.843313 0.461785 -0.274913
vn -0.818944 0.462884 0.339219
vn -0.818944 0.462884 0.339219
vn -0.818944 0.462884 0.339219
vn -0.818944 0.462884 0.339219
vn -0.334323 0.462883 0.820955
vn -0.334323 0.462883 0.820955
vn -0.334323 0.462883 0.820955
vn -0.334323 0.462882 0.820955
vn 0.337683 0.462887 0.819577
vn 0.337683 0.462887 0.819577
vn 0.337683 0.462887 0.819577
vn 0.337683 0.462887 0.819577
vn 0.818945 0.462881 0.339221
vn 0.818945 0.462881 0.339221
vn 0.818945 0.462881 0.339221
vn 0.818945 0.462881 0.339221
vn 0.819058 0.462874 -0.338957
vn 0.819058 0.462875 -0.338957
vn 0.819058 0.462875 -0.338957
vn 0.819058 0.462875 -0.338957
vn -0.276828 0.542831 0.792907
vn -0.276828 0.542831 0.792907
vn -0.276828 0.542831 0.792907
vn -0.276828 0.542831 0.792907
vn 0.771484 0.549701 0.320376
vn 0.771484 0.549701 0.320376
vn 0.771484 0.549701 0.320376
vn 0.771484 0.549701 0.320376
vn 0.771484 0.549701 0.320376
vn 0.796060 0.507503 -0.329742
vn 0.796060 0.507503 -0.329742
vn 0.796060 0.507503 -0.329742
vn 0.796060 0.507503 -0.329742
vn 0.366346 0.544241 -0.754714
vn 0.366346 0.544241 -0.754714
vn 0.366346 0.544241 -0.754714
vn 0.366346 0.544241 -0.754714
vn -0.368281 0.546163 -0.752379
vn -0.368281 0.546163 -0.752379
vn -0.368281 0.546163 -0.752380
vn -0.368281 0.546163 -0.752380
vn -0.796059 0.507504 -0.329743
vn -0.796059 0.507504 -0.329743
vn -0.796059 0.507504 -0.329743
vn -0.796059 0.507504 -0.329743
vn -0.792595 0.545004 0.273430
vn -0.792595 0.545004 0.273430
vn -0.792595 0.545004 0.273430
vn -0.792595 0.545004 0.273430
vn -0.371173 -0.243359 0.896107
vn -0.371173 -0.243359 0.896106
vn -0.371173 -0.243359 0.896107
vn -0.371173 -0.243359 0.896106
vn 0.371173 -0.243359 0.896106
vn 0.371173 -0.243359 0.896107
vn 0.371173 -0.243359 0.896106
vn 0.371173 -0.243359 0.896107
vn 0.896105 -0.243362 0.371175
vn 0.896105 -0.243362 0.371175
vn 0.896105 -0.243362 0.371175
vn 0.896105 -0.243362 0.371175
vn 0.896104 -0.243363 -0.371178
vn 0.896104 -0.243363 -0.371178
vn 0.896104 -0.243363 -0.371178
vn 0.896104 -0.243363 -0.371178
vn 0.371173 -0.243359 -0.896107
vn 0.371173 -0.243359 -0.896106
vn 0.371173 -0.243359 -0.896106
vn 0.371173 -0.243359 -0.896106
vn -0.371173 -0.243359 -0.896106
vn -0.371173 -0.243359 -0.896107
vn -0.371173 -0.243359 -0.896106
vn -0.371173 -0.243359 -0.896106
vn -0.896103 -0.243363 -0.371179
vn -0.896103 -0.243363 -0.371179
vn -0.896103 -0.243363 -0.371179
vn -0.896103 -0.243363 -0.371179
vn -0.896105 -0.243362 0.371176
vn -0.896105 -0.243362 0.371176
vn -0.896105 -0.243362 0.371176
vn -0.896105 -0.243362 0.371176
vn -0.925792 -0.071938 0.371126
vn -0.925792 -0.071938 0.371126
vn -0.925792 -0.071938 0.371126
vn -0.925792 -0.071938 0.371126
vn -0.921486 -0.071943 -0.381691
vn -0.921486 -0.071943 -0.381691
vn -0.921486 -0.071943 -0.381691
vn -0.921486 -0.071943 -0.381691
vn -0.407230 -0.046015 -0.912166
vn -0.407230 -0.046015 -0.912166
vn -0.407230 -0.046015 -0.912166
vn -0.407230 -0.046015 -0.912166
vn 0.388131 -0.056031 -0.919899
vn 0.388131 -0.056031 -0.919899
vn 0.388131 -0.056031 -0.919899
vn 0.388131 -0.056031 -0.919900
vn 0.917211 -0.071939 -0.391854
vn 0.917210 -0.071939 -0.391854
vn 0.917211 -0.071939 -0.391854
vn 0.917210 -0.071939 -0.391854
vn 0.917561 -0.071941 0.391033
vn 0.917561 -0.071941 0.391033
vn 0.917561 -0.071941 0.391033
vn 0.917561 -0.071941 0.391033
vn -0.374189 -0.071941 0.924558
vn -0.374189 -0.071941 0.924558
vn -0.374189 -0.071941 0.924558
vn -0.374189 -0.071941 0.924558
vn 0.381695 -0.071948 0.921484
vn 0.381695 -0.071948 0.921484
vn 0.381695 -0.071948 0.921484
vn 0.381695 -0.071948 0.921484
vn 0.289232 0.542500 0.788694
vn 0.289232 0.542500 0.788694
vn 0.289232 0.542500 0.788694
vn 0.289232 0.542500 0.788694
vn 0.289232 0.542500 0.788694
vn -0.355572 0.460884 -0.813115
vn -0.355572 0.460884 -0.813115
vn -0.355572 0.460884 -0.813115
vn -0.355572 0.460884 -0.813115
vn -0.039818 0.497434 -0.866587
vn -0.039818 0.497434 -0.866588
vn -0.039818 0.497434 -0.866587
vn -0.039818 0.497434 -0.866587
vn -0.487603 0.584966 -0.648119
vn -0.487603 0.584966 -0.648119
vn -0.487603 0.584966 -0.648119
vn -0.487603 0.584966 -0.648119
vn 0.378852 0.194221 0.904848
vn 0.378852 0.194221 0.904848
vn 0.378852 0.194221 0.904848
vn 0.378852 0.194221 0.904848
vn -0.382479 0.190196 0.904176
vn -0.382479 0.190196 0.904176
vn -0.382479 0.190196 0.904176
vn -0.382479 0.190196 0.904176
vn -0.904468 0.191921 0.380926
vn -0.904468 0.191921 0.380926
vn -0.904468 0.191921 0.380926
vn -0.904468 0.191921 0.380926
vn -0.904848 0.194218 -0.378853
vn -0.904848 0.194218 -0.378853
vn -0.904848 0.194218 -0.378853
vn -0.904848 0.194218 -0.378853
vn -0.390764 0.209396 -0.896357
vn -0.390764 0.209396 -0.896357
vn -0.390764 0.209396 -0.896357
vn -0.390764 0.209396 -0.896357
vn 0.385702 0.202932 -0.900029
vn 0.385702 0.202932 -0.900029
vn 0.385702 0.202932 -0.900029
vn 0.385702 0.202932 -0.900029
vn 0.906718 0.190764 -0.376128
vn 0.906718 0.190764 -0.376128
vn 0.906718 0.190764 -0.376128
vn 0.906718 0.190764 -0.376128
vn 0.906972 0.190291 0.375754
vn 0.906972 0.190291 0.375754
vn 0.906972 0.190291 0.375754
vn 0.906972 0.190291 0.375754
s off
f 9/4/1 1/1/2 2/2/3 10/3/4
f 10/3/5 2/2/6 3/5/7 11/6/8
f 11/6/9 3/5/10 4/7/11 12/8/12
f 12/8/13 4/7/14 5/9/15 13/10/16
f 13/10/17 5/9/18 6/11/19 14/12/20
f 14/12/21 6/11/22 7/13/23 15/14/24
f 15/14/25 7/13/26 8/15/27 16/16/28
f 16/16/29 8/15/30 1/1/31 9/4/32
f 2/2/33 1/1/34 17/17/35
f 3/5/36 2/2/37 17/17/38
f 4/7/39 3/5/40 17/17/41
f 5/9/42 4/7/43 17/17/44
f 6/11/45 5/9/46 17/17/47
f 7/13/48 6/11/49 17/17/50
f 8/15/51 7/13/52 17/17/53
f 1/1/54 8/15/55 17/17/56
f 58/25/57 59/24/58 60/32/59
f 59/24/60 61/23/61 60/32/62
f 61/23/63 62/22/64 60/32/65
f 62/22/66 63/21/67 60/32/68
f 63/21/69 64/20/70 60/32/71
f 64/20/72 65/19/73 60/32/74
f 65/19/75 66/18/76 60/32/77
f 66/18/78 58/25/79 60/32/80
f 26/41/81 18/33/82 19/34/83 27/42/84
f 27/42/85 19/34/86 20/35/87 28/43/88
f 28/43/89 20/35/90 21/36/91 29/44/92
f 29/44/93 21/36/94 22/37/95 30/45/96
f 30/45/97 22/37/98 23/38/99 31/46/100
f 31/46/101 23/38/102 24/39/103 32/47/104
f 32/47/105 24/39/106 25/40/107 33/48/108
f 33/48/109 25/40/110 18/33/111 26/41/112
f 34/49/113 26/41/114 27/42/115 35/50/116
f 35/50/117 27/42/118 28/43/119 70/78/120 69/77/121
f 36/51/122 70/78/123 28/43/124 29/44/125 37/52/126
f 37/52/127 29/44/128 30/45/129 38/53/130
f 38/53/131 30/45/132 31/46/133 39/54/134
f 39/54/135 31/46/136 32/47/137 40/55/138
f 40/55/139 32/47/140 33/48/141 41/56/142
f 41/56/143 33/48/144 26/41/145 34/49/146
f 42/57/147 34/49/148 35/50/149 43/58/150
f 44/59/151 36/51/152 37/52/153 45/60/154
f 45/60/155 37/52/156 38/53/157 46/61/158
f 46/61/159 38/53/160 39/54/161 47/62/162
f 47/62/163 39/54/164 40/55/165 48/63/166
f 48/63/167 40/55/168 41/56/169 49/64/170
f 49/64/171 41/56/172 34/49/173 42/57/174
f 50/65/175 42/57/176 43/58/177 51/66/178
f 52/67/179 67/75/180 44/59/181 45/60/182 53/68/183
f 53/68/184 45/60/185 46/61/186 54/69/187
f 54/69/188 46/61/189 47/62/190 55/70/191
f 55/70/192 47/62/193 48/63/194 56/31/195
f 56/31/196 48/63/197 49/64/198 57/26/199
f 57/26/200 49/64/201 42/57/202 50/65/203
f 59/24/204 58/25/205 50/65/206 51/66/207
f 61/23/208 59/24/209 51/66/210 52/67/211
f 62/22/212 61/23/213 52/67/214 53/68/215
f 63/21/216 62/22/217 53/68/218 54/69/219
f 64/20/220 63/21/221 54/69/222 55/70/223
f 65/19/224 64/20/225 55/70/226 56/31/227
f 66/18/228 65/19/229 56/31/230 57/26/231
f 58/25/232 66/18/233 57/26/234 50/65/235
f 73/87/236 74/88/237 12/30/238 13/71/239
f 74/88/240 75/89/241 11/29/242 12/30/243
f 75/89/244 76/90/245 10/28/246 11/29/247
f 76/90/248 77/91/249 9/27/250 10/28/251
f 77/91/252 78/92/253 16/74/254 9/27/255
f 78/92/256 71/85/257 15/73/258 16/74/259
f 72/86/260 73/87/261 13/71/262 14/72/263
f 14/72/264 15/73/265 71/85/266 72/86/267
f 51/66/268 43/58/269 68/76/270 67/75/271 52/67/272
f 43/58/273 35/50/274 69/77/275 68/76/276
f 70/79/277 36/80/278 44/81/279 67/82/280
f 69/83/281 70/79/282 67/82/283 68/84/284
f 72/86/285 71/85/286 24/39/287 23/38/288
f 23/38/289 22/37/290 73/87/291 72/86/292
f 22/37/293 21/36/294 74/88/295 73/87/296
f 21/36/297 20/35/298 75/89/299 74/88/300
f 20/35/301 19/34/302 76/90/303 75/89/304
f 19/34/305 18/33/306 77/91/307 76/90/308
f 18/33/309 25/40/310 78/92/311 77/91/312
f 25/40/313 24/39/314 71/85/315 78/92/316
