# This file uses centimeters as units for non-parametric coordinates.

v -0.000092 -0.064793 0.000000
v -0.000092 0.064793 0.000000
v -0.012706 0.032213 0.028562
v -0.012706 -0.032213 0.028562
v -0.018429 -0.032213 0.025361
v -0.018455 0.032213 0.025316
v 0.013389 0.032213 0.028562
v 0.013389 -0.032213 0.028562
v 0.017616 0.032213 0.026453
v 0.017616 -0.032213 0.026453
v 0.031570 0.032213 0.002284
v 0.031366 -0.032213 0.002637
v 0.031002 -0.032213 -0.003268
v 0.031002 0.032213 -0.003268
v 0.017903 0.032213 -0.025956
v 0.018158 -0.032213 -0.025515
v 0.012591 0.032213 -0.028562
v 0.012591 -0.032213 -0.028562
v -0.013341 0.032213 -0.028562
v -0.013062 -0.032213 -0.028562
v -0.018357 0.032213 -0.025487
v -0.018357 -0.032213 -0.025487
v -0.031425 0.032213 -0.002851
v -0.031373 -0.032213 -0.002943
v -0.031570 0.032213 0.002600
v -0.031568 -0.032213 0.002605
vt 0.052504 0.152127
vt 0.052504 0.152127
vt 0.052504 0.152127
vt 0.052504 0.152127
vt 0.052504 0.152127
vt 0.052504 0.152127
vt 0.052504 0.152127
vt 0.052504 0.152127
vt 0.052504 0.152127
vt 0.052504 0.152127
vt 0.052504 0.152127
vt 0.052504 0.152127
vt 0.052504 0.152127
vt 0.052504 0.152127
vt 0.052504 0.152127
vt 0.052504 0.152127
vt 0.052504 0.152127
vt 0.052504 0.152127
vt 0.052504 0.152127
vt 0.052504 0.152127
vt 0.052504 0.152127
vt 0.052504 0.152127
vt 0.052504 0.152127
vt 0.052504 0.152127
vt 0.052504 0.152127
vt 0.052504 0.152127
vn -0.512224 -0.001113 -0.858851
vn -0.512224 -0.001113 -0.858851
vn -0.512224 -0.001113 -0.858851
vn -0.512224 -0.001113 -0.858851
vn -0.999523 -0.000407 -0.030872
vn -0.999523 -0.000407 -0.030872
vn -0.999523 -0.000407 -0.030872
vn -0.999523 -0.000407 -0.030872
vn -0.866024 0.000003 0.500003
vn -0.866024 0.000003 0.500003
vn -0.866024 0.000003 0.500003
vn -0.866024 0.000003 0.500003
vn 0.446426 0.000000 0.894820
vn 0.446426 0.000000 0.894820
vn 0.446426 0.000000 0.894820
vn 0.446426 0.000000 0.894820
vn 0.996701 -0.001801 -0.081136
vn 0.996701 -0.001801 -0.081137
vn 0.996701 -0.001801 -0.081137
vn 0.996701 -0.001801 -0.081137
vn 0.317913 0.691968 -0.648160
vn 0.317913 0.691968 -0.648160
vn 0.317913 0.691968 -0.648160
vn 0.717773 0.692389 -0.073480
vn 0.717773 0.692389 -0.073480
vn 0.717773 0.692389 -0.073480
vn -0.719792 0.693927 -0.019107
vn -0.719792 0.693927 -0.019107
vn -0.719792 0.693927 -0.019107
vn -0.377046 0.692511 -0.615033
vn -0.377046 0.692511 -0.615033
vn -0.377046 0.692511 -0.615033
vn 0.320574 -0.695950 0.642562
vn 0.320574 -0.695950 0.642562
vn 0.320574 -0.695950 0.642562
vn -0.719968 -0.693546 -0.025309
vn -0.719968 -0.693546 -0.025309
vn -0.719968 -0.693546 -0.025309
vn 0.320574 0.695950 0.642562
vn 0.320574 0.695950 0.642562
vn 0.320574 0.695950 0.642562
vn -0.353111 -0.690315 0.631489
vn -0.353111 -0.690315 0.631489
vn -0.353112 -0.690315 0.631489
vn -0.489834 0.000208 0.871816
vn -0.489834 0.000208 0.871816
vn -0.489834 0.000208 0.871816
vn -0.489834 0.000208 0.871816
vn -0.355743 0.690173 0.630165
vn -0.355743 0.690173 0.630165
vn -0.355743 0.690173 0.630165
vn 0.000000 0.000000 1.000000
vn 0.000000 0.000000 1.000000
vn 0.000000 0.000000 1.000000
vn 0.000000 0.000000 1.000000
vn 0.866023 -0.000002 0.500004
vn 0.866023 -0.000002 0.500004
vn 0.866023 -0.000002 0.500004
vn 0.866023 -0.000002 0.500004
vn 0.461036 -0.002127 -0.887379
vn 0.461036 -0.002127 -0.887379
vn 0.461036 -0.002127 -0.887379
vn 0.461036 -0.002127 -0.887379
vn 0.866029 -0.000000 -0.499994
vn 0.866029 -0.000000 -0.499994
vn 0.866029 -0.000000 -0.499994
vn 0.866029 -0.000000 -0.499994
vn 0.000000 0.000000 -1.000000
vn 0.000000 0.000000 -1.000000
vn 0.000000 0.000000 -1.000000
vn 0.000000 0.000000 -1.000000
vn -0.866023 0.000000 -0.500004
vn -0.866023 0.000000 -0.500004
vn -0.866023 0.000000 -0.500004
vn -0.866023 0.000000 -0.500004
vn -0.651218 0.659206 0.375982
vn -0.651218 0.659206 0.375982
vn -0.651218 0.659206 0.375982
vn -0.651215 0.659208 -0.375983
vn -0.651215 0.659208 -0.375983
vn -0.651215 0.659208 -0.375983
vn 0.000000 0.659210 -0.751959
vn 0.000000 0.659210 -0.751959
vn 0.000000 0.659210 -0.751959
vn 0.651216 0.659212 -0.375974
vn 0.651216 0.659212 -0.375974
vn 0.651216 0.659212 -0.375974
vn 0.651211 0.659212 0.375984
vn 0.651211 0.659212 0.375984
vn 0.651211 0.659212 0.375984
vn 0.000000 0.659210 0.751959
vn 0.000000 0.659210 0.751959
vn 0.000000 0.659210 0.751959
vn -0.651215 -0.659209 0.375983
vn -0.651215 -0.659209 0.375983
vn -0.651215 -0.659209 0.375983
vn 0.000000 -0.659210 0.751959
vn 0.000000 -0.659210 0.751959
vn 0.000000 -0.659210 0.751959
vn 0.720475 -0.692055 -0.044447
vn 0.720475 -0.692055 -0.044447
vn 0.720475 -0.692055 -0.044447
vn 0.651214 -0.659211 0.375980
vn 0.651214 -0.659211 0.375980
vn 0.651214 -0.659211 0.375980
vn 0.347037 -0.690989 -0.634113
vn 0.347037 -0.690989 -0.634113
vn 0.347037 -0.690989 -0.634113
vn 0.651216 -0.659212 -0.375974
vn 0.651216 -0.659212 -0.375974
vn 0.651216 -0.659212 -0.375974
vn -0.362592 -0.691788 -0.624466
vn -0.362592 -0.691788 -0.624466
vn -0.362592 -0.691787 -0.624466
vn 0.000000 -0.659210 -0.751959
vn 0.000000 -0.659210 -0.751959
vn 0.000000 -0.659210 -0.751959
vn -0.651215 -0.659208 -0.375983
vn -0.651215 -0.659208 -0.375983
vn -0.651215 -0.659208 -0.375983
s off
f 19/19/1 20/20/2 22/22/3 21/21/4
f 23/23/5 24/24/6 26/26/7 25/25/8
f 5/5/9 6/6/10 25/25/11 26/26/12
f 7/7/13 8/8/14 10/10/15 9/9/16
f 11/11/17 12/12/18 13/13/19 14/14/20
f 2/2/21 15/15/22 17/17/23
f 2/2/24 11/11/25 14/14/26
f 2/2/27 23/23/28 25/25/29
f 2/2/30 19/19/31 21/21/32
f 10/10/33 8/8/34 1/1/35
f 26/26/36 24/24/37 1/1/38
f 2/2/39 7/7/40 9/9/41
f 4/4/42 5/5/43 1/1/44
f 6/6/45 5/5/46 4/4/47 3/3/48
f 2/2/49 6/6/50 3/3/51
f 8/8/52 7/7/53 3/3/54 4/4/55
f 12/12/56 11/11/57 9/9/58 10/10/59
f 15/15/60 16/16/61 18/18/62 17/17/63
f 16/16/64 15/15/65 14/14/66 13/13/67
f 20/20/68 19/19/69 17/17/70 18/18/71
f 24/24/72 23/23/73 21/21/74 22/22/75
f 2/2/76 25/25/77 6/6/78
f 2/2/79 21/21/80 23/23/81
f 2/2/82 17/17/83 19/19/84
f 2/2/85 14/14/86 15/15/87
f 2/2/88 9/9/89 11/11/90
f 2/2/91 3/3/92 7/7/93
f 1/1/94 5/5/95 26/26/96
f 1/1/97 8/8/98 4/4/99
f 13/13/100 12/12/101 1/1/102
f 1/1/103 12/12/104 10/10/105
f 18/18/106 16/16/107 1/1/108
f 1/1/109 16/16/110 13/13/111
f 22/22/112 20/20/113 1/1/114
f 1/1/115 20/20/116 18/18/117
f 1/1/118 24/24/119 22/22/120
