# This file uses centimeters as units for non-parametric coordinates.

v 0.953495 -2.196742 -0.548824
v 0.551967 -2.117969 -0.950347
v 0.003475 -2.121113 -1.097319
v -0.545016 -2.165890 -0.950347
v -0.946544 -2.264537 -0.548824
v -1.093512 -2.165890 -0.000332
v -0.946544 -2.165890 0.548160
v -0.545016 -2.239553 0.949688
v 0.003475 -2.103656 1.096655
v 0.551967 -2.237263 0.949688
v 0.953495 -2.070605 0.548160
v 1.100459 -2.196742 -0.000332
v 0.445066 -1.395566 -0.255286
v 0.003475 -1.319749 -0.510239
v -0.438120 -1.409667 -0.255286
v -0.438298 -1.312717 0.259706
v 0.003475 -1.319749 0.509576
v 0.445066 -1.403066 0.254622
vt 0.111345 0.257338
vt 0.111345 0.257338
vt 0.111346 0.257338
vt 0.111345 0.257338
vt 0.111345 0.257338
vt 0.111346 0.257338
vt 0.111345 0.257338
vt 0.111345 0.257338
vt 0.111345 0.257338
vt 0.111345 0.257338
vt 0.111345 0.257338
vt 0.111345 0.257338
vt 0.111345 0.257338
vt 0.111345 0.257338
vt 0.111346 0.257338
vt 0.111345 0.257338
vt 0.111346 0.257338
vt 0.111345 0.257338
vt 0.111345 0.257338
vt 0.111345 0.257338
vn 0.047961 0.997333 0.055022
vn 0.047673 0.995693 0.079514
vn -0.022527 0.999715 0.007959
vn -0.029588 0.999511 0.010117
vn -0.119582 0.992307 -0.032042
vn -0.293208 0.952206 -0.085628
vn 0.317017 0.944608 -0.084945
vn 0.113056 0.946203 -0.303179
vn -0.329912 0.813382 0.479133
vn -0.023149 0.965847 0.258076
vn -0.049867 0.994371 -0.093491
vn -0.009544 0.995748 -0.091626
vn 0.040138 0.998732 -0.030392
vn 0.116776 0.992325 0.040665
vn 0.065630 0.997436 0.028546
vn -0.293456 0.939452 -0.176958
vn 0.099770 0.983836 -0.148703
vn 0.101696 0.994780 -0.008416
s 1
f 1/3/1 2/2/2 7/1/3
f 3/4/4 7/1/3 2/2/2
f 4/5/5 7/1/3 3/4/4
f 5/6/6 7/1/3 4/5/5
f 5/6/6 6/7/7 7/1/3
f 9/9/8 7/1/3 8/8/9
f 9/9/8 10/10/10 7/1/3
f 10/10/10 11/11/11 7/1/3
f 12/12/12 7/1/3 11/11/11
f 1/13/1 7/1/3 12/12/12
s 3
f 16/14/13 13/15/14 14/16/15
f 14/16/15 15/17/16 16/14/13
f 16/14/13 17/18/17 18/19/18
f 18/19/18 13/20/14 16/14/13
