# This file uses centimeters as units for non-parametric coordinates.

v -0.344894 0.079892 0.212069
v 0.001693 0.079892 0.049008
v 0.183310 0.079892 0.372567
v -0.019968 0.249213 0.096696
v 0.230606 0.249699 0.577084
v -0.250537 0.245843 0.210384
v -0.260294 0.243305 0.305193
v 0.001693 0.217786 0.049008
v 0.183310 0.216978 0.372567
v -0.175790 0.218667 0.519374
v -0.077641 0.220285 0.717050
v 0.248193 0.218591 0.580721
v -0.344894 0.217009 0.212069
v 0.001693 0.000000 0.049008
v 0.183310 0.000000 0.372567
v -0.175790 0.000000 0.519374
v -0.077641 0.000000 0.717050
v 0.248193 0.000000 0.580721
v -0.344894 0.000000 0.212069
v -0.224726 0.079892 0.072481
v -0.062800 0.079892 -0.334000
v -0.089134 0.079892 0.017357
v -0.440234 0.079892 -0.374437
v -0.848751 0.079892 -0.315533
v -0.098443 0.218591 -0.311123
v -0.211444 0.240206 -0.006196
v -0.806336 0.241633 -0.289901
v -0.113877 0.219220 -0.017550
v -0.799607 0.239325 -0.006023
v -0.468406 0.221231 -0.356784
v -0.233175 0.238489 0.060157
v -0.843464 0.218130 -0.315533
v -0.846572 0.211360 0.030714
v -0.746030 0.215348 0.075301
v -0.098443 0.000000 -0.311123
v -0.113877 0.000000 -0.017550
v -0.468406 0.000000 -0.356784
v -0.233175 0.000000 0.060157
v -0.843464 0.000000 -0.315533
v -0.843202 0.000000 0.027761
v -0.745689 0.000000 0.069628
v 0.848751 0.079892 -0.539775
v 0.448726 0.079892 -0.717050
v 0.798827 0.079892 -0.677364
v 0.393958 0.079892 -0.341426
v 0.437281 0.079892 0.069040
v 0.470232 0.218591 -0.680563
v 0.770640 0.240206 -0.556042
v 0.464507 0.241633 0.027629
v 0.763003 0.219220 -0.653967
v 0.748434 0.239325 0.031704
v 0.410530 0.221231 -0.312603
v 0.836115 0.238489 -0.531801
v 0.437479 0.218130 0.063753
v 0.783361 0.211360 0.080031
v 0.831741 0.215348 -0.018737
v 0.470232 0.000000 -0.680563
v 0.763003 0.000000 -0.653967
v 0.410530 0.000000 -0.312603
v 0.836115 0.000000 -0.531801
v 0.437479 0.000000 0.063753
v 0.780536 0.000000 0.076549
v 0.826080 0.000000 -0.019293
vt 0.199842 0.303328
vt 0.199842 0.303328
vt 0.199842 0.303328
vt 0.199842 0.303328
vt 0.199842 0.303328
vt 0.199842 0.303328
vt 0.199842 0.303328
vt 0.199842 0.303328
vt 0.199842 0.303328
vt 0.201617 0.275827
vt 0.201617 0.275827
vt 0.201617 0.275827
vt 0.201617 0.275827
vt 0.201617 0.275827
vt 0.201617 0.275827
vt 0.201617 0.275827
vt 0.201617 0.275827
vt 0.201617 0.275827
vt 0.201617 0.275827
vt 0.201617 0.275827
vt 0.201617 0.275827
vt 0.201617 0.275827
vt 0.201617 0.275827
vt 0.201617 0.275827
vt 0.201617 0.275827
vt 0.201617 0.275827
vt 0.201617 0.275827
vt 0.201617 0.275827
vt 0.201617 0.275827
vt 0.201617 0.275827
vt 0.201617 0.275827
vt 0.201617 0.275827
vt 0.201617 0.275827
vt 0.201617 0.275827
vt 0.201617 0.275827
vt 0.201617 0.275827
vt 0.201617 0.275827
vt 0.201617 0.275827
vt 0.201617 0.275827
vt 0.201617 0.275827
vt 0.199842 0.303328
vt 0.199842 0.303328
vt 0.199842 0.303328
vt 0.201617 0.275827
vt 0.201617 0.275827
vt 0.201617 0.275827
vt 0.199842 0.303328
vt 0.199842 0.303328
vt 0.199842 0.303328
vt 0.201617 0.275827
vt 0.201617 0.275827
vt 0.201617 0.275827
vt 0.201617 0.275827
vt 0.201617 0.275827
vt 0.201617 0.275827
vt 0.201617 0.275827
vt 0.201617 0.275827
vt 0.201617 0.275827
vt 0.201617 0.275827
vt 0.201617 0.275827
vt 0.201617 0.275827
vt 0.201617 0.275827
vt 0.201617 0.275827
vt 0.201617 0.275827
vt 0.202152 0.278375
vt 0.202152 0.278375
vt 0.202152 0.278375
vt 0.202152 0.278375
vt 0.202152 0.278375
vt 0.201617 0.275827
vt 0.201617 0.275827
vt 0.201617 0.275827
vt 0.201617 0.275827
vt 0.201617 0.275827
vt 0.201617 0.275827
vt 0.201617 0.275827
vt 0.201617 0.275827
vt 0.201617 0.275827
vt 0.201617 0.275827
vt 0.201617 0.275827
vt 0.201617 0.275827
vt 0.202152 0.278375
vt 0.202152 0.278375
vt 0.202152 0.278375
vt 0.202152 0.278375
vt 0.199842 0.303328
vt 0.199842 0.303328
vt 0.199842 0.303328
vt 0.201617 0.275827
vt 0.201617 0.275827
vt 0.201617 0.275827
vt 0.199842 0.303328
vt 0.199842 0.303328
vt 0.199842 0.303328
vt 0.201617 0.275827
vt 0.201617 0.275827
vt 0.201617 0.275827
vt 0.201617 0.275827
vt 0.201617 0.275827
vt 0.201617 0.275827
vt 0.201617 0.275827
vt 0.201617 0.275827
vt 0.201617 0.275827
vt 0.201617 0.275827
vt 0.201617 0.275827
vt 0.201617 0.275827
vt 0.201617 0.275827
vt 0.201617 0.275827
vt 0.201617 0.275827
vt 0.202152 0.278375
vt 0.202152 0.278375
vt 0.202152 0.278375
vt 0.202152 0.278375
vt 0.202152 0.278375
vt 0.201617 0.275827
vt 0.201617 0.275827
vt 0.201617 0.275827
vt 0.201617 0.275827
vt 0.201617 0.275827
vt 0.201617 0.275827
vt 0.201617 0.275827
vt 0.201617 0.275827
vt 0.201617 0.275827
vt 0.201617 0.275827
vt 0.201617 0.275827
vt 0.201617 0.275827
vt 0.202152 0.278375
vt 0.202152 0.278375
vt 0.202152 0.278375
vt 0.202152 0.278375
vn -0.017526 0.999813 0.008130
vn -0.017526 0.999813 0.008130
vn -0.017526 0.999813 0.008130
vn -0.001491 0.999645 0.026608
vn -0.001491 0.999645 0.026608
vn -0.001491 0.999645 0.026608
vn -0.058010 0.994997 0.081338
vn -0.058010 0.994997 0.081338
vn -0.058010 0.994997 0.081338
vn 0.536586 0.795793 -0.280693
vn 0.536586 0.795793 -0.280693
vn 0.536586 0.795793 -0.280693
vn -0.260608 0.823369 -0.504131
vn -0.260608 0.823369 -0.504131
vn -0.260608 0.823369 -0.504131
vn -0.292311 0.956313 -0.004482
vn -0.292311 0.956313 -0.004482
vn -0.292311 0.956313 -0.004482
vn -0.580497 0.750703 0.315386
vn -0.580497 0.750703 0.315386
vn -0.580497 0.750703 0.315386
vn 0.851577 0.449994 -0.268927
vn 0.851577 0.449994 -0.268927
vn 0.851577 0.449994 -0.268927
vn 0.428923 0.871265 -0.238584
vn 0.428923 0.871265 -0.238584
vn 0.428923 0.871265 -0.238584
vn -0.291029 0.732780 -0.615090
vn -0.291029 0.732780 -0.615090
vn -0.291029 0.732780 -0.615090
vn 0.368256 0.310644 0.876292
vn 0.368256 0.310644 0.876292
vn 0.368256 0.310644 0.876292
vn -0.720803 0.596515 0.353006
vn -0.720803 0.596515 0.353006
vn -0.720803 0.596515 0.353006
vn -0.425714 0.000000 -0.904858
vn -0.425714 0.000000 -0.904858
vn -0.425714 0.000000 -0.904858
vn -0.425714 0.000000 -0.904858
vn 0.872018 0.000000 -0.489473
vn 0.872018 0.000000 -0.489473
vn 0.872018 0.000000 -0.489473
vn 0.872018 0.000000 -0.489473
vn -0.425714 0.000000 -0.904858
vn -0.425714 0.000000 -0.904858
vn -0.425714 0.000000 -0.904858
vn -0.425714 0.000000 -0.904858
vn 0.872018 0.000000 -0.489473
vn 0.872018 0.000000 -0.489473
vn 0.872018 0.000000 -0.489473
vn 0.872018 0.000000 -0.489473
vn 0.954696 0.000000 -0.297583
vn 0.954696 0.000000 -0.297583
vn 0.954696 0.000000 -0.297583
vn 0.954696 0.000000 -0.297583
vn 0.954696 0.000000 -0.297583
vn 0.954696 0.000000 -0.297583
vn 0.954696 0.000000 -0.297583
vn 0.954696 0.000000 -0.297583
vn 0.954696 0.000000 -0.297583
vn 0.385978 0.000000 0.922508
vn 0.385978 0.000000 0.922508
vn 0.385978 0.000000 0.922508
vn 0.385977 0.000000 0.922508
vn 0.385977 0.000000 0.922508
vn 0.385977 0.000000 0.922508
vn -0.876112 0.000000 0.482108
vn -0.876112 0.000000 0.482108
vn -0.876112 0.000000 0.482108
vn -0.876112 0.000000 0.482108
vn -0.876112 0.000000 0.482108
vn -0.876112 0.000000 0.482108
vn -0.876112 0.000000 0.482108
vn -0.876112 0.000000 0.482108
vn -0.876112 0.000000 0.482108
vn -0.895672 0.000000 0.444715
vn -0.895672 0.000000 0.444715
vn -0.895672 0.000000 0.444715
vn -0.895672 0.000000 0.444714
vn -0.895672 0.000000 0.444714
vn -0.895672 0.000000 0.444715
vn 0.030698 0.997765 -0.059350
vn 0.030698 0.997765 -0.059350
vn 0.030698 0.997765 -0.059350
vn 0.211276 0.977385 0.009014
vn 0.211276 0.977385 0.009014
vn 0.211276 0.977385 0.009014
vn -0.001496 0.999966 0.008167
vn -0.001496 0.999966 0.008167
vn -0.001496 0.999966 0.008167
vn 0.027202 0.986186 -0.163392
vn 0.027202 0.986186 -0.163392
vn 0.027202 0.986186 -0.163392
vn -0.540530 0.841245 0.011597
vn -0.540530 0.841245 0.011597
vn -0.540530 0.841245 0.011597
vn -0.500560 0.865496 0.018903
vn -0.500560 0.865496 0.018903
vn -0.500560 0.865496 0.018903
vn -0.073988 0.786116 -0.613634
vn -0.073988 0.786116 -0.613634
vn -0.073988 0.786116 -0.613634
vn -0.214174 0.889615 0.403379
vn -0.214174 0.889615 0.403379
vn -0.214174 0.889615 0.403379
vn -0.034017 0.952326 0.303181
vn -0.034017 0.952326 0.303181
vn -0.034017 0.952326 0.303181
vn -0.001490 0.999677 0.025380
vn -0.001490 0.999677 0.025380
vn -0.001490 0.999677 0.025380
vn 0.974712 0.214425 0.062918
vn 0.974712 0.214425 0.062918
vn 0.974712 0.214425 0.062918
vn 0.974712 0.214425 0.062918
vn -0.126816 0.052166 -0.990554
vn -0.126816 0.052166 -0.990554
vn -0.126816 0.052166 -0.990554
vn -0.126816 0.052166 -0.990554
vn 0.220084 0.970627 0.097194
vn 0.220084 0.970627 0.097194
vn 0.220084 0.970627 0.097194
vn 0.375026 0.091661 0.922472
vn 0.375026 0.091661 0.922472
vn 0.375026 0.091661 0.922472
vn 0.932210 -0.356847 0.060374
vn 0.932210 -0.356847 0.060374
vn 0.932210 -0.356847 0.060374
vn 0.932210 -0.356847 0.060374
vn -0.126259 -0.091052 -0.987810
vn -0.126259 -0.091052 -0.987810
vn -0.126259 -0.091052 -0.987810
vn -0.126259 -0.091052 -0.987810
vn 0.481223 -0.471832 0.738782
vn 0.481223 -0.471832 0.738782
vn 0.481223 -0.471832 0.738782
vn 0.370477 -0.179752 0.911283
vn 0.370477 -0.179752 0.911283
vn 0.370477 -0.179752 0.911283
vn 0.118476 -0.253891 -0.959950
vn 0.118476 -0.253891 -0.959950
vn 0.118476 -0.253891 -0.959950
vn 0.101095 -0.315291 -0.943595
vn 0.101095 -0.315291 -0.943595
vn 0.101095 -0.315291 -0.943595
vn 0.104629 0.187962 -0.976588
vn 0.104629 0.187962 -0.976588
vn 0.104629 0.187962 -0.976588
vn 0.122193 0.146954 -0.981567
vn 0.122193 0.146954 -0.981567
vn 0.122193 0.146954 -0.981567
vn 0.018255 -0.154315 0.987853
vn 0.018255 -0.154315 0.987853
vn 0.018255 -0.154315 0.987853
vn -0.001436 -0.026340 0.999652
vn -0.001436 -0.026340 0.999652
vn -0.001436 -0.026340 0.999652
vn 0.025872 0.078817 0.996553
vn 0.025872 0.078817 0.996553
vn 0.025872 0.078817 0.996553
vn -0.999873 -0.015952 0.000762
vn -0.999873 -0.015952 0.000762
vn -0.999873 -0.015952 0.000762
vn -0.997327 -0.066001 0.031337
vn -0.997327 -0.066001 0.031337
vn -0.997327 -0.066001 0.031337
vn -0.999236 0.038217 -0.008223
vn -0.999236 0.038217 -0.008223
vn -0.999236 0.038217 -0.008223
vn -0.404450 -0.024729 0.914226
vn -0.404450 -0.024729 0.914226
vn -0.404450 -0.024729 0.914226
vn -0.394446 -0.019126 0.918720
vn -0.394446 -0.019126 0.918720
vn -0.394446 -0.019126 0.918720
vn 0.554589 0.293565 0.778621
vn 0.554589 0.293565 0.778621
vn 0.554589 0.293565 0.778621
vn -0.058139 0.997765 -0.032934
vn -0.058139 0.997765 -0.032934
vn -0.058139 0.997765 -0.032934
vn 0.017049 0.977383 -0.210787
vn 0.017049 0.977383 -0.210788
vn 0.017049 0.977383 -0.210787
vn 0.008104 0.999966 0.001805
vn 0.008104 0.999966 0.001805
vn 0.008104 0.999966 0.001805
vn -0.162241 0.986186 -0.033398
vn -0.162241 0.986186 -0.033398
vn -0.162241 0.986186 -0.033398
vn -0.008975 0.841231 0.540601
vn -0.008975 0.841231 0.540601
vn -0.008975 0.841231 0.540601
vn -0.000152 0.865488 0.500929
vn -0.000152 0.865488 0.500929
vn -0.000152 0.865488 0.500929
vn -0.615978 0.786138 0.050582
vn -0.615978 0.786138 0.050582
vn -0.615978 0.786138 0.050582
vn 0.394918 0.889624 0.229366
vn 0.394918 0.889624 0.229366
vn 0.394918 0.889624 0.229366
vn 0.301652 0.952331 0.045525
vn 0.301652 0.952331 0.045525
vn 0.301652 0.952331 0.045525
vn 0.025306 0.999677 0.002455
vn 0.025306 0.999677 0.002455
vn 0.025306 0.999677 0.002455
vn 0.099966 0.214423 -0.971612
vn 0.099966 0.214423 -0.971612
vn 0.099966 0.214423 -0.971612
vn 0.099966 0.214423 -0.971612
vn -0.994661 0.052165 0.089039
vn -0.994661 0.052165 0.089039
vn -0.994661 0.052165 0.089039
vn -0.994661 0.052165 0.089039
vn 0.105511 0.970623 -0.216238
vn 0.105511 0.970623 -0.216238
vn 0.105511 0.970623 -0.216238
vn 0.936075 0.091656 -0.339651
vn 0.936075 0.091656 -0.339651
vn 0.936075 0.091656 -0.339651
vn 0.095807 -0.356844 -0.929238
vn 0.095807 -0.356844 -0.929238
vn 0.095807 -0.356844 -0.929238
vn 0.095807 -0.356844 -0.929238
vn -0.991898 -0.091051 0.088587
vn -0.991898 -0.091051 0.088587
vn -0.991898 -0.091051 0.088587
vn -0.991898 -0.091051 0.088587
vn 0.756548 -0.471841 -0.452771
vn 0.756548 -0.471841 -0.452771
vn 0.756547 -0.471841 -0.452771
vn 0.924722 -0.179741 -0.335532
vn 0.924722 -0.179741 -0.335532
vn 0.924722 -0.179741 -0.335532
vn -0.954738 -0.253925 -0.154908
vn -0.954738 -0.253925 -0.154908
vn -0.954738 -0.253925 -0.154908
vn -0.939057 -0.315318 -0.136919
vn -0.939057 -0.315318 -0.136919
vn -0.939057 -0.315318 -0.136919
vn -0.971897 0.187979 -0.141707
vn -0.971897 0.187979 -0.141707
vn -0.971897 0.187979 -0.141707
vn -0.976205 0.146975 -0.159445
vn -0.976205 0.146975 -0.159445
vn -0.976205 0.146975 -0.159445
vn 0.987834 -0.154306 0.019342
vn 0.987834 -0.154306 0.019342
vn 0.987834 -0.154306 0.019342
vn 0.998873 -0.026360 0.039462
vn 0.998873 -0.026360 0.039462
vn 0.998873 -0.026360 0.039462
vn 0.996817 0.078813 0.012053
vn 0.996817 0.078813 0.012053
vn 0.996817 0.078813 0.012053
vn -0.037269 -0.015963 0.999178
vn -0.037269 -0.015963 0.999178
vn -0.037269 -0.015963 0.999178
vn -0.006598 -0.066049 0.997795
vn -0.006598 -0.066049 0.997795
vn -0.006598 -0.066049 0.997795
vn -0.046229 0.038244 0.998199
vn -0.046229 0.038244 0.998199
vn -0.046229 0.038244 0.998199
vn 0.898168 -0.024743 0.438955
vn 0.898168 -0.024743 0.438955
vn 0.898168 -0.024743 0.438955
vn 0.903041 -0.019140 0.429128
vn 0.903041 -0.019140 0.429128
vn 0.903041 -0.019140 0.429128
vn 0.799150 0.293572 -0.524571
vn 0.799150 0.293572 -0.524571
vn 0.799150 0.293572 -0.524571
s off
f 5/1/1 4/2/2 7/3/3
f 7/4/4 4/5/5 6/6/6
f 11/7/7 5/8/8 7/9/9
f 4/10/10 5/11/11 8/12/12
f 6/13/13 4/10/14 13/14/15
f 7/15/16 6/13/17 13/14/18
f 13/14/19 10/16/20 7/15/21
f 12/17/22 9/18/23 5/11/24
f 5/11/25 9/19/26 8/12/27
f 4/10/28 8/12/29 13/14/30
f 11/20/31 12/17/32 5/11/33
f 10/16/34 11/20/35 7/15/36
f 13/21/37 8/22/38 2/23/39 1/24/40
f 8/25/41 9/26/42 3/27/43 2/28/44
f 19/33/45 1/34/46 2/35/47 14/36/48
f 14/37/49 2/38/50 3/39/51 15/40/52
f 12/17/53 18/31/54 9/18/55
f 9/18/56 18/31/57 3/27/58
f 18/31/59 15/40/60 3/27/61
f 11/20/62 17/32/63 12/17/64
f 12/17/65 17/32/66 18/31/67
f 13/21/68 1/34/69 10/16/70
f 19/29/71 16/30/72 1/34/73
f 1/34/74 16/30/75 10/16/76
f 17/32/77 11/20/78 16/30/79
f 10/16/80 16/30/81 11/20/82
f 25/41/83 27/42/84 26/43/85
f 25/44/86 26/45/87 28/46/88
f 26/47/89 27/48/90 29/49/91
f 30/50/92 27/51/93 25/44/94
f 27/51/95 32/52/96 33/53/97
f 27/51/98 33/53/99 29/54/100
f 30/50/101 32/52/102 27/51/103
f 29/54/104 33/53/105 34/55/106
f 29/54/107 34/55/108 31/56/109
f 26/45/110 29/54/111 31/56/112
f 25/57/113 28/58/114 22/59/115 21/60/116
f 32/61/117 30/62/118 23/63/119 24/64/120
f 31/65/121 28/66/122 26/67/123
f 20/68/124 22/69/125 31/65/126
f 35/74/127 21/75/128 22/76/129 36/77/130
f 39/78/131 24/79/132 23/80/133 37/81/134
f 22/82/135 38/83/136 36/84/137
f 20/85/138 38/83/139 22/82/140
f 37/81/141 23/63/142 35/70/143
f 35/70/144 23/63/145 21/75/146
f 21/75/147 23/63/148 25/57/149
f 25/57/150 23/63/151 30/50/152
f 38/83/153 20/68/154 41/73/155
f 41/73/156 20/68/157 34/55/158
f 34/55/159 20/68/160 31/56/161
f 40/71/162 33/53/163 39/72/164
f 39/72/165 33/53/166 24/79/167
f 33/53/168 32/61/169 24/79/170
f 34/55/171 33/53/172 41/73/173
f 41/73/174 33/53/175 40/71/176
f 22/69/177 28/66/178 31/65/179
f 47/86/180 49/87/181 48/88/182
f 47/89/183 48/90/184 50/91/185
f 48/92/186 49/93/187 51/94/188
f 52/95/189 49/96/190 47/89/191
f 49/96/192 54/97/193 55/98/194
f 49/96/195 55/98/196 51/99/197
f 52/95/198 54/97/199 49/96/200
f 51/99/201 55/98/202 56/100/203
f 51/99/204 56/100/205 53/101/206
f 48/90/207 51/99/208 53/101/209
f 47/102/210 50/103/211 44/104/212 43/105/213
f 54/106/214 52/107/215 45/108/216 46/109/217
f 53/110/218 50/111/219 48/112/220
f 42/113/221 44/114/222 53/110/223
f 57/119/224 43/120/225 44/121/226 58/122/227
f 61/123/228 46/124/229 45/125/230 59/126/231
f 44/127/232 60/128/233 58/129/234
f 42/130/235 60/128/236 44/127/237
f 59/126/238 45/108/239 57/115/240
f 57/115/241 45/108/242 43/120/243
f 43/120/244 45/108/245 47/102/246
f 47/102/247 45/108/248 52/95/249
f 60/128/250 42/113/251 63/118/252
f 63/118/253 42/113/254 56/100/255
f 56/100/256 42/113/257 53/101/258
f 62/116/259 55/98/260 61/117/261
f 61/117/262 55/98/263 46/124/264
f 55/98/265 54/106/266 46/124/267
f 56/100/268 55/98/269 63/118/270
f 63/118/271 55/98/272 62/116/273
f 44/114/274 50/111/275 53/110/276
