# This file uses centimeters as units for non-parametric coordinates.

v 0.044184 0.000000 -0.076515
v -0.044180 0.000000 -0.076515
v -0.088354 0.000000 0.000008
v -0.044180 0.000000 0.076530
v 0.044184 0.000000 0.076530
v 0.088361 0.000000 0.000008
v -0.083192 4.200834 -0.049355
v -0.106439 4.191705 -0.049355
v -0.118062 4.187140 -0.027718
v -0.106439 4.191705 -0.006096
v -0.083192 4.200834 -0.006096
v -0.071571 4.205399 -0.027718
v 0.000002 0.000000 0.000008
v -0.094815 4.196270 -0.027718
v 0.030006 1.308979 0.138351
v 0.008171 1.323586 0.190643
v 0.030029 1.314318 0.217155
v 0.113612 1.313209 0.200798
v 0.123846 1.325658 0.172867
v 0.087844 1.310016 0.129463
v -0.044387 2.238401 0.006248
v -0.019207 2.238401 0.049866
v -0.044387 2.238401 0.093475
v -0.094747 2.238401 0.093475
v -0.119930 2.238401 0.049866
v -0.094747 2.238401 0.006248
v 0.108587 2.887305 -0.032639
v 0.127961 2.885098 0.001144
v 0.108587 2.887305 0.034920
v 0.069837 2.891718 0.034920
v 0.050463 2.893925 0.001144
v 0.069837 2.891718 -0.032639
v 0.051514 1.181071 0.127365
v 0.020807 1.181071 0.180542
v 0.047761 1.233160 0.258560
v 0.135985 1.230705 0.253761
v 0.143614 1.181071 0.180542
v 0.112917 1.181071 0.127365
v -0.105598 2.119393 0.028137
v -0.136021 2.119393 0.080833
v -0.105598 2.119393 0.133530
v -0.044744 2.119393 0.133530
v -0.014321 2.119393 0.080833
v -0.044744 2.119393 0.028137
v 0.099301 3.622705 -0.112549
v 0.071608 3.618402 -0.050385
v 0.019569 3.618402 -0.050385
v -0.006447 3.618402 -0.095451
v 0.019569 3.618402 -0.140511
v 0.071608 3.618402 -0.140511
v 0.058516 1.299487 0.293365
v 0.120595 1.297031 0.288567
v 0.109463 1.340939 0.258102
v 0.050463 1.342571 0.269966
v 0.050062 3.698587 -0.129814
v 0.072690 3.715274 -0.104607
v 0.050062 3.698587 -0.045181
v 0.008169 3.673818 -0.045181
v -0.012781 3.661434 -0.087502
v 0.008169 3.673818 -0.129814
v 0.124478 3.672290 -0.081184
v 0.107762 3.667598 -0.039131
v 0.100680 3.720879 -0.081581
v 0.088006 3.709755 -0.040398
vt 0.004697 0.279112
vt 0.004697 0.279112
vt 0.004697 0.279112
vt 0.004697 0.279112
vt 0.004697 0.279112
vt 0.004697 0.279112
vt 0.004697 0.279112
vt 0.004697 0.279112
vt 0.004697 0.279112
vt 0.004697 0.279112
vt 0.004697 0.279112
vt 0.004697 0.279112
vt 0.004697 0.279112
vt 0.004697 0.279112
vt 0.004697 0.279112
vt 0.004697 0.279112
vt 0.004697 0.279112
vt 0.004697 0.279112
vt 0.004697 0.279112
vt 0.004697 0.279112
vt 0.004697 0.279112
vt 0.004697 0.279112
vt 0.004697 0.279112
vt 0.004697 0.279112
vt 0.004697 0.279112
vt 0.004697 0.279112
vt 0.004697 0.279112
vt 0.004697 0.279112
vt 0.004697 0.279112
vt 0.004697 0.279112
vt 0.004697 0.279112
vt 0.004697 0.279112
vt 0.004697 0.279112
vt 0.004697 0.279112
vt 0.004697 0.279112
vt 0.004697 0.279112
vt 0.004697 0.279112
vt 0.004697 0.279112
vt 0.004697 0.279112
vt 0.004697 0.279112
vt 0.004697 0.279112
vt 0.004697 0.279112
vt 0.004697 0.279112
vt 0.004697 0.279112
vt 0.004697 0.279112
vt 0.004697 0.279112
vt 0.004697 0.279112
vt 0.004697 0.279112
vt 0.004697 0.279112
vt 0.004697 0.279112
vt 0.004697 0.279112
vt 0.004697 0.279112
vt 0.004697 0.279112
vt 0.004697 0.279112
vt 0.004697 0.279112
vt 0.004697 0.279112
vt 0.004697 0.279112
vt 0.004697 0.279112
vt 0.004697 0.279112
vt 0.004697 0.279112
vt 0.004697 0.279112
vt 0.004697 0.279112
vt 0.004697 0.279112
vt 0.004697 0.279112
vt 0.004697 0.279112
vt 0.004697 0.279112
vt 0.004697 0.279112
vt 0.004697 0.279112
vt 0.004697 0.279112
vt 0.004697 0.279112
vt 0.004697 0.279112
vt 0.004697 0.279112
vt 0.004697 0.279112
vt 0.004697 0.279112
vt 0.004697 0.279112
vt 0.004697 0.279112
vt 0.004697 0.279112
vt 0.004697 0.279112
vt 0.004697 0.279112
vt 0.004697 0.279112
vt 0.004697 0.279112
vt 0.004697 0.279112
vt 0.004697 0.279112
vt 0.004697 0.279112
vt 0.004697 0.279112
vt 0.004698 0.328942
vt 0.004698 0.328942
vt 0.004698 0.328942
vt 0.004698 0.328942
vt 0.004698 0.328942
vt 0.004698 0.328942
vt 0.004698 0.328942
vt 0.004698 0.328942
vn -0.064626 -0.145479 -0.987248
vn -0.063503 -0.146103 -0.987229
vn -0.002270 -0.086207 -0.996275
vn -0.002436 -0.079242 -0.996853
vn -0.886166 -0.184445 -0.425077
vn -0.886332 -0.191676 -0.421517
vn -0.856262 0.139570 -0.497328
vn -0.854073 0.155480 -0.496373
vn -0.843870 -0.020769 0.536145
vn -0.841562 -0.041502 0.538564
vn -0.836242 0.250981 0.487553
vn -0.836095 0.251337 0.487621
vn 0.100396 0.136338 0.985562
vn 0.102134 0.133046 0.985833
vn 0.003649 0.128412 0.991714
vn 0.003399 0.141878 0.989878
vn 0.859929 0.200322 0.469460
vn 0.859713 0.198652 0.470564
vn 0.859733 -0.108840 0.499012
vn 0.862036 -0.082477 0.500091
vn 0.821090 0.053080 -0.568325
vn 0.824101 0.044608 -0.564683
vn 0.845808 -0.205061 -0.492503
vn 0.846502 -0.201526 -0.492769
vn 0.000000 -1.000000 0.000000
vn 0.000000 -1.000000 0.000000
vn 0.000000 -1.000000 0.000000
vn 0.000000 -1.000000 0.000000
vn 0.000000 -1.000000 0.000000
vn 0.000000 -1.000000 0.000000
vn 0.000000 -1.000000 0.000000
vn 0.000000 -1.000000 0.000000
vn 0.000000 -1.000000 0.000000
vn 0.000000 -1.000000 0.000000
vn 0.000000 -1.000000 0.000000
vn 0.000000 -1.000000 0.000000
vn 0.000000 -1.000000 0.000000
vn 0.000000 -1.000000 0.000000
vn 0.000000 -1.000000 0.000000
vn 0.000000 -1.000000 0.000000
vn 0.000000 -1.000000 0.000000
vn 0.000000 -1.000000 0.000000
vn -0.365555 0.930790 -0.000034
vn -0.365544 0.930794 -0.000021
vn -0.365551 0.930791 -0.000002
vn -0.365544 0.930794 -0.000021
vn -0.365544 0.930794 -0.000000
vn -0.365551 0.930791 -0.000002
vn -0.365544 0.930794 -0.000000
vn -0.365544 0.930794 0.000021
vn -0.365551 0.930791 -0.000002
vn -0.365544 0.930794 0.000021
vn -0.365555 0.930790 0.000028
vn -0.365551 0.930791 -0.000002
vn -0.365555 0.930790 0.000028
vn -0.365566 0.930785 -0.000007
vn -0.365551 0.930791 -0.000002
vn -0.365566 0.930785 -0.000007
vn -0.365555 0.930790 -0.000034
vn -0.365551 0.930791 -0.000002
vn -0.860097 0.138734 -0.490904
vn -0.861429 0.133834 -0.489927
vn -0.888240 -0.197706 -0.414658
vn -0.889604 -0.186463 -0.416938
vn -0.909692 0.011463 0.415125
vn -0.910005 0.003960 0.414578
vn -0.864146 -0.068438 0.498566
vn -0.842926 -0.078448 0.532280
vn 0.132462 0.542750 0.829383
vn 0.132462 0.542750 0.829383
vn 0.132462 0.542750 0.829383
vn 0.132462 0.542750 0.829383
vn 0.948695 -0.056284 0.311143
vn 0.931274 -0.100301 0.350240
vn 0.876736 0.207239 0.434034
vn 0.918867 0.213844 0.331593
vn 0.861016 0.043291 -0.506732
vn 0.861353 0.042739 -0.506205
vn 0.814313 0.076988 -0.575298
vn 0.814561 0.075143 -0.575190
vn -0.005409 0.160606 -0.987004
vn -0.006180 0.159252 -0.987219
vn -0.073046 -0.120477 -0.990025
vn -0.073166 -0.112732 -0.990928
vn 0.846502 -0.201526 -0.492769
vn 0.845808 -0.205061 -0.492503
vn 0.821643 -0.139049 -0.552782
vn 0.824696 -0.150590 -0.545159
vn 0.862036 -0.082477 0.500091
vn 0.859733 -0.108840 0.499012
vn 0.884558 -0.003050 0.466420
vn 0.882818 -0.016233 0.469434
vn 0.003399 0.141878 0.989878
vn 0.003649 0.128412 0.991714
vn 0.005054 0.103167 0.994651
vn 0.005073 0.103584 0.994608
vn -0.836095 0.251337 0.487621
vn -0.836242 0.250981 0.487553
vn -0.857593 0.130555 0.497483
vn -0.859558 0.114090 0.498140
vn -0.854073 0.155480 -0.496373
vn -0.856262 0.139570 -0.497328
vn -0.866062 0.024696 -0.499326
vn -0.866479 0.009173 -0.499129
vn -0.002436 -0.079242 -0.996853
vn -0.002270 -0.086207 -0.996275
vn -0.005194 -0.106324 -0.994318
vn -0.005132 -0.105046 -0.994454
vn 0.824696 -0.150590 -0.545159
vn 0.821643 -0.139049 -0.552782
vn 0.784319 -0.022270 -0.619958
vn 0.784785 -0.023657 -0.619317
vn 0.882818 -0.016233 0.469434
vn 0.884558 -0.003050 0.466420
vn 0.892462 0.099504 0.440013
vn 0.892462 0.099504 0.440013
vn 0.005073 0.103584 0.994608
vn 0.005054 0.103167 0.994651
vn 0.000049 0.094500 0.995525
vn 0.007112 0.096435 0.995314
vn -0.859558 0.114090 0.498140
vn -0.857593 0.130555 0.497483
vn -0.866598 -0.015401 0.498768
vn -0.866576 -0.017401 0.498741
vn -0.866479 0.009173 -0.499129
vn -0.866062 0.024696 -0.499326
vn -0.861799 -0.127811 -0.490883
vn -0.861580 -0.128711 -0.491033
vn -0.005132 -0.105046 -0.994454
vn -0.005194 -0.106324 -0.994318
vn -0.010585 -0.115616 -0.993238
vn -0.009584 -0.124692 -0.992149
vn -0.855619 0.154593 -0.493981
vn -0.855619 0.154593 -0.493981
vn -0.861429 0.133834 -0.489927
vn -0.860097 0.138734 -0.490904
vn -0.910052 0.013592 0.414272
vn -0.910051 0.013592 0.414272
vn -0.910005 0.003960 0.414578
vn -0.909692 0.011463 0.415125
vn 0.024844 -0.146055 0.988964
vn 0.024844 -0.146055 0.988964
vn 0.024844 -0.146055 0.988964
vn 0.024844 -0.146055 0.988964
vn 0.927574 -0.109548 0.357219
vn 0.927574 -0.109548 0.357219
vn 0.931274 -0.100301 0.350240
vn 0.948695 -0.056284 0.311143
vn 0.865492 0.035882 -0.499637
vn 0.865492 0.035882 -0.499637
vn 0.861353 0.042739 -0.506205
vn 0.861016 0.043291 -0.506732
vn 0.000000 0.170107 -0.985426
vn 0.000000 0.170107 -0.985426
vn -0.006180 0.159252 -0.987219
vn -0.005409 0.160606 -0.987004
vn -0.889604 -0.186463 -0.416938
vn -0.888240 -0.197706 -0.414658
vn -0.886332 -0.191676 -0.421517
vn -0.886166 -0.184445 -0.425077
vn -0.842926 -0.078448 0.532280
vn -0.864146 -0.068438 0.498566
vn -0.841562 -0.041502 0.538564
vn -0.843870 -0.020769 0.536145
vn 0.112666 0.113006 0.987186
vn 0.112666 0.113006 0.987186
vn 0.102134 0.133046 0.985833
vn 0.100396 0.136338 0.985562
vn 0.918867 0.213844 0.331593
vn 0.876736 0.207239 0.434034
vn 0.859713 0.198652 0.470564
vn 0.859929 0.200322 0.469460
vn 0.814561 0.075143 -0.575190
vn 0.814313 0.076988 -0.575298
vn 0.824101 0.044608 -0.564683
vn 0.821090 0.053080 -0.568325
vn -0.073166 -0.112732 -0.990928
vn -0.073046 -0.120477 -0.990025
vn -0.063503 -0.146103 -0.987229
vn -0.064626 -0.145479 -0.987248
vn 0.834188 0.407193 0.371920
vn 0.834188 0.407193 0.371920
vn 0.834188 0.407193 0.371920
vn 0.834188 0.407193 0.371920
vn 0.007112 0.096435 0.995314
vn 0.000049 0.094500 0.995525
vn 0.014091 -0.069806 0.997461
vn 0.031785 -0.068710 0.997130
vn -0.866576 -0.017401 0.498741
vn -0.866598 -0.015401 0.498768
vn -0.843423 -0.223391 0.488604
vn -0.843675 -0.222920 0.488385
vn -0.861580 -0.128711 -0.491033
vn -0.861799 -0.127811 -0.490883
vn -0.872003 -0.113400 -0.476184
vn -0.871969 -0.113811 -0.476148
vn -0.009584 -0.124692 -0.992149
vn -0.010585 -0.115616 -0.993238
vn -0.064849 0.140100 -0.988012
vn -0.068209 0.139265 -0.987903
vn 0.784785 -0.023657 -0.619317
vn 0.784319 -0.022270 -0.619958
vn 0.687665 0.288241 -0.666359
vn 0.694612 0.293759 -0.656673
vn 0.041398 -0.463132 0.885322
vn 0.041398 -0.463132 0.885322
vn 0.041398 -0.463132 0.885322
vn 0.041398 -0.463132 0.885322
vn 0.948695 -0.056284 0.311143
vn 0.918867 0.213844 0.331593
vn 0.971389 0.235055 -0.033956
vn 0.971389 0.235055 -0.033956
vn -0.070658 0.893364 -0.443744
vn -0.070658 0.893364 -0.443744
vn -0.070658 0.893364 -0.443744
vn -0.070658 0.893364 -0.443744
vn -0.864146 -0.068438 0.498566
vn -0.910005 0.003960 0.414578
vn -0.937456 -0.013114 0.347856
vn -0.937456 -0.013114 0.347856
vn 0.694612 0.293759 -0.656673
vn 0.687665 0.288241 -0.666359
vn 0.700774 0.298691 -0.647842
vn 0.700774 0.298691 -0.647842
vn 0.883392 0.197366 0.425048
vn 0.883392 0.197366 0.425048
vn 0.883392 0.197366 0.425048
vn 0.883392 0.197366 0.425048
vn 0.031785 -0.068710 0.997130
vn 0.014091 -0.069806 0.997461
vn 0.035297 -0.067827 0.997072
vn 0.035297 -0.067827 0.997073
vn -0.843675 -0.222920 0.488385
vn -0.843423 -0.223391 0.488604
vn -0.843118 -0.223963 0.488869
vn -0.843118 -0.223963 0.488869
vn -0.871969 -0.113811 -0.476148
vn -0.872003 -0.113400 -0.476184
vn -0.871468 -0.119705 -0.475621
vn -0.871468 -0.119705 -0.475621
vn -0.068209 0.139265 -0.987903
vn -0.064849 0.140100 -0.988012
vn -0.071984 0.138324 -0.987768
vn -0.071984 0.138324 -0.987768
vn 0.760081 -0.589703 0.272996
vn 0.760081 -0.589703 0.272996
vn 0.760081 -0.589703 0.272996
vn 0.760081 -0.589703 0.272996
vn 0.559499 0.242175 -0.792661
vn 0.559499 0.242175 -0.792661
vn 0.559499 0.242175 -0.792661
vn 0.559499 0.242175 -0.792661
vn -0.303856 0.940303 0.153303
vn -0.303856 0.940303 0.153303
vn -0.303856 0.940303 0.153303
vn -0.303856 0.940303 0.153303
vn 0.014091 -0.069806 0.997461
vn 0.000049 0.094500 0.995525
vn -0.147063 -0.081368 0.985775
vn -0.147063 -0.081368 0.985775
s off
f 44/63/1 39/57/2 26/42/3 21/37/4
f 39/57/5 40/58/6 25/41/7 26/42/8
f 40/58/9 41/59/10 24/40/11 25/41/12
f 41/59/13 42/60/14 23/39/15 24/40/16
f 42/60/17 43/61/18 22/38/19 23/39/20
f 43/61/21 44/62/22 21/36/23 22/38/24
f 2/2/25 1/1/26 13/27/27
f 3/3/28 2/2/29 13/27/30
f 4/4/31 3/3/32 13/27/33
f 5/5/34 4/4/35 13/27/36
f 6/6/37 5/5/38 13/27/39
f 1/1/40 6/6/41 13/27/42
f 7/25/43 8/24/44 14/28/45
f 8/24/46 9/23/47 14/28/48
f 9/23/49 10/22/50 14/28/51
f 10/22/52 11/21/53 14/28/54
f 11/21/55 12/26/56 14/28/57
f 12/26/58 7/25/59 14/28/60
f 33/50/61 34/51/62 16/30/63 15/29/64
f 34/51/65 35/52/66 17/31/67 16/30/68
f 51/86/69 52/87/70 53/88/71 54/89/72
f 36/53/73 37/54/74 19/33/75 18/32/76
f 37/54/77 38/55/78 20/34/79 19/33/80
f 38/56/81 33/50/82 15/29/83 20/35/84
f 22/38/85 21/36/86 27/43/87 28/45/88
f 23/39/89 22/38/90 28/45/91 29/46/92
f 24/40/93 23/39/94 29/46/95 30/47/96
f 25/41/97 24/40/98 30/47/99 31/48/100
f 26/42/101 25/41/102 31/48/103 32/49/104
f 21/37/105 26/42/106 32/49/107 27/44/108
f 28/45/109 27/43/110 50/69/111 45/64/112
f 29/46/113 28/45/114 45/64/115 46/65/116
f 30/47/117 29/46/118 46/65/119 47/66/120
f 31/48/121 30/47/122 47/66/123 48/67/124
f 32/49/125 31/48/126 48/67/127 49/68/128
f 27/44/129 32/49/130 49/68/131 50/70/132
f 2/8/133 3/9/134 34/51/135 33/50/136
f 3/9/137 4/10/138 35/52/139 34/51/140
f 4/10/141 5/11/142 36/53/143 35/52/144
f 5/11/145 6/12/146 37/54/147 36/53/148
f 6/12/149 1/13/150 38/55/151 37/54/152
f 1/7/153 2/8/154 33/50/155 38/56/156
f 15/29/157 16/30/158 40/58/159 39/57/160
f 16/30/161 17/31/162 41/59/163 40/58/164
f 17/31/165 18/32/166 42/60/167 41/59/168
f 18/32/169 19/33/170 43/61/171 42/60/172
f 19/33/173 20/34/174 44/62/175 43/61/176
f 20/35/177 15/29/178 39/57/179 44/63/180
f 62/90/181 61/91/182 63/92/183 64/93/184
f 47/66/185 46/65/186 57/78/187 58/79/188
f 48/67/189 47/66/190 58/79/191 59/80/192
f 49/68/193 48/67/194 59/80/195 60/81/196
f 50/70/197 49/68/198 60/81/199 55/76/200
f 45/64/201 50/69/202 55/75/203 56/77/204
f 35/52/205 36/53/206 52/72/207 51/71/208
f 36/53/209 18/32/210 53/73/211 52/72/212
f 18/32/213 17/31/214 54/74/215 53/73/216
f 17/31/217 35/52/218 51/71/219 54/74/220
f 56/77/221 55/75/222 7/20/223 12/19/224
f 57/78/225 56/77/226 12/19/227 11/18/228
f 58/79/229 57/78/230 11/18/231 10/17/232
f 59/80/233 58/79/234 10/17/235 9/16/236
f 60/81/237 59/80/238 9/16/239 8/15/240
f 55/76/241 60/81/242 8/15/243 7/14/244
f 46/65/245 45/64/246 61/83/247 62/82/248
f 45/64/249 56/77/250 63/84/251 61/83/252
f 56/77/253 57/78/254 64/85/255 63/84/256
f 57/78/257 46/65/258 62/82/259 64/85/260
