# This file uses centimeters as units for non-parametric coordinates.

v -0.251923 0.147069 -0.161987
v -0.251923 0.147069 0.161987
v -0.251923 0.225217 -0.156570
v -0.251923 0.225217 0.156570
v -0.191002 0.225217 -0.156570
v -0.191002 0.225217 0.156570
v -0.191002 0.147069 -0.161987
v -0.191002 0.147069 0.161987
v 0.198681 0.147069 -0.161987
v 0.198681 0.147069 0.161987
v 0.198681 0.225217 -0.156570
v 0.198681 0.225217 0.156570
v 0.259602 0.225217 -0.156570
v 0.259602 0.225217 0.156570
v 0.259602 0.147069 -0.161987
v 0.259602 0.147069 0.161987
v -0.292316 0.566094 0.259865
v 0.313671 0.566094 0.259865
v -0.282032 0.623893 0.247421
v 0.301147 0.623893 0.247421
v -0.300102 0.623893 -0.246307
v 0.286209 0.623893 -0.246307
v -0.300102 0.566094 -0.259872
v 0.298733 0.566094 -0.259872
v -0.313671 0.623893 -0.123581
v 0.286209 0.623893 -0.104515
v -0.292316 0.623893 -0.070793
v -0.298405 0.566094 -0.102249
v -0.283337 0.612515 -0.098785
v -0.282032 0.623893 0.162865
v -0.282032 0.623893 0.119640
v -0.292316 0.566094 0.138203
v -0.261810 0.605725 0.141674
v -0.129139 0.623893 0.140919
v -0.282032 0.623893 0.058216
v 0.301144 0.623893 0.099319
v 0.301815 0.623893 0.060547
v -0.113468 0.623893 0.070652
v 0.272438 0.613702 0.082989
v 0.313671 0.566094 0.082092
v -0.276623 0.000000 0.248817
v -0.198944 0.000000 0.248817
v -0.235775 0.566094 0.202610
v -0.158092 0.566094 0.202610
v -0.235775 0.566094 0.124928
v -0.158092 0.566094 0.124928
v -0.276623 0.000000 0.171127
v -0.198944 0.000000 0.171127
v -0.246567 0.283047 0.218315
v -0.246567 0.283047 0.140633
v -0.168888 0.283047 0.140633
v -0.168888 0.283047 0.218315
v 0.285652 -0.000000 0.229095
v 0.205349 -0.000000 0.248817
v 0.244801 0.566094 0.182888
v 0.164505 0.566094 0.202610
v 0.242188 0.566094 0.124931
v 0.164505 0.566094 0.124931
v 0.283039 -0.000000 0.171127
v 0.205349 -0.000000 0.171127
v 0.218353 0.566094 0.202610
v 0.262264 -0.000000 0.248817
v 0.269886 0.197022 0.199326
v 0.246403 0.197022 0.217907
v 0.194199 0.197022 0.217907
v 0.194199 0.197022 0.144688
v 0.267422 0.197022 0.144688
v -0.276623 0.000000 -0.205482
v -0.198944 0.000000 -0.248817
v -0.235775 0.566094 -0.202610
v -0.158092 0.566094 -0.202610
v -0.235775 0.566094 -0.124928
v -0.158092 0.566094 -0.124928
v -0.276623 0.000000 -0.171135
v -0.198944 0.000000 -0.171135
v -0.233067 0.000000 -0.248817
v -0.251579 0.347043 -0.220493
v 0.283039 -0.000000 -0.248817
v 0.205349 -0.000000 -0.248817
v 0.242188 0.566094 -0.202610
v 0.164505 0.566094 -0.202610
v 0.242188 0.566094 -0.124931
v 0.164505 0.566094 -0.124931
v 0.283039 -0.000000 -0.171135
v 0.205349 -0.000000 -0.171135
v -0.196114 0.152601 0.030460
v 0.202526 0.152601 0.030460
v -0.196114 0.219685 0.030460
v 0.202526 0.219685 0.030460
v -0.196114 0.219685 -0.030460
v 0.202526 0.219685 -0.030460
v -0.196114 0.152601 -0.030460
v 0.202526 0.152601 -0.030460
v -0.036739 0.199812 0.023758
v -0.036739 0.199812 -0.023758
v -0.036739 0.147490 -0.023758
v -0.036739 0.147490 0.023758
vt 0.038981 0.276404
vt 0.038981 0.276404
vt 0.038981 0.276404
vt 0.038981 0.276404
vt 0.038981 0.276404
vt 0.038981 0.276404
vt 0.038981 0.276404
vt 0.038981 0.276404
vt 0.038981 0.276404
vt 0.038981 0.276404
vt 0.038981 0.276404
vt 0.038981 0.276404
vt 0.038981 0.276404
vt 0.038981 0.276404
vt 0.038981 0.276404
vt 0.038981 0.276404
vt 0.038981 0.276404
vt 0.038981 0.276404
vt 0.038981 0.276404
vt 0.038981 0.276404
vt 0.038981 0.276404
vt 0.038981 0.276404
vt 0.038981 0.276404
vt 0.038981 0.276404
vt 0.038981 0.276404
vt 0.038981 0.276404
vt 0.038981 0.276404
vt 0.038981 0.276404
vt 0.038981 0.276404
vt 0.038981 0.276404
vt 0.038981 0.276404
vt 0.038981 0.276404
vt 0.038981 0.276404
vt 0.038981 0.276404
vt 0.038981 0.276404
vt 0.038981 0.276404
vt 0.037033 0.233552
vt 0.037033 0.233552
vt 0.038981 0.276404
vt 0.038981 0.276404
vt 0.037033 0.233552
vt 0.038981 0.276404
vt 0.038981 0.276404
vt 0.037033 0.233552
vt 0.038981 0.276404
vt 0.037033 0.233552
vt 0.037033 0.233552
vt 0.037033 0.233552
vt 0.038981 0.276404
vt 0.037033 0.233552
vt 0.038981 0.276404
vt 0.037033 0.233552
vt 0.037033 0.233552
vt 0.038981 0.276404
vt 0.037033 0.233552
vt 0.038981 0.276404
vt 0.038981 0.276404
vt 0.038981 0.276404
vt 0.038981 0.276404
vt 0.037033 0.233552
vt 0.037033 0.233552
vt 0.038981 0.276404
vt 0.037033 0.233552
vt 0.038981 0.276404
vt 0.038981 0.276404
vt 0.038981 0.276404
vt 0.038981 0.276404
vt 0.038981 0.276404
vt 0.038981 0.276404
vt 0.038981 0.276404
vt 0.038981 0.276404
vt 0.038981 0.276404
vt 0.038981 0.276404
vt 0.038981 0.276404
vt 0.038981 0.276404
vt 0.038981 0.276404
vt 0.038981 0.276404
vt 0.038981 0.276404
vt 0.038981 0.276404
vt 0.038981 0.276404
vt 0.038981 0.276404
vt 0.038981 0.276404
vt 0.038981 0.276404
vt 0.038981 0.276404
vt 0.038981 0.276404
vt 0.038981 0.276404
vt 0.038981 0.276404
vt 0.038981 0.276404
vt 0.038981 0.276404
vt 0.038981 0.276404
vt 0.038981 0.276404
vt 0.038981 0.276404
vt 0.038981 0.276404
vt 0.038981 0.276404
vt 0.038981 0.276404
vt 0.038981 0.276404
vt 0.038981 0.276404
vt 0.038981 0.276404
vt 0.038981 0.276404
vt 0.038981 0.276404
vt 0.038981 0.276404
vt 0.038981 0.276404
vt 0.038981 0.276404
vt 0.038981 0.276404
vt 0.038981 0.276404
vt 0.038981 0.276404
vt 0.038981 0.276404
vt 0.038981 0.276404
vt 0.038981 0.276404
vt 0.038981 0.276404
vt 0.038981 0.276404
vt 0.038981 0.276404
vt 0.038981 0.276404
vt 0.038981 0.276404
vt 0.038981 0.276404
vt 0.038981 0.276404
vt 0.038981 0.276404
vt 0.038981 0.276404
vt 0.038981 0.276404
vt 0.038981 0.276404
vt 0.038981 0.276404
vt 0.038981 0.276404
vt 0.038981 0.276404
vt 0.038981 0.276404
vt 0.038981 0.276404
vt 0.038981 0.276404
vt 0.038981 0.276404
vt 0.038981 0.276404
vt 0.038981 0.276404
vt 0.038981 0.276404
vt 0.038981 0.276404
vt 0.038981 0.276404
vt 0.038981 0.276404
vt 0.038981 0.276404
vt 0.038981 0.276404
vt 0.038981 0.276404
vt 0.038981 0.276404
vt 0.038981 0.276404
vt 0.038981 0.276404
vt 0.038981 0.276404
vt 0.038981 0.276404
vt 0.038981 0.276404
vt 0.038981 0.276404
vt 0.038981 0.276404
vt 0.038981 0.276404
vt 0.038981 0.276404
vt 0.038981 0.276404
vt 0.038981 0.276404
vt 0.038981 0.276404
vt 0.038981 0.276404
vt 0.038981 0.276404
vt 0.038981 0.276404
vt 0.038981 0.276404
vt 0.038981 0.276404
vt 0.037033 0.233552
vt 0.037033 0.233552
vt 0.037033 0.233552
vt 0.037033 0.233552
vt 0.038981 0.276404
vt 0.038981 0.276404
vt 0.038981 0.276404
vt 0.037033 0.233552
vt 0.037033 0.233552
vt 0.038981 0.276404
vt 0.037033 0.233552
vt 0.037033 0.233552
vt 0.037033 0.233552
vt 0.038981 0.276404
vt 0.038981 0.276404
vt 0.037033 0.233552
vt 0.037033 0.233552
vt 0.037033 0.233552
vt 0.037033 0.233552
vt 0.038981 0.276404
vt 0.038981 0.276404
vt 0.038981 0.276404
vt 0.037033 0.233552
vt 0.037033 0.233552
vt 0.037033 0.233552
vt 0.037033 0.233552
vt 0.038981 0.276404
vt 0.037033 0.233552
vt 0.037033 0.233552
vt 0.038981 0.276404
vt 0.037033 0.233552
vt 0.037033 0.233552
vt 0.037033 0.233552
vt 0.038981 0.276404
vn -1.000000 0.000000 0.000000
vn -1.000000 0.000000 0.000000
vn -1.000000 0.000000 0.000000
vn -1.000000 0.000000 0.000000
vn 0.000000 1.000000 0.000000
vn 0.000000 1.000000 0.000000
vn 0.000000 1.000000 0.000000
vn 0.000000 1.000000 0.000000
vn 1.000000 0.000000 0.000000
vn 1.000000 0.000000 0.000000
vn 1.000000 0.000000 0.000000
vn 1.000000 0.000000 0.000000
vn 0.000000 -1.000000 0.000000
vn 0.000000 -1.000000 0.000000
vn 0.000000 -1.000000 0.000000
vn 0.000000 -1.000000 0.000000
vn -1.000000 -0.000000 0.000000
vn -1.000000 -0.000000 0.000000
vn -1.000000 -0.000000 0.000000
vn -1.000000 -0.000000 0.000000
vn 0.000000 1.000000 0.000000
vn 0.000000 1.000000 0.000000
vn 0.000000 1.000000 0.000000
vn 0.000000 1.000000 0.000000
vn 1.000000 -0.000000 0.000000
vn 1.000000 -0.000000 0.000000
vn 1.000000 -0.000000 0.000000
vn 1.000000 -0.000000 0.000000
vn 0.000000 -1.000000 0.000000
vn 0.000000 -1.000000 0.000000
vn 0.000000 -1.000000 0.000000
vn 0.000000 -1.000000 0.000000
vn 0.000000 0.210468 0.977601
vn 0.000000 0.210468 0.977601
vn 0.000000 0.210468 0.977601
vn 0.000000 0.210468 0.977601
vn 0.000000 1.000000 0.000000
vn 0.000000 1.000000 0.000000
vn 0.000000 1.000000 0.000000
vn 0.000000 1.000000 0.000000
vn 0.000000 0.228485 -0.973547
vn 0.000000 0.228485 -0.973547
vn 0.000000 0.228485 -0.973547
vn 0.000000 0.228485 -0.973547
vn 0.000000 -1.000000 0.000000
vn 0.000000 -1.000000 0.000000
vn 0.000000 -1.000000 0.000000
vn 0.977321 0.211762 0.000000
vn 0.977321 0.211762 0.000000
vn 0.977321 0.211762 0.000000
vn -0.596387 0.134537 0.791342
vn -0.596387 0.134537 0.791342
vn -0.596387 0.134537 0.791342
vn -0.013692 0.902348 0.430791
vn -0.013692 0.902348 0.430791
vn -0.013692 0.902348 0.430791
vn -0.994830 -0.076769 -0.066487
vn -0.978390 -0.206535 -0.009818
vn -0.993613 0.025782 -0.109856
vn -0.984536 0.175182 0.000000
vn -0.984536 0.175182 0.000000
vn -0.984536 0.175182 0.000000
vn -0.984536 0.175182 0.000000
vn -0.861567 0.309672 -0.402252
vn -0.861567 0.309672 -0.402252
vn -0.861567 0.309672 -0.402252
vn -0.022300 0.923656 -0.382573
vn -0.022300 0.923656 -0.382573
vn -0.022300 0.923656 -0.382573
vn 0.000000 1.000000 0.000000
vn 0.000000 1.000000 0.000000
vn 0.000000 1.000000 0.000000
vn 0.000000 1.000000 0.000000
vn 0.040009 0.814605 -0.578634
vn 0.040009 0.814605 -0.578634
vn 0.040009 0.814605 -0.578634
vn 0.469068 0.391344 0.791723
vn 0.469068 0.391344 0.791723
vn 0.469068 0.391344 0.791723
vn -0.986318 0.160535 0.037478
vn -0.986318 0.160535 0.037478
vn -0.986318 0.160535 0.037478
vn -0.986318 0.160535 0.037478
vn -0.986318 0.160535 0.037478
vn -0.533786 0.343182 0.772851
vn -0.533786 0.343182 0.772851
vn -0.533786 0.343182 0.772851
vn -0.451886 0.416916 -0.788657
vn -0.451886 0.416916 -0.788657
vn -0.451886 0.416916 -0.788657
vn 0.000000 -1.000000 0.000000
vn 0.000000 -1.000000 0.000000
vn 0.000000 -1.000000 0.000000
vn 0.000000 -1.000000 0.000000
vn 0.000000 -1.000000 0.000000
vn 0.000000 -1.000000 0.000000
vn 0.000000 -1.000000 0.000000
vn -0.095168 0.723416 0.683822
vn -0.095168 0.723416 0.683822
vn -0.095168 0.723416 0.683822
vn -0.100647 0.705839 -0.701186
vn -0.100647 0.705839 -0.701186
vn -0.100647 0.705839 -0.701186
vn 0.000000 1.000000 -0.000000
vn 0.000000 1.000000 -0.000000
vn 0.000000 1.000000 -0.000000
vn 0.000000 1.000000 -0.000000
vn 0.000000 1.000000 -0.000000
vn 0.000000 1.000000 -0.000000
vn 0.000000 1.000000 0.000000
vn 0.000000 1.000000 0.000000
vn 0.000000 1.000000 0.000000
vn 0.000000 1.000000 0.000000
vn 0.000000 1.000000 0.000000
vn 0.010332 0.905319 0.424606
vn 0.010332 0.905319 0.424606
vn 0.010332 0.905319 0.424606
vn 0.977315 0.211793 -0.000011
vn 0.977315 0.211793 -0.000011
vn 0.977315 0.211793 -0.000011
vn 0.977315 0.211793 -0.000011
vn 0.961190 0.269743 -0.057904
vn 0.961190 0.269743 -0.057904
vn 0.961190 0.269743 -0.057904
vn 0.961190 0.269743 -0.057904
vn 0.371752 0.338246 -0.864518
vn 0.371752 0.338246 -0.864518
vn 0.371752 0.338246 -0.864517
vn 0.000000 -1.000000 0.000000
vn 0.000000 -1.000000 0.000000
vn 0.000000 -1.000000 0.000000
vn -0.994830 -0.076769 -0.066487
vn -0.967733 -0.251761 0.010422
vn -0.978390 -0.206535 -0.009818
vn 0.000000 0.107144 0.994244
vn 0.000000 0.107144 0.994244
vn 0.000000 0.080148 0.996783
vn 0.000000 0.082509 0.996590
vn 0.000000 -0.082495 -0.996592
vn 0.000000 -0.080135 -0.996784
vn 0.000000 -0.107117 -0.994246
vn 0.000000 -0.107117 -0.994246
vn 0.000000 -1.000000 0.000000
vn 0.000000 -1.000000 0.000000
vn 0.000000 -1.000000 0.000000
vn 0.000000 -1.000000 0.000000
vn 0.994409 -0.105594 0.000000
vn 0.994409 -0.105594 0.000000
vn 0.997533 -0.070206 0.000000
vn 0.997281 -0.073692 0.000000
vn -0.994409 0.105594 0.000000
vn -0.994409 0.105594 0.000000
vn -0.997282 0.073685 0.000000
vn -0.997533 0.070199 0.000000
vn -0.997533 0.070199 0.000000
vn -0.997282 0.073685 0.000000
vn -0.999274 0.038100 0.000000
vn -0.999274 0.038100 0.000000
vn 0.000000 -0.055401 -0.998464
vn 0.000000 -0.055401 -0.998464
vn 0.000000 -0.080135 -0.996784
vn 0.000000 -0.082495 -0.996592
vn 0.997281 -0.073692 0.000000
vn 0.997533 -0.070206 0.000000
vn 0.999273 -0.038113 0.000000
vn 0.999273 -0.038113 0.000000
vn 0.000000 0.082509 0.996590
vn 0.000000 0.080148 0.996783
vn 0.000000 0.055401 0.998464
vn 0.000000 0.055401 0.998464
vn 0.623831 0.167626 0.763372
vn 0.613255 0.108476 0.782401
vn 0.613268 0.108541 0.782382
vn 0.623831 0.167626 0.763372
vn 0.000000 -0.083045 -0.996546
vn 0.000000 -0.133004 -0.991115
vn 0.000000 -0.133004 -0.991116
vn 0.000000 -0.079796 -0.996811
vn 0.000000 -1.000000 0.000000
vn 0.000000 -1.000000 0.000000
vn 0.000000 -1.000000 0.000000
vn 0.000000 -1.000000 0.000000
vn -0.998402 -0.056504 0.000000
vn -0.997455 -0.071302 0.000000
vn -0.997361 -0.072606 0.000000
vn -0.998402 -0.056504 0.000000
vn 0.996324 0.072944 -0.044924
vn 0.996669 0.068053 -0.044943
vn 0.996641 0.068460 -0.044941
vn 0.996324 0.072943 -0.044924
vn 0.000000 0.154993 0.987916
vn 0.000000 0.084714 0.996405
vn 0.000000 0.079876 0.996805
vn 0.000000 0.154993 0.987916
vn 0.000000 -1.000000 0.000000
vn 0.000000 -1.000000 0.000000
vn 0.000000 -1.000000 0.000000
vn 0.613255 0.108476 0.782401
vn 0.606824 0.077690 0.791030
vn 0.606824 0.077690 0.791030
vn 0.613268 0.108541 0.782382
vn 0.000000 0.079876 0.996805
vn 0.000000 0.084714 0.996405
vn 0.000000 0.041412 0.999142
vn 0.000000 0.041412 0.999142
vn -0.997361 -0.072606 0.000000
vn -0.997455 -0.071302 0.000000
vn -0.996779 -0.080196 0.000000
vn -0.996779 -0.080196 0.000000
vn 0.000000 -0.053453 -0.998570
vn 0.000000 -0.083045 -0.996546
vn 0.000000 -0.079796 -0.996811
vn 0.000000 -0.053453 -0.998570
vn 0.996641 0.068460 -0.044941
vn 0.996669 0.068053 -0.044943
vn 0.996823 0.065750 -0.044951
vn 0.996823 0.065750 -0.044951
vn 0.000026 0.081355 -0.996685
vn 0.000026 0.081355 -0.996685
vn 0.000026 0.081355 -0.996685
vn 0.000026 0.081355 -0.996685
vn 0.000026 0.081355 -0.996685
vn 0.000000 -0.081355 0.996685
vn 0.000000 -0.081355 0.996685
vn 0.000000 -0.081355 0.996685
vn 0.000000 -0.081355 0.996685
vn 0.997406 -0.071977 0.000000
vn 0.997406 -0.071977 0.000000
vn 0.997406 -0.071977 0.000000
vn 0.997406 -0.071977 0.000000
vn -0.997407 0.071970 -0.000014
vn -0.997407 0.071970 -0.000014
vn -0.997407 0.071970 -0.000014
vn -0.997407 0.071970 -0.000014
vn -0.997407 0.071970 -0.000014
vn -0.705160 0.020230 -0.708760
vn -0.705160 0.020230 -0.708760
vn -0.705160 0.020230 -0.708760
vn 0.000000 -1.000000 0.000000
vn 0.000000 -1.000000 0.000000
vn 0.000000 -1.000000 0.000000
vn 0.000000 -1.000000 0.000000
vn 0.000000 -1.000000 0.000000
vn 0.000000 0.081355 -0.996685
vn 0.000000 0.081355 -0.996685
vn 0.000000 0.081355 -0.996685
vn 0.000000 0.081355 -0.996685
vn 0.000000 -0.081348 0.996686
vn 0.000000 -0.081348 0.996686
vn 0.000000 -0.081348 0.996686
vn 0.000000 -0.081348 0.996686
vn 0.000000 -1.000000 0.000000
vn 0.000000 -1.000000 0.000000
vn 0.000000 -1.000000 0.000000
vn 0.000000 -1.000000 0.000000
vn -0.997407 -0.071964 0.000000
vn -0.997407 -0.071964 0.000000
vn -0.997407 -0.071964 0.000000
vn -0.997407 -0.071964 0.000000
vn 0.997406 0.071977 0.000000
vn 0.997406 0.071977 0.000000
vn 0.997406 0.071977 0.000000
vn 0.997406 0.071977 0.000000
vn 0.042017 0.000000 0.999117
vn -0.000116 0.000000 1.000000
vn 0.000414 0.000000 1.000000
vn 0.042017 0.000000 0.999117
vn 0.123739 0.992315 0.000000
vn 0.000429 1.000000 0.000000
vn 0.000429 1.000000 0.000000
vn 0.123739 0.992315 0.000000
vn 0.042017 0.000000 -0.999117
vn 0.000414 0.000000 -1.000000
vn -0.000116 0.000000 -1.000000
vn 0.042017 0.000000 -0.999117
vn -0.032056 -0.999486 0.000000
vn -0.000112 -1.000000 0.000000
vn -0.000112 -1.000000 0.000000
vn -0.032056 -0.999486 0.000000
vn 0.000429 1.000000 0.000000
vn -0.082775 0.996568 0.000000
vn -0.082775 0.996568 0.000000
vn 0.000429 1.000000 0.000000
vn -0.000116 0.000000 -1.000000
vn 0.000414 0.000000 -1.000000
vn -0.028002 0.000000 -0.999608
vn -0.028002 0.000000 -0.999608
vn -0.000112 -1.000000 0.000000
vn -0.000112 -1.000000 0.000000
vn 0.021358 -0.999772 0.000000
vn 0.021358 -0.999772 0.000000
vn 0.000414 0.000000 1.000000
vn -0.000116 0.000000 1.000000
vn -0.028002 0.000000 0.999608
vn -0.028002 0.000000 0.999608
s off
f 1/1/1 2/2/2 4/3/3 3/4/4
f 3/4/5 4/3/6 6/5/7 5/6/8
f 5/6/9 6/5/10 8/7/11 7/8/12
f 7/8/13 8/7/14 2/9/15 1/10/16
f 9/11/17 10/12/18 12/13/19 11/14/20
f 11/14/21 12/13/22 14/15/23 13/16/24
f 13/16/25 14/15/26 16/17/27 15/18/28
f 15/18/29 16/17/30 10/19/31 9/20/32
f 17/21/33 18/22/34 20/23/35 19/24/36
f 25/25/37 26/181/38 22/27/39 21/28/40
f 21/28/41 22/27/42 24/29/43 23/30/44
f 23/30/45 24/29/46 28/31/47
f 26/32/48 24/33/49 22/34/50
f 25/186/51 28/182/52 29/177/53
f 29/178/54 26/180/55 25/185/56
f 23/39/57 25/35/58 21/40/59
f 30/176/60 32/174/61 17/21/62 19/24/63
f 29/37/64 28/183/65 27/187/66
f 27/44/67 26/179/68 29/38/69
f 19/24/70 20/23/71 34/45/72 30/175/73
f 39/47/74 38/48/75 36/162/76
f 39/156/77 40/158/78 37/52/79
f 27/43/80 28/184/81 32/42/82 31/168/83 35/54/84
f 31/53/85 32/172/86 33/170/87
f 33/55/88 32/173/89 30/41/90
f 32/56/91 18/57/92 17/58/93
f 28/31/94 24/29/95 40/59/96 32/56/97
f 33/171/98 34/167/99 31/61/100
f 30/46/101 34/166/102 33/60/103
f 31/169/104 34/45/105 20/23/106 36/49/107 38/164/108 35/62/109
f 35/62/110 38/164/111 37/160/112 26/26/113 27/188/114
f 37/63/115 38/165/116 39/155/117
f 18/22/118 40/51/119 36/64/120 20/23/121
f 37/161/122 40/159/123 24/33/124 26/32/125
f 36/163/126 40/157/127 39/50/128
f 32/56/129 40/59/130 18/57/131
f 23/39/132 28/36/133 25/35/134
f 41/65/135 42/66/136 52/67/137 49/68/138
f 50/69/139 51/70/140 48/71/141 47/72/142
f 47/72/143 48/71/144 42/73/145 41/74/146
f 42/66/147 48/75/148 51/76/149 52/67/150
f 47/77/151 41/65/152 49/68/153 50/78/154
f 50/78/155 49/68/156 43/79/157 45/80/158
f 45/81/159 46/82/160 51/70/161 50/69/162
f 52/67/163 51/76/164 46/83/165 44/84/166
f 49/68/167 52/67/168 44/84/169 43/79/170
f 53/85/171 63/86/172 64/87/173 62/88/174
f 67/89/175 59/90/176 60/91/177 66/92/178
f 59/90/179 53/93/180 62/94/181 60/91/182
f 54/95/183 65/96/184 66/97/185 60/98/186
f 59/99/187 67/100/188 63/86/189 53/85/190
f 62/88/191 64/87/192 65/96/193 54/95/194
f 60/91/195 62/94/196 54/101/197
f 63/86/198 55/102/199 61/103/200 64/87/201
f 65/96/202 64/87/203 61/103/204 56/104/205
f 66/97/206 65/96/207 56/104/208 58/105/209
f 57/106/210 67/89/211 66/92/212 58/107/213
f 63/86/214 67/100/215 57/108/216 55/102/217
f 76/109/218 77/110/219 70/111/220 71/112/221 69/113/222
f 72/114/223 74/115/224 75/116/225 73/117/226
f 69/113/227 71/112/228 73/118/229 75/119/230
f 74/120/231 72/121/232 70/111/233 77/110/234 68/122/235
f 68/122/236 77/110/237 76/109/238
f 74/115/239 68/123/240 76/124/241 69/125/242 75/116/243
f 78/126/244 79/127/245 81/128/246 80/129/247
f 82/130/248 83/131/249 85/132/250 84/133/251
f 84/133/252 85/132/253 79/134/254 78/135/255
f 79/127/256 85/136/257 83/137/258 81/128/259
f 84/138/260 78/126/261 80/129/262 82/139/263
f 86/140/264 97/141/265 94/142/266 88/143/267
f 88/143/268 94/142/269 95/144/270 90/145/271
f 90/145/272 95/144/273 96/146/274 92/147/275
f 92/147/276 96/146/277 97/148/278 86/149/279
f 94/142/280 89/150/281 91/151/282 95/144/283
f 96/146/284 95/144/285 91/151/286 93/152/287
f 97/148/288 96/146/289 93/152/290 87/153/291
f 94/142/292 97/141/293 87/154/294 89/150/295
