# This file uses centimeters as units for non-parametric coordinates.

v -0.109642 0.067699 0.031639
v -0.198738 0.043473 0.021637
v -0.254799 0.076343 0.073696
v -0.232109 0.043473 0.159920
v -0.152267 0.043473 0.179188
v -0.082710 0.081474 0.117058
v -0.053673 0.373400 0.002903
v -0.114326 0.373400 -0.011734
v -0.157326 0.373400 0.033474
v -0.139671 0.373400 0.093319
v -0.079025 0.373400 0.107956
v -0.036018 0.373400 0.062748
v -0.175499 0.000000 0.100414
v 0.193016 0.364892 -0.193012
v 0.000000 0.364892 -0.272961
v -0.193008 0.364892 -0.193012
v -0.272957 0.364892 0.000004
v -0.193008 0.364892 0.193012
v 0.000000 0.364892 0.272961
v 0.193016 0.364892 0.193012
v 0.272964 0.364892 0.000004
v 0.193016 0.406737 -0.193012
v 0.000000 0.441923 -0.272961
v -0.193008 0.441923 -0.193012
v -0.272957 0.441923 0.000004
v -0.193008 0.441923 0.193012
v 0.000000 0.390005 0.272961
v 0.193016 0.400538 0.193012
v 0.272964 0.441923 0.000004
v 0.000000 0.364892 0.000004
v 0.000000 0.465830 0.000004
v -0.157196 0.441923 -0.207844
v -0.084000 0.441923 -0.244923
v -0.097595 0.454528 -0.164227
v -0.133202 0.364892 -0.217785
v -0.112457 0.411685 -0.185375
v -0.040253 0.441923 0.216618
v 0.169235 0.441923 0.161808
v 0.170982 0.441923 -0.170979
v -0.009380 0.043473 -0.098202
v 0.058681 0.043473 -0.144161
v 0.051487 0.068707 -0.225887
v -0.020916 0.043473 -0.262054
v -0.094898 0.090244 -0.216751
v -0.083218 0.043473 -0.134167
v 0.000889 0.373400 -0.058403
v 0.052601 0.373400 -0.093315
v 0.048214 0.373400 -0.155556
v -0.007877 0.373400 -0.182877
v -0.059582 0.373400 -0.147961
v -0.055202 0.373400 -0.085724
v -0.015148 0.000000 -0.180130
v 0.086967 0.043473 0.016731
v 0.103600 0.043473 0.097157
v 0.169533 0.084121 0.125927
v 0.242905 0.043473 0.068352
v 0.218185 0.072373 -0.015392
v 0.133865 0.073942 -0.045776
v 0.045197 0.373400 0.024963
v 0.057831 0.373400 0.086067
v 0.117058 0.373400 0.105675
v 0.163658 0.373400 0.064186
v 0.151024 0.373400 0.003082
v 0.091797 0.373400 -0.016525
v 0.164932 0.000000 0.042542
vt 0.035931 0.350572
vt 0.035931 0.350572
vt 0.035931 0.350572
vt 0.035931 0.350572
vt 0.035931 0.350572
vt 0.035931 0.350572
vt 0.035929 0.277401
vt 0.035929 0.277401
vt 0.035929 0.277401
vt 0.035929 0.277401
vt 0.035929 0.277401
vt 0.035929 0.277401
vt 0.035929 0.277401
vt 0.035929 0.277401
vt 0.035929 0.277401
vt 0.035929 0.277401
vt 0.035929 0.277401
vt 0.035929 0.277401
vt 0.035929 0.277401
vt 0.035929 0.277401
vt 0.035931 0.350572
vt 0.035929 0.277401
vt 0.035929 0.277401
vt 0.035929 0.277401
vt 0.035929 0.277401
vt 0.035929 0.277401
vt 0.035929 0.277401
vt 0.035929 0.277401
vt 0.035929 0.277401
vt 0.035929 0.277401
vt 0.035929 0.277401
vt 0.035929 0.277401
vt 0.035929 0.277401
vt 0.035929 0.277401
vt 0.035929 0.277401
vt 0.035929 0.277401
vt 0.035929 0.277401
vt 0.035929 0.277401
vt 0.035929 0.277401
vt 0.035929 0.277401
vt 0.035929 0.277401
vt 0.035929 0.277401
vt 0.035929 0.277401
vt 0.035929 0.277401
vt 0.035929 0.277401
vt 0.035929 0.277401
vt 0.035929 0.277401
vt 0.035929 0.277401
vt 0.035929 0.277401
vt 0.035929 0.277401
vt 0.035929 0.277401
vt 0.035929 0.277401
vt 0.035929 0.277401
vt 0.035929 0.277401
vt 0.035929 0.277401
vt 0.035929 0.277401
vt 0.035929 0.277401
vt 0.035929 0.277401
vt 0.035929 0.277401
vt 0.035929 0.277401
vt 0.035929 0.277401
vt 0.035929 0.277401
vt 0.035929 0.277401
vt 0.035929 0.277401
vt 0.035929 0.277401
vt 0.035929 0.277401
vt 0.035929 0.277401
vt 0.035929 0.277401
vt 0.035929 0.277401
vt 0.035929 0.277401
vt 0.035929 0.277401
vt 0.035929 0.277401
vt 0.035929 0.277401
vt 0.035929 0.277401
vt 0.035929 0.277401
vt 0.035929 0.277401
vt 0.035929 0.277401
vt 0.035929 0.277401
vt 0.035929 0.277401
vt 0.035929 0.277401
vt 0.035929 0.277401
vt 0.035929 0.277401
vt 0.035929 0.277401
vt 0.035931 0.350572
vt 0.035931 0.350572
vt 0.035931 0.350572
vt 0.035931 0.350572
vt 0.035931 0.350572
vt 0.035931 0.350572
vt 0.035931 0.350572
vt 0.035929 0.277401
vt 0.035929 0.277401
vt 0.035929 0.277401
vt 0.035929 0.277401
vt 0.035929 0.277401
vt 0.035929 0.277401
vt 0.035929 0.277401
vt 0.035929 0.277401
vt 0.035929 0.277401
vt 0.035929 0.277401
vt 0.035929 0.277401
vt 0.035929 0.277401
vt 0.035929 0.277401
vt 0.035929 0.277401
vt 0.035931 0.350572
vt 0.035931 0.350572
vt 0.035931 0.350572
vt 0.035931 0.350572
vt 0.035931 0.350572
vt 0.035931 0.350572
vt 0.035931 0.350572
vn 0.182145 -0.135388 -0.973906
vn 0.182145 -0.135388 -0.973906
vn 0.182145 -0.135388 -0.973906
vn 0.182145 -0.135388 -0.973906
vn -0.677269 0.111104 -0.727298
vn -0.677269 0.111104 -0.727298
vn -0.677269 0.111104 -0.727298
vn -0.677269 0.111104 -0.727298
vn -0.890639 0.324109 0.318929
vn -0.890639 0.324109 0.318929
vn -0.890639 0.324109 0.318929
vn -0.890639 0.324109 0.318929
vn -0.226945 0.253409 0.940362
vn -0.226945 0.253409 0.940362
vn -0.226945 0.253409 0.940362
vn -0.226945 0.253409 0.940362
vn 0.687568 0.013956 0.725986
vn 0.687568 0.013956 0.725986
vn 0.687568 0.013956 0.725986
vn 0.687568 0.013956 0.725986
vn 0.941937 -0.199355 -0.270207
vn 0.941937 -0.199355 -0.270207
vn 0.941937 -0.199355 -0.270207
vn 0.941937 -0.199355 -0.270207
vn -0.184713 -0.882503 -0.432515
vn 0.544714 -0.796502 -0.262435
vn 0.071798 -0.996199 -0.049314
vn -0.656277 -0.737489 -0.159409
vn -0.184713 -0.882503 -0.432515
vn 0.071798 -0.996199 -0.049314
vn -0.489220 -0.857203 0.160831
vn -0.656277 -0.737489 -0.159409
vn 0.071798 -0.996199 -0.049314
vn 0.371119 -0.854958 0.362378
vn -0.489220 -0.857203 0.160831
vn 0.071798 -0.996199 -0.049314
vn 0.655154 -0.754409 0.040499
vn 0.371119 -0.854958 0.362378
vn 0.071798 -0.996199 -0.049314
vn 0.544714 -0.796502 -0.262435
vn 0.655154 -0.754409 0.040499
vn 0.071798 -0.996199 -0.049314
vn 0.382677 0.000000 -0.923882
vn 0.382677 0.000000 -0.923882
vn 0.382677 0.000000 -0.923882
vn 0.382677 0.000000 -0.923882
vn -0.357311 -0.050170 -0.932637
vn -0.357311 -0.050170 -0.932637
vn -0.357311 -0.050170 -0.932637
vn -0.357311 -0.050170 -0.932637
vn -0.923882 0.000000 -0.382677
vn -0.923882 0.000000 -0.382677
vn -0.923882 0.000000 -0.382677
vn -0.923882 0.000000 -0.382677
vn -0.923877 0.000000 0.382690
vn -0.923877 0.000000 0.382690
vn -0.923877 0.000000 0.382690
vn -0.923877 0.000000 0.382690
vn -0.382690 0.000000 0.923877
vn -0.382690 0.000000 0.923877
vn -0.382690 0.000000 0.923877
vn -0.382690 0.000000 0.923877
vn 0.382677 0.000000 0.923882
vn 0.382677 0.000000 0.923882
vn 0.382677 0.000000 0.923882
vn 0.382677 0.000000 0.923882
vn 0.923877 0.000000 0.382690
vn 0.923877 0.000000 0.382690
vn 0.923877 0.000000 0.382690
vn 0.923877 0.000000 0.382690
vn 0.923882 0.000000 -0.382678
vn 0.923882 0.000000 -0.382678
vn 0.923882 0.000000 -0.382677
vn 0.923882 0.000000 -0.382677
vn 0.000000 -1.000000 0.000000
vn 0.000000 -1.000000 0.000000
vn 0.000000 -1.000000 0.000000
vn 0.000000 -1.000000 0.000000
vn 0.000000 -1.000000 0.000000
vn 0.000000 -1.000000 0.000000
vn 0.000000 -1.000000 0.000000
vn 0.000000 -1.000000 -0.000000
vn 0.000000 -1.000000 -0.000000
vn 0.000000 -1.000000 -0.000000
vn 0.000000 -1.000000 0.000000
vn 0.000000 -1.000000 0.000000
vn 0.000000 -1.000000 0.000000
vn 0.000000 -1.000000 0.000000
vn 0.000000 -1.000000 0.000000
vn 0.000000 -1.000000 0.000000
vn 0.000000 -1.000000 0.000000
vn 0.000000 -1.000000 0.000000
vn 0.000000 -1.000000 0.000000
vn 0.000000 -1.000000 0.000000
vn 0.000000 -1.000000 0.000000
vn 0.000000 -1.000000 0.000000
vn 0.000000 -1.000000 0.000000
vn 0.000000 -1.000000 0.000000
vn 0.000000 -1.000000 0.000000
vn 0.051969 0.994840 -0.087131
vn 0.051969 0.994840 -0.087131
vn 0.051969 0.994840 -0.087131
vn 0.018704 0.994956 -0.098553
vn 0.025615 0.995392 -0.092401
vn 0.031442 0.995694 -0.087206
vn -0.087194 0.995537 -0.036116
vn -0.087194 0.995537 -0.036116
vn -0.087194 0.995537 -0.036116
vn -0.087194 0.995536 0.036118
vn -0.087194 0.995536 0.036118
vn -0.087194 0.995536 0.036118
vn -0.016482 0.994159 0.106659
vn -0.016482 0.994159 0.106659
vn -0.016482 0.994159 0.106659
vn 0.030136 0.992887 0.115182
vn 0.030136 0.992887 0.115182
vn 0.030136 0.992887 0.115182
vn 0.087112 0.994632 0.055846
vn 0.087112 0.994632 0.055846
vn 0.087112 0.994632 0.055846
vn 0.087131 0.994840 -0.051969
vn 0.087131 0.994841 -0.051969
vn 0.087131 0.994841 -0.051969
vn -0.134432 0.990854 0.011699
vn -0.132935 0.991103 0.006629
vn -0.122128 0.992072 -0.029617
vn -0.885489 0.412635 -0.213641
vn -0.885489 0.412635 -0.213641
vn -0.885489 0.412635 -0.213641
vn -0.382662 0.000018 -0.923888
vn -0.382662 0.000018 -0.923888
vn -0.382662 0.000018 -0.923888
vn -0.382662 0.000018 -0.923888
vn -0.856510 0.490646 -0.160180
vn -0.856510 0.490646 -0.160180
vn -0.856510 0.490646 -0.160180
vn 0.574630 0.278315 -0.769637
vn 0.574630 0.278315 -0.769637
vn 0.574630 0.278315 -0.769637
vn 0.548224 0.209502 -0.809666
vn 0.548224 0.209502 -0.809666
vn 0.548224 0.209502 -0.809666
vn -0.110494 0.690305 0.715031
vn -0.110494 0.690305 0.715031
vn -0.110494 0.690305 0.715031
vn 0.196338 0.739216 0.644214
vn 0.196338 0.739216 0.644214
vn 0.196338 0.739215 0.644214
vn 0.196338 0.739216 0.644214
vn 0.628655 0.665109 0.403017
vn 0.628655 0.665109 0.403017
vn 0.628655 0.665109 0.403017
vn 0.651614 0.651420 -0.388654
vn 0.651614 0.651420 -0.388654
vn 0.651614 0.651420 -0.388654
vn 0.388654 0.651420 -0.651613
vn 0.388654 0.651420 -0.651613
vn 0.388654 0.651420 -0.651613
vn 0.555771 -0.116601 0.823118
vn 0.555771 -0.116601 0.823118
vn 0.555771 -0.116601 0.823118
vn 0.555771 -0.116601 0.823118
vn 0.996754 0.029030 -0.075096
vn 0.996754 0.029030 -0.075096
vn 0.996754 0.029030 -0.075096
vn 0.996754 0.029030 -0.075096
vn 0.401112 0.204204 -0.892978
vn 0.401112 0.204204 -0.892978
vn 0.401112 0.204204 -0.892978
vn 0.401112 0.204204 -0.892978
vn -0.456170 0.242620 -0.856180
vn -0.456170 0.242620 -0.856180
vn -0.456170 0.242619 -0.856180
vn -0.456170 0.242619 -0.856180
vn -0.988001 0.076392 0.134236
vn -0.988001 0.076392 0.134236
vn -0.988001 0.076392 0.134236
vn -0.988001 0.076392 0.134236
vn -0.435943 -0.094396 0.895010
vn -0.435943 -0.094396 0.895010
vn -0.435943 -0.094396 0.895010
vn -0.435943 -0.094396 0.895010
vn 0.494948 -0.868277 0.033491
vn 0.032859 -0.883825 0.466663
vn -0.079902 -0.988758 -0.126383
vn 0.536666 -0.761935 -0.362552
vn 0.494948 -0.868277 0.033491
vn -0.079902 -0.988758 -0.126383
vn -0.195501 -0.871924 -0.448919
vn 0.536666 -0.761935 -0.362552
vn -0.079902 -0.988758 -0.126383
vn -0.644603 -0.697062 -0.313993
vn -0.195501 -0.871924 -0.448919
vn -0.079902 -0.988758 -0.126383
vn -0.546898 -0.837000 -0.018281
vn -0.644603 -0.697062 -0.313993
vn -0.079902 -0.988758 -0.126383
vn 0.032859 -0.883825 0.466663
vn -0.546898 -0.837000 -0.018281
vn -0.079902 -0.988758 -0.126383
vn -0.971229 -0.127979 0.200837
vn -0.971229 -0.127979 0.200837
vn -0.971229 -0.127979 0.200837
vn -0.971229 -0.127979 0.200837
vn -0.357828 -0.009511 0.933739
vn -0.357828 -0.009511 0.933739
vn -0.357828 -0.009511 0.933739
vn -0.357828 -0.009511 0.933739
vn 0.661009 0.169441 0.730997
vn 0.661009 0.169441 0.730997
vn 0.661009 0.169441 0.730997
vn 0.661009 0.169441 0.730997
vn 0.953268 0.225753 -0.200787
vn 0.953268 0.225753 -0.200787
vn 0.953268 0.225753 -0.200787
vn 0.953268 0.225753 -0.200787
vn 0.327229 0.133870 -0.935414
vn 0.327229 0.133870 -0.935414
vn 0.327229 0.133870 -0.935414
vn 0.327229 0.133870 -0.935414
vn -0.733985 -0.057470 -0.676730
vn -0.733985 -0.057470 -0.676730
vn -0.733985 -0.057470 -0.676730
vn -0.733985 -0.057470 -0.676730
vn -0.144198 -0.846753 0.512071
vn -0.378096 -0.868460 -0.320658
vn 0.105707 -0.994220 -0.018757
vn 0.144149 -0.700610 0.698833
vn -0.144198 -0.846753 0.512071
vn 0.105707 -0.994220 -0.018757
vn 0.412023 -0.879779 0.237118
vn 0.144149 -0.700610 0.698833
vn 0.105707 -0.994220 -0.018757
vn 0.360088 -0.729977 -0.580922
vn 0.412023 -0.879779 0.237118
vn 0.105707 -0.994220 -0.018757
vn 0.029876 -0.761213 -0.647813
vn 0.360088 -0.729977 -0.580922
vn 0.105707 -0.994220 -0.018757
vn -0.378096 -0.868460 -0.320658
vn 0.029876 -0.761213 -0.647813
vn 0.105707 -0.994220 -0.018757
vn 0.018704 0.994956 -0.098553
vn -0.054424 0.985116 -0.163049
vn 0.025615 0.995392 -0.092401
vn -0.122128 0.992072 -0.029617
vn -0.132935 0.991103 0.006629
vn -0.074951 0.980627 -0.180977
s off
f 1/7/1 2/8/2 8/15/3 7/14/4
f 2/8/5 3/9/6 9/16/7 8/15/8
f 3/9/9 4/10/10 10/17/11 9/16/12
f 4/10/13 5/11/14 11/18/15 10/17/16
f 5/11/17 6/12/18 12/19/19 11/18/20
f 6/12/21 1/13/22 7/20/23 12/19/24
f 2/1/25 1/2/26 13/3/27
f 3/4/28 2/1/29 13/3/30
f 4/5/31 3/4/32 13/3/33
f 5/6/34 4/5/35 13/3/36
f 6/21/37 5/6/38 13/3/39
f 1/2/40 6/21/41 13/3/42
f 14/22/43 15/23/44 23/24/45 22/25/46
f 15/23/47 35/26/48 33/27/49 23/24/50
f 16/28/51 17/29/52 25/30/53 24/31/54
f 17/29/55 18/32/56 26/33/57 25/30/58
f 18/32/59 19/34/60 27/35/61 26/33/62
f 19/34/63 20/36/64 28/37/65 27/35/66
f 20/36/67 21/38/68 29/39/69 28/37/70
f 21/38/71 14/40/72 22/41/73 29/39/74
f 15/42/75 14/43/76 30/44/77
f 16/45/78 35/46/79 15/42/80 30/44/81
f 17/47/82 16/45/83 30/44/84
f 18/48/85 17/47/86 30/44/87
f 19/49/88 18/48/89 30/44/90
f 20/50/91 19/49/92 30/44/93
f 21/51/94 20/50/95 30/44/96
f 14/43/97 21/51/98 30/44/99
f 39/52/100 23/53/101 31/54/102
f 23/53/103 34/56/104 31/54/105
f 24/57/106 25/58/107 31/54/108
f 25/58/109 26/59/110 31/54/111
f 26/59/112 37/60/113 31/54/114
f 37/60/115 38/61/116 31/54/117
f 38/61/118 29/62/119 31/54/120
f 29/62/121 39/52/122 31/54/123
f 31/54/124 34/56/125 24/57/126
f 34/56/127 33/55/128 36/64/129
f 32/65/130 35/26/131 16/28/132 24/31/133
f 33/27/134 35/26/135 36/66/136
f 36/66/137 35/26/138 32/65/139
f 34/56/140 36/64/141 32/63/142
f 26/59/143 27/67/144 37/60/145
f 27/67/146 28/68/147 38/61/148 37/60/149
f 28/68/150 29/62/151 38/61/152
f 29/62/153 22/69/154 39/52/155
f 22/69/156 23/53/157 39/52/158
f 40/70/159 41/71/160 47/72/161 46/73/162
f 41/71/163 42/74/164 48/75/165 47/72/166
f 42/74/167 43/76/168 49/77/169 48/75/170
f 43/76/171 44/78/172 50/79/173 49/77/174
f 44/78/175 45/80/176 51/81/177 50/79/178
f 45/80/179 40/82/180 46/83/181 51/81/182
f 41/84/183 40/85/184 52/86/185
f 42/87/186 41/84/187 52/86/188
f 43/88/189 42/87/190 52/86/191
f 44/89/192 43/88/193 52/86/194
f 45/90/195 44/89/196 52/86/197
f 40/85/198 45/90/199 52/86/200
f 53/91/201 54/92/202 60/93/203 59/94/204
f 54/92/205 55/95/206 61/96/207 60/93/208
f 55/95/209 56/97/210 62/98/211 61/96/212
f 56/97/213 57/99/214 63/100/215 62/98/216
f 57/99/217 58/101/218 64/102/219 63/100/220
f 58/101/221 53/103/222 59/104/223 64/102/224
f 54/105/225 53/106/226 65/107/227
f 55/108/228 54/105/229 65/107/230
f 56/109/231 55/108/232 65/107/233
f 57/110/234 56/109/235 65/107/236
f 58/111/237 57/110/238 65/107/239
f 53/106/240 58/111/241 65/107/242
f 23/53/243 33/55/244 34/56/245
f 24/57/246 34/56/247 32/63/248
