# This file uses centimeters as units for non-parametric coordinates.

v 0.099354 -0.927421 -0.172094
v -0.099365 -1.000000 -0.172094
v -0.198727 -0.927421 0.000000
v -0.099365 -0.927421 0.172096
v 0.099350 -1.000000 0.172096
v 0.198711 -1.000000 0.000000
v 0.099354 1.000000 -0.172094
v -0.099365 0.875263 -0.172094
v -0.198727 1.000000 0.000000
v -0.099365 0.875263 0.172096
v 0.099350 1.000000 0.172096
v 0.198711 0.875263 0.000000
v -0.000008 -1.083137 0.000000
v -0.000008 1.289190 0.000000
vt 0.004662 0.332410
vt 0.004662 0.332410
vt 0.004662 0.332410
vt 0.004662 0.332410
vt 0.004662 0.332410
vt 0.004662 0.332410
vt 0.004660 0.274694
vt 0.004660 0.274694
vt 0.004660 0.274694
vt 0.004660 0.274694
vt 0.004660 0.274694
vt 0.004660 0.274694
vt 0.004660 0.274694
vt 0.004660 0.274694
vt 0.004660 0.274694
vt 0.004660 0.274694
vt 0.004660 0.274694
vt 0.004660 0.274694
vt 0.004660 0.274694
vt 0.004660 0.274694
vt 0.006241 0.328456
vt 0.006241 0.328456
vt 0.006241 0.328456
vt 0.006241 0.328456
vt 0.006241 0.328456
vt 0.006241 0.328456
vt 0.004662 0.332410
vt 0.006241 0.328456
vn 0.000000 0.000000 -1.000000
vn 0.000000 0.000000 -1.000000
vn 0.000000 0.000000 -1.000000
vn 0.000000 0.000000 -1.000000
vn -0.866019 0.000000 -0.500010
vn -0.866019 0.000000 -0.500010
vn -0.866019 0.000000 -0.500010
vn -0.866019 0.000000 -0.500010
vn -0.866022 0.000000 0.500006
vn -0.866022 0.000000 0.500006
vn -0.866022 0.000000 0.500006
vn -0.866022 0.000000 0.500006
vn 0.000000 0.000000 1.000000
vn 0.000000 0.000000 1.000000
vn 0.000000 0.000000 1.000000
vn 0.000000 0.000000 1.000000
vn 0.866022 0.000000 0.500006
vn 0.866022 0.000000 0.500006
vn 0.866022 0.000000 0.500006
vn 0.866022 0.000000 0.500006
vn 0.866028 0.000000 -0.499996
vn 0.866028 0.000000 -0.499996
vn 0.866028 0.000000 -0.499996
vn 0.866028 0.000000 -0.499996
vn 0.287402 -0.786896 -0.546072
vn 0.287402 -0.786896 -0.546072
vn 0.287402 -0.786896 -0.546072
vn -0.616612 -0.786897 -0.024144
vn -0.616612 -0.786897 -0.024144
vn -0.616612 -0.786897 -0.024144
vn -0.581049 -0.741512 0.335474
vn -0.581049 -0.741512 0.335474
vn -0.581049 -0.741512 0.335474
vn -0.287408 -0.786896 0.546069
vn -0.287408 -0.786896 0.546069
vn -0.287408 -0.786896 0.546069
vn 0.376711 -0.900436 0.217497
vn 0.376711 -0.900436 0.217497
vn 0.376711 -0.900436 0.217497
vn 0.329210 -0.786897 -0.521933
vn 0.329210 -0.786897 -0.521933
vn 0.329210 -0.786897 -0.521933
vn -0.266035 0.423822 -0.865795
vn -0.266035 0.423822 -0.865795
vn -0.266035 0.423822 -0.865795
vn -0.616775 0.423822 -0.663298
vn -0.616775 0.423822 -0.663298
vn -0.616775 0.423822 -0.663298
vn -0.616778 0.423824 0.663294
vn -0.616778 0.423824 0.663294
vn -0.616778 0.423824 0.663294
vn -0.266042 0.423826 0.865791
vn -0.266042 0.423826 0.865791
vn -0.266042 0.423826 0.865791
vn 0.882815 0.423824 0.202510
vn 0.882815 0.423824 0.202510
vn 0.882815 0.423824 0.202510
vn 0.882818 0.423826 -0.202493
vn 0.882818 0.423826 -0.202493
vn 0.882818 0.423826 -0.202493
s off
f 1/7/1 2/8/2 8/15/3 7/14/4
f 2/8/5 3/9/6 9/16/7 8/15/8
f 3/9/9 4/10/10 10/17/11 9/16/12
f 4/10/13 5/11/14 11/18/15 10/17/16
f 5/11/17 6/12/18 12/19/19 11/18/20
f 6/12/21 1/13/22 7/20/23 12/19/24
f 2/1/25 1/2/26 13/3/27
f 3/4/28 2/1/29 13/3/30
f 4/5/31 3/4/32 13/3/33
f 5/6/34 4/5/35 13/3/36
f 6/27/37 5/6/38 13/3/39
f 1/2/40 6/27/41 13/3/42
f 7/21/43 8/22/44 14/23/45
f 8/22/46 9/24/47 14/23/48
f 9/24/49 10/25/50 14/23/51
f 10/25/52 11/26/53 14/23/54
f 11/26/55 12/28/56 14/23/57
f 12/28/58 7/21/59 14/23/60
