# This file uses centimeters as units for non-parametric coordinates.

v 0.039238 0.019849 0.168224
v -0.011757 0.714827 0.151695
v 0.042210 0.543217 0.163651
v -0.043655 0.759908 0.119869
v 0.039303 -0.915119 0.166828
v -0.090298 0.683911 0.127186
v 0.012848 0.987840 0.014553
v 0.079227 0.667627 0.107868
v -0.109768 -0.937640 0.117687
v -0.157143 -0.128589 0.105457
v 0.046726 0.884355 0.068699
v -0.159691 -0.878589 0.101639
v -0.159634 0.543286 0.101646
v 0.159840 0.090161 0.000011
v 0.111156 -0.974325 0.062077
v -0.014179 0.960023 -0.006416
v 0.044788 0.977353 -0.014519
v 0.144829 0.363599 0.022888
v 0.089764 -0.986969 0.038586
v 0.047894 0.952778 -0.044067
v 0.110355 0.629068 -0.068645
v 0.063713 -0.972030 -0.128704
v -0.157536 0.667538 0.024609
v 0.079113 0.870994 -0.037666
v -0.047775 0.922256 -0.027264
v -0.121189 -0.987840 -0.007912
v -0.157146 0.090161 0.105453
v -0.156780 -0.967412 -0.032932
v -0.159836 -0.573901 -0.094177
v -0.157036 0.464467 -0.101318
v 0.037487 0.574536 -0.168213
v -0.152199 -0.933109 -0.106445
v -0.152241 -0.417651 -0.106525
v -0.057255 0.707349 -0.137428
v -0.031101 0.895939 -0.075153
v 0.037537 -0.402026 -0.168228
v -0.152279 -0.737964 -0.106503
vt 0.005451 0.350594
vt 0.005451 0.350594
vt 0.005451 0.350594
vt 0.004660 0.282600
vt 0.004660 0.282600
vt 0.004660 0.282600
vt 0.005451 0.350594
vt 0.005451 0.350594
vt 0.005451 0.350594
vt 0.005451 0.350594
vt 0.005451 0.350594
vt 0.005451 0.350594
vt 0.005451 0.350594
vt 0.005451 0.350594
vt 0.005451 0.350594
vt 0.004660 0.282600
vt 0.005451 0.350594
vt 0.005451 0.350594
vt 0.005451 0.350594
vt 0.004660 0.282600
vt 0.004660 0.282600
vt 0.004660 0.282600
vt 0.004660 0.282600
vt 0.004660 0.282600
vt 0.005451 0.350594
vt 0.005451 0.350594
vt 0.005451 0.350594
vt 0.005451 0.350594
vt 0.005451 0.350594
vt 0.005451 0.350594
vt 0.004660 0.282600
vt 0.005451 0.350594
vt 0.005451 0.350594
vt 0.005451 0.350594
vt 0.004660 0.282600
vt 0.005451 0.350594
vt 0.005451 0.350594
vt 0.005451 0.350594
vt 0.004660 0.282600
vt 0.005451 0.350594
vt 0.005451 0.350594
vt 0.005451 0.350594
vt 0.005451 0.350594
vt 0.005451 0.350594
vt 0.005451 0.350594
vt 0.004660 0.282600
vt 0.005451 0.350594
vt 0.005451 0.350594
vt 0.005451 0.350594
vt 0.005451 0.350594
vt 0.005451 0.350594
vt 0.005451 0.350594
vt 0.005451 0.350594
vt 0.005451 0.350594
vt 0.005451 0.350594
vt 0.004660 0.282600
vt 0.005451 0.350594
vt 0.005451 0.350594
vt 0.005451 0.350594
vt 0.005451 0.350594
vt 0.005451 0.350594
vt 0.005451 0.350594
vt 0.004660 0.282600
vt 0.005451 0.350594
vt 0.005451 0.350594
vt 0.005451 0.350594
vt 0.005451 0.350594
vt 0.005451 0.350594
vt 0.005451 0.350594
vt 0.004660 0.282600
vt 0.005451 0.350594
vt 0.005451 0.350594
vt 0.005451 0.350594
vt 0.004660 0.282600
vt 0.005451 0.350594
vt 0.005451 0.350594
vt 0.005451 0.350594
vt 0.005451 0.350594
vt 0.005451 0.350594
vt 0.005451 0.350594
vt 0.004660 0.282600
vt 0.004660 0.282600
vt 0.004660 0.282600
vt 0.005451 0.350594
vt 0.005451 0.350594
vt 0.005451 0.350594
vt 0.005451 0.350594
vt 0.005451 0.350594
vt 0.005451 0.350594
vt 0.005451 0.350594
vt 0.005451 0.350594
vt 0.005451 0.350594
vt 0.005451 0.350594
vt 0.005451 0.350594
vt 0.005451 0.350594
vt 0.005451 0.350594
vt 0.005451 0.350594
vt 0.005451 0.350594
vt 0.005451 0.350594
vt 0.005451 0.350594
vt 0.005451 0.350594
vt 0.005451 0.350594
vt 0.005451 0.350594
vt 0.005451 0.350594
vt 0.005451 0.350594
vt 0.005451 0.350594
vt 0.005451 0.350594
vt 0.004660 0.282600
vt 0.004660 0.282600
vt 0.004660 0.282600
vt 0.005451 0.350594
vt 0.005451 0.350594
vt 0.005451 0.350594
vt 0.005451 0.350594
vt 0.005451 0.350594
vt 0.005451 0.350594
vt 0.005451 0.350594
vt 0.005451 0.350594
vt 0.005451 0.350594
vt 0.005451 0.350594
vt 0.005451 0.350594
vt 0.005451 0.350594
vt 0.005451 0.350594
vt 0.005451 0.350594
vt 0.005451 0.350594
vt 0.005451 0.350594
vt 0.005451 0.350594
vt 0.005451 0.350594
vt 0.005451 0.350594
vt 0.005451 0.350594
vt 0.005451 0.350594
vt 0.005451 0.350594
vt 0.005451 0.350594
vt 0.005451 0.350594
vt 0.005451 0.350594
vn 0.513392 0.219247 0.829674
vn 0.513392 0.219247 0.829674
vn 0.513392 0.219247 0.829674
vn -0.301179 0.010043 0.953515
vn -0.301178 0.010043 0.953515
vn -0.301178 0.010043 0.953515
vn -0.783809 0.409866 0.466534
vn -0.783809 0.409866 0.466534
vn -0.783809 0.409866 0.466534
vn -0.095119 0.436875 0.894479
vn -0.095119 0.436875 0.894479
vn -0.095119 0.436875 0.894479
vn -0.176525 0.481254 0.858623
vn -0.176525 0.481254 0.858623
vn -0.176525 0.481254 0.858623
vn -0.253955 -0.012486 0.967135
vn -0.253955 -0.012486 0.967135
vn -0.253955 -0.012486 0.967135
vn -0.396121 0.325764 0.858467
vn -0.396121 0.325764 0.858467
vn -0.396121 0.325764 0.858467
vn -0.297366 -0.001466 0.954762
vn -0.297366 -0.001466 0.954763
vn -0.297366 -0.001466 0.954763
vn -0.304454 0.000011 0.952527
vn -0.304454 0.000011 0.952527
vn -0.304454 0.000011 0.952527
vn 0.824433 -0.000788 0.565959
vn 0.824433 -0.000788 0.565959
vn 0.824433 -0.000788 0.565959
vn 0.808399 0.000554 0.588635
vn 0.808399 0.000554 0.588635
vn 0.808399 0.000554 0.588635
vn -0.026081 -0.876449 0.480787
vn -0.026081 -0.876449 0.480787
vn -0.026081 -0.876449 0.480787
vn -0.667034 0.465396 0.581784
vn -0.667034 0.465396 0.581784
vn -0.667034 0.465396 0.581784
vn -0.311554 -0.001441 0.950227
vn -0.311554 -0.001441 0.950227
vn -0.311554 -0.001441 0.950227
vn -0.312277 -0.005829 0.949973
vn -0.312277 -0.005829 0.949973
vn -0.312277 -0.005829 0.949973
vn 0.817128 0.015244 0.576255
vn 0.817128 0.015244 0.576255
vn 0.817128 0.015244 0.576255
vn -0.784441 0.431713 0.445281
vn -0.784441 0.431713 0.445282
vn -0.784441 0.431713 0.445281
vn -0.356142 0.005896 0.934413
vn -0.356142 0.005896 0.934413
vn -0.356142 0.005896 0.934413
vn -0.301818 -0.003828 0.953358
vn -0.301818 -0.003828 0.953358
vn -0.301818 -0.003828 0.953358
vn 0.515612 0.226660 0.826299
vn 0.515612 0.226659 0.826299
vn 0.515612 0.226660 0.826299
vn -0.816170 0.314369 0.484809
vn -0.816170 0.314369 0.484809
vn -0.816170 0.314369 0.484809
vn -0.999928 -0.005578 -0.010632
vn -0.999928 -0.005578 -0.010632
vn -0.999928 -0.005578 -0.010632
vn -0.014751 -0.874774 0.484307
vn -0.014751 -0.874774 0.484307
vn -0.014751 -0.874774 0.484307
vn 0.945675 0.189553 0.264135
vn 0.945675 0.189553 0.264135
vn 0.945675 0.189553 0.264135
vn -0.760755 -0.549126 0.345995
vn -0.760755 -0.549126 0.345995
vn -0.760755 -0.549126 0.345995
vn -0.999977 0.003367 0.005979
vn -0.999976 0.003367 0.005979
vn -0.999976 0.003367 0.005979
vn 0.665703 0.505259 0.549139
vn 0.665703 0.505259 0.549139
vn 0.665703 0.505259 0.549139
vn -0.772458 0.428342 0.468863
vn -0.772458 0.428342 0.468863
vn -0.772458 0.428342 0.468863
vn -0.999837 -0.010093 -0.014964
vn -0.999837 -0.010093 -0.014964
vn -0.999837 -0.010093 -0.014964
vn -0.079105 -0.923168 0.376170
vn -0.079105 -0.923168 0.376170
vn -0.079105 -0.923168 0.376170
vn -0.846781 0.271762 -0.457284
vn -0.846781 0.271762 -0.457284
vn -0.846781 0.271762 -0.457284
vn 0.813489 -0.003998 0.581567
vn 0.813489 -0.003998 0.581567
vn 0.813489 -0.003998 0.581567
vn 0.813349 -0.003278 0.581767
vn 0.813349 -0.003278 0.581767
vn 0.813349 -0.003278 0.581767
vn -0.635236 -0.695518 0.335753
vn -0.635235 -0.695519 0.335753
vn -0.635236 -0.695518 0.335753
vn 0.968623 -0.058384 -0.241580
vn 0.968623 -0.058384 -0.241580
vn 0.968623 -0.058384 -0.241580
vn 0.922998 0.337932 -0.184055
vn 0.922998 0.337932 -0.184055
vn 0.922998 0.337932 -0.184055
vn 0.630393 -0.758344 -0.165890
vn 0.630393 -0.758344 -0.165890
vn 0.630393 -0.758344 -0.165890
vn 0.975725 0.173004 0.134276
vn 0.975725 0.173004 0.134276
vn 0.975725 0.173004 0.134276
vn 0.825682 -0.085068 -0.557685
vn 0.825682 -0.085068 -0.557685
vn 0.825682 -0.085068 -0.557685
vn 0.905675 0.084478 -0.415472
vn 0.905675 0.084478 -0.415472
vn 0.905675 0.084478 -0.415472
vn 0.813050 -0.003031 -0.582186
vn 0.813050 -0.003031 -0.582186
vn 0.813050 -0.003031 -0.582186
vn -0.300525 0.742901 -0.598150
vn -0.300525 0.742901 -0.598150
vn -0.300525 0.742901 -0.598150
vn -0.855970 0.265253 -0.443797
vn -0.855970 0.265253 -0.443797
vn -0.855970 0.265253 -0.443797
vn 0.982831 0.107742 0.149785
vn 0.982831 0.107742 0.149785
vn 0.982831 0.107742 0.149785
vn 0.024543 -0.995390 -0.092715
vn 0.024543 -0.995390 -0.092714
vn 0.024543 -0.995390 -0.092715
vn -0.999852 0.007212 -0.015598
vn -0.999852 0.007212 -0.015598
vn -0.999852 0.007212 -0.015598
vn -0.999909 -0.000017 0.013528
vn -0.999909 -0.000017 0.013528
vn -0.999909 -0.000017 0.013528
vn -0.297537 0.718420 -0.628764
vn -0.297537 0.718420 -0.628764
vn -0.297537 0.718420 -0.628764
vn -0.845612 0.279811 -0.454583
vn -0.845612 0.279811 -0.454583
vn -0.845612 0.279811 -0.454583
vn -0.207669 -0.881421 -0.424229
vn -0.207669 -0.881421 -0.424229
vn -0.207669 -0.881421 -0.424229
vn -0.999933 -0.005375 -0.010265
vn -0.999933 -0.005375 -0.010265
vn -0.999933 -0.005375 -0.010265
vn -0.992426 0.039035 -0.116479
vn -0.992426 0.039035 -0.116479
vn -0.992426 0.039035 -0.116479
vn -0.985966 -0.033122 -0.163626
vn -0.985966 -0.033122 -0.163626
vn -0.985966 -0.033122 -0.163626
vn -0.998051 -0.000428 -0.062400
vn -0.998051 -0.000428 -0.062400
vn -0.998051 -0.000428 -0.062400
vn -0.852137 0.000064 -0.523318
vn -0.852137 0.000064 -0.523318
vn -0.852137 0.000064 -0.523318
vn -0.320563 -0.009126 -0.947183
vn -0.320563 -0.009126 -0.947183
vn -0.320563 -0.009126 -0.947183
vn -0.309197 -0.000031 -0.950998
vn -0.309198 -0.000031 -0.950998
vn -0.309198 -0.000031 -0.950998
vn -0.202849 -0.881730 -0.425917
vn -0.202849 -0.881730 -0.425917
vn -0.202849 -0.881730 -0.425917
vn -0.453848 0.704742 -0.545308
vn -0.453848 0.704742 -0.545308
vn -0.453848 0.704742 -0.545308
vn -0.309490 0.003931 -0.950895
vn -0.309490 0.003931 -0.950895
vn -0.309490 0.003931 -0.950895
vn -0.286960 0.734883 -0.614492
vn -0.286960 0.734883 -0.614492
vn -0.286960 0.734883 -0.614492
vn 0.163386 0.288843 -0.943332
vn 0.163386 0.288843 -0.943332
vn 0.163386 0.288843 -0.943332
vn 0.689181 0.208776 -0.693860
vn 0.689181 0.208776 -0.693860
vn 0.689181 0.208776 -0.693860
vn 0.744861 0.178515 -0.642896
vn 0.744861 0.178515 -0.642896
vn 0.744861 0.178515 -0.642896
vn -0.308598 -0.000406 -0.951193
vn -0.308598 -0.000406 -0.951193
vn -0.308598 -0.000406 -0.951193
vn 0.122858 0.306434 -0.943930
vn 0.122858 0.306434 -0.943930
vn 0.122858 0.306434 -0.943930
vn 0.808788 0.000050 -0.588101
vn 0.808788 0.000050 -0.588101
vn 0.808788 0.000050 -0.588101
vn -0.325198 -0.000002 -0.945646
vn -0.325198 -0.000002 -0.945646
vn -0.325198 -0.000002 -0.945646
vn -0.115455 -0.073987 -0.990553
vn -0.115455 -0.073987 -0.990553
vn -0.115455 -0.073987 -0.990553
vn 0.935291 0.246604 0.253807
vn 0.935291 0.246604 0.253807
vn 0.935291 0.246604 0.253807
s off
f 8/1/1 2/2/2 3/3/3
f 1/4/4 3/5/5 27/6/6
f 7/7/7 16/8/8 4/9/9
f 11/10/10 7/11/11 4/12/12
f 2/13/13 11/14/14 4/15/15
f 3/5/16 2/16/17 27/6/18
f 2/17/19 4/18/20 6/19/21
f 27/6/22 2/16/23 6/20/24
f 1/4/25 27/6/26 10/21/27
f 15/22/28 1/4/29 5/23/30
f 3/5/31 1/4/32 18/24/33
f 5/25/34 9/26/35 19/27/36
f 4/28/37 16/29/38 6/30/39
f 1/4/40 12/31/41 5/23/42
f 5/32/43 12/33/44 9/34/45
f 3/5/46 18/24/47 8/35/48
f 16/36/49 23/37/50 6/38/51
f 6/20/52 13/39/53 27/6/54
f 10/21/55 12/31/56 1/4/57
f 2/40/58 8/41/59 11/42/60
f 6/43/61 23/44/62 13/45/63
f 27/6/64 13/39/65 30/46/66
f 5/47/67 19/48/68 15/49/69
f 8/50/70 24/51/71 11/52/72
f 12/53/73 28/54/74 9/55/75
f 12/31/76 10/21/77 29/56/78
f 7/57/79 11/58/80 17/59/81
f 16/60/82 25/61/83 23/62/84
f 29/56/85 28/63/86 12/31/87
f 26/64/88 19/65/89 9/66/90
f 23/67/91 25/68/92 34/69/93
f 18/24/94 1/4/95 14/70/96
f 1/4/97 15/22/98 14/70/99
f 28/71/100 26/72/101 9/73/102
f 22/74/103 14/70/104 15/22/105
f 20/75/106 17/76/107 24/77/108
f 22/78/109 15/79/110 19/80/111
f 21/81/112 8/35/113 18/24/114
f 31/82/115 21/81/116 18/24/117
f 14/70/118 31/82/119 18/24/120
f 22/74/121 36/83/122 14/70/123
f 17/84/124 16/85/125 7/86/126
f 25/87/127 35/88/128 34/89/129
f 24/90/130 8/91/131 21/92/132
f 22/93/133 19/94/134 26/95/135
f 23/96/136 30/97/137 13/98/138
f 10/21/139 27/6/140 29/56/141
f 16/99/142 17/100/143 20/101/144
f 34/102/145 30/103/146 23/104/147
f 28/105/148 32/106/149 26/107/150
f 27/6/151 30/46/152 33/108/153
f 27/6/154 33/108/155 29/56/156
f 29/56/157 37/109/158 28/63/159
f 28/63/160 37/109/161 32/110/162
f 29/56/163 33/108/164 37/109/165
f 30/111/166 34/112/167 31/113/168
f 33/108/169 36/83/170 37/109/171
f 32/114/172 22/115/173 26/116/174
f 16/117/175 35/118/176 25/119/177
f 30/46/178 36/83/179 33/108/180
f 20/120/181 35/121/182 16/122/183
f 34/123/184 35/124/185 20/125/186
f 20/126/187 24/127/188 31/128/189
f 31/129/190 24/130/191 21/131/192
f 37/109/193 36/83/194 32/110/195
f 34/132/196 20/133/197 31/134/198
f 36/83/199 31/82/200 14/70/201
f 36/83/202 30/46/203 31/82/204
f 36/83/205 22/74/206 32/110/207
f 24/77/208 17/76/209 11/135/210
