# This file uses centimeters as units for non-parametric coordinates.

v -0.005662 0.299151 0.003754
v -0.007970 0.348634 0.007969
v 0.007972 0.348634 -0.000004
v -0.007970 0.348634 -0.007973
v -0.005662 0.299151 -0.003963
v 0.002055 0.299151 -0.000107
v 0.030145 0.118220 -0.052208
v -0.030141 0.142534 -0.052208
v -0.060281 0.118220 -0.000004
v -0.030141 0.142534 0.052200
v 0.030145 0.118220 0.052200
v 0.060283 0.142534 -0.000004
v 0.030145 0.339005 -0.052208
v -0.030141 0.339005 -0.052208
v -0.060281 0.339005 -0.000004
v -0.030141 0.312559 0.052200
v 0.030145 0.312559 0.052200
v 0.060283 0.312559 -0.000004
v -0.000001 0.310595 -0.000004
v 0.064326 0.054839 -0.111416
v -0.064322 0.054839 -0.111416
v -0.000001 0.000000 -0.000004
v -0.128650 0.054839 -0.000004
v -0.064322 0.054839 0.111416
v 0.064326 0.054839 0.111416
v 0.128654 0.054839 -0.000004
v -0.096482 0.054839 -0.028980
vt 0.109221 0.010735
vt 0.109221 0.010735
vt 0.109221 0.010735
vt 0.109221 0.010735
vt 0.109221 0.010735
vt 0.109221 0.010735
vt 0.109221 0.010735
vt 0.109221 0.010735
vt 0.109221 0.010735
vt 0.040996 0.108546
vt 0.040996 0.113488
vt 0.040996 0.153428
vt 0.040996 0.153428
vt 0.040605 0.108546
vt 0.040605 0.153428
vt 0.040214 0.113488
vt 0.040214 0.148052
vt 0.040214 0.108546
vt 0.040214 0.148052
vt 0.040605 0.113488
vt 0.040605 0.148052
vt 0.041439 0.095661
vt 0.041439 0.095661
vt 0.040605 0.084513
vt 0.040605 0.095661
vt 0.040822 0.095661
vt 0.039771 0.095661
vt 0.039771 0.095661
vt 0.040605 0.095661
vt 0.040605 0.147653
vn 0.446646 -0.055252 0.893003
vn 0.446646 -0.055252 0.893003
vn 0.446646 -0.055252 0.893003
vn 0.446646 -0.055252 0.893003
vn 0.000000 1.000000 0.000000
vn 0.000000 1.000000 0.000000
vn 0.000000 1.000000 0.000000
vn 0.446504 -0.051541 -0.893296
vn 0.446504 -0.051541 -0.893296
vn 0.446504 -0.051541 -0.893296
vn 0.446504 -0.051541 -0.893296
vn -0.998914 -0.046590 0.000000
vn -0.998914 -0.046590 0.000000
vn -0.998914 -0.046590 0.000000
vn -0.998914 -0.046590 0.000000
vn 0.000000 0.000000 -1.000000
vn 0.000000 0.000000 -1.000000
vn 0.000000 0.000000 -1.000000
vn 0.000000 0.000000 -1.000000
vn -0.866026 0.000000 -0.499998
vn -0.866027 0.000000 -0.499998
vn -0.866026 0.000000 -0.499998
vn -0.866026 0.000000 -0.499998
vn -0.866026 0.000000 0.499998
vn -0.866027 0.000000 0.499998
vn -0.866027 0.000000 0.499998
vn -0.866026 0.000000 0.499998
vn 0.000000 0.000000 1.000000
vn 0.000000 0.000000 1.000000
vn 0.000000 0.000000 1.000000
vn 0.000000 0.000000 1.000000
vn 0.866040 0.000000 0.499975
vn 0.866040 0.000000 0.499974
vn 0.866040 0.000000 0.499974
vn 0.866040 0.000000 0.499974
vn 0.866040 0.000000 -0.499974
vn 0.866040 0.000000 -0.499974
vn 0.866040 0.000000 -0.499974
vn 0.866040 0.000000 -0.499974
vn 0.000000 -0.897204 -0.441616
vn 0.000000 -0.897204 -0.441616
vn 0.000000 -0.897204 -0.441616
vn -0.359538 -0.843461 -0.399132
vn -0.359538 -0.843461 -0.399132
vn -0.359538 -0.843461 -0.399132
vn -0.382448 -0.897206 0.220803
vn -0.382448 -0.897206 0.220803
vn -0.382448 -0.897206 0.220803
vn 0.000000 -0.897216 0.441592
vn 0.000000 -0.897216 0.441592
vn 0.000000 -0.897216 0.441592
vn 0.382435 -0.897214 0.220795
vn 0.382435 -0.897214 0.220795
vn 0.382435 -0.897214 0.220795
vn 0.382433 -0.897211 -0.220810
vn 0.382433 -0.897211 -0.220810
vn 0.382433 -0.897211 -0.220810
vn 0.000000 0.878353 0.478013
vn 0.000000 0.878353 0.478013
vn 0.000000 0.878353 0.478013
vn 0.413973 0.878352 0.239007
vn 0.413973 0.878352 0.239007
vn 0.413973 0.878352 0.239007
vn 0.417052 0.884883 0.207483
vn 0.417052 0.884883 0.207483
vn 0.417052 0.884883 0.207483
vn 0.000000 0.999293 -0.037606
vn 0.000000 0.999293 -0.037606
vn 0.000000 0.999293 -0.037606
vn -0.032566 0.999293 -0.018800
vn -0.032566 0.999293 -0.018800
vn -0.032566 0.999293 -0.018800
vn -0.028837 0.884885 0.464916
vn -0.028837 0.884885 0.464916
vn -0.028837 0.884885 0.464916
vn 0.079139 0.614959 -0.784578
vn 0.079139 0.614959 -0.784578
vn 0.079139 0.614959 -0.784578
vn 0.079139 0.614959 -0.784578
vn -0.805841 0.554830 -0.206841
vn -0.805842 0.554830 -0.206841
vn -0.805841 0.554830 -0.206841
vn -0.719030 0.614967 0.323746
vn -0.719030 0.614967 0.323746
vn -0.719030 0.614967 0.323746
vn -0.719030 0.614967 0.323746
vn 0.079145 0.615007 0.784539
vn 0.079145 0.615007 0.784539
vn 0.079145 0.615007 0.784539
vn 0.079145 0.615007 0.784539
vn 0.639888 0.614977 0.460811
vn 0.639888 0.614977 0.460811
vn 0.639888 0.614977 0.460811
vn 0.639888 0.614977 0.460811
vn 0.639889 0.614962 -0.460831
vn 0.639889 0.614962 -0.460831
vn 0.639889 0.614962 -0.460830
vn 0.639889 0.614962 -0.460830
vn -0.795855 0.519825 -0.310479
vn -0.795855 0.519825 -0.310479
vn -0.795855 0.519825 -0.310479
vn -0.542651 0.585348 -0.602410
vn -0.542651 0.585348 -0.602410
vn -0.542651 0.585348 -0.602410
vn -0.446526 -0.877650 -0.174199
vn -0.446526 -0.877650 -0.174199
vn -0.446526 -0.877650 -0.174199
s off
f 1/1/1 6/2/2 3/3/3 2/4/4
f 2/4/5 3/3/6 4/5/7
f 4/5/8 3/3/9 6/6/10 5/7/11
f 5/8/12 1/1/13 2/4/14 4/9/15
f 7/10/16 8/11/17 14/12/18 13/13/19
f 8/11/20 9/14/21 15/15/22 14/12/23
f 9/14/24 10/16/25 16/17/26 15/15/27
f 10/16/28 11/18/29 17/19/30 16/17/31
f 11/18/32 12/20/33 18/21/34 17/19/35
f 12/20/36 7/10/37 13/13/38 18/21/39
f 21/22/40 20/23/41 22/24/42
f 23/25/43 27/26/44 22/24/45
f 24/27/46 23/25/47 22/24/48
f 25/28/49 24/27/50 22/24/51
f 26/29/52 25/28/53 22/24/54
f 20/23/55 26/29/56 22/24/57
f 13/13/58 14/12/59 19/30/60
f 14/12/61 15/15/62 19/30/63
f 15/15/64 16/17/65 19/30/66
f 16/17/67 17/19/68 19/30/69
f 17/19/70 18/21/71 19/30/72
f 18/21/73 13/13/74 19/30/75
f 8/11/76 7/10/77 20/23/78 21/22/79
f 9/14/80 8/11/81 27/26/82
f 10/16/83 9/14/84 23/25/85 24/27/86
f 11/18/87 10/16/88 24/27/89 25/28/90
f 12/20/91 11/18/92 25/28/93 26/29/94
f 7/10/95 12/20/96 26/29/97 20/23/98
f 27/26/99 8/11/100 21/22/101
f 9/14/102 27/26/103 23/25/104
f 22/24/105 27/26/106 21/22/107
