# This file uses centimeters as units for non-parametric coordinates.

v 0.081085 0.225191 -0.107845
v -0.051784 0.602913 0.104195
v 0.081822 0.616979 0.110918
v 0.076004 0.217913 0.077523
v -0.107088 1.037188 0.016361
v -0.044961 1.046952 -0.081559
v -0.055713 0.601487 -0.110918
v -0.121393 0.590087 -0.003810
v 0.118055 0.632581 0.044998
v 0.121393 0.236348 -0.068351
v 0.008378 1.399111 0.030914
v -0.044101 0.134484 0.068091
v -0.006644 0.000000 -0.013557
v 0.084285 0.152969 -0.026693
v 0.080529 0.618957 -0.108799
v -0.043270 0.092286 -0.105902
vt 0.052504 0.152127
vt 0.052504 0.152127
vt 0.052504 0.152127
vt 0.052504 0.152127
vt 0.052504 0.152127
vt 0.052504 0.152127
vt 0.052504 0.152127
vt 0.052504 0.152127
vt 0.052504 0.152127
vt 0.052504 0.152127
vt 0.052504 0.152127
vt 0.052504 0.152127
vt 0.052504 0.152127
vt 0.052504 0.152127
vt 0.052504 0.152127
vt 0.052504 0.152127
vt 0.052504 0.152127
vt 0.052504 0.152127
vt 0.052504 0.152127
vt 0.052504 0.152127
vt 0.052504 0.152127
vt 0.052504 0.152127
vn -0.845582 0.055403 -0.530964
vn -0.845582 0.055403 -0.530964
vn -0.845582 0.055403 -0.530964
vn 0.818285 -0.456402 0.349439
vn 0.818285 -0.456403 0.349439
vn 0.818284 -0.456402 0.349439
vn -0.024624 -0.077225 0.996710
vn -0.024624 -0.077225 0.996710
vn -0.024624 -0.077225 0.996710
vn -0.853784 0.050694 -0.518154
vn -0.853784 0.050694 -0.518154
vn -0.853784 0.050694 -0.518154
vn -0.013011 -0.002441 -0.999912
vn -0.013011 -0.002441 -0.999912
vn -0.013011 -0.002441 -0.999912
vn 0.007106 0.065590 -0.997821
vn 0.007106 0.065590 -0.997821
vn 0.007106 0.065590 -0.997821
vn 0.016757 -0.009438 -0.999815
vn 0.016757 -0.009438 -0.999815
vn 0.016757 -0.009438 -0.999815
vn -0.850964 -0.025961 -0.524583
vn -0.850964 -0.025961 -0.524583
vn -0.850964 -0.025961 -0.524583
vn -0.986209 -0.161857 0.034547
vn -0.986209 -0.161857 0.034547
vn -0.986209 -0.161857 0.034547
vn 0.954833 -0.074261 0.287715
vn 0.954833 -0.074261 0.287715
vn 0.954833 -0.074261 0.287715
vn 0.880317 -0.052290 0.471496
vn 0.880317 -0.052290 0.471496
vn 0.880317 -0.052290 0.471496
vn 0.699964 -0.000741 -0.714178
vn 0.699964 -0.000741 -0.714178
vn 0.699964 -0.000741 -0.714178
vn -0.060097 0.095988 0.993567
vn -0.060097 0.095988 0.993567
vn -0.060097 0.095988 0.993567
vn -0.474078 0.116153 0.872788
vn -0.474078 0.116153 0.872788
vn -0.474078 0.116153 0.872788
vn -0.822535 0.282268 -0.493722
vn -0.822535 0.282268 -0.493722
vn -0.822535 0.282268 -0.493721
vn 0.488739 0.197387 -0.849807
vn 0.488739 0.197387 -0.849807
vn 0.488739 0.197387 -0.849807
vn -0.949206 -0.306799 0.069876
vn -0.949206 -0.306799 0.069876
vn -0.949206 -0.306799 0.069876
vn 0.657201 -0.549978 -0.515375
vn 0.657201 -0.549978 -0.515375
vn 0.657201 -0.549978 -0.515375
vn 0.924666 -0.285824 0.251592
vn 0.924665 -0.285824 0.251592
vn 0.924666 -0.285824 0.251592
vn 0.610773 -0.579374 -0.539706
vn 0.610773 -0.579374 -0.539706
vn 0.610773 -0.579374 -0.539706
vn 0.614644 -0.422563 -0.666074
vn 0.614644 -0.422563 -0.666074
vn 0.614644 -0.422563 -0.666074
vn 0.246544 -0.451846 0.857351
vn 0.246544 -0.451846 0.857351
vn 0.246544 -0.451847 0.857351
vn 0.966964 0.077607 -0.242812
vn 0.966964 0.077607 -0.242812
vn 0.966964 0.077607 -0.242812
vn 0.855248 0.131581 0.501235
vn 0.855248 0.131581 0.501235
vn 0.855248 0.131581 0.501235
vn 0.960113 0.132855 -0.246035
vn 0.960113 0.132855 -0.246035
vn 0.960113 0.132855 -0.246035
vn -0.041390 -0.082721 0.995713
vn -0.041390 -0.082721 0.995713
vn -0.041390 -0.082721 0.995713
vn -0.836212 -0.055764 0.545563
vn -0.836212 -0.055764 0.545563
vn -0.836212 -0.055764 0.545563
vn -0.840679 0.002468 0.541528
vn -0.840679 0.002468 0.541528
vn -0.840679 0.002468 0.541528
s off
f 5/1/1 6/2/2 7/3/3
f 4/4/4 13/5/5 14/6/6
f 4/7/7 2/8/8 12/9/9
f 5/1/10 7/3/11 8/10/12
f 16/11/13 15/12/14 1/13/15
f 15/12/16 7/3/17 6/2/18
f 16/11/19 7/3/20 15/12/21
f 8/10/22 7/3/23 16/11/24
f 12/9/25 8/10/26 16/11/27
f 9/14/28 4/7/29 10/15/30
f 3/16/31 4/7/32 9/14/33
f 15/17/34 10/15/35 1/18/36
f 3/16/37 11/19/38 2/8/39
f 5/1/40 2/8/41 11/19/42
f 11/19/43 6/2/44 5/1/45
f 11/19/46 15/12/47 6/2/48
f 16/11/49 13/20/50 12/9/51
f 10/15/52 14/21/53 1/18/54
f 10/15/55 4/7/56 14/21/57
f 14/6/58 16/11/59 1/13/60
f 14/6/61 13/5/62 16/11/63
f 12/9/64 13/20/65 4/7/66
f 15/17/67 9/14/68 10/15/69
f 9/14/70 11/22/71 3/16/72
f 15/17/73 11/22/74 9/14/75
f 3/16/76 2/8/77 4/7/78
f 2/8/79 8/10/80 12/9/81
f 8/10/82 2/8/83 5/1/84
