# This file uses centimeters as units for non-parametric coordinates.

v -0.047822 -0.005290 -0.221960
v 0.130465 -0.010193 -0.196249
v 0.238113 -0.006072 -0.051807
v 0.212395 -0.020887 0.126122
v 0.068045 -0.020413 0.233944
v -0.110046 -0.030475 0.207861
v -0.217891 -0.019631 0.063791
v -0.191977 -0.019781 -0.114510
v -0.021786 -0.126690 -0.128529
v 0.081213 -0.136329 -0.113861
v 0.143259 -0.127141 -0.030315
v 0.128504 -0.142501 0.072216
v 0.045094 -0.135419 0.134621
v -0.057613 -0.148036 0.119398
v -0.119950 -0.134968 0.036407
v -0.104905 -0.141863 -0.066679
v -0.038568 -0.190728 -0.195992
v 0.113798 -0.200074 -0.168810
v 0.212236 -0.201864 -0.027832
v 0.182697 -0.209067 0.102293
v 0.061386 -0.214962 0.192812
v -0.092444 -0.205415 0.176214
v -0.179074 -0.214304 0.049721
v -0.157364 -0.208138 -0.100067
v -0.032999 -0.227955 -0.176867
v 0.103706 -0.237529 -0.151962
v 0.192676 -0.239022 -0.023661
v 0.165404 -0.245582 0.090807
v 0.056773 -0.250859 0.171864
v -0.081398 -0.241087 0.157543
v -0.158557 -0.250271 0.043726
v -0.139117 -0.244749 -0.090405
v 0.166373 -0.213101 -0.050753
v 0.132720 -0.232145 -0.116613
v 0.146158 -0.194796 -0.128977
v 0.186826 -0.194933 -0.055559
v -0.131089 0.142838 0.243742
v 0.271495 0.162398 -0.056652
v 0.149955 0.148627 -0.222986
v -0.226978 0.168337 -0.129461
v 0.264253 0.243803 -0.053051
v 0.264489 0.160408 -0.008320
v 0.149383 0.221824 -0.218140
v 0.186269 0.152742 -0.173285
v 0.009502 0.158489 -0.243385
v -0.223613 0.230547 -0.125425
v -0.144083 0.165851 -0.190611
v -0.244792 0.154905 -0.001162
v -0.033352 0.149789 0.258480
v -0.128655 0.233663 0.239925
v -0.195273 0.144840 0.157806
v -0.241420 0.084050 0.072012
v 0.072400 0.078521 0.256739
v 0.223926 0.048005 0.135237
v 0.186506 0.155131 0.191067
v -0.054859 0.100440 -0.241642
v -0.039235 0.009265 -0.187496
v -0.012318 -0.128360 -0.091196
v 0.112494 0.004894 -0.165949
v 0.060956 -0.141059 -0.081347
v 0.203805 0.008713 -0.042931
v 0.105875 -0.127673 -0.020962
v 0.182193 -0.004481 0.108660
v 0.095370 -0.145170 0.052715
v 0.059174 -0.003714 0.200174
v 0.034897 -0.133641 0.097485
v -0.092440 -0.012682 0.178253
v -0.037986 -0.150253 0.086357
v -0.183932 -0.003026 0.055565
v -0.082434 -0.133345 0.027687
v -0.162155 -0.003628 -0.096231
v -0.071400 -0.144664 -0.047838
v -0.025380 -0.211140 -0.145838
v 0.087201 -0.221092 -0.124660
v 0.166565 -0.221458 -0.013014
v 0.138278 -0.227646 0.073807
v 0.048868 -0.232015 0.141747
v -0.065416 -0.221895 0.130871
v -0.128224 -0.231532 0.036392
v -0.112223 -0.226994 -0.073822
v 0.229849 0.240008 -0.044430
v 0.226725 0.162239 -0.013647
v 0.234158 0.163770 -0.047272
v 0.131023 0.219134 -0.187723
v 0.155362 0.149471 -0.150459
v 0.130194 0.150830 -0.190022
v 0.004116 0.160083 -0.205585
v -0.193197 0.227704 -0.107397
v -0.121478 0.167411 -0.159863
v -0.193948 0.170426 -0.109716
v -0.207050 0.157732 0.004179
v -0.111430 0.147029 0.210798
v -0.027907 0.153614 0.220818
v -0.110317 0.232420 0.209379
v -0.164714 0.148669 0.135141
v 0.104101 -0.213179 -0.100239
v 0.149503 -0.208418 -0.043648
v -0.207600 0.092441 0.063669
v 0.063659 0.087001 0.222965
v 0.193898 0.055548 0.117575
v 0.163977 0.163234 0.160801
v -0.046140 0.106893 -0.207588
vt 0.023462 0.304063
vt 0.023462 0.304063
vt 0.023462 0.304063
vt 0.023462 0.304063
vt 0.023462 0.304063
vt 0.023462 0.304063
vt 0.023462 0.304063
vt 0.023462 0.304063
vt 0.023462 0.304063
vt 0.023462 0.304063
vt 0.023462 0.304063
vt 0.023462 0.304063
vt 0.023462 0.304063
vt 0.023462 0.304063
vt 0.023462 0.304063
vt 0.023462 0.304063
vt 0.023462 0.304063
vt 0.023462 0.304063
vt 0.023462 0.304063
vt 0.023462 0.304063
vt 0.023462 0.304063
vt 0.023462 0.304063
vt 0.023462 0.304063
vt 0.023462 0.304063
vt 0.026894 0.348418
vt 0.026894 0.348418
vt 0.023462 0.304063
vt 0.026894 0.348418
vt 0.026894 0.348418
vt 0.023462 0.304063
vt 0.026894 0.348418
vt 0.026894 0.348418
vt 0.026894 0.348418
vt 0.023462 0.304063
vt 0.026894 0.348418
vt 0.023462 0.304063
vt 0.026894 0.348418
vt 0.026894 0.348418
vt 0.026894 0.348418
vt 0.023462 0.304063
vt 0.023462 0.304063
vt 0.023462 0.304063
vt 0.023462 0.304063
vt 0.026894 0.348418
vt 0.026894 0.348418
vt 0.026894 0.348418
vt 0.026894 0.348418
vt 0.026894 0.348418
vt 0.023462 0.304063
vt 0.023462 0.304063
vt 0.023462 0.304063
vt 0.023462 0.304063
vt 0.023462 0.304063
vt 0.023462 0.304063
vt 0.023462 0.304063
vt 0.023462 0.304063
vt 0.023462 0.304063
vt 0.023462 0.304063
vt 0.023462 0.304063
vt 0.023462 0.304063
vt 0.023462 0.304063
vt 0.023462 0.304063
vt 0.023462 0.304063
vt 0.023462 0.304063
vt 0.023462 0.304063
vt 0.023462 0.304063
vt 0.023462 0.304063
vt 0.023462 0.304063
vt 0.023462 0.304063
vt 0.023462 0.304063
vt 0.023462 0.304063
vt 0.023462 0.304063
vt 0.023462 0.304063
vt 0.023462 0.304063
vt 0.023462 0.304063
vt 0.023462 0.304063
vt 0.023462 0.304063
vt 0.023462 0.304063
vt 0.023462 0.304063
vt 0.023462 0.304063
vt 0.023462 0.304063
vt 0.023462 0.304063
vt 0.023462 0.304063
vt 0.023462 0.304063
vt 0.023462 0.304063
vt 0.023462 0.304063
vt 0.023462 0.304063
vt 0.023462 0.304063
vt 0.023462 0.304063
vt 0.023462 0.304063
vt 0.023462 0.304063
vt 0.023462 0.304063
vt 0.023462 0.304063
vt 0.023462 0.304063
vt 0.023462 0.304063
vt 0.023462 0.304063
vt 0.023462 0.304063
vt 0.023462 0.304063
vt 0.023462 0.304063
vt 0.023462 0.304063
vt 0.023462 0.304063
vt 0.023462 0.304063
vt 0.023462 0.304063
vt 0.023462 0.304063
vt 0.023462 0.304063
vt 0.023462 0.304063
vt 0.023462 0.304063
vt 0.023462 0.304063
vt 0.023462 0.304063
vt 0.023462 0.304063
vt 0.023462 0.304063
vt 0.023462 0.304063
vt 0.023462 0.304063
vt 0.023462 0.304063
vt 0.023462 0.304063
vt 0.023462 0.304063
vt 0.023462 0.304063
vt 0.023462 0.304063
vt 0.023462 0.304063
vt 0.023462 0.304063
vt 0.023462 0.304063
vt 0.023462 0.304063
vt 0.023462 0.304063
vt 0.023462 0.304063
vt 0.023462 0.304063
vt 0.023462 0.304063
vt 0.023462 0.304063
vt 0.023462 0.304063
vt 0.023462 0.304063
vt 0.023462 0.304063
vt 0.023462 0.304063
vt 0.023462 0.304063
vt 0.023462 0.304063
vt 0.023462 0.304063
vt 0.023462 0.304063
vt 0.023462 0.304063
vt 0.023462 0.304063
vt 0.026894 0.348418
vt 0.026894 0.348418
vt 0.026894 0.348418
vt 0.026894 0.348418
vt 0.026894 0.348418
vt 0.026894 0.348418
vt 0.026894 0.348418
vt 0.026894 0.348418
vt 0.026894 0.348418
vt 0.026894 0.348418
vt 0.026894 0.348418
vt 0.026894 0.348418
vt 0.026894 0.348418
vt 0.026894 0.348418
vt 0.026894 0.348418
vt 0.026894 0.348418
vn -0.075846 0.540936 0.837637
vn -0.075846 0.540936 0.837637
vn -0.075846 0.540936 0.837637
vn -0.075846 0.540936 0.837637
vn -0.696773 0.544927 0.466435
vn -0.696773 0.544927 0.466435
vn -0.696773 0.544927 0.466435
vn -0.696773 0.544927 0.466435
vn -0.828865 0.557857 -0.042165
vn -0.828865 0.557857 -0.042165
vn -0.828865 0.557857 -0.042165
vn -0.828865 0.557857 -0.042165
vn -0.459390 0.581958 -0.671034
vn -0.459390 0.581958 -0.671034
vn -0.459390 0.581958 -0.671034
vn -0.459390 0.581958 -0.671034
vn 0.051116 0.591250 -0.804867
vn 0.051116 0.591250 -0.804867
vn 0.051116 0.591250 -0.804867
vn 0.051116 0.591250 -0.804867
vn 0.685212 0.589898 -0.427206
vn 0.685212 0.589898 -0.427206
vn 0.685212 0.589898 -0.427206
vn 0.685212 0.589898 -0.427206
vn 0.809813 0.580283 0.086456
vn 0.809813 0.580283 0.086456
vn 0.809813 0.580283 0.086456
vn 0.809813 0.580283 0.086456
vn 0.436381 0.552869 0.709864
vn 0.436381 0.552869 0.709864
vn 0.436381 0.552869 0.709864
vn 0.436381 0.552869 0.709864
vn -0.201876 -0.516869 0.831921
vn -0.201876 -0.516869 0.831921
vn -0.201876 -0.516869 0.831921
vn -0.201876 -0.516869 0.831921
vn -0.631449 -0.518634 0.576447
vn -0.627015 -0.520769 0.579355
vn -0.649713 -0.509549 0.564121
vn -0.821248 -0.526375 -0.220183
vn -0.814409 -0.523082 -0.251243
vn -0.824045 -0.512866 0.240662
vn -0.555247 -0.431550 -0.710961
vn -0.555247 -0.431550 -0.710961
vn -0.555247 -0.431550 -0.710961
vn -0.555247 -0.431550 -0.710961
vn 0.119205 -0.466958 -0.876208
vn 0.119205 -0.466958 -0.876208
vn 0.119205 -0.466958 -0.876208
vn 0.119205 -0.466958 -0.876208
vn 0.712191 -0.470353 -0.521107
vn 0.712191 -0.470353 -0.521107
vn 0.712191 -0.470353 -0.521107
vn 0.712191 -0.470353 -0.521107
vn 0.886566 -0.439263 0.145083
vn 0.886566 -0.439263 0.145083
vn 0.886566 -0.439263 0.145083
vn 0.886566 -0.439263 0.145083
vn 0.602159 -0.500328 0.622155
vn 0.602159 -0.500328 0.622155
vn 0.602159 -0.500328 0.622155
vn 0.602159 -0.500328 0.622155
vn -0.974893 -0.046990 -0.217659
vn -0.974893 -0.046990 -0.217659
vn -0.974893 -0.046990 -0.217659
vn -0.843835 -0.007816 0.536546
vn -0.843835 -0.007816 0.536546
vn -0.843835 -0.007816 0.536546
vn -0.124757 -0.031855 0.991676
vn -0.124757 -0.031855 0.991676
vn -0.124757 -0.031855 0.991676
vn 0.567394 -0.040747 0.822438
vn 0.567394 -0.040747 0.822438
vn 0.567394 -0.040747 0.822437
vn 0.993515 -0.017584 0.112330
vn 0.993515 -0.017584 0.112330
vn 0.993515 -0.017584 0.112330
vn 0.120490 -0.018066 -0.992550
vn 0.120490 -0.018066 -0.992550
vn 0.120490 -0.018066 -0.992550
vn 0.817208 -0.020228 -0.575988
vn 0.817208 -0.020228 -0.575988
vn 0.817208 -0.020228 -0.575988
vn 0.786506 0.210368 -0.580649
vn 0.786506 0.210368 -0.580649
vn 0.786506 0.210368 -0.580649
vn 0.786506 0.210368 -0.580649
vn 0.786506 0.210368 -0.580649
vn 0.132032 0.208023 -0.969172
vn 0.132032 0.208023 -0.969172
vn 0.132032 0.208023 -0.969172
vn 0.132032 0.208023 -0.969172
vn 0.132032 0.208023 -0.969172
vn -0.588332 0.195592 -0.784607
vn -0.588332 0.195592 -0.784607
vn -0.588332 0.195592 -0.784607
vn -0.588332 0.195592 -0.784607
vn -0.588332 0.195592 -0.784607
vn -0.975783 0.179242 -0.125380
vn -0.975783 0.179242 -0.125380
vn -0.975783 0.179242 -0.125380
vn -0.975783 0.179242 -0.125380
vn -0.975783 0.179242 -0.125380
vn -0.798529 0.174525 0.576101
vn -0.798529 0.174525 0.576101
vn -0.798529 0.174525 0.576101
vn -0.798529 0.174525 0.576101
vn -0.798529 0.174525 0.576101
vn -0.135004 0.166275 0.976794
vn -0.135004 0.166275 0.976794
vn -0.135004 0.166275 0.976794
vn -0.135004 0.166275 0.976794
vn -0.135004 0.166275 0.976794
vn 0.584549 0.169285 0.793502
vn 0.584549 0.169285 0.793502
vn 0.584549 0.169285 0.793502
vn 0.584549 0.169285 0.793502
vn 0.584549 0.169285 0.793502
vn 0.970345 0.189645 0.149882
vn 0.970345 0.189645 0.149882
vn 0.970345 0.189645 0.149882
vn 0.970345 0.189645 0.149882
vn 0.970345 0.189645 0.149882
vn -0.788446 -0.067356 0.611405
vn -0.788446 -0.067356 0.611405
vn -0.788446 -0.067356 0.611405
vn 0.085947 -0.582275 -0.808436
vn 0.085947 -0.582275 -0.808436
vn 0.085947 -0.582275 -0.808436
vn 0.085947 -0.582275 -0.808436
vn 0.667412 -0.583498 -0.462700
vn 0.667412 -0.583498 -0.462700
vn 0.667412 -0.583498 -0.462700
vn 0.667412 -0.583498 -0.462700
vn 0.800822 -0.596696 0.051366
vn 0.800822 -0.596696 0.051366
vn 0.800822 -0.596696 0.051366
vn 0.800822 -0.596696 0.051366
vn 0.456609 -0.619605 0.638434
vn 0.456609 -0.619605 0.638434
vn 0.456609 -0.619605 0.638434
vn 0.456609 -0.619605 0.638434
vn -0.062626 -0.631783 0.772611
vn -0.062626 -0.631783 0.772611
vn -0.062626 -0.631783 0.772611
vn -0.062626 -0.631783 0.772611
vn -0.651501 -0.630511 0.421904
vn -0.651501 -0.630511 0.421904
vn -0.651501 -0.630511 0.421904
vn -0.651501 -0.630511 0.421904
vn -0.780851 -0.616948 -0.098214
vn -0.780851 -0.616948 -0.098214
vn -0.780851 -0.616948 -0.098214
vn -0.780851 -0.616948 -0.098214
vn -0.429230 -0.594092 -0.680306
vn -0.429230 -0.594092 -0.680306
vn -0.429230 -0.594092 -0.680306
vn -0.429230 -0.594092 -0.680306
vn 0.166495 0.692770 -0.701676
vn 0.166495 0.692770 -0.701676
vn 0.166495 0.692770 -0.701676
vn 0.166495 0.692770 -0.701676
vn 0.551051 0.690085 -0.469175
vn 0.586511 0.671564 -0.452777
vn 0.702774 0.596185 -0.388165
vn 0.722447 0.674677 0.151266
vn 0.661060 0.595041 -0.457083
vn 0.718202 0.671864 0.181065
vn 0.475809 0.611478 0.632219
vn 0.475809 0.611478 0.632219
vn 0.475809 0.611478 0.632219
vn 0.475809 0.611478 0.632219
vn -0.101399 0.647868 0.754974
vn -0.101399 0.647868 0.754974
vn -0.101399 0.647868 0.754974
vn -0.101399 0.647868 0.754974
vn -0.612450 0.650957 0.448509
vn -0.612450 0.650957 0.448509
vn -0.612450 0.650957 0.448509
vn -0.612450 0.650957 0.448509
vn -0.780720 0.614162 -0.115246
vn -0.780720 0.614162 -0.115246
vn -0.780720 0.614162 -0.115246
vn -0.780720 0.614162 -0.115246
vn -0.517139 0.678529 -0.521695
vn -0.517139 0.678529 -0.521695
vn -0.517139 0.678529 -0.521695
vn -0.517139 0.678529 -0.521695
vn 0.131773 -0.436642 -0.889932
vn 0.131773 -0.436642 -0.889932
vn 0.131773 -0.436642 -0.889932
vn 0.131773 -0.436642 -0.889932
vn 0.873037 -0.454314 0.177215
vn 0.873037 -0.454314 0.177215
vn 0.873037 -0.454314 0.177215
vn 0.873037 -0.454314 0.177215
vn 0.541075 -0.474639 0.694230
vn 0.541075 -0.474639 0.694230
vn 0.541075 -0.474639 0.694230
vn 0.541075 -0.474639 0.694230
vn -0.123779 -0.489090 0.863406
vn -0.123779 -0.489090 0.863406
vn -0.123779 -0.489090 0.863406
vn -0.123779 -0.489090 0.863406
vn -0.703796 -0.487876 0.516381
vn -0.703796 -0.487876 0.516381
vn -0.703796 -0.487876 0.516381
vn -0.703796 -0.487876 0.516381
vn -0.869617 -0.471812 -0.145462
vn -0.869617 -0.471812 -0.145462
vn -0.869617 -0.471812 -0.145462
vn -0.869617 -0.471812 -0.145462
vn -0.519933 -0.450626 -0.725676
vn -0.519933 -0.450626 -0.725676
vn -0.519933 -0.450626 -0.725676
vn -0.519933 -0.450626 -0.725676
vn 0.985903 0.081241 0.146269
vn 0.985903 0.081241 0.146269
vn 0.985903 0.081241 0.146269
vn 0.804805 0.045470 -0.591794
vn 0.804805 0.045470 -0.591794
vn 0.804805 0.045470 -0.591794
vn 0.147983 0.066491 -0.986752
vn 0.147983 0.066491 -0.986752
vn 0.147983 0.066491 -0.986752
vn -0.589906 0.084006 -0.803090
vn -0.589906 0.084006 -0.803090
vn -0.589906 0.084006 -0.803090
vn -0.989456 0.062005 -0.130889
vn -0.989456 0.062005 -0.130889
vn -0.989456 0.062005 -0.130889
vn -0.152121 0.045565 0.987311
vn -0.152121 0.045565 0.987311
vn -0.152121 0.045565 0.987311
vn -0.799805 0.046580 0.598450
vn -0.799805 0.046580 0.598450
vn -0.799805 0.046580 0.598450
vn 0.726467 -0.435960 -0.531211
vn 0.726467 -0.435960 -0.531211
vn 0.726467 -0.435960 -0.531211
vn 0.726467 -0.435960 -0.531211
vn 0.484043 -0.469861 -0.738196
vn 0.484043 -0.469861 -0.738196
vn 0.484043 -0.469861 -0.738196
vn 0.484043 -0.469861 -0.738196
vn 0.757871 -0.564051 -0.327840
vn 0.757871 -0.564051 -0.327840
vn 0.757870 -0.564051 -0.327840
vn 0.757870 -0.564051 -0.327840
vn -0.786629 -0.219088 0.577248
vn -0.786629 -0.219088 0.577248
vn -0.786629 -0.219088 0.577248
vn -0.786629 -0.219088 0.577248
vn -0.786629 -0.219088 0.577248
vn -0.129953 -0.216591 0.967575
vn -0.129953 -0.216591 0.967575
vn -0.129953 -0.216591 0.967574
vn -0.129953 -0.216591 0.967574
vn -0.129953 -0.216591 0.967574
vn 0.586603 -0.204022 0.783755
vn 0.586604 -0.204022 0.783755
vn 0.586603 -0.204022 0.783755
vn 0.586603 -0.204022 0.783755
vn 0.586603 -0.204022 0.783755
vn 0.974116 -0.185998 0.128461
vn 0.974116 -0.185998 0.128461
vn 0.974116 -0.185998 0.128461
vn 0.974116 -0.185998 0.128461
vn 0.974116 -0.185998 0.128461
vn 0.796075 -0.184222 -0.576478
vn 0.796075 -0.184222 -0.576478
vn 0.796075 -0.184222 -0.576478
vn 0.796075 -0.184222 -0.576478
vn 0.796075 -0.184222 -0.576478
vn 0.132475 -0.176723 -0.975305
vn 0.132475 -0.176723 -0.975305
vn 0.132475 -0.176723 -0.975305
vn 0.132475 -0.176723 -0.975305
vn 0.132475 -0.176723 -0.975305
vn -0.581949 -0.177709 -0.793571
vn -0.581949 -0.177709 -0.793571
vn -0.581949 -0.177709 -0.793571
vn -0.581949 -0.177709 -0.793571
vn -0.581949 -0.177709 -0.793571
vn -0.968775 -0.198953 -0.147960
vn -0.968775 -0.198953 -0.147960
vn -0.968775 -0.198953 -0.147960
vn -0.968775 -0.198953 -0.147960
vn -0.968775 -0.198953 -0.147960
vn 0.799717 0.097354 -0.592432
vn 0.799717 0.097354 -0.592432
vn 0.799717 0.097354 -0.592432
vn -0.155127 -0.868220 0.471306
vn -0.155127 -0.868220 0.471306
vn -0.155127 -0.868220 0.471306
vn -0.155127 -0.868220 0.471306
vn -0.527375 -0.826266 -0.197889
vn -0.527375 -0.826266 -0.197889
vn -0.527375 -0.826266 -0.197890
vn -0.527375 -0.826266 -0.197889
vn -0.292570 -0.847064 -0.443717
vn -0.292570 -0.847064 -0.443717
vn -0.292570 -0.847064 -0.443717
vn -0.292570 -0.847064 -0.443717
vn -0.009779 -0.830170 -0.557424
vn -0.009779 -0.830170 -0.557424
vn -0.009779 -0.830170 -0.557424
vn -0.009779 -0.830170 -0.557424
vn 0.492944 -0.831513 -0.256110
vn 0.492944 -0.831513 -0.256110
vn 0.492944 -0.831513 -0.256110
vn 0.492944 -0.831513 -0.256110
vn 0.532309 -0.845488 0.042403
vn 0.532309 -0.845488 0.042403
vn 0.532309 -0.845488 0.042403
vn 0.532309 -0.845488 0.042403
vn 0.409470 -0.853319 0.322772
vn 0.409470 -0.853319 0.322772
vn 0.409470 -0.853319 0.322772
vn 0.409470 -0.853319 0.322772
vn 0.029794 0.423662 0.905330
vn 0.029794 0.423662 0.905330
vn 0.029794 0.423662 0.905330
vn 0.029794 0.423662 0.905330
vn 0.558008 0.591011 0.582523
vn 0.558008 0.591011 0.582523
vn 0.558008 0.591011 0.582523
vn 0.558008 0.591011 0.582523
vn -0.397188 0.909370 -0.123644
vn -0.397188 0.909370 -0.123644
vn -0.397188 0.909370 -0.123644
vn -0.397188 0.909370 -0.123644
vn 0.383206 0.835136 -0.394589
vn 0.383206 0.835136 -0.394589
vn 0.383206 0.835136 -0.394589
vn 0.383206 0.835136 -0.394589
vn -0.170947 0.849505 0.499117
vn -0.170947 0.849505 0.499117
vn -0.170947 0.849505 0.499117
vn -0.170947 0.849505 0.499117
vn 0.631060 0.735069 0.247863
vn 0.631060 0.735069 0.247863
vn 0.631060 0.735069 0.247863
vn 0.631060 0.735069 0.247863
vn -0.507896 0.746159 -0.430452
vn -0.507896 0.746158 -0.430452
vn -0.507896 0.746159 -0.430452
vn -0.507896 0.746158 -0.430452
vn -0.283046 -0.866927 0.410273
vn -0.283046 -0.866926 0.410273
vn -0.283046 -0.866927 0.410273
vn -0.283046 -0.866927 0.410273
vn -0.510575 -0.840043 -0.183417
vn -0.510575 -0.840043 -0.183417
vn -0.510575 -0.840043 -0.183417
vn -0.510575 -0.840043 -0.183417
vn -0.280662 -0.891906 0.354587
vn -0.280662 -0.891906 0.354587
vn -0.280662 -0.891906 0.354587
vn -0.280662 -0.891906 0.354587
vn -0.359479 0.834564 -0.417466
vn -0.359479 0.834564 -0.417466
vn -0.359479 0.834564 -0.417466
vn -0.359479 0.834564 -0.417466
vn 0.568891 0.814466 0.114049
vn 0.568891 0.814466 0.114049
vn 0.568891 0.814466 0.114049
vn 0.568891 0.814466 0.114049
vn 0.666115 0.474267 -0.575641
vn 0.666115 0.474267 -0.575641
vn 0.666115 0.474267 -0.575641
vn 0.666115 0.474267 -0.575641
vn -0.364486 0.842717 0.396204
vn -0.364486 0.842717 0.396204
vn -0.364486 0.842717 0.396204
vn -0.364486 0.842717 0.396204
vn -0.095774 0.790597 0.604800
vn -0.095774 0.790597 0.604800
vn -0.095774 0.790597 0.604800
vn -0.095774 0.790597 0.604800
vn -0.695591 0.716832 -0.048006
vn -0.695591 0.716832 -0.048006
vn -0.695591 0.716832 -0.048006
vn -0.695591 0.716832 -0.048006
vn 0.447417 0.835286 -0.319554
vn 0.447417 0.835286 -0.319554
vn 0.447417 0.835286 -0.319554
vn 0.447417 0.835286 -0.319554
vn -0.078950 0.694871 0.714787
vn -0.078950 0.694871 0.714787
vn -0.078950 0.694871 0.714787
vn -0.078950 0.694871 0.714787
vn -0.310885 0.832465 -0.458642
vn -0.310885 0.832465 -0.458642
vn -0.310885 0.832465 -0.458642
vn -0.310885 0.832465 -0.458642
vn -0.821248 -0.526375 -0.220183
vn -0.809235 -0.520513 -0.272404
vn -0.809236 -0.520513 -0.272404
vn -0.814409 -0.523082 -0.251243
vn -0.631449 -0.518634 0.576447
vn -0.620256 -0.523973 0.583726
vn -0.620256 -0.523973 0.583726
vn -0.627015 -0.520769 0.579355
vn 0.521717 0.704076 -0.481755
vn 0.521717 0.704076 -0.481755
vn 0.586511 0.671564 -0.452777
vn 0.551051 0.690085 -0.469175
vn 0.722447 0.674677 0.151266
vn 0.718202 0.671864 0.181065
vn 0.714971 0.669620 0.201059
vn 0.714971 0.669620 0.201059
s off
f 58/1/1 60/4/2 59/3/3 57/2/4
f 60/4/5 62/6/6 61/5/7 59/3/8
f 62/6/9 64/8/10 63/7/11 61/5/12
f 64/8/13 66/10/14 65/9/15 63/7/16
f 66/10/17 68/12/18 67/11/19 65/9/20
f 68/12/21 70/14/22 69/13/23 67/11/24
f 70/14/25 72/16/26 71/15/27 69/13/28
f 72/16/29 58/1/30 57/2/31 71/15/32
f 60/4/33 58/1/34 73/111/35 74/110/36
f 62/6/37 96/132/38 97/131/39
f 75/113/40 62/6/41 97/131/42
f 66/10/43 64/8/44 76/112/45 77/114/46
f 68/12/47 66/10/48 77/114/49 78/115/50
f 70/14/51 68/12/52 78/115/53 79/116/54
f 72/16/55 70/14/56 79/116/57 80/117/58
f 58/1/59 72/16/60 80/117/61 73/111/62
f 81/118/63 83/27/64 82/119/65
f 84/120/66 86/30/67 85/121/68
f 86/30/69 84/120/70 87/122/71
f 88/123/72 90/34/73 89/124/74
f 90/34/75 88/123/76 91/125/77
f 92/36/78 94/127/79 93/126/80
f 94/127/81 92/36/82 95/128/83
f 92/36/84 67/11/85 69/13/86 98/133/87 95/128/88
f 67/11/89 92/36/90 93/126/91 99/134/92 65/9/93
f 65/9/94 99/134/95 101/136/96 100/135/97 63/7/98
f 63/7/99 100/135/100 82/119/101 83/27/102 61/5/103
f 61/5/104 83/27/105 85/121/106 86/30/107 59/3/108
f 59/3/109 86/30/110 87/122/111 102/137/112 57/2/113
f 57/2/114 102/137/115 89/124/116 90/34/117 71/15/118
f 71/15/119 90/34/120 91/125/121 98/133/122 69/13/123
f 83/27/124 81/118/125 85/121/126
f 9/49/127 1/50/128 2/51/129 10/52/130
f 10/52/131 2/51/132 3/53/133 11/54/134
f 11/54/135 3/53/136 4/55/137 12/56/138
f 12/56/139 4/55/140 5/57/141 13/58/142
f 13/58/143 5/57/144 6/59/145 14/60/146
f 14/60/147 6/59/148 7/61/149 15/62/150
f 15/62/151 7/61/152 8/63/153 16/64/154
f 16/64/155 8/63/156 1/50/157 9/49/158
f 17/65/159 9/49/160 10/52/161 18/66/162
f 35/68/163 11/54/164 36/67/165
f 19/69/166 36/67/167 11/54/168
f 20/70/169 12/56/170 13/58/171 21/71/172
f 21/71/173 13/58/174 14/60/175 22/72/176
f 22/72/177 14/60/178 15/62/179 23/73/180
f 23/73/181 15/62/182 16/64/183 24/74/184
f 24/74/185 16/64/186 9/49/187 17/65/188
f 25/75/189 17/65/190 18/66/191 26/76/192
f 27/77/193 19/69/194 20/70/195 28/78/196
f 28/78/197 20/70/198 21/71/199 29/79/200
f 29/79/201 21/71/202 22/72/203 30/80/204
f 30/80/205 22/72/206 23/73/207 31/81/208
f 31/81/209 23/73/210 24/74/211 32/82/212
f 32/82/213 24/74/214 17/65/215 25/75/216
f 41/83/217 42/84/218 38/85/219
f 43/86/220 44/87/221 39/88/222
f 39/88/223 45/89/224 43/86/225
f 46/90/226 47/91/227 40/92/228
f 40/92/229 48/93/230 46/90/231
f 37/94/232 49/95/233 50/96/234
f 50/96/235 51/97/236 37/94/237
f 26/76/238 18/66/239 35/68/240 34/98/241
f 36/99/242 19/100/243 27/101/244 33/102/245
f 35/103/246 36/99/247 33/102/248 34/104/249
f 37/94/250 51/97/251 52/105/252 7/61/253 6/59/254
f 6/59/255 5/57/256 53/106/257 49/95/258 37/94/259
f 5/57/260 4/55/261 54/107/262 55/108/263 53/106/264
f 4/55/265 3/53/266 38/85/267 42/84/268 54/107/269
f 3/53/270 2/51/271 39/88/272 44/87/273 38/85/274
f 2/51/275 1/50/276 56/109/277 45/89/278 39/88/279
f 1/50/280 8/63/281 40/92/282 47/91/283 56/109/284
f 8/63/285 7/61/286 52/105/287 48/93/288 40/92/289
f 38/85/290 44/87/291 41/83/292
f 26/18/293 74/110/294 73/111/295 25/17/296
f 28/20/297 76/112/298 75/113/299 27/19/300
f 29/21/301 77/114/302 76/112/303 28/20/304
f 30/22/305 78/115/306 77/114/307 29/21/308
f 31/23/309 79/116/310 78/115/311 30/22/312
f 32/24/313 80/117/314 79/116/315 31/23/316
f 25/17/317 73/111/318 80/117/319 32/24/320
f 41/25/321 81/26/322 82/28/323 42/29/324
f 43/31/325 84/32/326 85/33/327 44/35/328
f 45/37/329 87/38/330 84/32/331 43/31/332
f 46/39/333 88/44/334 89/45/335 47/46/336
f 48/47/337 91/48/338 88/44/339 46/39/340
f 49/138/341 93/139/342 94/140/343 50/141/344
f 50/141/345 94/140/346 95/142/347 51/143/348
f 34/40/349 96/129/350 74/110/351 26/18/352
f 27/41/353 75/130/354 97/131/355 33/42/356
f 33/42/357 97/131/358 96/132/359 34/43/360
f 51/143/361 95/142/362 98/144/363 52/145/364
f 53/146/365 99/147/366 93/139/367 49/138/368
f 54/148/369 100/149/370 101/150/371 55/151/372
f 55/151/373 101/150/374 99/147/375 53/146/376
f 42/29/377 82/28/378 100/149/379 54/148/380
f 56/152/381 102/153/382 87/38/383 45/37/384
f 47/46/385 89/45/386 102/153/387 56/152/388
f 52/145/389 98/144/390 91/48/391 48/47/392
f 44/35/393 85/33/394 81/26/395 41/25/396
f 75/113/397 76/112/398 64/8/399 62/6/400
f 62/6/401 60/4/402 74/110/403 96/132/404
f 18/66/405 10/52/406 11/54/407 35/68/408
f 19/69/409 11/54/410 12/56/411 20/70/412
