# This file uses centimeters as units for non-parametric coordinates.

v 0.116397 0.000000 -0.116398
v 0.000000 0.000000 -0.164610
v -0.116396 0.000000 -0.116398
v -0.164610 0.000000 0.000000
v -0.116396 0.000000 0.116396
v 0.000000 0.000000 0.164610
v 0.116397 0.000000 0.116396
v 0.164610 0.000000 0.000000
v 0.182656 0.104849 -0.182657
v 0.000000 0.104849 -0.258316
v -0.182656 0.104849 -0.182657
v -0.258315 0.104849 0.000000
v -0.182656 0.104849 0.182655
v 0.000000 0.104849 0.258314
v 0.182656 0.104849 0.182655
v 0.258315 0.104849 0.000000
v 0.000000 0.000000 0.000000
v 0.166366 0.454850 -0.166368
v 0.000000 0.454850 -0.235277
v -0.166366 0.454850 -0.166368
v -0.235277 0.454850 0.000000
v -0.166366 0.454850 0.166367
v 0.000000 0.454850 0.235277
v 0.166366 0.454850 0.166367
v 0.235277 0.454850 0.000000
v 0.096028 0.576773 -0.096029
v 0.000000 0.576773 -0.135805
v -0.096028 0.564394 -0.096029
v -0.135804 0.576773 0.000000
v -0.096028 0.564394 0.096027
v 0.000000 0.576773 0.135803
v 0.096028 0.576773 0.096027
v 0.135804 0.564394 0.000000
v 0.144850 0.631881 -0.143587
v 0.000000 0.643233 -0.197859
v -0.156690 0.641601 -0.127052
v -0.197859 0.643233 0.000000
v -0.139907 0.643233 0.139908
v 0.000788 0.631247 0.204012
v 0.139907 0.643233 0.139908
v 0.197859 0.643233 0.000000
v 0.130228 0.668466 -0.128965
v 0.000000 0.679818 -0.177183
v -0.142068 0.678186 -0.112430
v -0.177181 0.679818 0.000000
v -0.125286 0.679818 0.125284
v 0.000788 0.667832 0.183334
v 0.125286 0.679818 0.125284
v 0.177181 0.679818 0.000000
v 0.077198 0.573145 -0.077200
v 0.000000 0.573145 -0.109177
v -0.077198 0.573145 -0.077200
v -0.109174 0.573145 0.000000
v -0.077198 0.573145 0.077198
v 0.000000 0.573145 0.109175
v 0.077198 0.573145 0.077198
v 0.109174 0.573145 0.000000
v 0.133725 0.258361 -0.133725
v -0.000000 0.258361 -0.189114
v 0.000000 0.075176 0.000000
v -0.133725 0.258361 -0.133725
v -0.189115 0.258361 0.000001
v -0.133725 0.258361 0.133723
v -0.000000 0.258361 0.189112
v 0.133725 0.258361 0.133723
v 0.189115 0.258361 0.000001
v -0.188521 0.246630 0.188520
v -0.266609 0.246630 0.000000
v -0.188521 0.246630 -0.188522
v 0.000000 0.246630 -0.266609
v 0.188521 0.246630 -0.188522
v 0.266609 0.246630 0.000000
v 0.188521 0.246630 0.188520
v 0.000000 0.246630 0.266609
v -0.094261 0.294130 0.227564
v 0.094261 0.294130 0.227564
v 0.227565 0.294130 0.094259
v 0.227565 0.294130 -0.094261
v 0.094261 0.294130 -0.227566
v -0.094261 0.294130 -0.227566
v -0.227565 0.294130 -0.094261
v -0.227565 0.294130 0.094259
v -0.099266 0.622100 -0.099268
v -0.082885 0.679818 -0.142849
v -0.088054 0.643233 -0.161386
v -0.114359 0.604537 -0.114361
vt 0.024850 0.303869
vt 0.024850 0.303869
vt 0.024850 0.303869
vt 0.024850 0.303869
vt 0.024850 0.303869
vt 0.024850 0.303869
vt 0.024850 0.303869
vt 0.024850 0.303869
vt 0.024850 0.303869
vt 0.024850 0.303869
vt 0.024850 0.303869
vt 0.024850 0.303869
vt 0.024850 0.303869
vt 0.024850 0.303869
vt 0.024850 0.303869
vt 0.024850 0.303869
vt 0.024850 0.303869
vt 0.024850 0.303869
vt 0.024850 0.303869
vt 0.024850 0.303869
vt 0.024850 0.303869
vt 0.024850 0.303869
vt 0.024850 0.303869
vt 0.024850 0.303869
vt 0.024850 0.303869
vt 0.024850 0.303869
vt 0.438791 0.309143
vt 0.438791 0.309143
vt 0.438791 0.309143
vt 0.438791 0.309143
vt 0.438791 0.309143
vt 0.438791 0.309143
vt 0.438791 0.309143
vt 0.438791 0.309143
vt 0.024850 0.303869
vt 0.024850 0.303869
vt 0.024850 0.303869
vt 0.024850 0.303869
vt 0.024850 0.303869
vt 0.024850 0.303869
vt 0.024850 0.303869
vt 0.024850 0.303869
vt 0.024850 0.303869
vt 0.024850 0.303869
vt 0.024850 0.303869
vt 0.024850 0.303869
vt 0.024850 0.303869
vt 0.024850 0.303869
vt 0.024850 0.303869
vt 0.024850 0.303869
vt 0.024850 0.303869
vt 0.024850 0.303869
vt 0.024850 0.303869
vt 0.024850 0.303869
vt 0.024850 0.303869
vt 0.024850 0.303869
vt 0.024850 0.303869
vt 0.024850 0.303869
vt 0.024850 0.303869
vt 0.024850 0.303869
vt 0.024850 0.303869
vt 0.024850 0.303869
vt 0.024850 0.303869
vt 0.024850 0.303869
vt 0.024850 0.303869
vt 0.024850 0.303869
vt 0.024850 0.303869
vt 0.024850 0.303869
vt 0.024850 0.303869
vt 0.024850 0.303869
vt 0.024850 0.303869
vt 0.024850 0.303869
vt 0.024850 0.303869
vt 0.024850 0.303869
vt 0.024850 0.303869
vt 0.024850 0.303869
vt 0.024850 0.303869
vt 0.024850 0.303869
vt 0.024850 0.303869
vt 0.024850 0.303869
vt 0.024850 0.303869
vt 0.024850 0.303869
vt 0.438791 0.309143
vt 0.438791 0.309143
vt 0.438791 0.309143
vt 0.438791 0.309143
vt 0.438791 0.309143
vt 0.438791 0.309143
vt 0.438791 0.309143
vt 0.438791 0.309143
vt 0.438791 0.309143
vt 0.024850 0.303869
vt 0.438791 0.309143
vt 0.024850 0.303869
vt 0.438791 0.309143
vt 0.024850 0.303869
vt 0.438791 0.309143
vt 0.024850 0.303869
vt 0.438791 0.309143
vt 0.024850 0.303869
vt 0.438791 0.309143
vt 0.024850 0.303869
vt 0.438791 0.309143
vt 0.024850 0.303869
vt 0.438791 0.309143
vt 0.024850 0.303869
vt 0.024850 0.303869
vt 0.024850 0.303869
vt 0.024850 0.303869
vt 0.024850 0.303869
vt 0.026282 0.283106
vt 0.026282 0.283106
vt 0.026282 0.283106
vt 0.026282 0.283106
vt 0.026282 0.283106
vt 0.026282 0.283106
vn 0.295090 -0.636700 -0.712415
vn 0.295090 -0.636700 -0.712415
vn 0.295090 -0.636700 -0.712415
vn 0.295090 -0.636700 -0.712415
vn -0.295090 -0.636701 -0.712415
vn -0.295090 -0.636701 -0.712415
vn -0.295090 -0.636701 -0.712415
vn -0.295090 -0.636700 -0.712415
vn -0.712415 -0.636700 -0.295090
vn -0.712415 -0.636700 -0.295090
vn -0.712415 -0.636700 -0.295090
vn -0.712415 -0.636700 -0.295090
vn -0.712413 -0.636700 0.295093
vn -0.712413 -0.636700 0.295093
vn -0.712413 -0.636701 0.295093
vn -0.712413 -0.636700 0.295093
vn -0.295095 -0.636697 0.712416
vn -0.295095 -0.636697 0.712416
vn -0.295095 -0.636697 0.712416
vn -0.295095 -0.636697 0.712416
vn 0.295095 -0.636697 0.712416
vn 0.295095 -0.636697 0.712416
vn 0.295095 -0.636697 0.712416
vn 0.295095 -0.636697 0.712416
vn 0.712414 -0.636700 0.295093
vn 0.712414 -0.636700 0.295093
vn 0.712414 -0.636700 0.295093
vn 0.712414 -0.636700 0.295093
vn 0.712415 -0.636700 -0.295090
vn 0.712415 -0.636700 -0.295090
vn 0.712415 -0.636700 -0.295090
vn 0.712415 -0.636700 -0.295090
vn 0.000000 -1.000000 0.000000
vn 0.000000 -1.000000 0.000000
vn 0.000000 -1.000000 0.000000
vn 0.000000 -1.000000 0.000000
vn 0.000000 -1.000000 0.000000
vn 0.000000 -1.000000 0.000000
vn 0.000000 -1.000000 0.000000
vn 0.000000 -1.000000 0.000000
vn 0.000000 -1.000000 0.000000
vn 0.000000 -1.000000 0.000000
vn 0.000000 -1.000000 0.000000
vn 0.000000 -1.000000 0.000000
vn 0.000000 -1.000000 0.000000
vn 0.000000 -1.000000 0.000000
vn 0.000000 -1.000000 0.000000
vn 0.000000 -1.000000 0.000000
vn 0.000000 -1.000000 0.000000
vn 0.000000 -1.000000 0.000000
vn 0.000000 -1.000000 0.000000
vn 0.000000 -1.000000 0.000000
vn 0.000000 -1.000000 0.000000
vn 0.000000 -1.000000 0.000000
vn 0.000000 -1.000000 0.000000
vn 0.000000 -1.000000 0.000000
vn -0.276917 0.690187 0.668550
vn -0.276917 0.690187 0.668550
vn -0.276917 0.690187 0.668550
vn 0.276917 0.690187 0.668550
vn 0.276917 0.690187 0.668550
vn 0.276917 0.690187 0.668550
vn 0.668548 0.690188 0.276919
vn 0.668548 0.690188 0.276919
vn 0.668548 0.690188 0.276919
vn 0.668546 0.690188 -0.276925
vn 0.668546 0.690188 -0.276925
vn 0.668546 0.690188 -0.276925
vn 0.276918 0.690184 -0.668553
vn 0.276918 0.690184 -0.668553
vn 0.276918 0.690184 -0.668553
vn -0.276918 0.690184 -0.668553
vn -0.276918 0.690184 -0.668553
vn -0.276918 0.690184 -0.668553
vn -0.668546 0.690188 -0.276925
vn -0.668546 0.690188 -0.276925
vn -0.668546 0.690188 -0.276925
vn -0.668548 0.690188 0.276920
vn -0.668548 0.690188 0.276920
vn -0.668548 0.690188 0.276920
vn 0.359047 -0.053397 -0.931791
vn 0.359047 -0.053397 -0.931791
vn 0.359047 -0.053397 -0.931791
vn -0.388756 -0.044089 -0.920285
vn -0.388756 -0.044089 -0.920285
vn -0.388756 -0.044089 -0.920285
vn -0.388756 -0.044089 -0.920286
vn -0.931789 -0.053396 -0.359051
vn -0.931789 -0.053396 -0.359051
vn -0.931789 -0.053396 -0.359051
vn -0.920283 -0.044090 0.388760
vn -0.920283 -0.044090 0.388760
vn -0.920283 -0.044090 0.388760
vn -0.920283 -0.044090 0.388760
vn -0.375845 -0.044091 0.925633
vn -0.375845 -0.044091 0.925633
vn -0.375845 -0.044091 0.925633
vn -0.375845 -0.044091 0.925633
vn 0.388761 -0.044093 0.920283
vn 0.388761 -0.044093 0.920283
vn 0.388761 -0.044093 0.920283
vn 0.388761 -0.044093 0.920283
vn 0.931789 -0.053395 0.359052
vn 0.931789 -0.053395 0.359052
vn 0.931789 -0.053395 0.359051
vn 0.920285 -0.044092 -0.388756
vn 0.920285 -0.044092 -0.388756
vn 0.920285 -0.044092 -0.388756
vn 0.920285 -0.044092 -0.388756
vn 0.305587 0.601924 -0.737770
vn 0.305587 0.601924 -0.737770
vn 0.305587 0.601924 -0.737770
vn 0.305587 0.601924 -0.737770
vn -0.324604 0.621635 -0.712883
vn -0.324604 0.621635 -0.712883
vn -0.324604 0.621635 -0.712883
vn -0.324604 0.621635 -0.712883
vn -0.712881 0.621636 -0.324606
vn -0.712881 0.621636 -0.324606
vn -0.712881 0.621636 -0.324606
vn -0.712881 0.621636 -0.324606
vn -0.712880 0.621636 0.324610
vn -0.712879 0.621636 0.324610
vn -0.712879 0.621636 0.324610
vn -0.712880 0.621636 0.324610
vn -0.324607 0.621638 0.712879
vn -0.324607 0.621638 0.712879
vn -0.324607 0.621638 0.712879
vn -0.324607 0.621638 0.712879
vn 0.305590 0.601928 0.737765
vn 0.305590 0.601928 0.737765
vn 0.305590 0.601928 0.737765
vn 0.305590 0.601928 0.737765
vn 0.733616 0.621636 0.274549
vn 0.733616 0.621636 0.274549
vn 0.733616 0.621636 0.274549
vn 0.733616 0.621636 0.274549
vn 0.733617 0.621636 -0.274545
vn 0.733617 0.621636 -0.274545
vn 0.733617 0.621636 -0.274545
vn 0.733617 0.621636 -0.274545
vn 0.230453 -0.701034 -0.674865
vn 0.230453 -0.701034 -0.674865
vn 0.230453 -0.701034 -0.674865
vn 0.230453 -0.701034 -0.674865
vn -0.287321 -0.618685 -0.731215
vn -0.287321 -0.618685 -0.731215
vn -0.287321 -0.618685 -0.731215
vn -0.287321 -0.618685 -0.731215
vn -0.287322 -0.618685 -0.731215
vn -0.703085 -0.663444 -0.255957
vn -0.703085 -0.663444 -0.255957
vn -0.703085 -0.663444 -0.255957
vn -0.703085 -0.663444 -0.255957
vn -0.703085 -0.663444 -0.255957
vn -0.736412 -0.619206 0.272546
vn -0.736412 -0.619206 0.272546
vn -0.736412 -0.619206 0.272546
vn -0.736412 -0.619206 0.272546
vn -0.297772 -0.668909 0.681097
vn -0.297772 -0.668909 0.681097
vn -0.297772 -0.668909 0.681097
vn -0.297772 -0.668909 0.681097
vn 0.316316 -0.705078 0.634673
vn 0.316316 -0.705078 0.634673
vn 0.316316 -0.705078 0.634673
vn 0.316316 -0.705078 0.634673
vn 0.713441 -0.619206 0.328004
vn 0.713441 -0.619206 0.328004
vn 0.713441 -0.619206 0.328004
vn 0.713441 -0.619206 0.328004
vn 0.692095 -0.669058 -0.270860
vn 0.692095 -0.669058 -0.270860
vn 0.692095 -0.669058 -0.270860
vn 0.692095 -0.669058 -0.270860
vn 0.342782 0.462851 -0.817478
vn 0.342782 0.462851 -0.817478
vn 0.342782 0.462851 -0.817478
vn 0.342782 0.462851 -0.817478
vn -0.843316 0.461780 -0.274912
vn -0.843316 0.461780 -0.274912
vn -0.843316 0.461780 -0.274912
vn -0.843316 0.461780 -0.274912
vn -0.818945 0.462881 0.339220
vn -0.818945 0.462881 0.339220
vn -0.818945 0.462881 0.339220
vn -0.818945 0.462881 0.339220
vn -0.334323 0.462882 0.820956
vn -0.334323 0.462882 0.820956
vn -0.334323 0.462882 0.820956
vn -0.334323 0.462882 0.820956
vn 0.337683 0.462887 0.819576
vn 0.337683 0.462887 0.819576
vn 0.337683 0.462887 0.819576
vn 0.337683 0.462887 0.819576
vn 0.818945 0.462881 0.339221
vn 0.818945 0.462881 0.339221
vn 0.818945 0.462881 0.339221
vn 0.818945 0.462881 0.339221
vn 0.819057 0.462875 -0.338957
vn 0.819057 0.462875 -0.338957
vn 0.819058 0.462875 -0.338957
vn 0.819058 0.462875 -0.338957
vn -0.276840 0.542831 0.792902
vn -0.276840 0.542831 0.792902
vn -0.276840 0.542831 0.792902
vn -0.276840 0.542831 0.792902
vn 0.783173 0.546234 0.297100
vn 0.783173 0.546234 0.297100
vn 0.783173 0.546234 0.297100
vn 0.783173 0.546234 0.297100
vn 0.783173 0.546234 0.297100
vn 0.796060 0.507503 -0.329741
vn 0.796060 0.507503 -0.329741
vn 0.796060 0.507503 -0.329741
vn 0.796060 0.507503 -0.329741
vn 0.366345 0.544241 -0.754714
vn 0.366345 0.544241 -0.754714
vn 0.366345 0.544241 -0.754714
vn 0.366345 0.544241 -0.754714
vn -0.368282 0.546163 -0.752379
vn -0.368282 0.546163 -0.752379
vn -0.368282 0.546163 -0.752379
vn -0.368282 0.546163 -0.752380
vn -0.796060 0.507503 -0.329742
vn -0.796060 0.507503 -0.329742
vn -0.796060 0.507503 -0.329742
vn -0.796060 0.507503 -0.329742
vn -0.792595 0.545004 0.273429
vn -0.792595 0.545004 0.273430
vn -0.792595 0.545004 0.273429
vn -0.792595 0.545004 0.273429
vn -0.372564 -0.228413 0.899458
vn -0.372564 -0.228413 0.899458
vn -0.372564 -0.228413 0.899458
vn -0.372564 -0.228413 0.899458
vn 0.372564 -0.228413 0.899458
vn 0.372564 -0.228413 0.899458
vn 0.372564 -0.228413 0.899458
vn 0.372564 -0.228413 0.899458
vn 0.899457 -0.228419 0.372562
vn 0.899457 -0.228419 0.372562
vn 0.899457 -0.228419 0.372562
vn 0.899457 -0.228419 0.372562
vn 0.899453 -0.228419 -0.372570
vn 0.899453 -0.228419 -0.372570
vn 0.899453 -0.228419 -0.372570
vn 0.899453 -0.228419 -0.372570
vn 0.372564 -0.228413 -0.899458
vn 0.372564 -0.228413 -0.899458
vn 0.372564 -0.228413 -0.899458
vn 0.372564 -0.228413 -0.899458
vn -0.372564 -0.228413 -0.899458
vn -0.372564 -0.228413 -0.899458
vn -0.372564 -0.228413 -0.899458
vn -0.372564 -0.228413 -0.899458
vn -0.899453 -0.228419 -0.372570
vn -0.899454 -0.228419 -0.372570
vn -0.899454 -0.228419 -0.372570
vn -0.899453 -0.228419 -0.372570
vn -0.899457 -0.228418 0.372562
vn -0.899457 -0.228418 0.372562
vn -0.899457 -0.228418 0.372562
vn -0.899457 -0.228418 0.372562
vn -0.909251 0.177252 0.376623
vn -0.909250 0.177252 0.376623
vn -0.909250 0.177252 0.376623
vn -0.909252 0.177254 -0.376620
vn -0.909252 0.177254 -0.376620
vn -0.909252 0.177254 -0.376620
vn -0.376612 0.177253 -0.909255
vn -0.376612 0.177253 -0.909255
vn -0.376612 0.177253 -0.909255
vn 0.376612 0.177253 -0.909255
vn 0.376612 0.177253 -0.909255
vn 0.376612 0.177253 -0.909255
vn 0.909252 0.177254 -0.376619
vn 0.909252 0.177254 -0.376619
vn 0.909252 0.177254 -0.376619
vn 0.909251 0.177252 0.376623
vn 0.909251 0.177252 0.376623
vn 0.909251 0.177252 0.376623
vn 0.376621 0.177247 0.909252
vn 0.376621 0.177247 0.909252
vn 0.376621 0.177247 0.909252
vn -0.376621 0.177247 0.909252
vn -0.376621 0.177247 0.909252
vn -0.376621 0.177247 0.909252
vn -0.404999 -0.053402 0.912756
vn -0.404999 -0.053402 0.912756
vn -0.404999 -0.053402 0.912756
vn 0.359047 -0.053397 0.931791
vn 0.359047 -0.053397 0.931791
vn 0.359047 -0.053397 0.931791
vn 0.920283 -0.044091 0.388761
vn 0.920283 -0.044091 0.388761
vn 0.920283 -0.044091 0.388761
vn 0.920283 -0.044091 0.388761
vn 0.931789 -0.053395 -0.359052
vn 0.931789 -0.053395 -0.359052
vn 0.931789 -0.053395 -0.359052
vn 0.388756 -0.044089 -0.920285
vn 0.388756 -0.044089 -0.920285
vn 0.388756 -0.044089 -0.920285
vn 0.388756 -0.044089 -0.920285
vn -0.359047 -0.053397 -0.931791
vn -0.359047 -0.053397 -0.931791
vn -0.359047 -0.053397 -0.931791
vn -0.920285 -0.044092 -0.388756
vn -0.920285 -0.044092 -0.388756
vn -0.920285 -0.044092 -0.388756
vn -0.920285 -0.044092 -0.388756
vn -0.931789 -0.053396 0.359051
vn -0.931789 -0.053396 0.359051
vn -0.931789 -0.053396 0.359051
vn 0.317336 0.141109 0.937756
vn 0.317337 0.141109 0.937756
vn 0.317337 0.141109 0.937756
vn 0.438708 0.141104 0.887483
vn 0.438708 0.141104 0.887483
vn 0.438708 0.141104 0.887483
vn 0.887480 0.141106 0.438711
vn 0.887480 0.141106 0.438711
vn 0.887480 0.141106 0.438711
vn 0.937758 0.141110 0.317330
vn 0.937758 0.141110 0.317330
vn 0.937758 0.141110 0.317330
vn 0.937760 0.141110 -0.317324
vn 0.937760 0.141110 -0.317324
vn 0.937760 0.141110 -0.317324
vn 0.887480 0.141106 -0.438711
vn 0.887480 0.141106 -0.438711
vn 0.887480 0.141106 -0.438711
vn 0.438707 0.141104 -0.887483
vn 0.438707 0.141104 -0.887483
vn 0.438707 0.141104 -0.887483
vn 0.317320 0.141110 -0.937761
vn 0.317320 0.141110 -0.937761
vn 0.317320 0.141110 -0.937761
vn -0.317319 0.141110 -0.937761
vn -0.317319 0.141110 -0.937761
vn -0.317319 0.141110 -0.937761
vn -0.438707 0.141104 -0.887483
vn -0.438707 0.141104 -0.887483
vn -0.438707 0.141104 -0.887483
vn -0.887480 0.141107 -0.438711
vn -0.887480 0.141107 -0.438711
vn -0.887480 0.141107 -0.438711
vn -0.937761 0.141109 -0.317322
vn -0.937761 0.141109 -0.317322
vn -0.937760 0.141109 -0.317322
vn -0.937759 0.141109 0.317328
vn -0.937759 0.141109 0.317328
vn -0.937759 0.141109 0.317328
vn -0.887480 0.141107 0.438712
vn -0.887480 0.141107 0.438712
vn -0.887480 0.141107 0.438712
vn -0.438707 0.141104 0.887483
vn -0.438707 0.141104 0.887483
vn -0.438707 0.141104 0.887483
vn -0.317336 0.141109 0.937756
vn -0.317337 0.141109 0.937756
vn -0.317337 0.141109 0.937756
vn 0.329748 0.507500 0.796059
vn 0.329748 0.507500 0.796059
vn 0.329748 0.507500 0.796059
vn 0.329748 0.507500 0.796059
vn 0.329748 0.507500 0.796059
vn -0.339227 0.462858 -0.818955
vn -0.339227 0.462858 -0.818955
vn -0.339227 0.462858 -0.818955
vn -0.339227 0.462858 -0.818955
vn 0.481570 0.203531 -0.852447
vn 0.481570 0.203531 -0.852447
vn 0.481570 0.203531 -0.852447
vn 0.481570 0.203531 -0.852447
vn -0.927240 0.372249 -0.040718
vn -0.927239 0.372249 -0.040718
vn -0.927240 0.372249 -0.040718
vn -0.927239 0.372249 -0.040718
s off
f 9/4/1 1/1/2 2/2/3 10/3/4
f 11/6/5 10/3/6 2/2/7 3/5/8
f 11/6/9 3/5/10 4/7/11 12/8/12
f 13/10/13 12/8/14 4/7/15 5/9/16
f 14/12/17 13/10/18 5/9/19 6/11/20
f 15/14/21 14/12/22 6/11/23 7/13/24
f 15/14/25 7/13/26 8/15/27 16/16/28
f 9/4/29 16/16/30 8/15/31 1/1/32
f 2/2/33 1/1/34 17/17/35
f 3/5/36 2/2/37 17/17/38
f 4/7/39 3/5/40 17/17/41
f 5/9/42 4/7/43 17/17/44
f 6/11/45 5/9/46 17/17/47
f 7/13/48 6/11/49 17/17/50
f 8/15/51 7/13/52 17/17/53
f 1/1/54 8/15/55 17/17/56
f 58/25/57 59/24/58 60/36/59
f 59/24/60 61/23/61 60/36/62
f 61/23/63 62/22/64 60/36/65
f 62/22/66 63/21/67 60/36/68
f 63/21/69 64/20/70 60/36/71
f 64/20/72 65/19/73 60/36/74
f 65/19/75 66/18/76 60/36/77
f 66/18/78 58/25/79 60/36/80
f 9/27/81 79/99/82 71/30/83
f 10/28/84 11/31/85 80/101/86 70/29/87
f 11/31/88 81/103/89 69/32/90
f 12/33/91 13/83/92 82/105/93 68/34/94
f 13/83/95 14/85/96 75/91/97 67/84/98
f 14/85/99 15/87/100 76/93/101 74/86/102
f 15/87/103 77/95/104 73/88/105
f 16/89/106 9/27/107 78/97/108 72/90/109
f 26/45/110 18/37/111 19/38/112 27/46/113
f 27/46/114 19/38/115 20/39/116 28/47/117
f 28/47/118 20/39/119 21/40/120 29/48/121
f 29/48/122 21/40/123 22/41/124 30/49/125
f 30/49/126 22/41/127 23/42/128 31/50/129
f 31/50/130 23/42/131 24/43/132 32/51/133
f 32/51/134 24/43/135 25/44/136 33/52/137
f 33/52/138 25/44/139 18/37/140 26/45/141
f 34/53/142 26/45/143 27/46/144 35/54/145
f 35/54/146 27/46/147 28/47/148 86/110/149 85/109/150
f 36/55/151 86/110/152 28/47/153 29/48/154 37/56/155
f 37/56/156 29/48/157 30/49/158 38/57/159
f 38/57/160 30/49/161 31/50/162 39/58/163
f 39/58/164 31/50/165 32/51/166 40/59/167
f 40/59/168 32/51/169 33/52/170 41/60/171
f 41/60/172 33/52/173 26/45/174 34/53/175
f 42/61/176 34/53/177 35/54/178 43/62/179
f 44/63/180 36/55/181 37/56/182 45/64/183
f 45/64/184 37/56/185 38/57/186 46/65/187
f 46/65/188 38/57/189 39/58/190 47/66/191
f 47/66/192 39/58/193 40/59/194 48/67/195
f 48/67/196 40/59/197 41/60/198 49/68/199
f 49/68/200 41/60/201 34/53/202 42/61/203
f 50/69/204 42/61/205 43/62/206 51/70/207
f 52/71/208 83/107/209 44/63/210 45/64/211 53/72/212
f 53/72/213 45/64/214 46/65/215 54/73/216
f 54/73/217 46/65/218 47/66/219 55/74/220
f 55/74/221 47/66/222 48/67/223 56/35/224
f 56/35/225 48/67/226 49/68/227 57/26/228
f 57/26/229 49/68/230 42/61/231 50/69/232
f 59/24/233 58/25/234 50/69/235 51/70/236
f 61/23/237 59/24/238 51/70/239 52/71/240
f 62/22/241 61/23/242 52/71/243 53/72/244
f 63/21/245 62/22/246 53/72/247 54/73/248
f 64/20/249 63/21/250 54/73/251 55/74/252
f 65/19/253 64/20/254 55/74/255 56/35/256
f 66/18/257 65/19/258 56/35/259 57/26/260
f 58/25/261 66/18/262 57/26/263 50/69/264
f 21/40/265 82/106/266 22/41/267
f 20/39/268 81/104/269 21/40/270
f 19/38/271 80/102/272 20/39/273
f 18/37/274 79/100/275 19/38/276
f 25/44/277 78/98/278 18/37/279
f 24/43/280 77/96/281 25/44/282
f 23/42/283 76/94/284 24/43/285
f 22/41/286 75/92/287 23/42/288
f 75/91/289 14/85/290 74/86/291
f 76/93/292 15/87/293 73/88/294
f 77/95/295 15/87/296 16/89/297 72/90/298
f 78/97/299 9/27/300 71/30/301
f 79/99/302 9/27/303 10/28/304 70/29/305
f 80/101/306 11/31/307 69/32/308
f 81/103/309 11/31/310 12/33/311 68/34/312
f 82/105/313 13/83/314 67/84/315
f 23/42/316 74/82/317 76/94/318
f 24/43/319 76/94/320 73/81/321
f 24/43/322 73/81/323 77/96/324
f 25/44/325 77/96/326 72/80/327
f 25/44/328 72/80/329 78/98/330
f 18/37/331 78/98/332 71/79/333
f 18/37/334 71/79/335 79/100/336
f 19/38/337 79/100/338 70/78/339
f 19/38/340 70/78/341 80/102/342
f 20/39/343 80/102/344 69/77/345
f 20/39/346 69/77/347 81/104/348
f 21/40/349 81/104/350 68/76/351
f 21/40/352 68/76/353 82/106/354
f 22/41/355 82/106/356 67/75/357
f 22/41/358 67/75/359 75/92/360
f 23/42/361 75/92/362 74/82/363
f 51/70/364 43/62/365 84/108/366 83/107/367 52/71/368
f 43/62/369 35/54/370 85/109/371 84/108/372
f 86/111/373 36/112/374 44/113/375 83/114/376
f 85/115/377 86/111/378 83/114/379 84/116/380
