# This file uses centimeters as units for non-parametric coordinates.

v 0.042956 0.208144 0.053425
v 0.038993 0.249628 0.054127
v 0.052569 0.249628 0.060364
v 0.049409 0.249628 0.045761
v 0.048003 0.208144 0.049377
v 0.049529 0.208144 0.056442
v -0.077432 0.206259 0.037807
v -0.077189 0.237139 0.034821
v -0.084245 0.237139 0.043411
v -0.073140 0.237139 0.043903
v -0.075473 0.206259 0.042202
v -0.080853 0.206259 0.041969
v -0.011617 0.270480 -0.042614
v -0.015891 0.315220 -0.041851
v -0.001252 0.315220 -0.035133
v -0.004653 0.315220 -0.050880
v -0.006173 0.270480 -0.046982
v -0.004525 0.270480 -0.039360
v 0.048102 0.106890 -0.049065
v 0.013968 0.128874 -0.091553
v -0.039893 0.106890 -0.083241
v -0.059628 0.128874 -0.032433
v -0.025495 0.106890 0.010059
v 0.028369 0.128874 0.001740
v 0.048102 0.306514 -0.049065
v 0.013968 0.306514 -0.091553
v -0.039893 0.306514 -0.083241
v -0.059628 0.282603 -0.032433
v -0.025495 0.282603 0.010059
v 0.028369 0.282603 0.001740
v -0.005765 0.280827 -0.040749
v 0.134089 0.049583 -0.062332
v 0.045470 0.049583 -0.172653
v -0.005765 0.000000 -0.040749
v -0.094384 0.049583 -0.151070
v -0.145616 0.049583 -0.019165
v -0.056996 0.049583 0.091164
v 0.082862 0.049583 0.069576
v -0.047372 0.049583 -0.143448
v 0.101083 0.147257 0.044262
v 0.066947 0.159382 0.001770
v 0.013083 0.159382 0.010082
v -0.006650 0.147257 0.060886
v 0.027486 0.147257 0.103378
v 0.081346 0.159382 0.095070
v 0.101083 0.242070 0.044262
v 0.066947 0.242070 0.001770
v 0.013083 0.242070 0.010082
v -0.006650 0.242070 0.060886
v 0.027486 0.206632 0.103378
v 0.081346 0.206632 0.095070
v 0.047217 0.216383 0.052574
v 0.174531 0.049583 0.032921
v 0.093854 0.049583 -0.067509
v 0.047217 0.000000 0.052574
v -0.033460 0.049583 -0.047859
v -0.080100 0.049583 0.072227
v 0.000577 0.049583 0.172657
v 0.127887 0.049583 0.153004
v 0.033914 0.049583 0.153664
v -0.037694 0.104293 0.034901
v -0.064313 0.104293 0.001762
v -0.106326 0.089704 0.008244
v -0.121713 0.104293 0.047871
v -0.095094 0.089704 0.081013
v -0.053084 0.104293 0.074532
v -0.037694 0.239088 0.034901
v -0.064313 0.239088 0.001762
v -0.106326 0.210214 0.008244
v -0.121713 0.210214 0.047871
v -0.095094 0.210214 0.081013
v -0.053084 0.239088 0.074532
v -0.079705 0.213400 0.041386
v 0.015115 0.049583 0.026752
v -0.044967 0.049583 -0.048046
v -0.079705 0.000000 0.041386
v -0.117732 0.049583 -0.018822
v -0.174523 0.049583 0.056019
v -0.114442 0.049583 0.130821
v -0.019624 0.049583 0.116188
vt 0.109221 0.010735
vt 0.109221 0.010735
vt 0.109221 0.010735
vt 0.109221 0.010735
vt 0.109221 0.010735
vt 0.109221 0.010735
vt 0.109221 0.010735
vt 0.109221 0.010735
vt 0.109221 0.010735
vt 0.109221 0.010735
vt 0.109221 0.010735
vt 0.109221 0.010735
vt 0.109221 0.010735
vt 0.109221 0.010735
vt 0.109221 0.010735
vt 0.109221 0.010735
vt 0.109221 0.010735
vt 0.109221 0.010735
vt 0.109221 0.010735
vt 0.109221 0.010735
vt 0.109221 0.010735
vt 0.109221 0.010735
vt 0.109221 0.010735
vt 0.109221 0.010735
vt 0.109221 0.010735
vt 0.109221 0.010735
vt 0.109221 0.010735
vt 0.040658 0.108546
vt 0.040926 0.113488
vt 0.040926 0.153428
vt 0.040658 0.153428
vt 0.040874 0.108546
vt 0.040874 0.153428
vt 0.040553 0.113488
vt 0.040553 0.148052
vt 0.040284 0.108546
vt 0.040284 0.148052
vt 0.040337 0.113488
vt 0.040337 0.148052
vt 0.041439 0.095661
vt 0.040742 0.095661
vt 0.040605 0.084513
vt 0.041303 0.095661
vt 0.041254 0.095661
vt 0.040469 0.095661
vt 0.039771 0.095661
vt 0.039908 0.095661
vt 0.040605 0.147653
vt 0.040663 0.126436
vt 0.040958 0.129888
vt 0.040958 0.153428
vt 0.040663 0.153428
vt 0.040900 0.129888
vt 0.040900 0.153428
vt 0.040547 0.126436
vt 0.040547 0.153428
vt 0.040252 0.126436
vt 0.040252 0.143339
vt 0.040310 0.129888
vt 0.040310 0.143339
vt 0.041439 0.098629
vt 0.040742 0.098629
vt 0.040605 0.084513
vt 0.041303 0.098629
vt 0.040469 0.098629
vt 0.039771 0.098629
vt 0.039903 0.098629
vt 0.039908 0.098629
vt 0.040605 0.146115
vt 0.040666 0.114575
vt 0.040975 0.114575
vt 0.040975 0.153428
vt 0.040666 0.153428
vt 0.040914 0.110370
vt 0.040914 0.145106
vt 0.040545 0.114575
vt 0.040545 0.145106
vt 0.040236 0.110370
vt 0.040236 0.145106
vt 0.040296 0.114575
vt 0.040296 0.153428
vt 0.041439 0.098805
vt 0.040742 0.098805
vt 0.040605 0.084513
vt 0.041167 0.098805
vt 0.040469 0.098805
vt 0.039771 0.098805
vt 0.039908 0.098805
vt 0.040605 0.146024
vn -0.416741 -0.055199 0.907348
vn -0.416741 -0.055199 0.907348
vn -0.416741 -0.055199 0.907348
vn -0.416741 -0.055199 0.907348
vn 0.000000 1.000000 0.000000
vn 0.000000 1.000000 0.000000
vn 0.000000 1.000000 0.000000
vn 0.976102 -0.051530 -0.211116
vn 0.976102 -0.051530 -0.211116
vn 0.976102 -0.051530 -0.211116
vn 0.976102 -0.051530 -0.211116
vn -0.625327 -0.046640 -0.778968
vn -0.625327 -0.046640 -0.778968
vn -0.625327 -0.046640 -0.778968
vn -0.625327 -0.046640 -0.778968
vn -0.771496 -0.055193 -0.633836
vn -0.771496 -0.055193 -0.633836
vn -0.771496 -0.055193 -0.633836
vn -0.771496 -0.055193 -0.633836
vn 0.000000 1.000000 0.000000
vn 0.000000 1.000000 0.000000
vn 0.000000 1.000000 0.000000
vn -0.043865 -0.051531 0.997708
vn -0.043865 -0.051531 0.997708
vn -0.043865 -0.051531 0.997708
vn -0.043865 -0.051531 0.997708
vn 0.912364 -0.046505 -0.406729
vn 0.912364 -0.046505 -0.406729
vn 0.912364 -0.046505 -0.406729
vn 0.912364 -0.046505 -0.406729
vn -0.416426 -0.055264 0.907488
vn -0.416426 -0.055264 0.907488
vn -0.416426 -0.055264 0.907488
vn -0.416426 -0.055264 0.907488
vn 0.000000 1.000000 -0.000004
vn 0.000000 1.000000 -0.000004
vn 0.000000 1.000000 -0.000004
vn 0.976151 -0.051516 -0.210894
vn 0.976151 -0.051516 -0.210894
vn 0.976151 -0.051516 -0.210894
vn 0.976151 -0.051516 -0.210894
vn -0.625494 -0.046546 -0.778839
vn -0.625494 -0.046546 -0.778839
vn -0.625494 -0.046546 -0.778839
vn -0.625494 -0.046546 -0.778839
vn 0.779583 0.000000 -0.626298
vn 0.779583 0.000000 -0.626298
vn 0.779583 0.000000 -0.626298
vn 0.779583 0.000000 -0.626298
vn -0.152520 0.000000 -0.988300
vn -0.152520 0.000000 -0.988300
vn -0.152520 0.000000 -0.988300
vn -0.152520 0.000000 -0.988300
vn -0.932149 0.000000 -0.362075
vn -0.932149 0.000000 -0.362075
vn -0.932149 0.000000 -0.362075
vn -0.932149 0.000000 -0.362075
vn -0.779611 0.000000 0.626264
vn -0.779611 0.000000 0.626264
vn -0.779611 0.000000 0.626264
vn -0.779611 0.000000 0.626264
vn 0.152651 0.000000 0.988280
vn 0.152651 0.000000 0.988280
vn 0.152651 0.000000 0.988280
vn 0.152651 0.000000 0.988280
vn 0.932152 0.000000 0.362068
vn 0.932152 0.000000 0.362068
vn 0.932152 0.000000 0.362068
vn 0.932152 0.000000 0.362068
vn 0.292402 -0.927002 -0.234882
vn 0.292402 -0.927002 -0.234882
vn 0.292402 -0.927002 -0.234882
vn 0.074220 -0.885951 -0.457802
vn 0.074220 -0.885951 -0.457802
vn 0.074220 -0.885951 -0.457802
vn -0.349616 -0.927000 -0.135790
vn -0.349616 -0.927000 -0.135790
vn -0.349616 -0.927000 -0.135790
vn -0.292411 -0.927001 0.234873
vn -0.292411 -0.927001 0.234873
vn -0.292411 -0.927001 0.234873
vn 0.057212 -0.927005 0.370659
vn 0.057212 -0.927005 0.370659
vn 0.057212 -0.927005 0.370659
vn 0.349606 -0.927007 0.135772
vn 0.349606 -0.927007 0.135772
vn 0.349606 -0.927007 0.135772
vn -0.372642 0.878359 0.299373
vn -0.372642 0.878359 0.299373
vn -0.372642 0.878359 0.299373
vn 0.072908 0.878349 0.472427
vn 0.072908 0.878349 0.472427
vn 0.072908 0.878349 0.472427
vn 0.099439 0.884886 0.455070
vn 0.099439 0.884886 0.455070
vn 0.099439 0.884886 0.455070
vn 0.029317 0.999293 -0.023550
vn 0.029317 0.999293 -0.023550
vn 0.029317 0.999293 -0.023550
vn -0.005740 0.999293 -0.037164
vn -0.005740 0.999293 -0.037164
vn -0.005740 0.999293 -0.037164
vn -0.380494 0.884891 0.268686
vn -0.380494 0.884891 0.268686
vn -0.380494 0.884891 0.268686
vn 0.573650 0.738369 -0.354594
vn 0.573650 0.738369 -0.354594
vn 0.573650 0.738369 -0.354594
vn 0.573650 0.738369 -0.354594
vn -0.377762 0.693647 -0.613311
vn -0.377762 0.693647 -0.613311
vn -0.377762 0.693647 -0.613311
vn -0.593890 0.738382 -0.319511
vn -0.593890 0.738382 -0.319511
vn -0.593890 0.738382 -0.319511
vn -0.593890 0.738382 -0.319511
vn -0.469941 0.738372 0.483697
vn -0.469941 0.738372 0.483697
vn -0.469941 0.738372 0.483697
vn -0.469941 0.738372 0.483697
vn 0.020272 0.738390 0.674069
vn 0.020272 0.738390 0.674069
vn 0.020272 0.738390 0.674069
vn 0.020272 0.738390 0.674069
vn 0.653853 0.738389 0.165099
vn 0.653853 0.738389 0.165099
vn 0.653853 0.738389 0.165099
vn 0.653853 0.738389 0.165099
vn -0.227908 0.650496 -0.724508
vn -0.227908 0.650497 -0.724508
vn -0.227908 0.650497 -0.724508
vn 0.112249 0.712759 -0.692369
vn 0.112249 0.712759 -0.692369
vn 0.112249 0.712759 -0.692369
vn -0.122891 -0.912294 -0.390664
vn -0.122891 -0.912294 -0.390664
vn -0.122891 -0.912294 -0.390664
vn 0.779594 0.000000 -0.626286
vn 0.779594 0.000000 -0.626286
vn 0.779594 0.000000 -0.626286
vn 0.779594 0.000000 -0.626286
vn -0.152515 0.000000 -0.988301
vn -0.152515 0.000000 -0.988301
vn -0.152515 0.000000 -0.988301
vn -0.152515 0.000000 -0.988301
vn -0.932152 0.000000 -0.362068
vn -0.932152 0.000000 -0.362068
vn -0.932152 0.000000 -0.362068
vn -0.932152 0.000000 -0.362068
vn -0.779594 0.000000 0.626286
vn -0.779594 0.000000 0.626286
vn -0.779594 0.000000 0.626286
vn -0.779594 0.000000 0.626286
vn 0.152457 0.000000 0.988310
vn 0.152457 0.000000 0.988310
vn 0.152457 0.000000 0.988310
vn 0.152457 0.000000 0.988310
vn 0.932137 0.000000 0.362105
vn 0.932137 0.000000 0.362105
vn 0.932137 0.000000 0.362105
vn 0.932137 0.000000 0.362105
vn 0.316624 -0.913814 -0.254350
vn 0.316624 -0.913814 -0.254350
vn 0.316624 -0.913814 -0.254350
vn -0.061948 -0.913815 -0.401377
vn -0.061948 -0.913815 -0.401377
vn -0.061948 -0.913815 -0.401377
vn -0.378575 -0.913817 -0.147035
vn -0.378575 -0.913817 -0.147035
vn -0.378575 -0.913817 -0.147035
vn -0.316617 -0.913818 0.254345
vn -0.316617 -0.913818 0.254345
vn -0.316617 -0.913818 0.254345
vn 0.257876 -0.853604 0.452616
vn 0.257876 -0.853604 0.452616
vn 0.257876 -0.853604 0.452616
vn 0.378587 -0.913809 0.147056
vn 0.378587 -0.913809 0.147056
vn 0.378587 -0.913809 0.147056
vn -0.372668 0.878345 0.299382
vn -0.372668 0.878345 0.299382
vn -0.372668 0.878345 0.299382
vn 0.072904 0.878352 0.472422
vn 0.072904 0.878352 0.472422
vn 0.072904 0.878352 0.472422
vn 0.445566 0.878362 0.173067
vn 0.445566 0.878361 0.173067
vn 0.445566 0.878361 0.173067
vn 0.447237 0.830109 0.333015
vn 0.447237 0.830109 0.333015
vn 0.447237 0.830109 0.333015
vn 0.030841 0.979325 0.199931
vn 0.030841 0.979325 0.199931
vn 0.030841 0.979325 0.199931
vn -0.326065 0.830111 0.452325
vn -0.326065 0.830111 0.452325
vn -0.326065 0.830111 0.452325
vn 0.683874 0.526896 -0.504675
vn 0.683874 0.526896 -0.504675
vn 0.683874 0.526896 -0.504675
vn 0.683874 0.526896 -0.504675
vn -0.131586 0.505709 -0.852610
vn -0.131586 0.505709 -0.852610
vn -0.131586 0.505709 -0.852610
vn -0.131586 0.505709 -0.852610
vn -0.804224 0.526888 -0.274976
vn -0.804224 0.526888 -0.274976
vn -0.804224 0.526888 -0.274976
vn -0.804224 0.526888 -0.274976
vn -0.650969 0.550247 0.522941
vn -0.650969 0.550247 0.522942
vn -0.650969 0.550247 0.522941
vn -0.650969 0.550247 0.522942
vn 0.033555 0.459215 0.887691
vn 0.033555 0.459215 0.887691
vn 0.033555 0.459215 0.887691
vn 0.804223 0.526871 0.275013
vn 0.804223 0.526871 0.275013
vn 0.804223 0.526871 0.275013
vn 0.804223 0.526871 0.275013
vn 0.446304 0.432655 0.783340
vn 0.446304 0.432655 0.783340
vn 0.446304 0.432655 0.783340
vn 0.006203 0.468705 0.883333
vn 0.006203 0.468705 0.883333
vn 0.006203 0.468705 0.883333
vn 0.003095 -0.897653 0.440691
vn 0.003095 -0.897653 0.440691
vn 0.003095 -0.897653 0.440691
vn 0.779624 0.000000 -0.626248
vn 0.779624 0.000000 -0.626248
vn 0.779624 0.000000 -0.626248
vn 0.779624 0.000000 -0.626248
vn -0.152462 0.000000 -0.988309
vn -0.152462 0.000000 -0.988309
vn -0.152462 0.000000 -0.988309
vn -0.152462 0.000000 -0.988309
vn -0.932195 0.000000 -0.361957
vn -0.932195 0.000000 -0.361957
vn -0.932195 0.000000 -0.361957
vn -0.932195 0.000000 -0.361957
vn -0.779659 0.000000 0.626204
vn -0.779659 0.000000 0.626204
vn -0.779659 0.000000 0.626204
vn -0.779659 0.000000 0.626204
vn 0.152475 0.000000 0.988307
vn 0.152475 0.000000 0.988307
vn 0.152475 0.000000 0.988307
vn 0.152475 0.000000 0.988307
vn 0.932176 0.000000 0.362005
vn 0.932176 0.000000 0.362005
vn 0.932176 0.000000 0.362005
vn 0.932176 0.000000 0.362005
vn 0.399514 -0.858724 -0.320907
vn 0.399514 -0.858724 -0.320907
vn 0.399514 -0.858724 -0.320907
vn -0.215334 -0.816191 -0.536156
vn -0.215334 -0.816191 -0.536156
vn -0.215334 -0.816191 -0.536156
vn -0.475306 -0.802493 -0.360677
vn -0.475306 -0.802494 -0.360677
vn -0.475306 -0.802494 -0.360677
vn -0.399523 -0.858723 0.320898
vn -0.399523 -0.858723 0.320898
vn -0.399523 -0.858723 0.320898
vn 0.078157 -0.858730 0.506433
vn 0.078157 -0.858730 0.506433
vn 0.078157 -0.858730 0.506433
vn 0.477672 -0.858723 0.185537
vn 0.477672 -0.858723 0.185537
vn 0.477672 -0.858723 0.185537
vn -0.446122 0.820095 0.358356
vn -0.446122 0.820096 0.358356
vn -0.446122 0.820096 0.358356
vn -0.500981 0.801993 0.325309
vn -0.500981 0.801993 0.325309
vn -0.500981 0.801993 0.325309
vn -0.080379 0.996276 -0.031210
vn -0.080379 0.996276 -0.031210
vn -0.080379 0.996276 -0.031210
vn -0.067226 0.996276 0.053993
vn -0.067225 0.996276 0.053993
vn -0.067225 0.996276 0.053993
vn -0.575760 0.801989 -0.159107
vn -0.575760 0.801989 -0.159107
vn -0.575760 0.801989 -0.159107
vn -0.533415 0.820096 -0.207148
vn -0.533415 0.820096 -0.207148
vn -0.533415 0.820096 -0.207148
vn 0.595259 0.645792 -0.478142
vn 0.595259 0.645792 -0.478142
vn 0.595259 0.645792 -0.478142
vn 0.595259 0.645792 -0.478142
vn -0.307939 0.583427 -0.751523
vn -0.307939 0.583427 -0.751523
vn -0.307939 0.583427 -0.751523
vn -0.307939 0.583427 -0.751523
vn -0.671180 0.552982 -0.493689
vn -0.671180 0.552982 -0.493689
vn -0.671180 0.552982 -0.493689
vn -0.671180 0.552982 -0.493689
vn -0.510496 0.696569 0.504167
vn -0.510496 0.696569 0.504167
vn -0.510496 0.696569 0.504167
vn -0.510496 0.696569 0.504167
vn 0.036314 0.696552 0.716587
vn 0.036314 0.696552 0.716587
vn 0.036314 0.696552 0.716587
vn 0.036314 0.696552 0.716587
vn 0.711718 0.645789 0.276429
vn 0.711718 0.645789 0.276429
vn 0.711718 0.645790 0.276429
vn 0.711718 0.645790 0.276429
s off
f 1/1/1 6/2/2 3/3/3 2/4/4
f 2/4/5 3/3/6 4/5/7
f 4/5/8 3/3/9 6/6/10 5/7/11
f 5/8/12 1/1/13 2/4/14 4/9/15
f 7/10/16 12/11/17 9/12/18 8/13/19
f 8/13/20 9/12/21 10/14/22
f 10/14/23 9/12/24 12/15/25 11/16/26
f 11/17/27 7/10/28 8/13/29 10/18/30
f 13/19/31 18/20/32 15/21/33 14/22/34
f 14/22/35 15/21/36 16/23/37
f 16/23/38 15/21/39 18/24/40 17/25/41
f 17/26/42 13/19/43 14/22/44 16/27/45
f 19/28/46 20/29/47 26/30/48 25/31/49
f 20/29/50 21/32/51 27/33/52 26/30/53
f 21/32/54 22/34/55 28/35/56 27/33/57
f 22/34/58 23/36/59 29/37/60 28/35/61
f 23/36/62 24/38/63 30/39/64 29/37/65
f 24/38/66 19/28/67 25/31/68 30/39/69
f 33/40/70 32/41/71 34/42/72
f 35/43/73 39/44/74 34/42/75
f 36/45/76 35/43/77 34/42/78
f 37/46/79 36/45/80 34/42/81
f 38/47/82 37/46/83 34/42/84
f 32/41/85 38/47/86 34/42/87
f 25/31/88 26/30/89 31/48/90
f 26/30/91 27/33/92 31/48/93
f 27/33/94 28/35/95 31/48/96
f 28/35/97 29/37/98 31/48/99
f 29/37/100 30/39/101 31/48/102
f 30/39/103 25/31/104 31/48/105
f 20/29/106 19/28/107 32/41/108 33/40/109
f 21/32/110 20/29/111 39/44/112
f 22/34/113 21/32/114 35/43/115 36/45/116
f 23/36/117 22/34/118 36/45/119 37/46/120
f 24/38/121 23/36/122 37/46/123 38/47/124
f 19/28/125 24/38/126 38/47/127 32/41/128
f 39/44/129 20/29/130 33/40/131
f 21/32/132 39/44/133 35/43/134
f 34/42/135 39/44/136 33/40/137
f 40/49/138 41/50/139 47/51/140 46/52/141
f 41/50/142 42/53/143 48/54/144 47/51/145
f 42/53/146 43/55/147 49/56/148 48/54/149
f 43/55/150 44/57/151 50/58/152 49/56/153
f 44/57/154 45/59/155 51/60/156 50/58/157
f 45/59/158 40/49/159 46/52/160 51/60/161
f 54/61/162 53/62/163 55/63/164
f 56/64/165 54/61/166 55/63/167
f 57/65/168 56/64/169 55/63/170
f 58/66/171 57/65/172 55/63/173
f 55/63/174 60/67/175 58/66/176
f 53/62/177 59/68/178 55/63/179
f 46/52/180 47/51/181 52/69/182
f 47/51/183 48/54/184 52/69/185
f 48/54/186 49/56/187 52/69/188
f 49/56/189 50/58/190 52/69/191
f 50/58/192 51/60/193 52/69/194
f 51/60/195 46/52/196 52/69/197
f 41/50/198 40/49/199 53/62/200 54/61/201
f 42/53/202 41/50/203 54/61/204 56/64/205
f 43/55/206 42/53/207 56/64/208 57/65/209
f 44/57/210 43/55/211 57/65/212 58/66/213
f 45/59/214 44/57/215 60/67/216
f 40/49/217 45/59/218 59/68/219 53/62/220
f 60/67/221 44/57/222 58/66/223
f 45/59/224 60/67/225 59/68/226
f 59/68/227 60/67/228 55/63/229
f 61/70/230 62/71/231 68/72/232 67/73/233
f 62/71/234 63/74/235 69/75/236 68/72/237
f 63/74/238 64/76/239 70/77/240 69/75/241
f 64/76/242 65/78/243 71/79/244 70/77/245
f 65/78/246 66/80/247 72/81/248 71/79/249
f 66/80/250 61/70/251 67/73/252 72/81/253
f 75/82/254 74/83/255 76/84/256
f 77/85/257 75/82/258 76/84/259
f 78/86/260 77/85/261 76/84/262
f 79/87/263 78/86/264 76/84/265
f 80/88/266 79/87/267 76/84/268
f 74/83/269 80/88/270 76/84/271
f 67/73/272 68/72/273 73/89/274
f 68/72/275 69/75/276 73/89/277
f 69/75/278 70/77/279 73/89/280
f 70/77/281 71/79/282 73/89/283
f 71/79/284 72/81/285 73/89/286
f 72/81/287 67/73/288 73/89/289
f 62/71/290 61/70/291 74/83/292 75/82/293
f 63/74/294 62/71/295 75/82/296 77/85/297
f 64/76/298 63/74/299 77/85/300 78/86/301
f 65/78/302 64/76/303 78/86/304 79/87/305
f 66/80/306 65/78/307 79/87/308 80/88/309
f 61/70/310 66/80/311 80/88/312 74/83/313
