# This file uses centimeters as units for non-parametric coordinates.

v -0.076811 0.000000 0.128533
v -0.000828 0.000000 0.148299
v -0.076811 0.046639 0.128533
v -0.000828 0.046639 0.148299
v -0.010344 0.046639 -0.148300
v 0.076811 0.046639 -0.052999
v -0.010344 0.000000 -0.148300
v 0.076811 0.000000 -0.052999
vt 0.026894 0.346512
vt 0.026894 0.346512
vt 0.028164 0.301413
vt 0.026894 0.346512
vt 0.026894 0.346512
vt 0.028164 0.301413
vt 0.028164 0.301413
vt 0.026894 0.346512
vt 0.028164 0.301413
vt 0.028164 0.301413
vt 0.026894 0.346512
vt 0.026894 0.346512
vt 0.026894 0.346512
vt 0.026894 0.346512
vt 0.028164 0.301413
vt 0.026894 0.346512
vt 0.026894 0.346512
vt 0.026894 0.346512
vt 0.026894 0.346512
vt 0.028164 0.301413
vt 0.026894 0.346512
vt 0.028164 0.301413
vt 0.026894 0.346512
vt 0.026894 0.346512
vn -0.251762 0.000000 0.967789
vn -0.251762 0.000000 0.967789
vn -0.251762 0.000000 0.967789
vn -0.251762 0.000000 0.967789
vn 0.000000 1.000000 -0.000000
vn 0.000000 1.000000 -0.000000
vn 0.000000 1.000000 -0.000000
vn 0.000000 1.000000 -0.000000
vn 0.737943 0.000000 -0.674863
vn 0.737943 0.000000 -0.674863
vn 0.737943 0.000000 -0.674863
vn 0.737943 0.000000 -0.674863
vn 0.000000 -1.000000 0.000000
vn 0.000000 -1.000000 0.000000
vn 0.000000 -1.000000 0.000000
vn 0.000000 -1.000000 0.000000
vn 0.933009 0.000000 0.359854
vn 0.933009 0.000000 0.359854
vn 0.933009 0.000000 0.359854
vn 0.933009 0.000000 0.359854
vn -0.972366 0.000000 -0.233463
vn -0.972366 0.000000 -0.233463
vn -0.972366 0.000000 -0.233463
vn -0.972366 0.000000 -0.233463
s off
f 1/18/1 2/2/2 4/21/3 3/23/4
f 3/3/5 4/22/6 6/6/7 5/20/8
f 5/5/9 6/19/10 8/8/11 7/17/12
f 7/7/13 8/15/14 2/10/15 1/9/16
f 2/16/17 8/11/18 6/12/19 4/4/20
f 7/13/21 1/1/22 3/24/23 5/14/24
