# This file uses centimeters as units for non-parametric coordinates.

v -0.081581 0.796557 0.149822
v 0.118427 0.753692 0.136395
v -0.004223 0.192592 0.184837
v 0.057961 -1.049315 0.139278
v 0.003914 -0.815366 0.184967
v 0.056286 0.999280 0.047649
v 0.127594 -0.221616 0.133526
v 0.133526 -0.721616 0.127594
v -0.004227 -1.049741 0.184303
v -0.027981 1.079514 0.008358
v -0.079277 0.904464 0.091805
v 0.133526 0.552574 0.127594
v 0.110134 0.924961 0.052513
v -0.127598 0.543498 0.133526
v -0.004211 0.509801 0.184845
v 0.129490 -1.023060 0.129490
v 0.184849 -0.362241 0.004204
v 0.184685 0.466189 0.004189
v 0.184967 0.028384 -0.003914
v 0.015800 1.070203 0.021320
v -0.161385 0.708901 0.059032
v -0.133526 0.170127 0.127598
v 0.165310 0.608109 -0.050690
v -0.127594 -0.127866 0.133526
v 0.184303 -1.049741 0.004227
v -0.133011 -1.001140 0.128178
v 0.029556 1.086550 -0.021854
v -0.184967 -0.096616 -0.003914
v 0.128178 -1.022088 -0.133011
v -0.184959 0.507096 -0.003933
v -0.184303 -1.049741 0.004227
v 0.136681 0.608186 -0.120487
v 0.133526 -0.846616 -0.127594
v 0.058296 0.821114 -0.152405
v -0.117786 0.846947 0.011112
v -0.119839 0.618513 -0.135681
v 0.133526 0.551631 -0.127598
v -0.133526 0.574490 -0.127598
v -0.127205 -0.694272 -0.132599
v 0.133526 -0.159116 -0.127598
v 0.003914 0.664348 -0.184967
v -0.133526 -0.971616 -0.127594
v -0.004227 -1.049741 -0.184303
v 0.003922 -0.729428 -0.184963
v -0.109322 -1.085751 0.105347
v 0.047638 -1.086200 0.114471
v -0.003475 -1.086550 0.151478
v 0.105347 -1.085751 -0.109322
v 0.106426 -1.086550 0.106426
v 0.151478 -1.086550 0.003475
v -0.151478 -1.086550 0.003475
v -0.085960 -1.052057 -0.069267
v -0.109745 -1.022340 -0.104870
v -0.003475 -1.086550 -0.151478
vt 0.005796 0.326296
vt 0.005796 0.326296
vt 0.006378 0.328041
vt 0.005214 0.278588
vt 0.005214 0.278588
vt 0.005214 0.278588
vt 0.005214 0.278588
vt 0.005214 0.278588
vt 0.005214 0.278588
vt 0.005796 0.326296
vt 0.005796 0.326296
vt 0.005796 0.326296
vt 0.005214 0.278588
vt 0.005214 0.278588
vt 0.005796 0.326296
vt 0.005214 0.278588
vt 0.005214 0.278588
vt 0.005796 0.326296
vt 0.005214 0.278588
vt 0.005796 0.326296
vt 0.005214 0.278588
vt 0.005214 0.278588
vt 0.005214 0.278588
vt 0.005796 0.326296
vt 0.005796 0.326296
vt 0.005214 0.278588
vt 0.005214 0.278588
vt 0.005214 0.278588
vt 0.005796 0.326296
vt 0.005796 0.326296
vt 0.005214 0.278588
vt 0.005796 0.326296
vt 0.005214 0.278588
vt 0.005214 0.278588
vt 0.005796 0.326296
vt 0.005214 0.278588
vt 0.005214 0.278588
vt 0.005214 0.278588
vt 0.005214 0.278588
vt 0.005909 0.327455
vt 0.005796 0.326296
vt 0.005214 0.278588
vt 0.005214 0.278588
vt 0.005214 0.278588
vt 0.005796 0.326296
vt 0.005796 0.326296
vt 0.005796 0.326296
vt 0.005796 0.326296
vt 0.005796 0.326296
vt 0.005796 0.326296
vt 0.005796 0.326296
vt 0.005796 0.326296
vt 0.005796 0.326296
vt 0.005796 0.326296
vt 0.005796 0.326296
vt 0.005796 0.326296
vt 0.005796 0.326296
vt 0.005796 0.326296
vt 0.005796 0.326296
vt 0.005796 0.326296
vt 0.005796 0.326296
vt 0.005796 0.326296
vt 0.005796 0.326296
vt 0.005796 0.326296
vt 0.005796 0.326296
vt 0.005796 0.326296
vt 0.005796 0.326296
vt 0.005796 0.326296
vt 0.005796 0.326296
vt 0.005796 0.326296
vt 0.005796 0.326296
vt 0.005796 0.326296
vt 0.005796 0.326296
vt 0.005796 0.326296
vt 0.005796 0.326296
vt 0.005796 0.326296
vt 0.005796 0.326296
vt 0.005796 0.326296
vt 0.005796 0.326296
vt 0.005796 0.326296
vt 0.005796 0.326296
vt 0.005796 0.326296
vt 0.005796 0.326296
vt 0.005796 0.326296
vt 0.005796 0.326296
vt 0.005796 0.326296
vt 0.005796 0.326296
vt 0.005214 0.278588
vt 0.005796 0.326296
vt 0.005796 0.326296
vt 0.005796 0.326296
vt 0.005796 0.326296
vt 0.005796 0.326296
vt 0.005796 0.326296
vt 0.005796 0.326296
vt 0.005796 0.326296
vt 0.005796 0.326296
vt 0.005796 0.326296
vt 0.005796 0.326296
vt 0.005796 0.326296
vt 0.005214 0.278588
vt 0.005796 0.326296
vt 0.005796 0.326296
vt 0.005796 0.326296
vt 0.005796 0.326296
vt 0.005796 0.326296
vt 0.005796 0.326296
vt 0.005796 0.326296
vt 0.005796 0.326296
vt 0.005796 0.326296
vt 0.005796 0.326296
vt 0.005796 0.326296
vt 0.005796 0.326296
vt 0.005214 0.278588
vt 0.005796 0.326296
vt 0.005796 0.326296
vt 0.005796 0.326296
vt 0.005796 0.326296
vt 0.005796 0.326296
vt 0.005796 0.326296
vt 0.005796 0.326296
vt 0.005796 0.326296
vt 0.005796 0.326296
vt 0.005214 0.278588
vt 0.006378 0.328041
vt 0.006378 0.328041
vt 0.006378 0.328041
vt 0.005909 0.327455
vt 0.005909 0.327455
vt 0.005909 0.327455
vt 0.005909 0.327455
vt 0.005909 0.327455
vt 0.005909 0.327455
vt 0.005909 0.327455
vt 0.005909 0.327455
vt 0.005909 0.327455
vt 0.005909 0.327455
vt 0.005909 0.327455
vt 0.005909 0.327455
vt 0.005909 0.327455
vt 0.005909 0.327455
vt 0.005909 0.327455
vt 0.005909 0.327455
vt 0.005909 0.327455
vt 0.005909 0.327455
vn 0.097492 0.146532 0.984390
vn 0.097492 0.146532 0.984390
vn 0.097492 0.146532 0.984390
vn 0.586399 -0.022661 0.809705
vn 0.586399 -0.022661 0.809705
vn 0.586399 -0.022661 0.809705
vn 0.383828 -0.000036 0.923405
vn 0.383828 -0.000036 0.923405
vn 0.383828 -0.000036 0.923405
vn -0.377525 -0.002928 0.925995
vn -0.377525 -0.002928 0.925995
vn -0.377525 -0.002928 0.925995
vn -0.193500 0.467806 0.862390
vn -0.193500 0.467806 0.862390
vn -0.193500 0.467806 0.862390
vn 0.140527 0.367736 0.919251
vn 0.140527 0.367736 0.919251
vn 0.140527 0.367736 0.919251
vn 0.371236 0.003116 0.928533
vn 0.371236 0.003116 0.928533
vn 0.371236 0.003116 0.928533
vn 0.446302 -0.071107 0.892053
vn 0.446302 -0.071107 0.892053
vn 0.446302 -0.071107 0.892053
vn -0.916287 0.355997 0.183531
vn -0.916287 0.355997 0.183531
vn -0.916287 0.355997 0.183531
vn -0.381706 0.009892 0.924231
vn -0.381706 0.009892 0.924231
vn -0.381706 0.009892 0.924231
vn 0.408379 -0.005984 0.912793
vn 0.408379 -0.005984 0.912793
vn 0.408379 -0.005984 0.912793
vn -0.837703 0.272388 0.473348
vn -0.837703 0.272388 0.473348
vn -0.837703 0.272388 0.473348
vn 0.374281 0.004237 0.927306
vn 0.374281 0.004237 0.927306
vn 0.374281 0.004237 0.927306
vn -0.406234 0.010090 0.913714
vn -0.406234 0.010090 0.913714
vn -0.406234 0.010090 0.913714
vn -0.379264 -0.003314 0.925283
vn -0.379264 -0.003314 0.925283
vn -0.379264 -0.003314 0.925283
vn -0.395955 0.011152 0.918202
vn -0.395955 0.011152 0.918202
vn -0.395955 0.011152 0.918202
vn 0.486445 0.403182 0.775123
vn 0.486445 0.403182 0.775123
vn 0.486445 0.403182 0.775123
vn 0.386787 -0.011312 0.922100
vn 0.386787 -0.011312 0.922100
vn 0.386787 -0.011312 0.922100
vn -0.385998 -0.008517 0.922460
vn -0.385998 -0.008517 0.922460
vn -0.385998 -0.008517 0.922460
vn -0.404788 -0.000007 0.914411
vn -0.404788 -0.000007 0.914411
vn -0.404788 -0.000007 0.914411
vn 0.133981 0.004439 0.990974
vn 0.133981 0.004439 0.990974
vn 0.133981 0.004439 0.990974
vn -0.002141 -0.999921 -0.012416
vn -0.002141 -0.999921 -0.012416
vn -0.002141 -0.999921 -0.012416
vn 0.916830 0.006141 0.399231
vn 0.916830 0.006141 0.399231
vn 0.916830 0.006141 0.399231
vn 0.935392 0.054937 0.349319
vn 0.935392 0.054937 0.349319
vn 0.935392 0.054937 0.349319
vn -0.006456 -0.999972 -0.003671
vn -0.006456 -0.999972 -0.003671
vn -0.006456 -0.999972 -0.003671
vn 0.096980 0.394570 0.913734
vn 0.096980 0.394570 0.913734
vn 0.096980 0.394570 0.913734
vn -0.916764 0.353855 0.185285
vn -0.916764 0.353855 0.185285
vn -0.916764 0.353855 0.185285
vn 0.980994 0.121570 0.151232
vn 0.980994 0.121570 0.151232
vn 0.980994 0.121570 0.151232
vn -0.904244 0.007578 0.426949
vn -0.904244 0.007578 0.426949
vn -0.904244 0.007578 0.426949
vn 0.925501 -0.004189 0.378722
vn 0.925501 -0.004189 0.378722
vn 0.925501 -0.004189 0.378722
vn -0.008369 -0.999958 -0.003662
vn -0.008369 -0.999958 -0.003662
vn -0.008369 -0.999958 -0.003662
vn 0.978462 0.175565 0.108580
vn 0.978462 0.175565 0.108580
vn 0.978462 0.175565 0.108580
vn -0.923637 -0.010764 0.383117
vn -0.923637 -0.010764 0.383117
vn -0.923637 -0.010764 0.383117
vn -0.002706 -0.999993 -0.002705
vn -0.002706 -0.999993 -0.002705
vn -0.002706 -0.999993 -0.002705
vn -0.158817 0.465406 0.870732
vn -0.158817 0.465406 0.870732
vn -0.158817 0.465406 0.870732
vn 0.723943 0.551645 0.414240
vn 0.723943 0.551644 0.414240
vn 0.723943 0.551645 0.414240
vn 0.701855 0.562761 0.436691
vn 0.701855 0.562761 0.436691
vn 0.701855 0.562761 0.436691
vn -0.931307 0.000023 0.364236
vn -0.931307 0.000023 0.364236
vn -0.931307 0.000023 0.364236
vn 0.915323 -0.009723 0.402603
vn 0.915323 -0.009723 0.402603
vn 0.915323 -0.009723 0.402603
vn 0.005549 -0.999969 0.005551
vn 0.005549 -0.999969 0.005551
vn 0.005549 -0.999969 0.005551
vn 0.922113 -0.006565 0.386866
vn 0.922113 -0.006565 0.386866
vn 0.922113 -0.006565 0.386866
vn 0.917548 0.007984 0.397545
vn 0.917548 0.007984 0.397545
vn 0.917548 0.007984 0.397545
vn -0.922546 0.003359 0.385873
vn -0.922546 0.003359 0.385873
vn -0.922546 0.003359 0.385873
vn -0.933644 -0.002692 0.358193
vn -0.933644 -0.002692 0.358193
vn -0.933644 -0.002692 0.358193
vn -0.924369 0.002615 0.381490
vn -0.924369 0.002615 0.381490
vn -0.924369 0.002615 0.381490
vn -0.938365 0.198014 -0.283306
vn -0.938365 0.198014 -0.283306
vn -0.938365 0.198014 -0.283306
vn 0.924057 -0.000720 0.382254
vn 0.924057 -0.000720 0.382254
vn 0.924057 -0.000720 0.382254
vn 0.084791 0.922595 0.376336
vn 0.084791 0.922595 0.376336
vn 0.084791 0.922595 0.376336
vn -0.934862 0.197829 -0.294784
vn -0.934862 0.197829 -0.294784
vn -0.934861 0.197829 -0.294784
vn 0.928360 -0.016837 -0.371302
vn 0.928360 -0.016837 -0.371302
vn 0.928360 -0.016837 -0.371302
vn 0.933770 0.007224 -0.357802
vn 0.933770 0.007224 -0.357802
vn 0.933770 0.007224 -0.357802
vn 0.932773 -0.000752 -0.360464
vn 0.932773 -0.000752 -0.360464
vn 0.932773 -0.000752 -0.360464
vn 0.924301 -0.016400 -0.381313
vn 0.924300 -0.016400 -0.381313
vn 0.924300 -0.016400 -0.381313
vn 0.925186 -0.003896 -0.379494
vn 0.925186 -0.003896 -0.379494
vn 0.925186 -0.003896 -0.379494
vn -0.923324 -0.000000 -0.384021
vn -0.923324 -0.000000 -0.384021
vn -0.923324 -0.000000 -0.384021
vn 0.927561 -0.008044 -0.373585
vn 0.927561 -0.008044 -0.373585
vn 0.927561 -0.008044 -0.373585
vn -0.919119 -0.004005 -0.393960
vn -0.919119 -0.004005 -0.393960
vn -0.919119 -0.004005 -0.393960
vn -0.936005 0.014986 -0.351668
vn -0.936005 0.014986 -0.351668
vn -0.936005 0.014986 -0.351668
vn -0.258539 -0.761741 -0.594060
vn -0.258539 -0.761741 -0.594060
vn -0.258539 -0.761741 -0.594060
vn 0.890370 0.273565 -0.363872
vn 0.890370 0.273565 -0.363872
vn 0.890370 0.273565 -0.363872
vn -0.823103 0.312223 -0.474361
vn -0.823103 0.312223 -0.474361
vn -0.823103 0.312223 -0.474361
vn 0.889389 0.275663 -0.364687
vn 0.889389 0.275663 -0.364687
vn 0.889389 0.275663 -0.364687
vn 0.923325 0.000000 -0.384019
vn 0.923325 0.000000 -0.384019
vn 0.923325 0.000000 -0.384019
vn 0.931844 -0.000002 -0.362859
vn 0.931844 -0.000002 -0.362859
vn 0.931844 -0.000002 -0.362859
vn 0.890155 0.273005 -0.364819
vn 0.890155 0.273005 -0.364819
vn 0.890155 0.273005 -0.364819
vn -0.935383 0.243778 -0.256184
vn -0.935383 0.243778 -0.256184
vn -0.935383 0.243778 -0.256184
vn -0.917440 -0.003002 -0.397862
vn -0.917440 -0.003002 -0.397862
vn -0.917440 -0.003002 -0.397862
vn -0.186606 -0.811960 -0.553082
vn -0.186606 -0.811960 -0.553082
vn -0.186606 -0.811960 -0.553082
vn -0.370444 0.001816 -0.928853
vn -0.370444 0.001816 -0.928853
vn -0.370444 0.001816 -0.928853
vn 0.404763 -0.000005 -0.914422
vn 0.404763 -0.000005 -0.914422
vn 0.404763 -0.000005 -0.914422
vn -0.405320 -0.007259 -0.914146
vn -0.405320 -0.007259 -0.914146
vn -0.405320 -0.007259 -0.914146
vn 0.357921 0.017911 -0.933580
vn 0.357921 0.017911 -0.933580
vn 0.357921 0.017911 -0.933580
vn -0.579958 -0.772832 -0.257642
vn -0.579958 -0.772832 -0.257642
vn -0.579958 -0.772832 -0.257642
vn 0.447101 0.030587 -0.893960
vn 0.447101 0.030587 -0.893960
vn 0.447101 0.030587 -0.893960
vn 0.464137 0.084962 -0.881679
vn 0.464137 0.084962 -0.881679
vn 0.464137 0.084962 -0.881679
vn -0.348975 -0.063182 -0.935000
vn -0.348975 -0.063182 -0.935000
vn -0.348975 -0.063182 -0.935000
vn -0.106215 -0.950440 0.292202
vn -0.106215 -0.950440 0.292202
vn -0.106215 -0.950440 0.292202
vn -0.471040 0.347223 -0.810899
vn -0.471040 0.347223 -0.810899
vn -0.471040 0.347223 -0.810899
vn 0.404747 0.000000 -0.914429
vn 0.404747 0.000000 -0.914429
vn 0.404747 0.000000 -0.914429
vn 0.404746 -0.000000 -0.914429
vn 0.404746 -0.000000 -0.914429
vn 0.404746 -0.000000 -0.914429
vn -0.385200 -0.000005 -0.922833
vn -0.385200 -0.000005 -0.922833
vn -0.385200 -0.000005 -0.922833
vn 0.395678 -0.011957 -0.918312
vn 0.395678 -0.011957 -0.918312
vn 0.395678 -0.011957 -0.918311
vn -0.369125 0.007475 -0.929350
vn -0.369125 0.007475 -0.929350
vn -0.369125 0.007475 -0.929350
vn -0.468811 0.348444 -0.811666
vn -0.468811 0.348444 -0.811666
vn -0.468811 0.348444 -0.811667
vn -0.452057 0.329031 -0.829085
vn -0.452057 0.329031 -0.829085
vn -0.452057 0.329031 -0.829085
vn -0.795450 0.106224 0.596637
vn -0.795450 0.106224 0.596637
vn -0.795450 0.106224 0.596637
vn 0.481171 -0.577956 0.659121
vn 0.481171 -0.577956 0.659121
vn 0.481171 -0.577956 0.659121
vn 0.481172 -0.577956 0.659121
vn -0.434842 -0.446096 0.782247
vn -0.434842 -0.446096 0.782247
vn -0.434842 -0.446096 0.782247
vn -0.434842 -0.446096 0.782247
vn 0.211578 -0.477168 0.852962
vn 0.211578 -0.477169 0.852962
vn 0.211578 -0.477169 0.852962
vn 0.211578 -0.477169 0.852962
vn 0.772322 -0.513271 -0.374262
vn 0.772322 -0.513271 -0.374262
vn 0.772322 -0.513271 -0.374262
vn 0.772322 -0.513271 -0.374262
vn 0.760333 -0.517029 0.393161
vn 0.760333 -0.517029 0.393161
vn 0.760333 -0.517029 0.393161
vn 0.760333 -0.517029 0.393161
vn -0.786904 -0.448566 0.423759
vn -0.786904 -0.448566 0.423759
vn -0.786904 -0.448566 0.423759
vn -0.786904 -0.448566 0.423759
vn -0.622862 -0.543941 -0.562291
vn -0.622862 -0.543941 -0.562291
vn -0.622862 -0.543941 -0.562291
vn -0.622862 -0.543941 -0.562291
vn -0.590247 -0.543935 -0.596442
vn -0.590247 -0.543934 -0.596442
vn -0.590247 -0.543934 -0.596442
vn -0.590247 -0.543935 -0.596442
vn 0.361645 -0.516182 -0.776382
vn 0.361645 -0.516182 -0.776382
vn 0.361645 -0.516182 -0.776382
vn 0.361645 -0.516182 -0.776382
s off
f 1/107/1 15/123/2 2/118/3
f 5/4/4 9/5/5 4/6/6
f 3/7/7 12/8/8 15/124/9
f 5/4/10 3/7/11 24/9/12
f 1/110/13 10/65/14 11/116/15
f 6/103/16 1/106/17 2/119/18
f 3/7/19 5/4/20 7/13/21
f 8/14/22 5/4/23 4/6/24
f 10/66/25 35/15/26 11/115/27
f 1/108/28 14/113/29 15/2/30
f 7/13/31 5/4/32 8/14/33
f 21/100/34 1/109/35 11/117/36
f 12/8/37 3/7/38 7/13/39
f 3/7/40 22/16/41 24/9/42
f 5/4/43 24/9/44 26/17/45
f 5/4/46 26/17/47 9/5/48
f 6/102/49 2/120/50 13/91/51
f 12/3/52 2/125/53 15/126/54
f 15/124/55 14/114/56 22/16/57
f 15/124/58 22/16/59 3/7/60
f 16/19/61 8/14/62 4/6/63
f 45/40/64 46/128/65 47/129/66
f 17/21/67 7/13/68 8/14/69
f 2/125/70 12/3/71 18/127/72
f 46/128/73 48/130/74 49/131/75
f 20/96/76 1/1/77 6/104/78
f 11/11/79 35/83/80 21/99/81
f 23/80/82 13/90/83 2/121/84
f 14/114/85 21/101/86 22/16/87
f 19/26/88 12/8/89 7/13/90
f 48/130/91 50/132/92 49/131/93
f 23/79/94 2/122/95 18/94/96
f 22/16/97 28/28/98 24/9/99
f 45/40/100 48/130/101 46/128/102
f 20/97/103 10/64/104 1/111/105
f 13/92/106 27/60/107 6/12/108
f 27/61/109 20/24/110 6/105/111
f 22/16/112 30/88/113 28/28/114
f 8/14/115 16/19/116 25/27/117
f 51/133/118 48/130/119 45/40/120
f 18/22/121 12/8/122 19/26/123
f 7/13/124 17/21/125 19/26/126
f 26/17/127 24/9/128 28/28/129
f 21/101/130 30/88/131 22/16/132
f 26/17/133 28/28/134 31/31/135
f 21/20/136 35/84/137 30/87/138
f 17/21/139 8/14/140 25/27/141
f 27/62/142 10/10/143 20/98/144
f 35/85/145 36/56/146 30/30/147
f 37/72/148 23/78/149 18/95/150
f 19/26/151 37/33/152 18/22/153
f 25/27/154 33/34/155 17/21/156
f 33/34/157 25/27/158 29/23/159
f 37/73/160 32/75/161 23/25/162
f 38/36/163 28/28/164 30/88/165
f 40/37/166 19/26/167 17/21/168
f 31/31/169 28/28/170 39/38/171
f 31/31/172 39/38/173 42/39/174
f 52/134/175 48/130/176 51/133/177
f 34/46/178 13/18/179 23/81/180
f 10/67/181 36/55/182 35/86/183
f 27/29/184 13/93/185 34/47/186
f 40/37/187 37/33/188 19/26/189
f 33/34/190 40/37/191 17/21/192
f 34/45/193 23/82/194 32/76/195
f 30/89/196 36/57/197 38/71/198
f 28/28/199 38/36/200 39/38/201
f 51/133/202 53/135/203 52/134/204
f 38/36/205 44/42/206 39/38/207
f 44/42/208 40/37/209 33/34/210
f 42/39/211 39/38/212 43/43/213
f 43/43/214 33/34/215 29/23/216
f 53/135/217 54/136/218 52/134/219
f 41/52/220 34/41/221 32/77/222
f 41/51/223 32/35/224 37/74/225
f 38/70/226 36/58/227 41/54/228
f 54/136/229 48/130/230 52/134/231
f 36/32/232 10/68/233 34/49/234
f 40/37/235 41/44/236 37/33/237
f 41/44/238 40/37/239 44/42/240
f 38/36/241 41/44/242 44/42/243
f 43/43/244 44/42/245 33/34/246
f 39/38/247 44/42/248 43/43/249
f 34/48/250 10/69/251 27/63/252
f 41/53/253 36/59/254 34/50/255
f 14/112/256 1/109/257 21/100/258
f 4/137/259 9/138/260 47/129/261 46/128/262
f 9/138/263 26/139/264 45/40/265 47/129/266
f 16/140/267 4/137/268 46/128/269 49/131/270
f 29/141/271 25/142/272 50/132/273 48/130/274
f 25/142/275 16/140/276 49/131/277 50/132/278
f 26/139/279 31/143/280 51/133/281 45/40/282
f 31/143/283 42/144/284 53/135/285 51/133/286
f 42/144/287 43/145/288 54/136/289 53/135/290
f 43/145/291 29/141/292 48/130/293 54/136/294
