# This file uses centimeters as units for non-parametric coordinates.

v 0.099358 -0.927421 -0.172096
v -0.099361 -1.000000 -0.172096
v -0.198723 -0.927421 0.000000
v -0.099361 -0.927421 0.172096
v 0.099350 -1.000000 0.172096
v 0.198715 -1.000000 0.000000
v 0.099358 1.000000 -0.172096
v -0.123285 0.905294 -0.130664
v -0.198723 1.000000 0.000000
v -0.099361 0.875263 0.172096
v 0.099350 1.000000 0.172096
v 0.198715 0.875263 0.000000
v -0.000004 -1.083137 0.000000
v -0.000004 1.289190 0.000000
v -0.084307 -0.336298 0.147943
v -0.179947 -0.271011 -0.017705
v -0.084307 -0.368170 -0.183354
v 0.106965 -0.271011 -0.183354
v 0.168984 -0.334016 -0.075936
v 0.106963 -0.302883 0.147943
v -0.046536 0.194715 0.158375
v -0.097760 0.746300 0.169526
v -0.125237 0.213657 0.098876
v 0.200905 0.174754 -0.009974
v 0.172395 -0.347550 0.034613
v 0.199830 -0.818738 -0.005080
v -0.075330 0.975387 -0.130469
v -0.040582 0.912159 -0.172096
v -0.092195 0.283362 -0.177456
vt 0.004662 0.332410
vt 0.004662 0.332410
vt 0.004662 0.332410
vt 0.004662 0.332410
vt 0.004662 0.332410
vt 0.004662 0.332410
vt 0.004660 0.274694
vt 0.004660 0.274694
vt 0.004660 0.274694
vt 0.004660 0.274694
vt 0.004660 0.274694
vt 0.004660 0.274694
vt 0.004660 0.274694
vt 0.004660 0.274694
vt 0.004660 0.274694
vt 0.004660 0.274694
vt 0.004660 0.274694
vt 0.004660 0.274694
vt 0.004660 0.274694
vt 0.004660 0.274694
vt 0.006241 0.328456
vt 0.006241 0.328456
vt 0.006241 0.328456
vt 0.006241 0.328456
vt 0.006241 0.328456
vt 0.006241 0.328456
vt 0.004662 0.332410
vt 0.006241 0.328456
vt 0.004660 0.274694
vt 0.004660 0.274694
vt 0.004660 0.274694
vt 0.004660 0.274694
vt 0.004660 0.274694
vt 0.004660 0.274694
vt 0.004660 0.274694
vt 0.004660 0.274694
vt 0.004660 0.274694
vt 0.004660 0.274694
vt 0.004660 0.274694
vt 0.004660 0.274694
vt 0.004660 0.274694
vt 0.004660 0.274694
vt 0.006241 0.328456
vt 0.006241 0.328456
vt 0.004660 0.274694
vt 0.004660 0.274694
vn 0.007664 -0.017609 -0.999816
vn 0.007664 -0.017609 -0.999816
vn 0.007664 -0.017609 -0.999816
vn 0.007664 -0.017609 -0.999816
vn -0.863487 0.011340 -0.504244
vn -0.863487 0.011340 -0.504244
vn -0.863487 0.011340 -0.504244
vn -0.863487 0.011340 -0.504244
vn -0.861921 0.040333 0.505437
vn -0.861921 0.040333 0.505437
vn -0.861921 0.040333 0.505437
vn -0.861921 0.040333 0.505437
vn 0.003756 0.037406 0.999293
vn 0.003756 0.037406 0.999293
vn 0.003756 0.037406 0.999293
vn 0.003756 0.037406 0.999293
vn 0.997919 0.060078 -0.023434
vn 0.997919 0.060078 -0.023434
vn 0.997919 0.060078 -0.023434
vn 0.287403 -0.786899 -0.546067
vn 0.287403 -0.786899 -0.546067
vn 0.287403 -0.786899 -0.546067
vn -0.616612 -0.786897 -0.024144
vn -0.616612 -0.786897 -0.024144
vn -0.616612 -0.786897 -0.024144
vn -0.581049 -0.741512 0.335474
vn -0.581049 -0.741512 0.335474
vn -0.581049 -0.741512 0.335474
vn -0.287413 -0.786897 0.546066
vn -0.287413 -0.786897 0.546066
vn -0.287413 -0.786897 0.546065
vn 0.376710 -0.900434 0.217505
vn 0.376710 -0.900434 0.217505
vn 0.376710 -0.900434 0.217505
vn 0.329211 -0.786899 -0.521929
vn 0.329211 -0.786899 -0.521929
vn 0.329211 -0.786899 -0.521929
vn -0.446470 0.307798 -0.840193
vn -0.446470 0.307798 -0.840193
vn -0.446470 0.307798 -0.840193
vn -0.616778 0.423824 0.663294
vn -0.616778 0.423824 0.663294
vn -0.616778 0.423824 0.663294
vn -0.266048 0.423826 0.865789
vn -0.266048 0.423826 0.865789
vn -0.266048 0.423826 0.865789
vn 0.882812 0.423823 0.202528
vn 0.882812 0.423823 0.202528
vn 0.882812 0.423823 0.202528
vn 0.882819 0.423826 -0.202491
vn 0.882819 0.423826 -0.202491
vn 0.882819 0.423826 -0.202491
vn -0.612553 -0.072797 0.787070
vn -0.612553 -0.072797 0.787070
vn -0.612553 -0.072797 0.787070
vn -0.450424 0.044572 -0.891702
vn -0.450424 0.044572 -0.891702
vn -0.450424 0.044572 -0.891702
vn 0.997617 -0.057686 -0.037842
vn 0.997617 -0.057686 -0.037842
vn 0.997617 -0.057686 -0.037842
vn -0.871488 -0.019870 0.490015
vn -0.871488 -0.019870 0.490015
vn -0.871488 -0.019870 0.490015
vn -0.871488 -0.019870 0.490015
vn -0.871488 -0.019870 0.490015
vn 0.009611 -0.018813 0.999777
vn 0.009611 -0.018813 0.999777
vn 0.009611 -0.018813 0.999777
vn 0.009611 -0.018813 0.999777
vn 0.009611 -0.018813 0.999777
vn -0.598724 0.026862 0.800505
vn -0.598724 0.026862 0.800505
vn -0.598724 0.026862 0.800505
vn -0.869337 -0.020644 0.493788
vn -0.869337 -0.020644 0.493788
vn -0.869337 -0.020644 0.493788
vn 0.003475 -0.019888 0.999796
vn 0.003475 -0.019888 0.999796
vn 0.003475 -0.019888 0.999796
vn 0.864927 -0.004337 0.501878
vn 0.864927 -0.004337 0.501878
vn 0.864927 -0.004337 0.501878
vn 0.864927 -0.004337 0.501878
vn 0.864927 -0.004337 0.501878
vn 0.866585 0.008166 0.498963
vn 0.866585 0.008166 0.498963
vn 0.866585 0.008166 0.498963
vn 0.866585 0.008166 0.498963
vn 0.866585 0.008166 0.498963
vn 0.861799 -0.019028 -0.506892
vn 0.861799 -0.019028 -0.506892
vn 0.861799 -0.019028 -0.506892
vn 0.861799 -0.019028 -0.506892
vn 0.861799 -0.019028 -0.506892
vn 0.868749 0.009668 -0.495157
vn 0.868749 0.009668 -0.495157
vn 0.868749 0.009668 -0.495157
vn 0.868749 0.009668 -0.495157
vn 0.868749 0.009668 -0.495157
vn -0.266032 0.423825 -0.865794
vn -0.266032 0.423825 -0.865794
vn -0.266032 0.423825 -0.865794
vn -0.266032 0.423825 -0.865794
vn -0.005023 0.008902 -0.999948
vn -0.005023 0.008902 -0.999948
vn -0.005023 0.008902 -0.999948
vn -0.005023 0.008902 -0.999948
vn -0.005023 0.008902 -0.999948
vn -0.867683 -0.005946 -0.497082
vn -0.867683 -0.005946 -0.497082
vn -0.867683 -0.005946 -0.497082
vn -0.867683 -0.005946 -0.497082
vn -0.867683 -0.005946 -0.497082
vn -0.616782 0.423827 -0.663288
vn -0.616782 0.423827 -0.663288
vn -0.616782 0.423827 -0.663288
vn -0.616782 0.423827 -0.663288
s off
f 1/7/1 2/8/2 17/31/3 18/33/4
f 2/8/5 3/9/6 16/30/7 17/31/8
f 3/9/9 4/10/10 15/29/11 16/30/12
f 4/10/13 5/11/14 20/35/15 15/29/16
f 25/41/17 26/42/18 19/34/19
f 2/1/20 1/2/21 13/3/22
f 3/4/23 2/1/24 13/3/25
f 4/5/26 3/4/27 13/3/28
f 5/6/29 4/5/30 13/3/31
f 6/27/32 5/6/33 13/3/34
f 1/2/35 6/27/36 13/3/37
f 27/43/38 28/44/39 8/22/40
f 9/24/41 10/25/42 14/23/43
f 10/25/44 11/26/45 14/23/46
f 11/26/47 12/28/48 14/23/49
f 12/28/50 7/21/51 14/23/52
f 22/37/53 23/38/54 21/36/55
f 28/45/56 29/46/57 8/15/58
f 24/40/59 25/41/60 19/34/61
f 16/30/62 23/38/63 22/37/64 10/17/65 9/16/66
f 21/39/67 20/35/68 11/18/69 10/17/70 22/37/71
f 21/36/72 23/38/73 15/29/74
f 16/30/75 15/29/76 23/38/77
f 15/29/78 20/35/79 21/39/80
f 20/35/81 25/41/82 24/40/83 12/19/84 11/18/85
f 5/11/86 6/12/87 26/42/88 25/41/89 20/35/90
f 6/12/91 1/13/92 18/32/93 19/34/94 26/42/95
f 24/40/96 19/34/97 18/32/98 7/20/99 12/19/100
f 7/21/101 28/44/102 27/43/103 14/23/104
f 18/33/105 17/31/106 29/46/107 28/45/108 7/14/109
f 17/31/110 16/30/111 9/16/112 8/15/113 29/46/114
f 27/43/115 8/22/116 9/24/117 14/23/118
