# This file uses centimeters as units for non-parametric coordinates.

v 0.027997 0.248424 0.034832
v 0.025409 0.284971 0.035282
v 0.034261 0.284971 0.039349
v 0.032203 0.284971 0.029827
v 0.031281 0.248424 0.032185
v 0.032279 0.248424 0.036793
v -0.050477 0.246763 0.024647
v -0.050317 0.273968 0.022697
v -0.054921 0.273968 0.028301
v -0.047677 0.273968 0.028622
v -0.049199 0.246763 0.027512
v -0.052709 0.246763 0.027359
v -0.007575 0.337191 -0.027775
v -0.010365 0.376606 -0.027279
v -0.000817 0.376606 -0.022900
v -0.003045 0.376606 -0.033161
v -0.004031 0.337191 -0.030624
v -0.002954 0.337191 -0.025654
v 0.031348 0.076750 -0.031979
v 0.009103 0.092535 -0.059677
v -0.026013 0.076750 -0.054260
v -0.038875 0.092535 -0.021137
v -0.016622 0.076750 0.006554
v 0.018485 0.092535 0.001133
v 0.031348 0.378237 -0.031979
v 0.009103 0.378237 -0.059677
v -0.026013 0.378237 -0.054260
v -0.038875 0.345937 -0.021137
v -0.016622 0.345937 0.006554
v 0.018485 0.345937 0.001133
v -0.003758 0.343538 -0.026562
v 0.087401 0.035602 -0.040630
v 0.029632 0.035602 -0.112545
v -0.003758 0.000000 -0.026562
v -0.061530 0.035602 -0.098469
v -0.094922 0.035602 -0.012489
v -0.037160 0.035602 0.059422
v 0.054004 0.035602 0.045353
v -0.030883 0.035602 -0.093502
v 0.065886 0.105735 0.028854
v 0.043633 0.114441 0.001156
v 0.008527 0.114441 0.006573
v -0.004336 0.105735 0.039688
v 0.017909 0.105735 0.067387
v 0.053023 0.114441 0.061970
v 0.065886 0.291183 0.028854
v 0.043633 0.291183 0.001156
v 0.008527 0.291183 0.006573
v -0.004336 0.291183 0.039688
v 0.017909 0.243312 0.067387
v 0.053023 0.243312 0.061970
v 0.030772 0.256483 0.034275
v 0.113761 0.035602 0.021458
v 0.061172 0.035602 -0.044003
v 0.030772 0.000000 0.034275
v -0.021817 0.035602 -0.031193
v -0.052217 0.035602 0.047077
v 0.000373 0.035602 0.112549
v 0.083362 0.035602 0.099735
v 0.022096 0.035602 0.100170
v -0.024575 0.074885 0.022751
v -0.041928 0.074885 0.001152
v -0.069314 0.064410 0.005375
v -0.079341 0.074885 0.031208
v -0.061990 0.064410 0.052807
v -0.034610 0.074885 0.048580
v -0.024575 0.287154 0.022751
v -0.041928 0.287154 0.001152
v -0.069314 0.248151 0.005375
v -0.079341 0.248151 0.031208
v -0.061990 0.248151 0.052807
v -0.034610 0.287154 0.048580
v -0.051963 0.252455 0.026974
v 0.009849 0.035602 0.017441
v -0.029317 0.035602 -0.031322
v -0.051963 0.000000 0.026974
v -0.076753 0.035602 -0.012272
v -0.113767 0.035602 0.036518
v -0.074601 0.035602 0.085270
v -0.012799 0.035602 0.075737
vt 0.109221 0.010735
vt 0.109221 0.010735
vt 0.109221 0.010735
vt 0.109221 0.010735
vt 0.109221 0.010735
vt 0.109221 0.010735
vt 0.109221 0.010735
vt 0.109221 0.010735
vt 0.109221 0.010735
vt 0.109221 0.010735
vt 0.109221 0.010735
vt 0.109221 0.010735
vt 0.109221 0.010735
vt 0.109221 0.010735
vt 0.109221 0.010735
vt 0.109221 0.010735
vt 0.109221 0.010735
vt 0.109221 0.010735
vt 0.109221 0.010735
vt 0.109221 0.010735
vt 0.109221 0.010735
vt 0.109221 0.010735
vt 0.109221 0.010735
vt 0.109221 0.010735
vt 0.109221 0.010735
vt 0.109221 0.010735
vt 0.109221 0.010735
vt 0.040658 0.098497
vt 0.040926 0.101373
vt 0.040926 0.153428
vt 0.040658 0.153428
vt 0.040874 0.098497
vt 0.040874 0.153428
vt 0.040553 0.101373
vt 0.040553 0.147543
vt 0.040284 0.098497
vt 0.040284 0.147543
vt 0.040337 0.101373
vt 0.040337 0.147543
vt 0.041439 0.091000
vt 0.040742 0.091000
vt 0.040605 0.084513
vt 0.041303 0.091000
vt 0.041254 0.091000
vt 0.040469 0.091000
vt 0.039771 0.091000
vt 0.039908 0.091000
vt 0.040605 0.147106
vt 0.040663 0.109538
vt 0.040958 0.111598
vt 0.040958 0.153428
vt 0.040663 0.153428
vt 0.040900 0.111598
vt 0.040900 0.153428
vt 0.040547 0.109538
vt 0.040547 0.153428
vt 0.040252 0.109538
vt 0.040252 0.142098
vt 0.040310 0.111598
vt 0.040310 0.142098
vt 0.041439 0.092939
vt 0.040742 0.092939
vt 0.040605 0.084513
vt 0.041303 0.092939
vt 0.040469 0.092939
vt 0.039771 0.092939
vt 0.039903 0.092939
vt 0.039908 0.092939
vt 0.040605 0.145216
vt 0.040666 0.102485
vt 0.040975 0.102485
vt 0.040975 0.153428
vt 0.040666 0.153428
vt 0.040914 0.099971
vt 0.040914 0.144068
vt 0.040545 0.102485
vt 0.040545 0.144068
vt 0.040236 0.099971
vt 0.040236 0.144068
vt 0.040296 0.102485
vt 0.040296 0.153428
vt 0.041439 0.093057
vt 0.040742 0.093057
vt 0.040605 0.084513
vt 0.041167 0.093057
vt 0.040469 0.093057
vt 0.039771 0.093057
vt 0.039908 0.093057
vt 0.040605 0.145100
vn -0.416735 -0.040804 0.908112
vn -0.416735 -0.040804 0.908112
vn -0.416735 -0.040804 0.908112
vn -0.416735 -0.040804 0.908112
vn 0.000000 1.000000 0.000003
vn 0.000000 1.000000 0.000003
vn 0.000000 1.000000 0.000003
vn 0.976693 -0.038217 -0.211212
vn 0.976693 -0.038217 -0.211212
vn 0.976693 -0.038217 -0.211212
vn 0.976693 -0.038217 -0.211212
vn -0.626188 -0.034606 -0.778903
vn -0.626188 -0.034606 -0.778903
vn -0.626188 -0.034606 -0.778903
vn -0.626188 -0.034606 -0.778903
vn -0.771858 -0.040858 -0.634480
vn -0.771858 -0.040858 -0.634480
vn -0.771858 -0.040858 -0.634481
vn -0.771858 -0.040858 -0.634480
vn 0.000000 1.000000 0.000000
vn 0.000000 1.000000 0.000000
vn 0.000000 1.000000 0.000000
vn -0.043912 -0.038213 0.998304
vn -0.043912 -0.038213 0.998304
vn -0.043912 -0.038213 0.998304
vn -0.043912 -0.038213 0.998304
vn 0.912826 -0.034500 -0.406889
vn 0.912826 -0.034500 -0.406889
vn 0.912826 -0.034500 -0.406889
vn 0.912826 -0.034500 -0.406889
vn -0.416613 -0.040900 0.908163
vn -0.416613 -0.040900 0.908163
vn -0.416613 -0.040900 0.908163
vn -0.416613 -0.040900 0.908163
vn 0.000000 1.000000 0.000000
vn 0.000000 1.000000 0.000000
vn 0.000000 1.000000 0.000000
vn 0.976545 -0.038094 -0.211915
vn 0.976545 -0.038094 -0.211915
vn 0.976545 -0.038094 -0.211915
vn 0.976545 -0.038094 -0.211915
vn -0.626090 -0.034498 -0.778988
vn -0.626090 -0.034498 -0.778988
vn -0.626090 -0.034498 -0.778988
vn -0.626090 -0.034498 -0.778988
vn 0.779678 0.000000 -0.626180
vn 0.779678 0.000000 -0.626180
vn 0.779678 0.000000 -0.626180
vn 0.779678 0.000000 -0.626180
vn -0.152452 0.000000 -0.988311
vn -0.152452 0.000000 -0.988311
vn -0.152452 0.000000 -0.988311
vn -0.152452 0.000000 -0.988311
vn -0.932194 0.000000 -0.361959
vn -0.932194 0.000000 -0.361959
vn -0.932194 0.000000 -0.361959
vn -0.932194 0.000000 -0.361959
vn -0.779489 0.000000 0.626416
vn -0.779489 0.000000 0.626416
vn -0.779489 0.000000 0.626416
vn -0.779489 0.000000 0.626416
vn 0.152598 0.000000 0.988288
vn 0.152598 0.000000 0.988288
vn 0.152598 0.000000 0.988288
vn 0.152598 0.000000 0.988288
vn 0.932134 0.000000 0.362115
vn 0.932134 0.000000 0.362115
vn 0.932134 0.000000 0.362115
vn 0.932134 0.000000 0.362115
vn 0.317372 -0.913388 -0.254948
vn 0.317372 -0.913388 -0.254948
vn 0.317372 -0.913388 -0.254948
vn 0.079914 -0.866288 -0.493112
vn 0.079914 -0.866288 -0.493112
vn 0.079914 -0.866288 -0.493112
vn -0.379455 -0.913398 -0.147370
vn -0.379455 -0.913398 -0.147370
vn -0.379455 -0.913398 -0.147369
vn -0.317358 -0.913401 0.254916
vn -0.317358 -0.913401 0.254917
vn -0.317358 -0.913401 0.254916
vn 0.062086 -0.913394 0.402314
vn 0.062086 -0.913394 0.402314
vn 0.062086 -0.913394 0.402314
vn 0.379465 -0.913390 0.147392
vn 0.379465 -0.913390 0.147392
vn 0.379465 -0.913390 0.147392
vn -0.583409 0.663396 0.468551
vn -0.583409 0.663396 0.468551
vn -0.583409 0.663396 0.468551
vn 0.114069 0.663441 0.739483
vn 0.114069 0.663441 0.739483
vn 0.114069 0.663441 0.739483
vn 0.157412 0.675772 0.720107
vn 0.157412 0.675772 0.720107
vn 0.157412 0.675772 0.720107
vn 0.060599 0.996973 -0.048700
vn 0.060599 0.996974 -0.048700
vn 0.060599 0.996974 -0.048700
vn -0.011866 0.996972 -0.076847
vn -0.011866 0.996972 -0.076847
vn -0.011866 0.996972 -0.076847
vn -0.602243 0.675678 0.425162
vn -0.602243 0.675678 0.425162
vn -0.602243 0.675678 0.425162
vn 0.603308 0.704956 -0.372903
vn 0.603308 0.704956 -0.372903
vn 0.603308 0.704956 -0.372903
vn 0.603308 0.704956 -0.372903
vn -0.394734 0.658134 -0.641128
vn -0.394734 0.658134 -0.641128
vn -0.394734 0.658134 -0.641128
vn -0.624628 0.704942 -0.336001
vn -0.624628 0.704942 -0.336001
vn -0.624628 0.704942 -0.336001
vn -0.624628 0.704942 -0.336001
vn -0.494194 0.704956 0.508733
vn -0.494194 0.704956 0.508733
vn -0.494194 0.704956 0.508733
vn -0.494194 0.704956 0.508733
vn 0.021288 0.704978 0.708910
vn 0.021288 0.704978 0.708910
vn 0.021288 0.704978 0.708910
vn 0.021288 0.704978 0.708910
vn 0.687640 0.704977 0.173666
vn 0.687640 0.704976 0.173666
vn 0.687640 0.704977 0.173666
vn 0.687640 0.704976 0.173666
vn -0.236970 0.613821 -0.753040
vn -0.236970 0.613821 -0.753040
vn -0.236970 0.613821 -0.753040
vn 0.117586 0.678032 -0.725566
vn 0.117586 0.678032 -0.725566
vn 0.117586 0.678032 -0.725566
vn -0.133057 -0.896390 -0.422825
vn -0.133057 -0.896390 -0.422825
vn -0.133057 -0.896390 -0.422825
vn 0.779574 0.000000 -0.626311
vn 0.779574 0.000000 -0.626311
vn 0.779574 0.000000 -0.626311
vn 0.779574 0.000000 -0.626311
vn -0.152493 0.000000 -0.988305
vn -0.152493 0.000000 -0.988305
vn -0.152493 0.000000 -0.988305
vn -0.152493 0.000000 -0.988305
vn -0.932148 0.000000 -0.362078
vn -0.932148 0.000000 -0.362078
vn -0.932148 0.000000 -0.362078
vn -0.932148 0.000000 -0.362078
vn -0.779678 0.000000 0.626180
vn -0.779678 0.000000 0.626180
vn -0.779678 0.000000 0.626180
vn -0.779678 0.000000 0.626180
vn 0.152461 0.000000 0.988310
vn 0.152461 0.000000 0.988310
vn 0.152461 0.000000 0.988310
vn 0.152461 0.000000 0.988310
vn 0.932148 0.000000 0.362078
vn 0.932148 0.000000 0.362078
vn 0.932148 0.000000 0.362078
vn 0.932148 0.000000 0.362078
vn 0.342772 -0.898151 -0.275376
vn 0.342772 -0.898151 -0.275376
vn 0.342772 -0.898151 -0.275376
vn -0.067074 -0.898151 -0.434541
vn -0.067074 -0.898151 -0.434541
vn -0.067074 -0.898151 -0.434541
vn -0.409860 -0.898151 -0.159186
vn -0.409860 -0.898151 -0.159186
vn -0.409860 -0.898151 -0.159186
vn -0.342818 -0.898137 0.275365
vn -0.342818 -0.898137 0.275365
vn -0.342818 -0.898137 0.275365
vn 0.276232 -0.829890 0.484746
vn 0.276232 -0.829890 0.484746
vn 0.276232 -0.829890 0.484746
vn 0.409884 -0.898141 0.159180
vn 0.409884 -0.898141 0.159180
vn 0.409884 -0.898141 0.159180
vn -0.583286 0.663460 0.468613
vn -0.583286 0.663460 0.468613
vn -0.583286 0.663460 0.468613
vn 0.114095 0.663477 0.739446
vn 0.114095 0.663477 0.739446
vn 0.114095 0.663477 0.739446
vn 0.697471 0.663427 0.270921
vn 0.697471 0.663427 0.270921
vn 0.697471 0.663427 0.270921
vn 0.651394 0.583393 0.485117
vn 0.651394 0.583393 0.485117
vn 0.651394 0.583393 0.485117
vn 0.060007 0.919287 0.388987
vn 0.060007 0.919287 0.388987
vn 0.060007 0.919287 0.388987
vn -0.474800 0.583410 0.658936
vn -0.474800 0.583410 0.658936
vn -0.474800 0.583410 0.658936
vn 0.701188 0.490448 -0.517490
vn 0.701188 0.490448 -0.517490
vn 0.701188 0.490448 -0.517490
vn 0.701188 0.490448 -0.517490
vn -0.134654 0.469767 -0.872461
vn -0.134654 0.469767 -0.872461
vn -0.134654 0.469767 -0.872460
vn -0.134654 0.469767 -0.872461
vn -0.824589 0.490473 -0.281937
vn -0.824589 0.490473 -0.281937
vn -0.824589 0.490473 -0.281937
vn -0.824589 0.490473 -0.281937
vn -0.669067 0.513373 0.537399
vn -0.669067 0.513373 0.537399
vn -0.669067 0.513373 0.537399
vn -0.669067 0.513373 0.537399
vn 0.034201 0.424892 0.904598
vn 0.034201 0.424892 0.904598
vn 0.034201 0.424892 0.904598
vn 0.824625 0.490414 0.281936
vn 0.824625 0.490414 0.281936
vn 0.824625 0.490414 0.281936
vn 0.824625 0.490414 0.281936
vn 0.453894 0.399425 0.796518
vn 0.453894 0.399425 0.796518
vn 0.453894 0.399425 0.796518
vn 0.006395 0.434003 0.900889
vn 0.006395 0.434003 0.900889
vn 0.006395 0.434003 0.900889
vn 0.003376 -0.879611 0.475682
vn 0.003376 -0.879611 0.475682
vn 0.003376 -0.879611 0.475682
vn 0.779564 0.000000 -0.626322
vn 0.779564 0.000000 -0.626322
vn 0.779564 0.000000 -0.626322
vn 0.779564 0.000000 -0.626322
vn -0.152399 0.000000 -0.988319
vn -0.152399 0.000000 -0.988319
vn -0.152399 0.000000 -0.988319
vn -0.152399 0.000000 -0.988319
vn -0.932240 0.000000 -0.361842
vn -0.932240 0.000000 -0.361842
vn -0.932240 0.000000 -0.361842
vn -0.932240 0.000000 -0.361842
vn -0.779598 0.000000 0.626281
vn -0.779598 0.000000 0.626281
vn -0.779598 0.000000 0.626281
vn -0.779598 0.000000 0.626281
vn 0.152564 0.000000 0.988294
vn 0.152564 0.000000 0.988294
vn 0.152564 0.000000 0.988294
vn 0.152564 0.000000 0.988294
vn 0.932129 0.000000 0.362127
vn 0.932129 0.000000 0.362127
vn 0.932129 0.000000 0.362127
vn 0.932129 0.000000 0.362127
vn 0.428256 -0.835634 -0.343965
vn 0.428256 -0.835634 -0.343965
vn 0.428256 -0.835634 -0.343965
vn -0.229166 -0.788591 -0.570620
vn -0.229166 -0.788591 -0.570620
vn -0.229166 -0.788591 -0.570620
vn -0.504795 -0.773644 -0.382958
vn -0.504795 -0.773644 -0.382958
vn -0.504795 -0.773644 -0.382958
vn -0.428230 -0.835623 0.344025
vn -0.428230 -0.835623 0.344025
vn -0.428230 -0.835623 0.344025
vn 0.083734 -0.835645 0.542850
vn 0.083734 -0.835645 0.542850
vn 0.083734 -0.835645 0.542850
vn 0.511988 -0.835646 0.198905
vn 0.511988 -0.835646 0.198905
vn 0.511988 -0.835646 0.198905
vn -0.641189 0.568770 0.515148
vn -0.641189 0.568770 0.515148
vn -0.641189 0.568770 0.515148
vn -0.703872 0.543706 0.457108
vn -0.703872 0.543706 0.457108
vn -0.703872 0.543706 0.457108
vn -0.164611 0.984287 -0.063893
vn -0.164611 0.984287 -0.063893
vn -0.164611 0.984287 -0.063893
vn -0.137630 0.984293 0.110564
vn -0.137630 0.984293 0.110564
vn -0.137630 0.984293 0.110564
vn -0.808997 0.543696 -0.223426
vn -0.808997 0.543696 -0.223426
vn -0.808997 0.543696 -0.223426
vn -0.766629 0.568838 -0.297832
vn -0.766629 0.568838 -0.297832
vn -0.766629 0.568838 -0.297832
vn 0.618348 0.609052 -0.496690
vn 0.618348 0.609052 -0.496690
vn 0.618348 0.609052 -0.496690
vn 0.618348 0.609052 -0.496690
vn -0.317561 0.546353 -0.775019
vn -0.317561 0.546353 -0.775019
vn -0.317561 0.546353 -0.775019
vn -0.317561 0.546353 -0.775019
vn -0.690004 0.516160 -0.507419
vn -0.690003 0.516161 -0.507419
vn -0.690004 0.516160 -0.507419
vn -0.690004 0.516161 -0.507419
vn -0.533740 0.661174 0.527230
vn -0.533740 0.661174 0.527229
vn -0.533740 0.661174 0.527230
vn -0.533740 0.661174 0.527229
vn 0.037945 0.661173 0.749273
vn 0.037945 0.661173 0.749273
vn 0.037945 0.661173 0.749273
vn 0.037945 0.661173 0.749273
vn 0.739315 0.609031 0.287221
vn 0.739315 0.609031 0.287221
vn 0.739315 0.609031 0.287221
vn 0.739315 0.609031 0.287221
s off
f 1/1/1 6/2/2 3/3/3 2/4/4
f 2/4/5 3/3/6 4/5/7
f 4/5/8 3/3/9 6/6/10 5/7/11
f 5/8/12 1/1/13 2/4/14 4/9/15
f 7/10/16 12/11/17 9/12/18 8/13/19
f 8/13/20 9/12/21 10/14/22
f 10/14/23 9/12/24 12/15/25 11/16/26
f 11/17/27 7/10/28 8/13/29 10/18/30
f 13/19/31 18/20/32 15/21/33 14/22/34
f 14/22/35 15/21/36 16/23/37
f 16/23/38 15/21/39 18/24/40 17/25/41
f 17/26/42 13/19/43 14/22/44 16/27/45
f 19/28/46 20/29/47 26/30/48 25/31/49
f 20/29/50 21/32/51 27/33/52 26/30/53
f 21/32/54 22/34/55 28/35/56 27/33/57
f 22/34/58 23/36/59 29/37/60 28/35/61
f 23/36/62 24/38/63 30/39/64 29/37/65
f 24/38/66 19/28/67 25/31/68 30/39/69
f 33/40/70 32/41/71 34/42/72
f 35/43/73 39/44/74 34/42/75
f 36/45/76 35/43/77 34/42/78
f 37/46/79 36/45/80 34/42/81
f 38/47/82 37/46/83 34/42/84
f 32/41/85 38/47/86 34/42/87
f 25/31/88 26/30/89 31/48/90
f 26/30/91 27/33/92 31/48/93
f 27/33/94 28/35/95 31/48/96
f 28/35/97 29/37/98 31/48/99
f 29/37/100 30/39/101 31/48/102
f 30/39/103 25/31/104 31/48/105
f 20/29/106 19/28/107 32/41/108 33/40/109
f 21/32/110 20/29/111 39/44/112
f 22/34/113 21/32/114 35/43/115 36/45/116
f 23/36/117 22/34/118 36/45/119 37/46/120
f 24/38/121 23/36/122 37/46/123 38/47/124
f 19/28/125 24/38/126 38/47/127 32/41/128
f 39/44/129 20/29/130 33/40/131
f 21/32/132 39/44/133 35/43/134
f 34/42/135 39/44/136 33/40/137
f 40/49/138 41/50/139 47/51/140 46/52/141
f 41/50/142 42/53/143 48/54/144 47/51/145
f 42/53/146 43/55/147 49/56/148 48/54/149
f 43/55/150 44/57/151 50/58/152 49/56/153
f 44/57/154 45/59/155 51/60/156 50/58/157
f 45/59/158 40/49/159 46/52/160 51/60/161
f 54/61/162 53/62/163 55/63/164
f 56/64/165 54/61/166 55/63/167
f 57/65/168 56/64/169 55/63/170
f 58/66/171 57/65/172 55/63/173
f 55/63/174 60/67/175 58/66/176
f 53/62/177 59/68/178 55/63/179
f 46/52/180 47/51/181 52/69/182
f 47/51/183 48/54/184 52/69/185
f 48/54/186 49/56/187 52/69/188
f 49/56/189 50/58/190 52/69/191
f 50/58/192 51/60/193 52/69/194
f 51/60/195 46/52/196 52/69/197
f 41/50/198 40/49/199 53/62/200 54/61/201
f 42/53/202 41/50/203 54/61/204 56/64/205
f 43/55/206 42/53/207 56/64/208 57/65/209
f 44/57/210 43/55/211 57/65/212 58/66/213
f 45/59/214 44/57/215 60/67/216
f 40/49/217 45/59/218 59/68/219 53/62/220
f 60/67/221 44/57/222 58/66/223
f 45/59/224 60/67/225 59/68/226
f 59/68/227 60/67/228 55/63/229
f 61/70/230 62/71/231 68/72/232 67/73/233
f 62/71/234 63/74/235 69/75/236 68/72/237
f 63/74/238 64/76/239 70/77/240 69/75/241
f 64/76/242 65/78/243 71/79/244 70/77/245
f 65/78/246 66/80/247 72/81/248 71/79/249
f 66/80/250 61/70/251 67/73/252 72/81/253
f 75/82/254 74/83/255 76/84/256
f 77/85/257 75/82/258 76/84/259
f 78/86/260 77/85/261 76/84/262
f 79/87/263 78/86/264 76/84/265
f 80/88/266 79/87/267 76/84/268
f 74/83/269 80/88/270 76/84/271
f 67/73/272 68/72/273 73/89/274
f 68/72/275 69/75/276 73/89/277
f 69/75/278 70/77/279 73/89/280
f 70/77/281 71/79/282 73/89/283
f 71/79/284 72/81/285 73/89/286
f 72/81/287 67/73/288 73/89/289
f 62/71/290 61/70/291 74/83/292 75/82/293
f 63/74/294 62/71/295 75/82/296 77/85/297
f 64/76/298 63/74/299 77/85/300 78/86/301
f 65/78/302 64/76/303 78/86/304 79/87/305
f 66/80/306 65/78/307 79/87/308 80/88/309
f 61/70/310 66/80/311 80/88/312 74/83/313
