# This file uses centimeters as units for non-parametric coordinates.

v 1.213048 0.092386 0.171366
v -1.213048 0.092386 -0.171366
v -1.213048 0.000000 -0.171366
v 1.213048 0.000000 -0.171366
v -0.423817 0.000000 0.144661
v -0.564100 0.000000 -0.144661
v 0.521614 0.000000 0.144661
v 0.521614 0.072537 0.144661
v 0.521614 0.072537 -0.144661
v -1.037284 0.000000 0.164690
v -1.037284 0.092386 0.164690
v -0.490317 0.092386 0.151338
v -0.721828 0.092386 -0.151338
v -1.195012 0.023097 0.171366
v -1.195012 0.069290 0.171366
v 1.213048 0.023097 0.171366
v -1.195012 0.092386 0.085683
v 1.213048 0.092386 -0.085683
v 1.213048 0.069290 -0.171366
v -1.195012 0.000000 0.085683
v 1.213048 0.000000 0.085683
v -0.292672 0.072537 -0.144661
v -0.609207 0.072537 -0.104565
v -0.233804 0.072537 0.086511
v -0.332590 0.069290 0.144661
v -0.564100 0.069290 -0.144661
v 1.040189 0.000000 0.164690
v 1.040189 0.092386 -0.164690
v 0.694472 0.000000 -0.151338
v 0.521614 0.023097 -0.144661
v 0.431148 0.000000 -0.075689
v -1.104847 0.092386 -0.003859
v -1.132759 0.000000 -0.001830
v -1.213048 0.092386 -0.021638
v -1.213048 0.000000 -0.021873
v -1.195012 0.000000 0.013212
v -1.195012 0.092386 0.009733
v 1.213048 0.092386 0.053246
v 1.213048 0.092386 -0.005803
v 1.072388 0.092386 0.019949
v 1.213048 0.070792 0.026652
vt 0.037906 0.277558
vt 0.037906 0.277558
vt 0.037906 0.277558
vt 0.037906 0.305115
vt 0.037906 0.305115
vt 0.037906 0.305115
vt 0.037906 0.277558
vt 0.037906 0.277558
vt 0.037906 0.277558
vt 0.037906 0.301387
vt 0.037906 0.301387
vt 0.037906 0.301387
vt 0.037906 0.277558
vt 0.037906 0.277558
vt 0.037906 0.277558
vt 0.037906 0.301387
vt 0.037906 0.301387
vt 0.037906 0.301387
vt 0.037906 0.277558
vt 0.037906 0.277558
vt 0.037906 0.277558
vt 0.037906 0.277558
vt 0.037906 0.277558
vt 0.037906 0.277558
vt 0.037906 0.277558
vt 0.037906 0.277558
vt 0.037906 0.277558
vt 0.037906 0.301387
vt 0.037906 0.301387
vt 0.037906 0.301387
vt 0.037906 0.301387
vt 0.037906 0.301387
vt 0.037906 0.277558
vt 0.037906 0.277558
vt 0.037906 0.277558
vt 0.037906 0.277558
vt 0.037906 0.277558
vt 0.037906 0.277558
vt 0.037906 0.277558
vt 0.037906 0.277558
vt 0.037906 0.277558
vt 0.037906 0.277558
vt 0.037906 0.277558
vt 0.037906 0.277558
vt 0.037906 0.277558
vt 0.037906 0.277558
vt 0.037906 0.277558
vt 0.037906 0.277558
vt 0.037906 0.277558
vt 0.037906 0.277558
vt 0.037906 0.277558
vt 0.037906 0.277558
vt 0.037906 0.277558
vt 0.037906 0.277558
vt 0.037906 0.277558
vt 0.037906 0.277558
vt 0.037906 0.301387
vt 0.037906 0.301387
vt 0.037906 0.301387
vt 0.037906 0.301387
vt 0.037906 0.301387
vt 0.037906 0.277558
vt 0.037906 0.277558
vt 0.037906 0.277558
vt 0.037906 0.277558
vt 0.037906 0.277558
vt 0.037906 0.277558
vt 0.037906 0.301387
vt 0.037906 0.301387
vt 0.037906 0.301387
vt 0.037906 0.301387
vt 0.037906 0.301387
vt 0.037906 0.301387
vt 0.037906 0.301387
vt 0.037906 0.301387
vt 0.037906 0.301387
vt 0.037906 0.301387
vt 0.037906 0.277558
vt 0.037906 0.277558
vt 0.037906 0.277558
vt 0.037906 0.277558
vt 0.037906 0.277558
vt 0.037906 0.277558
vt 0.037906 0.277558
vt 0.037906 0.277558
vt 0.037906 0.277558
vt 0.037906 0.277558
vt 0.037906 0.277558
vt 0.037906 0.277558
vt 0.037906 0.277558
vt 0.037906 0.277558
vt 0.037906 0.277558
vt 0.037906 0.277558
vt 0.037906 0.277558
vt 0.037906 0.277558
vt 0.037906 0.277558
vt 0.037906 0.277558
vt 0.037906 0.277558
vt 0.037906 0.277558
vt 0.037906 0.301387
vt 0.037906 0.301387
vt 0.037906 0.301387
vt 0.037906 0.301387
vt 0.037906 0.301387
vt 0.037906 0.277558
vt 0.037906 0.277558
vt 0.037906 0.277558
vt 0.037906 0.277558
vt 0.037906 0.301387
vt 0.037906 0.301387
vt 0.037906 0.301387
vt 0.037906 0.301387
vt 0.037906 0.301387
vt 0.037906 0.305115
vt 0.037906 0.305115
vt 0.037906 0.305115
vt 0.037906 0.305115
vt 0.037906 0.277558
vt 0.037906 0.277558
vt 0.037906 0.277558
vt 0.037906 0.277558
vt 0.037906 0.301387
vt 0.037906 0.301387
vt 0.037906 0.301387
vt 0.037906 0.301387
vt 0.037906 0.301387
vt 0.037906 0.301387
vt 0.037906 0.301387
vt 0.037906 0.301387
vt 0.037906 0.301387
vt 0.037906 0.305115
vt 0.037906 0.305115
vt 0.037906 0.305115
vt 0.037906 0.277558
vt 0.037906 0.277558
vt 0.037906 0.277558
vt 0.037906 0.277558
vt 0.037906 0.277558
vt 0.037906 0.277558
vt 0.037906 0.277558
vt 0.037906 0.277558
vt 0.037906 0.277558
vt 0.037906 0.277558
vt 0.037906 0.277558
vt 0.037906 0.277558
vt 0.037906 0.301387
vt 0.037906 0.301387
vt 0.037906 0.301387
vt 0.037906 0.301387
vt 0.037906 0.301387
vn -0.134741 -0.872850 -0.469018
vn -0.134741 -0.872850 -0.469018
vn -0.134741 -0.872850 -0.469018
vn -0.129275 -0.957434 0.258084
vn -0.129275 -0.957434 0.258084
vn -0.129275 -0.957434 0.258084
vn -0.011912 0.995497 -0.094037
vn -0.011912 0.995497 -0.094037
vn -0.011912 0.995497 -0.094037
vn 0.118126 0.958777 -0.258445
vn 0.118126 0.958777 -0.258445
vn 0.118126 0.958777 -0.258445
vn 0.118125 -0.958776 0.258446
vn 0.118125 -0.958776 0.258446
vn 0.118125 -0.958776 0.258446
vn -0.129275 0.957434 0.258084
vn -0.129275 0.957434 0.258084
vn -0.129275 0.957434 0.258084
vn -0.038594 -0.000000 0.999255
vn -0.038594 -0.000000 0.999255
vn -0.038594 -0.000000 0.999255
vn -0.038594 -0.000000 0.999255
vn -0.038594 -0.000000 0.999255
vn -0.184632 -0.001406 -0.982807
vn -0.184632 -0.001406 -0.982807
vn -0.184632 -0.001406 -0.982807
vn -0.184632 -0.001406 -0.982807
vn -0.031575 0.999451 0.010077
vn -0.031575 0.999451 0.010077
vn -0.031575 0.999451 0.010077
vn -0.031575 0.999451 0.010077
vn -0.031575 0.999451 0.010077
vn 1.000000 -0.000001 0.000000
vn 1.000000 -0.000001 0.000000
vn 1.000000 -0.000001 0.000000
vn 1.000000 -0.000001 0.000000
vn 1.000000 -0.000001 0.000000
vn 0.041079 -0.001035 -0.999155
vn 0.041079 -0.001035 -0.999155
vn 0.041079 -0.001035 -0.999155
vn 0.041079 -0.001035 -0.999155
vn 0.041079 -0.001035 -0.999155
vn -0.003798 0.998775 0.049333
vn -0.003798 0.998775 0.049333
vn -0.003798 0.998775 0.049333
vn 0.031444 -0.023716 0.999224
vn 0.031444 -0.023716 0.999224
vn 0.031444 -0.023716 0.999224
vn 0.031444 -0.023716 0.999224
vn 0.031444 -0.023716 0.999224
vn 0.031444 -0.023716 0.999224
vn 0.031444 -0.023716 0.999224
vn -0.000000 0.000000 1.000000
vn -0.000000 0.000000 1.000000
vn -0.000000 0.000000 1.000000
vn -0.000000 0.000000 1.000000
vn 0.000000 1.000000 0.000000
vn 0.000000 1.000000 0.000000
vn 0.000000 1.000000 0.000000
vn 0.000000 1.000000 0.000000
vn 0.000000 1.000000 0.000000
vn -0.038594 0.000000 -0.999255
vn -0.038594 0.000000 -0.999255
vn -0.038594 0.000000 -0.999255
vn -0.038594 0.000000 -0.999255
vn -0.038594 0.000000 -0.999255
vn -0.038594 0.000000 -0.999255
vn 0.000000 -1.000000 0.000000
vn 0.000000 -1.000000 0.000000
vn 0.000000 -1.000000 0.000000
vn 0.000000 -1.000000 0.000000
vn 0.000000 -1.000000 0.000000
vn 0.000000 -1.000000 0.000000
vn 0.000000 -1.000000 0.000000
vn 0.000000 -1.000000 0.000000
vn 0.000000 -1.000000 0.000000
vn 0.000000 -1.000000 0.000000
vn -0.000000 0.000000 -1.000000
vn -0.000000 0.000000 -1.000000
vn -0.000000 0.000000 -1.000000
vn -0.000000 0.000000 -1.000000
vn -0.000000 0.000000 -1.000000
vn 0.141167 0.986839 0.078871
vn 0.141167 0.986839 0.078871
vn 0.141167 0.986839 0.078871
vn 0.150593 0.939298 0.308288
vn 0.150593 0.939298 0.308288
vn 0.150593 0.939298 0.308288
vn 0.020332 -0.955777 -0.293389
vn 0.020332 -0.955777 -0.293389
vn 0.020332 -0.955777 -0.293389
vn -1.000000 0.000000 0.000000
vn -1.000000 0.000000 0.000000
vn -1.000000 0.000000 0.000000
vn -1.000000 0.000000 0.000000
vn -0.196589 0.039214 0.979702
vn -0.196589 0.039214 0.979702
vn -0.196589 0.039214 0.979702
vn -0.196589 0.039214 0.979702
vn 0.022329 0.998067 0.057992
vn 0.022329 0.998067 0.057992
vn 0.022329 0.998067 0.057992
vn 0.022329 0.998067 0.057992
vn 0.022329 0.998067 0.057992
vn -1.000000 0.000000 0.000000
vn -1.000000 0.000000 0.000000
vn -1.000000 0.000000 0.000000
vn -1.000000 0.000000 0.000000
vn 0.000000 -1.000000 0.000000
vn 0.000000 -1.000000 0.000000
vn 0.000000 -1.000000 0.000000
vn 0.000000 -1.000000 0.000000
vn 0.000000 -1.000000 0.000000
vn 0.000000 -1.000000 0.000000
vn 0.000000 -1.000000 0.000000
vn 0.000000 -1.000000 0.000000
vn 0.000000 -1.000000 0.000000
vn -1.000000 0.000000 0.000000
vn -1.000000 0.000000 0.000000
vn -1.000000 0.000000 0.000000
vn -1.000000 0.000000 0.000000
vn 0.022464 0.997683 -0.064220
vn 0.022464 0.997683 -0.064220
vn 0.022464 0.997683 -0.064220
vn 0.022464 0.997683 -0.064220
vn 0.022464 0.997683 -0.064220
vn 0.000000 1.000000 0.000000
vn 0.000000 1.000000 0.000000
vn 0.000000 1.000000 0.000000
vn 0.000000 1.000000 0.000000
vn 0.000000 -1.000000 0.000000
vn 0.000000 -1.000000 0.000000
vn 0.000000 -1.000000 0.000000
vn 0.147583 0.767809 -0.623449
vn 0.147583 0.767809 -0.623449
vn 0.147583 0.767809 -0.623449
vn 0.100899 0.828305 0.551117
vn 0.100899 0.828305 0.551117
vn 0.100899 0.828305 0.551117
vn 1.000000 0.000000 0.000000
vn 1.000000 0.000000 0.000000
vn 1.000000 0.000000 0.000000
vn 1.000000 0.000000 0.000000
vn 1.000000 0.000000 0.000000
vn 1.000000 0.000000 0.000000
vn -0.026740 0.999632 0.004663
vn -0.026740 0.999632 0.004663
vn -0.026740 0.999632 0.004663
vn -0.026740 0.999632 0.004663
vn -0.026740 0.999632 0.004663
s off
f 30/1/1 29/2/2 31/3/3
f 14/4/4 20/5/5 10/6/6
f 26/7/7 23/8/8 22/9/9
f 28/10/10 18/11/11 19/12/12
f 27/13/13 21/14/14 16/15/15
f 17/16/16 15/17/17 11/18/18
f 8/19/19 7/20/20 27/21/21 16/22/22 1/23/23
f 32/24/24 33/25/25 36/26/26 37/27/27
f 9/28/28 8/29/29 1/30/30 38/31/31 40/32/32
f 16/33/33 21/34/34 41/35/35 38/36/36 1/37/37
f 2/38/38 13/39/39 26/40/40 6/41/41 3/42/42
f 24/43/43 25/44/44 8/45/45
f 14/46/46 10/47/47 5/48/48 25/49/49 12/50/50 11/51/51 15/52/52
f 8/53/53 25/54/54 5/55/55 7/56/56
f 22/57/57 23/58/58 24/59/59 8/60/60 9/61/61
f 29/62/62 30/63/63 9/64/64 28/65/65 19/66/66 4/67/67
f 7/68/68 31/69/69 29/70/70 4/71/71 21/72/72 27/73/73
f 5/74/74 6/75/75 31/76/76 7/77/77
f 6/78/78 26/79/79 22/80/80 9/81/81 30/82/82
f 26/83/83 13/84/84 23/85/85
f 24/86/86 12/87/87 25/88/88
f 30/89/89 31/90/90 6/91/91
f 17/92/92 20/93/93 14/94/94 15/95/95
f 34/96/96 35/97/97 33/98/98 32/99/99
f 34/100/100 32/101/101 23/102/102 13/103/103 2/104/104
f 3/105/105 35/106/106 34/107/107 2/108/108
f 3/109/109 6/110/110 5/111/111 33/112/112 35/113/113
f 36/114/114 33/115/115 10/116/116 20/117/117
f 37/118/118 36/119/119 20/120/120 17/121/121
f 32/122/122 11/123/123 12/124/124 24/125/125 23/126/126
f 17/127/127 11/128/128 32/129/129 37/130/130
f 10/131/131 33/132/132 5/133/133
f 38/134/134 41/135/135 40/136/136
f 40/137/137 41/138/138 39/139/139
f 41/140/140 21/141/141 4/142/142 19/143/143 18/144/144 39/145/145
f 9/146/146 40/147/147 39/148/148 18/149/149 28/150/150
