# This file uses centimeters as units for non-parametric coordinates.

v 0.115741 0.000000 -0.116058
v -0.000655 0.000000 -0.164270
v -0.117052 0.000000 -0.116058
v -0.165265 0.000000 0.000340
v -0.117052 0.000000 0.116735
v -0.000655 0.000000 0.164949
v 0.106778 0.003841 0.116405
v 0.163954 0.000000 0.000340
v 0.136399 0.138402 -0.137625
v -0.005995 0.150509 -0.200750
v -0.137381 0.138402 -0.137625
v -0.194083 0.138402 -0.000734
v -0.138491 0.129588 0.136354
v -0.000491 0.138402 0.192858
v 0.136399 0.138402 0.136156
v 0.194083 0.128560 -0.000910
v -0.000655 0.000000 0.000340
v 0.127073 0.330598 -0.127388
v -0.000655 0.337438 -0.180294
v -0.128382 0.330598 -0.127388
v -0.181289 0.337438 0.000340
v -0.128382 0.330598 0.128069
v -0.000655 0.337438 0.180973
v 0.127073 0.330598 0.128069
v 0.179979 0.337438 0.000340
v 0.080049 0.448550 -0.080366
v -0.000655 0.459684 -0.113794
v -0.081360 0.448550 -0.080366
v -0.114789 0.459684 0.000340
v -0.081360 0.448550 0.081043
v -0.000655 0.459684 0.114471
v 0.080049 0.448550 0.081043
v 0.113478 0.459684 0.000340
v 0.121081 0.514792 -0.120335
v -0.000655 0.526145 -0.165945
v -0.132341 0.524513 -0.106437
v -0.166941 0.526145 0.000340
v -0.118237 0.526145 0.117922
v 0.000007 0.514159 0.171797
v 0.116926 0.526145 0.117922
v 0.165631 0.526145 0.000340
v 0.108792 0.551377 -0.108047
v -0.000655 0.562730 -0.148569
v -0.120053 0.561098 -0.094148
v -0.149562 0.562730 0.000340
v -0.105948 0.562730 0.105633
v 0.000007 0.550744 0.154419
v 0.104638 0.562730 0.105633
v 0.148252 0.562730 0.000340
v 0.064224 0.456057 -0.064541
v -0.000655 0.456057 -0.091415
v -0.065534 0.456057 -0.064541
v -0.092408 0.456057 0.000340
v -0.065534 0.456057 0.065218
v -0.000655 0.456057 0.092093
v 0.064224 0.456057 0.065218
v 0.091098 0.456057 0.000340
v 0.137455 0.255955 -0.137770
v -0.000655 0.255955 -0.194977
v -0.000655 0.063597 0.000340
v -0.138765 0.255955 -0.137770
v -0.195972 0.255955 0.000340
v -0.138765 0.255955 0.138449
v -0.000655 0.255955 0.195654
v 0.137455 0.255955 0.138449
v 0.194662 0.255955 0.000340
v -0.089380 0.535701 -0.103014
v -0.036795 0.556579 -0.135643
v -0.041139 0.519994 -0.151224
v -0.102064 0.518138 -0.115698
v 0.195774 0.279801 0.196789
v -0.000669 0.279801 0.278159
v -0.198625 0.267788 0.197060
v -0.278482 0.279801 0.000347
v -0.197112 0.279801 -0.196097
v -0.003565 0.297870 -0.278160
v 0.195774 0.279801 -0.196097
v 0.278482 0.266387 0.000109
vt 0.023462 0.304063
vt 0.023462 0.304063
vt 0.023462 0.304063
vt 0.023462 0.304063
vt 0.023462 0.304063
vt 0.023462 0.304063
vt 0.023462 0.304063
vt 0.023462 0.304063
vt 0.023462 0.304063
vt 0.023462 0.304063
vt 0.023462 0.304063
vt 0.023462 0.304063
vt 0.023462 0.304063
vt 0.023462 0.304063
vt 0.023462 0.304063
vt 0.023462 0.304063
vt 0.023462 0.304063
vt 0.023462 0.304063
vt 0.023462 0.304063
vt 0.023462 0.304063
vt 0.023462 0.304063
vt 0.023462 0.304063
vt 0.023462 0.304063
vt 0.023462 0.304063
vt 0.023462 0.304063
vt 0.023462 0.304063
vt 0.023462 0.304063
vt 0.023462 0.304063
vt 0.023462 0.304063
vt 0.023462 0.304063
vt 0.023462 0.304063
vt 0.023462 0.304063
vt 0.023462 0.304063
vt 0.023462 0.304063
vt 0.023462 0.304063
vt 0.023462 0.304063
vt 0.023462 0.304063
vt 0.023462 0.304063
vt 0.023462 0.304063
vt 0.023462 0.304063
vt 0.023462 0.304063
vt 0.023462 0.304063
vt 0.023462 0.304063
vt 0.023462 0.304063
vt 0.023462 0.304063
vt 0.023462 0.304063
vt 0.023462 0.304063
vt 0.023462 0.304063
vt 0.023462 0.304063
vt 0.023462 0.304063
vt 0.023462 0.304063
vt 0.023462 0.304063
vt 0.023462 0.304063
vt 0.023462 0.304063
vt 0.023462 0.304063
vt 0.023462 0.304063
vt 0.023462 0.304063
vt 0.023462 0.304063
vt 0.023462 0.304063
vt 0.023462 0.304063
vt 0.023462 0.304063
vt 0.023462 0.304063
vt 0.023462 0.304063
vt 0.023462 0.304063
vt 0.023462 0.304063
vt 0.023462 0.304063
vt 0.023462 0.304063
vt 0.023462 0.304063
vt 0.023462 0.304063
vt 0.023462 0.304063
vt 0.023462 0.304063
vt 0.023462 0.304063
vt 0.023462 0.304063
vt 0.023462 0.304063
vt 0.023462 0.304063
vt 0.023462 0.304063
vt 0.023462 0.304063
vt 0.023462 0.304063
vt 0.023462 0.304063
vt 0.023462 0.304063
vt 0.023462 0.304063
vt 0.023462 0.304063
vt 0.023462 0.304063
vt 0.023462 0.304063
vt 0.023462 0.304063
vt 0.023462 0.304063
vt 0.023462 0.304063
vt 0.023462 0.304063
vt 0.023462 0.304063
vt 0.023462 0.304063
vt 0.023462 0.304063
vt 0.023462 0.304063
vn 0.379119 -0.201553 -0.903131
vn 0.379119 -0.201553 -0.903131
vn 0.379119 -0.201553 -0.903131
vn 0.379119 -0.201553 -0.903131
vn -0.391573 -0.214564 -0.894781
vn -0.391573 -0.214564 -0.894781
vn -0.391573 -0.214564 -0.894781
vn -0.391573 -0.214564 -0.894781
vn -0.906743 -0.191715 -0.375583
vn -0.906743 -0.191715 -0.375583
vn -0.906743 -0.191715 -0.375583
vn -0.906743 -0.191715 -0.375583
vn -0.909843 -0.195939 0.365779
vn -0.909843 -0.195939 0.365779
vn -0.909843 -0.195939 0.365779
vn -0.909843 -0.195939 0.365779
vn -0.368010 -0.190614 0.910074
vn -0.368010 -0.190614 0.910074
vn -0.368010 -0.190614 0.910074
vn -0.368010 -0.190614 0.910074
vn 0.390309 -0.199520 0.898805
vn 0.390309 -0.199520 0.898805
vn 0.390309 -0.199520 0.898805
vn 0.390309 -0.199520 0.898805
vn 0.881672 -0.229210 0.412453
vn 0.881672 -0.229210 0.412453
vn 0.881672 -0.229210 0.412453
vn 0.881672 -0.229210 0.412453
vn 0.900240 -0.204127 -0.384578
vn 0.900240 -0.204127 -0.384578
vn 0.900240 -0.204127 -0.384578
vn 0.900240 -0.204127 -0.384578
vn 0.000000 -1.000000 0.000000
vn 0.000000 -1.000000 0.000000
vn 0.000000 -1.000000 0.000000
vn 0.000000 -1.000000 0.000000
vn 0.000000 -1.000000 0.000000
vn 0.000000 -1.000000 0.000000
vn 0.000000 -1.000000 0.000000
vn 0.000000 -1.000000 0.000000
vn 0.000000 -1.000000 0.000000
vn 0.000000 -1.000000 0.000000
vn 0.000000 -1.000000 0.000000
vn 0.000000 -1.000000 0.000000
vn 0.000000 -1.000000 0.000000
vn 0.000000 -1.000000 0.000000
vn 0.000000 -1.000000 0.000000
vn 0.035729 -0.999362 0.000000
vn 0.035729 -0.999362 0.000000
vn 0.035729 -0.999362 0.000000
vn 0.000000 -0.999453 0.033074
vn 0.000000 -0.999453 0.033074
vn 0.000000 -0.999453 0.033074
vn 0.000000 -1.000000 0.000000
vn 0.000000 -1.000000 0.000000
vn 0.000000 -1.000000 0.000000
vn -0.279100 0.684170 0.673806
vn -0.279100 0.684170 0.673806
vn -0.279100 0.684170 0.673806
vn 0.279100 0.684170 0.673806
vn 0.279100 0.684170 0.673806
vn 0.279100 0.684170 0.673806
vn 0.673806 0.684171 0.279099
vn 0.673806 0.684171 0.279099
vn 0.673806 0.684171 0.279099
vn 0.673806 0.684171 -0.279099
vn 0.673806 0.684171 -0.279099
vn 0.673806 0.684171 -0.279099
vn 0.279093 0.684168 -0.673811
vn 0.279093 0.684168 -0.673811
vn 0.279093 0.684168 -0.673811
vn -0.279092 0.684168 -0.673811
vn -0.279092 0.684168 -0.673811
vn -0.279092 0.684168 -0.673811
vn -0.673805 0.684171 -0.279100
vn -0.673805 0.684171 -0.279100
vn -0.673805 0.684171 -0.279100
vn -0.673805 0.684171 0.279100
vn -0.673805 0.684171 0.279100
vn -0.673805 0.684171 0.279100
vn 0.373965 0.455128 -0.808089
vn 0.373965 0.455128 -0.808089
vn 0.373965 0.455128 -0.808089
vn 0.373965 0.455128 -0.808089
vn -0.373966 0.455128 -0.808089
vn -0.373966 0.455128 -0.808089
vn -0.373966 0.455128 -0.808089
vn -0.373966 0.455128 -0.808089
vn -0.808087 0.455131 -0.373967
vn -0.808087 0.455131 -0.373967
vn -0.808087 0.455131 -0.373967
vn -0.808087 0.455131 -0.373967
vn -0.808085 0.455136 0.373967
vn -0.808085 0.455136 0.373967
vn -0.808085 0.455136 0.373967
vn -0.808085 0.455136 0.373967
vn -0.373958 0.455143 0.808085
vn -0.373958 0.455143 0.808084
vn -0.373958 0.455143 0.808084
vn -0.373958 0.455143 0.808085
vn 0.373957 0.455144 0.808085
vn 0.373957 0.455144 0.808085
vn 0.373957 0.455144 0.808085
vn 0.373957 0.455143 0.808085
vn 0.808083 0.455139 0.373965
vn 0.808083 0.455139 0.373965
vn 0.808083 0.455139 0.373965
vn 0.808083 0.455139 0.373965
vn 0.808086 0.455134 -0.373966
vn 0.808086 0.455134 -0.373966
vn 0.808086 0.455134 -0.373966
vn 0.808086 0.455134 -0.373966
vn 0.231481 -0.602042 -0.764174
vn 0.231481 -0.602042 -0.764174
vn 0.231481 -0.602042 -0.764174
vn 0.231481 -0.602042 -0.764174
vn -0.288902 -0.580676 -0.761151
vn -0.288902 -0.580676 -0.761151
vn -0.288902 -0.580676 -0.761151
vn -0.288902 -0.580676 -0.761151
vn -0.288902 -0.580676 -0.761151
vn -0.733645 -0.602544 -0.314175
vn -0.733645 -0.602544 -0.314175
vn -0.733645 -0.602544 -0.314175
vn -0.733645 -0.602544 -0.314175
vn -0.733645 -0.602544 -0.314175
vn -0.778621 -0.555778 0.291306
vn -0.778621 -0.555778 0.291306
vn -0.778621 -0.555778 0.291306
vn -0.778621 -0.555778 0.291306
vn -0.321602 -0.606716 0.726958
vn -0.321602 -0.606716 0.726958
vn -0.321602 -0.606716 0.726958
vn -0.321602 -0.606716 0.726958
vn 0.322795 -0.608712 0.724757
vn 0.322795 -0.608712 0.724757
vn 0.322795 -0.608712 0.724757
vn 0.322795 -0.608712 0.724757
vn 0.778620 -0.555780 0.291306
vn 0.778620 -0.555780 0.291306
vn 0.778620 -0.555780 0.291306
vn 0.778620 -0.555780 0.291306
vn 0.763201 -0.604593 -0.228016
vn 0.763201 -0.604593 -0.228016
vn 0.763201 -0.604593 -0.228016
vn 0.763201 -0.604593 -0.228016
vn 0.354094 0.401822 -0.844486
vn 0.354094 0.401822 -0.844486
vn 0.354094 0.401822 -0.844486
vn 0.354094 0.401822 -0.844486
vn -0.871030 0.400848 -0.283951
vn -0.871030 0.400848 -0.283951
vn -0.871030 0.400848 -0.283951
vn -0.871030 0.400848 -0.283951
vn -0.845995 0.401865 0.350423
vn -0.845996 0.401865 0.350423
vn -0.845995 0.401865 0.350423
vn -0.845995 0.401865 0.350423
vn -0.345367 0.401856 0.848076
vn -0.345367 0.401856 0.848076
vn -0.345367 0.401856 0.848076
vn -0.345367 0.401856 0.848076
vn 0.348838 0.401860 0.846653
vn 0.348838 0.401860 0.846653
vn 0.348838 0.401860 0.846653
vn 0.348838 0.401860 0.846653
vn 0.845996 0.401865 0.350421
vn 0.845996 0.401865 0.350421
vn 0.845996 0.401865 0.350421
vn 0.845996 0.401865 0.350421
vn 0.846110 0.401861 -0.350150
vn 0.846110 0.401861 -0.350150
vn 0.846110 0.401861 -0.350150
vn 0.846110 0.401861 -0.350150
vn -0.289651 0.477333 0.829612
vn -0.289651 0.477333 0.829612
vn -0.289651 0.477333 0.829612
vn -0.289651 0.477333 0.829612
vn 0.808176 0.483956 0.335616
vn 0.808176 0.483956 0.335616
vn 0.808176 0.483956 0.335616
vn 0.808176 0.483956 0.335616
vn 0.808176 0.483956 0.335616
vn 0.827989 0.443629 -0.342968
vn 0.827989 0.443629 -0.342968
vn 0.827989 0.443629 -0.342968
vn 0.827989 0.443629 -0.342968
vn 0.383399 0.478696 -0.789845
vn 0.383399 0.478696 -0.789845
vn 0.383399 0.478696 -0.789845
vn 0.383399 0.478696 -0.789845
vn -0.385554 0.480549 -0.787668
vn -0.385554 0.480549 -0.787668
vn -0.385554 0.480549 -0.787668
vn -0.385554 0.480549 -0.787668
vn -0.827990 0.443629 -0.342966
vn -0.827990 0.443629 -0.342966
vn -0.827990 0.443629 -0.342966
vn -0.827990 0.443629 -0.342966
vn -0.829605 0.479424 0.286196
vn -0.829605 0.479424 0.286196
vn -0.829605 0.479424 0.286196
vn -0.829605 0.479424 0.286196
vn -0.345250 -0.431373 0.833498
vn -0.345250 -0.431373 0.833498
vn -0.345250 -0.431373 0.833498
vn -0.345250 -0.431373 0.833498
vn 0.345250 -0.431373 0.833498
vn 0.345250 -0.431373 0.833498
vn 0.345250 -0.431373 0.833498
vn 0.345250 -0.431373 0.833498
vn 0.833498 -0.431379 0.345245
vn 0.833498 -0.431379 0.345245
vn 0.833498 -0.431379 0.345245
vn 0.833498 -0.431379 0.345245
vn 0.833496 -0.431380 -0.345247
vn 0.833496 -0.431380 -0.345247
vn 0.833496 -0.431380 -0.345247
vn 0.833496 -0.431380 -0.345247
vn 0.345243 -0.431376 -0.833500
vn 0.345243 -0.431376 -0.833500
vn 0.345243 -0.431376 -0.833500
vn 0.345243 -0.431376 -0.833500
vn -0.345242 -0.431377 -0.833500
vn -0.345242 -0.431377 -0.833500
vn -0.345242 -0.431377 -0.833500
vn -0.345242 -0.431377 -0.833500
vn -0.833495 -0.431381 -0.345249
vn -0.833495 -0.431381 -0.345249
vn -0.833495 -0.431381 -0.345249
vn -0.833495 -0.431381 -0.345249
vn -0.833497 -0.431380 0.345246
vn -0.833497 -0.431380 0.345246
vn -0.833497 -0.431380 0.345246
vn -0.833497 -0.431380 0.345246
vn -0.818196 -0.489569 0.301460
vn -0.818195 -0.489569 0.301460
vn -0.818195 -0.489569 0.301460
vn -0.818196 -0.489569 0.301460
vn -0.810022 -0.480926 -0.335522
vn -0.810022 -0.480926 -0.335522
vn -0.810022 -0.480926 -0.335522
vn -0.810022 -0.480926 -0.335522
vn -0.327792 -0.454734 -0.828112
vn -0.327792 -0.454734 -0.828112
vn -0.327792 -0.454734 -0.828112
vn -0.327792 -0.454734 -0.828112
vn 0.312931 -0.458412 -0.831825
vn 0.312931 -0.458412 -0.831825
vn 0.312931 -0.458412 -0.831825
vn 0.312931 -0.458412 -0.831825
vn 0.793488 -0.484380 -0.368446
vn 0.793488 -0.484380 -0.368446
vn 0.793488 -0.484380 -0.368446
vn 0.793488 -0.484380 -0.368446
vn 0.791556 -0.488609 0.367016
vn 0.791556 -0.488609 0.367016
vn 0.791556 -0.488609 0.367016
vn 0.791556 -0.488609 0.367016
vn -0.303770 -0.491680 0.816073
vn -0.303770 -0.491680 0.816073
vn -0.303770 -0.491680 0.816073
vn -0.303770 -0.491680 0.816073
vn 0.334340 -0.486514 0.807168
vn 0.334340 -0.486514 0.807168
vn 0.334340 -0.486514 0.807168
vn 0.334340 -0.486514 0.807168
vn 0.302628 0.476999 0.825160
vn 0.302628 0.476999 0.825160
vn 0.302628 0.476999 0.825160
vn 0.302628 0.476999 0.825160
vn 0.302628 0.476999 0.825160
vn -0.367213 0.400027 -0.839722
vn -0.367213 0.400027 -0.839722
vn -0.367213 0.400027 -0.839722
vn -0.367213 0.400027 -0.839722
vn -0.041350 0.434107 -0.899912
vn -0.041350 0.434107 -0.899912
vn -0.041350 0.434107 -0.899912
vn -0.041350 0.434107 -0.899912
vn -0.514120 0.518380 -0.683347
vn -0.514120 0.518380 -0.683347
vn -0.514120 0.518380 -0.683347
vn -0.514120 0.518380 -0.683347
vn 0.213208 0.855901 0.471142
vn 0.213208 0.855901 0.471142
vn 0.213208 0.855901 0.471142
vn 0.213208 0.855901 0.471142
vn -0.252096 0.831053 0.495781
vn -0.252096 0.831053 0.495781
vn -0.252096 0.831053 0.495781
vn -0.252096 0.831053 0.495781
vn -0.495024 0.831865 0.250903
vn -0.495024 0.831865 0.250903
vn -0.495024 0.831865 0.250903
vn -0.495024 0.831865 0.250903
vn -0.471100 0.855928 -0.213195
vn -0.471100 0.855928 -0.213195
vn -0.471100 0.855928 -0.213195
vn -0.471100 0.855928 -0.213195
vn -0.231118 0.893396 -0.385264
vn -0.231118 0.893396 -0.385264
vn -0.231118 0.893396 -0.385264
vn -0.231118 0.893396 -0.385264
vn 0.229764 0.890630 -0.392412
vn 0.229764 0.890630 -0.392412
vn 0.229764 0.890630 -0.392412
vn 0.229764 0.890630 -0.392412
vn 0.521287 0.829274 -0.201406
vn 0.521287 0.829274 -0.201406
vn 0.521287 0.829274 -0.201406
vn 0.521287 0.829274 -0.201406
vn 0.521705 0.829039 0.201290
vn 0.521705 0.829039 0.201290
vn 0.521705 0.829039 0.201290
vn 0.521705 0.829039 0.201290
s off
f 9/4/1 1/1/2 2/2/3 10/3/4
f 10/3/5 2/2/6 3/5/7 11/6/8
f 11/6/9 3/5/10 4/7/11 12/8/12
f 12/8/13 4/7/14 5/9/15 13/10/16
f 13/10/17 5/9/18 6/11/19 14/12/20
f 14/12/21 6/11/22 7/13/23 15/14/24
f 15/14/25 7/13/26 8/15/27 16/16/28
f 16/16/29 8/15/30 1/1/31 9/4/32
f 2/2/33 1/1/34 17/17/35
f 3/5/36 2/2/37 17/17/38
f 4/7/39 3/5/40 17/17/41
f 5/9/42 4/7/43 17/17/44
f 6/11/45 5/9/46 17/17/47
f 7/13/48 6/11/49 17/17/50
f 8/15/51 7/13/52 17/17/53
f 1/1/54 8/15/55 17/17/56
f 58/25/57 59/24/58 60/32/59
f 59/24/60 61/23/61 60/32/62
f 61/23/63 62/22/64 60/32/65
f 62/22/66 63/21/67 60/32/68
f 63/21/69 64/20/70 60/32/71
f 64/20/72 65/19/73 60/32/74
f 65/19/75 66/18/76 60/32/77
f 66/18/78 58/25/79 60/32/80
f 26/41/81 18/33/82 19/34/83 27/42/84
f 27/42/85 19/34/86 20/35/87 28/43/88
f 28/43/89 20/35/90 21/36/91 29/44/92
f 29/44/93 21/36/94 22/37/95 30/45/96
f 30/45/97 22/37/98 23/38/99 31/46/100
f 31/46/101 23/38/102 24/39/103 32/47/104
f 32/47/105 24/39/106 25/40/107 33/48/108
f 33/48/109 25/40/110 18/33/111 26/41/112
f 34/49/113 26/41/114 27/42/115 35/50/116
f 35/50/117 27/42/118 28/43/119 70/78/120 69/77/121
f 36/51/122 70/78/123 28/43/124 29/44/125 37/52/126
f 37/52/127 29/44/128 30/45/129 38/53/130
f 38/53/131 30/45/132 31/46/133 39/54/134
f 39/54/135 31/46/136 32/47/137 40/55/138
f 40/55/139 32/47/140 33/48/141 41/56/142
f 41/56/143 33/48/144 26/41/145 34/49/146
f 42/57/147 34/49/148 35/50/149 43/58/150
f 44/59/151 36/51/152 37/52/153 45/60/154
f 45/60/155 37/52/156 38/53/157 46/61/158
f 46/61/159 38/53/160 39/54/161 47/62/162
f 47/62/163 39/54/164 40/55/165 48/63/166
f 48/63/167 40/55/168 41/56/169 49/64/170
f 49/64/171 41/56/172 34/49/173 42/57/174
f 50/65/175 42/57/176 43/58/177 51/66/178
f 52/67/179 67/75/180 44/59/181 45/60/182 53/68/183
f 53/68/184 45/60/185 46/61/186 54/69/187
f 54/69/188 46/61/189 47/62/190 55/70/191
f 55/70/192 47/62/193 48/63/194 56/31/195
f 56/31/196 48/63/197 49/64/198 57/26/199
f 57/26/200 49/64/201 42/57/202 50/65/203
f 59/24/204 58/25/205 50/65/206 51/66/207
f 61/23/208 59/24/209 51/66/210 52/67/211
f 62/22/212 61/23/213 52/67/214 53/68/215
f 63/21/216 62/22/217 53/68/218 54/69/219
f 64/20/220 63/21/221 54/69/222 55/70/223
f 65/19/224 64/20/225 55/70/226 56/31/227
f 66/18/228 65/19/229 56/31/230 57/26/231
f 58/25/232 66/18/233 57/26/234 50/65/235
f 73/87/236 74/88/237 12/30/238 13/71/239
f 74/88/240 75/89/241 11/29/242 12/30/243
f 75/89/244 76/90/245 10/28/246 11/29/247
f 76/90/248 77/91/249 9/27/250 10/28/251
f 77/91/252 78/92/253 16/74/254 9/27/255
f 78/92/256 71/85/257 15/73/258 16/74/259
f 72/86/260 73/87/261 13/71/262 14/72/263
f 14/72/264 15/73/265 71/85/266 72/86/267
f 51/66/268 43/58/269 68/76/270 67/75/271 52/67/272
f 43/58/273 35/50/274 69/77/275 68/76/276
f 70/79/277 36/80/278 44/81/279 67/82/280
f 69/83/281 70/79/282 67/82/283 68/84/284
f 72/86/285 71/85/286 24/39/287 23/38/288
f 23/38/289 22/37/290 73/87/291 72/86/292
f 22/37/293 21/36/294 74/88/295 73/87/296
f 21/36/297 20/35/298 75/89/299 74/88/300
f 20/35/301 19/34/302 76/90/303 75/89/304
f 19/34/305 18/33/306 77/91/307 76/90/308
f 18/33/309 25/40/310 78/92/311 77/91/312
f 25/40/313 24/39/314 71/85/315 78/92/316
