# This file uses centimeters as units for non-parametric coordinates.

v -0.087002 0.000000 0.087002
v 0.087003 0.000000 -0.002944
v -0.087002 2.453142 0.087002
v 0.087002 2.453142 0.087002
v -0.087002 2.453142 -0.087002
v 0.087002 2.453142 -0.087002
v -0.087002 0.000000 -0.087002
v 0.087002 0.000000 -0.087002
v 0.087002 0.375031 0.087002
v -0.087002 0.528161 0.087002
v -0.087002 0.528161 -0.087002
v 0.087002 0.528161 -0.087002
v 0.087002 1.715523 0.087002
v -0.030286 1.715523 0.087002
v -0.087002 1.715523 -0.087002
v 0.087002 1.715523 -0.087002
v 0.072014 0.630919 0.072011
v -0.072014 0.630919 0.072011
v -0.072014 0.630919 -0.072014
v 0.072014 0.630919 -0.072014
v -0.087002 2.298353 0.087002
v -0.077895 1.056429 0.077891
v -0.087002 1.715523 0.032475
v 0.082364 1.379964 -0.082366
v 0.025641 0.925090 -0.076080
v 0.075995 0.919001 -0.015180
v 0.013260 0.000000 0.087002
vt 0.090659 0.253504
vt 0.090659 0.253504
vt 0.090659 0.253504
vt 0.090659 0.253504
vt 0.090659 0.253504
vt 0.090659 0.253504
vt 0.090659 0.253504
vt 0.090659 0.253504
vt 0.090659 0.253504
vt 0.090659 0.253504
vt 0.090659 0.253504
vt 0.090659 0.253504
vt 0.090659 0.253504
vt 0.090659 0.253504
vt 0.090659 0.253504
vt 0.090659 0.253504
vt 0.090659 0.253504
vt 0.090659 0.253504
vt 0.090659 0.253504
vt 0.090659 0.253504
vt 0.090659 0.253504
vt 0.090659 0.253504
vt 0.090659 0.253504
vt 0.090659 0.253504
vt 0.090659 0.253504
vt 0.090659 0.253504
vt 0.090659 0.253504
vt 0.090659 0.253504
vt 0.090659 0.253504
vt 0.090659 0.253504
vt 0.090659 0.253504
vt 0.090659 0.253504
vt 0.090659 0.253504
vt 0.090659 0.253504
vt 0.090659 0.253504
vt 0.090659 0.253504
vt 0.090659 0.253504
vt 0.090659 0.253504
vt 0.090659 0.253504
vt 0.090659 0.253504
vt 0.090659 0.253504
vt 0.090659 0.253504
vn 0.000000 0.000000 1.000000
vn 0.000000 0.000000 1.000000
vn 0.000000 0.000000 1.000000
vn 0.000000 0.000000 1.000000
vn 0.000000 1.000000 0.000000
vn 0.000000 1.000000 0.000000
vn 0.000000 1.000000 0.000000
vn 0.000000 1.000000 0.000000
vn 0.000000 0.000000 -1.000000
vn 0.000000 0.000000 -1.000000
vn 0.000000 0.000000 -1.000000
vn 0.000000 0.000000 -1.000000
vn 0.000000 -1.000000 0.000000
vn 0.000000 -1.000000 0.000000
vn 0.000000 -1.000000 0.000000
vn 0.000000 -1.000000 0.000000
vn 0.000000 -1.000000 0.000000
vn 1.000000 0.000001 -0.000002
vn 1.000000 0.000001 -0.000002
vn 1.000000 0.000001 -0.000002
vn 1.000000 0.000001 -0.000002
vn -1.000000 0.000000 0.000000
vn -1.000000 0.000000 0.000000
vn -1.000000 0.000000 0.000000
vn -1.000000 0.000000 0.000000
vn 0.040080 0.083242 0.995723
vn 0.040080 0.083242 0.995723
vn 0.040080 0.083242 0.995723
vn 0.040080 0.083242 0.995723
vn -0.989531 0.144324 0.000000
vn -0.989531 0.144324 0.000000
vn -0.989530 0.144324 0.000000
vn -0.989531 0.144324 0.000000
vn 0.000000 0.144324 -0.989531
vn 0.000000 0.144324 -0.989531
vn 0.000000 0.144324 -0.989530
vn 0.000000 0.144324 -0.989530
vn 0.995725 0.083221 0.040071
vn 0.995725 0.083221 0.040071
vn 0.995725 0.083221 0.040071
vn 0.995725 0.083221 0.040071
vn 0.000000 0.000000 1.000000
vn 0.000000 0.000000 1.000000
vn 0.000000 0.000000 1.000000
vn -1.000000 0.000000 0.000000
vn -1.000000 0.000000 0.000000
vn -1.000000 0.000000 0.000000
vn 0.000000 0.000000 -1.000000
vn 0.000000 0.000000 -1.000000
vn 0.000000 0.000000 -1.000000
vn 0.000000 0.000000 -1.000000
vn 1.000000 0.000000 0.000000
vn 1.000000 0.000000 0.000000
vn 1.000000 0.000000 0.000000
vn 1.000000 0.000000 0.000000
vn -0.000005 -0.013821 0.999905
vn -0.000005 -0.013821 0.999905
vn -0.000005 -0.013821 0.999905
vn -0.000005 -0.013821 0.999905
vn -0.999905 -0.013817 -0.000002
vn -0.999905 -0.013817 -0.000002
vn -0.999905 -0.013817 -0.000002
vn -0.999905 -0.013817 -0.000002
vn -0.000005 -0.013816 -0.999905
vn -0.000005 -0.013816 -0.999905
vn -0.000005 -0.013816 -0.999905
vn -0.000005 -0.013816 -0.999905
vn -0.000005 -0.013816 -0.999905
vn 0.999905 -0.013815 0.000000
vn 0.999905 -0.013815 0.000000
vn 0.999905 -0.013815 0.000000
vn -0.692495 0.040065 0.720309
vn -0.692495 0.040065 0.720309
vn -0.692495 0.040065 0.720309
vn -0.691481 -0.067289 0.719254
vn -0.691481 -0.067289 0.719254
vn -0.691481 -0.067289 0.719254
vn 0.897646 -0.075683 -0.434171
vn 0.897646 -0.075683 -0.434171
vn 0.897646 -0.075683 -0.434170
vn 0.897646 -0.075683 -0.434170
vn 0.771267 0.112926 -0.626414
vn 0.771267 0.112926 -0.626414
vn 0.771267 0.112926 -0.626414
vn 0.999905 -0.013817 -0.000002
vn 0.999905 -0.013817 -0.000002
vn 0.999905 -0.013817 -0.000002
vn 0.999905 -0.013817 -0.000002
vn 0.000000 -0.013821 -0.999905
vn 0.000000 -0.013821 -0.999905
vn 0.000000 -0.013821 -0.999905
vn -1.000000 -0.000000 0.000000
vn -1.000000 -0.000000 0.000000
vn -1.000000 -0.000000 0.000000
vn -1.000000 -0.000000 0.000000
vn -0.000001 -0.000000 1.000000
vn -0.000001 -0.000000 1.000000
vn -0.000001 -0.000000 1.000000
vn -0.000001 -0.000000 1.000000
vn -0.999905 -0.013818 0.000000
vn -0.999905 -0.013818 0.000000
vn -0.999905 -0.013818 0.000000
vn 0.000000 -0.013818 0.999905
vn 0.000000 -0.013818 0.999905
vn 0.000000 -0.013818 0.999905
vn 0.764537 -0.150329 0.626804
vn 0.764537 -0.150329 0.626804
vn 0.764537 -0.150329 0.626804
s off
f 1/1/1 27/41/2 9/15/3 10/16/4
f 3/3/5 4/4/6 6/6/7 5/5/8
f 11/18/9 12/19/10 8/8/11 7/7/12
f 7/7/13 8/8/14 2/10/15 27/42/16 1/9/17
f 9/15/18 2/2/19 8/11/20 12/20/21
f 7/13/22 1/1/23 10/16/24 11/17/25
f 10/16/26 9/15/27 17/27/28 18/28/29
f 11/17/30 10/16/31 18/28/32 19/29/33
f 19/30/34 20/31/35 12/19/36 11/18/37
f 9/15/38 12/20/39 20/32/40 17/27/41
f 21/33/42 4/4/43 3/3/44
f 5/14/45 21/33/46 3/3/47
f 5/5/48 6/6/49 16/25/50 15/24/51
f 13/21/52 16/26/53 6/12/54 4/4/55
f 22/34/56 17/27/57 13/21/58 14/22/59
f 19/29/60 22/34/61 23/35/62 15/23/63
f 15/24/64 16/25/65 24/36/66 25/38/67 19/30/68
f 17/27/69 20/32/70 26/39/71
f 23/35/72 22/34/73 14/22/74
f 21/33/75 23/35/76 14/22/77
f 16/26/78 26/39/79 25/40/80 24/37/81
f 25/40/82 26/39/83 20/32/84
f 17/27/85 26/39/86 16/26/87 13/21/88
f 19/30/89 25/38/90 20/31/91
f 15/23/92 23/35/93 21/33/94 5/14/95
f 21/33/96 14/22/97 13/21/98 4/4/99
f 19/29/100 18/28/101 22/34/102
f 18/28/103 17/27/104 22/34/105
f 9/15/106 27/41/107 2/2/108
