# This file uses centimeters as units for non-parametric coordinates.

v -0.138239 -0.118234 0.996816
v 0.145717 -0.118234 0.996816
v -0.120350 0.060583 0.949105
v 0.127829 0.060583 0.949105
v -0.120350 0.060583 -0.949105
v 0.127829 0.060583 -0.949105
v -0.138239 -0.118234 -0.996815
v 0.145717 -0.118234 -0.996815
v -0.053759 0.060583 0.884788
v 0.060961 0.060583 0.884788
v 0.060961 0.060583 -0.884788
v -0.053759 0.060583 -0.884788
v -0.053759 0.030694 0.884788
v 0.060961 0.030694 0.884788
v 0.060961 0.030694 -0.884788
v -0.053759 0.030694 -0.884788
v 0.060961 0.060583 -0.171909
v 0.060961 0.030694 -0.171909
v -0.053759 0.030694 -0.171909
v -0.072716 0.060583 -0.195630
v -0.137340 0.060583 -0.726108
v -0.155229 -0.118234 -0.754752
v 0.155229 -0.118234 -0.179044
v 0.137340 0.060583 -0.150400
v 0.077838 0.060583 0.208017
v 0.060961 0.030694 0.196168
v -0.053759 0.030694 0.196168
v -0.053759 0.060583 0.196168
v -0.107753 0.060583 0.226021
v -0.138239 -0.118234 0.270500
v 0.145717 -0.118234 0.270500
v 0.127829 0.060583 0.238843
vt 0.197565 0.279068
vt 0.197565 0.279068
vt 0.197565 0.279068
vt 0.197565 0.279068
vt 0.198986 0.276645
vt 0.198986 0.276645
vt 0.198636 0.274321
vt 0.198636 0.274321
vt 0.198636 0.274321
vt 0.198636 0.274321
vt 0.197565 0.279068
vt 0.197565 0.279068
vt 0.197565 0.279068
vt 0.197565 0.279068
vt 0.197565 0.279068
vt 0.197565 0.279068
vt 0.198986 0.276645
vt 0.198986 0.276645
vt 0.197565 0.279068
vt 0.197565 0.279068
vt 0.198986 0.276645
vt 0.198986 0.276645
vt 0.008529 0.008411
vt 0.008529 0.008411
vt 0.008529 0.008411
vt 0.008529 0.008411
vt 0.197565 0.279068
vt 0.197565 0.279068
vt 0.197565 0.279068
vt 0.197565 0.279068
vt 0.198636 0.274321
vt 0.198636 0.274321
vt 0.197565 0.279068
vt 0.008529 0.008411
vt 0.197565 0.279068
vt 0.197565 0.279068
vt 0.008529 0.008411
vt 0.197565 0.279068
vt 0.197565 0.279068
vt 0.197565 0.279068
vt 0.198636 0.274321
vt 0.198636 0.274321
vt 0.197565 0.279068
vt 0.197565 0.279068
vt 0.197565 0.279068
vt 0.008529 0.008411
vt 0.197565 0.279068
vt 0.197565 0.279068
vt 0.008529 0.008411
vt 0.197565 0.279068
vt 0.197565 0.279068
vt 0.197565 0.279068
vt 0.198636 0.274321
vt 0.198636 0.274321
vt 0.197565 0.279068
vt 0.197565 0.279068
vn 0.000000 0.257796 0.966199
vn 0.000000 0.257796 0.966199
vn 0.000000 0.257796 0.966199
vn 0.000000 0.257796 0.966199
vn 0.000000 1.000000 0.000000
vn 0.000000 1.000000 0.000000
vn 0.000000 1.000000 0.000000
vn 0.000000 1.000000 0.000000
vn 0.000000 0.257795 -0.966200
vn 0.000000 0.257795 -0.966200
vn 0.000000 0.257795 -0.966200
vn 0.000000 0.257795 -0.966200
vn 0.000000 -1.000000 -0.000000
vn 0.000000 -1.000000 -0.000000
vn 0.000000 -1.000000 0.000000
vn 0.000000 -1.000000 0.000000
vn 0.995033 0.099542 0.000000
vn 0.995002 0.099600 0.007193
vn 0.994980 0.099617 0.009512
vn 0.995033 0.099542 0.000000
vn -0.991027 0.133460 0.007398
vn -0.991231 0.131857 -0.008615
vn -0.991231 0.131857 -0.008615
vn -0.990916 0.133930 0.012153
vn 0.000000 1.000000 -0.000000
vn 0.000000 1.000000 -0.000000
vn 0.000000 1.000000 -0.000000
vn 0.000000 1.000000 -0.000000
vn 0.000000 1.000000 0.000000
vn 0.000000 1.000000 0.000000
vn 0.000000 1.000000 0.000000
vn 0.000000 1.000000 0.000000
vn 0.000000 1.000000 0.000000
vn 0.000000 1.000000 0.000000
vn 0.000000 1.000000 0.000000
vn 0.000000 1.000000 0.000000
vn 0.000000 1.000000 0.000000
vn 0.000000 1.000000 0.000000
vn 0.000000 1.000000 0.000000
vn 0.000000 1.000000 0.000000
vn 0.000000 0.000000 -1.000000
vn 0.000000 0.000000 -1.000000
vn 0.000000 0.000000 -1.000000
vn 0.000000 0.000000 -1.000000
vn -0.961694 0.273868 -0.011887
vn -0.962213 0.272279 -0.003135
vn -0.962554 0.271067 0.003468
vn -0.961694 0.273868 -0.011887
vn 0.000000 0.000000 1.000000
vn 0.000000 0.000000 1.000000
vn 0.000000 0.000000 1.000000
vn 0.000000 0.000000 1.000000
vn 0.994048 0.108587 -0.008818
vn 1.000000 0.000000 0.000000
vn 1.000000 0.000000 0.000000
vn 0.994048 0.108587 -0.008818
vn -0.995431 0.095174 0.007728
vn -1.000000 0.000000 0.000000
vn -1.000000 0.000000 0.000000
vn -0.995431 0.095174 0.007728
vn 0.000000 1.000000 0.000000
vn 0.000000 1.000000 0.000000
vn 0.000000 1.000000 0.000000
vn 0.000000 1.000000 0.000000
vn 0.951655 0.306899 0.012867
vn 0.952540 0.304359 0.005760
vn 0.953999 0.299727 -0.007079
vn 0.951655 0.306899 0.012867
vn 0.000000 1.000000 -0.000000
vn 0.000000 1.000000 -0.000000
vn 0.000000 1.000000 -0.000000
vn 0.000000 1.000000 -0.000000
vn -0.990774 0.114572 -0.072391
vn -0.991437 0.130571 0.001996
vn -0.991245 0.131800 0.007859
vn -0.990774 0.114572 -0.072391
vn 0.000000 -1.000000 0.000000
vn 0.000000 -1.000000 0.000000
vn 0.000000 -1.000000 -0.000000
vn 0.000000 -1.000000 0.000000
vn 0.994872 0.101128 0.001607
vn 0.994851 0.101336 -0.001509
vn 0.994715 0.102010 -0.011706
vn 0.994715 0.102010 -0.011706
vn 0.000000 1.000000 0.000000
vn 0.000000 1.000000 0.000000
vn 0.000000 1.000000 0.000000
vn 0.000000 1.000000 0.000000
vn -0.962213 0.272279 -0.003135
vn -0.995431 0.095174 0.007728
vn -0.995431 0.095174 0.007728
vn -0.962554 0.271067 0.003468
vn 0.000000 1.000000 0.000000
vn 0.000000 1.000000 0.000000
vn 0.000000 1.000000 0.000000
vn 0.000000 1.000000 0.000000
vn 0.952540 0.304359 0.005760
vn 0.994048 0.108587 -0.008818
vn 0.994048 0.108587 -0.008818
vn 0.953999 0.299727 -0.007079
vn 0.000000 1.000000 -0.000000
vn 0.000000 1.000000 0.000000
vn 0.000000 1.000000 0.000000
vn 0.000000 1.000000 -0.000000
vn -0.991437 0.130571 0.001996
vn -0.991027 0.133460 0.007398
vn -0.990916 0.133930 0.012153
vn -0.991245 0.131800 0.007859
vn 0.000000 -1.000000 0.000000
vn 0.000000 -1.000000 -0.000000
vn 0.000000 -1.000000 -0.000000
vn 0.000000 -1.000000 -0.000000
vn 0.994980 0.099617 0.009512
vn 0.995002 0.099600 0.007193
vn 0.994851 0.101336 -0.001509
vn 0.994872 0.101128 0.001607
vn 0.000000 1.000000 0.000000
vn 0.000000 1.000000 0.000000
vn 0.000000 1.000000 0.000000
vn 0.000000 1.000000 0.000000
s off
f 1/1/1 2/2/2 4/3/3 3/4/4
f 13/23/5 14/24/6 26/46/7 27/49/8
f 5/7/9 6/8/10 8/9/11 7/10/12
f 30/53/13 31/54/14 2/31/15 1/32/16
f 2/2/17 31/55/18 32/56/19 4/3/20
f 30/52/21 1/1/22 3/4/23 29/51/24
f 3/4/25 4/3/26 10/15/27 9/16/28
f 4/3/29 32/56/30 25/45/31 10/15/32
f 6/5/33 5/6/34 12/17/35 11/18/36
f 29/51/37 3/4/38 9/16/39 28/50/40
f 9/16/41 10/15/42 14/27/43 13/28/44
f 10/15/45 25/45/46 26/47/47 14/27/48
f 11/18/49 12/17/50 16/21/51 15/22/52
f 28/50/53 9/16/54 13/28/55 27/48/56
f 17/33/57 11/19/58 15/29/59 18/35/60
f 19/37/61 18/34/62 15/25/63 16/26/64
f 12/20/65 20/38/66 19/36/67 16/30/68
f 5/14/69 21/39/70 20/38/71 12/20/72
f 7/13/73 22/40/74 21/39/75 5/14/76
f 7/10/77 8/9/78 23/42/79 22/41/80
f 24/44/81 23/43/82 8/11/83 6/12/84
f 17/33/85 24/44/86 6/12/87 11/19/88
f 25/45/89 17/33/90 18/35/91 26/47/92
f 27/49/93 26/46/94 18/34/95 19/37/96
f 20/38/97 28/50/98 27/48/99 19/36/100
f 21/39/101 29/51/102 28/50/103 20/38/104
f 22/40/105 30/52/106 29/51/107 21/39/108
f 22/41/109 23/42/110 31/54/111 30/53/112
f 32/56/113 31/55/114 23/43/115 24/44/116
f 25/45/117 32/56/118 24/44/119 17/33/120
