# This file uses centimeters as units for non-parametric coordinates.

v 0.161361 0.162031 -0.099962
v -0.161361 0.162031 -0.099962
v -0.161361 -0.162031 -0.099962
v 0.161361 -0.162031 -0.099962
v 0.149834 0.150456 0.057395
v -0.149834 0.150456 0.057395
v -0.149834 -0.150456 0.057395
v 0.149834 -0.150456 0.057395
v 0.119476 0.113514 0.057395
v -0.119476 0.113514 0.057395
v -0.119476 -0.113514 0.057395
v 0.119476 -0.113514 0.057395
v 0.092928 0.082763 0.099962
v -0.092928 0.082763 0.099962
v -0.092928 -0.082763 0.099962
v 0.092928 -0.082763 0.099962
v 0.049920 0.045650 0.099962
v -0.049920 0.045650 0.099962
v -0.049920 -0.045650 0.099962
v 0.049920 -0.045650 0.099962
v 0.043880 0.037116 0.054935
v -0.043880 0.037116 0.054935
v -0.043880 -0.037116 0.054935
v 0.043880 -0.037116 0.054935
v -0.161361 -0.162031 0.039190
v -0.161361 0.162031 0.039190
v 0.161361 0.162031 0.039190
v 0.161361 -0.162031 0.039190
v 0.012590 0.084930 0.099962
v 0.004135 0.052079 0.099962
v -0.000000 0.037116 0.054935
v -0.000000 -0.037116 0.054935
v 0.000819 -0.053666 0.099962
v -0.036345 -0.087160 0.099962
v -0.000000 -0.113514 0.057395
v -0.074975 -0.137281 0.057395
v -0.076948 -0.162031 0.039190
v -0.076948 -0.162031 -0.099962
v -0.033911 0.162031 -0.099962
v -0.033911 0.162031 0.039190
v -0.046120 0.143888 0.057395
v -0.027561 0.111226 0.057395
v 0.055757 -0.008644 0.099962
v 0.043880 -0.000000 0.054935
v -0.000000 -0.000000 0.054935
v -0.043880 0.022784 0.054935
v -0.058436 0.026353 0.099962
v -0.084985 -0.009621 0.099962
v -0.119476 0.000000 0.057395
v -0.138866 0.072575 0.057395
v -0.161361 0.072575 0.039190
v -0.161361 0.072575 -0.099962
v -0.000000 -0.000000 -0.099962
v 0.161361 -0.000000 -0.099962
v 0.161361 0.061468 0.039190
v 0.141672 0.064729 0.057395
v 0.126689 -0.026030 0.057395
v 0.092928 -0.000000 0.099962
vt 0.201610 0.251301
vt 0.201610 0.251301
vt 0.201610 0.251301
vt 0.201610 0.251301
vt 0.201610 0.251301
vt 0.201610 0.251301
vt 0.201610 0.251301
vt 0.201610 0.251301
vt 0.201610 0.251301
vt 0.201610 0.251301
vt 0.201610 0.251301
vt 0.201610 0.251301
vt 0.201610 0.251301
vt 0.201610 0.251301
vt 0.201610 0.251301
vt 0.201610 0.251301
vt 0.201610 0.251301
vt 0.201610 0.251301
vt 0.008052 0.012995
vt 0.197280 0.279986
vt 0.197280 0.279986
vt 0.197280 0.279986
vt 0.197280 0.279986
vt 0.197280 0.279986
vt 0.197280 0.279986
vt 0.197280 0.279986
vt 0.197280 0.279986
vt 0.197280 0.279986
vt 0.197280 0.279986
vt 0.197280 0.279986
vt 0.197280 0.279986
vt 0.197280 0.279986
vt 0.197280 0.279986
vt 0.197280 0.279986
vt 0.197280 0.279986
vt 0.008052 0.012995
vt 0.008052 0.012995
vt 0.008052 0.012995
vt 0.201610 0.251301
vt 0.201610 0.251301
vt 0.201610 0.251301
vt 0.201610 0.251301
vt 0.201610 0.251301
vt 0.201610 0.251301
vt 0.201610 0.251301
vt 0.201610 0.251301
vt 0.201610 0.251301
vt 0.201610 0.251301
vt 0.201610 0.251301
vt 0.201610 0.251301
vt 0.201610 0.251301
vt 0.201610 0.251301
vt 0.201610 0.251301
vt 0.201610 0.251301
vt 0.201610 0.251301
vt 0.201610 0.251301
vt 0.201610 0.251301
vt 0.201610 0.251301
vt 0.201610 0.251301
vt 0.201610 0.251301
vt 0.201610 0.251301
vt 0.201610 0.251301
vt 0.201610 0.251301
vt 0.201610 0.251301
vt 0.197280 0.279986
vt 0.197280 0.279986
vt 0.008052 0.012995
vt 0.197280 0.279986
vt 0.008052 0.012995
vt 0.197280 0.279986
vt 0.197280 0.279986
vt 0.197280 0.279986
vt 0.197280 0.279986
vt 0.201610 0.251301
vt 0.201610 0.251301
vt 0.201610 0.251301
vt 0.201610 0.251301
vt 0.201610 0.251301
vt 0.201610 0.251301
vt 0.201610 0.251301
vt 0.201610 0.251301
vt 0.201610 0.251301
vt 0.201610 0.251301
vt 0.201610 0.251301
vt 0.197280 0.279986
vt 0.201610 0.251301
vt 0.197280 0.279986
vt 0.008052 0.012995
vt 0.197280 0.279986
vt 0.008052 0.012995
vt 0.008052 0.012995
vt 0.197280 0.279986
vt 0.197280 0.279986
vt 0.197280 0.279986
vt 0.197280 0.279986
vt 0.201610 0.251301
vt 0.201610 0.251301
vt 0.201610 0.251301
vt 0.201610 0.251301
vt 0.201610 0.251301
vt 0.201610 0.251301
vt 0.201610 0.251301
vt 0.201610 0.251301
vt 0.201610 0.251301
vt 0.201610 0.251301
vt 0.201610 0.251301
vt 0.201610 0.251301
vt 0.197280 0.279986
vt 0.201610 0.251301
vt 0.197280 0.279986
vn 0.000000 1.000000 0.000000
vn 0.000000 1.000000 0.000000
vn -0.000659 0.995393 0.095872
vn -0.001385 0.997791 0.066419
vn -0.994694 0.000000 0.102878
vn -1.000000 0.000000 0.000000
vn -1.000000 0.000000 0.000000
vn -0.997226 0.001924 0.074408
vn 0.000000 -1.000000 0.000000
vn 0.000000 -1.000000 0.000000
vn -0.002280 -0.996845 0.079344
vn 0.000193 -0.994190 0.107635
vn 0.996911 0.001719 0.078515
vn 1.000000 -0.000000 0.000000
vn 1.000000 -0.000000 0.000000
vn 0.994809 0.000234 0.101756
vn -0.000000 0.000000 -1.000000
vn -0.000000 0.000000 -1.000000
vn 0.000000 0.000000 -1.000000
vn 0.000000 0.000000 -1.000000
vn -0.000000 0.000000 1.000000
vn -0.000000 0.000000 1.000000
vn -0.000000 0.000000 1.000000
vn 0.000000 0.000000 1.000000
vn 0.000000 0.000000 1.000000
vn -0.000000 0.000000 1.000000
vn -0.000000 0.000000 1.000000
vn 0.000000 0.000000 1.000000
vn 0.000000 0.000000 1.000000
vn 0.000000 0.000000 1.000000
vn 0.000000 0.000000 1.000000
vn 0.000000 0.000000 1.000000
vn 0.000000 0.000000 1.000000
vn -0.000000 0.000000 1.000000
vn -0.000000 0.000000 1.000000
vn -0.000000 0.000000 1.000000
vn 0.000000 0.000000 1.000000
vn 0.000000 0.000000 1.000000
vn 0.000000 0.000000 1.000000
vn 0.000000 0.000000 1.000000
vn -0.000444 0.830700 0.556720
vn 0.000211 0.830849 0.556497
vn -0.000197 0.830756 0.556636
vn -0.000444 0.830700 0.556720
vn -0.818157 0.003667 0.574983
vn -0.818485 -0.003646 0.574517
vn -0.816273 0.034736 0.576621
vn -0.816273 0.034736 0.576621
vn 0.006404 -0.826864 0.562366
vn 0.014588 -0.825366 0.564409
vn 0.014588 -0.825366 0.564409
vn -0.007354 -0.829244 0.558839
vn 0.804662 -0.034091 0.592754
vn 0.804662 -0.034091 0.592754
vn 0.809377 -0.008828 0.587223
vn 0.812237 0.008181 0.583271
vn -0.000000 0.000000 1.000000
vn -0.000000 0.000000 1.000000
vn -0.000000 0.000000 1.000000
vn -0.000000 0.000000 1.000000
vn 0.000000 0.000000 1.000000
vn 0.000000 0.000000 1.000000
vn 0.000000 0.000000 1.000000
vn 0.000000 0.000000 1.000000
vn 0.000000 0.000000 1.000000
vn 0.000000 0.000000 1.000000
vn 0.000000 0.000000 1.000000
vn 0.000000 0.000000 1.000000
vn -0.000000 0.000000 1.000000
vn -0.000000 0.000000 1.000000
vn -0.000000 0.000000 1.000000
vn -0.000000 0.000000 1.000000
vn -0.069070 -0.963360 0.259166
vn -0.003600 -0.966461 0.256790
vn 0.003657 -0.966548 0.256459
vn -0.069070 -0.963360 0.259166
vn 0.972816 0.004664 0.231533
vn 0.972683 -0.001901 0.232131
vn 0.972149 0.062760 0.225803
vn 0.972149 0.062760 0.225803
vn -0.000868 0.961885 0.273452
vn -0.082622 0.958388 0.273249
vn -0.082622 0.958389 0.273249
vn 0.000894 0.961890 0.273436
vn -0.974977 0.076771 0.208629
vn -0.974977 0.076771 0.208629
vn -0.979304 0.007994 0.202236
vn -0.979638 -0.007974 0.200614
vn -0.734692 0.000600 0.678400
vn -0.994694 0.000000 0.102878
vn -0.997226 0.001924 0.074408
vn -0.733328 0.017575 0.679648
vn -0.001385 0.997791 0.066419
vn -0.000659 0.995393 0.095872
vn 0.004976 0.776621 0.629949
vn -0.013074 0.778803 0.627133
vn 0.761948 0.014176 0.647483
vn 0.996911 0.001719 0.078515
vn 0.994809 0.000234 0.101756
vn 0.762322 -0.001344 0.647197
vn 0.000193 -0.994190 0.107635
vn -0.002280 -0.996845 0.079344
vn -0.020211 -0.710434 0.703474
vn -0.002175 -0.712463 0.701706
vn -0.000000 0.000000 1.000000
vn -0.000000 0.000000 1.000000
vn -0.000000 0.000000 1.000000
vn -0.000000 0.000000 1.000000
vn 0.003657 -0.966548 0.256459
vn -0.003600 -0.966461 0.256790
vn 0.063367 -0.965332 0.253217
vn 0.063367 -0.965332 0.253217
vn 0.000000 0.000000 1.000000
vn -0.000000 0.000000 1.000000
vn 0.000000 0.000000 1.000000
vn 0.000000 0.000000 1.000000
vn 0.081237 0.958915 0.271813
vn -0.000868 0.961885 0.273452
vn 0.000894 0.961890 0.273436
vn 0.081237 0.958915 0.271813
vn 0.000000 0.000000 1.000000
vn 0.000000 0.000000 1.000000
vn 0.000000 0.000000 1.000000
vn 0.000000 0.000000 1.000000
vn -0.020762 -0.831398 0.555289
vn 0.006404 -0.826864 0.562366
vn -0.007354 -0.829244 0.558839
vn -0.020762 -0.831398 0.555289
vn 0.000000 0.000000 1.000000
vn 0.000000 0.000000 1.000000
vn -0.000000 0.000000 1.000000
vn 0.000000 0.000000 1.000000
vn 0.006452 -0.997130 0.075428
vn 0.000193 -0.994190 0.107635
vn -0.002175 -0.712463 0.701706
vn 0.059360 -0.717602 0.693919
vn 0.000000 -1.000000 0.000000
vn 0.000000 -1.000000 0.000000
vn 0.000193 -0.994190 0.107635
vn 0.006452 -0.997130 0.075428
vn -0.000000 0.000000 -1.000000
vn -0.000000 0.000000 -1.000000
vn -0.000000 0.000000 -1.000000
vn -0.000000 0.000000 -1.000000
vn -0.000659 0.995393 0.095872
vn 0.000000 1.000000 0.000000
vn 0.000000 1.000000 0.000000
vn 0.002139 0.998106 0.061487
vn 0.004976 0.776621 0.629949
vn -0.000659 0.995393 0.095872
vn 0.002139 0.998106 0.061487
vn 0.022000 0.774321 0.632410
vn -0.000000 0.000000 1.000000
vn -0.000000 0.000000 1.000000
vn -0.000000 0.000000 1.000000
vn -0.000000 0.000000 1.000000
vn -0.000197 0.830756 0.556636
vn 0.000211 0.830849 0.556497
vn 0.000512 0.830918 0.556395
vn 0.000512 0.830918 0.556395
vn -0.979638 -0.007974 0.200614
vn -0.979304 0.007994 0.202236
vn -0.978873 -0.062499 0.194683
vn -0.978873 -0.062499 0.194683
vn -0.000000 0.000000 1.000000
vn -0.000000 0.000000 1.000000
vn -0.000000 0.000000 1.000000
vn -0.000000 0.000000 1.000000
vn 0.000000 0.000000 1.000000
vn -0.000000 0.000000 1.000000
vn -0.000000 0.000000 1.000000
vn -0.000000 0.000000 1.000000
vn 0.939411 -0.237875 0.246825
vn 0.939411 -0.237875 0.246825
vn 0.972683 -0.001901 0.232131
vn 0.972816 0.004664 0.231533
vn 0.000000 0.000000 1.000000
vn 0.000000 0.000000 1.000000
vn 0.000000 0.000000 1.000000
vn 0.000000 0.000000 1.000000
vn -0.819332 -0.031607 0.572447
vn -0.819332 -0.031607 0.572447
vn -0.818485 -0.003646 0.574517
vn -0.818157 0.003667 0.574983
vn 0.000000 0.000000 1.000000
vn 0.000000 0.000000 1.000000
vn 0.000000 0.000000 1.000000
vn 0.000000 0.000000 1.000000
vn -0.737425 -0.048333 0.673698
vn -0.997493 -0.005064 0.070589
vn -0.994694 0.000000 0.102878
vn -0.734692 0.000600 0.678400
vn -0.997493 -0.005064 0.070589
vn -1.000000 0.000000 0.000000
vn -1.000000 0.000000 0.000000
vn -0.994694 0.000000 0.102878
vn -0.000000 0.000000 -1.000000
vn -0.000000 0.000000 -1.000000
vn -0.000000 0.000000 -1.000000
vn -0.000000 0.000000 -1.000000
vn 0.000000 0.000000 -1.000000
vn -0.000000 0.000000 -1.000000
vn -0.000000 0.000000 -1.000000
vn 0.000000 0.000000 -1.000000
vn 0.994809 0.000234 0.101756
vn 1.000000 -0.000000 0.000000
vn 1.000000 -0.000000 0.000000
vn 0.998712 -0.002620 0.050668
vn 0.762322 -0.001344 0.647197
vn 0.994809 0.000234 0.101756
vn 0.998712 -0.002620 0.050668
vn 0.762511 -0.033408 0.646113
vn 0.000000 0.000000 1.000000
vn 0.000000 0.000000 1.000000
vn 0.000000 0.000000 1.000000
vn 0.000000 0.000000 1.000000
vn 0.812237 0.008181 0.583271
vn 0.809377 -0.008828 0.587223
vn 0.815024 0.026443 0.578824
vn 0.815024 0.026443 0.578824
vn -0.000000 0.000000 1.000000
vn -0.000000 0.000000 1.000000
vn 0.000000 0.000000 1.000000
vn 0.000000 0.000000 1.000000
s off
f 1/5/1 39/80/2 40/82/3 27/62/4
f 51/99/5 52/100/6 3/7/7 25/57/8
f 38/78/9 4/8/10 28/63/11 37/77/12
f 28/64/13 4/54/14 54/103/15 55/105/16
f 38/79/17 53/102/18 54/104/19 4/4/20
f 24/38/21 44/88/22 45/90/23 32/69/24
f 5/18/25 41/83/26 42/86/27 9/39/28
f 49/96/29 50/97/30 7/48/31 11/44/32
f 36/75/33 8/46/34 12/42/35 35/74/36
f 12/41/37 8/15/38 56/106/39 57/109/40
f 9/20/41 42/85/42 29/65/43 13/24/44
f 48/94/45 49/95/46 11/22/47 15/26/48
f 35/73/49 12/23/50 16/27/51 34/72/52
f 16/27/53 12/23/54 57/108/55 58/110/56
f 13/24/57 29/65/58 30/66/59 17/28/60
f 47/93/61 48/94/62 15/26/63 19/30/64
f 34/72/65 16/27/66 20/31/67 33/71/68
f 20/31/69 16/27/70 58/110/71 43/87/72
f 17/28/73 30/66/74 31/68/75 21/32/76
f 46/92/77 47/93/78 19/30/79 23/34/80
f 33/71/81 20/31/82 24/35/83 32/70/84
f 24/35/85 20/31/86 43/87/87 44/89/88
f 50/98/89 51/99/90 25/57/91 7/47/92
f 27/62/93 40/82/94 41/84/95 5/10/96
f 8/13/97 28/64/98 55/105/99 56/107/100
f 37/77/101 28/63/102 8/45/103 36/76/104
f 29/65/105 14/25/106 18/29/107 30/66/108
f 31/68/109 30/66/110 18/29/111 22/33/112
f 32/69/113 45/90/114 46/91/115 23/37/116
f 19/30/117 33/71/118 32/70/119 23/34/120
f 15/26/121 34/72/122 33/71/123 19/30/124
f 11/22/125 35/73/126 34/72/127 15/26/128
f 7/16/129 36/75/130 35/74/131 11/43/132
f 25/58/133 37/77/134 36/76/135 7/12/136
f 3/55/137 38/78/138 37/77/139 25/58/140
f 3/3/141 52/101/142 53/102/143 38/79/144
f 40/82/145 39/80/146 2/6/147 26/59/148
f 41/84/149 40/82/150 26/59/151 6/51/152
f 42/86/153 41/83/154 6/52/155 10/50/156
f 29/65/157 42/85/158 10/21/159 14/25/160
f 44/89/161 43/87/162 17/28/163 21/32/164
f 45/90/165 44/88/166 21/19/167 31/67/168
f 46/91/169 45/90/170 31/67/171 22/36/172
f 22/33/173 18/29/174 47/93/175 46/92/176
f 18/29/177 14/25/178 48/94/179 47/93/180
f 14/25/181 10/21/182 49/95/183 48/94/184
f 10/49/185 6/17/186 50/97/187 49/96/188
f 6/11/189 26/60/190 51/99/191 50/98/192
f 26/60/193 2/56/194 52/100/195 51/99/196
f 53/102/197 52/101/198 2/2/199 39/81/200
f 54/104/201 53/102/202 39/81/203 1/1/204
f 55/105/205 54/103/206 1/9/207 27/61/208
f 56/107/209 55/105/210 27/61/211 5/14/212
f 57/109/213 56/106/214 5/53/215 9/40/216
f 58/110/217 57/108/218 9/20/219 13/24/220
f 43/87/221 58/110/222 13/24/223 17/28/224
