# This file uses centimeters as units for non-parametric coordinates.

v 0.093549 0.162031 -0.106558
v -0.093549 0.162031 -0.106558
v -0.187098 0.000000 -0.106558
v -0.093549 -0.162031 -0.106558
v 0.093549 -0.162031 -0.106558
v 0.187098 -0.000000 -0.106558
v 0.093549 0.162031 0.063991
v -0.091579 0.148808 0.063991
v -0.187098 0.000000 0.063991
v -0.087054 -0.152152 0.063991
v 0.093549 -0.162031 0.063991
v 0.175430 0.000278 0.063991
v 0.000000 -0.000000 -0.106558
v 0.065537 0.113514 0.063991
v -0.065537 0.113514 0.063991
v -0.131075 0.000000 0.063991
v -0.065537 -0.113514 0.063991
v 0.065537 -0.113514 0.063991
v 0.131075 -0.000000 0.063991
v 0.047783 0.082763 0.106558
v -0.047783 0.082763 0.106558
v -0.092200 -0.009407 0.106558
v -0.047783 -0.082763 0.106558
v 0.057479 -0.077903 0.106558
v 0.094608 0.008687 0.106558
v 0.034965 0.060562 0.106558
v -0.034965 0.060562 0.106558
v -0.069931 0.000000 0.106558
v -0.034965 -0.060562 0.106558
v 0.034965 -0.060562 0.106558
v 0.069931 -0.000000 0.106558
v 0.024927 0.043175 0.061531
v -0.024927 0.043175 0.061531
v 0.000000 -0.000000 0.061531
v -0.049855 0.000000 0.061531
v -0.024927 -0.043175 0.061531
v 0.024927 -0.043175 0.061531
v 0.049855 -0.000000 0.061531
vt 0.201610 0.251301
vt 0.201610 0.251301
vt 0.201610 0.251301
vt 0.201610 0.251301
vt 0.201610 0.251301
vt 0.201610 0.251301
vt 0.201610 0.251301
vt 0.201610 0.251301
vt 0.201610 0.251301
vt 0.201610 0.251301
vt 0.201610 0.251301
vt 0.201610 0.251301
vt 0.201610 0.251301
vt 0.201610 0.251301
vt 0.201610 0.251301
vt 0.201610 0.251301
vt 0.201610 0.251301
vt 0.201610 0.251301
vt 0.201610 0.251301
vt 0.201610 0.251301
vt 0.201610 0.251301
vt 0.201610 0.251301
vt 0.201610 0.251301
vt 0.201610 0.251301
vt 0.201610 0.251301
vt 0.201610 0.251301
vt 0.201610 0.251301
vt 0.008052 0.012995
vt 0.197280 0.279986
vt 0.197280 0.279986
vt 0.197280 0.279986
vt 0.197280 0.279986
vt 0.197280 0.279986
vt 0.197280 0.279986
vt 0.197280 0.279986
vt 0.197280 0.279986
vt 0.197280 0.279986
vt 0.197280 0.279986
vt 0.197280 0.279986
vt 0.197280 0.279986
vt 0.197280 0.279986
vt 0.197280 0.279986
vt 0.197280 0.279986
vt 0.197280 0.279986
vt 0.197280 0.279986
vt 0.197280 0.279986
vt 0.197280 0.279986
vt 0.197280 0.279986
vt 0.197280 0.279986
vt 0.197280 0.279986
vt 0.197280 0.279986
vt 0.197280 0.279986
vt 0.008052 0.012995
vt 0.008052 0.012995
vt 0.008052 0.012995
vt 0.008052 0.012995
vt 0.008052 0.012995
vt 0.008052 0.012995
vt 0.201610 0.251301
vt 0.201610 0.251301
vt 0.201610 0.251301
vt 0.201610 0.251301
vt 0.201610 0.251301
vt 0.201610 0.251301
vt 0.201610 0.251301
vt 0.201610 0.251301
vt 0.201610 0.251301
vt 0.201610 0.251301
vt 0.201610 0.251301
vt 0.201610 0.251301
vt 0.201610 0.251301
vt 0.201610 0.251301
vt 0.201610 0.251301
vt 0.201610 0.251301
vt 0.201610 0.251301
vt 0.201610 0.251301
vt 0.201610 0.251301
vt 0.201610 0.251301
vt 0.201610 0.251301
vt 0.201610 0.251301
vt 0.201610 0.251301
vt 0.201610 0.251301
vt 0.201610 0.251301
vt 0.201610 0.251301
vt 0.201610 0.251301
vt 0.201610 0.251301
vt 0.201610 0.251301
vt 0.201610 0.251301
vt 0.201610 0.251301
vt 0.201610 0.251301
vt 0.201610 0.251301
vt 0.201610 0.251301
vt 0.201610 0.251301
vt 0.201610 0.251301
vt 0.201610 0.251301
vt 0.201610 0.251301
vt 0.201610 0.251301
vn -0.035475 0.998613 0.038918
vn -0.035475 0.998613 0.038918
vn -0.035475 0.998613 0.038918
vn -0.035475 0.998613 0.038918
vn -0.854100 0.519505 0.025072
vn -0.854100 0.519505 0.025072
vn -0.854100 0.519505 0.025072
vn -0.854100 0.519505 0.025072
vn -0.850938 -0.524328 0.031389
vn -0.850938 -0.524328 0.031389
vn -0.850938 -0.524328 0.031389
vn -0.850938 -0.524328 0.031389
vn -0.026845 -0.999206 0.029450
vn -0.026845 -0.999206 0.029450
vn -0.026845 -0.999206 0.029450
vn -0.026845 -0.999206 0.029450
vn 0.879172 -0.475529 0.030460
vn 0.879172 -0.475529 0.030460
vn 0.879172 -0.475529 0.030460
vn 0.879172 -0.475529 0.030460
vn 0.878851 0.476172 0.029673
vn 0.878851 0.476172 0.029673
vn 0.878851 0.476172 0.029673
vn 0.878851 0.476172 0.029673
vn -0.000000 0.000000 -1.000000
vn 0.000000 0.000000 -1.000000
vn 0.000000 0.000000 -1.000000
vn 0.000000 0.000000 -1.000000
vn -0.000000 0.000000 -1.000000
vn 0.000000 0.000000 -1.000000
vn 0.000000 0.000000 -1.000000
vn 0.000000 0.000000 -1.000000
vn 0.000000 0.000000 -1.000000
vn -0.000000 0.000000 -1.000000
vn 0.000000 0.000000 -1.000000
vn 0.000000 0.000000 -1.000000
vn -0.000000 0.000000 -1.000000
vn -0.000000 0.000000 -1.000000
vn 0.000000 0.000000 -1.000000
vn 0.000000 0.000000 -1.000000
vn -0.000000 0.000000 -1.000000
vn 0.000000 0.000000 -1.000000
vn -0.000000 0.000000 1.000000
vn -0.000000 0.000000 1.000000
vn 0.000000 0.000000 1.000000
vn -0.000000 0.000000 1.000000
vn 0.000000 0.000000 1.000000
vn 0.000000 0.000000 1.000000
vn 0.000000 0.000000 1.000000
vn 0.000000 0.000000 1.000000
vn 0.000000 0.000000 1.000000
vn 0.000000 0.000000 1.000000
vn 0.000000 0.000000 1.000000
vn 0.000000 0.000000 1.000000
vn 0.000000 0.000000 1.000000
vn 0.000000 0.000000 1.000000
vn 0.000000 0.000000 1.000000
vn 0.000000 0.000000 1.000000
vn -0.000000 0.000000 1.000000
vn 0.000000 0.000000 1.000000
vn 0.000000 0.000000 1.000000
vn 0.000000 0.000000 1.000000
vn 0.000000 0.000000 1.000000
vn 0.000000 0.000000 1.000000
vn -0.000000 0.000000 1.000000
vn -0.000000 0.000000 1.000000
vn -0.000000 0.000000 1.000000
vn -0.000000 0.000000 1.000000
vn 0.000000 0.000000 1.000000
vn 0.000000 0.000000 1.000000
vn 0.000000 0.000000 1.000000
vn 0.000000 0.000000 1.000000
vn 0.000000 0.000000 1.000000
vn 0.000000 0.000000 1.000000
vn 0.000000 0.000000 1.000000
vn 0.000000 0.000000 1.000000
vn 0.000000 0.000000 1.000000
vn 0.000000 0.000000 1.000000
vn 0.000000 0.000000 1.000000
vn 0.000000 0.000000 1.000000
vn 0.000000 0.000000 1.000000
vn 0.000000 0.000000 1.000000
vn 0.000000 0.000000 1.000000
vn 0.000000 0.000000 1.000000
vn 0.000000 0.810605 0.585594
vn 0.000000 0.810605 0.585594
vn 0.000000 0.810605 0.585594
vn 0.000000 0.810605 0.585594
vn -0.685627 0.366522 0.628950
vn -0.685627 0.366521 0.628950
vn -0.685627 0.366522 0.628950
vn -0.685627 0.366522 0.628950
vn -0.705929 -0.415368 0.573701
vn -0.705929 -0.415368 0.573701
vn -0.705929 -0.415368 0.573701
vn -0.705929 -0.415368 0.573701
vn 0.016236 -0.789482 0.613558
vn 0.016236 -0.789483 0.613558
vn 0.016236 -0.789483 0.613558
vn 0.016236 -0.789483 0.613558
vn 0.727916 -0.373466 0.575031
vn 0.727916 -0.373466 0.575032
vn 0.727916 -0.373466 0.575031
vn 0.727916 -0.373466 0.575032
vn 0.709552 0.425003 0.562057
vn 0.709552 0.425003 0.562057
vn 0.709552 0.425003 0.562057
vn 0.709552 0.425003 0.562058
vn 0.000000 0.000000 1.000000
vn 0.000000 0.000000 1.000000
vn 0.000000 0.000000 1.000000
vn 0.000000 0.000000 1.000000
vn 0.000000 0.000000 1.000000
vn 0.000000 0.000000 1.000000
vn 0.000000 0.000000 1.000000
vn 0.000000 0.000000 1.000000
vn 0.000000 0.000000 1.000000
vn 0.000000 0.000000 1.000000
vn 0.000000 0.000000 1.000000
vn 0.000000 0.000000 1.000000
vn 0.000000 0.000000 1.000000
vn 0.000000 0.000000 1.000000
vn 0.000000 0.000000 1.000000
vn 0.000000 0.000000 1.000000
vn -0.000000 0.000000 1.000000
vn -0.000000 0.000000 1.000000
vn -0.000000 0.000000 1.000000
vn -0.000000 0.000000 1.000000
vn 0.000000 0.000000 1.000000
vn 0.000000 0.000000 1.000000
vn 0.000000 0.000000 1.000000
vn 0.000000 0.000000 1.000000
vn -0.000001 -0.932868 0.360219
vn -0.000001 -0.932868 0.360219
vn -0.000001 -0.932868 0.360219
vn -0.000001 -0.932868 0.360219
vn 0.807887 -0.466434 0.360219
vn 0.807887 -0.466434 0.360219
vn 0.807887 -0.466434 0.360219
vn 0.807887 -0.466434 0.360219
vn 0.807887 0.466434 0.360220
vn 0.807887 0.466434 0.360220
vn 0.807887 0.466434 0.360220
vn 0.807887 0.466434 0.360220
vn 0.000000 0.932868 0.360219
vn 0.000000 0.932868 0.360219
vn 0.000000 0.932868 0.360219
vn 0.000000 0.932868 0.360219
vn -0.807887 0.466434 0.360220
vn -0.807887 0.466434 0.360220
vn -0.807887 0.466434 0.360220
vn -0.807887 0.466434 0.360220
vn -0.807887 -0.466434 0.360219
vn -0.807887 -0.466434 0.360219
vn -0.807887 -0.466434 0.360219
vn -0.807887 -0.466434 0.360219
s off
f 1/7/1 2/8/2 8/79/3 7/14/4
f 2/95/5 3/9/6 9/77/7 8/15/8
f 3/93/9 4/10/10 10/73/11 9/16/12
f 4/91/13 5/11/14 11/69/15 10/17/16
f 5/89/17 6/12/18 12/65/19 11/18/20
f 6/87/21 1/13/22 7/20/23 12/19/24
f 2/2/25 1/97/26 13/82/27
f 3/3/28 2/96/29 13/83/30
f 4/4/31 3/94/32 13/84/33
f 5/5/34 4/92/35 13/85/36
f 6/6/37 5/90/38 13/86/39
f 1/1/40 6/88/41 13/27/42
f 32/28/43 33/53/44 34/54/45
f 33/53/46 35/55/47 34/54/48
f 35/55/49 36/56/50 34/54/51
f 36/56/52 37/57/53 34/54/54
f 37/57/55 38/58/56 34/54/57
f 38/58/58 32/28/59 34/54/60
f 7/25/61 8/80/62 15/76/63 14/61/64
f 8/24/65 9/78/66 16/72/67 15/75/68
f 9/23/69 10/74/70 17/68/71 16/71/72
f 10/22/73 11/70/74 18/64/75 17/67/76
f 11/21/77 12/66/78 19/60/79 18/63/80
f 12/26/81 7/81/82 14/62/83 19/59/84
f 14/29/85 15/30/86 21/36/87 20/35/88
f 15/30/89 16/31/90 22/37/91 21/36/92
f 16/31/93 17/32/94 23/38/95 22/37/96
f 17/32/97 18/33/98 24/39/99 23/38/100
f 18/33/101 19/34/102 25/40/103 24/39/104
f 19/34/105 14/29/106 20/35/107 25/40/108
f 20/35/109 21/36/110 27/42/111 26/41/112
f 21/36/113 22/37/114 28/43/115 27/42/116
f 22/37/117 23/38/118 29/44/119 28/43/120
f 23/38/121 24/39/122 30/45/123 29/44/124
f 24/39/125 25/40/126 31/46/127 30/45/128
f 25/40/129 20/35/130 26/41/131 31/46/132
f 26/41/133 27/42/134 33/48/135 32/47/136
f 27/42/137 28/43/138 35/49/139 33/48/140
f 28/43/141 29/44/142 36/50/143 35/49/144
f 29/44/145 30/45/146 37/51/147 36/50/148
f 30/45/149 31/46/150 38/52/151 37/51/152
f 31/46/153 26/41/154 32/47/155 38/52/156
