# This file uses centimeters as units for non-parametric coordinates.

v -0.018353 -0.137872 0.004635
v -0.018353 -0.137872 0.000222
v -0.016145 -0.144901 0.002428
v 0.002327 -0.137872 -0.020457
v 0.006742 -0.137872 -0.020457
v 0.004534 -0.144901 -0.018250
v 0.006742 -0.137872 0.025314
v 0.002327 -0.137872 0.025314
v 0.004534 -0.144901 0.023107
v 0.027419 -0.137872 0.000222
v 0.027419 -0.137872 0.004635
v 0.025213 -0.144901 0.002428
v 0.018559 0.668270 0.016988
v 0.017106 0.661242 0.019749
v 0.021322 0.661242 0.018444
v 0.033648 0.661242 -0.011646
v 0.032193 0.668270 -0.008885
v 0.034953 0.661242 -0.007429
v -0.010074 0.661242 0.001901
v -0.008768 0.661242 0.006117
v -0.007311 0.668270 0.003356
v -0.000131 0.661242 -0.020085
v -0.004347 0.661242 -0.018779
v 0.006320 0.668270 -0.022517
v 0.002327 0.566729 0.025314
v -0.018353 0.566729 0.004635
v -0.018353 0.566729 0.000222
v 0.002327 0.566729 -0.020457
v 0.006742 0.566729 -0.020457
v 0.027419 0.566729 0.000222
v 0.027419 0.566729 0.004635
v 0.006742 0.566729 0.025314
v -0.009338 0.361350 0.010114
v -0.035457 0.361350 -0.003042
v -0.036839 0.361350 -0.007233
v -0.023683 0.361350 -0.033351
v -0.019492 0.361350 -0.034735
v 0.006626 0.361351 -0.021578
v 0.008010 0.361350 -0.017387
v -0.005146 0.361350 0.008731
v 0.002327 0.188678 0.025314
v -0.018353 0.188678 0.004635
v -0.018353 0.188678 0.000222
v 0.002327 0.188678 -0.020457
v 0.006742 0.188678 -0.020457
v 0.027419 0.188678 0.000222
v 0.027419 0.188678 0.004635
v 0.006742 0.188678 0.025314
v 0.006742 -0.090258 0.025314
v 0.027419 -0.105770 0.004635
v 0.027419 -0.105770 0.000222
v 0.006742 -0.090258 -0.020457
v 0.002327 -0.090258 -0.020457
v -0.018353 -0.105770 0.000222
v -0.018353 -0.105770 0.004635
v 0.002327 -0.090258 0.025314
v 0.006742 0.088654 0.025314
v 0.027419 0.107040 0.004635
v 0.027419 0.107040 0.000222
v 0.006742 0.086000 -0.020457
v 0.002327 0.086000 -0.020457
v -0.018353 0.107040 0.000222
v -0.018353 0.107040 0.004635
v 0.002327 0.088654 0.025314
v 0.036840 -0.095742 0.008537
v 0.036840 0.097013 0.008537
v 0.010644 0.078626 0.034735
v 0.010644 -0.080230 0.034735
v 0.036840 -0.095742 -0.003680
v 0.036840 0.097013 -0.003680
v 0.010644 0.075972 -0.029877
v 0.010644 -0.080230 -0.029877
v -0.001575 -0.080230 -0.029878
v -0.001575 0.075972 -0.029878
v -0.027773 0.097013 -0.003680
v -0.027773 -0.095742 -0.003680
v -0.027773 -0.095742 0.008537
v -0.027773 0.097013 0.008537
v -0.001575 -0.080230 0.034735
v -0.001575 0.078626 0.034735
v 0.017457 -0.026641 0.030457
v 0.031597 -0.031801 0.007546
v 0.031507 -0.029504 -0.012265
v 0.009652 -0.034117 -0.024635
v -0.010518 -0.024504 -0.027038
v -0.022530 -0.031801 -0.002689
v -0.028829 -0.024097 0.017452
v -0.000584 -0.033005 0.029492
vt 0.295702 0.329896
vt 0.295702 0.329896
vt 0.295702 0.329896
vt 0.295702 0.329896
vt 0.295702 0.329896
vt 0.295702 0.329896
vt 0.295702 0.329896
vt 0.295702 0.329896
vt 0.295702 0.329896
vt 0.295702 0.329896
vt 0.295702 0.329896
vt 0.295702 0.329896
vt 0.295702 0.329896
vt 0.295702 0.329896
vt 0.295702 0.329896
vt 0.295702 0.329896
vt 0.295702 0.329896
vt 0.295702 0.329896
vt 0.295702 0.329896
vt 0.295702 0.329896
vt 0.295702 0.329896
vt 0.295702 0.329896
vt 0.295702 0.329896
vt 0.295702 0.329896
vt 0.295702 0.329896
vt 0.295702 0.329896
vt 0.295702 0.329896
vt 0.295702 0.329896
vt 0.295702 0.329896
vt 0.295702 0.329896
vt 0.295702 0.329896
vt 0.295702 0.329896
vt 0.295702 0.329896
vt 0.295702 0.329896
vt 0.295702 0.329896
vt 0.295702 0.329896
vt 0.295702 0.329896
vt 0.295702 0.329896
vt 0.295702 0.329896
vt 0.295702 0.329896
vt 0.295702 0.329896
vt 0.295702 0.329896
vt 0.295702 0.329896
vt 0.295702 0.329896
vt 0.295702 0.329896
vt 0.295702 0.329896
vt 0.295702 0.329896
vt 0.295702 0.329896
vt 0.295702 0.329896
vt 0.295702 0.329896
vt 0.295702 0.329896
vt 0.295702 0.329896
vt 0.295702 0.329896
vt 0.295702 0.329896
vt 0.295702 0.329896
vt 0.295702 0.329896
vt 0.295702 0.329896
vt 0.295702 0.329896
vt 0.295702 0.329896
vt 0.295702 0.329896
vt 0.295702 0.329896
vt 0.295702 0.329896
vt 0.295702 0.329896
vt 0.295702 0.329896
vt 0.295702 0.329896
vt 0.295702 0.329896
vt 0.295702 0.329896
vt 0.295702 0.329896
vt 0.295702 0.329896
vt 0.295702 0.329896
vt 0.295702 0.329896
vt 0.295702 0.329896
vt 0.295702 0.329896
vt 0.295702 0.329896
vt 0.295702 0.329896
vt 0.295702 0.329896
vt 0.295702 0.329896
vt 0.295702 0.329896
vt 0.295702 0.329896
vt 0.295702 0.329896
vt 0.295702 0.329896
vt 0.295702 0.329896
vt 0.295702 0.329896
vt 0.295702 0.329896
vt 0.295702 0.329896
vt 0.295702 0.329896
vt 0.295702 0.329896
vt 0.295702 0.329896
vt 0.295702 0.329896
vt 0.295702 0.329896
vt 0.295702 0.329896
vt 0.295702 0.329896
vt 0.295702 0.329896
vt 0.295702 0.329896
vt 0.295702 0.329896
vt 0.295702 0.329896
vt 0.295702 0.329896
vt 0.295702 0.329896
vt 0.266329 0.353816
vt 0.266329 0.353816
vt 0.266329 0.353816
vt 0.266329 0.353816
vt 0.266329 0.353816
vt 0.266329 0.353816
vt 0.266329 0.353816
vt 0.266329 0.353816
vt 0.266329 0.353816
vt 0.266329 0.353816
vt 0.266329 0.353816
vt 0.266329 0.353816
vt 0.266329 0.353816
vt 0.266329 0.353816
vt 0.266329 0.353816
vt 0.266329 0.353816
vt 0.266329 0.353816
vt 0.266329 0.353816
vt 0.266329 0.353816
vt 0.266329 0.353816
vt 0.266329 0.353816
vt 0.266329 0.353816
vt 0.266329 0.353816
vt 0.266329 0.353816
vt 0.266329 0.353816
vt 0.266329 0.353816
vt 0.266329 0.353816
vt 0.266329 0.353816
vt 0.266329 0.353816
vt 0.266329 0.353816
vt 0.266329 0.353816
vt 0.266329 0.353816
vt 0.266329 0.353816
vt 0.266329 0.353816
vt 0.266329 0.353816
vt 0.266329 0.353816
vt 0.266329 0.353816
vt 0.266329 0.353816
vt 0.266329 0.353816
vt 0.266329 0.353816
vn -0.773795 -0.090957 -0.626871
vn -0.772505 -0.089000 -0.628741
vn -0.707104 0.000000 -0.707110
vn -0.707104 0.000000 -0.707110
vn 0.000000 -1.000000 -0.000003
vn 0.000000 -1.000000 -0.000003
vn 0.000000 -1.000000 -0.000003
vn 0.000000 -1.000000 -0.000003
vn -0.707102 -0.000000 0.707112
vn -0.631901 0.003108 0.775043
vn -0.628111 0.003257 0.778117
vn -0.707102 -0.000000 0.707112
vn 0.627513 -0.003278 -0.778600
vn 0.633617 -0.003038 -0.773641
vn 0.707136 0.000000 -0.707077
vn 0.707136 0.000000 -0.707077
vn 0.707134 -0.000000 0.707079
vn 0.773683 0.090741 0.627042
vn 0.773294 0.090151 0.627606
vn 0.707134 -0.000000 0.707079
vn -0.000003 1.000000 0.000004
vn -0.000003 1.000000 0.000004
vn -0.000003 1.000000 0.000004
vn -0.000003 1.000000 0.000004
vn -1.000000 0.000000 0.000000
vn -1.000000 0.000000 0.000000
vn -0.992291 -0.063559 0.106389
vn -0.992010 -0.064703 0.108305
vn -0.646260 -0.405819 -0.646265
vn -0.646260 -0.405819 -0.646265
vn -0.646260 -0.405819 -0.646265
vn -0.646260 -0.405819 -0.646265
vn -0.646248 -0.405879 0.646240
vn -0.646248 -0.405879 0.646240
vn -0.646248 -0.405879 0.646240
vn -0.646248 -0.405879 0.646240
vn 0.000000 0.000001 -1.000000
vn 0.000000 0.000001 -1.000000
vn -0.102499 -0.065655 -0.992564
vn -0.095407 -0.061112 -0.993561
vn 0.646279 -0.405782 -0.646269
vn 0.646279 -0.405782 -0.646269
vn 0.646279 -0.405782 -0.646269
vn 0.646279 -0.405782 -0.646269
vn 0.000000 -0.000001 1.000000
vn 0.000000 -0.000001 1.000000
vn 0.098426 0.063089 0.993143
vn 0.101605 0.065127 0.992691
vn 0.646267 -0.405842 0.646244
vn 0.646267 -0.405842 0.646244
vn 0.646267 -0.405842 0.646244
vn 0.646267 -0.405842 0.646244
vn 1.000000 0.000000 0.000000
vn 1.000000 0.000000 0.000000
vn 0.991752 0.065693 -0.110053
vn 0.992564 0.062390 -0.104520
vn -0.426040 0.405874 0.808552
vn -0.426040 0.405874 0.808552
vn -0.426040 0.405874 0.808552
vn -0.426040 0.405874 0.808552
vn 0.808549 0.405902 0.426020
vn 0.808549 0.405902 0.426020
vn 0.808549 0.405902 0.426020
vn 0.808549 0.405902 0.426020
vn 0.345245 -0.100907 -0.933072
vn 0.345245 -0.100907 -0.933072
vn 0.345245 -0.100907 -0.933072
vn 0.345245 -0.100907 -0.933072
vn -0.714077 0.633978 -0.296930
vn -0.714077 0.633978 -0.296930
vn -0.714077 0.633978 -0.296930
vn -0.714077 0.633978 -0.296930
vn -0.954040 -0.299678 0.000004
vn -0.954040 -0.299678 0.000004
vn -0.954040 -0.299678 0.000004
vn 0.000000 -0.299535 -0.954085
vn 0.000000 -0.299535 -0.954085
vn 0.000000 -0.299535 -0.954085
vn 0.000000 -0.299589 0.954068
vn 0.000000 -0.299589 0.954068
vn 0.000000 -0.299589 0.954068
vn 0.954114 -0.299442 0.000004
vn 0.954114 -0.299442 0.000004
vn 0.954114 -0.299442 0.000004
vn 0.282209 0.299647 0.911356
vn 0.282209 0.299647 0.911356
vn 0.282209 0.299647 0.911356
vn 0.911417 0.299452 -0.282220
vn 0.911417 0.299452 -0.282220
vn 0.911417 0.299452 -0.282220
vn -0.911289 0.299841 0.282220
vn -0.911289 0.299841 0.282220
vn -0.911289 0.299841 0.282220
vn -0.295471 -0.058742 -0.953544
vn -0.295471 -0.058742 -0.953544
vn -0.295471 -0.058742 -0.953544
vn -0.587905 0.024587 0.808557
vn -0.588169 0.029010 0.808218
vn -0.590702 0.093449 0.801460
vn -0.590702 0.093449 0.801460
vn -0.984683 0.090563 0.148991
vn -0.984376 0.082880 0.155352
vn -0.984384 0.083043 0.155217
vn -0.984683 0.090563 0.148991
vn -0.816474 0.088589 -0.570546
vn -0.816121 0.089455 -0.570915
vn -0.842741 0.016714 -0.538059
vn -0.842741 0.016714 -0.538059
vn -0.149676 0.000000 -0.988735
vn -0.155570 0.057748 -0.986136
vn -0.155695 0.059033 -0.986040
vn -0.149676 0.000000 -0.988735
vn 0.547470 -0.015326 -0.836685
vn 0.550594 -0.013775 -0.834659
vn 0.470905 -0.051953 -0.880653
vn 0.470905 -0.051953 -0.880653
vn 0.984685 -0.090554 -0.148981
vn 0.984368 -0.082916 -0.155383
vn 0.984371 -0.082977 -0.155332
vn 0.984685 -0.090554 -0.148981
vn 0.805361 -0.092206 0.585570
vn 0.805384 -0.089078 0.586021
vn 0.804514 -0.034729 0.592918
vn 0.804514 -0.034729 0.592918
vn 0.149439 0.041782 0.987888
vn 0.155860 -0.049000 0.986563
vn 0.155387 -0.041638 0.986976
vn 0.149439 0.041782 0.987888
vn -0.585915 -0.000026 0.810373
vn -0.585915 0.000021 0.810373
vn -0.588169 0.029010 0.808218
vn -0.587905 0.024587 0.808557
vn -0.984376 0.082880 0.155352
vn -0.987329 0.000339 0.158684
vn -0.987329 -0.000306 0.158684
vn -0.984384 0.083043 0.155217
vn -0.810362 -0.000007 -0.585930
vn -0.810362 0.000061 -0.585930
vn -0.816121 0.089455 -0.570915
vn -0.816474 0.088589 -0.570546
vn -0.155570 0.057748 -0.986136
vn -0.158771 -0.000507 -0.987315
vn -0.158771 0.000589 -0.987315
vn -0.155695 0.059033 -0.986040
vn 0.585932 -0.000033 -0.810360
vn 0.585932 0.000042 -0.810360
vn 0.550594 -0.013775 -0.834659
vn 0.547470 -0.015326 -0.836685
vn 0.984368 -0.082916 -0.155383
vn 0.987312 0.000615 -0.158791
vn 0.987312 -0.000742 -0.158791
vn 0.984371 -0.082977 -0.155332
vn 0.810390 0.000336 0.585891
vn 0.810390 -0.000408 0.585891
vn 0.805384 -0.089078 0.586021
vn 0.805361 -0.092206 0.585570
vn 0.155860 -0.049000 0.986563
vn 0.158644 -0.000173 0.987336
vn 0.158644 0.000160 0.987336
vn 0.155387 -0.041638 0.986976
vn -0.628111 0.003257 0.778117
vn -0.631901 0.003108 0.775043
vn -0.585915 0.000021 0.810373
vn -0.585915 -0.000026 0.810373
vn -0.987329 0.000339 0.158684
vn -0.992010 -0.064703 0.108305
vn -0.992291 -0.063559 0.106389
vn -0.987329 -0.000306 0.158684
vn -0.772505 -0.089000 -0.628741
vn -0.773795 -0.090957 -0.626871
vn -0.810362 0.000061 -0.585930
vn -0.810362 -0.000007 -0.585930
vn -0.158771 -0.000507 -0.987315
vn -0.095407 -0.061112 -0.993561
vn -0.102499 -0.065655 -0.992564
vn -0.158771 0.000589 -0.987315
vn 0.633617 -0.003038 -0.773641
vn 0.627513 -0.003278 -0.778600
vn 0.585932 0.000042 -0.810360
vn 0.585932 -0.000033 -0.810360
vn 0.987312 0.000615 -0.158791
vn 0.992564 0.062390 -0.104520
vn 0.991752 0.065693 -0.110053
vn 0.987312 -0.000742 -0.158791
vn 0.773294 0.090151 0.627606
vn 0.773683 0.090741 0.627042
vn 0.810390 -0.000408 0.585891
vn 0.810390 0.000336 0.585891
vn 0.158644 -0.000173 0.987336
vn 0.101605 0.065127 0.992691
vn 0.098426 0.063089 0.993143
vn 0.158644 0.000160 0.987336
vn 0.707135 0.000000 0.707078
vn 0.707135 0.000000 0.707078
vn 0.707135 0.000000 0.707078
vn 0.707135 0.000000 0.707078
vn 1.000000 0.000000 0.000000
vn 1.000000 0.000000 0.000000
vn 1.000000 0.000000 0.000000
vn 1.000000 0.000000 0.000000
vn 0.707135 0.000000 -0.707078
vn 0.707135 0.000000 -0.707078
vn 0.707135 0.000000 -0.707078
vn 0.707135 0.000000 -0.707078
vn 0.000000 0.000000 -1.000000
vn 0.000000 0.000000 -1.000000
vn 0.000000 0.000000 -1.000000
vn 0.000000 0.000000 -1.000000
vn -0.707103 0.000000 -0.707111
vn -0.707103 0.000000 -0.707111
vn -0.707103 0.000000 -0.707111
vn -0.707103 0.000000 -0.707111
vn -1.000000 0.000000 0.000000
vn -1.000000 0.000000 0.000000
vn -1.000000 0.000000 0.000000
vn -1.000000 0.000000 0.000000
vn -0.707103 0.000000 0.707111
vn -0.707103 0.000000 0.707111
vn -0.707103 0.000000 0.707111
vn -0.707103 0.000000 0.707111
vn 0.000000 0.000000 1.000000
vn 0.000000 0.000000 1.000000
vn 0.000000 0.000000 1.000000
vn 0.000000 0.000000 1.000000
vn 0.774917 0.001546 0.632061
vn 0.773906 -0.009065 0.633235
vn 0.773906 -0.009065 0.633235
vn 0.774674 -0.001093 0.632360
vn 0.999988 0.004226 -0.002526
vn 0.999981 -0.005244 -0.003205
vn 0.999135 -0.041173 -0.005779
vn 0.999135 -0.041173 -0.005779
vn 0.627805 -0.005789 -0.778349
vn 0.627805 -0.005789 -0.778349
vn 0.627759 -0.000682 -0.778408
vn 0.627740 0.000984 -0.778422
vn 0.079218 0.017625 -0.996702
vn 0.069168 -0.016433 -0.997470
vn 0.061802 -0.041197 -0.997238
vn 0.061802 -0.041197 -0.997238
vn -0.797358 0.002783 -0.603500
vn -0.797358 0.002783 -0.603500
vn -0.797139 0.000495 -0.603795
vn -0.797028 -0.000648 -0.603942
vn -0.981216 0.007417 -0.192771
vn -0.981876 -0.007350 -0.189383
vn -0.982345 -0.023815 -0.185554
vn -0.982345 -0.023815 -0.185554
vn -0.571309 -0.003349 0.820729
vn -0.570272 0.013118 0.821351
vn -0.570272 0.013118 0.821351
vn -0.570939 0.002816 0.820988
vn -0.034910 0.014461 0.999286
vn -0.028937 -0.013967 0.999484
vn -0.022461 -0.044649 0.998750
vn -0.022461 -0.044649 0.998750
vn 0.373916 0.701657 0.606517
vn 0.193769 0.649828 0.734967
vn 0.177078 0.653894 0.735572
vn 0.325976 0.683523 0.653097
vn 0.229903 -0.661129 0.714180
vn 0.405199 -0.704995 0.582062
vn 0.367021 -0.691490 0.622204
vn 0.212548 -0.664219 0.716684
vn 0.405199 -0.704995 0.582062
vn 0.405193 -0.705000 -0.582060
vn 0.367012 -0.691495 -0.622203
vn 0.367021 -0.691490 0.622204
vn 0.345252 0.697676 -0.627734
vn 0.373916 0.701657 0.606517
vn 0.325976 0.683523 0.653097
vn 0.288159 0.674782 -0.679437
vn 0.160961 0.638671 -0.752456
vn 0.345252 0.697676 -0.627734
vn 0.288159 0.674782 -0.679437
vn 0.145714 0.643880 -0.751123
vn 0.405193 -0.705000 -0.582060
vn 0.229901 -0.661136 -0.714174
vn 0.212547 -0.664227 -0.716677
vn 0.367012 -0.691495 -0.622203
vn 0.229901 -0.661136 -0.714174
vn -0.229887 -0.661136 -0.714178
vn -0.212524 -0.664229 -0.716682
vn 0.212547 -0.664227 -0.716677
vn -0.160944 0.638675 -0.752457
vn 0.160961 0.638671 -0.752456
vn 0.145714 0.643880 -0.751123
vn -0.145690 0.643885 -0.751123
vn -0.345251 0.697671 -0.627740
vn -0.160944 0.638675 -0.752457
vn -0.145690 0.643885 -0.751123
vn -0.288151 0.674779 -0.679443
vn -0.229887 -0.661136 -0.714178
vn -0.405194 -0.704992 -0.582069
vn -0.367008 -0.691488 -0.622214
vn -0.212524 -0.664229 -0.716682
vn -0.405194 -0.704992 -0.582069
vn -0.405208 -0.704975 0.582080
vn -0.367025 -0.691471 0.622222
vn -0.367008 -0.691488 -0.622214
vn -0.373926 0.701639 0.606532
vn -0.345251 0.697671 -0.627740
vn -0.288151 0.674779 -0.679443
vn -0.325981 0.683506 0.653113
vn -0.193772 0.649817 0.734976
vn -0.373926 0.701639 0.606532
vn -0.325981 0.683506 0.653113
vn -0.177076 0.653885 0.735581
vn -0.405208 -0.704975 0.582080
vn -0.229906 -0.661116 0.714191
vn -0.212545 -0.664208 0.716696
vn -0.367025 -0.691471 0.622222
vn -0.229906 -0.661116 0.714191
vn 0.229903 -0.661129 0.714180
vn 0.212548 -0.664219 0.716684
vn -0.212545 -0.664208 0.716696
vn 0.193769 0.649828 0.734967
vn -0.193772 0.649817 0.734976
vn -0.177076 0.653885 0.735581
vn 0.177078 0.653894 0.735572
vn 0.776298 0.017882 0.630112
vn 0.774917 0.001546 0.632061
vn 0.774674 -0.001093 0.632360
vn 0.776298 0.017882 0.630112
vn 0.996693 0.081203 0.003005
vn 0.996693 0.081203 0.003005
vn 0.999981 -0.005244 -0.003205
vn 0.999988 0.004226 -0.002526
vn 0.627740 0.000984 -0.778422
vn 0.627759 -0.000682 -0.778408
vn 0.627570 0.012175 -0.778465
vn 0.627570 0.012175 -0.778465
vn 0.099802 0.088397 -0.991073
vn 0.099802 0.088397 -0.991073
vn 0.069168 -0.016433 -0.997470
vn 0.079218 0.017625 -0.996702
vn -0.797028 -0.000648 -0.603942
vn -0.797139 0.000495 -0.603795
vn -0.796567 -0.005276 -0.604527
vn -0.796567 -0.005276 -0.604527
vn -0.978524 0.044920 -0.201177
vn -0.978524 0.044920 -0.201177
vn -0.981876 -0.007350 -0.189383
vn -0.981216 0.007417 -0.192771
vn -0.572463 -0.025629 0.819530
vn -0.571309 -0.003349 0.820729
vn -0.570939 0.002816 0.820988
vn -0.572463 -0.025629 0.819530
vn -0.052286 0.097904 0.993821
vn -0.052286 0.097904 0.993821
vn -0.028937 -0.013967 0.999484
vn -0.034910 0.014461 0.999286
s off
f 43/67/1 44/68/2 61/93/3 62/94/4
f 6/13/5 12/17/6 9/32/7 3/29/8
f 64/97/9 41/63/10 42/65/11 63/95/12
f 45/69/13 46/71/14 59/89/15 60/91/16
f 58/88/17 47/73/18 48/74/19 57/87/20
f 17/23/21 24/27/22 21/37/23 13/21/24
f 62/94/25 63/96/26 42/66/27 43/67/28
f 3/29/29 2/28/30 4/30/31 6/13/32
f 1/10/33 3/29/34 9/32/35 8/2/36
f 60/92/37 61/93/38 44/68/39 45/70/40
f 6/13/41 5/31/42 10/33/43 12/17/44
f 64/98/45 57/87/46 48/74/47 41/64/48
f 7/16/49 9/32/50 12/17/51 11/18/52
f 58/88/53 59/90/54 46/72/55 47/73/56
f 14/20/57 13/21/58 21/37/59 20/36/60
f 13/21/61 15/34/62 18/22/63 17/23/64
f 17/23/65 16/24/66 22/25/67 24/27/68
f 19/26/69 21/37/70 24/27/71 23/38/72
f 1/10/73 2/28/74 3/29/75
f 4/30/76 5/31/77 6/13/78
f 7/16/79 8/2/80 9/32/81
f 10/33/82 11/18/83 12/17/84
f 13/21/85 14/15/86 15/34/87
f 16/35/88 17/23/89 18/22/90
f 19/26/91 20/36/92 21/37/93
f 22/25/94 23/38/95 24/27/96
f 26/41/97 25/39/98 14/3/99 20/4/100
f 19/26/101 27/43/102 26/42/103 20/9/104
f 28/44/105 27/43/106 19/26/107 23/38/108
f 22/12/109 29/46/110 28/44/111 23/38/112
f 30/47/113 29/45/114 22/5/115 16/6/116
f 18/22/117 31/49/118 30/48/119 16/35/120
f 32/50/121 31/49/122 18/22/123 15/34/124
f 14/15/125 25/40/126 32/50/127 15/34/128
f 34/53/129 33/51/130 25/39/131 26/41/132
f 27/43/133 35/55/134 34/54/135 26/42/136
f 36/56/137 35/55/138 27/43/139 28/44/140
f 29/46/141 37/58/142 36/56/143 28/44/144
f 38/59/145 37/57/146 29/45/147 30/47/148
f 31/49/149 39/61/150 38/60/151 30/48/152
f 40/62/153 39/61/154 31/49/155 32/50/156
f 25/40/157 33/52/158 40/62/159 32/50/160
f 42/65/161 41/63/162 33/51/163 34/53/164
f 35/55/165 43/67/166 42/66/167 34/54/168
f 44/68/169 43/67/170 35/55/171 36/56/172
f 37/58/173 45/70/174 44/68/175 36/56/176
f 46/71/177 45/69/178 37/57/179 38/59/180
f 39/61/181 47/73/182 46/72/183 38/60/184
f 48/74/185 47/73/186 39/61/187 40/62/188
f 33/52/189 41/64/190 48/74/191 40/62/192
f 11/18/193 50/76/194 49/75/195 7/16/196
f 11/18/197 10/19/198 51/78/199 50/76/200
f 52/79/201 51/77/202 10/33/203 5/31/204
f 5/11/205 4/1/206 53/81/207 52/80/208
f 54/82/209 53/81/210 4/1/211 2/7/212
f 2/7/213 1/8/214 55/84/215 54/82/216
f 8/2/217 56/85/218 55/83/219 1/10/220
f 8/14/221 7/16/222 49/75/223 56/86/224
f 82/132/225 66/100/226 67/101/227 81/131/228
f 82/132/229 83/133/230 70/104/231 66/100/232
f 71/105/233 70/104/234 83/133/235 84/134/236
f 84/134/237 85/135/238 74/108/239 71/105/240
f 75/109/241 74/108/242 85/135/243 86/136/244
f 86/136/245 87/137/246 78/112/247 75/109/248
f 88/138/249 80/114/250 78/112/251 87/137/252
f 88/138/253 81/131/254 67/101/255 80/114/256
f 58/115/257 57/116/258 67/101/259 66/100/260
f 49/117/261 50/118/262 65/99/263 68/102/264
f 50/118/265 51/119/266 69/103/267 65/99/268
f 59/120/269 58/115/270 66/100/271 70/104/272
f 60/121/273 59/120/274 70/104/275 71/105/276
f 51/119/277 52/122/278 72/106/279 69/103/280
f 52/122/281 53/123/282 73/107/283 72/106/284
f 61/124/285 60/121/286 71/105/287 74/108/288
f 62/125/289 61/124/290 74/108/291 75/109/292
f 53/123/293 54/126/294 76/110/295 73/107/296
f 54/126/297 55/127/298 77/111/299 76/110/300
f 63/128/301 62/125/302 75/109/303 78/112/304
f 64/129/305 63/128/306 78/112/307 80/114/308
f 55/127/309 56/130/310 79/113/311 77/111/312
f 56/130/313 49/117/314 68/102/315 79/113/316
f 57/116/317 64/129/318 80/114/319 67/101/320
f 65/99/321 82/132/322 81/131/323 68/102/324
f 65/99/325 69/103/326 83/133/327 82/132/328
f 84/134/329 83/133/330 69/103/331 72/106/332
f 72/106/333 73/107/334 85/135/335 84/134/336
f 86/136/337 85/135/338 73/107/339 76/110/340
f 76/110/341 77/111/342 87/137/343 86/136/344
f 79/113/345 88/138/346 87/137/347 77/111/348
f 79/113/349 68/102/350 81/131/351 88/138/352
