# This file uses centimeters as units for non-parametric coordinates.

v -39.539188 0.000000 39.959679
v 39.539337 0.000000 39.959679
v -36.650810 15.182819 37.071190
v 33.567924 15.182819 33.988190
v -32.430729 15.182819 -32.010464
v 36.650963 15.182819 -36.230434
v -39.539188 0.000000 -39.118923
v 39.539337 0.000000 -39.118923
v -30.532341 15.182819 30.952797
v 30.532494 15.182819 30.952797
v 30.532494 15.182819 -30.112076
v -30.532341 15.182819 -30.112076
v -29.911766 19.743887 30.332260
v 29.424400 18.947126 29.844742
v 29.424400 23.327003 -29.003983
v -29.424290 23.327003 -29.003983
v -26.955791 23.327003 -15.508804
v 26.956062 23.327003 -15.508804
v 26.956062 23.327003 -26.511955
v -26.955791 23.327003 -26.511955
v -16.173592 23.327003 -26.511955
v 16.173592 23.327003 -26.511955
v -16.173592 23.327003 -15.508804
v 16.173592 23.327003 -15.508804
v -26.955791 116.768166 -15.508804
v -16.173592 103.923347 -15.508804
v -16.173592 103.923347 -26.511955
v -26.955791 116.768166 -26.511955
v 16.173592 103.923347 -15.508804
v 16.173592 103.923347 -26.511955
v 26.956062 116.768166 -15.508804
v 26.956062 116.768166 -26.511955
v -26.955791 131.351440 -31.442719
v 26.956062 131.351440 -31.442719
v -40.429539 106.284714 5.557442
v -37.856255 138.404205 -38.279037
v 40.429535 104.369110 4.182205
v 38.838730 139.132278 -38.954044
v -40.429539 111.789711 9.509659
v -38.911018 142.334763 -36.082535
v 40.429535 114.337029 6.369209
v 40.429535 147.594589 -34.632229
v -33.428806 113.503662 7.396622
v -33.428806 117.439232 2.544670
v 33.428955 113.503662 7.396622
v 33.428955 117.439232 2.544670
v -31.876030 116.932724 8.365479
v -31.876030 119.094780 5.700035
v 31.876183 116.932724 8.365479
v 31.876183 119.094780 5.700035
v -39.443703 139.824677 -24.277573
v -33.959694 146.165024 -34.564785
v 40.429535 110.092369 8.291092
v 34.727058 111.789711 9.509659
v 40.429535 138.331177 -37.687759
v 37.526894 140.173965 -39.959641
v 40.429535 144.163391 -37.095566
v 27.004509 147.594589 -34.632229
v 13.863716 147.594589 -34.632229
v 20.747375 145.604904 -32.179226
v 17.250671 144.907974 -36.561050
v -38.919182 105.758881 1.975060
v -40.429539 106.094025 2.055664
v -32.024269 104.369110 4.182205
v -17.922440 111.789711 9.509659
v -31.937176 111.789711 9.509659
v -28.182377 112.652496 8.445969
v -27.976341 109.555374 7.905579
v 40.429535 124.643005 -6.336479
v 40.429535 128.920074 -11.609421
v 37.510033 126.643837 -8.803177
v 40.429535 125.422394 -11.949844
v -21.622009 23.327003 29.844742
v -29.424290 23.327000 25.399780
v 25.486641 15.182819 37.071152
v 37.427406 11.101757 37.847595
v 36.650963 15.182819 32.812042
v -21.023178 15.182819 37.071190
v 0.867043 15.182819 37.071152
v -6.174622 15.182819 33.900948
v -6.921120 11.718049 37.730370
v -21.104240 15.182819 -36.230434
v -36.650810 15.182819 -30.438156
v -38.092113 7.606362 -37.671814
v 36.650963 15.182819 -7.861214
v 36.650963 15.182819 -25.175209
v 33.173790 15.182819 -17.979774
v 37.264023 11.960270 -18.361435
v 18.308220 23.327003 19.381676
vt 0.199203 0.301718
vt 0.199203 0.301718
vt 0.199203 0.301718
vt 0.199203 0.301718
vt 0.199203 0.301718
vt 0.199203 0.301718
vt 0.199203 0.301718
vt 0.199203 0.301718
vt 0.199203 0.301718
vt 0.199203 0.301718
vt 0.199203 0.301718
vt 0.199203 0.301718
vt 0.199203 0.301718
vt 0.199203 0.301718
vt 0.199203 0.301718
vt 0.199203 0.301718
vt 0.199203 0.301718
vt 0.199203 0.301718
vt 0.244463 0.379454
vt 0.244463 0.379454
vt 0.244463 0.379454
vt 0.244463 0.379454
vt 0.244463 0.379454
vt 0.244463 0.379454
vt 0.244463 0.379454
vt 0.244463 0.379454
vt 0.244463 0.379454
vt 0.244463 0.379454
vt 0.244463 0.379454
vt 0.244463 0.379454
vt 0.244463 0.379454
vt 0.244463 0.379454
vt 0.244463 0.379454
vt 0.244463 0.379454
vt 0.244463 0.379454
vt 0.244463 0.379454
vt 0.244463 0.379454
vt 0.244463 0.379454
vt 0.244463 0.379454
vt 0.244463 0.379454
vt 0.244463 0.379454
vt 0.244463 0.379454
vt 0.244463 0.379454
vt 0.244463 0.379454
vt 0.244463 0.379454
vt 0.244463 0.379454
vt 0.244463 0.379454
vt 0.244463 0.379454
vt 0.244463 0.379454
vt 0.244463 0.379454
vt 0.244463 0.379454
vt 0.244463 0.379454
vt 0.244463 0.379454
vt 0.244463 0.379454
vt 0.244463 0.379454
vt 0.244463 0.379454
vt 0.244463 0.379454
vt 0.244463 0.379454
vt 0.244463 0.379454
vt 0.244463 0.379454
vt 0.244463 0.379454
vt 0.244463 0.379454
vt 0.244463 0.379454
vt 0.244463 0.379454
vt 0.244463 0.379454
vt 0.244463 0.379454
vt 0.244463 0.379454
vt 0.244463 0.379454
vt 0.244463 0.379454
vt 0.244463 0.379454
vt 0.244463 0.379454
vt 0.244463 0.379454
vt 0.244463 0.379454
vt 0.244463 0.379454
vt 0.244463 0.379454
vt 0.244463 0.379454
vt 0.244463 0.379454
vt 0.244463 0.379454
vt 0.244463 0.379454
vt 0.244463 0.379454
vt 0.244463 0.379454
vt 0.244463 0.379454
vt 0.244463 0.379454
vt 0.244463 0.379454
vt 0.199203 0.301718
vt 0.199203 0.301718
vt 0.199203 0.301718
vt 0.199203 0.301718
vt 0.199203 0.301718
vt 0.199203 0.301718
vt 0.199203 0.301718
vt 0.199203 0.301718
vt 0.199203 0.301718
vt 0.199203 0.301718
vt 0.199203 0.301718
vt 0.199203 0.301718
vt 0.199203 0.301718
vt 0.199203 0.301718
vt 0.199203 0.301718
vt 0.199203 0.301718
vt 0.199203 0.301718
vt 0.199203 0.301718
vt 0.199203 0.301718
vt 0.199203 0.301718
vt 0.244463 0.379454
vn -0.000000 0.186896 0.982380
vn -0.000000 0.186896 0.982380
vn -0.000000 0.186896 0.982380
vn -0.000000 0.186896 0.982380
vn 0.000000 1.000000 0.000000
vn 0.000000 1.000000 0.000000
vn 0.000000 1.000000 0.000000
vn 0.000000 1.000000 0.000000
vn -0.251722 0.692941 -0.675625
vn -0.251722 0.692941 -0.675625
vn -0.251722 0.692941 -0.675625
vn 0.000000 -1.000000 0.000000
vn 0.000000 -1.000000 0.000000
vn 0.000000 -1.000000 0.000000
vn 0.000000 -1.000000 0.000000
vn 0.982379 0.186897 -0.000001
vn 0.982379 0.186897 -0.000001
vn 0.982379 0.186897 -0.000001
vn 0.982379 0.186897 -0.000001
vn -0.982381 0.186887 -0.000000
vn -0.982381 0.186887 -0.000000
vn -0.982382 0.186887 -0.000000
vn -0.982382 0.186887 -0.000000
vn 0.000000 1.000000 0.000000
vn 0.000000 1.000000 0.000000
vn 0.000000 1.000000 0.000000
vn 0.000000 1.000000 0.000000
vn 0.000000 1.000000 0.000000
vn 0.000000 1.000000 0.000000
vn 0.000000 1.000000 0.000000
vn 0.000000 1.000000 0.000000
vn 0.006633 0.176393 0.984297
vn 0.006633 0.176393 0.984298
vn 0.006633 0.176393 0.984298
vn 0.006633 0.176393 0.984297
vn 0.006633 0.176393 0.984297
vn 0.983098 0.182956 0.006683
vn 0.983098 0.182956 0.006683
vn 0.983098 0.182956 0.006683
vn 0.983098 0.182956 0.006683
vn 0.000000 0.134817 -0.990871
vn 0.000000 0.134817 -0.990870
vn 0.000000 0.134817 -0.990871
vn 0.000000 0.134817 -0.990871
vn -0.990871 0.134812 0.000000
vn -0.990871 0.134812 0.000000
vn -0.990871 0.134812 0.000000
vn -0.990871 0.134812 0.000000
vn -0.990871 0.134812 0.000000
vn -0.307209 0.784115 0.539246
vn -0.307209 0.784115 0.539246
vn -0.307209 0.784115 0.539246
vn 0.000000 1.000000 0.000000
vn 0.000000 1.000000 0.000000
vn 0.000000 1.000000 0.000000
vn 0.000000 1.000000 0.000000
vn 0.000000 1.000000 0.000000
vn 0.000000 1.000000 0.000000
vn 0.000000 1.000000 0.000000
vn 0.000000 1.000000 0.000000
vn 0.000000 1.000000 0.000000
vn -0.000000 1.000000 0.000000
vn -0.000000 1.000000 0.000000
vn -0.000000 1.000000 0.000000
vn -0.000000 1.000000 0.000000
vn 0.000000 0.000000 1.000000
vn 0.000000 0.000000 1.000000
vn 0.000000 0.000000 1.000000
vn 0.000000 0.000000 1.000000
vn 1.000000 0.000000 0.000000
vn 1.000000 0.000000 0.000000
vn 1.000000 0.000000 0.000000
vn 1.000000 0.000000 0.000000
vn 0.000000 0.000000 -1.000000
vn 0.000000 0.000000 -1.000000
vn 0.000000 0.000000 -1.000000
vn 0.000000 0.000000 -1.000000
vn -1.000000 0.000000 0.000000
vn -1.000000 0.000000 0.000000
vn -1.000000 0.000000 0.000000
vn -1.000000 0.000000 0.000000
vn -1.000000 0.000000 0.000000
vn -1.000000 0.000000 0.000000
vn -1.000000 0.000000 0.000000
vn -1.000000 0.000000 0.000000
vn 0.000000 0.000000 1.000000
vn 0.000000 0.000000 1.000000
vn 0.000000 0.000000 1.000000
vn 0.000000 0.000000 1.000000
vn 1.000000 0.000000 0.000000
vn 1.000000 0.000000 0.000000
vn 1.000000 0.000000 0.000000
vn 1.000000 0.000000 0.000000
vn 0.000000 0.000000 -1.000000
vn 0.000000 0.000000 -1.000000
vn 0.000000 0.000000 -1.000000
vn 0.000000 0.000000 -1.000000
vn 0.000000 -1.000000 0.000000
vn 0.000000 -1.000000 0.000000
vn 0.000000 -1.000000 0.000000
vn 0.000000 -1.000000 0.000000
vn 0.000000 0.000000 -1.000000
vn 0.000000 0.000000 -1.000000
vn 0.000000 0.000000 -1.000000
vn 0.000000 0.000000 -1.000000
vn 0.000000 0.776629 0.629958
vn 0.000000 0.776629 0.629958
vn 0.000000 0.776629 0.629958
vn 0.000000 0.776629 0.629958
vn 0.000000 0.000000 1.000000
vn 0.000000 0.000000 1.000000
vn 0.000000 0.000000 1.000000
vn 0.000000 0.000000 1.000000
vn -1.000000 0.000000 0.000000
vn -1.000000 0.000000 0.000000
vn -1.000000 0.000000 0.000000
vn 0.000000 -0.320298 -0.947317
vn 0.000000 -0.320298 -0.947317
vn 0.000000 -0.320298 -0.947317
vn 0.000000 -0.320298 -0.947317
vn 1.000000 -0.000000 0.000000
vn 1.000000 -0.000000 0.000000
vn 1.000000 -0.000000 0.000000
vn -0.169052 -0.753797 -0.634989
vn -0.169052 -0.753797 -0.634989
vn -0.169052 -0.753797 -0.634989
vn -0.169052 -0.753797 -0.634989
vn -0.169052 -0.753797 -0.634989
vn 0.000000 -0.846213 -0.532844
vn 0.000000 -0.846213 -0.532844
vn 0.000000 -0.846213 -0.532844
vn 0.000000 -0.846213 -0.532844
vn 0.000000 -0.846213 -0.532844
vn 0.162826 -0.755908 -0.634106
vn 0.162826 -0.755908 -0.634106
vn 0.162826 -0.755908 -0.634106
vn 0.162826 -0.755908 -0.634106
vn 0.162826 -0.755908 -0.634106
vn 0.000168 -0.695172 -0.718844
vn 0.000168 -0.695172 -0.718844
vn 0.000168 -0.695172 -0.718844
vn 0.000168 -0.695172 -0.718844
vn 0.000168 -0.695172 -0.718844
vn -0.999433 -0.000580 -0.033676
vn -0.999433 -0.000580 -0.033676
vn -0.999433 -0.000580 -0.033676
vn -0.999433 -0.000580 -0.033676
vn 1.000000 0.000001 0.000000
vn 1.000000 0.000001 0.000000
vn 1.000000 0.000001 0.000000
vn 1.000000 0.000001 0.000000
vn 0.644468 0.077232 -0.760721
vn 0.644468 0.077232 -0.760721
vn 0.644468 0.077232 -0.760721
vn 0.000000 0.776641 0.629944
vn 0.000000 0.776641 0.629944
vn 0.000000 0.776641 0.629944
vn -0.015351 0.836100 0.548362
vn -0.015351 0.836100 0.548362
vn -0.015351 0.836101 0.548362
vn -0.015351 0.836100 0.548361
vn -0.903505 0.332847 0.269985
vn -0.903505 0.332847 0.269985
vn -0.903505 0.332847 0.269985
vn -0.903505 0.332847 0.269985
vn 0.000000 -0.271898 0.962326
vn 0.000000 -0.271898 0.962326
vn 0.000000 -0.271898 0.962326
vn 0.000000 -0.271898 0.962326
vn 0.903505 0.332848 0.269985
vn 0.903505 0.332848 0.269985
vn 0.903505 0.332848 0.269984
vn 0.903505 0.332848 0.269985
vn 0.000000 0.885515 -0.464611
vn 0.000000 0.885515 -0.464611
vn 0.000000 0.885515 -0.464611
vn 0.000000 0.885515 -0.464611
vn 0.012801 0.770236 0.637630
vn 0.012801 0.770236 0.637630
vn 0.012801 0.770236 0.637630
vn 0.012801 0.770236 0.637630
vn -0.631709 0.763562 0.133851
vn -0.631709 0.763562 0.133851
vn -0.631709 0.763562 0.133851
vn 0.302559 0.393135 0.868276
vn 0.302559 0.393135 0.868276
vn 0.302559 0.393135 0.868276
vn 0.000001 0.776634 0.629952
vn 0.000001 0.776634 0.629952
vn 0.000001 0.776634 0.629952
vn 0.000001 0.776634 0.629952
vn 0.000001 0.776634 0.629952
vn 0.644447 0.077244 -0.760737
vn 0.644447 0.077244 -0.760738
vn 0.644447 0.077244 -0.760737
vn 0.000001 0.583192 -0.812334
vn 0.000001 0.583192 -0.812334
vn 0.000001 0.583192 -0.812334
vn 0.000001 0.583192 -0.812334
vn 0.000001 0.583192 -0.812334
vn -0.277599 0.958207 0.069118
vn -0.277599 0.958207 0.069118
vn -0.277599 0.958207 0.069118
vn 0.390573 0.808469 -0.440262
vn 0.390573 0.808469 -0.440262
vn 0.390573 0.808469 -0.440262
vn -0.213619 -0.975472 0.053117
vn -0.213619 -0.975472 0.053117
vn -0.213619 -0.975472 0.053117
vn -0.213624 -0.975471 0.053115
vn -0.213624 -0.975471 0.053115
vn -0.213624 -0.975471 0.053115
vn -0.000002 -0.583196 0.812332
vn -0.000002 -0.583196 0.812332
vn -0.000002 -0.583196 0.812332
vn -0.000002 -0.583196 0.812332
vn -0.000002 -0.583196 0.812332
vn -0.116287 -0.178221 0.977095
vn -0.116287 -0.178221 0.977095
vn -0.116287 -0.178221 0.977095
vn 0.000000 -0.583194 0.812333
vn 0.000000 -0.583194 0.812333
vn 0.000000 -0.583194 0.812333
vn 0.000000 -0.583194 0.812333
vn 0.000000 -0.583194 0.812333
vn 0.000000 -0.583197 0.812331
vn 0.000000 -0.583197 0.812331
vn 0.000000 -0.583197 0.812331
vn 0.000000 0.776636 0.629949
vn 0.000000 0.776636 0.629949
vn 0.000000 0.776636 0.629949
vn 0.000000 0.776636 0.629949
vn -0.000000 0.776635 0.629951
vn -0.000000 0.776635 0.629951
vn -0.000000 0.776635 0.629951
vn -0.000000 0.776635 0.629951
vn 0.300305 -0.144530 0.942830
vn 0.300305 -0.144530 0.942830
vn 0.300305 -0.144530 0.942830
vn -0.022784 0.471660 -0.881486
vn -0.022784 0.471660 -0.881486
vn -0.022784 0.471660 -0.881486
vn -0.022784 0.471660 -0.881486
vn -0.030436 0.488268 -0.872163
vn -0.030436 0.488268 -0.872163
vn -0.030436 0.488268 -0.872163
vn -0.030436 0.488268 -0.872163
vn -0.988938 -0.085856 -0.120960
vn -0.988938 -0.085856 -0.120960
vn -0.988938 -0.085856 -0.120960
vn -0.988938 -0.085856 -0.120960
vn 0.004241 0.773380 0.633929
vn 0.004241 0.773380 0.633929
vn 0.004241 0.773380 0.633929
vn 0.004241 0.773380 0.633929
vn 0.718225 -0.067403 0.692539
vn 0.718225 -0.067403 0.692539
vn 0.718225 -0.067403 0.692539
vn 0.490345 0.863248 0.119856
vn 0.490345 0.863248 0.119856
vn 0.490345 0.863248 0.119856
vn 1.000000 -0.000000 0.000000
vn 1.000000 -0.000000 0.000000
vn 1.000000 -0.000000 0.000000
vn 1.000000 -0.000000 0.000000
vn 1.000000 -0.000000 0.000000
vn 1.000000 -0.000000 0.000000
vn 1.000000 -0.000000 0.000000
vn 1.000000 -0.000000 0.000000
vn 1.000000 -0.000000 0.000000
vn 0.000001 0.776634 0.629952
vn 0.000001 0.776634 0.629952
vn 0.000001 0.776634 0.629952
vn 0.000001 0.776634 0.629952
vn 0.000001 0.776634 0.629952
vn 0.000001 0.776634 0.629952
vn -0.000001 0.776634 0.629952
vn -0.000001 0.776634 0.629952
vn -0.000001 0.776634 0.629952
vn 0.081272 0.947205 0.310158
vn 0.081272 0.947205 0.310158
vn 0.081272 0.947205 0.310158
vn 0.225883 0.773560 0.592100
vn 0.225883 0.773560 0.592100
vn 0.225883 0.773560 0.592100
vn 0.225881 0.773559 0.592102
vn 0.225881 0.773559 0.592102
vn 0.225881 0.773559 0.592102
vn 0.000000 1.000000 0.000000
vn 0.000000 1.000000 0.000000
vn 0.000000 1.000000 0.000000
vn 0.145017 0.719463 0.679222
vn 0.145017 0.719463 0.679222
vn 0.145017 0.719463 0.679222
vn -0.000000 0.186894 -0.982380
vn -0.000000 0.186894 -0.982380
vn -0.000000 0.186894 -0.982380
vn -0.000000 0.186894 -0.982380
vn -0.251723 0.692941 -0.675624
vn -0.251723 0.692941 -0.675624
vn -0.251723 0.692941 -0.675624
vn 0.000000 1.000000 -0.000000
vn 0.000000 1.000000 -0.000000
vn 0.000000 1.000000 -0.000000
vn 0.000000 1.000000 -0.000000
vn 0.000000 1.000000 -0.000000
vn 0.594011 0.778128 -0.204128
vn 0.594011 0.778128 -0.204128
vn 0.594011 0.778128 -0.204128
vn 0.608296 0.737268 0.293958
vn 0.608296 0.737268 0.293958
vn 0.608296 0.737268 0.293958
vn -0.276660 0.738801 0.614518
vn -0.276660 0.738801 0.614518
vn -0.276660 0.738801 0.614518
vn 0.000000 0.186906 0.982378
vn 0.000000 0.186906 0.982378
vn 0.000000 0.186906 0.982378
vn 0.000000 0.186906 0.982378
vn 0.000000 0.186894 0.982380
vn 0.000000 0.186894 0.982380
vn 0.000000 0.186894 0.982380
vn 0.000000 0.186894 0.982380
vn 0.982381 0.186888 -0.000000
vn 0.982381 0.186888 -0.000000
vn 0.982381 0.186888 -0.000000
vn 0.982381 0.186888 -0.000000
vn 0.982382 0.186885 -0.000000
vn 0.982382 0.186885 -0.000000
vn 0.982382 0.186885 -0.000000
vn 0.982382 0.186885 -0.000000
vn 0.000000 0.186898 -0.982379
vn 0.000000 0.186898 -0.982379
vn 0.000000 0.186898 -0.982379
vn -0.982380 0.186893 0.000000
vn -0.982380 0.186893 0.000000
vn -0.982380 0.186893 0.000000
vn 0.000000 1.000000 -0.000000
vn 0.000000 1.000000 -0.000000
vn 0.000000 1.000000 -0.000000
vn 0.000000 1.000000 -0.000000
vn 0.000000 1.000000 -0.000000
vn 0.000000 1.000000 -0.000000
vn 0.000000 1.000000 -0.000000
vn 0.000000 1.000000 -0.000000
vn 0.000000 1.000000 -0.000000
vn 0.000000 1.000000 0.000000
vn 0.000000 1.000000 0.000000
vn 0.000000 1.000000 0.000000
vn 0.000000 1.000000 0.000000
vn 0.000000 1.000000 0.000000
vn 0.000000 1.000000 0.000000
vn 0.000000 1.000000 0.000000
vn 0.000000 1.000000 0.000000
vn 0.000000 1.000000 0.000000
vn -0.000000 1.000000 0.000000
vn -0.000000 1.000000 0.000000
vn -0.000000 1.000000 0.000000
vn -0.000000 1.000000 0.000000
vn -0.000000 1.000000 0.000000
vn 0.303462 0.949870 0.075215
vn 0.303462 0.949870 0.075215
vn 0.303462 0.949870 0.075215
vn 0.000000 1.000000 0.000000
vn 0.000000 1.000000 0.000000
vn 0.000000 1.000000 0.000000
vn 0.000000 1.000000 0.000000
vn 0.376010 0.924060 0.068774
vn 0.376010 0.924060 0.068774
vn 0.376010 0.924060 0.068774
s off
f 1/1/1 81/92/2 78/89/3 3/3/4
f 21/19/5 23/20/6 24/21/7 22/22/8
f 5/5/9 82/93/10 84/97/11
f 7/7/12 8/8/13 2/10/14 1/9/15
f 76/86/16 88/103/17 85/99/18 77/88/19
f 84/96/20 1/1/21 3/3/22 83/94/23
f 9/15/24 80/91/25 10/16/26
f 6/6/27 82/93/28 5/5/29 12/18/30 11/17/31
f 9/23/32 10/24/33 14/25/34 73/83/35 13/26/36
f 10/24/37 11/27/38 15/28/39 14/25/40
f 11/27/41 12/29/42 16/30/43 15/28/44
f 12/29/45 9/23/46 13/26/47 74/84/48 16/30/49
f 13/26/50 73/83/51 74/84/52
f 18/31/53 15/28/54 19/33/55
f 15/28/56 16/30/57 20/34/58 21/19/59 22/22/60 19/33/61
f 16/30/62 74/84/63 17/32/64 20/34/65
f 17/32/66 23/20/67 26/36/68 25/35/69
f 23/20/70 21/19/71 27/37/72 26/36/73
f 21/19/74 20/34/75 28/38/76 27/37/77
f 20/34/78 17/32/79 25/35/80 28/38/81
f 22/22/82 24/21/83 29/40/84 30/39/85
f 24/21/86 18/31/87 31/41/88 29/40/89
f 18/31/90 19/33/91 32/42/92 31/41/93
f 19/33/94 22/22/95 30/39/96 32/42/97
f 26/36/98 27/37/99 30/39/100 29/40/101
f 27/37/102 28/38/103 32/42/104 30/39/105
f 48/57/106 47/58/107 49/59/108 50/60/109
f 26/36/110 29/40/111 31/41/112 25/35/113
f 28/38/114 25/35/115 33/43/116
f 32/42/117 28/38/118 33/43/119 34/44/120
f 31/41/121 32/42/122 34/44/123
f 33/43/124 25/35/125 62/72/126 63/73/127 36/45/128
f 25/35/129 31/41/130 37/47/131 64/74/132 62/72/133
f 31/41/134 34/44/135 38/48/136 55/65/137 37/47/138
f 34/44/139 33/43/140 36/45/141 56/66/142 38/48/143
f 40/49/144 35/46/145 39/50/146 51/61/147
f 53/63/148 72/82/149 69/79/150 41/51/151
f 38/48/152 56/66/153 57/67/154
f 43/54/155 67/77/156 45/55/157
f 51/61/158 60/70/159 59/69/160 52/62/161
f 44/53/162 43/54/163 47/58/164 48/57/165
f 43/54/166 45/55/167 49/59/168 47/58/169
f 45/55/170 46/56/171 50/60/172 49/59/173
f 46/56/174 44/53/175 48/57/176 50/60/177
f 51/61/178 39/50/179 43/54/180 44/53/181
f 51/61/182 52/62/183 40/49/184
f 54/64/185 53/63/186 41/51/187
f 46/56/188 71/81/189 42/52/190 58/68/191 60/70/192
f 57/67/193 55/65/194 38/48/195
f 57/67/196 56/66/197 61/71/198 58/68/199 42/52/200
f 61/71/201 60/70/202 58/68/203
f 59/69/204 60/70/205 61/71/206
f 63/73/207 62/72/208 35/46/209
f 62/72/210 64/74/211 35/46/212
f 35/46/213 64/74/214 68/78/215 66/76/216 39/50/217
f 67/77/218 68/78/219 65/75/220
f 68/78/221 37/47/222 53/63/223 54/64/224 65/75/225
f 68/78/226 64/74/227 37/47/228
f 39/50/229 66/76/230 67/77/231 43/54/232
f 45/55/233 67/77/234 65/75/235 54/64/236
f 66/76/237 68/78/238 67/77/239
f 61/71/240 40/49/241 52/62/242 59/69/243
f 61/71/244 56/66/245 36/45/246 40/49/247
f 36/45/248 63/73/249 35/46/250 40/49/251
f 46/56/252 60/70/253 51/61/254 44/53/255
f 70/80/256 71/81/257 72/82/258
f 72/82/259 71/81/260 69/79/261
f 72/82/262 57/67/263 42/52/264 70/80/265
f 37/47/266 55/65/267 57/67/268 72/82/269 53/63/270
f 54/64/271 41/51/272 69/79/273 71/81/274 46/56/275 45/55/276
f 42/52/277 71/81/278 70/80/279
f 14/25/280 89/105/281 73/83/282
f 75/85/283 76/86/284 4/4/285
f 76/86/286 77/88/287 4/4/288
f 10/16/289 87/102/290 11/17/291
f 78/89/292 81/92/293 80/91/294
f 84/97/295 82/93/296 6/6/297 8/8/298
f 84/96/299 83/94/300 5/14/301
f 5/5/302 83/95/303 3/3/304 9/15/305 12/18/306
f 88/104/307 87/102/308 85/98/309
f 86/100/310 87/102/311 88/104/312
f 80/91/313 81/92/314 79/90/315
f 81/92/316 76/86/317 75/85/318 79/90/319
f 1/1/320 2/2/321 76/86/322 81/92/323
f 88/103/324 8/11/325 6/12/326 86/101/327
f 2/2/328 8/11/329 88/103/330 76/86/331
f 84/97/332 8/8/333 7/7/334
f 7/13/335 1/1/336 84/96/337
f 3/3/338 78/89/339 80/91/340 9/15/341
f 10/16/342 80/91/343 79/90/344 75/85/345 4/4/346
f 4/4/347 77/87/348 85/98/349 87/102/350 10/16/351
f 11/17/352 87/102/353 86/100/354 6/6/355
f 74/84/356 73/83/357 89/105/358 23/20/359 17/32/360
f 18/31/361 89/105/362 14/25/363
f 23/20/364 89/105/365 18/31/366 24/21/367
f 14/25/368 15/28/369 18/31/370
