# This file uses centimeters as units for non-parametric coordinates.

v -14.451636 0.000000 18.957005
v 14.451636 0.000000 18.957005
v -14.451636 0.000000 -18.956966
v 14.451636 0.000000 -18.956966
v -12.342368 0.000000 16.190186
v 12.342368 0.000000 -16.190126
v -12.342368 0.000000 -16.190126
v -12.342368 0.000000 -12.952097
v 12.342368 0.000000 -12.952097
v -12.342368 0.000000 -11.162605
v 12.342368 0.000000 -11.162605
v -12.342368 0.000000 -8.363075
v 12.342369 0.000000 -8.363075
v -12.342368 0.000000 -6.522062
v -12.342368 0.000000 -3.847523
v -12.342368 0.000000 13.353004
v -12.342368 0.000000 12.230530
v 12.342368 0.000000 12.230530
v -12.342368 0.000000 9.211025
v 12.342368 0.000000 9.211025
v 0.000000 0.000000 -6.522062
v 0.000000 0.000000 -3.847523
v 4.936949 0.000000 13.353062
v 4.936949 0.000000 16.190186
vt 0.103127 0.230196
vt 0.103127 0.230196
vt 0.103127 0.230196
vt 0.103127 0.230196
vt 0.037443 0.350944
vt 0.037443 0.350944
vt 0.037443 0.350944
vt 0.037443 0.350944
vt 0.037443 0.350944
vt 0.037443 0.350944
vt 0.037443 0.350944
vt 0.037443 0.350944
vt 0.037443 0.350944
vt 0.037443 0.350944
vt 0.037443 0.350944
vt 0.037443 0.350944
vt 0.037443 0.350944
vt 0.037443 0.350944
vt 0.037443 0.350944
vt 0.037443 0.350944
vt 0.037443 0.350944
vt 0.037443 0.350944
vt 0.037443 0.350944
vt 0.037443 0.350944
vt 0.037443 0.350944
vt 0.103127 0.230196
vt 0.103127 0.230196
vt 0.103127 0.230196
vt 0.103127 0.230196
vt 0.037443 0.350944
vt 0.037443 0.350944
vt 0.037443 0.350944
vt 0.037443 0.350944
vt 0.037443 0.350944
vt 0.037443 0.350944
vt 0.037443 0.350944
vt 0.103127 0.230196
vt 0.103127 0.230196
vt 0.103127 0.230196
vt 0.103127 0.230196
vt 0.103127 0.230196
vt 0.103127 0.230196
vt 0.103127 0.230196
vt 0.103127 0.230196
vt 0.103127 0.230196
vt 0.103127 0.230196
vt 0.103127 0.230196
vt 0.103127 0.230196
vt 0.037443 0.350944
vt 0.037443 0.350944
vt 0.037443 0.350944
vt 0.037443 0.350944
vt 0.037443 0.350944
vt 0.037443 0.350944
vt 0.037443 0.350944
vt 0.037443 0.350944
vt 0.037443 0.350944
vt 0.037443 0.350944
vt 0.037443 0.350944
vt 0.037443 0.350944
vt 0.037443 0.350944
vt 0.037443 0.350944
vt 0.037443 0.350944
vt 0.037443 0.350944
vt 0.037443 0.350944
vt 0.037443 0.350944
vt 0.037443 0.350944
vt 0.037443 0.350944
vt 0.037443 0.350944
vt 0.037443 0.350944
vt 0.037443 0.350944
vt 0.037443 0.350944
vt 0.037443 0.350944
vt 0.037443 0.350944
vn 0.000000 1.000000 0.000000
vn 0.000000 1.000000 0.000000
vn 0.000000 1.000000 0.000000
vn 0.000000 1.000000 0.000000
vn 0.000000 1.000000 0.000000
vn 0.000000 1.000000 0.000000
vn 0.000000 1.000000 0.000000
vn 0.000000 1.000000 0.000000
vn 0.000000 1.000000 0.000000
vn 0.000000 1.000000 0.000000
vn 0.000000 1.000000 0.000000
vn 0.000000 1.000000 0.000000
vn 0.000000 1.000000 0.000000
vn 0.000000 1.000000 0.000000
vn 0.000000 1.000000 0.000000
vn 0.000000 1.000000 0.000000
vn 0.000000 1.000000 0.000000
vn 0.000000 1.000000 0.000000
vn 0.000000 1.000000 0.000000
vn 0.000000 1.000000 0.000000
vn 0.000000 1.000000 0.000000
vn 0.000000 1.000000 0.000000
vn 0.000000 1.000000 0.000000
vn 0.000000 1.000000 0.000000
vn 0.000000 1.000000 0.000000
vn 0.000000 1.000000 0.000000
vn 0.000000 1.000000 0.000000
vn 0.000000 1.000000 0.000000
vn 0.000000 1.000000 0.000000
vn 0.000000 1.000000 0.000000
vn 0.000000 1.000000 0.000000
vn 0.000000 1.000000 0.000000
vn 0.000000 1.000000 0.000000
vn 0.000000 1.000000 0.000000
vn 0.000000 1.000000 0.000000
vn 0.000000 1.000000 0.000000
vn 0.000000 1.000000 0.000000
vn 0.000000 1.000000 0.000000
vn 0.000000 1.000000 0.000000
vn 0.000000 1.000000 0.000000
vn 0.000000 1.000000 0.000000
vn 0.000000 1.000000 0.000000
vn 0.000000 1.000000 0.000000
vn 0.000000 1.000000 0.000000
vn 0.000000 1.000000 0.000000
vn 0.000000 1.000000 0.000000
vn 0.000000 1.000000 0.000000
vn 0.000000 1.000000 0.000000
vn 0.000000 1.000000 0.000000
vn 0.000000 1.000000 0.000000
vn 0.000000 1.000000 0.000000
vn 0.000000 1.000000 0.000000
vn 0.000000 1.000000 0.000000
vn 0.000000 1.000000 0.000000
vn 0.000000 1.000000 0.000000
vn 0.000000 1.000000 0.000000
vn 0.000000 1.000000 0.000000
vn 0.000000 1.000000 0.000000
vn 0.000000 1.000000 0.000000
vn 0.000000 1.000000 0.000000
vn 0.000000 1.000000 0.000000
vn 0.000000 1.000000 0.000000
vn 0.000000 1.000000 0.000000
vn 0.000000 1.000000 0.000000
vn 0.000000 1.000000 0.000000
vn 0.000000 1.000000 0.000000
vn 0.000000 1.000000 0.000000
vn 0.000000 1.000000 0.000000
vn 0.000000 1.000000 0.000000
vn 0.000000 1.000000 0.000000
vn 0.000000 1.000000 0.000000
vn 0.000000 1.000000 0.000000
vn 0.000000 1.000000 0.000000
vn 0.000000 1.000000 0.000000
vn 0.000000 1.000000 0.000000
vn 0.000000 1.000000 0.000000
s off
f 8/1/1 9/2/2 6/3/3 7/4/4
f 1/5/5 2/6/6 24/7/7 5/8/8
f 2/6/9 4/9/10 6/10/11 9/11/12 11/12/13 13/13/14 20/14/15 18/15/16
f 4/53/17 3/54/18 7/16/19 6/17/20
f 3/55/21 1/56/22 5/57/23 16/58/24 17/18/25 19/19/26 15/20/27 14/21/28 12/22/29 10/23/30 8/24/31 7/25/32
f 10/59/33 11/60/34 9/61/35 8/62/36
f 12/26/37 13/27/38 11/28/39 10/29/40
f 14/30/41 21/31/42 13/32/43 12/33/44
f 21/63/45 22/34/46 13/35/47
f 22/64/48 20/65/49 13/66/50
f 23/67/51 18/36/52 17/68/53 16/69/54
f 17/37/55 18/38/56 20/39/57 19/40/58
f 15/41/59 22/42/60 21/43/61 14/44/62
f 5/45/63 24/46/64 23/47/65 16/48/66
f 19/49/67 20/50/68 22/51/69 15/52/70
f 2/70/71 18/71/72 24/72/73
f 24/7/74 18/73/75 23/74/76
