# This file uses centimeters as units for non-parametric coordinates.

v -14.451633 0.000000 18.956985
v 14.451632 0.000000 18.956985
v -14.451633 0.000000 -18.956985
v -7.522273 0.000002 -2.233810
v -5.872369 0.000000 -18.956985
v 14.451632 0.000000 0.387421
vt 0.037443 0.350944
vt 0.037443 0.350944
vt 0.038232 0.327719
vt 0.037443 0.350944
vt 0.037443 0.350944
vt 0.037443 0.350944
vt 0.038232 0.327719
vt 0.038232 0.327719
vt 0.037443 0.350944
vn 0.000000 1.000000 0.000000
vn -0.000000 1.000000 0.000000
vn 0.000000 1.000000 0.000000
vn 0.000000 1.000000 0.000000
vn 0.000000 1.000000 -0.000000
vn 0.000000 1.000000 -0.000000
vn 0.000000 1.000000 -0.000000
vn 0.000000 1.000000 0.000000
vn -0.000000 1.000000 0.000000
vn -0.000000 1.000000 -0.000000
vn -0.000000 1.000000 -0.000000
s off
f 6/6/1 4/9/2 1/1/3 2/2/4
f 5/3/5 4/7/6 6/8/7
f 1/1/8 4/9/9 5/5/10 3/4/11
