# This file uses centimeters as units for non-parametric coordinates.

v 2.278442 16.639137 12.342588
v -2.278061 16.639137 12.342588
v -1.140900 16.639137 13.441422
v 0.949326 16.639135 13.441422
v -1.627808 16.639135 14.888053
v 1.353912 16.639135 14.888053
v -3.249893 16.639137 -14.888054
v -3.249893 16.639137 13.789219
v -2.278061 16.639137 -14.888054
v 3.249893 16.639137 13.789219
v 3.249893 16.639137 -14.888054
v 2.278442 16.639137 -14.888054
v 2.278442 -16.639137 12.342588
v -2.278061 -16.639137 12.342588
v -1.140900 -16.639137 13.441422
v 0.949326 -16.639137 13.441422
v -1.627808 -16.639137 14.888053
v 1.353912 -16.639137 14.888053
v -3.249893 -16.639137 -14.888054
v -3.249893 -16.639137 13.789219
v -2.278061 -16.639137 -14.888054
v 3.249893 -16.639137 13.789219
v 3.249893 -16.639137 -14.888054
v 2.278442 -16.639137 -14.888054
v -3.249893 -13.311291 13.789219
v 3.249893 -13.311291 13.789219
v -3.249893 -9.023714 13.789219
v 3.249893 -9.023714 13.789219
v -3.249893 11.890221 13.789219
v 3.249893 11.890221 13.789219
v -1.627808 11.890221 14.888053
v -1.627808 -9.023714 14.888053
v -1.627808 -13.311291 14.888053
v 1.353912 -13.311291 14.888053
v 1.353912 -9.023714 14.888053
v 1.353912 11.890221 14.888053
vt 0.338484 0.423502
vt 0.338484 0.423502
vt 0.338484 0.423502
vt 0.338484 0.423502
vt 0.338484 0.423502
vt 0.338484 0.423502
vt 0.338484 0.423502
vt 0.338484 0.423502
vt 0.338484 0.423502
vt 0.338484 0.423502
vt 0.338484 0.423502
vt 0.338484 0.423502
vt 0.036637 0.352765
vt 0.036637 0.352765
vt 0.036637 0.352765
vt 0.036637 0.352765
vt 0.036637 0.352765
vt 0.036637 0.352765
vt 0.338484 0.423502
vt 0.338484 0.423502
vt 0.338484 0.423502
vt 0.338484 0.423502
vt 0.338484 0.423502
vt 0.338484 0.423502
vt 0.338484 0.423502
vt 0.338484 0.423502
vt 0.338484 0.423502
vt 0.338484 0.423502
vt 0.338484 0.423502
vt 0.338484 0.423502
vt 0.036637 0.352765
vt 0.036637 0.352765
vt 0.036637 0.352765
vt 0.036637 0.352765
vt 0.036637 0.352765
vt 0.036637 0.352765
vt 0.338484 0.423502
vt 0.338484 0.423502
vt 0.338484 0.423502
vt 0.338484 0.423502
vt 0.338484 0.423502
vt 0.338484 0.423502
vt 0.338484 0.423502
vt 0.338484 0.423502
vt 0.338484 0.423502
vt 0.338484 0.423502
vt 0.338484 0.423502
vt 0.338484 0.423502
vt 0.338482 0.423502
vt 0.338482 0.423502
vt 0.069069 0.328000
vt 0.069069 0.328000
vt 0.069069 0.328000
vt 0.069069 0.328000
vt 0.338484 0.423502
vt 0.338484 0.423502
vt 0.338484 0.423502
vt 0.338484 0.423502
vt 0.016235 0.352960
vt 0.016235 0.352965
vt 0.016235 0.352965
vt 0.016235 0.352960
vt 0.338484 0.423502
vt 0.338484 0.423502
vt 0.338484 0.423502
vt 0.338484 0.423502
vt 0.338484 0.423502
vt 0.338484 0.423502
vt 0.016235 0.352965
vt 0.016235 0.352960
vt 0.069069 0.328000
vt 0.069069 0.328000
vt 0.338484 0.423502
vt 0.338484 0.423502
vt 0.016235 0.352965
vt 0.016235 0.352960
vt 0.338484 0.423502
vt 0.338484 0.423502
vt 0.069069 0.328000
vt 0.069069 0.328000
vt 0.338482 0.423502
vt 0.338482 0.423502
vt 0.338484 0.423502
vt 0.338484 0.423502
vt 0.036637 0.352765
vt 0.036637 0.352765
vt 0.036637 0.352765
vt 0.036637 0.352765
vn 0.000000 1.000000 0.000002
vn 0.000000 1.000000 0.000002
vn 0.000000 1.000000 0.000002
vn 0.000000 1.000000 0.000002
vn 0.000000 1.000000 0.000000
vn 0.000000 1.000000 0.000000
vn 0.000000 1.000000 0.000000
vn 0.000000 1.000000 0.000000
vn 0.000000 1.000000 0.000000
vn 0.000000 1.000000 0.000000
vn 0.000000 1.000000 0.000000
vn 0.000000 1.000000 0.000000
vn 0.000000 1.000000 0.000000
vn 0.000000 1.000000 0.000000
vn 0.000000 1.000000 0.000000
vn 0.000000 1.000000 0.000000
vn 0.000000 1.000000 0.000000
vn 0.000000 1.000000 0.000000
vn 0.000000 1.000000 0.000000
vn 0.000000 1.000000 0.000000
vn -0.000001 1.000000 -0.000001
vn -0.000001 1.000000 -0.000001
vn -0.000001 1.000000 -0.000001
vn -0.000001 1.000000 -0.000001
vn 0.000000 1.000000 0.000000
vn 0.000000 1.000000 0.000000
vn 0.000000 1.000000 0.000000
vn 0.000000 1.000000 0.000000
vn 0.000000 -1.000000 -0.000000
vn 0.000000 -1.000000 -0.000000
vn 0.000000 -1.000000 -0.000000
vn 0.000000 -1.000000 -0.000000
vn 0.000000 -1.000000 0.000000
vn 0.000000 -1.000000 0.000000
vn 0.000000 -1.000000 0.000000
vn 0.000000 -1.000000 0.000000
vn 0.000000 -1.000000 0.000000
vn 0.000000 -1.000000 0.000000
vn 0.000000 -1.000000 0.000000
vn 0.000000 -1.000000 0.000000
vn 0.000000 -1.000000 0.000000
vn 0.000000 -1.000000 0.000000
vn 0.000000 -1.000000 0.000000
vn 0.000000 -1.000000 0.000000
vn 0.000000 -1.000000 0.000000
vn 0.000000 -1.000000 0.000000
vn 0.000000 -1.000000 0.000000
vn 0.000000 -1.000000 0.000000
vn 0.000000 -1.000000 -0.000001
vn 0.000000 -1.000000 -0.000001
vn 0.000000 -1.000000 -0.000001
vn 0.000000 -1.000000 -0.000001
vn 0.000000 -1.000000 0.000000
vn 0.000000 -1.000000 0.000000
vn 0.000000 -1.000000 0.000000
vn 0.000000 -1.000000 0.000000
vn -1.000000 0.000000 0.000000
vn -1.000000 0.000000 0.000000
vn -1.000000 0.000000 0.000000
vn -1.000000 0.000000 0.000000
vn 1.000000 0.000000 0.000000
vn 1.000000 0.000000 0.000000
vn 1.000000 0.000000 0.000000
vn 1.000000 0.000000 0.000000
vn 0.000000 0.000000 1.000000
vn 0.000000 0.000000 1.000000
vn 0.000000 0.000000 1.000000
vn 0.000000 0.000000 1.000000
vn 0.000000 0.000000 -1.000000
vn 0.000000 0.000000 -1.000000
vn 0.000000 0.000000 -1.000000
vn 0.000000 0.000000 -1.000000
vn 0.000000 0.000000 1.000000
vn 0.000000 0.000000 1.000000
vn 0.000000 0.000000 1.000000
vn 0.000000 0.000000 1.000000
vn 0.000000 0.000000 1.000000
vn 0.000000 0.000000 1.000000
vn 0.000000 0.000000 1.000000
vn 0.000000 0.000000 1.000000
vn 0.000000 0.000000 1.000000
vn 0.000000 0.000000 1.000000
vn 0.000000 0.000000 1.000000
vn 0.000000 0.000000 1.000000
vn -1.000000 0.000000 0.000000
vn -1.000000 0.000000 0.000000
vn -1.000000 0.000000 0.000000
vn -1.000000 0.000000 0.000000
vn -1.000000 0.000000 0.000000
vn -1.000000 0.000000 0.000000
vn -1.000000 0.000000 0.000000
vn 1.000000 0.000000 0.000000
vn 1.000000 0.000000 0.000000
vn 1.000000 0.000000 0.000000
vn 1.000000 0.000000 0.000000
vn 1.000000 0.000000 0.000000
vn 1.000000 0.000000 0.000000
vn 1.000000 0.000000 0.000000
vn -0.560849 0.000000 0.827918
vn -0.560849 0.000000 0.827918
vn -0.560849 0.000000 0.827918
vn -0.560849 0.000000 0.827918
vn -0.560849 0.000000 0.827918
vn -0.560849 0.000000 0.827918
vn -0.560849 0.000000 0.827918
vn -0.560849 0.000000 0.827918
vn -0.560849 0.000000 0.827918
vn -0.560849 0.000000 0.827918
vn -0.560849 0.000000 0.827918
vn -0.560849 0.000000 0.827918
vn -0.560849 0.000000 0.827918
vn -0.560849 0.000000 0.827918
vn -0.560849 0.000000 0.827918
vn -0.560849 0.000000 0.827918
vn 0.501433 0.000000 0.865197
vn 0.501433 0.000000 0.865197
vn 0.501433 0.000000 0.865197
vn 0.501433 0.000000 0.865197
vn 0.501433 0.000000 0.865196
vn 0.501433 0.000000 0.865196
vn 0.501433 0.000000 0.865196
vn 0.501433 0.000000 0.865196
vn 0.501433 0.000000 0.865196
vn 0.501433 0.000000 0.865196
vn 0.501433 0.000000 0.865196
vn 0.501433 0.000000 0.865196
vn 0.501433 0.000000 0.865197
vn 0.501433 0.000000 0.865197
vn 0.501433 0.000000 0.865197
vn 0.501433 0.000000 0.865197
vn 0.000000 0.000000 -1.000000
vn 0.000000 0.000000 -1.000000
vn 0.000000 0.000000 -1.000000
vn 0.000000 0.000000 -1.000000
vn 0.000000 0.000000 -1.000000
vn 0.000000 0.000000 -1.000000
vn 0.000000 0.000000 -1.000000
vn 0.000000 0.000000 -1.000000
s off
f 6/1/1 4/2/2 3/3/3 5/4/4
f 7/5/5 8/6/6 2/7/7 9/8/8
f 12/9/9 1/10/10 10/11/11 11/12/12
f 1/13/13 2/14/14 3/15/15 4/16/16
f 5/4/17 3/3/18 2/7/19 8/6/20
f 1/10/21 4/2/22 6/1/23 10/11/24
f 9/17/25 2/14/26 1/13/27 12/18/28
f 18/19/29 17/20/30 15/21/31 16/22/32
f 19/23/33 21/24/34 14/25/35 20/26/36
f 24/27/37 23/28/38 22/29/39 13/30/40
f 13/31/41 16/32/42 15/33/43 14/34/44
f 17/20/45 20/26/46 14/25/47 15/21/48
f 13/30/49 22/29/50 18/19/51 16/22/52
f 21/35/53 24/36/54 13/31/55 14/34/56
f 19/37/57 27/38/58 29/39/59 7/40/60
f 11/41/61 30/42/62 28/43/63 23/44/64
f 5/45/65 31/46/66 36/47/67 6/48/68
f 9/49/69 21/50/70 19/37/71 7/40/72
f 33/51/73 17/52/74 18/53/75 34/54/76
f 32/55/77 33/56/78 34/57/79 35/58/80
f 31/59/81 32/60/82 35/61/83 36/62/84
f 19/37/85 20/63/86 25/64/87 27/38/88
f 7/40/89 29/39/90 8/65/91
f 11/41/92 10/66/93 30/42/94
f 23/44/95 28/43/96 26/67/97 22/68/98
f 29/39/99 31/46/100 5/45/101 8/65/102
f 27/69/103 32/60/104 31/59/105 29/70/106
f 25/64/107 33/56/108 32/55/109 27/38/110
f 20/71/111 17/52/112 33/51/113 25/72/114
f 35/58/115 34/57/116 26/73/117 28/74/118
f 36/62/119 35/61/120 28/75/121 30/76/122
f 6/48/123 36/47/124 30/77/125 10/78/126
f 34/54/127 18/53/128 22/79/129 26/80/130
f 23/81/131 24/82/132 12/83/133 11/84/134
f 21/85/135 9/86/136 12/87/137 24/88/138
