# This file uses centimeters as units for non-parametric coordinates.

v 2.885681 16.184021 81.854851
v 19.689270 16.184021 81.854851
v 2.885681 489.284576 81.854851
v 19.689270 489.284576 81.854851
v 2.885681 489.284576 4.629997
v 19.689270 489.284576 4.629997
v 2.885681 16.184021 4.629997
v 19.689270 16.184021 4.629997
v -1.353943 489.284576 88.937408
v 24.880127 489.284576 88.937408
v -1.353943 499.999939 88.937408
v 24.880127 499.999939 88.937408
v -1.353943 499.999939 -0.801960
v 24.880127 499.999939 -0.801960
v -1.353943 489.284576 -0.801960
v 24.880127 489.284576 -0.801960
v -1.353943 0.000000 88.937408
v 24.880127 0.000000 88.937408
v -1.353943 16.184021 88.937408
v 24.880127 16.184021 88.937408
v -1.353943 16.184021 -0.801960
v 24.880127 16.184021 -0.801960
v -1.353943 0.000000 -0.801960
v 24.880127 0.000000 -0.801960
v 223.801208 489.284576 88.937408
v 250.035217 489.284576 88.937408
v 223.801208 499.999939 88.937408
v 250.035217 499.999939 88.937408
v 223.801208 499.999939 -0.801960
v 250.035217 499.999939 -0.801960
v 223.801208 489.284576 -0.801960
v 250.035217 489.284576 -0.801960
v 228.040771 16.184021 81.854851
v 244.844360 16.184021 81.854851
v 228.040771 489.284576 81.854851
v 244.844360 489.284576 81.854851
v 228.040771 489.284576 4.629997
v 244.844360 489.284576 4.629997
v 228.040771 16.184021 4.629997
v 244.844360 16.184021 4.629997
v 223.801208 0.000000 88.937408
v 250.035217 0.000000 88.937408
v 223.801208 16.184021 88.937408
v 250.035217 16.184021 88.937408
v 223.801208 16.184021 -0.801960
v 250.035217 16.184021 -0.801960
v 223.801208 0.000000 -0.801960
v 250.035217 0.000000 -0.801960
v 17.778168 18.170349 70.934692
v 233.366272 18.170349 70.934692
v 17.778168 486.223877 70.934692
v 233.366272 486.223877 70.934692
v 17.778168 18.170349 12.071022
v 233.366272 18.170349 12.071022
v 233.366272 486.223877 12.071022
v 17.778168 486.223877 12.071022
vt 0.500307 0.507959
vt 0.500307 0.507959
vt 0.500307 0.507965
vt 0.500307 0.507965
vt 0.500307 0.507965
vt 0.500307 0.507965
vt 0.500307 0.507959
vt 0.500307 0.507959
vt 0.500307 0.507965
vt 0.500307 0.507965
vt 0.500307 0.507965
vt 0.500307 0.507965
vt 0.500307 0.507965
vt 0.500307 0.507965
vt 0.500307 0.507965
vt 0.500307 0.507965
vt 0.500307 0.507960
vt 0.500307 0.507960
vt 0.500307 0.507959
vt 0.500307 0.507959
vt 0.500307 0.507959
vt 0.500307 0.507959
vt 0.500307 0.507960
vt 0.500307 0.507960
vt 0.500305 0.507965
vt 0.500305 0.507965
vt 0.500305 0.507965
vt 0.500305 0.507965
vt 0.500305 0.507965
vt 0.500305 0.507965
vt 0.500305 0.507965
vt 0.500305 0.507965
vt 0.500305 0.507959
vt 0.500305 0.507959
vt 0.500305 0.507965
vt 0.500305 0.507965
vt 0.500305 0.507965
vt 0.500305 0.507965
vt 0.500305 0.507959
vt 0.500305 0.507959
vt 0.500305 0.507960
vt 0.500305 0.507960
vt 0.500305 0.507959
vt 0.500305 0.507959
vt 0.500305 0.507959
vt 0.500305 0.507959
vt 0.500305 0.507960
vt 0.500305 0.507960
vt 0.500307 0.507959
vt 0.500307 0.507965
vt 0.500305 0.507965
vt 0.500305 0.507959
vt 0.550810 0.061311
vt 0.950430 0.061311
vt 0.950430 0.934989
vt 0.550810 0.934989
vt 0.500307 0.507959
vt 0.500305 0.507959
vt 0.500305 0.507965
vt 0.500307 0.507965
vn 0.000000 0.000000 1.000000
vn 0.000000 0.000000 1.000000
vn 0.000000 0.000000 1.000000
vn 0.000000 0.000000 1.000000
vn 0.000000 0.000000 -1.000000
vn 0.000000 0.000000 -1.000000
vn 0.000000 0.000000 -1.000000
vn 0.000000 0.000000 -1.000000
vn 1.000000 0.000000 0.000000
vn 1.000000 0.000000 0.000000
vn 1.000000 0.000000 0.000000
vn 1.000000 0.000000 0.000000
vn -1.000000 0.000000 0.000000
vn -1.000000 0.000000 0.000000
vn -1.000000 0.000000 0.000000
vn -1.000000 0.000000 0.000000
vn 0.000000 0.000000 1.000000
vn 0.000000 0.000000 1.000000
vn 0.000000 0.000000 1.000000
vn 0.000000 0.000000 1.000000
vn 0.000000 1.000000 0.000000
vn 0.000000 1.000000 0.000000
vn 0.000000 1.000000 0.000000
vn 0.000000 1.000000 0.000000
vn 0.000000 0.000000 -1.000000
vn 0.000000 0.000000 -1.000000
vn 0.000000 0.000000 -1.000000
vn 0.000000 0.000000 -1.000000
vn 0.000000 -1.000000 0.000000
vn 0.000000 -1.000000 0.000000
vn 0.000000 -1.000000 0.000000
vn 0.000000 -1.000000 0.000000
vn 1.000000 0.000000 0.000000
vn 1.000000 0.000000 0.000000
vn 1.000000 0.000000 0.000000
vn 1.000000 0.000000 0.000000
vn -1.000000 0.000000 0.000000
vn -1.000000 0.000000 0.000000
vn -1.000000 0.000000 0.000000
vn -1.000000 0.000000 0.000000
vn 0.000000 0.000000 1.000000
vn 0.000000 0.000000 1.000000
vn 0.000000 0.000000 1.000000
vn 0.000000 0.000000 1.000000
vn 0.000000 1.000000 0.000000
vn 0.000000 1.000000 0.000000
vn 0.000000 1.000000 0.000000
vn 0.000000 1.000000 0.000000
vn 0.000000 0.000000 -1.000000
vn 0.000000 0.000000 -1.000000
vn 0.000000 0.000000 -1.000000
vn 0.000000 0.000000 -1.000000
vn 0.000000 -1.000000 0.000000
vn 0.000000 -1.000000 0.000000
vn 0.000000 -1.000000 0.000000
vn 0.000000 -1.000000 0.000000
vn 1.000000 0.000000 0.000000
vn 1.000000 0.000000 0.000000
vn 1.000000 0.000000 0.000000
vn 1.000000 0.000000 0.000000
vn -1.000000 0.000000 0.000000
vn -1.000000 0.000000 0.000000
vn -1.000000 0.000000 0.000000
vn -1.000000 0.000000 0.000000
vn 0.000000 0.000000 1.000000
vn 0.000000 0.000000 1.000000
vn 0.000000 0.000000 1.000000
vn 0.000000 0.000000 1.000000
vn 0.000000 1.000000 0.000000
vn 0.000000 1.000000 0.000000
vn 0.000000 1.000000 0.000000
vn 0.000000 1.000000 0.000000
vn 0.000000 0.000000 -1.000000
vn 0.000000 0.000000 -1.000000
vn 0.000000 0.000000 -1.000000
vn 0.000000 0.000000 -1.000000
vn 0.000000 -1.000000 0.000000
vn 0.000000 -1.000000 0.000000
vn 0.000000 -1.000000 0.000000
vn 0.000000 -1.000000 0.000000
vn 1.000000 0.000000 0.000000
vn 1.000000 0.000000 0.000000
vn 1.000000 0.000000 0.000000
vn 1.000000 0.000000 0.000000
vn -1.000000 0.000000 0.000000
vn -1.000000 0.000000 0.000000
vn -1.000000 0.000000 0.000000
vn -1.000000 0.000000 0.000000
vn 0.000000 0.000000 1.000000
vn 0.000000 0.000000 1.000000
vn 0.000000 0.000000 1.000000
vn 0.000000 0.000000 1.000000
vn 0.000000 0.000000 -1.000000
vn 0.000000 0.000000 -1.000000
vn 0.000000 0.000000 -1.000000
vn 0.000000 0.000000 -1.000000
vn 1.000000 0.000000 0.000000
vn 1.000000 0.000000 0.000000
vn 1.000000 0.000000 0.000000
vn 1.000000 0.000000 0.000000
vn -1.000000 0.000000 0.000000
vn -1.000000 0.000000 0.000000
vn -1.000000 0.000000 0.000000
vn -1.000000 0.000000 0.000000
vn 0.000000 0.000000 1.000000
vn 0.000000 0.000000 1.000000
vn 0.000000 0.000000 1.000000
vn 0.000000 0.000000 1.000000
vn 0.000000 1.000000 0.000000
vn 0.000000 1.000000 0.000000
vn 0.000000 1.000000 0.000000
vn 0.000000 1.000000 0.000000
vn 0.000000 0.000000 -1.000000
vn 0.000000 0.000000 -1.000000
vn 0.000000 0.000000 -1.000000
vn 0.000000 0.000000 -1.000000
vn 0.000000 -1.000000 0.000000
vn 0.000000 -1.000000 0.000000
vn 0.000000 -1.000000 0.000000
vn 0.000000 -1.000000 0.000000
vn 1.000000 0.000000 0.000000
vn 1.000000 0.000000 0.000000
vn 1.000000 0.000000 0.000000
vn 1.000000 0.000000 0.000000
vn -1.000000 0.000000 0.000000
vn -1.000000 0.000000 0.000000
vn -1.000000 0.000000 0.000000
vn -1.000000 0.000000 0.000000
vn 0.000000 0.000000 -1.000000
vn 0.000000 0.000000 -1.000000
vn 0.000000 0.000000 -1.000000
vn 0.000000 0.000000 -1.000000
vn 0.000000 0.000000 1.000000
vn 0.000000 0.000000 1.000000
vn 0.000000 0.000000 1.000000
vn 0.000000 0.000000 1.000000
vn 0.000000 -1.000000 0.000000
vn 0.000000 -1.000000 0.000000
vn 0.000000 -1.000000 0.000000
vn 0.000000 -1.000000 0.000000
vn 0.000000 1.000000 0.000000
vn 0.000000 1.000000 0.000000
vn 0.000000 1.000000 0.000000
vn 0.000000 1.000000 0.000000
s off
f 1/1/1 2/2/2 4/3/3 3/4/4
f 5/5/5 6/6/6 8/7/7 7/8/8
f 2/2/9 8/7/10 6/6/11 4/3/12
f 7/8/13 1/1/14 3/4/15 5/5/16
f 9/9/17 10/10/18 12/11/19 11/12/20
f 11/12/21 12/11/22 14/13/23 13/14/24
f 13/14/25 14/13/26 16/15/27 15/16/28
f 15/16/29 16/15/30 10/10/31 9/9/32
f 10/10/33 16/15/34 14/13/35 12/11/36
f 15/16/37 9/9/38 11/12/39 13/14/40
f 17/17/41 18/18/42 20/19/43 19/20/44
f 19/20/45 20/19/46 22/21/47 21/22/48
f 21/22/49 22/21/50 24/23/51 23/24/52
f 23/24/53 24/23/54 18/18/55 17/17/56
f 18/18/57 24/23/58 22/21/59 20/19/60
f 23/24/61 17/17/62 19/20/63 21/22/64
f 25/25/65 26/26/66 28/27/67 27/28/68
f 27/28/69 28/27/70 30/29/71 29/30/72
f 29/30/73 30/29/74 32/31/75 31/32/76
f 31/32/77 32/31/78 26/26/79 25/25/80
f 26/26/81 32/31/82 30/29/83 28/27/84
f 31/32/85 25/25/86 27/28/87 29/30/88
f 33/33/89 34/34/90 36/35/91 35/36/92
f 37/37/93 38/38/94 40/39/95 39/40/96
f 34/34/97 40/39/98 38/38/99 36/35/100
f 39/40/101 33/33/102 35/36/103 37/37/104
f 41/41/105 42/42/106 44/43/107 43/44/108
f 43/44/109 44/43/110 46/45/111 45/46/112
f 45/46/113 46/45/114 48/47/115 47/48/116
f 47/48/117 48/47/118 42/42/119 41/41/120
f 42/42/121 48/47/122 46/45/123 44/43/124
f 47/48/125 41/41/126 43/44/127 45/46/128
f 53/49/129 56/50/130 55/51/131 54/52/132
f 49/53/133 50/54/134 52/55/135 51/56/136
f 49/57/137 53/49/138 54/52/139 50/58/140
f 52/59/141 55/51/142 56/50/143 51/60/144
