# This file uses centimeters as units for non-parametric coordinates.

v 2.626610 17.311287 12.263613
v -2.626228 17.311287 12.263705
v -1.212120 17.311287 13.184411
v 1.065903 17.311287 13.184371
v -1.708679 17.311287 14.798905
v 1.502037 17.311287 14.798905
v -3.701744 17.311287 -14.798908
v -3.701744 17.311287 13.878174
v -2.626228 17.311287 -14.798908
v 3.701744 17.311287 13.878174
v 3.701744 17.311287 -14.798908
v 2.626610 17.311287 -14.798908
v 2.626610 -17.311287 12.263613
v -2.626228 -17.311287 12.263705
v -1.212120 -17.311287 13.184411
v 1.065903 -17.311287 13.184371
v -1.708679 -17.311287 14.798905
v 1.502037 -17.311287 14.798905
v -3.701744 -17.311287 -14.798908
v -3.701744 -17.311287 13.878174
v -2.626228 -17.311287 -14.798908
v 3.701744 -17.311287 13.878174
v 3.701744 -17.311287 -14.798908
v 2.626610 -17.311287 -14.798908
v -3.701744 13.392565 13.878174
v -1.708679 13.392565 14.798908
v 1.502037 13.392565 14.798905
v 3.701744 13.392565 13.878174
v -3.701744 11.262394 13.878174
v -1.708679 11.262379 14.798908
v 1.502037 11.262394 14.798905
v 3.701744 11.262379 13.878174
v -3.701744 -2.626359 13.878174
v -1.708679 -2.626366 14.798908
v 1.502037 -2.626359 14.798905
v 3.701744 -2.626366 13.878174
v -3.701744 -7.025684 13.878174
v -1.708679 -7.025690 14.798908
v 1.502037 -7.025684 14.798905
v 3.701744 -7.025690 13.878174
vt 0.470127 0.492724
vt 0.470127 0.492724
vt 0.470127 0.492724
vt 0.470127 0.492724
vt 0.470127 0.492724
vt 0.470127 0.492724
vt 0.470127 0.492724
vt 0.470127 0.492724
vt 0.470127 0.492724
vt 0.470127 0.492724
vt 0.470127 0.492724
vt 0.470127 0.492724
vt 0.036637 0.352765
vt 0.036637 0.352765
vt 0.036637 0.352765
vt 0.036637 0.352765
vt 0.036637 0.352765
vt 0.036637 0.352765
vt 0.470127 0.492724
vt 0.470127 0.492724
vt 0.470127 0.492724
vt 0.470127 0.492724
vt 0.470127 0.492724
vt 0.470127 0.492724
vt 0.470127 0.492724
vt 0.470127 0.492724
vt 0.470127 0.492724
vt 0.470127 0.492724
vt 0.470127 0.492724
vt 0.470127 0.492724
vt 0.036637 0.352765
vt 0.036637 0.352765
vt 0.036637 0.352765
vt 0.036637 0.352765
vt 0.036637 0.352765
vt 0.036637 0.352765
vt 0.470127 0.492724
vt 0.470127 0.492724
vt 0.470127 0.492724
vt 0.470127 0.492724
vt 0.470127 0.492724
vt 0.470127 0.492724
vt 0.470127 0.492724
vt 0.470127 0.492724
vt 0.470127 0.492724
vt 0.470127 0.492724
vt 0.470127 0.492724
vt 0.470127 0.492724
vt 0.470127 0.492724
vt 0.470127 0.492724
vt 0.470127 0.492724
vt 0.470127 0.492724
vt 0.051876 0.352033
vt 0.051876 0.352033
vt 0.051876 0.352033
vt 0.051876 0.352033
vt 0.051876 0.352033
vt 0.051876 0.352033
vt 0.051876 0.352033
vt 0.051876 0.352033
vt 0.470127 0.492724
vt 0.470127 0.492724
vt 0.470127 0.492724
vt 0.470127 0.492724
vt 0.470127 0.492724
vt 0.470127 0.492724
vt 0.470127 0.492724
vt 0.470127 0.492724
vt 0.470127 0.492724
vt 0.470127 0.492724
vt 0.470127 0.492724
vt 0.051876 0.352033
vt 0.051876 0.352033
vt 0.051876 0.352033
vt 0.051876 0.352033
vt 0.051876 0.352033
vt 0.051876 0.352033
vt 0.051876 0.352033
vt 0.051876 0.352033
vt 0.470127 0.492724
vt 0.470127 0.492724
vt 0.470127 0.492724
vt 0.470127 0.492724
vt 0.470127 0.492724
vt 0.470127 0.492724
vt 0.470127 0.492724
vt 0.470127 0.492724
vt 0.470127 0.492724
vt 0.470127 0.492724
vt 0.470127 0.492724
vt 0.470127 0.492724
vt 0.470127 0.492724
vt 0.036637 0.352765
vt 0.036637 0.352765
vt 0.036637 0.352765
vt 0.036637 0.352765
vn 0.000000 1.000000 -0.000001
vn 0.000000 1.000000 -0.000001
vn 0.000000 1.000000 -0.000001
vn 0.000000 1.000000 -0.000001
vn 0.000000 1.000000 0.000000
vn 0.000000 1.000000 0.000000
vn 0.000000 1.000000 0.000000
vn 0.000000 1.000000 0.000000
vn 0.000000 1.000000 0.000000
vn 0.000000 1.000000 0.000000
vn 0.000000 1.000000 0.000000
vn 0.000000 1.000000 0.000000
vn 0.000000 1.000000 0.000000
vn 0.000000 1.000000 0.000000
vn 0.000000 1.000000 0.000000
vn 0.000000 1.000000 0.000000
vn 0.000000 1.000000 0.000000
vn 0.000000 1.000000 0.000000
vn 0.000000 1.000000 0.000000
vn 0.000000 1.000000 0.000000
vn 0.000000 1.000000 0.000001
vn 0.000000 1.000000 0.000001
vn 0.000000 1.000000 0.000001
vn 0.000000 1.000000 0.000001
vn 0.000000 1.000000 0.000000
vn 0.000000 1.000000 0.000000
vn 0.000000 1.000000 0.000000
vn 0.000000 1.000000 0.000000
vn 0.000000 -1.000000 -0.000001
vn 0.000000 -1.000000 -0.000001
vn 0.000000 -1.000000 -0.000001
vn 0.000000 -1.000000 -0.000001
vn 0.000000 -1.000000 0.000000
vn 0.000000 -1.000000 0.000000
vn 0.000000 -1.000000 0.000000
vn 0.000000 -1.000000 0.000000
vn 0.000000 -1.000000 0.000000
vn 0.000000 -1.000000 0.000000
vn 0.000000 -1.000000 0.000000
vn 0.000000 -1.000000 0.000000
vn 0.000000 -1.000000 0.000000
vn 0.000000 -1.000000 0.000000
vn 0.000000 -1.000000 0.000000
vn 0.000000 -1.000000 0.000000
vn 0.000000 -1.000000 -0.000000
vn 0.000000 -1.000000 -0.000000
vn 0.000000 -1.000000 -0.000000
vn 0.000000 -1.000000 -0.000000
vn 0.000000 -1.000000 0.000001
vn 0.000000 -1.000000 0.000001
vn 0.000000 -1.000000 0.000001
vn 0.000000 -1.000000 0.000001
vn 0.000000 -1.000000 0.000000
vn 0.000000 -1.000000 0.000000
vn 0.000000 -1.000000 0.000000
vn 0.000000 -1.000000 0.000000
vn -1.000000 0.000000 0.000000
vn -1.000000 0.000000 0.000000
vn -1.000000 0.000000 0.000000
vn 1.000000 0.000000 0.000000
vn 1.000000 0.000000 0.000000
vn 1.000000 0.000000 0.000000
vn 0.000000 0.000000 1.000000
vn 0.000000 0.000000 1.000000
vn 0.000000 0.000000 1.000000
vn 0.000000 0.000000 1.000000
vn 0.000000 0.000000 -1.000000
vn 0.000000 0.000000 -1.000000
vn 0.000000 0.000000 -1.000000
vn 0.000000 0.000000 -1.000000
vn -0.419380 0.000000 0.907811
vn -0.419380 0.000000 0.907811
vn -0.419380 0.000000 0.907811
vn -0.419380 0.000000 0.907811
vn 0.386111 0.000000 0.922452
vn 0.386111 0.000000 0.922452
vn 0.386111 0.000000 0.922452
vn 0.386111 0.000000 0.922452
vn -1.000000 0.000000 0.000000
vn -1.000000 0.000000 0.000000
vn -1.000000 0.000000 0.000000
vn -0.419380 0.000000 0.907811
vn -0.419380 0.000000 0.907811
vn -0.419380 0.000000 0.907811
vn -0.419380 0.000000 0.907811
vn 0.000000 0.000000 1.000000
vn 0.000000 0.000000 1.000000
vn 0.000001 0.000000 1.000000
vn 0.000001 0.000000 1.000000
vn 0.386111 0.000000 0.922452
vn 0.386111 0.000000 0.922452
vn 0.386111 0.000000 0.922452
vn 0.386111 0.000000 0.922452
vn 1.000000 0.000000 0.000000
vn 1.000000 0.000000 0.000000
vn 1.000000 0.000000 0.000000
vn -1.000000 0.000000 0.000000
vn -1.000000 0.000000 0.000000
vn -1.000000 0.000000 0.000000
vn -1.000000 0.000000 0.000000
vn -0.419380 0.000000 0.907811
vn -0.419380 0.000000 0.907811
vn -0.419380 0.000000 0.907811
vn -0.419380 0.000000 0.907811
vn 0.000001 0.000000 1.000000
vn 0.000001 0.000000 1.000000
vn 0.000001 0.000000 1.000000
vn 0.000001 0.000000 1.000000
vn 0.386111 0.000000 0.922452
vn 0.386111 0.000000 0.922452
vn 0.386111 0.000000 0.922452
vn 0.386111 0.000000 0.922452
vn 1.000000 0.000000 0.000000
vn 1.000000 0.000000 0.000000
vn 1.000000 0.000000 0.000000
vn 1.000000 0.000000 0.000000
vn -1.000000 0.000000 0.000000
vn -1.000000 0.000000 0.000000
vn -1.000000 0.000000 0.000000
vn -0.419380 -0.000000 0.907811
vn -0.419380 -0.000000 0.907811
vn -0.419380 0.000000 0.907811
vn -0.419380 0.000000 0.907811
vn 0.000001 0.000000 1.000000
vn 0.000001 0.000000 1.000000
vn 0.000001 -0.000000 1.000000
vn 0.000001 -0.000000 1.000000
vn 0.386111 0.000000 0.922452
vn 0.386111 0.000000 0.922452
vn 0.386111 0.000000 0.922452
vn 0.386111 0.000000 0.922452
vn 1.000000 0.000000 0.000000
vn 1.000000 0.000000 0.000000
vn 1.000000 0.000000 0.000000
vn -1.000000 0.000000 0.000000
vn -1.000000 0.000000 0.000000
vn -1.000000 0.000000 0.000000
vn -0.419381 -0.000000 0.907811
vn -0.419380 -0.000000 0.907811
vn -0.419380 -0.000000 0.907811
vn -0.419380 -0.000000 0.907811
vn 0.000001 -0.000000 1.000000
vn 0.000001 -0.000000 1.000000
vn 0.000001 -0.000000 1.000000
vn 0.000001 -0.000000 1.000000
vn 0.386111 0.000000 0.922452
vn 0.386111 0.000000 0.922452
vn 0.386110 0.000000 0.922453
vn 0.386110 0.000000 0.922453
vn 1.000000 0.000000 0.000000
vn 1.000000 0.000000 0.000000
vn 1.000000 0.000000 0.000000
vn 0.000000 0.000000 -1.000000
vn 0.000000 0.000000 -1.000000
vn 0.000000 0.000000 -1.000000
vn 0.000000 0.000000 -1.000000
vn 0.000000 0.000000 -1.000000
vn 0.000000 0.000000 -1.000000
vn 0.000000 0.000000 -1.000000
vn 0.000000 0.000000 -1.000000
s off
f 6/1/1 4/2/2 3/3/3 5/4/4
f 7/5/5 8/6/6 2/7/7 9/8/8
f 12/9/9 1/10/10 10/11/11 11/12/12
f 1/13/13 2/14/14 3/15/15 4/16/16
f 5/4/17 3/3/18 2/7/19 8/6/20
f 1/10/21 4/2/22 6/1/23 10/11/24
f 9/17/25 2/14/26 1/13/27 12/18/28
f 18/19/29 17/20/30 15/21/31 16/22/32
f 19/23/33 21/24/34 14/25/35 20/26/36
f 24/27/37 23/28/38 22/29/39 13/30/40
f 13/31/41 16/32/42 15/33/43 14/34/44
f 17/20/45 20/26/46 14/25/47 15/21/48
f 13/30/49 22/29/50 18/19/51 16/22/52
f 21/35/53 24/36/54 13/31/55 14/34/56
f 7/37/57 25/38/58 8/39/59
f 11/40/60 10/41/61 28/42/62
f 5/43/63 26/44/64 27/45/65 6/46/66
f 9/47/67 21/48/68 19/49/69 7/37/70
f 25/38/71 26/44/72 5/43/73 8/39/74
f 6/46/75 27/45/76 28/50/77 10/51/78
f 7/37/79 29/52/80 25/38/81
f 29/53/82 30/54/83 26/55/84 25/56/85
f 27/57/86 26/55/87 30/54/88 31/58/89
f 28/59/90 27/57/91 31/58/92 32/60/93
f 11/40/94 28/42/95 32/61/96
f 19/49/97 33/62/98 29/52/99 7/37/100
f 33/62/101 34/63/102 30/64/103 29/52/104
f 31/65/105 30/64/106 34/63/107 35/66/108
f 32/67/109 31/65/110 35/66/111 36/68/112
f 11/40/113 32/61/114 36/69/115 23/70/116
f 19/49/117 37/71/118 33/62/119
f 37/72/120 38/73/121 34/74/122 33/75/123
f 35/76/124 34/74/125 38/73/126 39/77/127
f 36/78/128 35/76/129 39/77/130 40/79/131
f 23/70/132 36/69/133 40/80/134
f 19/49/135 20/81/136 37/71/137
f 20/81/138 17/82/139 38/83/140 37/71/141
f 39/84/142 38/83/143 17/82/144 18/85/145
f 40/86/146 39/84/147 18/85/148 22/87/149
f 23/70/150 40/80/151 22/88/152
f 23/89/153 24/90/154 12/91/155 11/92/156
f 12/93/157 24/94/158 21/95/159 9/96/160
