# This file uses centimeters as units for non-parametric coordinates.

v -26.978760 0.000000 -18.381348
v -26.978149 0.000000 18.381348
v -25.573730 3.790321 -18.381348
v -25.572510 3.790321 18.381348
v 25.573730 3.790321 -18.381348
v 25.573730 3.790321 18.381348
v 26.978760 0.000000 -18.381348
v 26.978760 0.000000 18.381348
v -9.359131 7.725067 -18.381348
v -9.359131 7.725067 18.381348
v -9.359131 0.816422 18.381348
v -9.359131 0.816422 -18.381348
v 9.359131 0.816422 18.381348
v 9.359131 7.725067 18.381348
v 9.359131 7.725067 -18.381348
v 9.359131 0.816422 -18.381348
v -20.911865 3.496780 -18.381348
v -20.910645 3.496780 18.381348
v -20.234375 0.000000 18.381348
v -20.234375 0.000000 -18.381348
v 20.234375 0.000000 18.381348
v 20.911865 3.496780 18.381348
v 20.911865 3.496780 -18.381348
v 20.234375 0.000000 -18.381348
v -26.500244 1.455622 -18.381348
v -20.234375 1.162066 -18.381348
v -9.359131 2.672272 -18.381348
v 9.359131 2.672272 -18.381348
v 20.234375 1.162066 -18.381348
v 26.501465 1.455622 -18.381348
v 26.501465 1.455622 18.381348
v 20.234375 1.162066 18.381348
v 9.359131 2.672272 18.381348
v -9.359131 2.672272 18.381348
v -20.234375 1.162066 18.381348
v -26.500244 1.455622 18.381348
v 2.418213 0.000000 -18.380737
v 1.503296 1.851997 -18.381348
v 0.000000 4.130821 -18.381348
v -0.000610 4.130821 18.381348
v 1.502686 1.851997 18.381348
v 2.418213 0.000000 18.380737
v -2.417603 0.000000 -18.381348
v -1.502686 1.851997 -18.380737
v -1.503296 1.851997 18.380737
v -2.418213 0.000000 18.381348
vt 0.489949 0.401473
vt 0.489949 0.401473
vt 0.038661 0.354973
vt 0.038661 0.354973
vt 0.038661 0.354973
vt 0.038661 0.354973
vt 0.489949 0.401473
vt 0.489949 0.401473
vt 0.489949 0.401473
vt 0.489949 0.401473
vt 0.489949 0.401473
vt 0.038661 0.354973
vt 0.489949 0.401473
vt 0.038661 0.354973
vt 0.489949 0.401473
vt 0.489949 0.401473
vt 0.038661 0.354973
vt 0.038661 0.354973
vt 0.038661 0.354973
vt 0.038661 0.354973
vt 0.489949 0.401473
vt 0.489949 0.401473
vt 0.489949 0.401473
vt 0.489949 0.401473
vt 0.038661 0.354973
vt 0.038661 0.354973
vt 0.038661 0.354973
vt 0.038661 0.354973
vt 0.489949 0.401473
vt 0.489949 0.401473
vt 0.038661 0.354973
vt 0.038661 0.354973
vt 0.038661 0.354973
vt 0.038661 0.354973
vt 0.489949 0.401473
vt 0.489949 0.401473
vt 0.489949 0.401473
vt 0.489949 0.401473
vt 0.489949 0.401473
vt 0.489949 0.401473
vt 0.038661 0.354973
vt 0.038661 0.354973
vt 0.038661 0.354973
vt 0.038661 0.354973
vt 0.489949 0.401473
vt 0.489949 0.401473
vt 0.038661 0.354973
vt 0.038661 0.354973
vt 0.038661 0.354973
vt 0.038661 0.354973
vt 0.038661 0.354973
vt 0.038661 0.354973
vt 0.038661 0.354973
vt 0.038661 0.354973
vt 0.038661 0.354973
vt 0.038661 0.354973
vt 0.038661 0.354973
vt 0.038661 0.354973
vt 0.038661 0.354973
vt 0.038661 0.354973
vt 0.489949 0.401473
vt 0.489949 0.401472
vt 0.038661 0.354973
vt 0.038661 0.354973
vt 0.038661 0.354973
vt 0.038661 0.354973
vt 0.038661 0.354973
vt 0.489949 0.401473
vt 0.038661 0.354973
vt 0.489949 0.401473
vt 0.489949 0.401472
vt 0.489949 0.401473
vt 0.038661 0.354973
vt 0.489949 0.401472
vt 0.038661 0.354973
vt 0.489949 0.401472
vn -0.950044 0.312115 0.000008
vn -0.950044 0.312115 0.000008
vn -0.950044 0.312115 0.000008
vn -0.950044 0.312115 0.000008
vn -0.358498 0.933531 -0.000003
vn -0.358498 0.933531 -0.000003
vn -0.358498 0.933531 -0.000003
vn -0.358498 0.933531 -0.000003
vn 0.950221 0.311576 0.000000
vn 0.950221 0.311576 0.000000
vn 0.950221 0.311576 0.000000
vn 0.950221 0.311576 0.000000
vn 0.116819 -0.993153 0.000000
vn 0.116819 -0.993153 0.000000
vn 0.116819 -0.993153 0.000000
vn 0.116819 -0.993153 0.000000
vn -0.000023 -0.000170 1.000000
vn -0.000023 -0.000170 1.000000
vn -0.000023 -0.000170 1.000000
vn -0.000023 -0.000170 1.000000
vn -0.000023 -0.000170 -1.000000
vn -0.000023 -0.000170 -1.000000
vn -0.000023 -0.000170 -1.000000
vn -0.000023 -0.000170 -1.000000
vn 0.000000 0.000000 1.000000
vn 0.000000 0.000000 1.000000
vn 0.000000 0.000000 1.000000
vn 0.000000 0.000000 1.000000
vn 0.074861 -0.997194 0.000000
vn 0.074861 -0.997194 0.000000
vn 0.074861 -0.997194 0.000000
vn 0.074861 -0.997194 0.000000
vn -0.000000 0.000000 -1.000000
vn -0.000000 0.000000 -1.000000
vn -0.000000 0.000000 -1.000000
vn -0.000000 0.000000 -1.000000
vn 0.000000 0.000000 1.000000
vn 0.000000 0.000000 1.000000
vn 0.000000 0.000000 1.000000
vn 0.000000 0.000000 1.000000
vn 0.343702 0.939079 0.000000
vn 0.343702 0.939079 0.000000
vn 0.343702 0.939079 0.000000
vn 0.343702 0.939079 0.000000
vn 0.000000 0.000000 -1.000000
vn 0.000000 0.000000 -1.000000
vn 0.000000 0.000000 -1.000000
vn 0.000000 0.000000 -1.000000
vn -0.074861 -0.997194 0.000000
vn -0.074861 -0.997194 0.000000
vn -0.074861 -0.997194 0.000000
vn -0.074861 -0.997194 0.000000
vn 0.062842 0.998024 -0.000002
vn 0.062842 0.998023 -0.000002
vn 0.062842 0.998024 -0.000002
vn 0.062842 0.998023 -0.000002
vn 0.000000 0.000000 1.000000
vn 0.000000 0.000000 1.000000
vn 0.000000 0.000000 1.000000
vn 0.000000 0.000000 1.000000
vn -0.000000 -1.000000 0.000000
vn -0.000000 -1.000000 0.000000
vn -0.000000 -1.000000 0.000000
vn -0.000000 -1.000000 0.000000
vn 0.000000 0.000000 -1.000000
vn 0.000000 0.000000 -1.000000
vn 0.000000 0.000000 -1.000000
vn 0.000000 0.000000 -1.000000
vn 0.000000 0.000000 1.000000
vn 0.000000 0.000000 1.000000
vn 0.000000 0.000000 1.000000
vn 0.000000 0.000000 1.000000
vn -0.062842 0.998024 0.000000
vn -0.062842 0.998024 0.000000
vn -0.062842 0.998024 0.000000
vn -0.062842 0.998024 0.000000
vn 0.000000 0.000000 -1.000000
vn 0.000000 0.000000 -1.000000
vn 0.000000 0.000000 -1.000000
vn 0.000000 0.000000 -1.000000
vn 0.000000 -1.000000 0.000000
vn 0.000000 -1.000000 0.000000
vn 0.000000 -1.000000 0.000000
vn 0.000000 -1.000000 0.000000
vn 0.000000 0.000000 -1.000000
vn 0.000000 0.000000 -1.000000
vn 0.000000 0.000000 -1.000000
vn 0.000000 0.000000 -1.000000
vn 0.000000 0.000000 -1.000000
vn 0.000000 0.000000 -1.000000
vn 0.000000 0.000000 -1.000000
vn 0.000000 0.000000 -1.000000
vn -0.000000 0.000000 -1.000000
vn -0.000000 0.000000 -1.000000
vn -0.000000 0.000000 -1.000000
vn -0.000000 0.000000 -1.000000
vn 0.000000 0.000000 -1.000000
vn 0.000000 0.000000 -1.000000
vn 0.000000 0.000000 -1.000000
vn 0.000000 0.000000 -1.000000
vn 0.000000 0.000000 -1.000000
vn 0.000000 0.000000 -1.000000
vn 0.000000 0.000000 -1.000000
vn 0.000000 0.000000 -1.000000
vn 0.929318 0.369281 0.000000
vn 0.929318 0.369281 0.000000
vn 0.929318 0.369281 0.000000
vn 0.929318 0.369281 0.000000
vn -0.000000 0.000000 1.000000
vn -0.000000 0.000000 1.000000
vn -0.000000 0.000000 1.000000
vn -0.000000 0.000000 1.000000
vn -0.000000 0.000000 1.000000
vn -0.000000 0.000000 1.000000
vn -0.000000 0.000000 1.000000
vn -0.000000 0.000000 1.000000
vn 0.000000 0.000000 1.000000
vn 0.000000 0.000000 1.000000
vn 0.000000 0.000000 1.000000
vn 0.000000 0.000000 1.000000
vn 0.000000 0.000000 1.000000
vn 0.000000 0.000000 1.000000
vn 0.000000 0.000000 1.000000
vn 0.000000 0.000000 1.000000
vn 0.000000 0.000000 1.000000
vn 0.000000 0.000000 1.000000
vn 0.000000 0.000000 1.000000
vn 0.000000 0.000000 1.000000
vn -0.929401 0.369071 0.000015
vn -0.929401 0.369071 0.000015
vn -0.929401 0.369071 0.000015
vn -0.929401 0.369071 0.000015
vn 0.000000 0.000000 -1.000000
vn 0.000000 0.000000 -1.000000
vn 0.000000 0.000000 -1.000000
vn 0.000000 0.000000 -1.000000
vn -0.000203 -0.000134 -1.000000
vn -0.000203 -0.000134 -1.000000
vn -0.000203 -0.000134 -1.000000
vn -0.000203 -0.000134 1.000000
vn -0.000203 -0.000134 1.000000
vn -0.000203 -0.000134 1.000000
vn 0.000000 0.000000 1.000000
vn 0.000000 0.000000 1.000000
vn 0.000000 0.000000 1.000000
vn 0.000000 0.000000 1.000000
vn 0.000000 -1.000000 0.000000
vn 0.000000 -1.000000 0.000000
vn 0.000000 -1.000000 0.000000
vn 0.000000 -1.000000 0.000000
vn 0.000058 0.000150 -1.000000
vn 0.000058 0.000150 -1.000000
vn 0.000058 0.000150 -1.000000
vn 0.000058 0.000150 -1.000000
vn 0.000013 -0.000086 -1.000000
vn 0.000013 -0.000086 -1.000000
vn 0.000013 -0.000086 -1.000000
vn 0.000013 -0.000086 -1.000000
vn 0.358518 0.933523 0.000003
vn 0.358518 0.933523 0.000003
vn 0.358518 0.933523 0.000003
vn 0.358518 0.933523 0.000003
vn 0.000014 -0.000086 1.000000
vn 0.000014 -0.000086 1.000000
vn 0.000014 -0.000086 1.000000
vn 0.000014 -0.000086 1.000000
vn 0.000058 0.000150 1.000000
vn 0.000058 0.000150 1.000000
vn 0.000058 0.000150 1.000000
vn 0.000058 0.000150 1.000000
vn -0.116814 -0.993154 -0.000001
vn -0.116814 -0.993154 -0.000001
vn -0.116814 -0.993154 -0.000001
vn -0.116814 -0.993154 -0.000001
vn -0.343718 0.939073 0.000006
vn -0.343718 0.939073 0.000006
vn -0.343718 0.939073 0.000006
vn -0.343718 0.939073 0.000006
s off
f 1/1/1 2/2/2 36/7/3 25/8/4
f 39/65/5 40/66/6 14/25/7 15/28/8
f 30/9/9 31/10/10 8/11/11 7/13/12
f 16/15/13 13/16/14 42/70/15 37/61/16
f 33/21/17 41/68/18 42/70/19 13/16/20
f 37/61/21 38/62/22 28/22/23 16/15/24
f 34/23/25 35/35/26 19/36/27 11/24/28
f 12/29/29 11/24/30 19/36/31 20/37/32
f 26/38/33 27/30/34 12/29/35 20/37/36
f 32/39/37 33/21/38 13/16/39 21/40/40
f 15/28/41 14/25/42 22/41/43 23/44/44
f 28/22/45 29/45/46 24/46/47 16/15/48
f 24/46/49 21/40/50 13/16/51 16/15/52
f 17/32/53 3/3/54 4/4/55 18/33/56
f 2/2/57 19/36/58 35/35/59 36/7/60
f 20/37/61 19/36/62 2/2/63 1/1/64
f 25/8/65 26/38/66 20/37/67 1/1/68
f 31/10/69 32/39/70 21/40/71 8/11/72
f 22/41/73 6/6/74 5/5/75 23/44/76
f 7/13/77 24/46/78 29/45/79 30/9/80
f 7/13/81 8/11/82 21/40/83 24/46/84
f 17/31/85 26/48/86 25/47/87 3/3/88
f 9/17/89 27/49/90 26/48/91 17/31/92
f 15/27/93 28/50/94 38/63/95 39/64/96
f 23/43/97 29/51/98 28/50/99 15/27/100
f 30/52/101 29/51/102 23/43/103 5/14/104
f 5/5/105 6/6/106 31/54/107 30/53/108
f 22/42/109 32/56/110 31/55/111 6/12/112
f 14/26/113 33/57/114 32/56/115 22/42/116
f 40/67/117 41/69/118 33/57/119 14/26/120
f 18/34/121 35/59/122 34/58/123 10/20/124
f 36/60/125 35/59/126 18/34/127 4/4/128
f 25/47/129 36/60/130 4/4/131 3/3/132
f 38/62/133 37/61/134 43/71/135 44/72/136
f 39/64/137 38/63/138 44/73/139
f 45/75/140 41/69/141 40/67/142
f 46/76/143 42/70/144 41/68/145 45/74/146
f 43/71/147 37/61/148 42/70/149 46/76/150
f 27/30/151 44/72/152 43/71/153 12/29/154
f 39/64/155 44/73/156 27/49/157 9/17/158
f 9/18/159 10/19/160 40/66/161 39/65/162
f 10/20/163 34/58/164 45/75/165 40/67/166
f 46/76/167 45/74/168 34/23/169 11/24/170
f 43/71/171 46/76/172 11/24/173 12/29/174
f 17/32/175 18/33/176 10/19/177 9/18/178
