# This file uses centimeters as units for non-parametric coordinates.

v 0.387634 489.284576 88.937408
v 26.621704 489.284576 88.937408
v 0.387634 499.999939 88.937408
v 26.621704 499.999939 88.937408
v 0.387634 499.999939 -0.801960
v 26.621704 499.999939 -0.801960
v 0.387634 489.284576 -0.801960
v 26.621704 489.284576 -0.801960
v 4.627197 16.184021 81.854851
v 21.430786 16.184021 81.854851
v 4.627197 489.284576 81.854851
v 21.430786 489.284576 81.854851
v 4.627197 489.284576 4.629997
v 21.430786 489.284576 4.629997
v 4.627197 16.184021 4.629997
v 21.430786 16.184021 4.629997
v 19.350769 18.170349 70.934692
v 234.938965 18.170349 70.934692
v 19.350769 486.223877 70.934692
v 234.938965 486.223877 70.934692
v 19.350769 18.170349 12.071022
v 234.938965 18.170349 12.071022
v 234.938965 486.223877 12.071022
v 19.350769 486.223877 12.071022
v 0.387634 0.000000 88.937408
v 26.621704 0.000000 88.937408
v 0.387634 16.184021 88.937408
v 26.621704 16.184021 88.937408
v 0.387634 16.184021 -0.801960
v 26.621704 16.184021 -0.801960
v 0.387634 0.000000 -0.801960
v 26.621704 0.000000 -0.801960
v 225.542725 489.284576 88.937408
v 251.776855 489.284576 88.937408
v 225.542725 499.999939 88.937408
v 251.776855 499.999939 88.937408
v 225.542725 499.999939 -0.801960
v 251.776855 499.999939 -0.801960
v 225.542725 489.284576 -0.801960
v 251.776855 489.284576 -0.801960
v 229.782349 16.184021 81.854851
v 246.585938 16.184021 81.854851
v 229.782349 489.284576 81.854851
v 246.585938 489.284576 81.854851
v 229.782349 489.284576 4.629997
v 246.585938 489.284576 4.629997
v 229.782349 16.184021 4.629997
v 246.585938 16.184021 4.629997
v 225.542725 0.000000 88.937408
v 251.776855 0.000000 88.937408
v 225.542725 16.184021 88.937408
v 251.776855 16.184021 88.937408
v 225.542725 16.184021 -0.801960
v 251.776855 16.184021 -0.801960
v 225.542725 0.000000 -0.801960
v 251.776855 0.000000 -0.801960
vt 0.514801 0.430054
vt 0.514801 0.430054
vt 0.514801 0.430054
vt 0.514801 0.430054
vt 0.514801 0.430054
vt 0.514801 0.430054
vt 0.514801 0.430054
vt 0.514801 0.430054
vt 0.514801 0.430061
vt 0.514801 0.430061
vt 0.514801 0.430054
vt 0.514801 0.430054
vt 0.514801 0.430054
vt 0.514801 0.430054
vt 0.514801 0.430061
vt 0.514801 0.430061
vt 0.514801 0.430061
vt 0.514801 0.430054
vt 0.514832 0.430054
vt 0.514832 0.430061
vt 0.047739 0.058138
vt 0.452461 0.058138
vt 0.452461 0.936813
vt 0.047739 0.936813
vt 0.514801 0.430061
vt 0.514832 0.430061
vt 0.514832 0.430054
vt 0.514801 0.430054
vt 0.514801 0.430061
vt 0.514801 0.430061
vt 0.514801 0.430061
vt 0.514801 0.430061
vt 0.514801 0.430061
vt 0.514801 0.430061
vt 0.514801 0.430061
vt 0.514801 0.430061
vt 0.514832 0.430054
vt 0.514832 0.430054
vt 0.514832 0.430054
vt 0.514832 0.430054
vt 0.514832 0.430054
vt 0.514832 0.430054
vt 0.514832 0.430054
vt 0.514832 0.430054
vt 0.514832 0.430061
vt 0.514832 0.430061
vt 0.514832 0.430054
vt 0.514832 0.430054
vt 0.514832 0.430054
vt 0.514832 0.430054
vt 0.514832 0.430061
vt 0.514832 0.430061
vt 0.514832 0.430061
vt 0.514832 0.430061
vt 0.514832 0.430061
vt 0.514832 0.430061
vt 0.514832 0.430061
vt 0.514832 0.430061
vt 0.514832 0.430061
vt 0.514832 0.430061
vn 0.000000 0.000000 1.000000
vn 0.000000 0.000000 1.000000
vn 0.000000 0.000000 1.000000
vn 0.000000 0.000000 1.000000
vn 0.000000 1.000000 0.000000
vn 0.000000 1.000000 0.000000
vn 0.000000 1.000000 0.000000
vn 0.000000 1.000000 0.000000
vn 0.000000 0.000000 -1.000000
vn 0.000000 0.000000 -1.000000
vn 0.000000 0.000000 -1.000000
vn 0.000000 0.000000 -1.000000
vn 0.000000 -1.000000 0.000000
vn 0.000000 -1.000000 0.000000
vn 0.000000 -1.000000 0.000000
vn 0.000000 -1.000000 0.000000
vn 1.000000 0.000000 0.000000
vn 1.000000 0.000000 0.000000
vn 1.000000 0.000000 0.000000
vn 1.000000 0.000000 0.000000
vn -1.000000 0.000000 0.000000
vn -1.000000 0.000000 0.000000
vn -1.000000 0.000000 0.000000
vn -1.000000 0.000000 0.000000
vn 0.000000 0.000000 1.000000
vn 0.000000 0.000000 1.000000
vn 0.000000 0.000000 1.000000
vn 0.000000 0.000000 1.000000
vn 0.000000 0.000000 -1.000000
vn 0.000000 0.000000 -1.000000
vn 0.000000 0.000000 -1.000000
vn 0.000000 0.000000 -1.000000
vn 1.000000 0.000000 0.000000
vn 1.000000 0.000000 0.000000
vn 1.000000 0.000000 0.000000
vn 1.000000 0.000000 0.000000
vn -1.000000 0.000000 0.000000
vn -1.000000 0.000000 0.000000
vn -1.000000 0.000000 0.000000
vn -1.000000 0.000000 0.000000
vn 0.000000 0.000000 -1.000000
vn 0.000000 0.000000 -1.000000
vn 0.000000 0.000000 -1.000000
vn 0.000000 0.000000 -1.000000
vn 0.000000 0.000000 1.000000
vn 0.000000 0.000000 1.000000
vn 0.000000 0.000000 1.000000
vn 0.000000 0.000000 1.000000
vn 0.000000 -1.000000 0.000000
vn 0.000000 -1.000000 0.000000
vn 0.000000 -1.000000 0.000000
vn 0.000000 -1.000000 0.000000
vn 0.000000 1.000000 0.000000
vn 0.000000 1.000000 0.000000
vn 0.000000 1.000000 0.000000
vn 0.000000 1.000000 0.000000
vn 0.000000 0.000000 1.000000
vn 0.000000 0.000000 1.000000
vn 0.000000 0.000000 1.000000
vn 0.000000 0.000000 1.000000
vn 0.000000 1.000000 0.000000
vn 0.000000 1.000000 0.000000
vn 0.000000 1.000000 0.000000
vn 0.000000 1.000000 0.000000
vn 0.000000 0.000000 -1.000000
vn 0.000000 0.000000 -1.000000
vn 0.000000 0.000000 -1.000000
vn 0.000000 0.000000 -1.000000
vn 0.000000 -1.000000 0.000000
vn 0.000000 -1.000000 0.000000
vn 0.000000 -1.000000 0.000000
vn 0.000000 -1.000000 0.000000
vn 1.000000 0.000000 0.000000
vn 1.000000 0.000000 0.000000
vn 1.000000 0.000000 0.000000
vn 1.000000 0.000000 0.000000
vn -1.000000 0.000000 0.000000
vn -1.000000 0.000000 0.000000
vn -1.000000 0.000000 0.000000
vn -1.000000 0.000000 0.000000
vn 0.000000 0.000000 1.000000
vn 0.000000 0.000000 1.000000
vn 0.000000 0.000000 1.000000
vn 0.000000 0.000000 1.000000
vn 0.000000 1.000000 0.000000
vn 0.000000 1.000000 0.000000
vn 0.000000 1.000000 0.000000
vn 0.000000 1.000000 0.000000
vn 0.000000 0.000000 -1.000000
vn 0.000000 0.000000 -1.000000
vn 0.000000 0.000000 -1.000000
vn 0.000000 0.000000 -1.000000
vn 0.000000 -1.000000 0.000000
vn 0.000000 -1.000000 0.000000
vn 0.000000 -1.000000 0.000000
vn 0.000000 -1.000000 0.000000
vn 1.000000 0.000000 0.000000
vn 1.000000 0.000000 0.000000
vn 1.000000 0.000000 0.000000
vn 1.000000 0.000000 0.000000
vn -1.000000 0.000000 0.000000
vn -1.000000 0.000000 0.000000
vn -1.000000 0.000000 0.000000
vn -1.000000 0.000000 0.000000
vn 0.000000 0.000000 1.000000
vn 0.000000 0.000000 1.000000
vn 0.000000 0.000000 1.000000
vn 0.000000 0.000000 1.000000
vn 0.000000 0.000000 -1.000000
vn 0.000000 0.000000 -1.000000
vn 0.000000 0.000000 -1.000000
vn 0.000000 0.000000 -1.000000
vn 1.000000 0.000000 0.000000
vn 1.000000 0.000000 0.000000
vn 1.000000 0.000000 0.000000
vn 1.000000 0.000000 0.000000
vn -1.000000 0.000000 0.000000
vn -1.000000 0.000000 0.000000
vn -1.000000 0.000000 0.000000
vn -1.000000 0.000000 0.000000
vn 0.000000 0.000000 1.000000
vn 0.000000 0.000000 1.000000
vn 0.000000 0.000000 1.000000
vn 0.000000 0.000000 1.000000
vn 0.000000 1.000000 0.000000
vn 0.000000 1.000000 0.000000
vn 0.000000 1.000000 0.000000
vn 0.000000 1.000000 0.000000
vn 0.000000 0.000000 -1.000000
vn 0.000000 0.000000 -1.000000
vn 0.000000 0.000000 -1.000000
vn 0.000000 0.000000 -1.000000
vn 0.000000 -1.000000 0.000000
vn 0.000000 -1.000000 0.000000
vn 0.000000 -1.000000 0.000000
vn 0.000000 -1.000000 0.000000
vn 1.000000 0.000000 0.000000
vn 1.000000 0.000000 0.000000
vn 1.000000 0.000000 0.000000
vn 1.000000 0.000000 0.000000
vn -1.000000 0.000000 0.000000
vn -1.000000 0.000000 0.000000
vn -1.000000 0.000000 0.000000
vn -1.000000 0.000000 0.000000
s off
f 1/1/1 2/2/2 4/3/3 3/4/4
f 3/4/5 4/3/6 6/5/7 5/6/8
f 5/6/9 6/5/10 8/7/11 7/8/12
f 7/8/13 8/7/14 2/2/15 1/1/16
f 2/2/17 8/7/18 6/5/19 4/3/20
f 7/8/21 1/1/22 3/4/23 5/6/24
f 9/9/25 10/10/26 12/11/27 11/12/28
f 13/13/29 14/14/30 16/15/31 15/16/32
f 10/10/33 16/15/34 14/14/35 12/11/36
f 15/16/37 9/9/38 11/12/39 13/13/40
f 21/17/41 24/18/42 23/19/43 22/20/44
f 17/21/45 18/22/46 20/23/47 19/24/48
f 17/25/49 21/17/50 22/20/51 18/26/52
f 20/27/53 23/19/54 24/18/55 19/28/56
f 25/29/57 26/30/58 28/31/59 27/32/60
f 27/32/61 28/31/62 30/33/63 29/34/64
f 29/34/65 30/33/66 32/35/67 31/36/68
f 31/36/69 32/35/70 26/30/71 25/29/72
f 26/30/73 32/35/74 30/33/75 28/31/76
f 31/36/77 25/29/78 27/32/79 29/34/80
f 33/37/81 34/38/82 36/39/83 35/40/84
f 35/40/85 36/39/86 38/41/87 37/42/88
f 37/42/89 38/41/90 40/43/91 39/44/92
f 39/44/93 40/43/94 34/38/95 33/37/96
f 34/38/97 40/43/98 38/41/99 36/39/100
f 39/44/101 33/37/102 35/40/103 37/42/104
f 41/45/105 42/46/106 44/47/107 43/48/108
f 45/49/109 46/50/110 48/51/111 47/52/112
f 42/46/113 48/51/114 46/50/115 44/47/116
f 47/52/117 41/45/118 43/48/119 45/49/120
f 49/53/121 50/54/122 52/55/123 51/56/124
f 51/56/125 52/55/126 54/57/127 53/58/128
f 53/58/129 54/57/130 56/59/131 55/60/132
f 55/60/133 56/59/134 50/54/135 49/53/136
f 50/54/137 56/59/138 54/57/139 52/55/140
f 55/60/141 49/53/142 51/56/143 53/58/144
