# This file uses centimeters as units for non-parametric coordinates.

v 2.595291 16.639137 11.923652
v -2.594910 16.639137 11.923842
v -1.066742 16.639137 13.430202
v 1.200256 16.639137 13.430119
v -1.521912 16.639137 15.091747
v 1.711807 16.639137 15.091747
v -3.701782 16.639137 -15.091748
v -3.701782 16.639137 13.585334
v -2.594910 16.639137 -15.091748
v 3.701782 16.639137 13.585334
v 3.701782 16.639137 -15.091748
v 2.595291 16.639137 -15.091748
v 2.595291 -16.639137 11.923652
v -2.594910 -16.639137 11.923842
v -1.066742 -16.639137 13.430202
v 1.200256 -16.639137 13.430119
v -1.521912 -16.639137 15.091747
v 1.711807 -16.639137 15.091747
v -3.701782 -16.639137 -15.091748
v -3.701782 -16.639137 13.585334
v -2.594910 -16.639137 -15.091748
v 3.701782 -16.639137 13.585334
v 3.701782 -16.639137 -15.091748
v 2.595291 -16.639137 -15.091748
v -3.701782 9.983635 13.585334
v 3.701782 9.983635 13.585334
v -3.701782 4.214668 13.585334
v 3.701782 4.214668 13.585334
v -1.521912 9.983635 15.091747
v -1.521912 4.214668 15.091747
v 1.711807 4.214668 15.091747
v 1.711807 9.983635 15.091747
vt 0.048789 0.328008
vt 0.048789 0.328008
vt 0.048789 0.328008
vt 0.048789 0.328008
vt 0.048789 0.328008
vt 0.048789 0.328009
vt 0.048789 0.328008
vt 0.048789 0.328008
vt 0.048789 0.328008
vt 0.048789 0.328008
vt 0.048789 0.328008
vt 0.048789 0.328008
vt 0.036637 0.352765
vt 0.036637 0.352765
vt 0.036637 0.352765
vt 0.036637 0.352765
vt 0.036637 0.352765
vt 0.036637 0.352765
vt 0.048789 0.328008
vt 0.048789 0.328008
vt 0.048789 0.328008
vt 0.048789 0.328008
vt 0.048789 0.328008
vt 0.048789 0.328008
vt 0.048789 0.328008
vt 0.048789 0.328009
vt 0.048789 0.328008
vt 0.048789 0.328008
vt 0.048789 0.328008
vt 0.048789 0.328008
vt 0.036637 0.352765
vt 0.036637 0.352765
vt 0.036637 0.352765
vt 0.036637 0.352765
vt 0.036637 0.352765
vt 0.036637 0.352765
vt 0.048789 0.328008
vt 0.048789 0.328009
vt 0.048789 0.328009
vt 0.048789 0.328008
vt 0.048789 0.328008
vt 0.048789 0.328008
vt 0.048789 0.328008
vt 0.048789 0.328008
vt 0.048789 0.328008
vt 0.048789 0.328008
vt 0.048789 0.328008
vt 0.048790 0.328008
vt 0.048790 0.328008
vt 0.080290 0.301535
vt 0.080290 0.301535
vt 0.080290 0.301534
vt 0.080290 0.301534
vt 0.048789 0.328008
vt 0.048789 0.328008
vt 0.048789 0.328008
vt 0.048789 0.328008
vt 0.048789 0.328008
vt 0.048789 0.328009
vt 0.048789 0.328008
vt 0.048789 0.328008
vt 0.048789 0.328008
vt 0.080290 0.301534
vt 0.080290 0.301534
vt 0.048789 0.328008
vt 0.048789 0.328008
vt 0.080290 0.301534
vt 0.080290 0.301534
vt 0.048789 0.328008
vt 0.048789 0.328008
vt 0.048790 0.328008
vt 0.048790 0.328008
vt 0.048789 0.328008
vt 0.048789 0.328008
vt 0.036637 0.352765
vt 0.036637 0.352765
vt 0.036637 0.352765
vt 0.036637 0.352765
vn 0.000000 1.000000 -0.000001
vn 0.000000 1.000000 -0.000001
vn 0.000000 1.000000 -0.000001
vn 0.000000 1.000000 -0.000001
vn 0.000000 1.000000 0.000000
vn 0.000000 1.000000 0.000000
vn 0.000000 1.000000 0.000000
vn 0.000000 1.000000 0.000000
vn 0.000000 1.000000 0.000000
vn 0.000000 1.000000 0.000000
vn 0.000000 1.000000 0.000000
vn 0.000000 1.000000 0.000000
vn 0.000000 1.000000 0.000001
vn 0.000000 1.000000 0.000001
vn 0.000000 1.000000 0.000001
vn 0.000000 1.000000 0.000001
vn 0.000000 1.000000 -0.000001
vn 0.000000 1.000000 -0.000001
vn 0.000000 1.000000 -0.000001
vn 0.000000 1.000000 -0.000001
vn 0.000000 1.000000 0.000000
vn 0.000000 1.000000 0.000000
vn 0.000000 1.000000 0.000000
vn 0.000000 1.000000 0.000000
vn 0.000000 1.000000 0.000000
vn 0.000000 1.000000 0.000000
vn 0.000000 1.000000 0.000000
vn 0.000000 1.000000 0.000000
vn 0.000000 -1.000000 -0.000001
vn 0.000000 -1.000000 -0.000001
vn 0.000000 -1.000000 -0.000001
vn 0.000000 -1.000000 -0.000001
vn 0.000000 -1.000000 0.000000
vn 0.000000 -1.000000 0.000000
vn 0.000000 -1.000000 0.000000
vn 0.000000 -1.000000 0.000000
vn 0.000000 -1.000000 0.000000
vn 0.000000 -1.000000 0.000000
vn 0.000000 -1.000000 0.000000
vn 0.000000 -1.000000 0.000000
vn 0.000000 -1.000000 0.000001
vn 0.000000 -1.000000 0.000001
vn 0.000000 -1.000000 0.000001
vn 0.000000 -1.000000 0.000001
vn 0.000000 -1.000000 -0.000000
vn 0.000000 -1.000000 -0.000000
vn 0.000000 -1.000000 -0.000000
vn 0.000000 -1.000000 -0.000000
vn 0.000000 -1.000000 0.000000
vn 0.000000 -1.000000 0.000000
vn 0.000000 -1.000000 0.000000
vn 0.000000 -1.000000 0.000000
vn 0.000000 -1.000000 0.000000
vn 0.000000 -1.000000 0.000000
vn 0.000000 -1.000000 0.000000
vn 0.000000 -1.000000 0.000000
vn -1.000000 0.000000 0.000000
vn -1.000000 0.000000 0.000000
vn -1.000000 0.000000 0.000000
vn -1.000000 0.000000 0.000000
vn 1.000000 0.000000 0.000000
vn 1.000000 0.000000 0.000000
vn 1.000000 0.000000 0.000000
vn 0.000000 0.000000 1.000000
vn 0.000000 0.000000 1.000000
vn 0.000000 0.000000 1.000000
vn 0.000000 0.000000 1.000000
vn 0.000000 0.000000 -1.000000
vn 0.000000 0.000000 -1.000000
vn 0.000000 0.000000 -1.000000
vn 0.000000 0.000000 -1.000000
vn 0.000000 0.000000 1.000000
vn 0.000000 0.000000 1.000000
vn 0.000000 0.000000 1.000000
vn 0.000000 0.000000 1.000000
vn 0.000000 0.000000 1.000000
vn 0.000000 0.000000 1.000000
vn 0.000000 0.000000 1.000000
vn 0.000000 0.000000 1.000000
vn -1.000000 0.000000 0.000000
vn -1.000000 0.000000 0.000000
vn -1.000000 0.000000 0.000000
vn -1.000000 0.000000 0.000000
vn -1.000000 0.000000 0.000000
vn -1.000000 0.000000 0.000000
vn 1.000000 0.000000 0.000000
vn 1.000000 0.000000 0.000000
vn 1.000000 0.000000 0.000000
vn 1.000000 0.000000 0.000000
vn 1.000000 0.000000 0.000000
vn 1.000000 0.000000 0.000000
vn 1.000000 0.000000 0.000000
vn -0.568514 0.000000 0.822674
vn -0.568514 0.000000 0.822674
vn -0.568514 0.000000 0.822674
vn -0.568514 0.000000 0.822674
vn -0.568514 0.000000 0.822674
vn -0.568514 0.000000 0.822674
vn -0.568514 0.000000 0.822674
vn -0.568514 0.000000 0.822674
vn -0.568514 0.000000 0.822674
vn -0.568514 0.000000 0.822674
vn -0.568514 0.000000 0.822674
vn -0.568514 0.000000 0.822674
vn 0.603567 0.000000 0.797313
vn 0.603567 0.000000 0.797313
vn 0.603567 0.000000 0.797313
vn 0.603567 0.000000 0.797313
vn 0.603567 0.000000 0.797312
vn 0.603567 0.000000 0.797312
vn 0.603567 0.000000 0.797312
vn 0.603567 0.000000 0.797312
vn 0.603567 0.000000 0.797313
vn 0.603567 0.000000 0.797313
vn 0.603567 0.000000 0.797313
vn 0.603567 0.000000 0.797313
vn 0.000000 0.000000 -1.000000
vn 0.000000 0.000000 -1.000000
vn 0.000000 0.000000 -1.000000
vn 0.000000 0.000000 -1.000000
vn 0.000000 0.000000 -1.000000
vn 0.000000 0.000000 -1.000000
vn 0.000000 0.000000 -1.000000
vn 0.000000 0.000000 -1.000000
s off
f 6/1/1 4/2/2 3/3/3 5/4/4
f 7/5/5 8/6/6 2/7/7 9/8/8
f 12/9/9 1/10/10 10/11/11 11/12/12
f 1/13/13 2/14/14 3/15/15 4/16/16
f 5/4/17 3/3/18 2/7/19 8/6/20
f 1/10/21 4/2/22 6/1/23 10/11/24
f 9/17/25 2/14/26 1/13/27 12/18/28
f 18/19/29 17/20/30 15/21/31 16/22/32
f 19/23/33 21/24/34 14/25/35 20/26/36
f 24/27/37 23/28/38 22/29/39 13/30/40
f 13/31/41 16/32/42 15/33/43 14/34/44
f 17/20/45 20/26/46 14/25/47 15/21/48
f 13/30/49 22/29/50 18/19/51 16/22/52
f 21/35/53 24/36/54 13/31/55 14/34/56
f 19/37/57 27/38/58 25/39/59 7/40/60
f 23/41/61 28/42/62 22/43/63
f 5/44/64 29/45/65 32/46/66 6/47/67
f 9/48/68 21/49/69 19/37/70 7/40/71
f 29/50/72 30/51/73 31/52/74 32/53/75
f 30/54/76 17/55/77 18/56/78 31/57/79
f 19/37/80 20/58/81 27/38/82
f 7/40/83 25/39/84 8/59/85
f 11/60/86 10/61/87 26/62/88
f 11/60/89 26/62/90 28/42/91 23/41/92
f 25/39/93 29/45/94 5/44/95 8/59/96
f 27/63/97 30/51/98 29/50/99 25/64/100
f 20/58/101 17/55/102 30/54/103 27/38/104
f 31/57/105 18/56/106 22/65/107 28/66/108
f 32/53/109 31/52/110 28/67/111 26/68/112
f 6/47/113 32/46/114 26/69/115 10/70/116
f 23/71/117 24/72/118 12/73/119 11/74/120
f 21/75/121 9/76/122 12/77/123 24/78/124
