# This file uses centimeters as units for non-parametric coordinates.

v -14.451637 0.000000 18.957005
v 14.451637 0.000000 18.957005
v -14.451637 0.000000 -18.956966
v 14.451637 0.000000 -18.956966
v 12.342368 0.000000 -16.190126
v -12.342358 0.000000 -16.190126
v -12.342358 0.000000 -13.175640
v 12.342368 0.000000 -13.175640
v -12.342358 0.000000 -11.898020
v 12.342368 0.000000 -11.898020
v -12.342358 0.000000 -8.646181
v 12.342368 0.000000 -8.646181
v -12.342358 0.000000 -2.747669
v 12.342368 0.000000 -2.747669
v -12.342358 0.000000 -0.073109
v 12.342368 0.000000 -0.073109
v -12.342358 0.000000 1.088982
v -12.342358 0.000000 3.706112
v -2.468472 0.000000 1.088982
v -2.468472 0.000000 3.706112
v -12.342358 0.000000 -7.184105
v 12.342368 0.000000 -7.184105
v -12.342358 0.000000 -3.987673
v 12.342368 0.000000 -3.987673
vt 0.103127 0.230196
vt 0.103127 0.230196
vt 0.103127 0.230196
vt 0.103127 0.230196
vt 0.037443 0.350944
vt 0.037443 0.350944
vt 0.037443 0.350944
vt 0.037443 0.350944
vt 0.037443 0.350944
vt 0.037443 0.350944
vt 0.037443 0.350944
vt 0.037443 0.350944
vt 0.037443 0.350944
vt 0.037443 0.350944
vt 0.037443 0.350944
vt 0.037443 0.350944
vt 0.037443 0.350944
vt 0.037443 0.350944
vt 0.037443 0.350944
vt 0.037443 0.350944
vt 0.037443 0.350944
vt 0.037443 0.350944
vt 0.037443 0.350944
vt 0.037443 0.350944
vt 0.037443 0.350944
vt 0.037443 0.350944
vt 0.037443 0.350944
vt 0.037443 0.350944
vt 0.037443 0.350944
vt 0.037443 0.350944
vt 0.037443 0.350944
vt 0.103127 0.230196
vt 0.103127 0.230196
vt 0.103127 0.230196
vt 0.103127 0.230196
vt 0.037443 0.350944
vt 0.037443 0.350944
vt 0.103127 0.230196
vt 0.103127 0.230196
vt 0.103127 0.230196
vt 0.103127 0.230196
vt 0.037443 0.350944
vt 0.037443 0.350944
vt 0.037443 0.350944
vt 0.037443 0.350944
vt 0.037443 0.350944
vt 0.103127 0.230196
vt 0.103127 0.230196
vt 0.103127 0.230196
vt 0.103127 0.230196
vt 0.103127 0.230196
vt 0.103127 0.230196
vt 0.103127 0.230196
vt 0.103127 0.230196
vt 0.037443 0.350944
vt 0.037443 0.350944
vt 0.037443 0.350944
vt 0.037443 0.350944
vt 0.037443 0.350944
vt 0.037443 0.350944
vt 0.037443 0.350944
vt 0.037443 0.350944
vt 0.037443 0.350944
vt 0.037443 0.350944
vt 0.037443 0.350944
vt 0.037443 0.350944
vt 0.037443 0.350944
vn 0.000000 1.000000 0.000000
vn 0.000000 1.000000 0.000000
vn 0.000000 1.000000 0.000000
vn 0.000000 1.000000 0.000000
vn 0.000000 1.000000 0.000000
vn 0.000000 1.000000 0.000000
vn 0.000000 1.000000 0.000000
vn 0.000000 1.000000 0.000000
vn 0.000000 1.000000 0.000000
vn 0.000000 1.000000 0.000000
vn 0.000000 1.000000 0.000000
vn 0.000000 1.000000 0.000000
vn 0.000000 1.000000 0.000000
vn 0.000000 1.000000 0.000000
vn 0.000000 1.000000 0.000000
vn 0.000000 1.000000 0.000000
vn 0.000000 1.000000 0.000000
vn 0.000000 1.000000 0.000000
vn 0.000000 1.000000 0.000000
vn 0.000000 1.000000 0.000000
vn 0.000000 1.000000 0.000000
vn 0.000000 1.000000 0.000000
vn 0.000000 1.000000 0.000000
vn 0.000000 1.000000 0.000000
vn 0.000000 1.000000 0.000000
vn 0.000000 1.000000 0.000000
vn 0.000000 1.000000 0.000000
vn 0.000000 1.000000 0.000000
vn 0.000000 1.000000 0.000000
vn 0.000000 1.000000 0.000000
vn 0.000000 1.000000 0.000000
vn 0.000000 1.000000 0.000000
vn 0.000000 1.000000 0.000000
vn 0.000000 1.000000 0.000000
vn 0.000000 1.000000 0.000000
vn 0.000000 1.000000 0.000000
vn 0.000000 1.000000 0.000000
vn 0.000000 1.000000 0.000000
vn 0.000000 1.000000 0.000000
vn 0.000000 1.000000 0.000000
vn 0.000000 1.000000 0.000000
vn 0.000000 1.000000 0.000000
vn 0.000000 1.000000 0.000000
vn 0.000000 1.000000 0.000000
vn 0.000000 1.000000 0.000000
vn 0.000000 1.000000 0.000000
vn 0.000000 1.000000 0.000000
vn 0.000000 1.000000 0.000000
vn 0.000000 1.000000 0.000000
vn 0.000000 1.000000 0.000000
vn 0.000000 1.000000 0.000000
vn 0.000000 1.000000 0.000000
vn 0.000000 1.000000 0.000000
vn 0.000000 1.000000 0.000000
vn 0.000000 1.000000 0.000000
vn 0.000000 1.000000 0.000000
vn 0.000000 1.000000 0.000000
vn 0.000000 1.000000 0.000000
vn 0.000000 1.000000 0.000000
vn 0.000000 1.000000 0.000000
vn 0.000000 1.000000 0.000000
vn 0.000000 1.000000 0.000000
vn 0.000000 1.000000 0.000000
vn 0.000000 1.000000 0.000000
vn 0.000000 1.000000 0.000000
vn 0.000000 1.000000 0.000000
vn 0.000000 1.000000 0.000000
vn 0.000000 1.000000 0.000000
vn 0.000000 1.000000 0.000000
vn 0.000000 1.000000 0.000000
vn 0.000000 1.000000 0.000000
vn 0.000000 1.000000 0.000000
s off
f 7/1/1 8/2/2 5/3/3 6/4/4
f 2/5/5 4/6/6 5/7/7 8/8/8 10/9/9 12/10/10 22/11/11 24/12/12 14/13/13 16/14/14
f 4/15/15 3/16/16 6/17/17 5/18/18
f 3/19/19 1/20/20 18/59/21 17/21/22 15/22/23 13/23/24 23/24/25 21/25/26 11/26/27 9/27/28 7/28/29 6/29/30
f 9/30/31 10/60/32 8/61/33 7/31/34
f 11/32/35 12/33/36 10/34/37 9/35/38
f 21/36/39 22/11/40 12/10/41 11/37/42
f 15/38/43 16/39/44 14/40/45 13/41/46
f 19/42/47 16/14/48 15/43/49 17/44/50
f 1/62/51 2/63/52 20/45/53 18/46/54
f 18/47/55 20/48/56 19/49/57 17/50/58
f 23/51/59 24/52/60 22/53/61 21/54/62
f 13/55/63 14/13/64 24/12/65 23/56/66
f 2/57/67 16/64/68 20/65/69
f 20/66/70 16/58/71 19/67/72
